<?xml version="1.0" encoding="UTF-8" standalone="no"?>
<!DOCTYPE svg PUBLIC "-//W3C//DTD SVG 1.1//EN"
 "http://www.w3.org/Graphics/SVG/1.1/DTD/svg11.dtd">
<!-- Generated by graphviz version 2.44.1 (20200629.0846)
 -->
<!-- Title: User Settings Pages: 1 -->
<svg width="361pt" height="27pt"
 viewBox="0.00 0.00 361.00 27.00" xmlns="http://www.w3.org/2000/svg" xmlns:xlink="http://www.w3.org/1999/xlink">
<g id="graph0" class="graph" transform="scale(1 1) rotate(0) translate(4 23)">
<title>User Settings</title>
<polygon fill="white" stroke="transparent" points="-4,4 -4,-23 357,-23 357,4 -4,4"/>
<!-- Node2 -->
<g id="node1" class="node">
<title>Node2</title>
<g id="a_node1"><a xlink:href="a00383.html" target="_top" xlink:title="Declaration of startup timing periods.">
<polygon fill="white" stroke="black" points="119,-19 0,-19 0,0 119,0 119,-19"/>
<text text-anchor="middle" x="59.5" y="-7" font-family="Helvetica,sans-Serif" font-size="10.00">Startup Timing Settings</text>
</a>
</g>
</g>
<!-- Node1 -->
<g id="node2" class="node">
<title>Node1</title>
<g id="a_node2"><a xlink:title="User&#45;declaration of startup timing periods using physical quantities.">
<polygon fill="#bfbfbf" stroke="black" points="231,-19 155,-19 155,0 231,0 231,-19"/>
<text text-anchor="middle" x="193" y="-7" font-family="Helvetica,sans-Serif" font-size="10.00">User Settings</text>
</a>
</g>
</g>
<!-- Node2&#45;&gt;Node1 -->
<g id="edge1" class="edge">
<title>Node2&#45;&gt;Node1</title>
<path fill="none" stroke="black" d="M129.52,-9.5C138.2,-9.5 146.81,-9.5 154.73,-9.5"/>
<polygon fill="black" stroke="black" points="129.33,-6 119.33,-9.5 129.33,-13 129.33,-6"/>
</g>
<!-- Node3 -->
<g id="node3" class="node">
<title>Node3</title>
<g id="a_node3"><a xlink:href="a00385.html" target="_top" xlink:title="User&#45;declaration of startup timing periods of the boost converter using physical quantities.">
<polygon fill="white" stroke="black" points="353,-19 267,-19 267,0 353,0 353,-19"/>
<text text-anchor="middle" x="310" y="-7" font-family="Helvetica,sans-Serif" font-size="10.00">Boost Converter</text>
</a>
</g>
</g>
<!-- Node1&#45;&gt;Node3 -->
<g id="edge2" class="edge">
<title>Node1&#45;&gt;Node3</title>
<path fill="none" stroke="black" d="M241.19,-9.5C249.69,-9.5 258.51,-9.5 266.85,-9.5"/>
<polygon fill="black" stroke="black" points="241.02,-6 231.02,-9.5 241.02,-13 241.02,-6"/>
</g>
</g>
</svg>
