<?xml version="1.0" encoding="UTF-8" standalone="no"?>
<!DOCTYPE svg PUBLIC "-//W3C//DTD SVG 1.1//EN"
 "http://www.w3.org/Graphics/SVG/1.1/DTD/svg11.dtd">
<!-- Generated by graphviz version 2.44.1 (20200629.0846)
 -->
<!-- Title: p33c_GpioInstance_GetHandle Pages: 1 -->
<!--zoomable 307 -->
<svg id="main" version="1.1" xmlns="http://www.w3.org/2000/svg" xmlns:xlink="http://www.w3.org/1999/xlink" xml:space="preserve" onload="init(evt)">
<style type="text/css"><![CDATA[
.edge:hover path { stroke: red; }
.edge:hover polygon { stroke: red; fill: red; }
]]></style>
<script type="text/javascript"><![CDATA[
var edges = document.getElementsByTagName('g');
if (edges && edges.length) {
  for (var i=0;i<edges.length;i++) {
    if (edges[i].id.substr(0,4)=='edge') {
      edges[i].setAttribute('class','edge');
    }
  }
}
]]></script>
        <defs>
                <circle id="rim" cx="0" cy="0" r="7"/>
                <circle id="rim2" cx="0" cy="0" r="3.5"/>
                <g id="zoomPlus">
                        <use xlink:href="#rim" fill="#404040">
                                <set attributeName="fill" to="#808080" begin="zoomplus.mouseover" end="zoomplus.mouseout"/>
                        </use>
                        <path d="M-4,0h8M0,-4v8" fill="none" stroke="white" stroke-width="1.5" pointer-events="none"/>
                </g>
                <g id="zoomMin">
                        <use xlink:href="#rim" fill="#404040">
                                <set attributeName="fill" to="#808080" begin="zoomminus.mouseover" end="zoomminus.mouseout"/>
                        </use>
                        <path d="M-4,0h8" fill="none" stroke="white" stroke-width="1.5" pointer-events="none"/>
                </g>
                <g id="dirArrow">
                        <path fill="none" stroke="white" stroke-width="1.5" d="M0,-3.0v7 M-2.5,-0.5L0,-3.0L2.5,-0.5"/>
                </g>
               <g id="resetDef">
                       <use xlink:href="#rim2" fill="#404040">
                               <set attributeName="fill" to="#808080" begin="reset.mouseover" end="reset.mouseout"/>
                       </use>
               </g>
        </defs>

<script type="text/javascript">
var viewWidth = 1316;
var viewHeight = 307;
var sectionId = 'dynsection-1';
</script>
<script xlink:href="svgpan.js"/>
<svg id="graph" class="graph">
<g id="viewport">
<title>p33c_GpioInstance_GetHandle</title>
<polygon fill="white" stroke="transparent" points="-4,4 -4,-302.5 1312,-302.5 1312,4 -4,4"/>
<!-- Node1 -->
<g id="node1" class="node">
<title>Node1</title>
<g id="a_node1"><a xlink:title="Gets pointer to GPIO Instance SFR set.">
<polygon fill="#bfbfbf" stroke="black" points="1157,-136 1157,-155 1308,-155 1308,-136 1157,-136"/>
<text text-anchor="middle" x="1232.5" y="-143" font-family="Helvetica,sans-Serif" font-size="10.00">p33c_GpioInstance_GetHandle</text>
</a>
</g>
</g>
<!-- Node2 -->
<g id="node2" class="node">
<title>Node2</title>
<g id="a_node2"><a xlink:href="a00491.html#ga0e291d0cb856167fd188be50090ef5ce" target="_top" xlink:title="This function clears the selected general purpose input/output pin.">
<polygon fill="white" stroke="black" points="1004.5,-212 1004.5,-231 1096.5,-231 1096.5,-212 1004.5,-212"/>
<text text-anchor="middle" x="1050.5" y="-219" font-family="Helvetica,sans-Serif" font-size="10.00">boostGPIO_Clear</text>
</a>
</g>
</g>
<!-- Node1&#45;&gt;Node2 -->
<g id="edge1" class="edge">
<title>Node1&#45;&gt;Node2</title>
<path fill="none" stroke="midnightblue" d="M1206.85,-160.12C1184.9,-172.67 1151.62,-190.57 1121,-202.5 1111.79,-206.09 1101.65,-209.27 1092.02,-211.96"/>
<polygon fill="midnightblue" stroke="midnightblue" points="1208.62,-163.14 1215.52,-155.1 1205.11,-157.08 1208.62,-163.14"/>
</g>
<!-- Node14 -->
<g id="node14" class="node">
<title>Node14</title>
<g id="a_node14"><a xlink:href="a00491.html#ga2690f2504ec6bad359a1ad75316a13f1" target="_top" xlink:title="This function gets the state of the selected pin.">
<polygon fill="white" stroke="black" points="989,-57 989,-76 1112,-76 1112,-57 989,-57"/>
<text text-anchor="middle" x="1050.5" y="-64" font-family="Helvetica,sans-Serif" font-size="10.00">boostGPIO_GetPinState</text>
</a>
</g>
</g>
<!-- Node1&#45;&gt;Node14 -->
<g id="edge13" class="edge">
<title>Node1&#45;&gt;Node14</title>
<path fill="none" stroke="midnightblue" d="M1206.35,-130.97C1184.32,-118.62 1151.2,-100.97 1121,-88.5 1109.77,-83.87 1097.19,-79.61 1085.85,-76.11"/>
<polygon fill="midnightblue" stroke="midnightblue" points="1204.64,-134.02 1215.07,-135.9 1208.09,-127.93 1204.64,-134.02"/>
</g>
<!-- Node27 -->
<g id="node27" class="node">
<title>Node27</title>
<g id="a_node27"><a xlink:href="a00491.html#ga2968a8235de619bada4a5aa5f3073019" target="_top" xlink:title="This function sets the pin as input or output.">
<polygon fill="white" stroke="black" points="983.5,-174 983.5,-193 1117.5,-193 1117.5,-174 983.5,-174"/>
<text text-anchor="middle" x="1050.5" y="-181" font-family="Helvetica,sans-Serif" font-size="10.00">boostGPIO_PrivateInitialize</text>
</a>
</g>
</g>
<!-- Node1&#45;&gt;Node27 -->
<g id="edge30" class="edge">
<title>Node1&#45;&gt;Node27</title>
<path fill="none" stroke="midnightblue" d="M1176.17,-157.18C1150.64,-162.57 1120.72,-168.89 1096.59,-173.98"/>
<polygon fill="midnightblue" stroke="midnightblue" points="1177.02,-160.58 1186.08,-155.09 1175.57,-153.73 1177.02,-160.58"/>
</g>
<!-- Node28 -->
<g id="node28" class="node">
<title>Node28</title>
<g id="a_node28"><a xlink:href="a00491.html#gadad66ac21f9bc94ef2ba538316c76efc" target="_top" xlink:title="This function sets the selected general purpose input/ouput pins.">
<polygon fill="white" stroke="black" points="1008,-98 1008,-117 1093,-117 1093,-98 1008,-98"/>
<text text-anchor="middle" x="1050.5" y="-105" font-family="Helvetica,sans-Serif" font-size="10.00">boostGPIO_Set</text>
</a>
</g>
</g>
<!-- Node1&#45;&gt;Node28 -->
<g id="edge32" class="edge">
<title>Node1&#45;&gt;Node28</title>
<path fill="none" stroke="midnightblue" d="M1176.1,-133.8C1149.38,-128.16 1117.86,-121.51 1093.21,-116.3"/>
<polygon fill="midnightblue" stroke="midnightblue" points="1175.57,-137.27 1186.08,-135.91 1177.02,-130.42 1175.57,-137.27"/>
</g>
<!-- Node30 -->
<g id="node30" class="node">
<title>Node30</title>
<g id="a_node30"><a xlink:href="a00491.html#ga76d61bc918bb955a0d2019a9469b2e25" target="_top" xlink:title="This function initializes the output pins for the PWM output and the default boost PWM settings.">
<polygon fill="white" stroke="black" points="980,-136 980,-155 1121,-155 1121,-136 980,-136"/>
<text text-anchor="middle" x="1050.5" y="-143" font-family="Helvetica,sans-Serif" font-size="10.00">boostPWM_ChannelInitialize</text>
</a>
</g>
</g>
<!-- Node1&#45;&gt;Node30 -->
<g id="edge34" class="edge">
<title>Node1&#45;&gt;Node30</title>
<path fill="none" stroke="midnightblue" d="M1146.88,-145.5C1138.23,-145.5 1129.51,-145.5 1121.05,-145.5"/>
<polygon fill="midnightblue" stroke="midnightblue" points="1146.99,-149 1156.99,-145.5 1146.99,-142 1146.99,-149"/>
</g>
<!-- Node3 -->
<g id="node3" class="node">
<title>Node3</title>
<g id="a_node3"><a xlink:href="a00491.html#ga204b527b94398e138949cd166bcc24dc" target="_top" xlink:title="This function initializes the boost input pins.">
<polygon fill="white" stroke="black" points="823,-174 823,-193 928,-193 928,-174 823,-174"/>
<text text-anchor="middle" x="875.5" y="-181" font-family="Helvetica,sans-Serif" font-size="10.00">boostGPIO_Initialize</text>
</a>
</g>
</g>
<!-- Node2&#45;&gt;Node3 -->
<g id="edge2" class="edge">
<title>Node2&#45;&gt;Node3</title>
<path fill="none" stroke="midnightblue" d="M995.99,-209.75C971.53,-204.37 942.93,-198.09 919.84,-193.02"/>
<polygon fill="midnightblue" stroke="midnightblue" points="995.33,-213.18 1005.84,-211.91 996.83,-206.35 995.33,-213.18"/>
</g>
<!-- Node8 -->
<g id="node8" class="node">
<title>Node8</title>
<g id="a_node8"><a xlink:href="a00491.html#ga106051f11636da04a8f6a91413a10390" target="_top" xlink:title="This function stops the boost PWM output.">
<polygon fill="white" stroke="black" points="830,-269 830,-288 921,-288 921,-269 830,-269"/>
<text text-anchor="middle" x="875.5" y="-276" font-family="Helvetica,sans-Serif" font-size="10.00">boostPWM_Stop</text>
</a>
</g>
</g>
<!-- Node2&#45;&gt;Node8 -->
<g id="edge7" class="edge">
<title>Node2&#45;&gt;Node8</title>
<path fill="none" stroke="midnightblue" d="M1010.68,-234.29C978.81,-244.79 934.4,-259.42 905.55,-268.93"/>
<polygon fill="midnightblue" stroke="midnightblue" points="1012.14,-237.49 1020.54,-231.04 1009.95,-230.85 1012.14,-237.49"/>
</g>
<!-- Node11 -->
<g id="node11" class="node">
<title>Node11</title>
<g id="a_node11"><a xlink:href="a00491.html#gac6b33134d75a969d4deb6e2f158e6d9c" target="_top" xlink:title="This function disables the PWM generator IOs.">
<polygon fill="white" stroke="black" points="821,-212 821,-231 930,-231 930,-212 821,-212"/>
<text text-anchor="middle" x="875.5" y="-219" font-family="Helvetica,sans-Serif" font-size="10.00">boostPWM_Suspend</text>
</a>
</g>
</g>
<!-- Node2&#45;&gt;Node11 -->
<g id="edge10" class="edge">
<title>Node2&#45;&gt;Node11</title>
<path fill="none" stroke="midnightblue" d="M994.36,-221.5C973.84,-221.5 950.59,-221.5 930.2,-221.5"/>
<polygon fill="midnightblue" stroke="midnightblue" points="994.5,-225 1004.5,-221.5 994.5,-218 994.5,-225"/>
</g>
<!-- Node4 -->
<g id="node4" class="node">
<title>Node4</title>
<g id="a_node4"><a xlink:href="a00468.html#gafe5ee9f0daeb397241fe4c9d799ac5f3" target="_top" xlink:title="This function initializes all peripheral modules and their instances used by the power controller.">
<polygon fill="white" stroke="black" points="655.5,-153.5 655.5,-183.5 755.5,-183.5 755.5,-153.5 655.5,-153.5"/>
<text text-anchor="start" x="663.5" y="-171.5" font-family="Helvetica,sans-Serif" font-size="10.00">drv_BoostConverter</text>
<text text-anchor="middle" x="705.5" y="-160.5" font-family="Helvetica,sans-Serif" font-size="10.00">_Initialize</text>
</a>
</g>
</g>
<!-- Node3&#45;&gt;Node4 -->
<g id="edge3" class="edge">
<title>Node3&#45;&gt;Node4</title>
<path fill="none" stroke="midnightblue" d="M812.74,-177.99C793.88,-176.3 773.41,-174.47 755.52,-172.88"/>
<polygon fill="midnightblue" stroke="midnightblue" points="812.45,-181.47 822.72,-178.88 813.07,-174.5 812.45,-181.47"/>
</g>
<!-- Node5 -->
<g id="node5" class="node">
<title>Node5</title>
<g id="a_node5"><a xlink:href="a00464.html#ga0b26acfec74d1804384b4ba1a3cffab4" target="_top" xlink:title="This function is used to load peripheral configuration templates from the power controller device dri...">
<polygon fill="white" stroke="black" points="461,-154.5 461,-184.5 604,-184.5 604,-154.5 461,-154.5"/>
<text text-anchor="start" x="469" y="-172.5" font-family="Helvetica,sans-Serif" font-size="10.00">appPowerSupply_Peripherals</text>
<text text-anchor="middle" x="532.5" y="-161.5" font-family="Helvetica,sans-Serif" font-size="10.00">Initialize</text>
</a>
</g>
</g>
<!-- Node4&#45;&gt;Node5 -->
<g id="edge4" class="edge">
<title>Node4&#45;&gt;Node5</title>
<path fill="none" stroke="midnightblue" d="M645.13,-168.85C631.92,-168.92 617.79,-169.01 604.17,-169.09"/>
<polygon fill="midnightblue" stroke="midnightblue" points="645.52,-172.35 655.5,-168.79 645.48,-165.35 645.52,-172.35"/>
</g>
<!-- Node6 -->
<g id="node6" class="node">
<title>Node6</title>
<g id="a_node6"><a xlink:href="a00461.html#ga7a4cf6371d09457539f96a74b2809ca0" target="_top" xlink:title="Calls the application layer power controller initialization.">
<polygon fill="white" stroke="black" points="155,-151 155,-170 285,-170 285,-151 155,-151"/>
<text text-anchor="middle" x="220" y="-158" font-family="Helvetica,sans-Serif" font-size="10.00">appPowerSupply_Initialize</text>
</a>
</g>
</g>
<!-- Node5&#45;&gt;Node6 -->
<g id="edge5" class="edge">
<title>Node5&#45;&gt;Node6</title>
<path fill="none" stroke="midnightblue" d="M450.54,-167.15C398.99,-165.66 333.14,-163.75 285.2,-162.36"/>
<polygon fill="midnightblue" stroke="midnightblue" points="450.56,-170.66 460.65,-167.45 450.76,-163.66 450.56,-170.66"/>
</g>
<!-- Node7 -->
<g id="node7" class="node">
<title>Node7</title>
<g id="a_node7"><a xlink:href="a00536.html#ga2be64f5f0b9a2c0c6713f5a69d793e05" target="_top" xlink:title="Initializes the user&#45;defined tasks.">
<polygon fill="white" stroke="black" points="0,-113 0,-132 119,-132 119,-113 0,-113"/>
<text text-anchor="middle" x="59.5" y="-120" font-family="Helvetica,sans-Serif" font-size="10.00">sysUserTasks_Initialize</text>
</a>
</g>
</g>
<!-- Node6&#45;&gt;Node7 -->
<g id="edge6" class="edge">
<title>Node6&#45;&gt;Node7</title>
<path fill="none" stroke="midnightblue" d="M169.08,-148.53C146.87,-143.21 121.08,-137.02 100.21,-132.02"/>
<polygon fill="midnightblue" stroke="midnightblue" points="168.46,-151.98 179,-150.91 170.1,-145.18 168.46,-151.98"/>
</g>
<!-- Node9 -->
<g id="node9" class="node">
<title>Node9</title>
<g id="a_node9"><a xlink:href="a00468.html#gaaf54320205622e4683e05c9c30c83dc0" target="_top" xlink:title="This function stop the boost converter opration.">
<polygon fill="white" stroke="black" points="643,-279 643,-298 768,-298 768,-279 643,-279"/>
<text text-anchor="middle" x="705.5" y="-286" font-family="Helvetica,sans-Serif" font-size="10.00">drv_BoostConverter_Stop</text>
</a>
</g>
</g>
<!-- Node8&#45;&gt;Node9 -->
<g id="edge8" class="edge">
<title>Node8&#45;&gt;Node9</title>
<path fill="none" stroke="midnightblue" d="M819.87,-281.75C803.31,-282.74 785.02,-283.83 768.05,-284.84"/>
<polygon fill="midnightblue" stroke="midnightblue" points="820.15,-285.24 829.92,-281.15 819.73,-278.25 820.15,-285.24"/>
</g>
<!-- Node10 -->
<g id="node10" class="node">
<title>Node10</title>
<g id="a_node10"><a xlink:href="a00461.html#gaa7d413f62f7b5f25d152cc12354241f0" target="_top" xlink:title="This function calls the boost converter device driver function stopping the power supply.">
<polygon fill="white" stroke="black" points="475,-279 475,-298 590,-298 590,-279 475,-279"/>
<text text-anchor="middle" x="532.5" y="-286" font-family="Helvetica,sans-Serif" font-size="10.00">appPowerSupply_Stop</text>
</a>
</g>
</g>
<!-- Node9&#45;&gt;Node10 -->
<g id="edge9" class="edge">
<title>Node9&#45;&gt;Node10</title>
<path fill="none" stroke="midnightblue" d="M632.54,-288.5C618.34,-288.5 603.63,-288.5 590.03,-288.5"/>
<polygon fill="midnightblue" stroke="midnightblue" points="632.77,-292 642.77,-288.5 632.77,-285 632.77,-292"/>
</g>
<!-- Node12 -->
<g id="node12" class="node">
<title>Node12</title>
<g id="a_node12"><a xlink:href="a00479.html#ga9eb174458c7fd652dd725988f435cfdb" target="_top" xlink:title="If this function is called, the state machine is reset to INITIALIZE (URL=State_Initialize).">
<polygon fill="white" stroke="black" points="672.5,-203 672.5,-222 738.5,-222 738.5,-203 672.5,-203"/>
<text text-anchor="middle" x="705.5" y="-210" font-family="Helvetica,sans-Serif" font-size="10.00">State_Error</text>
</a>
</g>
</g>
<!-- Node11&#45;&gt;Node12 -->
<g id="edge11" class="edge">
<title>Node11&#45;&gt;Node12</title>
<path fill="none" stroke="midnightblue" d="M810.85,-218.09C786.19,-216.77 759.04,-215.31 738.61,-214.22"/>
<polygon fill="midnightblue" stroke="midnightblue" points="810.71,-221.59 820.88,-218.63 811.08,-214.6 810.71,-221.59"/>
</g>
<!-- Node13 -->
<g id="node13" class="node">
<title>Node13</title>
<g id="a_node13"><a xlink:href="a00479.html#ga54a9e1e78d536910ed756a227c2ed30b" target="_top" xlink:title="This function resets the boost control operation by re&#45;initiating the control mode,...">
<polygon fill="white" stroke="black" points="670,-241 670,-260 741,-260 741,-241 670,-241"/>
<text text-anchor="middle" x="705.5" y="-248" font-family="Helvetica,sans-Serif" font-size="10.00">State_Reset</text>
</a>
</g>
</g>
<!-- Node11&#45;&gt;Node13 -->
<g id="edge12" class="edge">
<title>Node11&#45;&gt;Node13</title>
<path fill="none" stroke="midnightblue" d="M810.9,-232.48C787.22,-236.57 761.24,-241.05 741.12,-244.52"/>
<polygon fill="midnightblue" stroke="midnightblue" points="811.62,-235.91 820.88,-230.76 810.43,-229.01 811.62,-235.91"/>
</g>
<!-- Node15 -->
<g id="node15" class="node">
<title>Node15</title>
<g id="a_node15"><a xlink:href="a00468.html#gac9132ab11bac82cf39cc4647fa7b5a1a" target="_top" xlink:title="This function is the main boost converter state machine executing the most recent state.">
<polygon fill="white" stroke="black" points="825.5,-47.5 825.5,-77.5 925.5,-77.5 925.5,-47.5 825.5,-47.5"/>
<text text-anchor="start" x="833.5" y="-65.5" font-family="Helvetica,sans-Serif" font-size="10.00">drv_BoostConverter</text>
<text text-anchor="middle" x="875.5" y="-54.5" font-family="Helvetica,sans-Serif" font-size="10.00">_Execute</text>
</a>
</g>
</g>
<!-- Node14&#45;&gt;Node15 -->
<g id="edge14" class="edge">
<title>Node14&#45;&gt;Node15</title>
<path fill="none" stroke="midnightblue" d="M978.87,-64.87C960.97,-64.45 942.12,-64.02 925.55,-63.63"/>
<polygon fill="midnightblue" stroke="midnightblue" points="978.91,-68.37 988.99,-65.1 979.08,-61.37 978.91,-68.37"/>
</g>
<!-- Node16 -->
<g id="node16" class="node">
<title>Node16</title>
<g id="a_node16"><a xlink:href="a00461.html#ga13094235dd6cc123d9299925359ca178" target="_top" xlink:title="This is the top&#45;level function call triggering the most recent state machine of all associated power ...">
<polygon fill="white" stroke="black" points="640,-50 640,-69 771,-69 771,-50 640,-50"/>
<text text-anchor="middle" x="705.5" y="-57" font-family="Helvetica,sans-Serif" font-size="10.00">appPowerSupply_Execute</text>
</a>
</g>
</g>
<!-- Node15&#45;&gt;Node16 -->
<g id="edge15" class="edge">
<title>Node15&#45;&gt;Node16</title>
<path fill="none" stroke="midnightblue" d="M815.29,-61.44C801.03,-61.19 785.73,-60.91 771.24,-60.66"/>
<polygon fill="midnightblue" stroke="midnightblue" points="815.39,-64.95 825.46,-61.62 815.52,-57.95 815.39,-64.95"/>
</g>
<!-- Node18 -->
<g id="node18" class="node">
<title>Node18</title>
<g id="a_node18"><a xlink:href="a00468.html#gaac655851a3986299a041f1d453e9f27e" target="_top" xlink:title="This function resume the operation of the boost converter.">
<polygon fill="white" stroke="black" points="655.5,-0.5 655.5,-30.5 755.5,-30.5 755.5,-0.5 655.5,-0.5"/>
<text text-anchor="start" x="663.5" y="-18.5" font-family="Helvetica,sans-Serif" font-size="10.00">drv_BoostConverter</text>
<text text-anchor="middle" x="705.5" y="-7.5" font-family="Helvetica,sans-Serif" font-size="10.00">_Resume</text>
</a>
</g>
</g>
<!-- Node15&#45;&gt;Node18 -->
<g id="edge17" class="edge">
<title>Node15&#45;&gt;Node18</title>
<path fill="none" stroke="midnightblue" d="M815.7,-46.05C796.07,-40.56 774.42,-34.5 755.61,-29.24"/>
<polygon fill="midnightblue" stroke="midnightblue" points="814.88,-49.46 825.46,-48.78 816.77,-42.71 814.88,-49.46"/>
</g>
<!-- Node20 -->
<g id="node20" class="node">
<title>Node20</title>
<g id="a_node20"><a xlink:href="a00468.html#ga06815ea10e42fd1e1347e17e90bf49b9" target="_top" xlink:title="This function suspends the operation of the boost converter.">
<polygon fill="white" stroke="black" points="655.5,-88.5 655.5,-118.5 755.5,-118.5 755.5,-88.5 655.5,-88.5"/>
<text text-anchor="start" x="663.5" y="-106.5" font-family="Helvetica,sans-Serif" font-size="10.00">drv_BoostConverter</text>
<text text-anchor="middle" x="705.5" y="-95.5" font-family="Helvetica,sans-Serif" font-size="10.00">_Suspend</text>
</a>
</g>
</g>
<!-- Node15&#45;&gt;Node20 -->
<g id="edge19" class="edge">
<title>Node15&#45;&gt;Node20</title>
<path fill="none" stroke="midnightblue" d="M815.7,-76.85C796.07,-81.64 774.42,-86.92 755.61,-91.52"/>
<polygon fill="midnightblue" stroke="midnightblue" points="816.57,-80.24 825.46,-74.47 814.91,-73.44 816.57,-80.24"/>
</g>
<!-- Node17 -->
<g id="node17" class="node">
<title>Node17</title>
<g id="a_node17"><a xlink:href="a00524.html#ga1873ce221ca3545badd9c72c846bba3d" target="_top" xlink:title="High priority task sequence executed at a fixed repetition frequency.">
<polygon fill="white" stroke="black" points="478,-44.5 478,-74.5 587,-74.5 587,-44.5 478,-44.5"/>
<text text-anchor="start" x="486" y="-62.5" font-family="Helvetica,sans-Serif" font-size="10.00">sysHighPriorityTasks</text>
<text text-anchor="middle" x="532.5" y="-51.5" font-family="Helvetica,sans-Serif" font-size="10.00">_Execute</text>
</a>
</g>
</g>
<!-- Node16&#45;&gt;Node17 -->
<g id="edge16" class="edge">
<title>Node16&#45;&gt;Node17</title>
<path fill="none" stroke="midnightblue" d="M629.54,-59.5C615.25,-59.5 600.55,-59.5 587.09,-59.5"/>
<polygon fill="midnightblue" stroke="midnightblue" points="629.85,-63 639.85,-59.5 629.85,-56 629.85,-63"/>
</g>
<!-- Node19 -->
<g id="node19" class="node">
<title>Node19</title>
<g id="a_node19"><a xlink:href="a00461.html#ga3c7bf6b771bc1296401a270da4a95bff" target="_top" xlink:title="This function resumes the power supply operation.">
<polygon fill="white" stroke="black" points="467,-6 467,-25 598,-25 598,-6 467,-6"/>
<text text-anchor="middle" x="532.5" y="-13" font-family="Helvetica,sans-Serif" font-size="10.00">appPowerSupply_Resume</text>
</a>
</g>
</g>
<!-- Node18&#45;&gt;Node19 -->
<g id="edge18" class="edge">
<title>Node18&#45;&gt;Node19</title>
<path fill="none" stroke="midnightblue" d="M645.2,-15.5C630.01,-15.5 613.59,-15.5 598.14,-15.5"/>
<polygon fill="midnightblue" stroke="midnightblue" points="645.5,-19 655.5,-15.5 645.5,-12 645.5,-19"/>
</g>
<!-- Node21 -->
<g id="node21" class="node">
<title>Node21</title>
<g id="a_node21"><a xlink:href="a00461.html#gafa4e90d260e60cf20f06acee067c39cd" target="_top" xlink:title="This function stops the power supply operation.">
<polygon fill="white" stroke="black" points="466,-94 466,-113 599,-113 599,-94 466,-94"/>
<text text-anchor="middle" x="532.5" y="-101" font-family="Helvetica,sans-Serif" font-size="10.00">appPowerSupply_Suspend</text>
</a>
</g>
</g>
<!-- Node20&#45;&gt;Node21 -->
<g id="edge20" class="edge">
<title>Node20&#45;&gt;Node21</title>
<path fill="none" stroke="midnightblue" d="M645.38,-103.5C630.44,-103.5 614.32,-103.5 599.09,-103.5"/>
<polygon fill="midnightblue" stroke="midnightblue" points="645.5,-107 655.5,-103.5 645.5,-100 645.5,-107"/>
</g>
<!-- Node22 -->
<g id="node22" class="node">
<title>Node22</title>
<g id="a_node22"><a xlink:href="a00427.html#ga54f9db91ea0782b08aa16ee77a57c5e5" target="_top" xlink:title="Initializes the user&#45;defined fault objects for overcurrent protection.">
<polygon fill="white" stroke="black" points="325.5,-56 325.5,-75 420.5,-75 420.5,-56 325.5,-56"/>
<text text-anchor="middle" x="373" y="-63" font-family="Helvetica,sans-Serif" font-size="10.00">ocp_FaultInitialize</text>
</a>
</g>
</g>
<!-- Node21&#45;&gt;Node22 -->
<g id="edge21" class="edge">
<title>Node21&#45;&gt;Node22</title>
<path fill="none" stroke="midnightblue" d="M481.9,-91.53C459.82,-86.21 434.2,-80.02 413.46,-75.02"/>
<polygon fill="midnightblue" stroke="midnightblue" points="481.21,-94.97 491.76,-93.91 482.86,-88.16 481.21,-94.97"/>
</g>
<!-- Node24 -->
<g id="node24" class="node">
<title>Node24</title>
<g id="a_node24"><a xlink:href="a00427.html#gade437244e8f6e5ff7c57a73442063350" target="_top" xlink:title="Initializes the user&#45;defined fault objects for overvoltage lockout.">
<polygon fill="white" stroke="black" points="325.5,-18 325.5,-37 420.5,-37 420.5,-18 325.5,-18"/>
<text text-anchor="middle" x="373" y="-25" font-family="Helvetica,sans-Serif" font-size="10.00">ovlo_FaultInitialize</text>
</a>
</g>
</g>
<!-- Node21&#45;&gt;Node24 -->
<g id="edge24" class="edge">
<title>Node21&#45;&gt;Node24</title>
<path fill="none" stroke="midnightblue" d="M475.04,-90.41C470.15,-88.41 465.39,-86.12 461,-83.5 441.29,-71.75 444.22,-59.03 425,-46.5 419.3,-42.78 412.77,-39.66 406.34,-37.08"/>
<polygon fill="midnightblue" stroke="midnightblue" points="473.97,-93.75 484.56,-93.91 476.38,-87.18 473.97,-93.75"/>
</g>
<!-- Node25 -->
<g id="node25" class="node">
<title>Node25</title>
<g id="a_node25"><a xlink:href="a00427.html#ga82dc317e3adac0308e5ac3f5ad321605" target="_top" xlink:title="Initializes the user&#45;defined fault objects for regulation error.">
<polygon fill="white" stroke="black" points="321,-132 321,-151 425,-151 425,-132 321,-132"/>
<text text-anchor="middle" x="373" y="-139" font-family="Helvetica,sans-Serif" font-size="10.00">regerr_FaultInitialize</text>
</a>
</g>
</g>
<!-- Node21&#45;&gt;Node25 -->
<g id="edge26" class="edge">
<title>Node21&#45;&gt;Node25</title>
<path fill="none" stroke="midnightblue" d="M481.9,-115.47C459.82,-120.79 434.2,-126.98 413.46,-131.98"/>
<polygon fill="midnightblue" stroke="midnightblue" points="482.86,-118.84 491.76,-113.09 481.21,-112.03 482.86,-118.84"/>
</g>
<!-- Node26 -->
<g id="node26" class="node">
<title>Node26</title>
<g id="a_node26"><a xlink:href="a00427.html#ga9441220f8a7d4a6805467d04b734e6b5" target="_top" xlink:title="Initializes the user&#45;defined fault objects for under&#45;voltage lockout.">
<polygon fill="white" stroke="black" points="325.5,-94 325.5,-113 420.5,-113 420.5,-94 325.5,-94"/>
<text text-anchor="middle" x="373" y="-101" font-family="Helvetica,sans-Serif" font-size="10.00">uvlo_FaultInitialize</text>
</a>
</g>
</g>
<!-- Node21&#45;&gt;Node26 -->
<g id="edge28" class="edge">
<title>Node21&#45;&gt;Node26</title>
<path fill="none" stroke="midnightblue" d="M455.35,-103.5C443.61,-103.5 431.79,-103.5 420.94,-103.5"/>
<polygon fill="midnightblue" stroke="midnightblue" points="455.62,-107 465.62,-103.5 455.62,-100 455.62,-107"/>
</g>
<!-- Node23 -->
<g id="node23" class="node">
<title>Node23</title>
<g id="a_node23"><a xlink:href="a00425.html#ga830e5c7087a8e5ee8ea39b7e3df94b68" target="_top" xlink:title="Initialization of user&#45;defined fault objects.">
<polygon fill="white" stroke="black" points="156.5,-94 156.5,-113 283.5,-113 283.5,-94 156.5,-94"/>
<text text-anchor="middle" x="220" y="-101" font-family="Helvetica,sans-Serif" font-size="10.00">appFaultMonitor_Initialize</text>
</a>
</g>
</g>
<!-- Node22&#45;&gt;Node23 -->
<g id="edge22" class="edge">
<title>Node22&#45;&gt;Node23</title>
<path fill="none" stroke="midnightblue" d="M324.16,-77.54C303.06,-82.85 278.62,-89 258.83,-93.98"/>
<polygon fill="midnightblue" stroke="midnightblue" points="325.05,-80.92 333.9,-75.09 323.34,-74.14 325.05,-80.92"/>
</g>
<!-- Node23&#45;&gt;Node7 -->
<g id="edge23" class="edge">
<title>Node23&#45;&gt;Node7</title>
<path fill="none" stroke="midnightblue" d="M146.18,-112.23C137.1,-113.32 127.9,-114.42 119.08,-115.48"/>
<polygon fill="midnightblue" stroke="midnightblue" points="146.84,-115.67 156.36,-111.01 146.01,-108.72 146.84,-115.67"/>
</g>
<!-- Node24&#45;&gt;Node23 -->
<g id="edge25" class="edge">
<title>Node24&#45;&gt;Node23</title>
<path fill="none" stroke="midnightblue" d="M334.52,-40.67C329.92,-42.52 325.32,-44.48 321,-46.5 289.86,-61.06 255.43,-81.78 236.18,-93.82"/>
<polygon fill="midnightblue" stroke="midnightblue" points="335.81,-43.92 343.87,-37.05 333.28,-37.4 335.81,-43.92"/>
</g>
<!-- Node25&#45;&gt;Node23 -->
<g id="edge27" class="edge">
<title>Node25&#45;&gt;Node23</title>
<path fill="none" stroke="midnightblue" d="M324.16,-129.46C303.06,-124.15 278.62,-118 258.83,-113.02"/>
<polygon fill="midnightblue" stroke="midnightblue" points="323.34,-132.86 333.9,-131.91 325.05,-126.08 323.34,-132.86"/>
</g>
<!-- Node26&#45;&gt;Node23 -->
<g id="edge29" class="edge">
<title>Node26&#45;&gt;Node23</title>
<path fill="none" stroke="midnightblue" d="M315.36,-103.5C305.05,-103.5 294.24,-103.5 283.77,-103.5"/>
<polygon fill="midnightblue" stroke="midnightblue" points="315.46,-107 325.46,-103.5 315.46,-100 315.46,-107"/>
</g>
<!-- Node27&#45;&gt;Node3 -->
<g id="edge31" class="edge">
<title>Node27&#45;&gt;Node3</title>
<path fill="none" stroke="midnightblue" d="M972.76,-183.5C957.69,-183.5 942.22,-183.5 928.21,-183.5"/>
<polygon fill="midnightblue" stroke="midnightblue" points="973.11,-187 983.11,-183.5 973.11,-180 973.11,-187"/>
</g>
<!-- Node29 -->
<g id="node29" class="node">
<title>Node29</title>
<g id="a_node29"><a xlink:href="a00479.html#ga4ea63447e4d102bafe1fa664adc06d3f" target="_top" xlink:title="In this function, a counter is incremented until the power good delay has expired.">
<polygon fill="white" stroke="black" points="807,-98 807,-117 944,-117 944,-98 807,-98"/>
<text text-anchor="middle" x="875.5" y="-105" font-family="Helvetica,sans-Serif" font-size="10.00">SubState_PowerGoodDelay</text>
</a>
</g>
</g>
<!-- Node28&#45;&gt;Node29 -->
<g id="edge33" class="edge">
<title>Node28&#45;&gt;Node29</title>
<path fill="none" stroke="midnightblue" d="M997.5,-107.5C980.78,-107.5 962,-107.5 944.31,-107.5"/>
<polygon fill="midnightblue" stroke="midnightblue" points="997.62,-111 1007.62,-107.5 997.62,-104 997.62,-111"/>
</g>
<!-- Node30&#45;&gt;Node4 -->
<g id="edge35" class="edge">
<title>Node30&#45;&gt;Node4</title>
<path fill="none" stroke="midnightblue" d="M969.29,-150.88C903.17,-155.31 811.48,-161.46 755.73,-165.2"/>
<polygon fill="midnightblue" stroke="midnightblue" points="969.93,-154.34 979.68,-150.18 969.46,-147.36 969.93,-154.34"/>
</g>
</g>
</svg>
        <g id="navigator" transform="translate(0 0)" fill="#404254">
                <rect fill="#f2f5e9" fill-opacity="0.5" stroke="#606060" stroke-width=".5" x="0" y="0" width="60" height="60"/>
                <use id="zoomplus" xlink:href="#zoomPlus" x="17" y="9" onmousedown="handleZoom(evt,'in')"/>
                <use id="zoomminus" xlink:href="#zoomMin" x="42" y="9" onmousedown="handleZoom(evt,'out')"/>
                <use id="reset" xlink:href="#resetDef" x="30" y="36" onmousedown="handleReset()"/>
                <g id="arrowUp" xlink:href="#dirArrow" transform="translate(30 24)" onmousedown="handlePan(0,-1)">
                  <use xlink:href="#rim" fill="#404040">
                        <set attributeName="fill" to="#808080" begin="arrowUp.mouseover" end="arrowUp.mouseout"/>
                  </use>
                  <path fill="none" stroke="white" stroke-width="1.5" d="M0,-3.0v7 M-2.5,-0.5L0,-3.0L2.5,-0.5"/>
                </g>
                <g id="arrowRight" xlink:href="#dirArrow" transform="rotate(90) translate(36 -43)" onmousedown="handlePan(1,0)">
                  <use xlink:href="#rim" fill="#404040">
                        <set attributeName="fill" to="#808080" begin="arrowRight.mouseover" end="arrowRight.mouseout"/>
                  </use>
                  <path fill="none" stroke="white" stroke-width="1.5" d="M0,-3.0v7 M-2.5,-0.5L0,-3.0L2.5,-0.5"/>
                </g>
                <g id="arrowDown" xlink:href="#dirArrow" transform="rotate(180) translate(-30 -48)" onmousedown="handlePan(0,1)">
                  <use xlink:href="#rim" fill="#404040">
                        <set attributeName="fill" to="#808080" begin="arrowDown.mouseover" end="arrowDown.mouseout"/>
                  </use>
                  <path fill="none" stroke="white" stroke-width="1.5" d="M0,-3.0v7 M-2.5,-0.5L0,-3.0L2.5,-0.5"/>
                </g>
                <g id="arrowLeft" xlink:href="#dirArrow" transform="rotate(270) translate(-36 17)" onmousedown="handlePan(-1,0)">
                  <use xlink:href="#rim" fill="#404040">
                        <set attributeName="fill" to="#808080" begin="arrowLeft.mouseover" end="arrowLeft.mouseout"/>
                  </use>
                  <path fill="none" stroke="white" stroke-width="1.5" d="M0,-3.0v7 M-2.5,-0.5L0,-3.0L2.5,-0.5"/>
                </g>
        </g>
        <svg viewBox="0 0 15 15" width="100%" height="30px" preserveAspectRatio="xMaxYMin meet">
         <g id="arrow_out" transform="scale(0.3 0.3)">
          <a xlink:href="a00368_ga4d67af688d8f7f911d79107974e11e6b_icgraph_org.svg" target="_base">
           <rect id="button" ry="5" rx="5" y="6" x="6" height="38" width="38"
                fill="#f2f5e9" fill-opacity="0.5" stroke="#606060" stroke-width="1.0"/>
           <path id="arrow"
             d="M 11.500037,31.436501 C 11.940474,20.09759 22.043105,11.32322 32.158766,21.979434 L 37.068811,17.246167 C 37.068811,17.246167 37.088388,32 37.088388,32 L 22.160133,31.978069 C 22.160133,31.978069 26.997745,27.140456 26.997745,27.140456 C 18.528582,18.264221 13.291696,25.230495 11.500037,31.436501 z"
             style="fill:#404040;"/>
          </a>
         </g>
        </svg>
</svg>
