<?xml version="1.0" encoding="UTF-8" standalone="no"?>
<!DOCTYPE svg PUBLIC "-//W3C//DTD SVG 1.1//EN"
 "http://www.w3.org/Graphics/SVG/1.1/DTD/svg11.dtd">
<!-- Generated by graphviz version 2.44.1 (20200629.0846)
 -->
<!-- Title: p33c_PwmModule_ConfigWrite Pages: 1 -->
<svg width="969pt" height="110pt"
 viewBox="0.00 0.00 969.00 109.50" xmlns="http://www.w3.org/2000/svg" xmlns:xlink="http://www.w3.org/1999/xlink">
<g id="graph0" class="graph" transform="scale(1 1) rotate(0) translate(4 105.5)">
<title>p33c_PwmModule_ConfigWrite</title>
<polygon fill="white" stroke="transparent" points="-4,4 -4,-105.5 965,-105.5 965,4 -4,4"/>
<!-- Node1 -->
<g id="node1" class="node">
<title>Node1</title>
<g id="a_node1"><a xlink:title="Writes a user&#45;defined configuration to the PWM base module registers.">
<polygon fill="#bfbfbf" stroke="black" points="809,-38.5 809,-57.5 961,-57.5 961,-38.5 809,-38.5"/>
<text text-anchor="middle" x="885" y="-45.5" font-family="Helvetica,sans-Serif" font-size="10.00">p33c_PwmModule_ConfigWrite</text>
</a>
</g>
</g>
<!-- Node2 -->
<g id="node2" class="node">
<title>Node2</title>
<g id="a_node2"><a xlink:href="a00476.html#ga6b5da6f69a70380e159502fbd7199a10" target="_top" xlink:title="Initializes the boost PWM module by resetting its registers to default.">
<polygon fill="white" stroke="black" points="636,-76.5 636,-95.5 773,-95.5 773,-76.5 636,-76.5"/>
<text text-anchor="middle" x="704.5" y="-83.5" font-family="Helvetica,sans-Serif" font-size="10.00">boostPWM_ModuleInitialize</text>
</a>
</g>
</g>
<!-- Node1&#45;&gt;Node2 -->
<g id="edge1" class="edge">
<title>Node1&#45;&gt;Node2</title>
<path fill="none" stroke="midnightblue" d="M829.13,-59.68C803.82,-65.07 774.15,-71.39 750.22,-76.48"/>
<polygon fill="midnightblue" stroke="midnightblue" points="829.9,-63.09 838.96,-57.59 828.45,-56.25 829.9,-63.09"/>
</g>
<!-- Node7 -->
<g id="node7" class="node">
<title>Node7</title>
<g id="a_node7"><a xlink:href="a00357.html#ga74b71c6d4955b1553a13bd2a16bda73a" target="_top" xlink:title="Resets all PWM base module registers to their RESET default values.">
<polygon fill="white" stroke="black" points="636,-38.5 636,-57.5 773,-57.5 773,-38.5 636,-38.5"/>
<text text-anchor="middle" x="704.5" y="-45.5" font-family="Helvetica,sans-Serif" font-size="10.00">p33c_PwmModule_Dispose</text>
</a>
</g>
</g>
<!-- Node1&#45;&gt;Node7 -->
<g id="edge6" class="edge">
<title>Node1&#45;&gt;Node7</title>
<path fill="none" stroke="midnightblue" d="M798.79,-48C790.21,-48 781.58,-48 773.22,-48"/>
<polygon fill="midnightblue" stroke="midnightblue" points="798.82,-51.5 808.82,-48 798.82,-44.5 798.82,-51.5"/>
</g>
<!-- Node8 -->
<g id="node8" class="node">
<title>Node8</title>
<g id="a_node8"><a xlink:href="a00357.html#gac24b378de17cd1f040a2a562a3839084" target="_top" xlink:title="Initializes the PWM base module by resetting all its registers to default.">
<polygon fill="white" stroke="black" points="636,-0.5 636,-19.5 773,-19.5 773,-0.5 636,-0.5"/>
<text text-anchor="middle" x="704.5" y="-7.5" font-family="Helvetica,sans-Serif" font-size="10.00">p33c_PwmModule_Initialize</text>
</a>
</g>
</g>
<!-- Node1&#45;&gt;Node8 -->
<g id="edge7" class="edge">
<title>Node1&#45;&gt;Node8</title>
<path fill="none" stroke="midnightblue" d="M829.13,-36.32C803.82,-30.93 774.15,-24.61 750.22,-19.52"/>
<polygon fill="midnightblue" stroke="midnightblue" points="828.45,-39.75 838.96,-38.41 829.9,-32.91 828.45,-39.75"/>
</g>
<!-- Node3 -->
<g id="node3" class="node">
<title>Node3</title>
<g id="a_node3"><a xlink:href="a00453.html#gafe5ee9f0daeb397241fe4c9d799ac5f3" target="_top" xlink:title="This function initializes all peripheral modules and their instances used by the power controller.">
<polygon fill="white" stroke="black" points="500,-71 500,-101 600,-101 600,-71 500,-71"/>
<text text-anchor="start" x="508" y="-89" font-family="Helvetica,sans-Serif" font-size="10.00">drv_BoostConverter</text>
<text text-anchor="middle" x="550" y="-78" font-family="Helvetica,sans-Serif" font-size="10.00">_Initialize</text>
</a>
</g>
</g>
<!-- Node2&#45;&gt;Node3 -->
<g id="edge2" class="edge">
<title>Node2&#45;&gt;Node3</title>
<path fill="none" stroke="midnightblue" d="M625.62,-86C616.99,-86 608.4,-86 600.27,-86"/>
<polygon fill="midnightblue" stroke="midnightblue" points="625.72,-89.5 635.72,-86 625.72,-82.5 625.72,-89.5"/>
</g>
<!-- Node4 -->
<g id="node4" class="node">
<title>Node4</title>
<g id="a_node4"><a xlink:href="a00449.html#ga0b26acfec74d1804384b4ba1a3cffab4" target="_top" xlink:title="This function is used to load peripheral configuration templates from the power controller device dri...">
<polygon fill="white" stroke="black" points="321,-71 321,-101 464,-101 464,-71 321,-71"/>
<text text-anchor="start" x="329" y="-89" font-family="Helvetica,sans-Serif" font-size="10.00">appPowerSupply_Peripherals</text>
<text text-anchor="middle" x="392.5" y="-78" font-family="Helvetica,sans-Serif" font-size="10.00">Initialize</text>
</a>
</g>
</g>
<!-- Node3&#45;&gt;Node4 -->
<g id="edge3" class="edge">
<title>Node3&#45;&gt;Node4</title>
<path fill="none" stroke="midnightblue" d="M489.79,-86C481.44,-86 472.79,-86 464.25,-86"/>
<polygon fill="midnightblue" stroke="midnightblue" points="489.8,-89.5 499.8,-86 489.8,-82.5 489.8,-89.5"/>
</g>
<!-- Node5 -->
<g id="node5" class="node">
<title>Node5</title>
<g id="a_node5"><a xlink:href="a00446.html#ga7a4cf6371d09457539f96a74b2809ca0" target="_top" xlink:title="Calls the application layer power controller initialization.">
<polygon fill="white" stroke="black" points="155,-76.5 155,-95.5 285,-95.5 285,-76.5 155,-76.5"/>
<text text-anchor="middle" x="220" y="-83.5" font-family="Helvetica,sans-Serif" font-size="10.00">appPowerSupply_Initialize</text>
</a>
</g>
</g>
<!-- Node4&#45;&gt;Node5 -->
<g id="edge4" class="edge">
<title>Node4&#45;&gt;Node5</title>
<path fill="none" stroke="midnightblue" d="M310.65,-86C302.06,-86 293.42,-86 285.07,-86"/>
<polygon fill="midnightblue" stroke="midnightblue" points="310.67,-89.5 320.67,-86 310.67,-82.5 310.67,-89.5"/>
</g>
<!-- Node6 -->
<g id="node6" class="node">
<title>Node6</title>
<g id="a_node6"><a xlink:href="a00521.html#ga2be64f5f0b9a2c0c6713f5a69d793e05" target="_top" xlink:title="Initializes the user&#45;defined tasks.">
<polygon fill="white" stroke="black" points="0,-76.5 0,-95.5 119,-95.5 119,-76.5 0,-76.5"/>
<text text-anchor="middle" x="59.5" y="-83.5" font-family="Helvetica,sans-Serif" font-size="10.00">sysUserTasks_Initialize</text>
</a>
</g>
</g>
<!-- Node5&#45;&gt;Node6 -->
<g id="edge5" class="edge">
<title>Node5&#45;&gt;Node6</title>
<path fill="none" stroke="midnightblue" d="M144.9,-86C136.25,-86 127.52,-86 119.12,-86"/>
<polygon fill="midnightblue" stroke="midnightblue" points="144.99,-89.5 154.99,-86 144.99,-82.5 144.99,-89.5"/>
</g>
</g>
</svg>
