<?xml version="1.0" encoding="UTF-8" standalone="no"?>
<!DOCTYPE svg PUBLIC "-//W3C//DTD SVG 1.1//EN"
 "http://www.w3.org/Graphics/SVG/1.1/DTD/svg11.dtd">
<!-- Generated by graphviz version 2.44.1 (20200629.0846)
 -->
<!-- Title: p33c_PwmGenerator_GetHandle Pages: 1 -->
<svg width="1011pt" height="242pt"
 viewBox="0.00 0.00 1011.00 241.50" xmlns="http://www.w3.org/2000/svg" xmlns:xlink="http://www.w3.org/1999/xlink">
<g id="graph0" class="graph" transform="scale(1 1) rotate(0) translate(4 237.5)">
<title>p33c_PwmGenerator_GetHandle</title>
<polygon fill="white" stroke="transparent" points="-4,4 -4,-237.5 1007,-237.5 1007,4 -4,4"/>
<!-- Node1 -->
<g id="node1" class="node">
<title>Node1</title>
<g id="a_node1"><a xlink:title="Returns the PWM generator index.">
<polygon fill="#bfbfbf" stroke="black" points="845,-99.5 845,-118.5 1003,-118.5 1003,-99.5 845,-99.5"/>
<text text-anchor="middle" x="924" y="-106.5" font-family="Helvetica,sans-Serif" font-size="10.00">p33c_PwmGenerator_GetHandle</text>
</a>
</g>
</g>
<!-- Node2 -->
<g id="node2" class="node">
<title>Node2</title>
<g id="a_node2"><a xlink:href="a00476.html#ga76d61bc918bb955a0d2019a9469b2e25" target="_top" xlink:title="This function initializes the output pins for the PWM output and the default boost PWM settings.">
<polygon fill="white" stroke="black" points="664.5,-204.5 664.5,-223.5 805.5,-223.5 805.5,-204.5 664.5,-204.5"/>
<text text-anchor="middle" x="735" y="-211.5" font-family="Helvetica,sans-Serif" font-size="10.00">boostPWM_ChannelInitialize</text>
</a>
</g>
</g>
<!-- Node1&#45;&gt;Node2 -->
<g id="edge1" class="edge">
<title>Node1&#45;&gt;Node2</title>
<path fill="none" stroke="midnightblue" d="M903.96,-125.27C882.21,-143.18 844.97,-171.83 809,-190 797.45,-195.83 784.17,-200.69 772.13,-204.48"/>
<polygon fill="midnightblue" stroke="midnightblue" points="906.33,-127.85 911.77,-118.75 901.85,-122.48 906.33,-127.85"/>
</g>
<!-- Node7 -->
<g id="node7" class="node">
<title>Node7</title>
<g id="a_node7"><a xlink:href="a00476.html#ga5f53e68e580abcb4c924dc029c47e578" target="_top" xlink:title="This function resumes the boost PWM operation.">
<polygon fill="white" stroke="black" points="681.5,-161.5 681.5,-180.5 788.5,-180.5 788.5,-161.5 681.5,-161.5"/>
<text text-anchor="middle" x="735" y="-168.5" font-family="Helvetica,sans-Serif" font-size="10.00">boostPWM_Resume</text>
</a>
</g>
</g>
<!-- Node1&#45;&gt;Node7 -->
<g id="edge6" class="edge">
<title>Node1&#45;&gt;Node7</title>
<path fill="none" stroke="midnightblue" d="M885.7,-122.02C863.48,-129.71 834.68,-139.56 809,-148 795.24,-152.52 779.96,-157.36 766.96,-161.43"/>
<polygon fill="midnightblue" stroke="midnightblue" points="887.12,-125.23 895.42,-118.65 884.83,-118.62 887.12,-125.23"/>
</g>
<!-- Node9 -->
<g id="node9" class="node">
<title>Node9</title>
<g id="a_node9"><a xlink:href="a00476.html#ga538ef6022b1b46d667919a42ce88076b" target="_top" xlink:title="This function enables the boost PWM operation.">
<polygon fill="white" stroke="black" points="689,-119.5 689,-138.5 781,-138.5 781,-119.5 689,-119.5"/>
<text text-anchor="middle" x="735" y="-126.5" font-family="Helvetica,sans-Serif" font-size="10.00">boostPWM_Start</text>
</a>
</g>
</g>
<!-- Node1&#45;&gt;Node9 -->
<g id="edge8" class="edge">
<title>Node1&#45;&gt;Node9</title>
<path fill="none" stroke="midnightblue" d="M834.79,-118.43C816.19,-120.42 797.3,-122.44 781.09,-124.18"/>
<polygon fill="midnightblue" stroke="midnightblue" points="835.21,-121.91 844.78,-117.37 834.46,-114.95 835.21,-121.91"/>
</g>
<!-- Node12 -->
<g id="node12" class="node">
<title>Node12</title>
<g id="a_node12"><a xlink:href="a00476.html#ga106051f11636da04a8f6a91413a10390" target="_top" xlink:title="This function stops the boost PWM output.">
<polygon fill="white" stroke="black" points="689.5,-80.5 689.5,-99.5 780.5,-99.5 780.5,-80.5 689.5,-80.5"/>
<text text-anchor="middle" x="735" y="-87.5" font-family="Helvetica,sans-Serif" font-size="10.00">boostPWM_Stop</text>
</a>
</g>
</g>
<!-- Node1&#45;&gt;Node12 -->
<g id="edge12" class="edge">
<title>Node1&#45;&gt;Node12</title>
<path fill="none" stroke="midnightblue" d="M834.7,-100.03C815.92,-98.12 796.86,-96.18 780.56,-94.53"/>
<polygon fill="midnightblue" stroke="midnightblue" points="834.48,-103.52 844.78,-101.05 835.18,-96.56 834.48,-103.52"/>
</g>
<!-- Node15 -->
<g id="node15" class="node">
<title>Node15</title>
<g id="a_node15"><a xlink:href="a00476.html#gac6b33134d75a969d4deb6e2f158e6d9c" target="_top" xlink:title="This function disables the PWM generator IOs.">
<polygon fill="white" stroke="black" points="680.5,-39.5 680.5,-58.5 789.5,-58.5 789.5,-39.5 680.5,-39.5"/>
<text text-anchor="middle" x="735" y="-46.5" font-family="Helvetica,sans-Serif" font-size="10.00">boostPWM_Suspend</text>
</a>
</g>
</g>
<!-- Node1&#45;&gt;Node15 -->
<g id="edge15" class="edge">
<title>Node1&#45;&gt;Node15</title>
<path fill="none" stroke="midnightblue" d="M885.27,-96.12C863.11,-88.63 834.52,-79.1 809,-71 795.75,-66.8 781.09,-62.34 768.4,-58.55"/>
<polygon fill="midnightblue" stroke="midnightblue" points="884.37,-99.51 894.96,-99.4 886.62,-92.88 884.37,-99.51"/>
</g>
<!-- Node18 -->
<g id="node18" class="node">
<title>Node18</title>
<g id="a_node18"><a xlink:href="a00357.html#ga7f779276e0cf4c974267fdbb7c1ea86c" target="_top" xlink:title="Initializes a given PWM generator by resetting all its registers to default.">
<polygon fill="white" stroke="black" points="661,-1.5 661,-20.5 809,-20.5 809,-1.5 661,-1.5"/>
<text text-anchor="middle" x="735" y="-8.5" font-family="Helvetica,sans-Serif" font-size="10.00">p33c_PwmGenerator_Initialize</text>
</a>
</g>
</g>
<!-- Node1&#45;&gt;Node18 -->
<g id="edge18" class="edge">
<title>Node1&#45;&gt;Node18</title>
<path fill="none" stroke="midnightblue" d="M904.44,-93.03C882.86,-75.23 845.51,-46.76 809,-30 800.79,-26.23 791.7,-23.11 782.8,-20.57"/>
<polygon fill="midnightblue" stroke="midnightblue" points="902.25,-95.76 912.16,-99.5 906.74,-90.39 902.25,-95.76"/>
</g>
<!-- Node3 -->
<g id="node3" class="node">
<title>Node3</title>
<g id="a_node3"><a xlink:href="a00453.html#gafe5ee9f0daeb397241fe4c9d799ac5f3" target="_top" xlink:title="This function initializes all peripheral modules and their instances used by the power controller.">
<polygon fill="white" stroke="black" points="512.5,-203 512.5,-233 612.5,-233 612.5,-203 512.5,-203"/>
<text text-anchor="start" x="520.5" y="-221" font-family="Helvetica,sans-Serif" font-size="10.00">drv_BoostConverter</text>
<text text-anchor="middle" x="562.5" y="-210" font-family="Helvetica,sans-Serif" font-size="10.00">_Initialize</text>
</a>
</g>
</g>
<!-- Node2&#45;&gt;Node3 -->
<g id="edge2" class="edge">
<title>Node2&#45;&gt;Node3</title>
<path fill="none" stroke="midnightblue" d="M653.95,-215.88C639.85,-216.21 625.57,-216.54 612.64,-216.85"/>
<polygon fill="midnightblue" stroke="midnightblue" points="654.24,-219.37 664.16,-215.64 654.08,-212.37 654.24,-219.37"/>
</g>
<!-- Node4 -->
<g id="node4" class="node">
<title>Node4</title>
<g id="a_node4"><a xlink:href="a00449.html#ga0b26acfec74d1804384b4ba1a3cffab4" target="_top" xlink:title="This function is used to load peripheral configuration templates from the power controller device dri...">
<polygon fill="white" stroke="black" points="321,-201 321,-231 464,-231 464,-201 321,-201"/>
<text text-anchor="start" x="329" y="-219" font-family="Helvetica,sans-Serif" font-size="10.00">appPowerSupply_Peripherals</text>
<text text-anchor="middle" x="392.5" y="-208" font-family="Helvetica,sans-Serif" font-size="10.00">Initialize</text>
</a>
</g>
</g>
<!-- Node3&#45;&gt;Node4 -->
<g id="edge3" class="edge">
<title>Node3&#45;&gt;Node4</title>
<path fill="none" stroke="midnightblue" d="M502.3,-217.3C489.97,-217.15 476.85,-216.99 464.14,-216.84"/>
<polygon fill="midnightblue" stroke="midnightblue" points="502.41,-220.8 512.46,-217.42 502.5,-213.8 502.41,-220.8"/>
</g>
<!-- Node5 -->
<g id="node5" class="node">
<title>Node5</title>
<g id="a_node5"><a xlink:href="a00446.html#ga7a4cf6371d09457539f96a74b2809ca0" target="_top" xlink:title="Calls the application layer power controller initialization.">
<polygon fill="white" stroke="black" points="155,-183.5 155,-202.5 285,-202.5 285,-183.5 155,-183.5"/>
<text text-anchor="middle" x="220" y="-190.5" font-family="Helvetica,sans-Serif" font-size="10.00">appPowerSupply_Initialize</text>
</a>
</g>
</g>
<!-- Node4&#45;&gt;Node5 -->
<g id="edge4" class="edge">
<title>Node4&#45;&gt;Node5</title>
<path fill="none" stroke="midnightblue" d="M310.65,-205.09C302.06,-203.94 293.42,-202.77 285.07,-201.64"/>
<polygon fill="midnightblue" stroke="midnightblue" points="310.3,-208.58 320.67,-206.45 311.23,-201.64 310.3,-208.58"/>
</g>
<!-- Node6 -->
<g id="node6" class="node">
<title>Node6</title>
<g id="a_node6"><a xlink:href="a00521.html#ga2be64f5f0b9a2c0c6713f5a69d793e05" target="_top" xlink:title="Initializes the user&#45;defined tasks.">
<polygon fill="white" stroke="black" points="0,-183.5 0,-202.5 119,-202.5 119,-183.5 0,-183.5"/>
<text text-anchor="middle" x="59.5" y="-190.5" font-family="Helvetica,sans-Serif" font-size="10.00">sysUserTasks_Initialize</text>
</a>
</g>
</g>
<!-- Node5&#45;&gt;Node6 -->
<g id="edge5" class="edge">
<title>Node5&#45;&gt;Node6</title>
<path fill="none" stroke="midnightblue" d="M144.9,-193C136.25,-193 127.52,-193 119.12,-193"/>
<polygon fill="midnightblue" stroke="midnightblue" points="144.99,-196.5 154.99,-193 144.99,-189.5 144.99,-196.5"/>
</g>
<!-- Node8 -->
<g id="node8" class="node">
<title>Node8</title>
<g id="a_node8"><a xlink:href="a00464.html#gac6b35848a96ea078d2639b6b78e4e296" target="_top" xlink:title="This function ramps up the output voltage to its nominal regulation point.">
<polygon fill="white" stroke="black" points="509,-164.5 509,-183.5 616,-183.5 616,-164.5 509,-164.5"/>
<text text-anchor="middle" x="562.5" y="-171.5" font-family="Helvetica,sans-Serif" font-size="10.00">SubState_VRampUp</text>
</a>
</g>
</g>
<!-- Node7&#45;&gt;Node8 -->
<g id="edge7" class="edge">
<title>Node7&#45;&gt;Node8</title>
<path fill="none" stroke="midnightblue" d="M671.28,-172.1C653.17,-172.42 633.6,-172.77 616.17,-173.07"/>
<polygon fill="midnightblue" stroke="midnightblue" points="671.52,-175.6 681.45,-171.92 671.39,-168.6 671.52,-175.6"/>
</g>
<!-- Node10 -->
<g id="node10" class="node">
<title>Node10</title>
<g id="a_node10"><a xlink:href="a00453.html#gaa47cd700d524e5c52eeadd4ecd2ed5ee" target="_top" xlink:title="This function starts the boost converter.">
<polygon fill="white" stroke="black" points="512.5,-115 512.5,-145 612.5,-145 612.5,-115 512.5,-115"/>
<text text-anchor="start" x="520.5" y="-133" font-family="Helvetica,sans-Serif" font-size="10.00">drv_BoostConverter</text>
<text text-anchor="middle" x="562.5" y="-122" font-family="Helvetica,sans-Serif" font-size="10.00">_Start</text>
</a>
</g>
</g>
<!-- Node9&#45;&gt;Node10 -->
<g id="edge9" class="edge">
<title>Node9&#45;&gt;Node10</title>
<path fill="none" stroke="midnightblue" d="M678.57,-129.33C657.29,-129.45 633.18,-129.59 612.55,-129.71"/>
<polygon fill="midnightblue" stroke="midnightblue" points="678.78,-132.82 688.76,-129.27 678.74,-125.82 678.78,-132.82"/>
</g>
<!-- Node10&#45;&gt;Node5 -->
<g id="edge10" class="edge">
<title>Node10&#45;&gt;Node5</title>
<path fill="none" stroke="midnightblue" d="M502.43,-141.64C489.76,-144.1 476.44,-146.66 464,-149 399.11,-161.2 324.36,-174.64 275.09,-183.42"/>
<polygon fill="midnightblue" stroke="midnightblue" points="503.28,-145.04 512.42,-139.7 501.94,-138.17 503.28,-145.04"/>
</g>
<!-- Node11 -->
<g id="node11" class="node">
<title>Node11</title>
<g id="a_node11"><a xlink:href="a00446.html#ga9210070749c2ed49abd8a30b27f64151" target="_top" xlink:title="This function calls the boost converter device driver function starting the power supply.">
<polygon fill="white" stroke="black" points="334.5,-120.5 334.5,-139.5 450.5,-139.5 450.5,-120.5 334.5,-120.5"/>
<text text-anchor="middle" x="392.5" y="-127.5" font-family="Helvetica,sans-Serif" font-size="10.00">appPowerSupply_Start</text>
</a>
</g>
</g>
<!-- Node10&#45;&gt;Node11 -->
<g id="edge11" class="edge">
<title>Node10&#45;&gt;Node11</title>
<path fill="none" stroke="midnightblue" d="M502.23,-130C485.46,-130 467.24,-130 450.6,-130"/>
<polygon fill="midnightblue" stroke="midnightblue" points="502.46,-133.5 512.46,-130 502.46,-126.5 502.46,-133.5"/>
</g>
<!-- Node13 -->
<g id="node13" class="node">
<title>Node13</title>
<g id="a_node13"><a xlink:href="a00453.html#gaaf54320205622e4683e05c9c30c83dc0" target="_top" xlink:title="This function stop the boost converter opration.">
<polygon fill="white" stroke="black" points="500,-76.5 500,-95.5 625,-95.5 625,-76.5 500,-76.5"/>
<text text-anchor="middle" x="562.5" y="-83.5" font-family="Helvetica,sans-Serif" font-size="10.00">drv_BoostConverter_Stop</text>
</a>
</g>
</g>
<!-- Node12&#45;&gt;Node13 -->
<g id="edge13" class="edge">
<title>Node12&#45;&gt;Node13</title>
<path fill="none" stroke="midnightblue" d="M678.83,-88.71C661.75,-88.3 642.81,-87.86 625.3,-87.45"/>
<polygon fill="midnightblue" stroke="midnightblue" points="679.12,-92.21 689.2,-88.95 679.29,-85.22 679.12,-92.21"/>
</g>
<!-- Node14 -->
<g id="node14" class="node">
<title>Node14</title>
<g id="a_node14"><a xlink:href="a00446.html#gaa7d413f62f7b5f25d152cc12354241f0" target="_top" xlink:title="This function calls the boost converter device driver function stopping the power supply.">
<polygon fill="white" stroke="black" points="335,-76.5 335,-95.5 450,-95.5 450,-76.5 335,-76.5"/>
<text text-anchor="middle" x="392.5" y="-83.5" font-family="Helvetica,sans-Serif" font-size="10.00">appPowerSupply_Stop</text>
</a>
</g>
</g>
<!-- Node13&#45;&gt;Node14 -->
<g id="edge14" class="edge">
<title>Node13&#45;&gt;Node14</title>
<path fill="none" stroke="midnightblue" d="M489.84,-86C476.55,-86 462.84,-86 450.08,-86"/>
<polygon fill="midnightblue" stroke="midnightblue" points="489.9,-89.5 499.9,-86 489.9,-82.5 489.9,-89.5"/>
</g>
<!-- Node16 -->
<g id="node16" class="node">
<title>Node16</title>
<g id="a_node16"><a xlink:href="a00464.html#ga9eb174458c7fd652dd725988f435cfdb" target="_top" xlink:title="If this function is called, the state machine is reset to INITIALIZE (URL=State_Initialize).">
<polygon fill="white" stroke="black" points="529.5,-38.5 529.5,-57.5 595.5,-57.5 595.5,-38.5 529.5,-38.5"/>
<text text-anchor="middle" x="562.5" y="-45.5" font-family="Helvetica,sans-Serif" font-size="10.00">State_Error</text>
</a>
</g>
</g>
<!-- Node15&#45;&gt;Node16 -->
<g id="edge16" class="edge">
<title>Node15&#45;&gt;Node16</title>
<path fill="none" stroke="midnightblue" d="M669.75,-48.62C644.4,-48.47 616.41,-48.31 595.52,-48.19"/>
<polygon fill="midnightblue" stroke="midnightblue" points="670.03,-52.12 680.05,-48.68 670.07,-45.12 670.03,-52.12"/>
</g>
<!-- Node17 -->
<g id="node17" class="node">
<title>Node17</title>
<g id="a_node17"><a xlink:href="a00464.html#ga54a9e1e78d536910ed756a227c2ed30b" target="_top" xlink:title="This function resets the boost control operation by re&#45;initiating the control mode,...">
<polygon fill="white" stroke="black" points="527,-0.5 527,-19.5 598,-19.5 598,-0.5 527,-0.5"/>
<text text-anchor="middle" x="562.5" y="-7.5" font-family="Helvetica,sans-Serif" font-size="10.00">State_Reset</text>
</a>
</g>
</g>
<!-- Node15&#45;&gt;Node17 -->
<g id="edge17" class="edge">
<title>Node15&#45;&gt;Node17</title>
<path fill="none" stroke="midnightblue" d="M682.51,-37.22C655.22,-30.98 622.42,-23.48 598.18,-17.93"/>
<polygon fill="midnightblue" stroke="midnightblue" points="681.76,-40.64 692.29,-39.46 683.32,-33.82 681.76,-40.64"/>
</g>
</g>
</svg>
