<?xml version="1.0" encoding="UTF-8" standalone="no"?>
<!DOCTYPE svg PUBLIC "-//W3C//DTD SVG 1.1//EN"
 "http://www.w3.org/Graphics/SVG/1.1/DTD/svg11.dtd">
<!-- Generated by graphviz version 2.44.1 (20200629.0846)
 -->
<!-- Title: User Settings Pages: 1 -->
<svg width="366pt" height="27pt"
 viewBox="0.00 0.00 366.00 27.00" xmlns="http://www.w3.org/2000/svg" xmlns:xlink="http://www.w3.org/1999/xlink">
<g id="graph0" class="graph" transform="scale(1 1) rotate(0) translate(4 23)">
<title>User Settings</title>
<polygon fill="white" stroke="transparent" points="-4,4 -4,-23 362,-23 362,4 -4,4"/>
<!-- Node1 -->
<g id="node1" class="node">
<title>Node1</title>
<g id="a_node1"><a xlink:title="User&#45;declaration of fault object trip and recovery delays using physical quantities.">
<polygon fill="#bfbfbf" stroke="black" points="236,-19 160,-19 160,0 236,0 236,-19"/>
<text text-anchor="middle" x="198" y="-7" font-family="Helvetica,sans-Serif" font-size="10.00">User Settings</text>
</a>
</g>
</g>
<!-- Node3 -->
<g id="node3" class="node">
<title>Node3</title>
<g id="a_node3"><a xlink:href="a00390.html" target="_top" xlink:title="User&#45;declaration of fault object trip and recovery delays of the boost converter using physical quant...">
<polygon fill="white" stroke="black" points="358,-19 272,-19 272,0 358,0 358,-19"/>
<text text-anchor="middle" x="315" y="-7" font-family="Helvetica,sans-Serif" font-size="10.00">Boost Converter</text>
</a>
</g>
</g>
<!-- Node1&#45;&gt;Node3 -->
<g id="edge2" class="edge">
<title>Node1&#45;&gt;Node3</title>
<path fill="none" stroke="black" d="M246.19,-9.5C254.69,-9.5 263.51,-9.5 271.85,-9.5"/>
<polygon fill="black" stroke="black" points="246.02,-6 236.02,-9.5 246.02,-13 246.02,-6"/>
</g>
<!-- Node2 -->
<g id="node2" class="node">
<title>Node2</title>
<g id="a_node2"><a xlink:href="a00388.html" target="_top" xlink:title="Declaration of fault object trip and recovery delays.">
<polygon fill="white" stroke="black" points="124,-19 0,-19 0,0 124,0 124,-19"/>
<text text-anchor="middle" x="62" y="-7" font-family="Helvetica,sans-Serif" font-size="10.00">Fault Response Settings</text>
</a>
</g>
</g>
<!-- Node2&#45;&gt;Node1 -->
<g id="edge1" class="edge">
<title>Node2&#45;&gt;Node1</title>
<path fill="none" stroke="black" d="M134.39,-9.5C143.14,-9.5 151.78,-9.5 159.73,-9.5"/>
<polygon fill="black" stroke="black" points="134.12,-6 124.12,-9.5 134.12,-13 134.12,-6"/>
</g>
</g>
</svg>
