<?xml version="1.0" encoding="UTF-8" standalone="no"?>
<!DOCTYPE svg PUBLIC "-//W3C//DTD SVG 1.1//EN"
 "http://www.w3.org/Graphics/SVG/1.1/DTD/svg11.dtd">
<!-- Generated by graphviz version 2.44.1 (20200629.0846)
 -->
<!-- Title: drv_BoostConverter_Stop Pages: 1 -->
<svg width="641pt" height="66pt"
 viewBox="0.00 0.00 641.00 66.00" xmlns="http://www.w3.org/2000/svg" xmlns:xlink="http://www.w3.org/1999/xlink">
<g id="graph0" class="graph" transform="scale(1 1) rotate(0) translate(4 62)">
<title>drv_BoostConverter_Stop</title>
<polygon fill="white" stroke="transparent" points="-4,4 -4,-62 637,-62 637,4 -4,4"/>
<!-- Node1 -->
<g id="node1" class="node">
<title>Node1</title>
<g id="a_node1"><a xlink:title="This function stop the boost converter opration.">
<polygon fill="#bfbfbf" stroke="black" points="0,-19.5 0,-38.5 125,-38.5 125,-19.5 0,-19.5"/>
<text text-anchor="middle" x="62.5" y="-26.5" font-family="Helvetica,sans-Serif" font-size="10.00">drv_BoostConverter_Stop</text>
</a>
</g>
</g>
<!-- Node2 -->
<g id="node2" class="node">
<title>Node2</title>
<g id="a_node2"><a xlink:href="a00491.html#ga106051f11636da04a8f6a91413a10390" target="_top" xlink:title="This function stops the boost PWM output.">
<polygon fill="white" stroke="black" points="161,-19.5 161,-38.5 252,-38.5 252,-19.5 161,-19.5"/>
<text text-anchor="middle" x="206.5" y="-26.5" font-family="Helvetica,sans-Serif" font-size="10.00">boostPWM_Stop</text>
</a>
</g>
</g>
<!-- Node1&#45;&gt;Node2 -->
<g id="edge1" class="edge">
<title>Node1&#45;&gt;Node2</title>
<path fill="none" stroke="midnightblue" d="M125.37,-29C133.87,-29 142.55,-29 150.91,-29"/>
<polygon fill="midnightblue" stroke="midnightblue" points="150.91,-32.5 160.91,-29 150.91,-25.5 150.91,-32.5"/>
</g>
<!-- Node3 -->
<g id="node3" class="node">
<title>Node3</title>
<g id="a_node3"><a xlink:href="a00491.html#ga0e291d0cb856167fd188be50090ef5ce" target="_top" xlink:title="This function clears the selected general purpose input/output pin.">
<polygon fill="white" stroke="black" points="321,-38.5 321,-57.5 413,-57.5 413,-38.5 321,-38.5"/>
<text text-anchor="middle" x="367" y="-45.5" font-family="Helvetica,sans-Serif" font-size="10.00">boostGPIO_Clear</text>
</a>
</g>
</g>
<!-- Node2&#45;&gt;Node3 -->
<g id="edge2" class="edge">
<title>Node2&#45;&gt;Node3</title>
<path fill="none" stroke="midnightblue" d="M252.07,-34.34C270.31,-36.53 291.6,-39.08 310.81,-41.38"/>
<polygon fill="midnightblue" stroke="midnightblue" points="310.59,-44.88 320.94,-42.6 311.42,-37.93 310.59,-44.88"/>
</g>
<!-- Node5 -->
<g id="node5" class="node">
<title>Node5</title>
<g id="a_node5"><a xlink:href="a00372.html#ga55e525c7ac54a365ab6dad558ec17f0b" target="_top" xlink:title="Returns the PWM generator index.">
<polygon fill="white" stroke="black" points="288,-0.5 288,-19.5 446,-19.5 446,-0.5 288,-0.5"/>
<text text-anchor="middle" x="367" y="-7.5" font-family="Helvetica,sans-Serif" font-size="10.00">p33c_PwmGenerator_GetHandle</text>
</a>
</g>
</g>
<!-- Node2&#45;&gt;Node5 -->
<g id="edge4" class="edge">
<title>Node2&#45;&gt;Node5</title>
<path fill="none" stroke="midnightblue" d="M252.07,-23.66C260.19,-22.68 268.91,-21.64 277.78,-20.57"/>
<polygon fill="midnightblue" stroke="midnightblue" points="278.33,-24.03 287.84,-19.37 277.49,-17.08 278.33,-24.03"/>
</g>
<!-- Node4 -->
<g id="node4" class="node">
<title>Node4</title>
<g id="a_node4"><a xlink:href="a00368.html#ga4d67af688d8f7f911d79107974e11e6b" target="_top" xlink:title="Gets pointer to GPIO Instance SFR set.">
<polygon fill="white" stroke="black" points="482,-38.5 482,-57.5 633,-57.5 633,-38.5 482,-38.5"/>
<text text-anchor="middle" x="557.5" y="-45.5" font-family="Helvetica,sans-Serif" font-size="10.00">p33c_GpioInstance_GetHandle</text>
</a>
</g>
</g>
<!-- Node3&#45;&gt;Node4 -->
<g id="edge3" class="edge">
<title>Node3&#45;&gt;Node4</title>
<path fill="none" stroke="midnightblue" d="M413.15,-48C430.76,-48 451.54,-48 471.74,-48"/>
<polygon fill="midnightblue" stroke="midnightblue" points="471.91,-51.5 481.91,-48 471.91,-44.5 471.91,-51.5"/>
</g>
</g>
</svg>
