<?xml version="1.0" encoding="UTF-8" standalone="no"?>
<!DOCTYPE svg PUBLIC "-//W3C//DTD SVG 1.1//EN"
 "http://www.w3.org/Graphics/SVG/1.1/DTD/svg11.dtd">
<!-- Generated by graphviz version 2.40.1 (0)
 -->
<!-- Title: Operational Amplifier Module (AMP) Pages: 1 -->
<svg width="565pt" height="64pt"
 viewBox="0.00 0.00 565.00 64.00" xmlns="http://www.w3.org/2000/svg" xmlns:xlink="http://www.w3.org/1999/xlink">
<g id="graph0" class="graph" transform="scale(1 1) rotate(0) translate(4 60)">
<title>Operational Amplifier Module (AMP)</title>
<polygon fill="#ffffff" stroke="transparent" points="-4,4 -4,-60 561,-60 561,4 -4,4"/>
<!-- Node3 -->
<g id="node1" class="node">
<title>Node3</title>
<g id="a_node1"><a xlink:href="a00479.html" target="_top" xlink:title="Private properties of the AMP PRAL driver.">
<polygon fill="#ffffff" stroke="#000000" points="557,-56 405,-56 405,-37 557,-37 557,-56"/>
<text text-anchor="middle" x="481" y="-44" font-family="Helvetica,sans-Serif" font-size="10.00" fill="#000000">Private Properties</text>
</a>
</g>
</g>
<!-- Node0 -->
<g id="node2" class="node">
<title>Node0</title>
<g id="a_node2"><a xlink:title="Operational Amplifier Peripheral Module Special Function Register Abstraction Driver.">
<polygon fill="#bfbfbf" stroke="#000000" points="369,-42.5 195,-42.5 195,-12.5 369,-12.5 369,-42.5"/>
<text text-anchor="start" x="203" y="-30.5" font-family="Helvetica,sans-Serif" font-size="10.00" fill="#000000">Operational Amplifier</text>
<text text-anchor="middle" x="282" y="-19.5" font-family="Helvetica,sans-Serif" font-size="10.00" fill="#000000"> Module (AMP)</text>
</a>
</g>
</g>
<!-- Node0&#45;&gt;Node3 -->
<g id="edge3" class="edge">
<title>Node0&#45;&gt;Node3</title>
<path fill="none" stroke="#000000" d="M379.2813,-36.7882C387.8187,-37.6033 396.3778,-38.4205 404.7072,-39.2158"/>
<polygon fill="#000000" stroke="#000000" points="379.5717,-33.3001 369.2843,-35.8337 378.9063,-40.2684 379.5717,-33.3001"/>
</g>
<!-- Node2 -->
<g id="node4" class="node">
<title>Node2</title>
<g id="a_node4"><a xlink:href="a00471.html" target="_top" xlink:title="Public functions of the AMP PRAL driver.">
<polygon fill="#ffffff" stroke="#000000" points="549.5,-19 412.5,-19 412.5,0 549.5,0 549.5,-19"/>
<text text-anchor="middle" x="481" y="-7" font-family="Helvetica,sans-Serif" font-size="10.00" fill="#000000">Public Functions</text>
</a>
</g>
</g>
<!-- Node0&#45;&gt;Node2 -->
<g id="edge2" class="edge">
<title>Node0&#45;&gt;Node2</title>
<path fill="none" stroke="#000000" d="M379.4587,-18.6846C390.5652,-17.68 401.7056,-16.6724 412.3261,-15.7117"/>
<polygon fill="#000000" stroke="#000000" points="378.9283,-15.2182 369.2843,-19.6049 379.559,-22.1898 378.9283,-15.2182"/>
</g>
<!-- Node1 -->
<g id="node3" class="node">
<title>Node1</title>
<g id="a_node3"><a xlink:href="a00458.html" target="_top" xlink:title=" ">
<polygon fill="#ffffff" stroke="#000000" points="159,-48 0,-48 0,-7 159,-7 159,-48"/>
<text text-anchor="start" x="8" y="-36" font-family="Helvetica,sans-Serif" font-size="10.00" fill="#000000">Peripheral Register</text>
<text text-anchor="start" x="8" y="-25" font-family="Helvetica,sans-Serif" font-size="10.00" fill="#000000"> Abstraction Layer </text>
<text text-anchor="middle" x="79.5" y="-14" font-family="Helvetica,sans-Serif" font-size="10.00" fill="#000000">(PRAL) Library</text>
</a>
</g>
</g>
<!-- Node1&#45;&gt;Node0 -->
<g id="edge1" class="edge">
<title>Node1&#45;&gt;Node0</title>
<path fill="none" stroke="#000000" d="M169.5015,-27.5C177.9683,-27.5 186.5414,-27.5 194.9799,-27.5"/>
<polygon fill="#000000" stroke="#000000" points="169.2427,-24.0001 159.2427,-27.5 169.2426,-31.0001 169.2427,-24.0001"/>
</g>
</g>
</svg>
