<?xml version="1.0" encoding="UTF-8" standalone="no"?>
<!DOCTYPE svg PUBLIC "-//W3C//DTD SVG 1.1//EN"
 "http://www.w3.org/Graphics/SVG/1.1/DTD/svg11.dtd">
<!-- Generated by graphviz version 2.44.1 (20200629.0846)
 -->
<!-- Title: SubState_VRampUp Pages: 1 -->
<svg width="452pt" height="28pt"
 viewBox="0.00 0.00 452.00 28.00" xmlns="http://www.w3.org/2000/svg" xmlns:xlink="http://www.w3.org/1999/xlink">
<g id="graph0" class="graph" transform="scale(1 1) rotate(0) translate(4 24)">
<title>SubState_VRampUp</title>
<polygon fill="white" stroke="transparent" points="-4,4 -4,-24 448,-24 448,4 -4,4"/>
<!-- Node1 -->
<g id="node1" class="node">
<title>Node1</title>
<g id="a_node1"><a xlink:title="This function ramps up the output voltage to its nominal regulation point.">
<polygon fill="#bfbfbf" stroke="black" points="0,-0.5 0,-19.5 107,-19.5 107,-0.5 0,-0.5"/>
<text text-anchor="middle" x="53.5" y="-7.5" font-family="Helvetica,sans-Serif" font-size="10.00">SubState_VRampUp</text>
</a>
</g>
</g>
<!-- Node2 -->
<g id="node2" class="node">
<title>Node2</title>
<g id="a_node2"><a xlink:href="a00491.html#ga5f53e68e580abcb4c924dc029c47e578" target="_top" xlink:title="This function resumes the boost PWM operation.">
<polygon fill="white" stroke="black" points="143,-0.5 143,-19.5 250,-19.5 250,-0.5 143,-0.5"/>
<text text-anchor="middle" x="196.5" y="-7.5" font-family="Helvetica,sans-Serif" font-size="10.00">boostPWM_Resume</text>
</a>
</g>
</g>
<!-- Node1&#45;&gt;Node2 -->
<g id="edge1" class="edge">
<title>Node1&#45;&gt;Node2</title>
<path fill="none" stroke="midnightblue" d="M107,-10C115.44,-10 124.26,-10 132.9,-10"/>
<polygon fill="midnightblue" stroke="midnightblue" points="132.95,-13.5 142.95,-10 132.95,-6.5 132.95,-13.5"/>
</g>
<!-- Node3 -->
<g id="node3" class="node">
<title>Node3</title>
<g id="a_node3"><a xlink:href="a00372.html#ga55e525c7ac54a365ab6dad558ec17f0b" target="_top" xlink:title="Returns the PWM generator index.">
<polygon fill="white" stroke="black" points="286,-0.5 286,-19.5 444,-19.5 444,-0.5 286,-0.5"/>
<text text-anchor="middle" x="365" y="-7.5" font-family="Helvetica,sans-Serif" font-size="10.00">p33c_PwmGenerator_GetHandle</text>
</a>
</g>
</g>
<!-- Node2&#45;&gt;Node3 -->
<g id="edge2" class="edge">
<title>Node2&#45;&gt;Node3</title>
<path fill="none" stroke="midnightblue" d="M250.18,-10C258.33,-10 266.93,-10 275.61,-10"/>
<polygon fill="midnightblue" stroke="midnightblue" points="275.81,-13.5 285.81,-10 275.81,-6.5 275.81,-13.5"/>
</g>
</g>
</svg>
