<?xml version="1.0" encoding="UTF-8" standalone="no"?>
<!DOCTYPE svg PUBLIC "-//W3C//DTD SVG 1.1//EN"
 "http://www.w3.org/Graphics/SVG/1.1/DTD/svg11.dtd">
<!-- Generated by graphviz version 2.40.1 (0)
 -->
<!-- Title: Peripheral Register Abstraction Layer (PRAL) Library Pages: 1 -->
<svg width="625pt" height="364pt"
 viewBox="0.00 0.00 625.00 364.00" xmlns="http://www.w3.org/2000/svg" xmlns:xlink="http://www.w3.org/1999/xlink">
<g id="graph0" class="graph" transform="scale(1 1) rotate(0) translate(4 360)">
<title>Peripheral Register Abstraction Layer (PRAL) Library</title>
<polygon fill="#ffffff" stroke="transparent" points="-4,4 -4,-360 621,-360 621,4 -4,4"/>
<!-- Node5 -->
<g id="node1" class="node">
<title>Node5</title>
<g id="a_node1"><a xlink:href="a00462.html" target="_top" xlink:title="General Purpose Input/Output Special Function Register Abstraction Driver.">
<polygon fill="#ffffff" stroke="#000000" points="594.5,-356 420.5,-356 420.5,-326 594.5,-326 594.5,-356"/>
<text text-anchor="start" x="428.5" y="-344" font-family="Helvetica,sans-Serif" font-size="10.00" fill="#000000">General Purpose Input</text>
<text text-anchor="middle" x="507.5" y="-333" font-family="Helvetica,sans-Serif" font-size="10.00" fill="#000000">/Output (GPIO)</text>
</a>
</g>
</g>
<!-- Node7 -->
<g id="node2" class="node">
<title>Node7</title>
<g id="a_node2"><a xlink:href="a00464.html" target="_top" xlink:title="Oscillator Module Special Function Register Abstraction Driver.">
<polygon fill="#ffffff" stroke="#000000" points="602,-307.5 413,-307.5 413,-288.5 602,-288.5 602,-307.5"/>
<text text-anchor="middle" x="507.5" y="-295.5" font-family="Helvetica,sans-Serif" font-size="10.00" fill="#000000">Oscillator Module (OSC)</text>
</a>
</g>
</g>
<!-- Node3 -->
<g id="node3" class="node">
<title>Node3</title>
<g id="a_node3"><a xlink:href="a00460.html" target="_top" xlink:title="Digital&#45;To&#45;Analog Converter Peripheral Module Special Function Register Abstraction Driver.">
<polygon fill="#ffffff" stroke="#000000" points="617,-270 398,-270 398,-240 617,-240 617,-270"/>
<text text-anchor="start" x="406" y="-258" font-family="Helvetica,sans-Serif" font-size="10.00" fill="#000000">Digital&#45;To&#45;Analog Converter</text>
<text text-anchor="middle" x="507.5" y="-247" font-family="Helvetica,sans-Serif" font-size="10.00" fill="#000000"> Module (DAC)</text>
</a>
</g>
</g>
<!-- Node2 -->
<g id="node4" class="node">
<title>Node2</title>
<g id="a_node4"><a xlink:href="a00459.html" target="_top" xlink:title="Capture Compare Peripheral Module Special Function Register Abstraction Driver.">
<polygon fill="#ffffff" stroke="#000000" points="598.5,-222 416.5,-222 416.5,-192 598.5,-192 598.5,-222"/>
<text text-anchor="start" x="424.5" y="-210" font-family="Helvetica,sans-Serif" font-size="10.00" fill="#000000">Capture Compare Module</text>
<text text-anchor="middle" x="507.5" y="-199" font-family="Helvetica,sans-Serif" font-size="10.00" fill="#000000"> (SCCP/MCCP)</text>
</a>
</g>
</g>
<!-- Node4 -->
<g id="node5" class="node">
<title>Node4</title>
<g id="a_node5"><a xlink:href="a00461.html" target="_top" xlink:title="Digital Signal Processor Special Function Register Abstraction Driver.">
<polygon fill="#ffffff" stroke="#000000" points="606,-174 409,-174 409,-144 606,-144 606,-174"/>
<text text-anchor="start" x="417" y="-162" font-family="Helvetica,sans-Serif" font-size="10.00" fill="#000000">Digital Signal Processor</text>
<text text-anchor="middle" x="507.5" y="-151" font-family="Helvetica,sans-Serif" font-size="10.00" fill="#000000"> Converter Module (DSP)</text>
</a>
</g>
</g>
<!-- Node1 -->
<g id="node6" class="node">
<title>Node1</title>
<g id="a_node6"><a xlink:href="a00661.html" target="_top" xlink:title="Generic Library Driver Layer.">
<polygon fill="#ffffff" stroke="#000000" points="167,-192.5 0,-192.5 0,-173.5 167,-173.5 167,-192.5"/>
<text text-anchor="middle" x="83.5" y="-180.5" font-family="Helvetica,sans-Serif" font-size="10.00" fill="#000000">Library Driver Layer</text>
</a>
</g>
</g>
<!-- Node0 -->
<g id="node10" class="node">
<title>Node0</title>
<g id="a_node10"><a xlink:title=" ">
<polygon fill="#bfbfbf" stroke="#000000" points="362,-203.5 203,-203.5 203,-162.5 362,-162.5 362,-203.5"/>
<text text-anchor="start" x="211" y="-191.5" font-family="Helvetica,sans-Serif" font-size="10.00" fill="#000000">Peripheral Register</text>
<text text-anchor="start" x="211" y="-180.5" font-family="Helvetica,sans-Serif" font-size="10.00" fill="#000000"> Abstraction Layer </text>
<text text-anchor="middle" x="282.5" y="-169.5" font-family="Helvetica,sans-Serif" font-size="10.00" fill="#000000">(PRAL) Library</text>
</a>
</g>
</g>
<!-- Node1&#45;&gt;Node0 -->
<g id="edge1" class="edge">
<title>Node1&#45;&gt;Node0</title>
<path fill="none" stroke="#000000" d="M177.0484,-183C185.6197,-183 194.2501,-183 202.6839,-183"/>
<polygon fill="#000000" stroke="#000000" points="177.029,-179.5001 167.029,-183 177.0289,-186.5001 177.029,-179.5001"/>
</g>
<!-- Node6 -->
<g id="node7" class="node">
<title>Node6</title>
<g id="a_node7"><a xlink:href="a00463.html" target="_top" xlink:title="Operational Amplifier Peripheral Module Special Function Register Abstraction Driver.">
<polygon fill="#ffffff" stroke="#000000" points="594.5,-126 420.5,-126 420.5,-96 594.5,-96 594.5,-126"/>
<text text-anchor="start" x="428.5" y="-114" font-family="Helvetica,sans-Serif" font-size="10.00" fill="#000000">Operational Amplifier</text>
<text text-anchor="middle" x="507.5" y="-103" font-family="Helvetica,sans-Serif" font-size="10.00" fill="#000000"> Module (AMP)</text>
</a>
</g>
</g>
<!-- Node8 -->
<g id="node8" class="node">
<title>Node8</title>
<g id="a_node8"><a xlink:href="a00465.html" target="_top" xlink:title="Peripheral Pin Select Module Special Function Register Abstraction Driver.">
<polygon fill="#ffffff" stroke="#000000" points="594.5,-78 420.5,-78 420.5,-48 594.5,-48 594.5,-78"/>
<text text-anchor="start" x="428.5" y="-66" font-family="Helvetica,sans-Serif" font-size="10.00" fill="#000000">Peripheral Pin Select</text>
<text text-anchor="middle" x="507.5" y="-55" font-family="Helvetica,sans-Serif" font-size="10.00" fill="#000000"> Module (PPS)</text>
</a>
</g>
</g>
<!-- Node9 -->
<g id="node9" class="node">
<title>Node9</title>
<g id="a_node9"><a xlink:href="a00466.html" target="_top" xlink:title="High&#45;Speed PWM Module Special Function Register Abstraction Driver.">
<polygon fill="#ffffff" stroke="#000000" points="594.5,-30 420.5,-30 420.5,0 594.5,0 594.5,-30"/>
<text text-anchor="start" x="428.5" y="-18" font-family="Helvetica,sans-Serif" font-size="10.00" fill="#000000">High&#45;Speed PWM Module</text>
<text text-anchor="middle" x="507.5" y="-7" font-family="Helvetica,sans-Serif" font-size="10.00" fill="#000000"> (HSPWM)</text>
</a>
</g>
</g>
<!-- Node0&#45;&gt;Node5 -->
<g id="edge5" class="edge">
<title>Node0&#45;&gt;Node5</title>
<path fill="none" stroke="#000000" d="M299.8283,-212.5838C319.5761,-243.568 354.7807,-291.2345 398,-317 404.9374,-321.1358 412.5031,-324.5613 420.3112,-327.3983"/>
<polygon fill="#000000" stroke="#000000" points="302.6975,-210.5701 294.4392,-203.933 296.756,-214.2714 302.6975,-210.5701"/>
</g>
<!-- Node0&#45;&gt;Node7 -->
<g id="edge7" class="edge">
<title>Node0&#45;&gt;Node7</title>
<path fill="none" stroke="#000000" d="M307.9026,-210.983C329.616,-233.0661 362.8491,-262.7669 398,-279 406.4081,-282.8829 415.5127,-285.9777 424.7571,-288.4434"/>
<polygon fill="#000000" stroke="#000000" points="310.1766,-208.2987 300.7185,-203.5243 305.1349,-213.1548 310.1766,-208.2987"/>
</g>
<!-- Node0&#45;&gt;Node3 -->
<g id="edge3" class="edge">
<title>Node0&#45;&gt;Node3</title>
<path fill="none" stroke="#000000" d="M336.0027,-207.5667C355.2697,-215.7878 377.351,-224.5034 398,-231 408.3961,-234.2709 419.4837,-237.2592 430.4627,-239.932"/>
<polygon fill="#000000" stroke="#000000" points="337.3568,-204.339 326.789,-203.5824 334.5784,-210.764 337.3568,-204.339"/>
</g>
<!-- Node0&#45;&gt;Node2 -->
<g id="edge2" class="edge">
<title>Node0&#45;&gt;Node2</title>
<path fill="none" stroke="#000000" d="M372.1384,-192.5614C386.7176,-194.1165 401.8316,-195.7287 416.4444,-197.2874"/>
<polygon fill="#000000" stroke="#000000" points="372.4581,-189.0758 362.1432,-191.4953 371.7156,-196.0363 372.4581,-189.0758"/>
</g>
<!-- Node0&#45;&gt;Node4 -->
<g id="edge4" class="edge">
<title>Node0&#45;&gt;Node4</title>
<path fill="none" stroke="#000000" d="M372.1263,-173.4399C384.1275,-172.1597 396.4913,-170.8409 408.6397,-169.5451"/>
<polygon fill="#000000" stroke="#000000" points="371.7156,-169.9637 362.1432,-174.5047 372.4581,-176.9242 371.7156,-169.9637"/>
</g>
<!-- Node0&#45;&gt;Node6 -->
<g id="edge6" class="edge">
<title>Node0&#45;&gt;Node6</title>
<path fill="none" stroke="#000000" d="M336.0027,-158.4333C355.2697,-150.2122 377.351,-141.4966 398,-135 408.3961,-131.7291 419.4837,-128.7408 430.4627,-126.068"/>
<polygon fill="#000000" stroke="#000000" points="334.5784,-155.236 326.789,-162.4176 337.3568,-161.661 334.5784,-155.236"/>
</g>
<!-- Node0&#45;&gt;Node8 -->
<g id="edge8" class="edge">
<title>Node0&#45;&gt;Node8</title>
<path fill="none" stroke="#000000" d="M308.4916,-155.028C330.324,-133.2236 363.424,-103.8993 398,-87 405.0814,-83.5389 412.6628,-80.5722 420.4088,-78.0302"/>
<polygon fill="#000000" stroke="#000000" points="305.7664,-152.8078 301.2552,-162.3942 310.7599,-157.7134 305.7664,-152.8078"/>
</g>
<!-- Node0&#45;&gt;Node9 -->
<g id="edge9" class="edge">
<title>Node0&#45;&gt;Node9</title>
<path fill="none" stroke="#000000" d="M297.9337,-153.5533C316.9178,-120.359 352.3218,-67.3382 398,-39 404.9458,-34.6909 412.5599,-31.1497 420.436,-28.2405"/>
<polygon fill="#000000" stroke="#000000" points="294.8395,-151.9157 293.0197,-162.3531 300.9511,-155.3286 294.8395,-151.9157"/>
</g>
</g>
</svg>
