<?xml version="1.0" encoding="UTF-8" standalone="no"?>
<!DOCTYPE svg PUBLIC "-//W3C//DTD SVG 1.1//EN"
 "http://www.w3.org/Graphics/SVG/1.1/DTD/svg11.dtd">
<!-- Generated by graphviz version 2.44.1 (20200629.0846)
 -->
<!-- Title: Boost Converter Library Modules Pages: 1 -->
<svg width="464pt" height="150pt"
 viewBox="0.00 0.00 464.00 149.50" xmlns="http://www.w3.org/2000/svg" xmlns:xlink="http://www.w3.org/1999/xlink">
<g id="graph0" class="graph" transform="scale(1 1) rotate(0) translate(4 145.5)">
<title>Boost Converter Library Modules</title>
<polygon fill="white" stroke="transparent" points="-4,4 -4,-145.5 460,-145.5 460,4 -4,4"/>
<!-- Node3 -->
<g id="node1" class="node">
<title>Node3</title>
<g id="a_node1"><a xlink:href="a00478.html" target="_top" xlink:title="Description of the Boost Converter Library State Machine library module.">
<polygon fill="white" stroke="black" points="438,-141.5 326,-141.5 326,-111.5 438,-111.5 438,-141.5"/>
<text text-anchor="start" x="334" y="-129.5" font-family="Helvetica,sans-Serif" font-size="10.00">Boost Converter State</text>
<text text-anchor="middle" x="382" y="-118.5" font-family="Helvetica,sans-Serif" font-size="10.00"> Machine</text>
</a>
</g>
</g>
<!-- Node1 -->
<g id="node2" class="node">
<title>Node1</title>
<g id="a_node2"><a xlink:title=" ">
<polygon fill="#bfbfbf" stroke="black" points="272,-79.5 154,-79.5 154,-49.5 272,-49.5 272,-79.5"/>
<text text-anchor="start" x="162" y="-67.5" font-family="Helvetica,sans-Serif" font-size="10.00">Boost Converter Library</text>
<text text-anchor="middle" x="213" y="-56.5" font-family="Helvetica,sans-Serif" font-size="10.00"> Modules</text>
</a>
</g>
</g>
<!-- Node1&#45;&gt;Node3 -->
<g id="edge2" class="edge">
<title>Node1&#45;&gt;Node3</title>
<path fill="none" stroke="black" d="M259.24,-83.5C274.63,-89.77 291.98,-96.64 308,-102.5 316.27,-105.53 325.13,-108.59 333.72,-111.46"/>
<polygon fill="black" stroke="black" points="260.52,-80.24 249.94,-79.68 257.86,-86.72 260.52,-80.24"/>
</g>
<!-- Node6 -->
<g id="node3" class="node">
<title>Node6</title>
<g id="a_node3"><a xlink:href="a00496.html" target="_top" xlink:title=" ">
<polygon fill="white" stroke="black" points="450.5,-93 313.5,-93 313.5,-74 450.5,-74 450.5,-93"/>
<text text-anchor="middle" x="382" y="-81" font-family="Helvetica,sans-Serif" font-size="10.00">Boost Peripheral Templates</text>
</a>
</g>
</g>
<!-- Node1&#45;&gt;Node6 -->
<g id="edge5" class="edge">
<title>Node1&#45;&gt;Node6</title>
<path fill="none" stroke="black" d="M282.51,-72.29C292.73,-73.46 303.27,-74.66 313.47,-75.82"/>
<polygon fill="black" stroke="black" points="282.74,-68.8 272.41,-71.15 281.95,-75.75 282.74,-68.8"/>
</g>
<!-- Node5 -->
<g id="node4" class="node">
<title>Node5</title>
<g id="a_node4"><a xlink:href="a00490.html" target="_top" xlink:title=" ">
<polygon fill="white" stroke="black" points="456,-56 308,-56 308,-37 456,-37 456,-56"/>
<text text-anchor="middle" x="382" y="-44" font-family="Helvetica,sans-Serif" font-size="10.00">Boost Peripheral Configuration</text>
</a>
</g>
</g>
<!-- Node1&#45;&gt;Node5 -->
<g id="edge4" class="edge">
<title>Node1&#45;&gt;Node5</title>
<path fill="none" stroke="black" d="M282.51,-57.12C290.9,-56.21 299.49,-55.29 307.94,-54.37"/>
<polygon fill="black" stroke="black" points="281.98,-53.65 272.41,-58.2 282.73,-60.61 281.98,-53.65"/>
</g>
<!-- Node4 -->
<g id="node5" class="node">
<title>Node4</title>
<g id="a_node5"><a xlink:href="a00484.html" target="_top" xlink:title=" ">
<polygon fill="white" stroke="black" points="443.5,-19 320.5,-19 320.5,0 443.5,0 443.5,-19"/>
<text text-anchor="middle" x="382" y="-7" font-family="Helvetica,sans-Serif" font-size="10.00">Boost Special Functions</text>
</a>
</g>
</g>
<!-- Node1&#45;&gt;Node4 -->
<g id="edge3" class="edge">
<title>Node1&#45;&gt;Node4</title>
<path fill="none" stroke="black" d="M258.25,-45.68C273.81,-39.44 291.53,-32.75 308,-27.5 317.7,-24.41 328.27,-21.53 338.27,-19.02"/>
<polygon fill="black" stroke="black" points="256.81,-42.49 248.86,-49.49 259.45,-48.97 256.81,-42.49"/>
</g>
<!-- Node2 -->
<g id="node6" class="node">
<title>Node2</title>
<g id="a_node6"><a xlink:href="a00466.html" target="_top" xlink:title=" ">
<polygon fill="white" stroke="black" points="118,-74 0,-74 0,-55 118,-55 118,-74"/>
<text text-anchor="middle" x="59" y="-62" font-family="Helvetica,sans-Serif" font-size="10.00">Boost Converter Library</text>
</a>
</g>
</g>
<!-- Node2&#45;&gt;Node1 -->
<g id="edge1" class="edge">
<title>Node2&#45;&gt;Node1</title>
<path fill="none" stroke="black" d="M128.54,-64.5C136.99,-64.5 145.55,-64.5 153.82,-64.5"/>
<polygon fill="black" stroke="black" points="128.33,-61 118.33,-64.5 128.33,-68 128.33,-61"/>
</g>
</g>
</svg>
