<?xml version="1.0" encoding="UTF-8" standalone="no"?>
<!DOCTYPE svg PUBLIC "-//W3C//DTD SVG 1.1//EN"
 "http://www.w3.org/Graphics/SVG/1.1/DTD/svg11.dtd">
<!-- Generated by graphviz version 2.44.1 (20200629.0846)
 -->
<!-- Title: State_Error Pages: 1 -->
<svg width="600pt" height="66pt"
 viewBox="0.00 0.00 600.00 66.00" xmlns="http://www.w3.org/2000/svg" xmlns:xlink="http://www.w3.org/1999/xlink">
<g id="graph0" class="graph" transform="scale(1 1) rotate(0) translate(4 62)">
<title>State_Error</title>
<polygon fill="white" stroke="transparent" points="-4,4 -4,-62 596,-62 596,4 -4,4"/>
<!-- Node1 -->
<g id="node1" class="node">
<title>Node1</title>
<g id="a_node1"><a xlink:title="If this function is called, the state machine is reset to INITIALIZE (URL=State_Initialize).">
<polygon fill="#bfbfbf" stroke="black" points="0,-19.5 0,-38.5 66,-38.5 66,-19.5 0,-19.5"/>
<text text-anchor="middle" x="33" y="-26.5" font-family="Helvetica,sans-Serif" font-size="10.00">State_Error</text>
</a>
</g>
</g>
<!-- Node2 -->
<g id="node2" class="node">
<title>Node2</title>
<g id="a_node2"><a xlink:href="a00504.html#gac6b33134d75a969d4deb6e2f158e6d9c" target="_top" xlink:title="This function disables the PWM generator IOs.">
<polygon fill="white" stroke="black" points="102,-19.5 102,-38.5 211,-38.5 211,-19.5 102,-19.5"/>
<text text-anchor="middle" x="156.5" y="-26.5" font-family="Helvetica,sans-Serif" font-size="10.00">boostPWM_Suspend</text>
</a>
</g>
</g>
<!-- Node1&#45;&gt;Node2 -->
<g id="edge1" class="edge">
<title>Node1&#45;&gt;Node2</title>
<path fill="none" stroke="midnightblue" d="M66.24,-29C74.21,-29 83.02,-29 91.92,-29"/>
<polygon fill="midnightblue" stroke="midnightblue" points="91.96,-32.5 101.96,-29 91.96,-25.5 91.96,-32.5"/>
</g>
<!-- Node3 -->
<g id="node3" class="node">
<title>Node3</title>
<g id="a_node3"><a xlink:href="a00504.html#ga0e291d0cb856167fd188be50090ef5ce" target="_top" xlink:title="This function clears the selected general purpose input/output pin.">
<polygon fill="white" stroke="black" points="280,-38.5 280,-57.5 372,-57.5 372,-38.5 280,-38.5"/>
<text text-anchor="middle" x="326" y="-45.5" font-family="Helvetica,sans-Serif" font-size="10.00">boostGPIO_Clear</text>
</a>
</g>
</g>
<!-- Node2&#45;&gt;Node3 -->
<g id="edge2" class="edge">
<title>Node2&#45;&gt;Node3</title>
<path fill="none" stroke="midnightblue" d="M211.42,-35.12C230.06,-37.23 250.97,-39.6 269.72,-41.73"/>
<polygon fill="midnightblue" stroke="midnightblue" points="269.55,-45.23 279.88,-42.88 270.34,-38.28 269.55,-45.23"/>
</g>
<!-- Node5 -->
<g id="node5" class="node">
<title>Node5</title>
<g id="a_node5"><a xlink:href="a00366.html#ga55e525c7ac54a365ab6dad558ec17f0b" target="_top" xlink:title="Returns the PWM generator index.">
<polygon fill="white" stroke="black" points="247,-0.5 247,-19.5 405,-19.5 405,-0.5 247,-0.5"/>
<text text-anchor="middle" x="326" y="-7.5" font-family="Helvetica,sans-Serif" font-size="10.00">p33c_PwmGenerator_GetHandle</text>
</a>
</g>
</g>
<!-- Node2&#45;&gt;Node5 -->
<g id="edge4" class="edge">
<title>Node2&#45;&gt;Node5</title>
<path fill="none" stroke="midnightblue" d="M211.42,-22.88C219.53,-21.96 228.07,-20.99 236.68,-20.02"/>
<polygon fill="midnightblue" stroke="midnightblue" points="237.24,-23.48 246.79,-18.87 236.46,-16.52 237.24,-23.48"/>
</g>
<!-- Node4 -->
<g id="node4" class="node">
<title>Node4</title>
<g id="a_node4"><a xlink:href="a00362.html#ga4d67af688d8f7f911d79107974e11e6b" target="_top" xlink:title="Gets pointer to GPIO Instance SFR set.">
<polygon fill="white" stroke="black" points="441,-38.5 441,-57.5 592,-57.5 592,-38.5 441,-38.5"/>
<text text-anchor="middle" x="516.5" y="-45.5" font-family="Helvetica,sans-Serif" font-size="10.00">p33c_GpioInstance_GetHandle</text>
</a>
</g>
</g>
<!-- Node3&#45;&gt;Node4 -->
<g id="edge3" class="edge">
<title>Node3&#45;&gt;Node4</title>
<path fill="none" stroke="midnightblue" d="M372.15,-48C389.76,-48 410.54,-48 430.74,-48"/>
<polygon fill="midnightblue" stroke="midnightblue" points="430.91,-51.5 440.91,-48 430.91,-44.5 430.91,-51.5"/>
</g>
</g>
</svg>
