<?xml version="1.0" encoding="UTF-8" standalone="no"?>
<!DOCTYPE svg PUBLIC "-//W3C//DTD SVG 1.1//EN"
 "http://www.w3.org/Graphics/SVG/1.1/DTD/svg11.dtd">
<!-- Generated by graphviz version 2.44.1 (20200629.0846)
 -->
<!-- Title: Boost Peripheral Configuration Pages: 1 -->
<svg width="407pt" height="64pt"
 viewBox="0.00 0.00 407.00 64.00" xmlns="http://www.w3.org/2000/svg" xmlns:xlink="http://www.w3.org/1999/xlink">
<g id="graph0" class="graph" transform="scale(1 1) rotate(0) translate(4 60)">
<title>Boost Peripheral Configuration</title>
<polygon fill="white" stroke="transparent" points="-4,4 -4,-60 403,-60 403,4 -4,4"/>
<!-- Node3 -->
<g id="node1" class="node">
<title>Node3</title>
<g id="a_node1"><a xlink:href="a00491.html" target="_top" xlink:title="Functions of the second library layer.">
<polygon fill="white" stroke="black" points="398,-56 339,-56 339,-37 398,-37 398,-56"/>
<text text-anchor="middle" x="368.5" y="-44" font-family="Helvetica,sans-Serif" font-size="10.00">Functions</text>
</a>
</g>
</g>
<!-- Node2 -->
<g id="node2" class="node">
<title>Node2</title>
<g id="a_node2"><a xlink:href="a00477.html" target="_top" xlink:title=" ">
<polygon fill="white" stroke="black" points="118,-42.5 0,-42.5 0,-12.5 118,-12.5 118,-42.5"/>
<text text-anchor="start" x="8" y="-30.5" font-family="Helvetica,sans-Serif" font-size="10.00">Boost Converter Library</text>
<text text-anchor="middle" x="59" y="-19.5" font-family="Helvetica,sans-Serif" font-size="10.00"> Modules</text>
</a>
</g>
</g>
<!-- Node1 -->
<g id="node4" class="node">
<title>Node1</title>
<g id="a_node4"><a xlink:title=" ">
<polygon fill="#bfbfbf" stroke="black" points="302,-37 154,-37 154,-18 302,-18 302,-37"/>
<text text-anchor="middle" x="228" y="-25" font-family="Helvetica,sans-Serif" font-size="10.00">Boost Peripheral Configuration</text>
</a>
</g>
</g>
<!-- Node2&#45;&gt;Node1 -->
<g id="edge1" class="edge">
<title>Node2&#45;&gt;Node1</title>
<path fill="none" stroke="black" d="M128.51,-27.5C136.9,-27.5 145.49,-27.5 153.94,-27.5"/>
<polygon fill="black" stroke="black" points="128.41,-24 118.41,-27.5 128.41,-31 128.41,-24"/>
</g>
<!-- Node4 -->
<g id="node3" class="node">
<title>Node4</title>
<g id="a_node3"><a xlink:href="a00492.html" target="_top" xlink:title="Properties of the second library layer.">
<polygon fill="white" stroke="black" points="399,-19 338,-19 338,0 399,0 399,-19"/>
<text text-anchor="middle" x="368.5" y="-7" font-family="Helvetica,sans-Serif" font-size="10.00">Properties</text>
</a>
</g>
</g>
<!-- Node1&#45;&gt;Node3 -->
<g id="edge2" class="edge">
<title>Node1&#45;&gt;Node3</title>
<path fill="none" stroke="black" d="M308.66,-38.43C319.49,-39.91 329.96,-41.35 339,-42.59"/>
<polygon fill="black" stroke="black" points="309.04,-34.95 298.66,-37.06 308.09,-41.88 309.04,-34.95"/>
</g>
<!-- Node1&#45;&gt;Node4 -->
<g id="edge3" class="edge">
<title>Node1&#45;&gt;Node4</title>
<path fill="none" stroke="black" d="M312.27,-16.68C321.35,-15.5 330.11,-14.36 337.86,-13.35"/>
<polygon fill="black" stroke="black" points="311.77,-13.21 302.31,-17.97 312.67,-20.15 311.77,-13.21"/>
</g>
</g>
</svg>
