<?xml version="1.0" encoding="UTF-8" standalone="no"?>
<!DOCTYPE svg PUBLIC "-//W3C//DTD SVG 1.1//EN"
 "http://www.w3.org/Graphics/SVG/1.1/DTD/svg11.dtd">
<!-- Generated by graphviz version 2.40.1 (0)
 -->
<!-- Title: Microcontroller Device Abstraction Pages: 1 -->
<svg width="573pt" height="64pt"
 viewBox="0.00 0.00 573.00 64.00" xmlns="http://www.w3.org/2000/svg" xmlns:xlink="http://www.w3.org/1999/xlink">
<g id="graph0" class="graph" transform="scale(1 1) rotate(0) translate(4 60)">
<title>Microcontroller Device Abstraction</title>
<polygon fill="#ffffff" stroke="transparent" points="-4,4 -4,-60 569,-60 569,4 -4,4"/>
<!-- Node1 -->
<g id="node1" class="node">
<title>Node1</title>
<g id="a_node1"><a xlink:href="a00658.html" target="_top" xlink:title="Hardware Abstraction Layer Declarations.">
<polygon fill="#ffffff" stroke="#000000" points="167,-42.5 0,-42.5 0,-12.5 167,-12.5 167,-42.5"/>
<text text-anchor="start" x="8" y="-30.5" font-family="Helvetica,sans-Serif" font-size="10.00" fill="#000000">Hardware Abstraction</text>
<text text-anchor="middle" x="83.5" y="-19.5" font-family="Helvetica,sans-Serif" font-size="10.00" fill="#000000"> Layer</text>
</a>
</g>
</g>
<!-- Node0 -->
<g id="node4" class="node">
<title>Node0</title>
<g id="a_node4"><a xlink:title="Declarations of fundamental microcontroller device parameters.">
<polygon fill="#bfbfbf" stroke="#000000" points="385,-42.5 203,-42.5 203,-12.5 385,-12.5 385,-42.5"/>
<text text-anchor="start" x="211" y="-30.5" font-family="Helvetica,sans-Serif" font-size="10.00" fill="#000000">Microcontroller Device</text>
<text text-anchor="middle" x="294" y="-19.5" font-family="Helvetica,sans-Serif" font-size="10.00" fill="#000000"> Abstraction</text>
</a>
</g>
</g>
<!-- Node1&#45;&gt;Node0 -->
<g id="edge1" class="edge">
<title>Node1&#45;&gt;Node0</title>
<path fill="none" stroke="#000000" d="M177.519,-27.5C185.9484,-27.5 194.475,-27.5 202.8792,-27.5"/>
<polygon fill="#000000" stroke="#000000" points="177.3,-24.0001 167.3,-27.5 177.3,-31.0001 177.3,-24.0001"/>
</g>
<!-- Node3 -->
<g id="node2" class="node">
<title>Node3</title>
<g id="a_node2"><a xlink:href="a00486.html" target="_top" xlink:title="Conversion macros converting physical quantities of parameters into binary (integer) numbers for regi...">
<polygon fill="#ffffff" stroke="#000000" points="565,-56 421,-56 421,-37 565,-37 565,-56"/>
<text text-anchor="middle" x="493" y="-44" font-family="Helvetica,sans-Serif" font-size="10.00" fill="#000000">Conversion Macros</text>
</a>
</g>
</g>
<!-- Node2 -->
<g id="node3" class="node">
<title>Node2</title>
<g id="a_node3"><a xlink:href="a00485.html" target="_top" xlink:title="Parameter definitions using physical quantities.">
<polygon fill="#ffffff" stroke="#000000" points="550,-19 436,-19 436,0 550,0 550,-19"/>
<text text-anchor="middle" x="493" y="-7" font-family="Helvetica,sans-Serif" font-size="10.00" fill="#000000">User Settings</text>
</a>
</g>
</g>
<!-- Node0&#45;&gt;Node3 -->
<g id="edge3" class="edge">
<title>Node0&#45;&gt;Node3</title>
<path fill="none" stroke="#000000" d="M395.1819,-37.1606C403.8149,-37.9848 412.4309,-38.8075 420.7701,-39.6037"/>
<polygon fill="#000000" stroke="#000000" points="395.3428,-33.6601 385.0554,-36.1937 394.6775,-40.6284 395.3428,-33.6601"/>
</g>
<!-- Node0&#45;&gt;Node2 -->
<g id="edge2" class="edge">
<title>Node0&#45;&gt;Node2</title>
<path fill="none" stroke="#000000" d="M395.2132,-18.345C409.1739,-17.0823 423.0896,-15.8236 435.8606,-14.6684"/>
<polygon fill="#000000" stroke="#000000" points="394.6994,-14.8771 385.0554,-19.2638 395.3301,-21.8487 394.6994,-14.8771"/>
</g>
</g>
</svg>
