<?xml version="1.0" encoding="UTF-8" standalone="no"?>
<!DOCTYPE svg PUBLIC "-//W3C//DTD SVG 1.1//EN"
 "http://www.w3.org/Graphics/SVG/1.1/DTD/svg11.dtd">
<!-- Generated by graphviz version 2.44.1 (20200629.0846)
 -->
<!-- Title: Properties Pages: 1 -->
<svg width="392pt" height="101pt"
 viewBox="0.00 0.00 392.00 101.00" xmlns="http://www.w3.org/2000/svg" xmlns:xlink="http://www.w3.org/1999/xlink">
<g id="graph0" class="graph" transform="scale(1 1) rotate(0) translate(4 97)">
<title>Properties</title>
<polygon fill="white" stroke="transparent" points="-4,4 -4,-97 388,-97 388,4 -4,4"/>
<!-- Node4 -->
<g id="node1" class="node">
<title>Node4</title>
<g id="a_node1"><a xlink:href="a00485.html" target="_top" xlink:title=" ">
<polygon fill="white" stroke="black" points="360,-93 294,-93 294,-74 360,-74 360,-93"/>
<text text-anchor="middle" x="327" y="-81" font-family="Helvetica,sans-Serif" font-size="10.00">Data Types</text>
</a>
</g>
</g>
<!-- Node3 -->
<g id="node2" class="node">
<title>Node3</title>
<g id="a_node2"><a xlink:href="a00484.html" target="_top" xlink:title=" ">
<polygon fill="white" stroke="black" points="384,-56 270,-56 270,-37 384,-37 384,-56"/>
<text text-anchor="middle" x="327" y="-44" font-family="Helvetica,sans-Serif" font-size="10.00">Variables &amp; Constants</text>
</a>
</g>
</g>
<!-- Node5 -->
<g id="node3" class="node">
<title>Node5</title>
<g id="a_node3"><a xlink:href="a00486.html" target="_top" xlink:title=" ">
<polygon fill="white" stroke="black" points="378.5,-19 275.5,-19 275.5,0 378.5,0 378.5,-19"/>
<text text-anchor="middle" x="327" y="-7" font-family="Helvetica,sans-Serif" font-size="10.00">Defines and Macros</text>
</a>
</g>
</g>
<!-- Node2 -->
<g id="node4" class="node">
<title>Node2</title>
<g id="a_node4"><a xlink:href="a00481.html" target="_top" xlink:title=" ">
<polygon fill="white" stroke="black" points="137,-56 0,-56 0,-37 137,-37 137,-56"/>
<text text-anchor="middle" x="68.5" y="-44" font-family="Helvetica,sans-Serif" font-size="10.00">Boost Peripheral Templates</text>
</a>
</g>
</g>
<!-- Node1 -->
<g id="node5" class="node">
<title>Node1</title>
<g id="a_node5"><a xlink:title="Properties of the second library layer.">
<polygon fill="#bfbfbf" stroke="black" points="234,-56 173,-56 173,-37 234,-37 234,-56"/>
<text text-anchor="middle" x="203.5" y="-44" font-family="Helvetica,sans-Serif" font-size="10.00">Properties</text>
</a>
</g>
</g>
<!-- Node2&#45;&gt;Node1 -->
<g id="edge1" class="edge">
<title>Node2&#45;&gt;Node1</title>
<path fill="none" stroke="black" d="M147.44,-46.5C156.46,-46.5 165.18,-46.5 172.93,-46.5"/>
<polygon fill="black" stroke="black" points="147.17,-43 137.17,-46.5 147.17,-50 147.17,-43"/>
</g>
<!-- Node1&#45;&gt;Node4 -->
<g id="edge3" class="edge">
<title>Node1&#45;&gt;Node4</title>
<path fill="none" stroke="black" d="M244.04,-58.54C260.38,-63.52 279.07,-69.21 294.46,-73.9"/>
<polygon fill="black" stroke="black" points="244.81,-55.12 234.22,-55.55 242.77,-61.81 244.81,-55.12"/>
</g>
<!-- Node1&#45;&gt;Node3 -->
<g id="edge2" class="edge">
<title>Node1&#45;&gt;Node3</title>
<path fill="none" stroke="black" d="M244.41,-46.5C252.45,-46.5 261.04,-46.5 269.52,-46.5"/>
<polygon fill="black" stroke="black" points="244.22,-43 234.22,-46.5 244.22,-50 244.22,-43"/>
</g>
<!-- Node1&#45;&gt;Node5 -->
<g id="edge4" class="edge">
<title>Node1&#45;&gt;Node5</title>
<path fill="none" stroke="black" d="M244.04,-34.46C260.38,-29.48 279.07,-23.79 294.46,-19.1"/>
<polygon fill="black" stroke="black" points="242.77,-31.19 234.22,-37.45 244.81,-37.88 242.77,-31.19"/>
</g>
</g>
</svg>
