<?xml version="1.0" encoding="UTF-8" standalone="no"?>
<!DOCTYPE svg PUBLIC "-//W3C//DTD SVG 1.1//EN"
 "http://www.w3.org/Graphics/SVG/1.1/DTD/svg11.dtd">
<!-- Generated by graphviz version 2.44.1 (20200629.0846)
 -->
<!-- Title: Properties Pages: 1 -->
<svg width="378pt" height="101pt"
 viewBox="0.00 0.00 378.00 101.00" xmlns="http://www.w3.org/2000/svg" xmlns:xlink="http://www.w3.org/1999/xlink">
<g id="graph0" class="graph" transform="scale(1 1) rotate(0) translate(4 97)">
<title>Properties</title>
<polygon fill="white" stroke="transparent" points="-4,4 -4,-97 374,-97 374,4 -4,4"/>
<!-- Node4 -->
<g id="node1" class="node">
<title>Node4</title>
<g id="a_node1"><a xlink:href="a00485.html" target="_top" xlink:title="List of data types of the Special Function state machine extensions.">
<polygon fill="white" stroke="black" points="346,-93 280,-93 280,-74 346,-74 346,-93"/>
<text text-anchor="middle" x="313" y="-81" font-family="Helvetica,sans-Serif" font-size="10.00">Data Types</text>
</a>
</g>
</g>
<!-- Node3 -->
<g id="node2" class="node">
<title>Node3</title>
<g id="a_node2"><a xlink:href="a00484.html" target="_top" xlink:title="List of variables of the Special Function state machine extensions.">
<polygon fill="white" stroke="black" points="370,-56 256,-56 256,-37 370,-37 370,-56"/>
<text text-anchor="middle" x="313" y="-44" font-family="Helvetica,sans-Serif" font-size="10.00">Variables &amp; Constants</text>
</a>
</g>
</g>
<!-- Node1 -->
<g id="node3" class="node">
<title>Node1</title>
<g id="a_node3"><a xlink:title="Public properties of the second library layer.">
<polygon fill="#bfbfbf" stroke="black" points="220,-56 159,-56 159,-37 220,-37 220,-56"/>
<text text-anchor="middle" x="189.5" y="-44" font-family="Helvetica,sans-Serif" font-size="10.00">Properties</text>
</a>
</g>
</g>
<!-- Node1&#45;&gt;Node4 -->
<g id="edge3" class="edge">
<title>Node1&#45;&gt;Node4</title>
<path fill="none" stroke="black" d="M230.04,-58.54C246.38,-63.52 265.07,-69.21 280.46,-73.9"/>
<polygon fill="black" stroke="black" points="230.81,-55.12 220.22,-55.55 228.77,-61.81 230.81,-55.12"/>
</g>
<!-- Node1&#45;&gt;Node3 -->
<g id="edge2" class="edge">
<title>Node1&#45;&gt;Node3</title>
<path fill="none" stroke="black" d="M230.41,-46.5C238.45,-46.5 247.04,-46.5 255.52,-46.5"/>
<polygon fill="black" stroke="black" points="230.22,-43 220.22,-46.5 230.22,-50 230.22,-43"/>
</g>
<!-- Node5 -->
<g id="node5" class="node">
<title>Node5</title>
<g id="a_node5"><a xlink:href="a00486.html" target="_top" xlink:title="List of defines and macros of the Special Function state machine extensions.">
<polygon fill="white" stroke="black" points="364.5,-19 261.5,-19 261.5,0 364.5,0 364.5,-19"/>
<text text-anchor="middle" x="313" y="-7" font-family="Helvetica,sans-Serif" font-size="10.00">Defines and Macros</text>
</a>
</g>
</g>
<!-- Node1&#45;&gt;Node5 -->
<g id="edge4" class="edge">
<title>Node1&#45;&gt;Node5</title>
<path fill="none" stroke="black" d="M230.04,-34.46C246.38,-29.48 265.07,-23.79 280.46,-19.1"/>
<polygon fill="black" stroke="black" points="228.77,-31.19 220.22,-37.45 230.81,-37.88 228.77,-31.19"/>
</g>
<!-- Node2 -->
<g id="node4" class="node">
<title>Node2</title>
<g id="a_node4"><a xlink:href="a00481.html" target="_top" xlink:title=" ">
<polygon fill="white" stroke="black" points="123,-56 0,-56 0,-37 123,-37 123,-56"/>
<text text-anchor="middle" x="61.5" y="-44" font-family="Helvetica,sans-Serif" font-size="10.00">Boost Special Functions</text>
</a>
</g>
</g>
<!-- Node2&#45;&gt;Node1 -->
<g id="edge1" class="edge">
<title>Node2&#45;&gt;Node1</title>
<path fill="none" stroke="black" d="M133.39,-46.5C142.29,-46.5 150.98,-46.5 158.73,-46.5"/>
<polygon fill="black" stroke="black" points="133.29,-43 123.29,-46.5 133.29,-50 133.29,-43"/>
</g>
</g>
</svg>
