<?xml version="1.0" encoding="UTF-8" standalone="no"?>
<!DOCTYPE svg PUBLIC "-//W3C//DTD SVG 1.1//EN"
 "http://www.w3.org/Graphics/SVG/1.1/DTD/svg11.dtd">
<!-- Generated by graphviz version 2.44.1 (20200629.0846)
 -->
<!-- Title: appPowerSupply_Stop Pages: 1 -->
<svg width="792pt" height="66pt"
 viewBox="0.00 0.00 792.00 66.00" xmlns="http://www.w3.org/2000/svg" xmlns:xlink="http://www.w3.org/1999/xlink">
<g id="graph0" class="graph" transform="scale(1 1) rotate(0) translate(4 62)">
<title>appPowerSupply_Stop</title>
<polygon fill="white" stroke="transparent" points="-4,4 -4,-62 788,-62 788,4 -4,4"/>
<!-- Node1 -->
<g id="node1" class="node">
<title>Node1</title>
<g id="a_node1"><a xlink:title="This function calls the boost converter device driver function stopping the power supply.">
<polygon fill="#bfbfbf" stroke="black" points="0,-19.5 0,-38.5 115,-38.5 115,-19.5 0,-19.5"/>
<text text-anchor="middle" x="57.5" y="-26.5" font-family="Helvetica,sans-Serif" font-size="10.00">appPowerSupply_Stop</text>
</a>
</g>
</g>
<!-- Node2 -->
<g id="node2" class="node">
<title>Node2</title>
<g id="a_node2"><a xlink:href="a00481.html#gaaf54320205622e4683e05c9c30c83dc0" target="_top" xlink:title="This function stop the boost converter opration.">
<polygon fill="white" stroke="black" points="151,-19.5 151,-38.5 276,-38.5 276,-19.5 151,-19.5"/>
<text text-anchor="middle" x="213.5" y="-26.5" font-family="Helvetica,sans-Serif" font-size="10.00">drv_BoostConverter_Stop</text>
</a>
</g>
</g>
<!-- Node1&#45;&gt;Node2 -->
<g id="edge1" class="edge">
<title>Node1&#45;&gt;Node2</title>
<path fill="none" stroke="midnightblue" d="M115.41,-29C123.63,-29 132.18,-29 140.65,-29"/>
<polygon fill="midnightblue" stroke="midnightblue" points="140.91,-32.5 150.91,-29 140.91,-25.5 140.91,-32.5"/>
</g>
<!-- Node3 -->
<g id="node3" class="node">
<title>Node3</title>
<g id="a_node3"><a xlink:href="a00504.html#ga106051f11636da04a8f6a91413a10390" target="_top" xlink:title="This function stops the boost PWM output.">
<polygon fill="white" stroke="black" points="312,-19.5 312,-38.5 403,-38.5 403,-19.5 312,-19.5"/>
<text text-anchor="middle" x="357.5" y="-26.5" font-family="Helvetica,sans-Serif" font-size="10.00">boostPWM_Stop</text>
</a>
</g>
</g>
<!-- Node2&#45;&gt;Node3 -->
<g id="edge2" class="edge">
<title>Node2&#45;&gt;Node3</title>
<path fill="none" stroke="midnightblue" d="M276.37,-29C284.87,-29 293.55,-29 301.91,-29"/>
<polygon fill="midnightblue" stroke="midnightblue" points="301.91,-32.5 311.91,-29 301.91,-25.5 301.91,-32.5"/>
</g>
<!-- Node4 -->
<g id="node4" class="node">
<title>Node4</title>
<g id="a_node4"><a xlink:href="a00504.html#ga0e291d0cb856167fd188be50090ef5ce" target="_top" xlink:title="This function clears the selected general purpose input/output pin.">
<polygon fill="white" stroke="black" points="472,-38.5 472,-57.5 564,-57.5 564,-38.5 472,-38.5"/>
<text text-anchor="middle" x="518" y="-45.5" font-family="Helvetica,sans-Serif" font-size="10.00">boostGPIO_Clear</text>
</a>
</g>
</g>
<!-- Node3&#45;&gt;Node4 -->
<g id="edge3" class="edge">
<title>Node3&#45;&gt;Node4</title>
<path fill="none" stroke="midnightblue" d="M403.07,-34.34C421.31,-36.53 442.6,-39.08 461.81,-41.38"/>
<polygon fill="midnightblue" stroke="midnightblue" points="461.59,-44.88 471.94,-42.6 462.42,-37.93 461.59,-44.88"/>
</g>
<!-- Node6 -->
<g id="node6" class="node">
<title>Node6</title>
<g id="a_node6"><a xlink:href="a00366.html#ga55e525c7ac54a365ab6dad558ec17f0b" target="_top" xlink:title="Returns the PWM generator index.">
<polygon fill="white" stroke="black" points="439,-0.5 439,-19.5 597,-19.5 597,-0.5 439,-0.5"/>
<text text-anchor="middle" x="518" y="-7.5" font-family="Helvetica,sans-Serif" font-size="10.00">p33c_PwmGenerator_GetHandle</text>
</a>
</g>
</g>
<!-- Node3&#45;&gt;Node6 -->
<g id="edge5" class="edge">
<title>Node3&#45;&gt;Node6</title>
<path fill="none" stroke="midnightblue" d="M403.07,-23.66C411.19,-22.68 419.91,-21.64 428.78,-20.57"/>
<polygon fill="midnightblue" stroke="midnightblue" points="429.33,-24.03 438.84,-19.37 428.49,-17.08 429.33,-24.03"/>
</g>
<!-- Node5 -->
<g id="node5" class="node">
<title>Node5</title>
<g id="a_node5"><a xlink:href="a00362.html#ga4d67af688d8f7f911d79107974e11e6b" target="_top" xlink:title="Gets pointer to GPIO Instance SFR set.">
<polygon fill="white" stroke="black" points="633,-38.5 633,-57.5 784,-57.5 784,-38.5 633,-38.5"/>
<text text-anchor="middle" x="708.5" y="-45.5" font-family="Helvetica,sans-Serif" font-size="10.00">p33c_GpioInstance_GetHandle</text>
</a>
</g>
</g>
<!-- Node4&#45;&gt;Node5 -->
<g id="edge4" class="edge">
<title>Node4&#45;&gt;Node5</title>
<path fill="none" stroke="midnightblue" d="M564.15,-48C581.76,-48 602.54,-48 622.74,-48"/>
<polygon fill="midnightblue" stroke="midnightblue" points="622.91,-51.5 632.91,-48 622.91,-44.5 622.91,-51.5"/>
</g>
</g>
</svg>
