<?xml version="1.0" encoding="UTF-8" standalone="no"?>
<!DOCTYPE svg PUBLIC "-//W3C//DTD SVG 1.1//EN"
 "http://www.w3.org/Graphics/SVG/1.1/DTD/svg11.dtd">
<!-- Generated by graphviz version 2.44.1 (20200629.0846)
 -->
<!-- Title: Boost Converter Library API Pages: 1 -->
<svg width="428pt" height="101pt"
 viewBox="0.00 0.00 428.00 101.00" xmlns="http://www.w3.org/2000/svg" xmlns:xlink="http://www.w3.org/1999/xlink">
<g id="graph0" class="graph" transform="scale(1 1) rotate(0) translate(4 97)">
<title>Boost Converter Library API</title>
<polygon fill="white" stroke="transparent" points="-4,4 -4,-97 424,-97 424,4 -4,4"/>
<!-- Node1 -->
<g id="node1" class="node">
<title>Node1</title>
<g id="a_node1"><a xlink:title=" ">
<polygon fill="#bfbfbf" stroke="black" points="291,-56 154,-56 154,-37 291,-37 291,-56"/>
<text text-anchor="middle" x="222.5" y="-44" font-family="Helvetica,sans-Serif" font-size="10.00">Boost Converter Library API</text>
</a>
</g>
</g>
<!-- Node5 -->
<g id="node2" class="node">
<title>Node5</title>
<g id="a_node2"><a xlink:href="a00470.html" target="_top" xlink:title="Private properties of the second library layer.">
<polygon fill="white" stroke="black" points="420,-93 327,-93 327,-74 420,-74 420,-93"/>
<text text-anchor="middle" x="373.5" y="-81" font-family="Helvetica,sans-Serif" font-size="10.00">Private Properties</text>
</a>
</g>
</g>
<!-- Node1&#45;&gt;Node5 -->
<g id="edge4" class="edge">
<title>Node1&#45;&gt;Node5</title>
<path fill="none" stroke="black" d="M271.8,-58.49C291.95,-63.5 315.02,-69.23 334,-73.94"/>
<polygon fill="black" stroke="black" points="272.42,-55.04 261.87,-56.03 270.73,-61.84 272.42,-55.04"/>
</g>
<!-- Node3 -->
<g id="node3" class="node">
<title>Node3</title>
<g id="a_node3"><a xlink:href="a00465.html" target="_top" xlink:title="Public functions of the second library layer.">
<polygon fill="white" stroke="black" points="418,-56 329,-56 329,-37 418,-37 418,-56"/>
<text text-anchor="middle" x="373.5" y="-44" font-family="Helvetica,sans-Serif" font-size="10.00">Public Functions</text>
</a>
</g>
</g>
<!-- Node1&#45;&gt;Node3 -->
<g id="edge2" class="edge">
<title>Node1&#45;&gt;Node3</title>
<path fill="none" stroke="black" d="M301.24,-46.5C310.66,-46.5 320,-46.5 328.68,-46.5"/>
<polygon fill="black" stroke="black" points="301.02,-43 291.02,-46.5 301.02,-50 301.02,-43"/>
</g>
<!-- Node4 -->
<g id="node5" class="node">
<title>Node4</title>
<g id="a_node5"><a xlink:href="a00466.html" target="_top" xlink:title="Public properties of the second library layer.">
<polygon fill="white" stroke="black" points="419,-19 328,-19 328,0 419,0 419,-19"/>
<text text-anchor="middle" x="373.5" y="-7" font-family="Helvetica,sans-Serif" font-size="10.00">Public Properties</text>
</a>
</g>
</g>
<!-- Node1&#45;&gt;Node4 -->
<g id="edge3" class="edge">
<title>Node1&#45;&gt;Node4</title>
<path fill="none" stroke="black" d="M271.8,-34.51C291.95,-29.5 315.02,-23.77 334,-19.06"/>
<polygon fill="black" stroke="black" points="270.73,-31.16 261.87,-36.97 272.42,-37.96 270.73,-31.16"/>
</g>
<!-- Node2 -->
<g id="node4" class="node">
<title>Node2</title>
<g id="a_node4"><a xlink:href="a00463.html" target="_top" xlink:title=" ">
<polygon fill="white" stroke="black" points="118,-56 0,-56 0,-37 118,-37 118,-56"/>
<text text-anchor="middle" x="59" y="-44" font-family="Helvetica,sans-Serif" font-size="10.00">Boost Converter Library</text>
</a>
</g>
</g>
<!-- Node2&#45;&gt;Node1 -->
<g id="edge1" class="edge">
<title>Node2&#45;&gt;Node1</title>
<path fill="none" stroke="black" d="M128.48,-46.5C136.91,-46.5 145.53,-46.5 153.95,-46.5"/>
<polygon fill="black" stroke="black" points="128.31,-43 118.31,-46.5 128.31,-50 128.31,-43"/>
</g>
</g>
</svg>
