<?xml version="1.0" encoding="UTF-8" standalone="no"?>
<!DOCTYPE svg PUBLIC "-//W3C//DTD SVG 1.1//EN"
 "http://www.w3.org/Graphics/SVG/1.1/DTD/svg11.dtd">
<!-- Generated by graphviz version 2.40.1 (0)
 -->
<!-- Title: Oscillator Module (OSC) Pages: 1 -->
<svg width="580pt" height="64pt"
 viewBox="0.00 0.00 580.00 64.00" xmlns="http://www.w3.org/2000/svg" xmlns:xlink="http://www.w3.org/1999/xlink">
<g id="graph0" class="graph" transform="scale(1 1) rotate(0) translate(4 60)">
<title>Oscillator Module (OSC)</title>
<polygon fill="#ffffff" stroke="transparent" points="-4,4 -4,-60 576,-60 576,4 -4,4"/>
<!-- Node0 -->
<g id="node1" class="node">
<title>Node0</title>
<g id="a_node1"><a xlink:title="Oscillator Module Special Function Register Abstraction Driver.">
<polygon fill="#bfbfbf" stroke="#000000" points="384,-37 195,-37 195,-18 384,-18 384,-37"/>
<text text-anchor="middle" x="289.5" y="-25" font-family="Helvetica,sans-Serif" font-size="10.00" fill="#000000">Oscillator Module (OSC)</text>
</a>
</g>
</g>
<!-- Node3 -->
<g id="node2" class="node">
<title>Node3</title>
<g id="a_node2"><a xlink:href="a00480.html" target="_top" xlink:title="Private properties of the OSC PRAL driver.">
<polygon fill="#ffffff" stroke="#000000" points="572,-56 420,-56 420,-37 572,-37 572,-56"/>
<text text-anchor="middle" x="496" y="-44" font-family="Helvetica,sans-Serif" font-size="10.00" fill="#000000">Private Properties</text>
</a>
</g>
</g>
<!-- Node0&#45;&gt;Node3 -->
<g id="edge3" class="edge">
<title>Node0&#45;&gt;Node3</title>
<path fill="none" stroke="#000000" d="M394.3297,-37.1454C402.8896,-37.9329 411.4349,-38.7192 419.7304,-39.4825"/>
<polygon fill="#000000" stroke="#000000" points="394.5674,-33.6525 384.2887,-36.2215 393.9259,-40.6231 394.5674,-33.6525"/>
</g>
<!-- Node2 -->
<g id="node4" class="node">
<title>Node2</title>
<g id="a_node4"><a xlink:href="a00472.html" target="_top" xlink:title="Public functions of the OSC PRAL driver.">
<polygon fill="#ffffff" stroke="#000000" points="564.5,-19 427.5,-19 427.5,0 564.5,0 564.5,-19"/>
<text text-anchor="middle" x="496" y="-7" font-family="Helvetica,sans-Serif" font-size="10.00" fill="#000000">Public Functions</text>
</a>
</g>
</g>
<!-- Node0&#45;&gt;Node2 -->
<g id="edge2" class="edge">
<title>Node0&#45;&gt;Node2</title>
<path fill="none" stroke="#000000" d="M394.5241,-18.3454C405.6772,-17.3732 416.8026,-16.4034 427.3797,-15.4814"/>
<polygon fill="#000000" stroke="#000000" points="393.947,-14.8823 384.2887,-19.2375 394.5549,-21.8559 393.947,-14.8823"/>
</g>
<!-- Node1 -->
<g id="node3" class="node">
<title>Node1</title>
<g id="a_node3"><a xlink:href="a00458.html" target="_top" xlink:title=" ">
<polygon fill="#ffffff" stroke="#000000" points="159,-48 0,-48 0,-7 159,-7 159,-48"/>
<text text-anchor="start" x="8" y="-36" font-family="Helvetica,sans-Serif" font-size="10.00" fill="#000000">Peripheral Register</text>
<text text-anchor="start" x="8" y="-25" font-family="Helvetica,sans-Serif" font-size="10.00" fill="#000000"> Abstraction Layer </text>
<text text-anchor="middle" x="79.5" y="-14" font-family="Helvetica,sans-Serif" font-size="10.00" fill="#000000">(PRAL) Library</text>
</a>
</g>
</g>
<!-- Node1&#45;&gt;Node0 -->
<g id="edge1" class="edge">
<title>Node1&#45;&gt;Node0</title>
<path fill="none" stroke="#000000" d="M169.3485,-27.5C177.7413,-27.5 186.2659,-27.5 194.7019,-27.5"/>
<polygon fill="#000000" stroke="#000000" points="169.1915,-24.0001 159.1914,-27.5 169.1914,-31.0001 169.1915,-24.0001"/>
</g>
</g>
</svg>
