<?xml version="1.0" encoding="UTF-8" standalone="no"?>
<!DOCTYPE svg PUBLIC "-//W3C//DTD SVG 1.1//EN"
 "http://www.w3.org/Graphics/SVG/1.1/DTD/svg11.dtd">
<!-- Generated by graphviz version 2.44.1 (20200629.0846)
 -->
<!-- Title: Boost Special Functions Pages: 1 -->
<svg width="382pt" height="64pt"
 viewBox="0.00 0.00 382.00 64.00" xmlns="http://www.w3.org/2000/svg" xmlns:xlink="http://www.w3.org/1999/xlink">
<g id="graph0" class="graph" transform="scale(1 1) rotate(0) translate(4 60)">
<title>Boost Special Functions</title>
<polygon fill="white" stroke="transparent" points="-4,4 -4,-60 378,-60 378,4 -4,4"/>
<!-- Node2 -->
<g id="node1" class="node">
<title>Node2</title>
<g id="a_node1"><a xlink:href="a00474.html" target="_top" xlink:title=" ">
<polygon fill="white" stroke="black" points="118,-42.5 0,-42.5 0,-12.5 118,-12.5 118,-42.5"/>
<text text-anchor="start" x="8" y="-30.5" font-family="Helvetica,sans-Serif" font-size="10.00">Boost Converter Library</text>
<text text-anchor="middle" x="59" y="-19.5" font-family="Helvetica,sans-Serif" font-size="10.00"> Modules</text>
</a>
</g>
</g>
<!-- Node1 -->
<g id="node3" class="node">
<title>Node1</title>
<g id="a_node3"><a xlink:title=" ">
<polygon fill="#bfbfbf" stroke="black" points="277,-37 154,-37 154,-18 277,-18 277,-37"/>
<text text-anchor="middle" x="215.5" y="-25" font-family="Helvetica,sans-Serif" font-size="10.00">Boost Special Functions</text>
</a>
</g>
</g>
<!-- Node2&#45;&gt;Node1 -->
<g id="edge1" class="edge">
<title>Node2&#45;&gt;Node1</title>
<path fill="none" stroke="black" d="M128.61,-27.5C137.06,-27.5 145.64,-27.5 153.95,-27.5"/>
<polygon fill="black" stroke="black" points="128.41,-24 118.41,-27.5 128.41,-31 128.41,-24"/>
</g>
<!-- Node4 -->
<g id="node2" class="node">
<title>Node4</title>
<g id="a_node2"><a xlink:href="a00483.html" target="_top" xlink:title="Public properties of the second library layer.">
<polygon fill="white" stroke="black" points="374,-56 313,-56 313,-37 374,-37 374,-56"/>
<text text-anchor="middle" x="343.5" y="-44" font-family="Helvetica,sans-Serif" font-size="10.00">Properties</text>
</a>
</g>
</g>
<!-- Node1&#45;&gt;Node4 -->
<g id="edge3" class="edge">
<title>Node1&#45;&gt;Node4</title>
<path fill="none" stroke="black" d="M287.39,-38.19C296.29,-39.53 304.98,-40.84 312.73,-42.01"/>
<polygon fill="black" stroke="black" points="287.7,-34.7 277.29,-36.67 286.65,-41.62 287.7,-34.7"/>
</g>
<!-- Node3 -->
<g id="node4" class="node">
<title>Node3</title>
<g id="a_node4"><a xlink:href="a00482.html" target="_top" xlink:title="Public functions of the second library layer.">
<polygon fill="white" stroke="black" points="373,-19 314,-19 314,0 373,0 373,-19"/>
<text text-anchor="middle" x="343.5" y="-7" font-family="Helvetica,sans-Serif" font-size="10.00">Functions</text>
</a>
</g>
</g>
<!-- Node1&#45;&gt;Node3 -->
<g id="edge2" class="edge">
<title>Node1&#45;&gt;Node3</title>
<path fill="none" stroke="black" d="M287.4,-17.37C296.68,-16.05 305.72,-14.75 313.71,-13.61"/>
<polygon fill="black" stroke="black" points="286.69,-13.94 277.29,-18.82 287.68,-20.87 286.69,-13.94"/>
</g>
</g>
</svg>
