<?xml version="1.0" encoding="UTF-8" standalone="no"?>
<!DOCTYPE svg PUBLIC "-//W3C//DTD SVG 1.1//EN"
 "http://www.w3.org/Graphics/SVG/1.1/DTD/svg11.dtd">
<!-- Generated by graphviz version 2.44.1 (20200629.0846)
 -->
<!-- Title: appPowerSupply_Start Pages: 1 -->
<svg width="582pt" height="66pt"
 viewBox="0.00 0.00 582.00 66.00" xmlns="http://www.w3.org/2000/svg" xmlns:xlink="http://www.w3.org/1999/xlink">
<g id="graph0" class="graph" transform="scale(1 1) rotate(0) translate(4 62)">
<title>appPowerSupply_Start</title>
<polygon fill="white" stroke="transparent" points="-4,4 -4,-62 578,-62 578,4 -4,4"/>
<!-- Node1 -->
<g id="node1" class="node">
<title>Node1</title>
<g id="a_node1"><a xlink:title="This function calls the boost converter device driver function starting the power supply.">
<polygon fill="#bfbfbf" stroke="black" points="0,-19.5 0,-38.5 116,-38.5 116,-19.5 0,-19.5"/>
<text text-anchor="middle" x="58" y="-26.5" font-family="Helvetica,sans-Serif" font-size="10.00">appPowerSupply_Start</text>
</a>
</g>
</g>
<!-- Node2 -->
<g id="node2" class="node">
<title>Node2</title>
<g id="a_node2"><a xlink:href="a00465.html#gaa47cd700d524e5c52eeadd4ecd2ed5ee" target="_top" xlink:title="This function starts the boost converter.">
<polygon fill="white" stroke="black" points="152,-14 152,-44 252,-44 252,-14 152,-14"/>
<text text-anchor="start" x="160" y="-32" font-family="Helvetica,sans-Serif" font-size="10.00">drv_BoostConverter</text>
<text text-anchor="middle" x="202" y="-21" font-family="Helvetica,sans-Serif" font-size="10.00">_Start</text>
</a>
</g>
</g>
<!-- Node1&#45;&gt;Node2 -->
<g id="edge1" class="edge">
<title>Node1&#45;&gt;Node2</title>
<path fill="none" stroke="midnightblue" d="M116.35,-29C124.67,-29 133.24,-29 141.6,-29"/>
<polygon fill="midnightblue" stroke="midnightblue" points="141.65,-32.5 151.65,-29 141.65,-25.5 141.65,-32.5"/>
</g>
<!-- Node3 -->
<g id="node3" class="node">
<title>Node3</title>
<g id="a_node3"><a xlink:href="a00488.html#ga904680160cbf8b8fe4d41f87b1a69e44" target="_top" xlink:title="This function enables the ADC module and starts the ADC cores analog inputs for the required input si...">
<polygon fill="white" stroke="black" points="290.5,-38.5 290.5,-57.5 377.5,-57.5 377.5,-38.5 290.5,-38.5"/>
<text text-anchor="middle" x="334" y="-45.5" font-family="Helvetica,sans-Serif" font-size="10.00">boostADC_Start</text>
</a>
</g>
</g>
<!-- Node2&#45;&gt;Node3 -->
<g id="edge2" class="edge">
<title>Node2&#45;&gt;Node3</title>
<path fill="none" stroke="midnightblue" d="M252.15,-36.18C261.34,-37.53 270.97,-38.93 280.26,-40.29"/>
<polygon fill="midnightblue" stroke="midnightblue" points="279.77,-43.76 290.17,-41.74 280.78,-36.83 279.77,-43.76"/>
</g>
<!-- Node4 -->
<g id="node4" class="node">
<title>Node4</title>
<g id="a_node4"><a xlink:href="a00488.html#ga538ef6022b1b46d667919a42ce88076b" target="_top" xlink:title="This function enables the boost PWM operation.">
<polygon fill="white" stroke="black" points="288,-0.5 288,-19.5 380,-19.5 380,-0.5 288,-0.5"/>
<text text-anchor="middle" x="334" y="-7.5" font-family="Helvetica,sans-Serif" font-size="10.00">boostPWM_Start</text>
</a>
</g>
</g>
<!-- Node2&#45;&gt;Node4 -->
<g id="edge3" class="edge">
<title>Node2&#45;&gt;Node4</title>
<path fill="none" stroke="midnightblue" d="M252.15,-21.82C260.43,-20.61 269.08,-19.34 277.5,-18.11"/>
<polygon fill="midnightblue" stroke="midnightblue" points="278.25,-21.54 287.64,-16.63 277.24,-14.61 278.25,-21.54"/>
</g>
<!-- Node5 -->
<g id="node5" class="node">
<title>Node5</title>
<g id="a_node5"><a xlink:href="a00369.html#ga55e525c7ac54a365ab6dad558ec17f0b" target="_top" xlink:title="Returns the PWM generator index.">
<polygon fill="white" stroke="black" points="416,-0.5 416,-19.5 574,-19.5 574,-0.5 416,-0.5"/>
<text text-anchor="middle" x="495" y="-7.5" font-family="Helvetica,sans-Serif" font-size="10.00">p33c_PwmGenerator_GetHandle</text>
</a>
</g>
</g>
<!-- Node4&#45;&gt;Node5 -->
<g id="edge4" class="edge">
<title>Node4&#45;&gt;Node5</title>
<path fill="none" stroke="midnightblue" d="M380.14,-10C388.28,-10 397.01,-10 405.89,-10"/>
<polygon fill="midnightblue" stroke="midnightblue" points="405.95,-13.5 415.95,-10 405.95,-6.5 405.95,-13.5"/>
</g>
</g>
</svg>
