<?xml version="1.0" encoding="UTF-8" standalone="no"?>
<!DOCTYPE svg PUBLIC "-//W3C//DTD SVG 1.1//EN"
 "http://www.w3.org/Graphics/SVG/1.1/DTD/svg11.dtd">
<!-- Generated by graphviz version 2.44.1 (20200629.0846)
 -->
<!-- Title: Properties Pages: 1 -->
<svg width="403pt" height="101pt"
 viewBox="0.00 0.00 403.00 101.00" xmlns="http://www.w3.org/2000/svg" xmlns:xlink="http://www.w3.org/1999/xlink">
<g id="graph0" class="graph" transform="scale(1 1) rotate(0) translate(4 97)">
<title>Properties</title>
<polygon fill="white" stroke="transparent" points="-4,4 -4,-97 399,-97 399,4 -4,4"/>
<!-- Node3 -->
<g id="node1" class="node">
<title>Node3</title>
<g id="a_node1"><a xlink:href="a00493.html" target="_top" xlink:title=" ">
<polygon fill="white" stroke="black" points="395,-93 281,-93 281,-74 395,-74 395,-93"/>
<text text-anchor="middle" x="338" y="-81" font-family="Helvetica,sans-Serif" font-size="10.00">Variables &amp; Constants</text>
</a>
</g>
</g>
<!-- Node1 -->
<g id="node2" class="node">
<title>Node1</title>
<g id="a_node2"><a xlink:title="Properties of the second library layer.">
<polygon fill="#bfbfbf" stroke="black" points="245,-56 184,-56 184,-37 245,-37 245,-56"/>
<text text-anchor="middle" x="214.5" y="-44" font-family="Helvetica,sans-Serif" font-size="10.00">Properties</text>
</a>
</g>
</g>
<!-- Node1&#45;&gt;Node3 -->
<g id="edge2" class="edge">
<title>Node1&#45;&gt;Node3</title>
<path fill="none" stroke="black" d="M255.04,-58.54C271.38,-63.52 290.07,-69.21 305.46,-73.9"/>
<polygon fill="black" stroke="black" points="255.81,-55.12 245.22,-55.55 253.77,-61.81 255.81,-55.12"/>
</g>
<!-- Node4 -->
<g id="node4" class="node">
<title>Node4</title>
<g id="a_node4"><a xlink:href="a00494.html" target="_top" xlink:title=" ">
<polygon fill="white" stroke="black" points="371,-56 305,-56 305,-37 371,-37 371,-56"/>
<text text-anchor="middle" x="338" y="-44" font-family="Helvetica,sans-Serif" font-size="10.00">Data Types</text>
</a>
</g>
</g>
<!-- Node1&#45;&gt;Node4 -->
<g id="edge3" class="edge">
<title>Node1&#45;&gt;Node4</title>
<path fill="none" stroke="black" d="M255.34,-46.5C271.31,-46.5 289.47,-46.5 304.6,-46.5"/>
<polygon fill="black" stroke="black" points="255.22,-43 245.22,-46.5 255.22,-50 255.22,-43"/>
</g>
<!-- Node5 -->
<g id="node5" class="node">
<title>Node5</title>
<g id="a_node5"><a xlink:href="a00495.html" target="_top" xlink:title=" ">
<polygon fill="white" stroke="black" points="389.5,-19 286.5,-19 286.5,0 389.5,0 389.5,-19"/>
<text text-anchor="middle" x="338" y="-7" font-family="Helvetica,sans-Serif" font-size="10.00">Defines and Macros</text>
</a>
</g>
</g>
<!-- Node1&#45;&gt;Node5 -->
<g id="edge4" class="edge">
<title>Node1&#45;&gt;Node5</title>
<path fill="none" stroke="black" d="M255.04,-34.46C271.38,-29.48 290.07,-23.79 305.46,-19.1"/>
<polygon fill="black" stroke="black" points="253.77,-31.19 245.22,-37.45 255.81,-37.88 253.77,-31.19"/>
</g>
<!-- Node2 -->
<g id="node3" class="node">
<title>Node2</title>
<g id="a_node3"><a xlink:href="a00490.html" target="_top" xlink:title=" ">
<polygon fill="white" stroke="black" points="148,-56 0,-56 0,-37 148,-37 148,-56"/>
<text text-anchor="middle" x="74" y="-44" font-family="Helvetica,sans-Serif" font-size="10.00">Boost Peripheral Configuration</text>
</a>
</g>
</g>
<!-- Node2&#45;&gt;Node1 -->
<g id="edge1" class="edge">
<title>Node2&#45;&gt;Node1</title>
<path fill="none" stroke="black" d="M158.56,-46.5C167.54,-46.5 176.19,-46.5 183.86,-46.5"/>
<polygon fill="black" stroke="black" points="158.31,-43 148.31,-46.5 158.31,-50 158.31,-43"/>
</g>
</g>
</svg>
