<?xml version="1.0" encoding="UTF-8" standalone="no"?>
<!DOCTYPE svg PUBLIC "-//W3C//DTD SVG 1.1//EN"
 "http://www.w3.org/Graphics/SVG/1.1/DTD/svg11.dtd">
<!-- Generated by graphviz version 2.40.1 (0)
 -->
<!-- Title: Capture Compare Module (SCCP/MCCP) Pages: 1 -->
<svg width="573pt" height="64pt"
 viewBox="0.00 0.00 573.00 64.00" xmlns="http://www.w3.org/2000/svg" xmlns:xlink="http://www.w3.org/1999/xlink">
<g id="graph0" class="graph" transform="scale(1 1) rotate(0) translate(4 60)">
<title>Capture Compare Module (SCCP/MCCP)</title>
<polygon fill="#ffffff" stroke="transparent" points="-4,4 -4,-60 569,-60 569,4 -4,4"/>
<!-- Node3 -->
<g id="node1" class="node">
<title>Node3</title>
<g id="a_node1"><a xlink:href="a00475.html" target="_top" xlink:title="Private properties of the SCCP/MCCP PRAL driver.">
<polygon fill="#ffffff" stroke="#000000" points="565,-56 413,-56 413,-37 565,-37 565,-56"/>
<text text-anchor="middle" x="489" y="-44" font-family="Helvetica,sans-Serif" font-size="10.00" fill="#000000">Private Properties</text>
</a>
</g>
</g>
<!-- Node0 -->
<g id="node2" class="node">
<title>Node0</title>
<g id="a_node2"><a xlink:title="Capture Compare Peripheral Module Special Function Register Abstraction Driver.">
<polygon fill="#bfbfbf" stroke="#000000" points="377,-42.5 195,-42.5 195,-12.5 377,-12.5 377,-42.5"/>
<text text-anchor="start" x="203" y="-30.5" font-family="Helvetica,sans-Serif" font-size="10.00" fill="#000000">Capture Compare Module</text>
<text text-anchor="middle" x="286" y="-19.5" font-family="Helvetica,sans-Serif" font-size="10.00" fill="#000000"> (SCCP/MCCP)</text>
</a>
</g>
</g>
<!-- Node0&#45;&gt;Node3 -->
<g id="edge3" class="edge">
<title>Node0&#45;&gt;Node3</title>
<path fill="none" stroke="#000000" d="M387.1889,-36.9709C395.7897,-37.7759 404.3934,-38.5812 412.7532,-39.3636"/>
<polygon fill="#000000" stroke="#000000" points="387.3912,-33.4746 377.1085,-36.0274 386.7388,-40.4441 387.3912,-33.4746"/>
</g>
<!-- Node2 -->
<g id="node3" class="node">
<title>Node2</title>
<g id="a_node3"><a xlink:href="a00467.html" target="_top" xlink:title="Public functions of the SCCP/MCCP PRAL driver.">
<polygon fill="#ffffff" stroke="#000000" points="557.5,-19 420.5,-19 420.5,0 557.5,0 557.5,-19"/>
<text text-anchor="middle" x="489" y="-7" font-family="Helvetica,sans-Serif" font-size="10.00" fill="#000000">Public Functions</text>
</a>
</g>
</g>
<!-- Node0&#45;&gt;Node2 -->
<g id="edge2" class="edge">
<title>Node0&#45;&gt;Node2</title>
<path fill="none" stroke="#000000" d="M387.3676,-18.5117C398.5563,-17.5196 409.7471,-16.5274 420.3962,-15.5831"/>
<polygon fill="#000000" stroke="#000000" points="386.7603,-15.0518 377.1085,-19.4214 387.3786,-22.0244 386.7603,-15.0518"/>
</g>
<!-- Node1 -->
<g id="node4" class="node">
<title>Node1</title>
<g id="a_node4"><a xlink:href="a00458.html" target="_top" xlink:title=" ">
<polygon fill="#ffffff" stroke="#000000" points="159,-48 0,-48 0,-7 159,-7 159,-48"/>
<text text-anchor="start" x="8" y="-36" font-family="Helvetica,sans-Serif" font-size="10.00" fill="#000000">Peripheral Register</text>
<text text-anchor="start" x="8" y="-25" font-family="Helvetica,sans-Serif" font-size="10.00" fill="#000000"> Abstraction Layer </text>
<text text-anchor="middle" x="79.5" y="-14" font-family="Helvetica,sans-Serif" font-size="10.00" fill="#000000">(PRAL) Library</text>
</a>
</g>
</g>
<!-- Node1&#45;&gt;Node0 -->
<g id="edge1" class="edge">
<title>Node1&#45;&gt;Node0</title>
<path fill="none" stroke="#000000" d="M169.2833,-27.5C177.7412,-27.5 186.3218,-27.5 194.7927,-27.5"/>
<polygon fill="#000000" stroke="#000000" points="169.0429,-24.0001 159.0429,-27.5 169.0429,-31.0001 169.0429,-24.0001"/>
</g>
</g>
</svg>
