<?xml version="1.0" encoding="UTF-8" standalone="no"?>
<!DOCTYPE svg PUBLIC "-//W3C//DTD SVG 1.1//EN"
 "http://www.w3.org/Graphics/SVG/1.1/DTD/svg11.dtd">
<!-- Generated by graphviz version 2.44.1 (20200629.0846)
 -->
<!-- Title: drv_BoostConverter_Initialize Pages: 1 -->
<svg width="666pt" height="295pt"
 viewBox="0.00 0.00 666.00 295.00" xmlns="http://www.w3.org/2000/svg" xmlns:xlink="http://www.w3.org/1999/xlink">
<g id="graph0" class="graph" transform="scale(1 1) rotate(0) translate(4 291)">
<title>drv_BoostConverter_Initialize</title>
<polygon fill="white" stroke="transparent" points="-4,4 -4,-291 662,-291 662,4 -4,4"/>
<!-- Node1 -->
<g id="node1" class="node">
<title>Node1</title>
<g id="a_node1"><a xlink:title="This function initializes all peripheral modules and their instances used by the power controller.">
<polygon fill="#bfbfbf" stroke="black" points="0,-186 0,-216 100,-216 100,-186 0,-186"/>
<text text-anchor="start" x="8" y="-204" font-family="Helvetica,sans-Serif" font-size="10.00">drv_BoostConverter</text>
<text text-anchor="middle" x="50" y="-193" font-family="Helvetica,sans-Serif" font-size="10.00">_Initialize</text>
</a>
</g>
</g>
<!-- Node2 -->
<g id="node2" class="node">
<title>Node2</title>
<g id="a_node2"><a xlink:href="a00491.html#ga85ae5f6b841cc22a5cb39e750abb67a3" target="_top" xlink:title="This function initializes the settings for the ADC channel.">
<polygon fill="white" stroke="black" points="138,-267.5 138,-286.5 275,-286.5 275,-267.5 138,-267.5"/>
<text text-anchor="middle" x="206.5" y="-274.5" font-family="Helvetica,sans-Serif" font-size="10.00">boostADC_ChannelInitialize</text>
</a>
</g>
</g>
<!-- Node1&#45;&gt;Node2 -->
<g id="edge1" class="edge">
<title>Node1&#45;&gt;Node2</title>
<path fill="none" stroke="midnightblue" d="M69.53,-216.02C86.08,-228.78 111.44,-246.77 136,-258 141.25,-260.4 146.86,-262.55 152.54,-264.47"/>
<polygon fill="midnightblue" stroke="midnightblue" points="151.51,-267.81 162.09,-267.47 153.6,-261.13 151.51,-267.81"/>
</g>
<!-- Node3 -->
<g id="node3" class="node">
<title>Node3</title>
<g id="a_node3"><a xlink:href="a00491.html#ga751421523389bc4548a4920ac1c85937" target="_top" xlink:title="This fucntion initializes the boost by resetting all its registers to default.">
<polygon fill="white" stroke="black" points="140,-229.5 140,-248.5 273,-248.5 273,-229.5 140,-229.5"/>
<text text-anchor="middle" x="206.5" y="-236.5" font-family="Helvetica,sans-Serif" font-size="10.00">boostADC_ModuleInitialize</text>
</a>
</g>
</g>
<!-- Node1&#45;&gt;Node3 -->
<g id="edge2" class="edge">
<title>Node1&#45;&gt;Node3</title>
<path fill="none" stroke="midnightblue" d="M100.31,-213.13C118.34,-217.56 138.72,-222.58 156.71,-227"/>
<polygon fill="midnightblue" stroke="midnightblue" points="155.88,-230.4 166.42,-229.39 157.55,-223.6 155.88,-230.4"/>
</g>
<!-- Node4 -->
<g id="node4" class="node">
<title>Node4</title>
<g id="a_node4"><a xlink:href="a00491.html#ga204b527b94398e138949cd166bcc24dc" target="_top" xlink:title="This function initializes the boost input pins.">
<polygon fill="white" stroke="black" points="154,-191.5 154,-210.5 259,-210.5 259,-191.5 154,-191.5"/>
<text text-anchor="middle" x="206.5" y="-198.5" font-family="Helvetica,sans-Serif" font-size="10.00">boostGPIO_Initialize</text>
</a>
</g>
</g>
<!-- Node1&#45;&gt;Node4 -->
<g id="edge3" class="edge">
<title>Node1&#45;&gt;Node4</title>
<path fill="none" stroke="midnightblue" d="M100.31,-201C114.1,-201 129.25,-201 143.67,-201"/>
<polygon fill="midnightblue" stroke="midnightblue" points="144,-204.5 154,-201 144,-197.5 144,-204.5"/>
</g>
<!-- Node8 -->
<g id="node8" class="node">
<title>Node8</title>
<g id="a_node8"><a xlink:href="a00491.html#ga76d61bc918bb955a0d2019a9469b2e25" target="_top" xlink:title="This function initializes the output pins for the PWM output and the default boost PWM settings.">
<polygon fill="white" stroke="black" points="136,-131.5 136,-150.5 277,-150.5 277,-131.5 136,-131.5"/>
<text text-anchor="middle" x="206.5" y="-138.5" font-family="Helvetica,sans-Serif" font-size="10.00">boostPWM_ChannelInitialize</text>
</a>
</g>
</g>
<!-- Node1&#45;&gt;Node8 -->
<g id="edge8" class="edge">
<title>Node1&#45;&gt;Node8</title>
<path fill="none" stroke="midnightblue" d="M89.99,-185.86C115.13,-176.1 147.5,-163.52 171.58,-154.17"/>
<polygon fill="midnightblue" stroke="midnightblue" points="172.96,-157.39 181.02,-150.51 170.43,-150.86 172.96,-157.39"/>
</g>
<!-- Node11 -->
<g id="node11" class="node">
<title>Node11</title>
<g id="a_node11"><a xlink:href="a00491.html#ga6b5da6f69a70380e159502fbd7199a10" target="_top" xlink:title="Initializes the boost PWM module by resetting its registers to default.">
<polygon fill="white" stroke="black" points="138,-38.5 138,-57.5 275,-57.5 275,-38.5 138,-38.5"/>
<text text-anchor="middle" x="206.5" y="-45.5" font-family="Helvetica,sans-Serif" font-size="10.00">boostPWM_ModuleInitialize</text>
</a>
</g>
</g>
<!-- Node1&#45;&gt;Node11 -->
<g id="edge12" class="edge">
<title>Node1&#45;&gt;Node11</title>
<path fill="none" stroke="midnightblue" d="M66.38,-185.77C95.39,-157.05 157.98,-95.06 188.32,-65.01"/>
<polygon fill="midnightblue" stroke="midnightblue" points="190.99,-67.29 195.63,-57.77 186.07,-62.32 190.99,-67.29"/>
</g>
<!-- Node5 -->
<g id="node5" class="node">
<title>Node5</title>
<g id="a_node5"><a xlink:href="a00491.html#ga0e291d0cb856167fd188be50090ef5ce" target="_top" xlink:title="This function clears the selected general purpose input/output pin.">
<polygon fill="white" stroke="black" points="346,-240.5 346,-259.5 438,-259.5 438,-240.5 346,-240.5"/>
<text text-anchor="middle" x="392" y="-247.5" font-family="Helvetica,sans-Serif" font-size="10.00">boostGPIO_Clear</text>
</a>
</g>
</g>
<!-- Node4&#45;&gt;Node5 -->
<g id="edge4" class="edge">
<title>Node4&#45;&gt;Node5</title>
<path fill="none" stroke="midnightblue" d="M243.27,-210.56C254.12,-213.52 266.07,-216.84 277,-220 293.07,-224.65 296.87,-226.57 313,-231 321.78,-233.41 331.17,-235.83 340.27,-238.09"/>
<polygon fill="midnightblue" stroke="midnightblue" points="339.45,-241.5 350,-240.48 341.12,-234.7 339.45,-241.5"/>
</g>
<!-- Node7 -->
<g id="node7" class="node">
<title>Node7</title>
<g id="a_node7"><a xlink:href="a00491.html#ga2968a8235de619bada4a5aa5f3073019" target="_top" xlink:title="This function sets the pin as input or output.">
<polygon fill="white" stroke="black" points="325,-202.5 325,-221.5 459,-221.5 459,-202.5 325,-202.5"/>
<text text-anchor="middle" x="392" y="-209.5" font-family="Helvetica,sans-Serif" font-size="10.00">boostGPIO_PrivateInitialize</text>
</a>
</g>
</g>
<!-- Node4&#45;&gt;Node7 -->
<g id="edge6" class="edge">
<title>Node4&#45;&gt;Node7</title>
<path fill="none" stroke="midnightblue" d="M259.1,-204.09C276.36,-205.13 295.97,-206.3 314.69,-207.43"/>
<polygon fill="midnightblue" stroke="midnightblue" points="314.5,-210.92 324.69,-208.02 314.91,-203.93 314.5,-210.92"/>
</g>
<!-- Node6 -->
<g id="node6" class="node">
<title>Node6</title>
<g id="a_node6"><a xlink:href="a00368.html#ga4d67af688d8f7f911d79107974e11e6b" target="_top" xlink:title="Gets pointer to GPIO Instance SFR set.">
<polygon fill="white" stroke="black" points="507,-202.5 507,-221.5 658,-221.5 658,-202.5 507,-202.5"/>
<text text-anchor="middle" x="582.5" y="-209.5" font-family="Helvetica,sans-Serif" font-size="10.00">p33c_GpioInstance_GetHandle</text>
</a>
</g>
</g>
<!-- Node5&#45;&gt;Node6 -->
<g id="edge5" class="edge">
<title>Node5&#45;&gt;Node6</title>
<path fill="none" stroke="midnightblue" d="M438.15,-240.9C463.95,-235.7 496.57,-229.12 524.17,-223.56"/>
<polygon fill="midnightblue" stroke="midnightblue" points="524.98,-226.97 534.09,-221.56 523.59,-220.1 524.98,-226.97"/>
</g>
<!-- Node7&#45;&gt;Node6 -->
<g id="edge7" class="edge">
<title>Node7&#45;&gt;Node6</title>
<path fill="none" stroke="midnightblue" d="M459.19,-212C471.33,-212 484.15,-212 496.74,-212"/>
<polygon fill="midnightblue" stroke="midnightblue" points="496.78,-215.5 506.78,-212 496.78,-208.5 496.78,-215.5"/>
</g>
<!-- Node8&#45;&gt;Node6 -->
<g id="edge9" class="edge">
<title>Node8&#45;&gt;Node6</title>
<path fill="none" stroke="midnightblue" d="M257.55,-150.5C325.89,-163.48 448.26,-186.71 521.46,-200.6"/>
<polygon fill="midnightblue" stroke="midnightblue" points="520.97,-204.07 531.45,-202.5 522.28,-197.19 520.97,-204.07"/>
</g>
<!-- Node9 -->
<g id="node9" class="node">
<title>Node9</title>
<g id="a_node9"><a xlink:href="a00372.html#gab66f225bac6b132d1418a4c808e3babb" target="_top" xlink:title="Disposes a given PWM generator by resetting all its registers to default.">
<polygon fill="white" stroke="black" points="322,-115 322,-145 462,-145 462,-115 322,-115"/>
<text text-anchor="start" x="330" y="-133" font-family="Helvetica,sans-Serif" font-size="10.00">p33c_PwmGenerator_Config</text>
<text text-anchor="middle" x="392" y="-122" font-family="Helvetica,sans-Serif" font-size="10.00">Write</text>
</a>
</g>
</g>
<!-- Node8&#45;&gt;Node9 -->
<g id="edge10" class="edge">
<title>Node8&#45;&gt;Node9</title>
<path fill="none" stroke="midnightblue" d="M277.14,-136.83C288.43,-136.15 300.19,-135.44 311.7,-134.75"/>
<polygon fill="midnightblue" stroke="midnightblue" points="311.94,-138.25 321.72,-134.15 311.52,-131.26 311.94,-138.25"/>
</g>
<!-- Node10 -->
<g id="node10" class="node">
<title>Node10</title>
<g id="a_node10"><a xlink:href="a00372.html#ga55e525c7ac54a365ab6dad558ec17f0b" target="_top" xlink:title="Returns the PWM generator index.">
<polygon fill="white" stroke="black" points="313,-76.5 313,-95.5 471,-95.5 471,-76.5 313,-76.5"/>
<text text-anchor="middle" x="392" y="-83.5" font-family="Helvetica,sans-Serif" font-size="10.00">p33c_PwmGenerator_GetHandle</text>
</a>
</g>
</g>
<!-- Node8&#45;&gt;Node10 -->
<g id="edge11" class="edge">
<title>Node8&#45;&gt;Node10</title>
<path fill="none" stroke="midnightblue" d="M234.66,-131.41C255.87,-124.07 286.15,-113.89 313,-106 322.26,-103.28 332.19,-100.57 341.77,-98.07"/>
<polygon fill="midnightblue" stroke="midnightblue" points="342.76,-101.43 351.57,-95.54 341.02,-94.65 342.76,-101.43"/>
</g>
<!-- Node12 -->
<g id="node12" class="node">
<title>Node12</title>
<g id="a_node12"><a xlink:href="a00372.html#ga8075fd40f867be8f42bb806622bd91bd" target="_top" xlink:title="Writes a user&#45;defined configuration to the PWM base module registers.">
<polygon fill="white" stroke="black" points="316,-38.5 316,-57.5 468,-57.5 468,-38.5 316,-38.5"/>
<text text-anchor="middle" x="392" y="-45.5" font-family="Helvetica,sans-Serif" font-size="10.00">p33c_PwmModule_ConfigWrite</text>
</a>
</g>
</g>
<!-- Node11&#45;&gt;Node12 -->
<g id="edge13" class="edge">
<title>Node11&#45;&gt;Node12</title>
<path fill="none" stroke="midnightblue" d="M275.05,-48C285.01,-48 295.38,-48 305.65,-48"/>
<polygon fill="midnightblue" stroke="midnightblue" points="305.86,-51.5 315.86,-48 305.86,-44.5 305.86,-51.5"/>
</g>
<!-- Node13 -->
<g id="node13" class="node">
<title>Node13</title>
<g id="a_node13"><a xlink:href="a00372.html#ga3ed5f08051a70f5cb426b8254119845f" target="_top" xlink:title="Gets pointer to PWM module SFR set.">
<polygon fill="white" stroke="black" points="318.5,-0.5 318.5,-19.5 465.5,-19.5 465.5,-0.5 318.5,-0.5"/>
<text text-anchor="middle" x="392" y="-7.5" font-family="Helvetica,sans-Serif" font-size="10.00">p33c_PwmModule_GetHandle</text>
</a>
</g>
</g>
<!-- Node11&#45;&gt;Node13 -->
<g id="edge14" class="edge">
<title>Node11&#45;&gt;Node13</title>
<path fill="none" stroke="midnightblue" d="M253.8,-38.41C278.46,-33.31 308.96,-26.99 334.94,-21.61"/>
<polygon fill="midnightblue" stroke="midnightblue" points="335.95,-24.98 345.03,-19.52 334.53,-18.12 335.95,-24.98"/>
</g>
</g>
</svg>
