<?xml version="1.0" encoding="UTF-8" standalone="no"?>
<!DOCTYPE svg PUBLIC "-//W3C//DTD SVG 1.1//EN"
 "http://www.w3.org/Graphics/SVG/1.1/DTD/svg11.dtd">
<!-- Generated by graphviz version 2.40.1 (0)
 -->
<!-- Title: Digital&#45;To&#45;Analog Converter Module (DAC) Pages: 1 -->
<svg width="610pt" height="64pt"
 viewBox="0.00 0.00 610.00 64.00" xmlns="http://www.w3.org/2000/svg" xmlns:xlink="http://www.w3.org/1999/xlink">
<g id="graph0" class="graph" transform="scale(1 1) rotate(0) translate(4 60)">
<title>Digital&#45;To&#45;Analog Converter Module (DAC)</title>
<polygon fill="#ffffff" stroke="transparent" points="-4,4 -4,-60 606,-60 606,4 -4,4"/>
<!-- Node3 -->
<g id="node1" class="node">
<title>Node3</title>
<g id="a_node1"><a xlink:href="a00476.html" target="_top" xlink:title="Private properties of the SDAC PRAL driver.">
<polygon fill="#ffffff" stroke="#000000" points="602,-56 450,-56 450,-37 602,-37 602,-56"/>
<text text-anchor="middle" x="526" y="-44" font-family="Helvetica,sans-Serif" font-size="10.00" fill="#000000">Private Properties</text>
</a>
</g>
</g>
<!-- Node0 -->
<g id="node2" class="node">
<title>Node0</title>
<g id="a_node2"><a xlink:title="Digital&#45;To&#45;Analog Converter Peripheral Module Special Function Register Abstraction Driver.">
<polygon fill="#bfbfbf" stroke="#000000" points="414,-42.5 195,-42.5 195,-12.5 414,-12.5 414,-42.5"/>
<text text-anchor="start" x="203" y="-30.5" font-family="Helvetica,sans-Serif" font-size="10.00" fill="#000000">Digital&#45;To&#45;Analog Converter</text>
<text text-anchor="middle" x="304.5" y="-19.5" font-family="Helvetica,sans-Serif" font-size="10.00" fill="#000000"> Module (DAC)</text>
</a>
</g>
</g>
<!-- Node0&#45;&gt;Node3 -->
<g id="edge3" class="edge">
<title>Node0&#45;&gt;Node3</title>
<path fill="none" stroke="#000000" d="M424.4558,-37.7897C433.1084,-38.5319 441.6854,-39.2676 449.9738,-39.9786"/>
<polygon fill="#000000" stroke="#000000" points="424.5392,-34.284 414.2766,-36.9165 423.9409,-41.2584 424.5392,-34.284"/>
</g>
<!-- Node2 -->
<g id="node4" class="node">
<title>Node2</title>
<g id="a_node4"><a xlink:href="a00468.html" target="_top" xlink:title="Public functions of the DAC PRAL driver.">
<polygon fill="#ffffff" stroke="#000000" points="594.5,-19 457.5,-19 457.5,0 594.5,0 594.5,-19"/>
<text text-anchor="middle" x="526" y="-7" font-family="Helvetica,sans-Serif" font-size="10.00" fill="#000000">Public Functions</text>
</a>
</g>
</g>
<!-- Node0&#45;&gt;Node2 -->
<g id="edge2" class="edge">
<title>Node0&#45;&gt;Node2</title>
<path fill="none" stroke="#000000" d="M424.2499,-17.7686C435.5755,-16.8483 446.7748,-15.9382 457.3697,-15.0772"/>
<polygon fill="#000000" stroke="#000000" points="423.9602,-14.2805 414.2766,-18.5791 424.5273,-21.2575 423.9602,-14.2805"/>
</g>
<!-- Node1 -->
<g id="node3" class="node">
<title>Node1</title>
<g id="a_node3"><a xlink:href="a00458.html" target="_top" xlink:title=" ">
<polygon fill="#ffffff" stroke="#000000" points="159,-48 0,-48 0,-7 159,-7 159,-48"/>
<text text-anchor="start" x="8" y="-36" font-family="Helvetica,sans-Serif" font-size="10.00" fill="#000000">Peripheral Register</text>
<text text-anchor="start" x="8" y="-25" font-family="Helvetica,sans-Serif" font-size="10.00" fill="#000000"> Abstraction Layer </text>
<text text-anchor="middle" x="79.5" y="-14" font-family="Helvetica,sans-Serif" font-size="10.00" fill="#000000">(PRAL) Library</text>
</a>
</g>
</g>
<!-- Node1&#45;&gt;Node0 -->
<g id="edge1" class="edge">
<title>Node1&#45;&gt;Node0</title>
<path fill="none" stroke="#000000" d="M169.2322,-27.5C177.5851,-27.5 186.1127,-27.5 194.6204,-27.5"/>
<polygon fill="#000000" stroke="#000000" points="169.1433,-24.0001 159.1432,-27.5 169.1432,-31.0001 169.1433,-24.0001"/>
</g>
</g>
</svg>
