<?xml version="1.0" encoding="UTF-8" standalone="no"?>
<!DOCTYPE svg PUBLIC "-//W3C//DTD SVG 1.1//EN"
 "http://www.w3.org/Graphics/SVG/1.1/DTD/svg11.dtd">
<!-- Generated by graphviz version 2.44.1 (20200629.0846)
 -->
<!-- Title: boostGPIO_Initialize Pages: 1 -->
<svg width="470pt" height="66pt"
 viewBox="0.00 0.00 470.00 66.00" xmlns="http://www.w3.org/2000/svg" xmlns:xlink="http://www.w3.org/1999/xlink">
<g id="graph0" class="graph" transform="scale(1 1) rotate(0) translate(4 62)">
<title>boostGPIO_Initialize</title>
<polygon fill="white" stroke="transparent" points="-4,4 -4,-62 466,-62 466,4 -4,4"/>
<!-- Node1 -->
<g id="node1" class="node">
<title>Node1</title>
<g id="a_node1"><a xlink:title="This function initializes the boost input pins.">
<polygon fill="#bfbfbf" stroke="black" points="0,-19.5 0,-38.5 105,-38.5 105,-19.5 0,-19.5"/>
<text text-anchor="middle" x="52.5" y="-26.5" font-family="Helvetica,sans-Serif" font-size="10.00">boostGPIO_Initialize</text>
</a>
</g>
</g>
<!-- Node2 -->
<g id="node2" class="node">
<title>Node2</title>
<g id="a_node2"><a xlink:href="a00491.html#ga0e291d0cb856167fd188be50090ef5ce" target="_top" xlink:title="This function clears the selected general purpose input/output pin.">
<polygon fill="white" stroke="black" points="162,-38.5 162,-57.5 254,-57.5 254,-38.5 162,-38.5"/>
<text text-anchor="middle" x="208" y="-45.5" font-family="Helvetica,sans-Serif" font-size="10.00">boostGPIO_Clear</text>
</a>
</g>
</g>
<!-- Node1&#45;&gt;Node2 -->
<g id="edge1" class="edge">
<title>Node1&#45;&gt;Node2</title>
<path fill="none" stroke="midnightblue" d="M105.04,-35.38C119.97,-37.23 136.34,-39.25 151.5,-41.13"/>
<polygon fill="midnightblue" stroke="midnightblue" points="151.42,-44.65 161.77,-42.4 152.28,-37.7 151.42,-44.65"/>
</g>
<!-- Node4 -->
<g id="node4" class="node">
<title>Node4</title>
<g id="a_node4"><a xlink:href="a00491.html#ga2968a8235de619bada4a5aa5f3073019" target="_top" xlink:title="This function sets the pin as input or output.">
<polygon fill="white" stroke="black" points="141,-0.5 141,-19.5 275,-19.5 275,-0.5 141,-0.5"/>
<text text-anchor="middle" x="208" y="-7.5" font-family="Helvetica,sans-Serif" font-size="10.00">boostGPIO_PrivateInitialize</text>
</a>
</g>
</g>
<!-- Node1&#45;&gt;Node4 -->
<g id="edge3" class="edge">
<title>Node1&#45;&gt;Node4</title>
<path fill="none" stroke="midnightblue" d="M105.04,-22.62C113.3,-21.6 122.01,-20.52 130.7,-19.44"/>
<polygon fill="midnightblue" stroke="midnightblue" points="131.38,-22.89 140.88,-18.18 130.52,-15.94 131.38,-22.89"/>
</g>
<!-- Node3 -->
<g id="node3" class="node">
<title>Node3</title>
<g id="a_node3"><a xlink:href="a00368.html#ga4d67af688d8f7f911d79107974e11e6b" target="_top" xlink:title="Gets pointer to GPIO Instance SFR set.">
<polygon fill="white" stroke="black" points="311,-19.5 311,-38.5 462,-38.5 462,-19.5 311,-19.5"/>
<text text-anchor="middle" x="386.5" y="-26.5" font-family="Helvetica,sans-Serif" font-size="10.00">p33c_GpioInstance_GetHandle</text>
</a>
</g>
</g>
<!-- Node2&#45;&gt;Node3 -->
<g id="edge2" class="edge">
<title>Node2&#45;&gt;Node3</title>
<path fill="none" stroke="midnightblue" d="M254.45,-43.11C268.53,-41.59 284.52,-39.87 300.38,-38.16"/>
<polygon fill="midnightblue" stroke="midnightblue" points="301.19,-41.6 310.76,-37.05 300.44,-34.64 301.19,-41.6"/>
</g>
<!-- Node4&#45;&gt;Node3 -->
<g id="edge4" class="edge">
<title>Node4&#45;&gt;Node3</title>
<path fill="none" stroke="midnightblue" d="M275.22,-17.13C283.59,-18.03 292.24,-18.96 300.84,-19.89"/>
<polygon fill="midnightblue" stroke="midnightblue" points="300.58,-23.38 310.9,-20.97 301.33,-16.42 300.58,-23.38"/>
</g>
</g>
</svg>
