<?xml version="1.0" encoding="UTF-8" standalone="no"?>
<!DOCTYPE svg PUBLIC "-//W3C//DTD SVG 1.1//EN"
 "http://www.w3.org/Graphics/SVG/1.1/DTD/svg11.dtd">
<!-- Generated by graphviz version 2.44.1 (20200629.0846)
 -->
<!-- Title: appPowerSupply_Initialize Pages: 1 -->
<svg width="1011pt" height="296pt"
 viewBox="0.00 0.00 1011.00 296.00" xmlns="http://www.w3.org/2000/svg" xmlns:xlink="http://www.w3.org/1999/xlink">
<g id="graph0" class="graph" transform="scale(1 1) rotate(0) translate(4 292)">
<title>appPowerSupply_Initialize</title>
<polygon fill="white" stroke="transparent" points="-4,4 -4,-292 1007,-292 1007,4 -4,4"/>
<!-- Node1 -->
<g id="node1" class="node">
<title>Node1</title>
<g id="a_node1"><a xlink:title="Calls the application layer power controller initialization.">
<polygon fill="#bfbfbf" stroke="black" points="0,-119.5 0,-138.5 130,-138.5 130,-119.5 0,-119.5"/>
<text text-anchor="middle" x="65" y="-126.5" font-family="Helvetica,sans-Serif" font-size="10.00">appPowerSupply_Initialize</text>
</a>
</g>
</g>
<!-- Node2 -->
<g id="node2" class="node">
<title>Node2</title>
<g id="a_node2"><a xlink:href="a00464.html#ga0b4cabdb02c8c9ea94ea1dfa39de3764" target="_top" xlink:title="This function initializes the control system feedback loop objects.">
<polygon fill="white" stroke="black" points="169.5,-188 169.5,-218 305.5,-218 305.5,-188 169.5,-188"/>
<text text-anchor="start" x="177.5" y="-206" font-family="Helvetica,sans-Serif" font-size="10.00">appPowerSupply_Controller</text>
<text text-anchor="middle" x="237.5" y="-195" font-family="Helvetica,sans-Serif" font-size="10.00">Initialize</text>
</a>
</g>
</g>
<!-- Node1&#45;&gt;Node2 -->
<g id="edge1" class="edge">
<title>Node1&#45;&gt;Node2</title>
<path fill="none" stroke="midnightblue" d="M84.14,-138.67C103.95,-149.05 136.77,-165.71 166,-178 171.09,-180.14 176.43,-182.26 181.8,-184.3"/>
<polygon fill="midnightblue" stroke="midnightblue" points="180.86,-187.69 191.45,-187.89 183.3,-181.13 180.86,-187.69"/>
</g>
<!-- Node7 -->
<g id="node7" class="node">
<title>Node7</title>
<g id="a_node7"><a xlink:href="a00464.html#gad0f6ff4894bf23722884c60bbcdcacd0" target="_top" xlink:title="This function initializes the boost converter device driver instance.">
<polygon fill="white" stroke="black" points="170,-139 170,-169 305,-169 305,-139 170,-139"/>
<text text-anchor="start" x="178" y="-157" font-family="Helvetica,sans-Serif" font-size="10.00">appPowerSupply_Converter</text>
<text text-anchor="middle" x="237.5" y="-146" font-family="Helvetica,sans-Serif" font-size="10.00">ObjectInitialize</text>
</a>
</g>
</g>
<!-- Node1&#45;&gt;Node7 -->
<g id="edge7" class="edge">
<title>Node1&#45;&gt;Node7</title>
<path fill="none" stroke="midnightblue" d="M130.46,-138.45C140.05,-139.86 150.01,-141.32 159.82,-142.76"/>
<polygon fill="midnightblue" stroke="midnightblue" points="159.56,-146.26 169.96,-144.24 160.58,-139.33 159.56,-146.26"/>
</g>
<!-- Node8 -->
<g id="node8" class="node">
<title>Node8</title>
<g id="a_node8"><a xlink:href="a00464.html#ga0b26acfec74d1804384b4ba1a3cffab4" target="_top" xlink:title="This function is used to load peripheral configuration templates from the power controller device dri...">
<polygon fill="white" stroke="black" points="166,-90 166,-120 309,-120 309,-90 166,-90"/>
<text text-anchor="start" x="174" y="-108" font-family="Helvetica,sans-Serif" font-size="10.00">appPowerSupply_Peripherals</text>
<text text-anchor="middle" x="237.5" y="-97" font-family="Helvetica,sans-Serif" font-size="10.00">Initialize</text>
</a>
</g>
</g>
<!-- Node1&#45;&gt;Node8 -->
<g id="edge8" class="edge">
<title>Node1&#45;&gt;Node8</title>
<path fill="none" stroke="midnightblue" d="M130.46,-119.93C138.8,-118.75 147.42,-117.54 155.97,-116.34"/>
<polygon fill="midnightblue" stroke="midnightblue" points="156.55,-119.79 165.96,-114.93 155.57,-112.86 156.55,-119.79"/>
</g>
<!-- Node22 -->
<g id="node22" class="node">
<title>Node22</title>
<g id="a_node22"><a xlink:href="a00468.html#gaa47cd700d524e5c52eeadd4ecd2ed5ee" target="_top" xlink:title="This function starts the boost converter.">
<polygon fill="white" stroke="black" points="187.5,-33 187.5,-63 287.5,-63 287.5,-33 187.5,-33"/>
<text text-anchor="start" x="195.5" y="-51" font-family="Helvetica,sans-Serif" font-size="10.00">drv_BoostConverter</text>
<text text-anchor="middle" x="237.5" y="-40" font-family="Helvetica,sans-Serif" font-size="10.00">_Start</text>
</a>
</g>
</g>
<!-- Node1&#45;&gt;Node22 -->
<g id="edge24" class="edge">
<title>Node1&#45;&gt;Node22</title>
<path fill="none" stroke="midnightblue" d="M85.09,-119.44C105.15,-109.44 137.67,-93.36 166,-80 174.84,-75.83 184.35,-71.44 193.43,-67.3"/>
<polygon fill="midnightblue" stroke="midnightblue" points="195.04,-70.42 202.7,-63.1 192.15,-64.05 195.04,-70.42"/>
</g>
<!-- Node3 -->
<g id="node3" class="node">
<title>Node3</title>
<g id="a_node3"><a xlink:href="a00503.html#ga62d45a18f3dd47fa691fbb463f90e051" target="_top" xlink:title="Initializes controller coefficient arrays and normalization factors.">
<polygon fill="white" stroke="black" points="353,-268.5 353,-287.5 437,-287.5 437,-268.5 353,-268.5"/>
<text text-anchor="middle" x="395" y="-275.5" font-family="Helvetica,sans-Serif" font-size="10.00">v_loop_Initialize</text>
</a>
</g>
</g>
<!-- Node2&#45;&gt;Node3 -->
<g id="edge2" class="edge">
<title>Node2&#45;&gt;Node3</title>
<path fill="none" stroke="midnightblue" d="M265.22,-218.14C286.5,-229.93 317.24,-246.37 345,-259 349.23,-260.92 353.71,-262.83 358.17,-264.66"/>
<polygon fill="midnightblue" stroke="midnightblue" points="357.25,-268.05 367.83,-268.49 359.83,-261.55 357.25,-268.05"/>
</g>
<!-- Node4 -->
<g id="node4" class="node">
<title>Node4</title>
<g id="a_node4"><a xlink:href="a00503.html#gabb35e824b8586b680f54d59975ada3c7" target="_top" xlink:title="Prototype of the Assembly routine &#39;_v_loop_Reset&#39; clearing the NPNZ16b controller output and error hi...">
<polygon fill="white" stroke="black" points="514.5,-263.5 514.5,-282.5 588.5,-282.5 588.5,-263.5 514.5,-263.5"/>
<text text-anchor="middle" x="551.5" y="-270.5" font-family="Helvetica,sans-Serif" font-size="10.00">v_loop_Reset</text>
</a>
</g>
</g>
<!-- Node2&#45;&gt;Node4 -->
<g id="edge5" class="edge">
<title>Node2&#45;&gt;Node4</title>
<path fill="none" stroke="midnightblue" d="M305.32,-188C356.53,-178.06 422.17,-169.16 445,-183 474.58,-200.93 454.36,-229.94 481,-252 487.84,-257.67 496.18,-261.8 504.68,-264.83"/>
<polygon fill="midnightblue" stroke="midnightblue" points="503.68,-268.18 514.27,-267.79 505.75,-261.49 503.68,-268.18"/>
</g>
<!-- Node5 -->
<g id="node5" class="node">
<title>Node5</title>
<g id="a_node5"><a xlink:href="a00503.html#ga3cdf7d86ab440015768706f04bd588e9" target="_top" xlink:title="Prototype of the Assembly routine &#39;_v_loop_Precharge&#39; loading user&#45;defined values into the NPNZ16b co...">
<polygon fill="white" stroke="black" points="348.5,-230.5 348.5,-249.5 441.5,-249.5 441.5,-230.5 348.5,-230.5"/>
<text text-anchor="middle" x="395" y="-237.5" font-family="Helvetica,sans-Serif" font-size="10.00">v_loop_Precharge</text>
</a>
</g>
</g>
<!-- Node2&#45;&gt;Node5 -->
<g id="edge4" class="edge">
<title>Node2&#45;&gt;Node5</title>
<path fill="none" stroke="midnightblue" d="M301.75,-218.05C315.82,-221.4 330.55,-224.9 344,-228.1"/>
<polygon fill="midnightblue" stroke="midnightblue" points="343.47,-231.57 354.01,-230.48 345.09,-224.76 343.47,-231.57"/>
</g>
<!-- Node6 -->
<g id="node6" class="node">
<title>Node6</title>
<g id="a_node6"><a xlink:href="a00503.html#gab8180f1cb973d694be5caffaec3ce940" target="_top" xlink:title="Prototype of the Assembly feedback control loop routine helping to call the v_loop controller from C&#45;...">
<polygon fill="white" stroke="black" points="355,-192.5 355,-211.5 435,-211.5 435,-192.5 355,-192.5"/>
<text text-anchor="middle" x="395" y="-199.5" font-family="Helvetica,sans-Serif" font-size="10.00">v_loop_Update</text>
</a>
</g>
</g>
<!-- Node2&#45;&gt;Node6 -->
<g id="edge6" class="edge">
<title>Node2&#45;&gt;Node6</title>
<path fill="none" stroke="midnightblue" d="M305.8,-202.57C318.88,-202.48 332.37,-202.4 344.73,-202.32"/>
<polygon fill="midnightblue" stroke="midnightblue" points="344.85,-205.82 354.83,-202.25 344.8,-198.82 344.85,-205.82"/>
</g>
<!-- Node3&#45;&gt;Node4 -->
<g id="edge3" class="edge">
<title>Node3&#45;&gt;Node4</title>
<path fill="none" stroke="midnightblue" d="M437.4,-276.66C457.99,-275.99 482.94,-275.19 504.16,-274.5"/>
<polygon fill="midnightblue" stroke="midnightblue" points="504.36,-277.99 514.25,-274.17 504.14,-271 504.36,-277.99"/>
</g>
<!-- Node9 -->
<g id="node9" class="node">
<title>Node9</title>
<g id="a_node9"><a xlink:href="a00468.html#gafe5ee9f0daeb397241fe4c9d799ac5f3" target="_top" xlink:title="This function initializes all peripheral modules and their instances used by the power controller.">
<polygon fill="white" stroke="black" points="345,-98 345,-128 445,-128 445,-98 345,-98"/>
<text text-anchor="start" x="353" y="-116" font-family="Helvetica,sans-Serif" font-size="10.00">drv_BoostConverter</text>
<text text-anchor="middle" x="395" y="-105" font-family="Helvetica,sans-Serif" font-size="10.00">_Initialize</text>
</a>
</g>
</g>
<!-- Node8&#45;&gt;Node9 -->
<g id="edge9" class="edge">
<title>Node8&#45;&gt;Node9</title>
<path fill="none" stroke="midnightblue" d="M309.42,-108.65C317.97,-109.09 326.62,-109.53 334.97,-109.96"/>
<polygon fill="midnightblue" stroke="midnightblue" points="334.8,-113.46 344.97,-110.48 335.16,-106.47 334.8,-113.46"/>
</g>
<!-- Node10 -->
<g id="node10" class="node">
<title>Node10</title>
<g id="a_node10"><a xlink:href="a00491.html#ga85ae5f6b841cc22a5cb39e750abb67a3" target="_top" xlink:title="This function initializes the settings for the ADC channel.">
<polygon fill="white" stroke="black" points="483,-135.5 483,-154.5 620,-154.5 620,-135.5 483,-135.5"/>
<text text-anchor="middle" x="551.5" y="-142.5" font-family="Helvetica,sans-Serif" font-size="10.00">boostADC_ChannelInitialize</text>
</a>
</g>
</g>
<!-- Node9&#45;&gt;Node10 -->
<g id="edge10" class="edge">
<title>Node9&#45;&gt;Node10</title>
<path fill="none" stroke="midnightblue" d="M445.31,-123.21C461.03,-126.47 478.54,-130.1 494.69,-133.44"/>
<polygon fill="midnightblue" stroke="midnightblue" points="494.04,-136.88 504.54,-135.48 495.46,-130.03 494.04,-136.88"/>
</g>
<!-- Node11 -->
<g id="node11" class="node">
<title>Node11</title>
<g id="a_node11"><a xlink:href="a00491.html#ga751421523389bc4548a4920ac1c85937" target="_top" xlink:title="This fucntion initializes the boost by resetting all its registers to default.">
<polygon fill="white" stroke="black" points="485,-97.5 485,-116.5 618,-116.5 618,-97.5 485,-97.5"/>
<text text-anchor="middle" x="551.5" y="-104.5" font-family="Helvetica,sans-Serif" font-size="10.00">boostADC_ModuleInitialize</text>
</a>
</g>
</g>
<!-- Node9&#45;&gt;Node11 -->
<g id="edge11" class="edge">
<title>Node9&#45;&gt;Node11</title>
<path fill="none" stroke="midnightblue" d="M445.31,-111.09C454.62,-110.72 464.55,-110.34 474.46,-109.95"/>
<polygon fill="midnightblue" stroke="midnightblue" points="474.89,-113.44 484.74,-109.55 474.61,-106.44 474.89,-113.44"/>
</g>
<!-- Node12 -->
<g id="node12" class="node">
<title>Node12</title>
<g id="a_node12"><a xlink:href="a00491.html#ga204b527b94398e138949cd166bcc24dc" target="_top" xlink:title="This function initializes the boost input pins.">
<polygon fill="white" stroke="black" points="499,-173.5 499,-192.5 604,-192.5 604,-173.5 499,-173.5"/>
<text text-anchor="middle" x="551.5" y="-180.5" font-family="Helvetica,sans-Serif" font-size="10.00">boostGPIO_Initialize</text>
</a>
</g>
</g>
<!-- Node9&#45;&gt;Node12 -->
<g id="edge12" class="edge">
<title>Node9&#45;&gt;Node12</title>
<path fill="none" stroke="midnightblue" d="M417.49,-128.15C434.16,-139.35 458.21,-154.27 481,-164 486.53,-166.36 492.43,-168.5 498.37,-170.43"/>
<polygon fill="midnightblue" stroke="midnightblue" points="497.75,-173.9 508.34,-173.46 499.79,-167.2 497.75,-173.9"/>
</g>
<!-- Node16 -->
<g id="node16" class="node">
<title>Node16</title>
<g id="a_node16"><a xlink:href="a00491.html#ga76d61bc918bb955a0d2019a9469b2e25" target="_top" xlink:title="This function initializes the output pins for the PWM output and the default boost PWM settings.">
<polygon fill="white" stroke="black" points="481,-59.5 481,-78.5 622,-78.5 622,-59.5 481,-59.5"/>
<text text-anchor="middle" x="551.5" y="-66.5" font-family="Helvetica,sans-Serif" font-size="10.00">boostPWM_ChannelInitialize</text>
</a>
</g>
</g>
<!-- Node9&#45;&gt;Node16 -->
<g id="edge17" class="edge">
<title>Node9&#45;&gt;Node16</title>
<path fill="none" stroke="midnightblue" d="M445.39,-98.3C457.06,-94.87 469.46,-91.27 481,-88 488.87,-85.77 497.26,-83.43 505.38,-81.2"/>
<polygon fill="midnightblue" stroke="midnightblue" points="506.39,-84.55 515.11,-78.53 504.54,-77.8 506.39,-84.55"/>
</g>
<!-- Node19 -->
<g id="node19" class="node">
<title>Node19</title>
<g id="a_node19"><a xlink:href="a00491.html#ga6b5da6f69a70380e159502fbd7199a10" target="_top" xlink:title="Initializes the boost PWM module by resetting its registers to default.">
<polygon fill="white" stroke="black" points="483,-223.5 483,-242.5 620,-242.5 620,-223.5 483,-223.5"/>
<text text-anchor="middle" x="551.5" y="-230.5" font-family="Helvetica,sans-Serif" font-size="10.00">boostPWM_ModuleInitialize</text>
</a>
</g>
</g>
<!-- Node9&#45;&gt;Node19 -->
<g id="edge21" class="edge">
<title>Node9&#45;&gt;Node19</title>
<path fill="none" stroke="midnightblue" d="M419.19,-128.18C427.8,-134.39 437.32,-142 445,-150 464.46,-170.28 459.36,-184.06 481,-202 489.64,-209.17 500.21,-214.99 510.46,-219.58"/>
<polygon fill="midnightblue" stroke="midnightblue" points="509.16,-222.82 519.73,-223.44 511.85,-216.36 509.16,-222.82"/>
</g>
<!-- Node13 -->
<g id="node13" class="node">
<title>Node13</title>
<g id="a_node13"><a xlink:href="a00491.html#ga0e291d0cb856167fd188be50090ef5ce" target="_top" xlink:title="This function clears the selected general purpose input/output pin.">
<polygon fill="white" stroke="black" points="691,-147.5 691,-166.5 783,-166.5 783,-147.5 691,-147.5"/>
<text text-anchor="middle" x="737" y="-154.5" font-family="Helvetica,sans-Serif" font-size="10.00">boostGPIO_Clear</text>
</a>
</g>
</g>
<!-- Node12&#45;&gt;Node13 -->
<g id="edge13" class="edge">
<title>Node12&#45;&gt;Node13</title>
<path fill="none" stroke="midnightblue" d="M604.1,-175.69C627.94,-172.31 656.28,-168.3 680.57,-164.85"/>
<polygon fill="midnightblue" stroke="midnightblue" points="681.3,-168.29 690.71,-163.42 680.32,-161.35 681.3,-168.29"/>
</g>
<!-- Node15 -->
<g id="node15" class="node">
<title>Node15</title>
<g id="a_node15"><a xlink:href="a00491.html#ga2968a8235de619bada4a5aa5f3073019" target="_top" xlink:title="This function sets the pin as input or output.">
<polygon fill="white" stroke="black" points="670,-185.5 670,-204.5 804,-204.5 804,-185.5 670,-185.5"/>
<text text-anchor="middle" x="737" y="-192.5" font-family="Helvetica,sans-Serif" font-size="10.00">boostGPIO_PrivateInitialize</text>
</a>
</g>
</g>
<!-- Node12&#45;&gt;Node15 -->
<g id="edge15" class="edge">
<title>Node12&#45;&gt;Node15</title>
<path fill="none" stroke="midnightblue" d="M604.1,-186.37C621.36,-187.5 640.97,-188.79 659.69,-190.01"/>
<polygon fill="midnightblue" stroke="midnightblue" points="659.48,-193.5 669.69,-190.66 659.94,-186.52 659.48,-193.5"/>
</g>
<!-- Node14 -->
<g id="node14" class="node">
<title>Node14</title>
<g id="a_node14"><a xlink:href="a00368.html#ga4d67af688d8f7f911d79107974e11e6b" target="_top" xlink:title="Gets pointer to GPIO Instance SFR set.">
<polygon fill="white" stroke="black" points="852,-147.5 852,-166.5 1003,-166.5 1003,-147.5 852,-147.5"/>
<text text-anchor="middle" x="927.5" y="-154.5" font-family="Helvetica,sans-Serif" font-size="10.00">p33c_GpioInstance_GetHandle</text>
</a>
</g>
</g>
<!-- Node13&#45;&gt;Node14 -->
<g id="edge14" class="edge">
<title>Node13&#45;&gt;Node14</title>
<path fill="none" stroke="midnightblue" d="M783.15,-157C800.76,-157 821.54,-157 841.74,-157"/>
<polygon fill="midnightblue" stroke="midnightblue" points="841.91,-160.5 851.91,-157 841.91,-153.5 841.91,-160.5"/>
</g>
<!-- Node15&#45;&gt;Node14 -->
<g id="edge16" class="edge">
<title>Node15&#45;&gt;Node14</title>
<path fill="none" stroke="midnightblue" d="M785.57,-185.41C811,-180.28 842.5,-173.93 869.27,-168.54"/>
<polygon fill="midnightblue" stroke="midnightblue" points="870.16,-171.93 879.28,-166.52 868.78,-165.07 870.16,-171.93"/>
</g>
<!-- Node16&#45;&gt;Node14 -->
<g id="edge18" class="edge">
<title>Node16&#45;&gt;Node14</title>
<path fill="none" stroke="midnightblue" d="M622.21,-65C676.37,-64.02 752.66,-67.35 816,-88 851.15,-99.46 886.47,-124.42 907.41,-140.97"/>
<polygon fill="midnightblue" stroke="midnightblue" points="905.23,-143.7 915.2,-147.27 909.63,-138.26 905.23,-143.7"/>
</g>
<!-- Node17 -->
<g id="node17" class="node">
<title>Node17</title>
<g id="a_node17"><a xlink:href="a00372.html#gab66f225bac6b132d1418a4c808e3babb" target="_top" xlink:title="Disposes a given PWM generator by resetting all its registers to default.">
<polygon fill="white" stroke="black" points="667,-98 667,-128 807,-128 807,-98 667,-98"/>
<text text-anchor="start" x="675" y="-116" font-family="Helvetica,sans-Serif" font-size="10.00">p33c_PwmGenerator_Config</text>
<text text-anchor="middle" x="737" y="-105" font-family="Helvetica,sans-Serif" font-size="10.00">Write</text>
</a>
</g>
</g>
<!-- Node16&#45;&gt;Node17 -->
<g id="edge19" class="edge">
<title>Node16&#45;&gt;Node17</title>
<path fill="none" stroke="midnightblue" d="M592.32,-78.55C613.07,-83.52 639.11,-89.77 663.3,-95.57"/>
<polygon fill="midnightblue" stroke="midnightblue" points="662.63,-99.01 673.17,-97.93 664.26,-92.2 662.63,-99.01"/>
</g>
<!-- Node18 -->
<g id="node18" class="node">
<title>Node18</title>
<g id="a_node18"><a xlink:href="a00372.html#ga55e525c7ac54a365ab6dad558ec17f0b" target="_top" xlink:title="Returns the PWM generator index.">
<polygon fill="white" stroke="black" points="658,-21.5 658,-40.5 816,-40.5 816,-21.5 658,-21.5"/>
<text text-anchor="middle" x="737" y="-28.5" font-family="Helvetica,sans-Serif" font-size="10.00">p33c_PwmGenerator_GetHandle</text>
</a>
</g>
</g>
<!-- Node16&#45;&gt;Node18 -->
<g id="edge20" class="edge">
<title>Node16&#45;&gt;Node18</title>
<path fill="none" stroke="midnightblue" d="M598.8,-59.41C623.46,-54.31 653.96,-47.99 679.94,-42.61"/>
<polygon fill="midnightblue" stroke="midnightblue" points="680.95,-45.98 690.03,-40.52 679.53,-39.12 680.95,-45.98"/>
</g>
<!-- Node20 -->
<g id="node20" class="node">
<title>Node20</title>
<g id="a_node20"><a xlink:href="a00372.html#ga8075fd40f867be8f42bb806622bd91bd" target="_top" xlink:title="Writes a user&#45;defined configuration to the PWM base module registers.">
<polygon fill="white" stroke="black" points="661,-223.5 661,-242.5 813,-242.5 813,-223.5 661,-223.5"/>
<text text-anchor="middle" x="737" y="-230.5" font-family="Helvetica,sans-Serif" font-size="10.00">p33c_PwmModule_ConfigWrite</text>
</a>
</g>
</g>
<!-- Node19&#45;&gt;Node20 -->
<g id="edge22" class="edge">
<title>Node19&#45;&gt;Node20</title>
<path fill="none" stroke="midnightblue" d="M620.05,-233C630.01,-233 640.38,-233 650.65,-233"/>
<polygon fill="midnightblue" stroke="midnightblue" points="650.86,-236.5 660.86,-233 650.86,-229.5 650.86,-236.5"/>
</g>
<!-- Node21 -->
<g id="node21" class="node">
<title>Node21</title>
<g id="a_node21"><a xlink:href="a00372.html#ga3ed5f08051a70f5cb426b8254119845f" target="_top" xlink:title="Gets pointer to PWM module SFR set.">
<polygon fill="white" stroke="black" points="663.5,-261.5 663.5,-280.5 810.5,-280.5 810.5,-261.5 663.5,-261.5"/>
<text text-anchor="middle" x="737" y="-268.5" font-family="Helvetica,sans-Serif" font-size="10.00">p33c_PwmModule_GetHandle</text>
</a>
</g>
</g>
<!-- Node19&#45;&gt;Node21 -->
<g id="edge23" class="edge">
<title>Node19&#45;&gt;Node21</title>
<path fill="none" stroke="midnightblue" d="M598.8,-242.59C623.46,-247.69 653.96,-254.01 679.94,-259.39"/>
<polygon fill="midnightblue" stroke="midnightblue" points="679.53,-262.88 690.03,-261.48 680.95,-256.02 679.53,-262.88"/>
</g>
<!-- Node23 -->
<g id="node23" class="node">
<title>Node23</title>
<g id="a_node23"><a xlink:href="a00491.html#ga904680160cbf8b8fe4d41f87b1a69e44" target="_top" xlink:title="This function enables the ADC module and starts the ADC cores analog inputs for the required input si...">
<polygon fill="white" stroke="black" points="351.5,-0.5 351.5,-19.5 438.5,-19.5 438.5,-0.5 351.5,-0.5"/>
<text text-anchor="middle" x="395" y="-7.5" font-family="Helvetica,sans-Serif" font-size="10.00">boostADC_Start</text>
</a>
</g>
</g>
<!-- Node22&#45;&gt;Node23 -->
<g id="edge25" class="edge">
<title>Node22&#45;&gt;Node23</title>
<path fill="none" stroke="midnightblue" d="M287.7,-35.98C306.02,-31.5 326.79,-26.42 345.09,-21.95"/>
<polygon fill="midnightblue" stroke="midnightblue" points="346.08,-25.31 354.96,-19.54 344.42,-18.51 346.08,-25.31"/>
</g>
<!-- Node24 -->
<g id="node24" class="node">
<title>Node24</title>
<g id="a_node24"><a xlink:href="a00491.html#ga538ef6022b1b46d667919a42ce88076b" target="_top" xlink:title="This function enables the boost PWM operation.">
<polygon fill="white" stroke="black" points="349,-38.5 349,-57.5 441,-57.5 441,-38.5 349,-38.5"/>
<text text-anchor="middle" x="395" y="-45.5" font-family="Helvetica,sans-Serif" font-size="10.00">boostPWM_Start</text>
</a>
</g>
</g>
<!-- Node22&#45;&gt;Node24 -->
<g id="edge26" class="edge">
<title>Node22&#45;&gt;Node24</title>
<path fill="none" stroke="midnightblue" d="M287.7,-48C303.91,-48 322.05,-48 338.68,-48"/>
<polygon fill="midnightblue" stroke="midnightblue" points="338.81,-51.5 348.81,-48 338.81,-44.5 338.81,-51.5"/>
</g>
<!-- Node24&#45;&gt;Node18 -->
<g id="edge27" class="edge">
<title>Node24&#45;&gt;Node18</title>
<path fill="none" stroke="midnightblue" d="M441.15,-45.74C493.64,-43.12 581.52,-38.72 647.72,-35.41"/>
<polygon fill="midnightblue" stroke="midnightblue" points="647.92,-38.91 657.73,-34.91 647.57,-31.92 647.92,-38.91"/>
</g>
</g>
</svg>
