<?xml version="1.0" encoding="UTF-8" standalone="no"?>
<!DOCTYPE svg PUBLIC "-//W3C//DTD SVG 1.1//EN"
 "http://www.w3.org/Graphics/SVG/1.1/DTD/svg11.dtd">
<!-- Generated by graphviz version 2.40.1 (0)
 -->
<!-- Title: Conversion Macros Pages: 1 -->
<svg width="542pt" height="27pt"
 viewBox="0.00 0.00 542.00 27.00" xmlns="http://www.w3.org/2000/svg" xmlns:xlink="http://www.w3.org/1999/xlink">
<g id="graph0" class="graph" transform="scale(1 1) rotate(0) translate(4 23)">
<title>Conversion Macros</title>
<polygon fill="#ffffff" stroke="transparent" points="-4,4 -4,-23 538,-23 538,4 -4,4"/>
<!-- Node1 -->
<g id="node1" class="node">
<title>Node1</title>
<g id="a_node1"><a xlink:href="a00496.html" target="_top" xlink:title="Declaration of fault object trip and recovery delays.">
<polygon fill="#ffffff" stroke="#000000" points="189,-19 0,-19 0,0 189,0 189,-19"/>
<text text-anchor="middle" x="94.5" y="-7" font-family="Helvetica,sans-Serif" font-size="10.00" fill="#000000">Fault Response Settings</text>
</a>
</g>
</g>
<!-- Node0 -->
<g id="node3" class="node">
<title>Node0</title>
<g id="a_node3"><a xlink:title="Conversion macros for user declarations of fault object trip and recovery delays.">
<polygon fill="#bfbfbf" stroke="#000000" points="369,-19 225,-19 225,0 369,0 369,-19"/>
<text text-anchor="middle" x="297" y="-7" font-family="Helvetica,sans-Serif" font-size="10.00" fill="#000000">Conversion Macros</text>
</a>
</g>
</g>
<!-- Node1&#45;&gt;Node0 -->
<g id="edge1" class="edge">
<title>Node1&#45;&gt;Node0</title>
<path fill="none" stroke="#000000" d="M199.3169,-9.5C207.9102,-9.5 216.4693,-9.5 224.746,-9.5"/>
<polygon fill="#000000" stroke="#000000" points="199.2282,-6.0001 189.2281,-9.5 199.2281,-13.0001 199.2282,-6.0001"/>
</g>
<!-- Node2 -->
<g id="node2" class="node">
<title>Node2</title>
<g id="a_node2"><a xlink:href="a00500.html" target="_top" xlink:title="Conversion macros for user declarations of fault object trip and recovery delays of the boost convert...">
<polygon fill="#ffffff" stroke="#000000" points="534,-19 405,-19 405,0 534,0 534,-19"/>
<text text-anchor="middle" x="469.5" y="-7" font-family="Helvetica,sans-Serif" font-size="10.00" fill="#000000">Boost Converter</text>
</a>
</g>
</g>
<!-- Node0&#45;&gt;Node2 -->
<g id="edge2" class="edge">
<title>Node0&#45;&gt;Node2</title>
<path fill="none" stroke="#000000" d="M379.1926,-9.5C387.7807,-9.5 396.4226,-9.5 404.7766,-9.5"/>
<polygon fill="#000000" stroke="#000000" points="379.1561,-6.0001 369.156,-9.5 379.156,-13.0001 379.1561,-6.0001"/>
</g>
</g>
</svg>
