<?xml version="1.0" encoding="UTF-8" standalone="no"?>
<!DOCTYPE svg PUBLIC "-//W3C//DTD SVG 1.1//EN"
 "http://www.w3.org/Graphics/SVG/1.1/DTD/svg11.dtd">
<!-- Generated by graphviz version 2.44.1 (20200629.0846)
 -->
<!-- Title: Boost Converter Library Pages: 1 -->
<svg width="439pt" height="76pt"
 viewBox="0.00 0.00 439.00 75.50" xmlns="http://www.w3.org/2000/svg" xmlns:xlink="http://www.w3.org/1999/xlink">
<g id="graph0" class="graph" transform="scale(1 1) rotate(0) translate(4 71.5)">
<title>Boost Converter Library</title>
<polygon fill="white" stroke="transparent" points="-4,4 -4,-71.5 435,-71.5 435,4 -4,4"/>
<!-- Node3 -->
<g id="node1" class="node">
<title>Node3</title>
<g id="a_node1"><a xlink:href="a00467.html" target="_top" xlink:title=" ">
<polygon fill="white" stroke="black" points="431,-67.5 294,-67.5 294,-48.5 431,-48.5 431,-67.5"/>
<text text-anchor="middle" x="362.5" y="-55.5" font-family="Helvetica,sans-Serif" font-size="10.00">Boost Converter Library API</text>
</a>
</g>
</g>
<!-- Node4 -->
<g id="node2" class="node">
<title>Node4</title>
<g id="a_node2"><a xlink:href="a00477.html" target="_top" xlink:title=" ">
<polygon fill="white" stroke="black" points="421.5,-30 303.5,-30 303.5,0 421.5,0 421.5,-30"/>
<text text-anchor="start" x="311.5" y="-18" font-family="Helvetica,sans-Serif" font-size="10.00">Boost Converter Library</text>
<text text-anchor="middle" x="362.5" y="-7" font-family="Helvetica,sans-Serif" font-size="10.00"> Modules</text>
</a>
</g>
</g>
<!-- Node1 -->
<g id="node3" class="node">
<title>Node1</title>
<g id="a_node3"><a xlink:title=" ">
<polygon fill="#bfbfbf" stroke="black" points="258,-45.5 140,-45.5 140,-26.5 258,-26.5 258,-45.5"/>
<text text-anchor="middle" x="199" y="-33.5" font-family="Helvetica,sans-Serif" font-size="10.00">Boost Converter Library</text>
</a>
</g>
</g>
<!-- Node1&#45;&gt;Node3 -->
<g id="edge2" class="edge">
<title>Node1&#45;&gt;Node3</title>
<path fill="none" stroke="black" d="M268.48,-45.33C276.91,-46.48 285.53,-47.65 293.95,-48.8"/>
<polygon fill="black" stroke="black" points="268.69,-41.82 258.31,-43.94 267.74,-48.76 268.69,-41.82"/>
</g>
<!-- Node1&#45;&gt;Node4 -->
<g id="edge3" class="edge">
<title>Node1&#45;&gt;Node4</title>
<path fill="none" stroke="black" d="M268.39,-27.11C280,-25.6 291.96,-24.04 303.28,-22.57"/>
<polygon fill="black" stroke="black" points="267.77,-23.66 258.31,-28.42 268.67,-30.6 267.77,-23.66"/>
</g>
<!-- Node2 -->
<g id="node4" class="node">
<title>Node2</title>
<g id="a_node4"><a xlink:href="a00539.html" target="_top" xlink:title="Generic Device Driver Layer.">
<polygon fill="white" stroke="black" points="104,-51 0,-51 0,-21 104,-21 104,-51"/>
<text text-anchor="start" x="8" y="-39" font-family="Helvetica,sans-Serif" font-size="10.00">Device Driver Library</text>
<text text-anchor="middle" x="52" y="-28" font-family="Helvetica,sans-Serif" font-size="10.00"> Layer</text>
</a>
</g>
</g>
<!-- Node2&#45;&gt;Node1 -->
<g id="edge1" class="edge">
<title>Node2&#45;&gt;Node1</title>
<path fill="none" stroke="black" d="M114.33,-36C122.81,-36 131.5,-36 139.92,-36"/>
<polygon fill="black" stroke="black" points="114.12,-32.5 104.12,-36 114.12,-39.5 114.12,-32.5"/>
</g>
</g>
</svg>
