<?xml version="1.0" encoding="UTF-8" standalone="no"?>
<!DOCTYPE svg PUBLIC "-//W3C//DTD SVG 1.1//EN"
 "http://www.w3.org/Graphics/SVG/1.1/DTD/svg11.dtd">
<!-- Generated by graphviz version 2.44.1 (20200629.0846)
 -->
<!-- Title: appPowerSupply_Execute Pages: 1 -->
<svg width="621pt" height="39pt"
 viewBox="0.00 0.00 621.00 39.00" xmlns="http://www.w3.org/2000/svg" xmlns:xlink="http://www.w3.org/1999/xlink">
<g id="graph0" class="graph" transform="scale(1 1) rotate(0) translate(4 35)">
<title>appPowerSupply_Execute</title>
<polygon fill="white" stroke="transparent" points="-4,4 -4,-35 617,-35 617,4 -4,4"/>
<!-- Node1 -->
<g id="node1" class="node">
<title>Node1</title>
<g id="a_node1"><a xlink:title="This is the top&#45;level function call triggering the most recent state machine of all associated power ...">
<polygon fill="#bfbfbf" stroke="black" points="0,-6 0,-25 131,-25 131,-6 0,-6"/>
<text text-anchor="middle" x="65.5" y="-13" font-family="Helvetica,sans-Serif" font-size="10.00">appPowerSupply_Execute</text>
</a>
</g>
</g>
<!-- Node2 -->
<g id="node2" class="node">
<title>Node2</title>
<g id="a_node2"><a xlink:href="a00481.html#gac9132ab11bac82cf39cc4647fa7b5a1a" target="_top" xlink:title="This function is the main boost converter state machine executing the most recent state.">
<polygon fill="white" stroke="black" points="167,-0.5 167,-30.5 267,-30.5 267,-0.5 167,-0.5"/>
<text text-anchor="start" x="175" y="-18.5" font-family="Helvetica,sans-Serif" font-size="10.00">drv_BoostConverter</text>
<text text-anchor="middle" x="217" y="-7.5" font-family="Helvetica,sans-Serif" font-size="10.00">_Execute</text>
</a>
</g>
</g>
<!-- Node1&#45;&gt;Node2 -->
<g id="edge1" class="edge">
<title>Node1&#45;&gt;Node2</title>
<path fill="none" stroke="midnightblue" d="M131.2,-15.5C139.73,-15.5 148.44,-15.5 156.86,-15.5"/>
<polygon fill="midnightblue" stroke="midnightblue" points="156.98,-19 166.98,-15.5 156.98,-12 156.98,-19"/>
</g>
<!-- Node3 -->
<g id="node3" class="node">
<title>Node3</title>
<g id="a_node3"><a xlink:href="a00504.html#ga2690f2504ec6bad359a1ad75316a13f1" target="_top" xlink:title="This function gets the state of the selected pin.">
<polygon fill="white" stroke="black" points="303,-6 303,-25 426,-25 426,-6 303,-6"/>
<text text-anchor="middle" x="364.5" y="-13" font-family="Helvetica,sans-Serif" font-size="10.00">boostGPIO_GetPinState</text>
</a>
</g>
</g>
<!-- Node2&#45;&gt;Node3 -->
<g id="edge2" class="edge">
<title>Node2&#45;&gt;Node3</title>
<path fill="none" stroke="midnightblue" d="M267.26,-15.5C275.5,-15.5 284.18,-15.5 292.83,-15.5"/>
<polygon fill="midnightblue" stroke="midnightblue" points="292.93,-19 302.93,-15.5 292.93,-12 292.93,-19"/>
</g>
<!-- Node4 -->
<g id="node4" class="node">
<title>Node4</title>
<g id="a_node4"><a xlink:href="a00362.html#ga4d67af688d8f7f911d79107974e11e6b" target="_top" xlink:title="Gets pointer to GPIO Instance SFR set.">
<polygon fill="white" stroke="black" points="462,-6 462,-25 613,-25 613,-6 462,-6"/>
<text text-anchor="middle" x="537.5" y="-13" font-family="Helvetica,sans-Serif" font-size="10.00">p33c_GpioInstance_GetHandle</text>
</a>
</g>
</g>
<!-- Node3&#45;&gt;Node4 -->
<g id="edge3" class="edge">
<title>Node3&#45;&gt;Node4</title>
<path fill="none" stroke="midnightblue" d="M426.27,-15.5C434.55,-15.5 443.17,-15.5 451.78,-15.5"/>
<polygon fill="midnightblue" stroke="midnightblue" points="451.85,-19 461.85,-15.5 451.85,-12 451.85,-19"/>
</g>
</g>
</svg>
