<?xml version="1.0" encoding="UTF-8" standalone="no"?>
<!DOCTYPE svg PUBLIC "-//W3C//DTD SVG 1.1//EN"
 "http://www.w3.org/Graphics/SVG/1.1/DTD/svg11.dtd">
<!-- Generated by graphviz version 2.40.1 (0)
 -->
<!-- Title: Digital Signal Processor Converter Module (DSP) Pages: 1 -->
<svg width="588pt" height="64pt"
 viewBox="0.00 0.00 588.00 64.00" xmlns="http://www.w3.org/2000/svg" xmlns:xlink="http://www.w3.org/1999/xlink">
<g id="graph0" class="graph" transform="scale(1 1) rotate(0) translate(4 60)">
<title>Digital Signal Processor Converter Module (DSP)</title>
<polygon fill="#ffffff" stroke="transparent" points="-4,4 -4,-60 584,-60 584,4 -4,4"/>
<!-- Node3 -->
<g id="node1" class="node">
<title>Node3</title>
<g id="a_node1"><a xlink:href="a00477.html" target="_top" xlink:title="Private properties of the DSP PRAL driver.">
<polygon fill="#ffffff" stroke="#000000" points="580,-56 428,-56 428,-37 580,-37 580,-56"/>
<text text-anchor="middle" x="504" y="-44" font-family="Helvetica,sans-Serif" font-size="10.00" fill="#000000">Private Properties</text>
</a>
</g>
</g>
<!-- Node2 -->
<g id="node2" class="node">
<title>Node2</title>
<g id="a_node2"><a xlink:href="a00469.html" target="_top" xlink:title="Public functions of the DSP PRAL driver.">
<polygon fill="#ffffff" stroke="#000000" points="572.5,-19 435.5,-19 435.5,0 572.5,0 572.5,-19"/>
<text text-anchor="middle" x="504" y="-7" font-family="Helvetica,sans-Serif" font-size="10.00" fill="#000000">Public Functions</text>
</a>
</g>
</g>
<!-- Node0 -->
<g id="node3" class="node">
<title>Node0</title>
<g id="a_node3"><a xlink:title="Digital Signal Processor Special Function Register Abstraction Driver.">
<polygon fill="#bfbfbf" stroke="#000000" points="392,-42.5 195,-42.5 195,-12.5 392,-12.5 392,-42.5"/>
<text text-anchor="start" x="203" y="-30.5" font-family="Helvetica,sans-Serif" font-size="10.00" fill="#000000">Digital Signal Processor</text>
<text text-anchor="middle" x="293.5" y="-19.5" font-family="Helvetica,sans-Serif" font-size="10.00" fill="#000000"> Converter Module (DSP)</text>
</a>
</g>
</g>
<!-- Node0&#45;&gt;Node3 -->
<g id="edge3" class="edge">
<title>Node0&#45;&gt;Node3</title>
<path fill="none" stroke="#000000" d="M402.3854,-37.3281C410.9943,-38.1052 419.5706,-38.8793 427.8838,-39.6297"/>
<polygon fill="#000000" stroke="#000000" points="402.5525,-33.8291 392.2783,-36.4159 401.9231,-40.8007 402.5525,-33.8291"/>
</g>
<!-- Node0&#45;&gt;Node2 -->
<g id="edge2" class="edge">
<title>Node0&#45;&gt;Node2</title>
<path fill="none" stroke="#000000" d="M402.5057,-18.1788C413.6407,-17.2267 424.7195,-16.2793 435.2429,-15.3795"/>
<polygon fill="#000000" stroke="#000000" points="401.9437,-14.714 392.2783,-19.0534 402.5402,-21.6886 401.9437,-14.714"/>
</g>
<!-- Node1 -->
<g id="node4" class="node">
<title>Node1</title>
<g id="a_node4"><a xlink:href="a00458.html" target="_top" xlink:title=" ">
<polygon fill="#ffffff" stroke="#000000" points="159,-48 0,-48 0,-7 159,-7 159,-48"/>
<text text-anchor="start" x="8" y="-36" font-family="Helvetica,sans-Serif" font-size="10.00" fill="#000000">Peripheral Register</text>
<text text-anchor="start" x="8" y="-25" font-family="Helvetica,sans-Serif" font-size="10.00" fill="#000000"> Abstraction Layer </text>
<text text-anchor="middle" x="79.5" y="-14" font-family="Helvetica,sans-Serif" font-size="10.00" fill="#000000">(PRAL) Library</text>
</a>
</g>
</g>
<!-- Node1&#45;&gt;Node0 -->
<g id="edge1" class="edge">
<title>Node1&#45;&gt;Node0</title>
<path fill="none" stroke="#000000" d="M169.3862,-27.5C177.8199,-27.5 186.3992,-27.5 194.9072,-27.5"/>
<polygon fill="#000000" stroke="#000000" points="169.1857,-24.0001 159.1857,-27.5 169.1857,-31.0001 169.1857,-24.0001"/>
</g>
</g>
</svg>
