<?xml version="1.0" encoding="UTF-8" standalone="no"?>
<!DOCTYPE svg PUBLIC "-//W3C//DTD SVG 1.1//EN"
 "http://www.w3.org/Graphics/SVG/1.1/DTD/svg11.dtd">
<!-- Generated by graphviz version 2.44.1 (20200629.0846)
 -->
<!-- Title: Properties Pages: 1 -->
<svg width="367pt" height="101pt"
 viewBox="0.00 0.00 367.00 101.00" xmlns="http://www.w3.org/2000/svg" xmlns:xlink="http://www.w3.org/1999/xlink">
<g id="graph0" class="graph" transform="scale(1 1) rotate(0) translate(4 97)">
<title>Properties</title>
<polygon fill="white" stroke="transparent" points="-4,4 -4,-97 363,-97 363,4 -4,4"/>
<!-- Node3 -->
<g id="node1" class="node">
<title>Node3</title>
<g id="a_node1"><a xlink:href="a00478.html" target="_top" xlink:title="Variables of the boost converter state machine.">
<polygon fill="white" stroke="black" points="359,-93 245,-93 245,-74 359,-74 359,-93"/>
<text text-anchor="middle" x="302" y="-81" font-family="Helvetica,sans-Serif" font-size="10.00">Variables &amp; Constants</text>
</a>
</g>
</g>
<!-- Node2 -->
<g id="node2" class="node">
<title>Node2</title>
<g id="a_node2"><a xlink:href="a00475.html" target="_top" xlink:title="Description of the Boost Converter Library State Machine library module.">
<polygon fill="white" stroke="black" points="112,-61.5 0,-61.5 0,-31.5 112,-31.5 112,-61.5"/>
<text text-anchor="start" x="8" y="-49.5" font-family="Helvetica,sans-Serif" font-size="10.00">Boost Converter State</text>
<text text-anchor="middle" x="56" y="-38.5" font-family="Helvetica,sans-Serif" font-size="10.00"> Machine</text>
</a>
</g>
</g>
<!-- Node1 -->
<g id="node3" class="node">
<title>Node1</title>
<g id="a_node3"><a xlink:title="Properties of the second library layer.">
<polygon fill="#bfbfbf" stroke="black" points="209,-56 148,-56 148,-37 209,-37 209,-56"/>
<text text-anchor="middle" x="178.5" y="-44" font-family="Helvetica,sans-Serif" font-size="10.00">Properties</text>
</a>
</g>
</g>
<!-- Node2&#45;&gt;Node1 -->
<g id="edge1" class="edge">
<title>Node2&#45;&gt;Node1</title>
<path fill="none" stroke="black" d="M122.38,-46.5C131.28,-46.5 140.03,-46.5 147.84,-46.5"/>
<polygon fill="black" stroke="black" points="122.31,-43 112.31,-46.5 122.31,-50 122.31,-43"/>
</g>
<!-- Node1&#45;&gt;Node3 -->
<g id="edge2" class="edge">
<title>Node1&#45;&gt;Node3</title>
<path fill="none" stroke="black" d="M219.04,-58.54C235.38,-63.52 254.07,-69.21 269.46,-73.9"/>
<polygon fill="black" stroke="black" points="219.81,-55.12 209.22,-55.55 217.77,-61.81 219.81,-55.12"/>
</g>
<!-- Node5 -->
<g id="node4" class="node">
<title>Node5</title>
<g id="a_node4"><a xlink:href="a00480.html" target="_top" xlink:title="Defines and macros of the boost converter state machine.">
<polygon fill="white" stroke="black" points="353.5,-56 250.5,-56 250.5,-37 353.5,-37 353.5,-56"/>
<text text-anchor="middle" x="302" y="-44" font-family="Helvetica,sans-Serif" font-size="10.00">Defines and Macros</text>
</a>
</g>
</g>
<!-- Node1&#45;&gt;Node5 -->
<g id="edge4" class="edge">
<title>Node1&#45;&gt;Node5</title>
<path fill="none" stroke="black" d="M219.51,-46.5C229.35,-46.5 240.01,-46.5 250.28,-46.5"/>
<polygon fill="black" stroke="black" points="219.22,-43 209.22,-46.5 219.22,-50 219.22,-43"/>
</g>
<!-- Node4 -->
<g id="node5" class="node">
<title>Node4</title>
<g id="a_node5"><a xlink:href="a00479.html" target="_top" xlink:title="Data types of the boost converter state machine.">
<polygon fill="white" stroke="black" points="335,-19 269,-19 269,0 335,0 335,-19"/>
<text text-anchor="middle" x="302" y="-7" font-family="Helvetica,sans-Serif" font-size="10.00">Data Types</text>
</a>
</g>
</g>
<!-- Node1&#45;&gt;Node4 -->
<g id="edge3" class="edge">
<title>Node1&#45;&gt;Node4</title>
<path fill="none" stroke="black" d="M219.04,-34.46C235.38,-29.48 254.07,-23.79 269.46,-19.1"/>
<polygon fill="black" stroke="black" points="217.77,-31.19 209.22,-37.45 219.81,-37.88 217.77,-31.19"/>
</g>
</g>
</svg>
