<?xml version="1.0" encoding="UTF-8" standalone="no"?>
<!DOCTYPE svg PUBLIC "-//W3C//DTD SVG 1.1//EN"
 "http://www.w3.org/Graphics/SVG/1.1/DTD/svg11.dtd">
<!-- Generated by graphviz version 2.44.1 (20200629.0846)
 -->
<!-- Title: boostGPIO_Clear Pages: 1 -->
<!--zoomable 154 -->
<svg id="main" version="1.1" xmlns="http://www.w3.org/2000/svg" xmlns:xlink="http://www.w3.org/1999/xlink" xml:space="preserve" onload="init(evt)">
<style type="text/css"><![CDATA[
.edge:hover path { stroke: red; }
.edge:hover polygon { stroke: red; fill: red; }
]]></style>
<script type="text/javascript"><![CDATA[
var edges = document.getElementsByTagName('g');
if (edges && edges.length) {
  for (var i=0;i<edges.length;i++) {
    if (edges[i].id.substr(0,4)=='edge') {
      edges[i].setAttribute('class','edge');
    }
  }
}
]]></script>
        <defs>
                <circle id="rim" cx="0" cy="0" r="7"/>
                <circle id="rim2" cx="0" cy="0" r="3.5"/>
                <g id="zoomPlus">
                        <use xlink:href="#rim" fill="#404040">
                                <set attributeName="fill" to="#808080" begin="zoomplus.mouseover" end="zoomplus.mouseout"/>
                        </use>
                        <path d="M-4,0h8M0,-4v8" fill="none" stroke="white" stroke-width="1.5" pointer-events="none"/>
                </g>
                <g id="zoomMin">
                        <use xlink:href="#rim" fill="#404040">
                                <set attributeName="fill" to="#808080" begin="zoomminus.mouseover" end="zoomminus.mouseout"/>
                        </use>
                        <path d="M-4,0h8" fill="none" stroke="white" stroke-width="1.5" pointer-events="none"/>
                </g>
                <g id="dirArrow">
                        <path fill="none" stroke="white" stroke-width="1.5" d="M0,-3.0v7 M-2.5,-0.5L0,-3.0L2.5,-0.5"/>
                </g>
               <g id="resetDef">
                       <use xlink:href="#rim2" fill="#404040">
                               <set attributeName="fill" to="#808080" begin="reset.mouseover" end="reset.mouseout"/>
                       </use>
               </g>
        </defs>

<script type="text/javascript">
var viewWidth = 906;
var viewHeight = 154;
var sectionId = 'dynsection-5';
</script>
<script xlink:href="svgpan.js"/>
<svg id="graph" class="graph">
<g id="viewport">
<title>boostGPIO_Clear</title>
<polygon fill="white" stroke="transparent" points="-4,4 -4,-149.5 902,-149.5 902,4 -4,4"/>
<!-- Node1 -->
<g id="node1" class="node">
<title>Node1</title>
<g id="a_node1"><a xlink:title="This function clears the selected general purpose input/output pin.">
<polygon fill="#bfbfbf" stroke="black" points="806,-76.5 806,-95.5 898,-95.5 898,-76.5 806,-76.5"/>
<text text-anchor="middle" x="852" y="-83.5" font-family="Helvetica,sans-Serif" font-size="10.00">boostGPIO_Clear</text>
</a>
</g>
</g>
<!-- Node2 -->
<g id="node2" class="node">
<title>Node2</title>
<g id="a_node2"><a xlink:href="a00488.html#ga204b527b94398e138949cd166bcc24dc" target="_top" xlink:title="This function initializes the boost input pins.">
<polygon fill="white" stroke="black" points="663,-117.5 663,-136.5 768,-136.5 768,-117.5 663,-117.5"/>
<text text-anchor="middle" x="715.5" y="-124.5" font-family="Helvetica,sans-Serif" font-size="10.00">boostGPIO_Initialize</text>
</a>
</g>
</g>
<!-- Node1&#45;&gt;Node2 -->
<g id="edge1" class="edge">
<title>Node1&#45;&gt;Node2</title>
<path fill="none" stroke="midnightblue" d="M810.05,-98.48C790.11,-104.56 766.5,-111.76 747.99,-117.4"/>
<polygon fill="midnightblue" stroke="midnightblue" points="811.26,-101.77 819.8,-95.51 809.22,-95.08 811.26,-101.77"/>
</g>
<!-- Node7 -->
<g id="node7" class="node">
<title>Node7</title>
<g id="a_node7"><a xlink:href="a00488.html#ga106051f11636da04a8f6a91413a10390" target="_top" xlink:title="This function stops the boost PWM output.">
<polygon fill="white" stroke="black" points="670,-76.5 670,-95.5 761,-95.5 761,-76.5 670,-76.5"/>
<text text-anchor="middle" x="715.5" y="-83.5" font-family="Helvetica,sans-Serif" font-size="10.00">boostPWM_Stop</text>
</a>
</g>
</g>
<!-- Node1&#45;&gt;Node7 -->
<g id="edge6" class="edge">
<title>Node1&#45;&gt;Node7</title>
<path fill="none" stroke="midnightblue" d="M795.54,-86C784.14,-86 772.28,-86 761.31,-86"/>
<polygon fill="midnightblue" stroke="midnightblue" points="795.84,-89.5 805.84,-86 795.84,-82.5 795.84,-89.5"/>
</g>
<!-- Node10 -->
<g id="node10" class="node">
<title>Node10</title>
<g id="a_node10"><a xlink:href="a00488.html#gac6b33134d75a969d4deb6e2f158e6d9c" target="_top" xlink:title="This function disables the PWM generator IOs.">
<polygon fill="white" stroke="black" points="661,-38.5 661,-57.5 770,-57.5 770,-38.5 661,-38.5"/>
<text text-anchor="middle" x="715.5" y="-45.5" font-family="Helvetica,sans-Serif" font-size="10.00">boostPWM_Suspend</text>
</a>
</g>
</g>
<!-- Node1&#45;&gt;Node10 -->
<g id="edge9" class="edge">
<title>Node1&#45;&gt;Node10</title>
<path fill="none" stroke="midnightblue" d="M807.4,-73.68C788.92,-68.46 767.71,-62.47 750.43,-57.59"/>
<polygon fill="midnightblue" stroke="midnightblue" points="806.49,-77.06 817.06,-76.41 808.39,-70.32 806.49,-77.06"/>
</g>
<!-- Node3 -->
<g id="node3" class="node">
<title>Node3</title>
<g id="a_node3"><a xlink:href="a00465.html#gafe5ee9f0daeb397241fe4c9d799ac5f3" target="_top" xlink:title="This function initializes all peripheral modules and their instances used by the power controller.">
<polygon fill="white" stroke="black" points="512.5,-115 512.5,-145 612.5,-145 612.5,-115 512.5,-115"/>
<text text-anchor="start" x="520.5" y="-133" font-family="Helvetica,sans-Serif" font-size="10.00">drv_BoostConverter</text>
<text text-anchor="middle" x="562.5" y="-122" font-family="Helvetica,sans-Serif" font-size="10.00">_Initialize</text>
</a>
</g>
</g>
<!-- Node2&#45;&gt;Node3 -->
<g id="edge2" class="edge">
<title>Node2&#45;&gt;Node3</title>
<path fill="none" stroke="midnightblue" d="M652.84,-128.23C639.41,-128.49 625.38,-128.77 612.52,-129.03"/>
<polygon fill="midnightblue" stroke="midnightblue" points="653.03,-131.72 662.96,-128.02 652.89,-124.72 653.03,-131.72"/>
</g>
<!-- Node4 -->
<g id="node4" class="node">
<title>Node4</title>
<g id="a_node4"><a xlink:href="a00461.html#ga0b26acfec74d1804384b4ba1a3cffab4" target="_top" xlink:title="This function is used to load peripheral configuration templates from the power controller device dri...">
<polygon fill="white" stroke="black" points="321,-115 321,-145 464,-145 464,-115 321,-115"/>
<text text-anchor="start" x="329" y="-133" font-family="Helvetica,sans-Serif" font-size="10.00">appPowerSupply_Peripherals</text>
<text text-anchor="middle" x="392.5" y="-122" font-family="Helvetica,sans-Serif" font-size="10.00">Initialize</text>
</a>
</g>
</g>
<!-- Node3&#45;&gt;Node4 -->
<g id="edge3" class="edge">
<title>Node3&#45;&gt;Node4</title>
<path fill="none" stroke="midnightblue" d="M502.3,-130C489.97,-130 476.85,-130 464.14,-130"/>
<polygon fill="midnightblue" stroke="midnightblue" points="502.46,-133.5 512.46,-130 502.46,-126.5 502.46,-133.5"/>
</g>
<!-- Node5 -->
<g id="node5" class="node">
<title>Node5</title>
<g id="a_node5"><a xlink:href="a00458.html#ga7a4cf6371d09457539f96a74b2809ca0" target="_top" xlink:title="Calls the application layer power controller initialization.">
<polygon fill="white" stroke="black" points="155,-120.5 155,-139.5 285,-139.5 285,-120.5 155,-120.5"/>
<text text-anchor="middle" x="220" y="-127.5" font-family="Helvetica,sans-Serif" font-size="10.00">appPowerSupply_Initialize</text>
</a>
</g>
</g>
<!-- Node4&#45;&gt;Node5 -->
<g id="edge4" class="edge">
<title>Node4&#45;&gt;Node5</title>
<path fill="none" stroke="midnightblue" d="M310.65,-130C302.06,-130 293.42,-130 285.07,-130"/>
<polygon fill="midnightblue" stroke="midnightblue" points="310.67,-133.5 320.67,-130 310.67,-126.5 310.67,-133.5"/>
</g>
<!-- Node6 -->
<g id="node6" class="node">
<title>Node6</title>
<g id="a_node6"><a xlink:href="a00533.html#ga2be64f5f0b9a2c0c6713f5a69d793e05" target="_top" xlink:title="Initializes the user&#45;defined tasks.">
<polygon fill="white" stroke="black" points="0,-120.5 0,-139.5 119,-139.5 119,-120.5 0,-120.5"/>
<text text-anchor="middle" x="59.5" y="-127.5" font-family="Helvetica,sans-Serif" font-size="10.00">sysUserTasks_Initialize</text>
</a>
</g>
</g>
<!-- Node5&#45;&gt;Node6 -->
<g id="edge5" class="edge">
<title>Node5&#45;&gt;Node6</title>
<path fill="none" stroke="midnightblue" d="M144.9,-130C136.25,-130 127.52,-130 119.12,-130"/>
<polygon fill="midnightblue" stroke="midnightblue" points="144.99,-133.5 154.99,-130 144.99,-126.5 144.99,-133.5"/>
</g>
<!-- Node8 -->
<g id="node8" class="node">
<title>Node8</title>
<g id="a_node8"><a xlink:href="a00465.html#gaaf54320205622e4683e05c9c30c83dc0" target="_top" xlink:title="This function stop the boost converter opration.">
<polygon fill="white" stroke="black" points="500,-76.5 500,-95.5 625,-95.5 625,-76.5 500,-76.5"/>
<text text-anchor="middle" x="562.5" y="-83.5" font-family="Helvetica,sans-Serif" font-size="10.00">drv_BoostConverter_Stop</text>
</a>
</g>
</g>
<!-- Node7&#45;&gt;Node8 -->
<g id="edge7" class="edge">
<title>Node7&#45;&gt;Node8</title>
<path fill="none" stroke="midnightblue" d="M659.58,-86C648.43,-86 636.64,-86 625.27,-86"/>
<polygon fill="midnightblue" stroke="midnightblue" points="659.6,-89.5 669.6,-86 659.6,-82.5 659.6,-89.5"/>
</g>
<!-- Node9 -->
<g id="node9" class="node">
<title>Node9</title>
<g id="a_node9"><a xlink:href="a00458.html#gaa7d413f62f7b5f25d152cc12354241f0" target="_top" xlink:title="This function calls the boost converter device driver function stopping the power supply.">
<polygon fill="white" stroke="black" points="335,-76.5 335,-95.5 450,-95.5 450,-76.5 335,-76.5"/>
<text text-anchor="middle" x="392.5" y="-83.5" font-family="Helvetica,sans-Serif" font-size="10.00">appPowerSupply_Stop</text>
</a>
</g>
</g>
<!-- Node8&#45;&gt;Node9 -->
<g id="edge8" class="edge">
<title>Node8&#45;&gt;Node9</title>
<path fill="none" stroke="midnightblue" d="M489.84,-86C476.55,-86 462.84,-86 450.08,-86"/>
<polygon fill="midnightblue" stroke="midnightblue" points="489.9,-89.5 499.9,-86 489.9,-82.5 489.9,-89.5"/>
</g>
<!-- Node11 -->
<g id="node11" class="node">
<title>Node11</title>
<g id="a_node11"><a xlink:href="a00476.html#ga9eb174458c7fd652dd725988f435cfdb" target="_top" xlink:title="If this function is called, the state machine is reset to INITIALIZE (URL=State_Initialize).">
<polygon fill="white" stroke="black" points="529.5,-38.5 529.5,-57.5 595.5,-57.5 595.5,-38.5 529.5,-38.5"/>
<text text-anchor="middle" x="562.5" y="-45.5" font-family="Helvetica,sans-Serif" font-size="10.00">State_Error</text>
</a>
</g>
</g>
<!-- Node10&#45;&gt;Node11 -->
<g id="edge10" class="edge">
<title>Node10&#45;&gt;Node11</title>
<path fill="none" stroke="midnightblue" d="M650.77,-48C631.85,-48 611.92,-48 595.89,-48"/>
<polygon fill="midnightblue" stroke="midnightblue" points="650.84,-51.5 660.84,-48 650.84,-44.5 650.84,-51.5"/>
</g>
<!-- Node12 -->
<g id="node12" class="node">
<title>Node12</title>
<g id="a_node12"><a xlink:href="a00476.html#ga54a9e1e78d536910ed756a227c2ed30b" target="_top" xlink:title="This function resets the boost control operation by re&#45;initiating the control mode,...">
<polygon fill="white" stroke="black" points="527,-0.5 527,-19.5 598,-19.5 598,-0.5 527,-0.5"/>
<text text-anchor="middle" x="562.5" y="-7.5" font-family="Helvetica,sans-Serif" font-size="10.00">State_Reset</text>
</a>
</g>
</g>
<!-- Node10&#45;&gt;Node12 -->
<g id="edge11" class="edge">
<title>Node10&#45;&gt;Node12</title>
<path fill="none" stroke="midnightblue" d="M666.5,-35.92C644.32,-30.34 618.48,-23.84 598.23,-18.74"/>
<polygon fill="midnightblue" stroke="midnightblue" points="665.84,-39.36 676.4,-38.41 667.55,-32.58 665.84,-39.36"/>
</g>
</g>
</svg>
        <g id="navigator" transform="translate(0 0)" fill="#404254">
                <rect fill="#f2f5e9" fill-opacity="0.5" stroke="#606060" stroke-width=".5" x="0" y="0" width="60" height="60"/>
                <use id="zoomplus" xlink:href="#zoomPlus" x="17" y="9" onmousedown="handleZoom(evt,'in')"/>
                <use id="zoomminus" xlink:href="#zoomMin" x="42" y="9" onmousedown="handleZoom(evt,'out')"/>
                <use id="reset" xlink:href="#resetDef" x="30" y="36" onmousedown="handleReset()"/>
                <g id="arrowUp" xlink:href="#dirArrow" transform="translate(30 24)" onmousedown="handlePan(0,-1)">
                  <use xlink:href="#rim" fill="#404040">
                        <set attributeName="fill" to="#808080" begin="arrowUp.mouseover" end="arrowUp.mouseout"/>
                  </use>
                  <path fill="none" stroke="white" stroke-width="1.5" d="M0,-3.0v7 M-2.5,-0.5L0,-3.0L2.5,-0.5"/>
                </g>
                <g id="arrowRight" xlink:href="#dirArrow" transform="rotate(90) translate(36 -43)" onmousedown="handlePan(1,0)">
                  <use xlink:href="#rim" fill="#404040">
                        <set attributeName="fill" to="#808080" begin="arrowRight.mouseover" end="arrowRight.mouseout"/>
                  </use>
                  <path fill="none" stroke="white" stroke-width="1.5" d="M0,-3.0v7 M-2.5,-0.5L0,-3.0L2.5,-0.5"/>
                </g>
                <g id="arrowDown" xlink:href="#dirArrow" transform="rotate(180) translate(-30 -48)" onmousedown="handlePan(0,1)">
                  <use xlink:href="#rim" fill="#404040">
                        <set attributeName="fill" to="#808080" begin="arrowDown.mouseover" end="arrowDown.mouseout"/>
                  </use>
                  <path fill="none" stroke="white" stroke-width="1.5" d="M0,-3.0v7 M-2.5,-0.5L0,-3.0L2.5,-0.5"/>
                </g>
                <g id="arrowLeft" xlink:href="#dirArrow" transform="rotate(270) translate(-36 17)" onmousedown="handlePan(-1,0)">
                  <use xlink:href="#rim" fill="#404040">
                        <set attributeName="fill" to="#808080" begin="arrowLeft.mouseover" end="arrowLeft.mouseout"/>
                  </use>
                  <path fill="none" stroke="white" stroke-width="1.5" d="M0,-3.0v7 M-2.5,-0.5L0,-3.0L2.5,-0.5"/>
                </g>
        </g>
        <svg viewBox="0 0 15 15" width="100%" height="30px" preserveAspectRatio="xMaxYMin meet">
         <g id="arrow_out" transform="scale(0.3 0.3)">
          <a xlink:href="a00488_ga0e291d0cb856167fd188be50090ef5ce_icgraph_org.svg" target="_base">
           <rect id="button" ry="5" rx="5" y="6" x="6" height="38" width="38"
                fill="#f2f5e9" fill-opacity="0.5" stroke="#606060" stroke-width="1.0"/>
           <path id="arrow"
             d="M 11.500037,31.436501 C 11.940474,20.09759 22.043105,11.32322 32.158766,21.979434 L 37.068811,17.246167 C 37.068811,17.246167 37.088388,32 37.088388,32 L 22.160133,31.978069 C 22.160133,31.978069 26.997745,27.140456 26.997745,27.140456 C 18.528582,18.264221 13.291696,25.230495 11.500037,31.436501 z"
             style="fill:#404040;"/>
          </a>
         </g>
        </svg>
</svg>
