<?xml version="1.0" encoding="UTF-8" standalone="no"?>
<!DOCTYPE svg PUBLIC "-//W3C//DTD SVG 1.1//EN"
 "http://www.w3.org/Graphics/SVG/1.1/DTD/svg11.dtd">
<!-- Generated by graphviz version 2.44.1 (20200629.0846)
 -->
<!-- Title: Public Properties Pages: 1 -->
<svg width="422pt" height="101pt"
 viewBox="0.00 0.00 422.00 101.00" xmlns="http://www.w3.org/2000/svg" xmlns:xlink="http://www.w3.org/1999/xlink">
<g id="graph0" class="graph" transform="scale(1 1) rotate(0) translate(4 97)">
<title>Public Properties</title>
<polygon fill="white" stroke="transparent" points="-4,4 -4,-97 418,-97 418,4 -4,4"/>
<!-- Node2 -->
<g id="node1" class="node">
<title>Node2</title>
<g id="a_node1"><a xlink:href="a00464.html" target="_top" xlink:title=" ">
<polygon fill="white" stroke="black" points="137,-56 0,-56 0,-37 137,-37 137,-56"/>
<text text-anchor="middle" x="68.5" y="-44" font-family="Helvetica,sans-Serif" font-size="10.00">Boost Converter Library API</text>
</a>
</g>
</g>
<!-- Node1 -->
<g id="node4" class="node">
<title>Node1</title>
<g id="a_node4"><a xlink:title="Public properties of the second library layer.">
<polygon fill="#bfbfbf" stroke="black" points="264,-56 173,-56 173,-37 264,-37 264,-56"/>
<text text-anchor="middle" x="218.5" y="-44" font-family="Helvetica,sans-Serif" font-size="10.00">Public Properties</text>
</a>
</g>
</g>
<!-- Node2&#45;&gt;Node1 -->
<g id="edge1" class="edge">
<title>Node2&#45;&gt;Node1</title>
<path fill="none" stroke="black" d="M147.04,-46.5C155.92,-46.5 164.74,-46.5 172.97,-46.5"/>
<polygon fill="black" stroke="black" points="147,-43 137,-46.5 147,-50 147,-43"/>
</g>
<!-- Node5 -->
<g id="node2" class="node">
<title>Node5</title>
<g id="a_node2"><a xlink:href="a00469.html" target="_top" xlink:title=" ">
<polygon fill="white" stroke="black" points="408.5,-93 305.5,-93 305.5,-74 408.5,-74 408.5,-93"/>
<text text-anchor="middle" x="357" y="-81" font-family="Helvetica,sans-Serif" font-size="10.00">Defines and Macros</text>
</a>
</g>
</g>
<!-- Node4 -->
<g id="node3" class="node">
<title>Node4</title>
<g id="a_node3"><a xlink:href="a00468.html" target="_top" xlink:title=" ">
<polygon fill="white" stroke="black" points="390,-56 324,-56 324,-37 390,-37 390,-56"/>
<text text-anchor="middle" x="357" y="-44" font-family="Helvetica,sans-Serif" font-size="10.00">Data Types</text>
</a>
</g>
</g>
<!-- Node1&#45;&gt;Node5 -->
<g id="edge4" class="edge">
<title>Node1&#45;&gt;Node5</title>
<path fill="none" stroke="black" d="M264.47,-58.69C282.67,-63.62 303.38,-69.24 320.49,-73.88"/>
<polygon fill="black" stroke="black" points="265.22,-55.27 254.65,-56.03 263.39,-62.02 265.22,-55.27"/>
</g>
<!-- Node1&#45;&gt;Node4 -->
<g id="edge3" class="edge">
<title>Node1&#45;&gt;Node4</title>
<path fill="none" stroke="black" d="M274.44,-46.5C291.18,-46.5 309.03,-46.5 323.75,-46.5"/>
<polygon fill="black" stroke="black" points="274.2,-43 264.2,-46.5 274.2,-50 274.2,-43"/>
</g>
<!-- Node3 -->
<g id="node5" class="node">
<title>Node3</title>
<g id="a_node5"><a xlink:href="a00467.html" target="_top" xlink:title=" ">
<polygon fill="white" stroke="black" points="414,-19 300,-19 300,0 414,0 414,-19"/>
<text text-anchor="middle" x="357" y="-7" font-family="Helvetica,sans-Serif" font-size="10.00">Variables &amp; Constants</text>
</a>
</g>
</g>
<!-- Node1&#45;&gt;Node3 -->
<g id="edge2" class="edge">
<title>Node1&#45;&gt;Node3</title>
<path fill="none" stroke="black" d="M264.47,-34.31C282.67,-29.38 303.38,-23.76 320.49,-19.12"/>
<polygon fill="black" stroke="black" points="263.39,-30.98 254.65,-36.97 265.22,-37.73 263.39,-30.98"/>
</g>
</g>
</svg>
