<?xml version="1.0" encoding="UTF-8" standalone="no"?>
<!DOCTYPE svg PUBLIC "-//W3C//DTD SVG 1.1//EN"
 "http://www.w3.org/Graphics/SVG/1.1/DTD/svg11.dtd">
<!-- Generated by graphviz version 2.44.1 (20200629.0846)
 -->
<!-- Title: appPowerSupply_PeripheralsInitialize Pages: 1 -->
<svg width="845pt" height="295pt"
 viewBox="0.00 0.00 845.00 295.00" xmlns="http://www.w3.org/2000/svg" xmlns:xlink="http://www.w3.org/1999/xlink">
<g id="graph0" class="graph" transform="scale(1 1) rotate(0) translate(4 291)">
<title>appPowerSupply_PeripheralsInitialize</title>
<polygon fill="white" stroke="transparent" points="-4,4 -4,-291 841,-291 841,4 -4,4"/>
<!-- Node1 -->
<g id="node1" class="node">
<title>Node1</title>
<g id="a_node1"><a xlink:title="This function is used to load peripheral configuration templates from the power controller device dri...">
<polygon fill="#bfbfbf" stroke="black" points="0,-186 0,-216 143,-216 143,-186 0,-186"/>
<text text-anchor="start" x="8" y="-204" font-family="Helvetica,sans-Serif" font-size="10.00">appPowerSupply_Peripherals</text>
<text text-anchor="middle" x="71.5" y="-193" font-family="Helvetica,sans-Serif" font-size="10.00">Initialize</text>
</a>
</g>
</g>
<!-- Node2 -->
<g id="node2" class="node">
<title>Node2</title>
<g id="a_node2"><a xlink:href="a00465.html#gafe5ee9f0daeb397241fe4c9d799ac5f3" target="_top" xlink:title="This function initializes all peripheral modules and their instances used by the power controller.">
<polygon fill="white" stroke="black" points="179,-186 179,-216 279,-216 279,-186 179,-186"/>
<text text-anchor="start" x="187" y="-204" font-family="Helvetica,sans-Serif" font-size="10.00">drv_BoostConverter</text>
<text text-anchor="middle" x="229" y="-193" font-family="Helvetica,sans-Serif" font-size="10.00">_Initialize</text>
</a>
</g>
</g>
<!-- Node1&#45;&gt;Node2 -->
<g id="edge1" class="edge">
<title>Node1&#45;&gt;Node2</title>
<path fill="none" stroke="midnightblue" d="M143.42,-201C151.97,-201 160.62,-201 168.97,-201"/>
<polygon fill="midnightblue" stroke="midnightblue" points="168.97,-204.5 178.97,-201 168.97,-197.5 168.97,-204.5"/>
</g>
<!-- Node3 -->
<g id="node3" class="node">
<title>Node3</title>
<g id="a_node3"><a xlink:href="a00488.html#ga85ae5f6b841cc22a5cb39e750abb67a3" target="_top" xlink:title="This function initializes the settings for the ADC channel.">
<polygon fill="white" stroke="black" points="317,-267.5 317,-286.5 454,-286.5 454,-267.5 317,-267.5"/>
<text text-anchor="middle" x="385.5" y="-274.5" font-family="Helvetica,sans-Serif" font-size="10.00">boostADC_ChannelInitialize</text>
</a>
</g>
</g>
<!-- Node2&#45;&gt;Node3 -->
<g id="edge2" class="edge">
<title>Node2&#45;&gt;Node3</title>
<path fill="none" stroke="midnightblue" d="M248.53,-216.02C265.08,-228.78 290.44,-246.77 315,-258 320.25,-260.4 325.86,-262.55 331.54,-264.47"/>
<polygon fill="midnightblue" stroke="midnightblue" points="330.51,-267.81 341.09,-267.47 332.6,-261.13 330.51,-267.81"/>
</g>
<!-- Node4 -->
<g id="node4" class="node">
<title>Node4</title>
<g id="a_node4"><a xlink:href="a00488.html#ga751421523389bc4548a4920ac1c85937" target="_top" xlink:title="This fucntion initializes the boost by resetting all its registers to default.">
<polygon fill="white" stroke="black" points="319,-229.5 319,-248.5 452,-248.5 452,-229.5 319,-229.5"/>
<text text-anchor="middle" x="385.5" y="-236.5" font-family="Helvetica,sans-Serif" font-size="10.00">boostADC_ModuleInitialize</text>
</a>
</g>
</g>
<!-- Node2&#45;&gt;Node4 -->
<g id="edge3" class="edge">
<title>Node2&#45;&gt;Node4</title>
<path fill="none" stroke="midnightblue" d="M279.31,-213.13C297.34,-217.56 317.72,-222.58 335.71,-227"/>
<polygon fill="midnightblue" stroke="midnightblue" points="334.88,-230.4 345.42,-229.39 336.55,-223.6 334.88,-230.4"/>
</g>
<!-- Node5 -->
<g id="node5" class="node">
<title>Node5</title>
<g id="a_node5"><a xlink:href="a00488.html#ga204b527b94398e138949cd166bcc24dc" target="_top" xlink:title="This function initializes the boost input pins.">
<polygon fill="white" stroke="black" points="333,-191.5 333,-210.5 438,-210.5 438,-191.5 333,-191.5"/>
<text text-anchor="middle" x="385.5" y="-198.5" font-family="Helvetica,sans-Serif" font-size="10.00">boostGPIO_Initialize</text>
</a>
</g>
</g>
<!-- Node2&#45;&gt;Node5 -->
<g id="edge4" class="edge">
<title>Node2&#45;&gt;Node5</title>
<path fill="none" stroke="midnightblue" d="M279.31,-201C293.1,-201 308.25,-201 322.67,-201"/>
<polygon fill="midnightblue" stroke="midnightblue" points="323,-204.5 333,-201 323,-197.5 323,-204.5"/>
</g>
<!-- Node9 -->
<g id="node9" class="node">
<title>Node9</title>
<g id="a_node9"><a xlink:href="a00488.html#ga76d61bc918bb955a0d2019a9469b2e25" target="_top" xlink:title="This function initializes the output pins for the PWM output and the default boost PWM settings.">
<polygon fill="white" stroke="black" points="315,-131.5 315,-150.5 456,-150.5 456,-131.5 315,-131.5"/>
<text text-anchor="middle" x="385.5" y="-138.5" font-family="Helvetica,sans-Serif" font-size="10.00">boostPWM_ChannelInitialize</text>
</a>
</g>
</g>
<!-- Node2&#45;&gt;Node9 -->
<g id="edge9" class="edge">
<title>Node2&#45;&gt;Node9</title>
<path fill="none" stroke="midnightblue" d="M268.99,-185.86C294.13,-176.1 326.5,-163.52 350.58,-154.17"/>
<polygon fill="midnightblue" stroke="midnightblue" points="351.96,-157.39 360.02,-150.51 349.43,-150.86 351.96,-157.39"/>
</g>
<!-- Node12 -->
<g id="node12" class="node">
<title>Node12</title>
<g id="a_node12"><a xlink:href="a00488.html#ga6b5da6f69a70380e159502fbd7199a10" target="_top" xlink:title="Initializes the boost PWM module by resetting its registers to default.">
<polygon fill="white" stroke="black" points="317,-38.5 317,-57.5 454,-57.5 454,-38.5 317,-38.5"/>
<text text-anchor="middle" x="385.5" y="-45.5" font-family="Helvetica,sans-Serif" font-size="10.00">boostPWM_ModuleInitialize</text>
</a>
</g>
</g>
<!-- Node2&#45;&gt;Node12 -->
<g id="edge13" class="edge">
<title>Node2&#45;&gt;Node12</title>
<path fill="none" stroke="midnightblue" d="M245.38,-185.77C274.39,-157.05 336.98,-95.06 367.32,-65.01"/>
<polygon fill="midnightblue" stroke="midnightblue" points="369.99,-67.29 374.63,-57.77 365.07,-62.32 369.99,-67.29"/>
</g>
<!-- Node6 -->
<g id="node6" class="node">
<title>Node6</title>
<g id="a_node6"><a xlink:href="a00488.html#ga0e291d0cb856167fd188be50090ef5ce" target="_top" xlink:title="This function clears the selected general purpose input/output pin.">
<polygon fill="white" stroke="black" points="525,-240.5 525,-259.5 617,-259.5 617,-240.5 525,-240.5"/>
<text text-anchor="middle" x="571" y="-247.5" font-family="Helvetica,sans-Serif" font-size="10.00">boostGPIO_Clear</text>
</a>
</g>
</g>
<!-- Node5&#45;&gt;Node6 -->
<g id="edge5" class="edge">
<title>Node5&#45;&gt;Node6</title>
<path fill="none" stroke="midnightblue" d="M422.27,-210.56C433.12,-213.52 445.07,-216.84 456,-220 472.07,-224.65 475.87,-226.57 492,-231 500.78,-233.41 510.17,-235.83 519.27,-238.09"/>
<polygon fill="midnightblue" stroke="midnightblue" points="518.45,-241.5 529,-240.48 520.12,-234.7 518.45,-241.5"/>
</g>
<!-- Node8 -->
<g id="node8" class="node">
<title>Node8</title>
<g id="a_node8"><a xlink:href="a00488.html#ga2968a8235de619bada4a5aa5f3073019" target="_top" xlink:title="This function sets the pin as input or output.">
<polygon fill="white" stroke="black" points="504,-202.5 504,-221.5 638,-221.5 638,-202.5 504,-202.5"/>
<text text-anchor="middle" x="571" y="-209.5" font-family="Helvetica,sans-Serif" font-size="10.00">boostGPIO_PrivateInitialize</text>
</a>
</g>
</g>
<!-- Node5&#45;&gt;Node8 -->
<g id="edge7" class="edge">
<title>Node5&#45;&gt;Node8</title>
<path fill="none" stroke="midnightblue" d="M438.1,-204.09C455.36,-205.13 474.97,-206.3 493.69,-207.43"/>
<polygon fill="midnightblue" stroke="midnightblue" points="493.5,-210.92 503.69,-208.02 493.91,-203.93 493.5,-210.92"/>
</g>
<!-- Node7 -->
<g id="node7" class="node">
<title>Node7</title>
<g id="a_node7"><a xlink:href="a00365.html#ga4d67af688d8f7f911d79107974e11e6b" target="_top" xlink:title="Gets pointer to GPIO Instance SFR set.">
<polygon fill="white" stroke="black" points="686,-202.5 686,-221.5 837,-221.5 837,-202.5 686,-202.5"/>
<text text-anchor="middle" x="761.5" y="-209.5" font-family="Helvetica,sans-Serif" font-size="10.00">p33c_GpioInstance_GetHandle</text>
</a>
</g>
</g>
<!-- Node6&#45;&gt;Node7 -->
<g id="edge6" class="edge">
<title>Node6&#45;&gt;Node7</title>
<path fill="none" stroke="midnightblue" d="M617.15,-240.9C642.95,-235.7 675.57,-229.12 703.17,-223.56"/>
<polygon fill="midnightblue" stroke="midnightblue" points="703.98,-226.97 713.09,-221.56 702.59,-220.1 703.98,-226.97"/>
</g>
<!-- Node8&#45;&gt;Node7 -->
<g id="edge8" class="edge">
<title>Node8&#45;&gt;Node7</title>
<path fill="none" stroke="midnightblue" d="M638.19,-212C650.33,-212 663.15,-212 675.74,-212"/>
<polygon fill="midnightblue" stroke="midnightblue" points="675.78,-215.5 685.78,-212 675.78,-208.5 675.78,-215.5"/>
</g>
<!-- Node9&#45;&gt;Node7 -->
<g id="edge10" class="edge">
<title>Node9&#45;&gt;Node7</title>
<path fill="none" stroke="midnightblue" d="M436.55,-150.5C504.89,-163.48 627.26,-186.71 700.46,-200.6"/>
<polygon fill="midnightblue" stroke="midnightblue" points="699.97,-204.07 710.45,-202.5 701.28,-197.19 699.97,-204.07"/>
</g>
<!-- Node10 -->
<g id="node10" class="node">
<title>Node10</title>
<g id="a_node10"><a xlink:href="a00369.html#gab66f225bac6b132d1418a4c808e3babb" target="_top" xlink:title="Disposes a given PWM generator by resetting all its registers to default.">
<polygon fill="white" stroke="black" points="501,-115 501,-145 641,-145 641,-115 501,-115"/>
<text text-anchor="start" x="509" y="-133" font-family="Helvetica,sans-Serif" font-size="10.00">p33c_PwmGenerator_Config</text>
<text text-anchor="middle" x="571" y="-122" font-family="Helvetica,sans-Serif" font-size="10.00">Write</text>
</a>
</g>
</g>
<!-- Node9&#45;&gt;Node10 -->
<g id="edge11" class="edge">
<title>Node9&#45;&gt;Node10</title>
<path fill="none" stroke="midnightblue" d="M456.14,-136.83C467.43,-136.15 479.19,-135.44 490.7,-134.75"/>
<polygon fill="midnightblue" stroke="midnightblue" points="490.94,-138.25 500.72,-134.15 490.52,-131.26 490.94,-138.25"/>
</g>
<!-- Node11 -->
<g id="node11" class="node">
<title>Node11</title>
<g id="a_node11"><a xlink:href="a00369.html#ga55e525c7ac54a365ab6dad558ec17f0b" target="_top" xlink:title="Returns the PWM generator index.">
<polygon fill="white" stroke="black" points="492,-76.5 492,-95.5 650,-95.5 650,-76.5 492,-76.5"/>
<text text-anchor="middle" x="571" y="-83.5" font-family="Helvetica,sans-Serif" font-size="10.00">p33c_PwmGenerator_GetHandle</text>
</a>
</g>
</g>
<!-- Node9&#45;&gt;Node11 -->
<g id="edge12" class="edge">
<title>Node9&#45;&gt;Node11</title>
<path fill="none" stroke="midnightblue" d="M413.66,-131.41C434.87,-124.07 465.15,-113.89 492,-106 501.26,-103.28 511.19,-100.57 520.77,-98.07"/>
<polygon fill="midnightblue" stroke="midnightblue" points="521.76,-101.43 530.57,-95.54 520.02,-94.65 521.76,-101.43"/>
</g>
<!-- Node13 -->
<g id="node13" class="node">
<title>Node13</title>
<g id="a_node13"><a xlink:href="a00369.html#ga8075fd40f867be8f42bb806622bd91bd" target="_top" xlink:title="Writes a user&#45;defined configuration to the PWM base module registers.">
<polygon fill="white" stroke="black" points="495,-38.5 495,-57.5 647,-57.5 647,-38.5 495,-38.5"/>
<text text-anchor="middle" x="571" y="-45.5" font-family="Helvetica,sans-Serif" font-size="10.00">p33c_PwmModule_ConfigWrite</text>
</a>
</g>
</g>
<!-- Node12&#45;&gt;Node13 -->
<g id="edge14" class="edge">
<title>Node12&#45;&gt;Node13</title>
<path fill="none" stroke="midnightblue" d="M454.05,-48C464.01,-48 474.38,-48 484.65,-48"/>
<polygon fill="midnightblue" stroke="midnightblue" points="484.86,-51.5 494.86,-48 484.86,-44.5 484.86,-51.5"/>
</g>
<!-- Node14 -->
<g id="node14" class="node">
<title>Node14</title>
<g id="a_node14"><a xlink:href="a00369.html#ga3ed5f08051a70f5cb426b8254119845f" target="_top" xlink:title="Gets pointer to PWM module SFR set.">
<polygon fill="white" stroke="black" points="497.5,-0.5 497.5,-19.5 644.5,-19.5 644.5,-0.5 497.5,-0.5"/>
<text text-anchor="middle" x="571" y="-7.5" font-family="Helvetica,sans-Serif" font-size="10.00">p33c_PwmModule_GetHandle</text>
</a>
</g>
</g>
<!-- Node12&#45;&gt;Node14 -->
<g id="edge15" class="edge">
<title>Node12&#45;&gt;Node14</title>
<path fill="none" stroke="midnightblue" d="M432.8,-38.41C457.46,-33.31 487.96,-26.99 513.94,-21.61"/>
<polygon fill="midnightblue" stroke="midnightblue" points="514.95,-24.98 524.03,-19.52 513.53,-18.12 514.95,-24.98"/>
</g>
</g>
</svg>
