<?xml version="1.0" encoding="UTF-8" standalone="no"?>
<!DOCTYPE svg PUBLIC "-//W3C//DTD SVG 1.1//EN"
 "http://www.w3.org/Graphics/SVG/1.1/DTD/svg11.dtd">
<!-- Generated by graphviz version 2.44.1 (20200629.0846)
 -->
<!-- Title: Conversion Macros Pages: 1 -->
<svg width="375pt" height="38pt"
 viewBox="0.00 0.00 375.00 38.00" xmlns="http://www.w3.org/2000/svg" xmlns:xlink="http://www.w3.org/1999/xlink">
<g id="graph0" class="graph" transform="scale(1 1) rotate(0) translate(4 34)">
<title>Conversion Macros</title>
<polygon fill="white" stroke="transparent" points="-4,4 -4,-34 371,-34 371,4 -4,4"/>
<!-- Node2 -->
<g id="node1" class="node">
<title>Node2</title>
<g id="a_node1"><a xlink:href="a00425.html" target="_top" xlink:title="Declaration of macros calculating additional parameters for Adaptive Gain Modulation.">
<polygon fill="white" stroke="black" points="110,-30 0,-30 0,0 110,0 110,-30"/>
<text text-anchor="start" x="8" y="-18" font-family="Helvetica,sans-Serif" font-size="10.00">Adaptive Gain Control</text>
<text text-anchor="middle" x="55" y="-7" font-family="Helvetica,sans-Serif" font-size="10.00"> Feed Forward</text>
</a>
</g>
</g>
<!-- Node1 -->
<g id="node2" class="node">
<title>Node1</title>
<g id="a_node2"><a xlink:title="Conversion macros for user&#45;declarations of Adaptive Gain Modulation parameters.">
<polygon fill="#bfbfbf" stroke="black" points="245,-24.5 146,-24.5 146,-5.5 245,-5.5 245,-24.5"/>
<text text-anchor="middle" x="195.5" y="-12.5" font-family="Helvetica,sans-Serif" font-size="10.00">Conversion Macros</text>
</a>
</g>
</g>
<!-- Node2&#45;&gt;Node1 -->
<g id="edge1" class="edge">
<title>Node2&#45;&gt;Node1</title>
<path fill="none" stroke="black" d="M120.58,-15C129.03,-15 137.58,-15 145.72,-15"/>
<polygon fill="black" stroke="black" points="120.34,-11.5 110.34,-15 120.34,-18.5 120.34,-11.5"/>
</g>
<!-- Node3 -->
<g id="node3" class="node">
<title>Node3</title>
<g id="a_node3"><a xlink:href="a00429.html" target="_top" xlink:title="Conversion macros for user&#45;declarations of Adaptive Gain Modulation parameters of the boost converter...">
<polygon fill="white" stroke="black" points="367,-24.5 281,-24.5 281,-5.5 367,-5.5 367,-24.5"/>
<text text-anchor="middle" x="324" y="-12.5" font-family="Helvetica,sans-Serif" font-size="10.00">Boost Converter</text>
</a>
</g>
</g>
<!-- Node1&#45;&gt;Node3 -->
<g id="edge2" class="edge">
<title>Node1&#45;&gt;Node3</title>
<path fill="none" stroke="black" d="M255.17,-15C263.88,-15 272.7,-15 280.98,-15"/>
<polygon fill="black" stroke="black" points="255.05,-11.5 245.05,-15 255.05,-18.5 255.05,-11.5"/>
</g>
</g>
</svg>
