<?xml version="1.0" encoding="UTF-8" standalone="no"?>
<!DOCTYPE svg PUBLIC "-//W3C//DTD SVG 1.1//EN"
 "http://www.w3.org/Graphics/SVG/1.1/DTD/svg11.dtd">
<!-- Generated by graphviz version 2.44.1 (20200629.0846)
 -->
<!-- Title: Boost Peripheral Templates Pages: 1 -->
<svg width="396pt" height="64pt"
 viewBox="0.00 0.00 396.00 64.00" xmlns="http://www.w3.org/2000/svg" xmlns:xlink="http://www.w3.org/1999/xlink">
<g id="graph0" class="graph" transform="scale(1 1) rotate(0) translate(4 60)">
<title>Boost Peripheral Templates</title>
<polygon fill="white" stroke="transparent" points="-4,4 -4,-60 392,-60 392,4 -4,4"/>
<!-- Node3 -->
<g id="node1" class="node">
<title>Node3</title>
<g id="a_node1"><a xlink:href="a00497.html" target="_top" xlink:title="Functions of the second library layer.">
<polygon fill="white" stroke="black" points="387,-56 328,-56 328,-37 387,-37 387,-56"/>
<text text-anchor="middle" x="357.5" y="-44" font-family="Helvetica,sans-Serif" font-size="10.00">Functions</text>
</a>
</g>
</g>
<!-- Node2 -->
<g id="node2" class="node">
<title>Node2</title>
<g id="a_node2"><a xlink:href="a00477.html" target="_top" xlink:title=" ">
<polygon fill="white" stroke="black" points="118,-42.5 0,-42.5 0,-12.5 118,-12.5 118,-42.5"/>
<text text-anchor="start" x="8" y="-30.5" font-family="Helvetica,sans-Serif" font-size="10.00">Boost Converter Library</text>
<text text-anchor="middle" x="59" y="-19.5" font-family="Helvetica,sans-Serif" font-size="10.00"> Modules</text>
</a>
</g>
</g>
<!-- Node1 -->
<g id="node3" class="node">
<title>Node1</title>
<g id="a_node3"><a xlink:title=" ">
<polygon fill="#bfbfbf" stroke="black" points="291,-37 154,-37 154,-18 291,-18 291,-37"/>
<text text-anchor="middle" x="222.5" y="-25" font-family="Helvetica,sans-Serif" font-size="10.00">Boost Peripheral Templates</text>
</a>
</g>
</g>
<!-- Node2&#45;&gt;Node1 -->
<g id="edge1" class="edge">
<title>Node2&#45;&gt;Node1</title>
<path fill="none" stroke="black" d="M128.48,-27.5C136.91,-27.5 145.53,-27.5 153.95,-27.5"/>
<polygon fill="black" stroke="black" points="128.31,-24 118.31,-27.5 128.31,-31 128.31,-24"/>
</g>
<!-- Node1&#45;&gt;Node3 -->
<g id="edge2" class="edge">
<title>Node1&#45;&gt;Node3</title>
<path fill="none" stroke="black" d="M300.56,-38.51C310.24,-39.89 319.62,-41.23 327.84,-42.41"/>
<polygon fill="black" stroke="black" points="300.78,-35.01 290.39,-37.06 299.79,-41.93 300.78,-35.01"/>
</g>
<!-- Node4 -->
<g id="node4" class="node">
<title>Node4</title>
<g id="a_node4"><a xlink:href="a00498.html" target="_top" xlink:title="Properties of the second library layer.">
<polygon fill="white" stroke="black" points="388,-19 327,-19 327,0 388,0 388,-19"/>
<text text-anchor="middle" x="357.5" y="-7" font-family="Helvetica,sans-Serif" font-size="10.00">Properties</text>
</a>
</g>
</g>
<!-- Node1&#45;&gt;Node4 -->
<g id="edge3" class="edge">
<title>Node1&#45;&gt;Node4</title>
<path fill="none" stroke="black" d="M301.15,-16.99C310.27,-15.76 319.1,-14.56 326.93,-13.5"/>
<polygon fill="black" stroke="black" points="300.61,-13.53 291.17,-18.34 301.55,-20.47 300.61,-13.53"/>
</g>
</g>
</svg>
