<?xml version="1.0" encoding="UTF-8" standalone="no"?>
<!DOCTYPE svg PUBLIC "-//W3C//DTD SVG 1.1//EN"
 "http://www.w3.org/Graphics/SVG/1.1/DTD/svg11.dtd">
<!-- Generated by graphviz version 2.44.1 (20200629.0846)
 -->
<!-- Title: boostPWM_Stop Pages: 1 -->
<svg width="411pt" height="28pt"
 viewBox="0.00 0.00 411.00 28.00" xmlns="http://www.w3.org/2000/svg" xmlns:xlink="http://www.w3.org/1999/xlink">
<g id="graph0" class="graph" transform="scale(1 1) rotate(0) translate(4 24)">
<title>boostPWM_Stop</title>
<polygon fill="white" stroke="transparent" points="-4,4 -4,-24 407,-24 407,4 -4,4"/>
<!-- Node1 -->
<g id="node1" class="node">
<title>Node1</title>
<g id="a_node1"><a xlink:title="This function stops the boost PWM output.">
<polygon fill="#bfbfbf" stroke="black" points="312,-0.5 312,-19.5 403,-19.5 403,-0.5 312,-0.5"/>
<text text-anchor="middle" x="357.5" y="-7.5" font-family="Helvetica,sans-Serif" font-size="10.00">boostPWM_Stop</text>
</a>
</g>
</g>
<!-- Node2 -->
<g id="node2" class="node">
<title>Node2</title>
<g id="a_node2"><a xlink:href="a00453.html#gaaf54320205622e4683e05c9c30c83dc0" target="_top" xlink:title="This function stop the boost converter opration.">
<polygon fill="white" stroke="black" points="151,-0.5 151,-19.5 276,-19.5 276,-0.5 151,-0.5"/>
<text text-anchor="middle" x="213.5" y="-7.5" font-family="Helvetica,sans-Serif" font-size="10.00">drv_BoostConverter_Stop</text>
</a>
</g>
</g>
<!-- Node1&#45;&gt;Node2 -->
<g id="edge1" class="edge">
<title>Node1&#45;&gt;Node2</title>
<path fill="none" stroke="midnightblue" d="M301.85,-10C293.41,-10 284.64,-10 276.05,-10"/>
<polygon fill="midnightblue" stroke="midnightblue" points="301.96,-13.5 311.96,-10 301.96,-6.5 301.96,-13.5"/>
</g>
<!-- Node3 -->
<g id="node3" class="node">
<title>Node3</title>
<g id="a_node3"><a xlink:href="a00446.html#gaa7d413f62f7b5f25d152cc12354241f0" target="_top" xlink:title="This function calls the boost converter device driver function stopping the power supply.">
<polygon fill="white" stroke="black" points="0,-0.5 0,-19.5 115,-19.5 115,-0.5 0,-0.5"/>
<text text-anchor="middle" x="57.5" y="-7.5" font-family="Helvetica,sans-Serif" font-size="10.00">appPowerSupply_Stop</text>
</a>
</g>
</g>
<!-- Node2&#45;&gt;Node3 -->
<g id="edge2" class="edge">
<title>Node2&#45;&gt;Node3</title>
<path fill="none" stroke="midnightblue" d="M140.5,-10C132.03,-10 123.49,-10 115.28,-10"/>
<polygon fill="midnightblue" stroke="midnightblue" points="140.75,-13.5 150.75,-10 140.75,-6.5 140.75,-13.5"/>
</g>
</g>
</svg>
