<?xml version="1.0" encoding="UTF-8" standalone="no"?>
<!DOCTYPE svg PUBLIC "-//W3C//DTD SVG 1.1//EN"
 "http://www.w3.org/Graphics/SVG/1.1/DTD/svg11.dtd">
<!-- Generated by graphviz version 2.40.1 (0)
 -->
<!-- Title: Startup Timing Settings Pages: 1 -->
<svg width="580pt" height="64pt"
 viewBox="0.00 0.00 580.00 64.00" xmlns="http://www.w3.org/2000/svg" xmlns:xlink="http://www.w3.org/1999/xlink">
<g id="graph0" class="graph" transform="scale(1 1) rotate(0) translate(4 60)">
<title>Startup Timing Settings</title>
<polygon fill="#ffffff" stroke="transparent" points="-4,4 -4,-60 576,-60 576,4 -4,4"/>
<!-- Node0 -->
<g id="node1" class="node">
<title>Node0</title>
<g id="a_node1"><a xlink:title="Declaration of startup timing periods.">
<polygon fill="#bfbfbf" stroke="#000000" points="392,-37 203,-37 203,-18 392,-18 392,-37"/>
<text text-anchor="middle" x="297.5" y="-25" font-family="Helvetica,sans-Serif" font-size="10.00" fill="#000000">Startup Timing Settings</text>
</a>
</g>
</g>
<!-- Node2 -->
<g id="node3" class="node">
<title>Node2</title>
<g id="a_node3"><a xlink:href="a00492.html" target="_top" xlink:title="User&#45;declaration of startup timing periods using physical quantities.">
<polygon fill="#ffffff" stroke="#000000" points="557,-56 443,-56 443,-37 557,-37 557,-56"/>
<text text-anchor="middle" x="500" y="-44" font-family="Helvetica,sans-Serif" font-size="10.00" fill="#000000">User Settings</text>
</a>
</g>
</g>
<!-- Node0&#45;&gt;Node2 -->
<g id="edge2" class="edge">
<title>Node0&#45;&gt;Node2</title>
<path fill="none" stroke="#000000" d="M402.3749,-37.3401C416.3082,-38.6474 430.1499,-39.9462 442.8427,-41.1371"/>
<polygon fill="#000000" stroke="#000000" points="402.5114,-33.8376 392.2281,-36.3881 401.8574,-40.807 402.5114,-33.8376"/>
</g>
<!-- Node3 -->
<g id="node4" class="node">
<title>Node3</title>
<g id="a_node4"><a xlink:href="a00494.html" target="_top" xlink:title="Conversion macros for user&#45;declarations of startup timing periods.">
<polygon fill="#ffffff" stroke="#000000" points="572,-19 428,-19 428,0 572,0 572,-19"/>
<text text-anchor="middle" x="500" y="-7" font-family="Helvetica,sans-Serif" font-size="10.00" fill="#000000">Conversion Macros</text>
</a>
</g>
</g>
<!-- Node0&#45;&gt;Node3 -->
<g id="edge3" class="edge">
<title>Node0&#45;&gt;Node3</title>
<path fill="none" stroke="#000000" d="M402.3169,-18.1829C410.9102,-17.4191 419.4693,-16.6583 427.746,-15.9226"/>
<polygon fill="#000000" stroke="#000000" points="401.8789,-14.708 392.2281,-19.0797 402.4988,-21.6805 401.8789,-14.708"/>
</g>
<!-- Node1 -->
<g id="node2" class="node">
<title>Node1</title>
<g id="a_node2"><a xlink:href="a00658.html" target="_top" xlink:title="Hardware Abstraction Layer Declarations.">
<polygon fill="#ffffff" stroke="#000000" points="167,-42.5 0,-42.5 0,-12.5 167,-12.5 167,-42.5"/>
<text text-anchor="start" x="8" y="-30.5" font-family="Helvetica,sans-Serif" font-size="10.00" fill="#000000">Hardware Abstraction</text>
<text text-anchor="middle" x="83.5" y="-19.5" font-family="Helvetica,sans-Serif" font-size="10.00" fill="#000000"> Layer</text>
</a>
</g>
</g>
<!-- Node1&#45;&gt;Node0 -->
<g id="edge1" class="edge">
<title>Node1&#45;&gt;Node0</title>
<path fill="none" stroke="#000000" d="M177.4073,-27.5C185.8673,-27.5 194.4381,-27.5 202.904,-27.5"/>
<polygon fill="#000000" stroke="#000000" points="177.1575,-24.0001 167.1574,-27.5 177.1574,-31.0001 177.1575,-24.0001"/>
</g>
</g>
</svg>
