<?xml version="1.0" encoding="UTF-8" standalone="no"?>
<!DOCTYPE svg PUBLIC "-//W3C//DTD SVG 1.1//EN"
 "http://www.w3.org/Graphics/SVG/1.1/DTD/svg11.dtd">
<!-- Generated by graphviz version 2.44.1 (20200629.0846)
 -->
<!-- Title: Boost Converter State Machine Pages: 1 -->
<svg width="371pt" height="64pt"
 viewBox="0.00 0.00 371.00 64.00" xmlns="http://www.w3.org/2000/svg" xmlns:xlink="http://www.w3.org/1999/xlink">
<g id="graph0" class="graph" transform="scale(1 1) rotate(0) translate(4 60)">
<title>Boost Converter State Machine</title>
<polygon fill="white" stroke="transparent" points="-4,4 -4,-60 367,-60 367,4 -4,4"/>
<!-- Node1 -->
<g id="node1" class="node">
<title>Node1</title>
<g id="a_node1"><a xlink:title="Description of the Boost Converter Library State Machine library module.">
<polygon fill="#bfbfbf" stroke="black" points="266,-42.5 154,-42.5 154,-12.5 266,-12.5 266,-42.5"/>
<text text-anchor="start" x="162" y="-30.5" font-family="Helvetica,sans-Serif" font-size="10.00">Boost Converter State</text>
<text text-anchor="middle" x="210" y="-19.5" font-family="Helvetica,sans-Serif" font-size="10.00"> Machine</text>
</a>
</g>
</g>
<!-- Node4 -->
<g id="node2" class="node">
<title>Node4</title>
<g id="a_node2"><a xlink:href="a00465.html" target="_top" xlink:title="Properties of the second library layer.">
<polygon fill="white" stroke="black" points="363,-56 302,-56 302,-37 363,-37 363,-56"/>
<text text-anchor="middle" x="332.5" y="-44" font-family="Helvetica,sans-Serif" font-size="10.00">Properties</text>
</a>
</g>
</g>
<!-- Node1&#45;&gt;Node4 -->
<g id="edge3" class="edge">
<title>Node1&#45;&gt;Node4</title>
<path fill="none" stroke="black" d="M276.38,-37.81C285.28,-39.21 294.03,-40.59 301.84,-41.82"/>
<polygon fill="black" stroke="black" points="276.74,-34.32 266.31,-36.22 275.65,-41.24 276.74,-34.32"/>
</g>
<!-- Node3 -->
<g id="node3" class="node">
<title>Node3</title>
<g id="a_node3"><a xlink:href="a00464.html" target="_top" xlink:title="Functions of the second library layer.">
<polygon fill="white" stroke="black" points="362,-19 303,-19 303,0 362,0 362,-19"/>
<text text-anchor="middle" x="332.5" y="-7" font-family="Helvetica,sans-Serif" font-size="10.00">Functions</text>
</a>
</g>
</g>
<!-- Node1&#45;&gt;Node3 -->
<g id="edge2" class="edge">
<title>Node1&#45;&gt;Node3</title>
<path fill="none" stroke="black" d="M276.39,-17.73C285.66,-16.35 294.76,-14.99 302.81,-13.79"/>
<polygon fill="black" stroke="black" points="275.69,-14.3 266.31,-19.24 276.72,-21.22 275.69,-14.3"/>
</g>
<!-- Node2 -->
<g id="node4" class="node">
<title>Node2</title>
<g id="a_node4"><a xlink:href="a00462.html" target="_top" xlink:title=" ">
<polygon fill="white" stroke="black" points="118,-42.5 0,-42.5 0,-12.5 118,-12.5 118,-42.5"/>
<text text-anchor="start" x="8" y="-30.5" font-family="Helvetica,sans-Serif" font-size="10.00">Boost Converter Library</text>
<text text-anchor="middle" x="59" y="-19.5" font-family="Helvetica,sans-Serif" font-size="10.00"> Modules</text>
</a>
</g>
</g>
<!-- Node2&#45;&gt;Node1 -->
<g id="edge1" class="edge">
<title>Node2&#45;&gt;Node1</title>
<path fill="none" stroke="black" d="M128.07,-27.5C136.69,-27.5 145.42,-27.5 153.81,-27.5"/>
<polygon fill="black" stroke="black" points="128.03,-24 118.03,-27.5 128.03,-31 128.03,-24"/>
</g>
</g>
</svg>
