<?xml version="1.0" encoding="UTF-8" standalone="no"?>
<!DOCTYPE svg PUBLIC "-//W3C//DTD SVG 1.1//EN"
 "http://www.w3.org/Graphics/SVG/1.1/DTD/svg11.dtd">
<!-- Generated by graphviz version 2.44.1 (20200629.0846)
 -->
<!-- Title: appPowerSupply_Suspend Pages: 1 -->
<svg width="759pt" height="39pt"
 viewBox="0.00 0.00 759.00 39.00" xmlns="http://www.w3.org/2000/svg" xmlns:xlink="http://www.w3.org/1999/xlink">
<g id="graph0" class="graph" transform="scale(1 1) rotate(0) translate(4 35)">
<title>appPowerSupply_Suspend</title>
<polygon fill="white" stroke="transparent" points="-4,4 -4,-35 755,-35 755,4 -4,4"/>
<!-- Node1 -->
<g id="node1" class="node">
<title>Node1</title>
<g id="a_node1"><a xlink:title="This function stops the power supply operation.">
<polygon fill="#bfbfbf" stroke="black" points="0,-6 0,-25 133,-25 133,-6 0,-6"/>
<text text-anchor="middle" x="66.5" y="-13" font-family="Helvetica,sans-Serif" font-size="10.00">appPowerSupply_Suspend</text>
</a>
</g>
</g>
<!-- Node2 -->
<g id="node2" class="node">
<title>Node2</title>
<g id="a_node2"><a xlink:href="a00465.html#ga06815ea10e42fd1e1347e17e90bf49b9" target="_top" xlink:title="This function suspends the operation of the boost converter.">
<polygon fill="white" stroke="black" points="169,-0.5 169,-30.5 269,-30.5 269,-0.5 169,-0.5"/>
<text text-anchor="start" x="177" y="-18.5" font-family="Helvetica,sans-Serif" font-size="10.00">drv_BoostConverter</text>
<text text-anchor="middle" x="219" y="-7.5" font-family="Helvetica,sans-Serif" font-size="10.00">_Suspend</text>
</a>
</g>
</g>
<!-- Node1&#45;&gt;Node2 -->
<g id="edge1" class="edge">
<title>Node1&#45;&gt;Node2</title>
<path fill="none" stroke="midnightblue" d="M133.07,-15.5C141.63,-15.5 150.36,-15.5 158.81,-15.5"/>
<polygon fill="midnightblue" stroke="midnightblue" points="158.94,-19 168.94,-15.5 158.94,-12 158.94,-19"/>
</g>
<!-- Node3 -->
<g id="node3" class="node">
<title>Node3</title>
<g id="a_node3"><a xlink:href="a00465.html#gac9132ab11bac82cf39cc4647fa7b5a1a" target="_top" xlink:title="This function is the main boost converter state machine executing the most recent state.">
<polygon fill="white" stroke="black" points="305,-0.5 305,-30.5 405,-30.5 405,-0.5 305,-0.5"/>
<text text-anchor="start" x="313" y="-18.5" font-family="Helvetica,sans-Serif" font-size="10.00">drv_BoostConverter</text>
<text text-anchor="middle" x="355" y="-7.5" font-family="Helvetica,sans-Serif" font-size="10.00">_Execute</text>
</a>
</g>
</g>
<!-- Node2&#45;&gt;Node3 -->
<g id="edge2" class="edge">
<title>Node2&#45;&gt;Node3</title>
<path fill="none" stroke="midnightblue" d="M269.14,-15.5C277.42,-15.5 286.1,-15.5 294.61,-15.5"/>
<polygon fill="midnightblue" stroke="midnightblue" points="294.87,-19 304.87,-15.5 294.87,-12 294.87,-19"/>
</g>
<!-- Node4 -->
<g id="node4" class="node">
<title>Node4</title>
<g id="a_node4"><a xlink:href="a00488.html#ga2690f2504ec6bad359a1ad75316a13f1" target="_top" xlink:title="This function gets the state of the selected pin.">
<polygon fill="white" stroke="black" points="441,-6 441,-25 564,-25 564,-6 441,-6"/>
<text text-anchor="middle" x="502.5" y="-13" font-family="Helvetica,sans-Serif" font-size="10.00">boostGPIO_GetPinState</text>
</a>
</g>
</g>
<!-- Node3&#45;&gt;Node4 -->
<g id="edge3" class="edge">
<title>Node3&#45;&gt;Node4</title>
<path fill="none" stroke="midnightblue" d="M405.26,-15.5C413.5,-15.5 422.18,-15.5 430.83,-15.5"/>
<polygon fill="midnightblue" stroke="midnightblue" points="430.93,-19 440.93,-15.5 430.93,-12 430.93,-19"/>
</g>
<!-- Node5 -->
<g id="node5" class="node">
<title>Node5</title>
<g id="a_node5"><a xlink:href="a00365.html#ga4d67af688d8f7f911d79107974e11e6b" target="_top" xlink:title="Gets pointer to GPIO Instance SFR set.">
<polygon fill="white" stroke="black" points="600,-6 600,-25 751,-25 751,-6 600,-6"/>
<text text-anchor="middle" x="675.5" y="-13" font-family="Helvetica,sans-Serif" font-size="10.00">p33c_GpioInstance_GetHandle</text>
</a>
</g>
</g>
<!-- Node4&#45;&gt;Node5 -->
<g id="edge4" class="edge">
<title>Node4&#45;&gt;Node5</title>
<path fill="none" stroke="midnightblue" d="M564.27,-15.5C572.55,-15.5 581.17,-15.5 589.78,-15.5"/>
<polygon fill="midnightblue" stroke="midnightblue" points="589.85,-19 599.85,-15.5 589.85,-12 589.85,-19"/>
</g>
</g>
</svg>
