<?xml version="1.0" encoding="UTF-8" standalone="no"?>
<!DOCTYPE svg PUBLIC "-//W3C//DTD SVG 1.1//EN"
 "http://www.w3.org/Graphics/SVG/1.1/DTD/svg11.dtd">
<!-- Generated by graphviz version 2.44.1 (20200629.0846)
 -->
<!-- Title: Private Properties Pages: 1 -->
<svg width="424pt" height="101pt"
 viewBox="0.00 0.00 424.00 101.00" xmlns="http://www.w3.org/2000/svg" xmlns:xlink="http://www.w3.org/1999/xlink">
<g id="graph0" class="graph" transform="scale(1 1) rotate(0) translate(4 97)">
<title>Private Properties</title>
<polygon fill="white" stroke="transparent" points="-4,4 -4,-97 420,-97 420,4 -4,4"/>
<!-- Node2 -->
<g id="node1" class="node">
<title>Node2</title>
<g id="a_node1"><a xlink:href="a00464.html" target="_top" xlink:title=" ">
<polygon fill="white" stroke="black" points="137,-56 0,-56 0,-37 137,-37 137,-56"/>
<text text-anchor="middle" x="68.5" y="-44" font-family="Helvetica,sans-Serif" font-size="10.00">Boost Converter Library API</text>
</a>
</g>
</g>
<!-- Node1 -->
<g id="node4" class="node">
<title>Node1</title>
<g id="a_node4"><a xlink:title="Private properties of the second library layer.">
<polygon fill="#bfbfbf" stroke="black" points="266,-56 173,-56 173,-37 266,-37 266,-56"/>
<text text-anchor="middle" x="219.5" y="-44" font-family="Helvetica,sans-Serif" font-size="10.00">Private Properties</text>
</a>
</g>
</g>
<!-- Node2&#45;&gt;Node1 -->
<g id="edge1" class="edge">
<title>Node2&#45;&gt;Node1</title>
<path fill="none" stroke="black" d="M147.03,-46.5C155.9,-46.5 164.71,-46.5 172.96,-46.5"/>
<polygon fill="black" stroke="black" points="147.02,-43 137.02,-46.5 147.02,-50 147.02,-43"/>
</g>
<!-- Node5 -->
<g id="node2" class="node">
<title>Node5</title>
<g id="a_node2"><a xlink:href="a00473.html" target="_top" xlink:title=" ">
<polygon fill="white" stroke="black" points="410.5,-93 307.5,-93 307.5,-74 410.5,-74 410.5,-93"/>
<text text-anchor="middle" x="359" y="-81" font-family="Helvetica,sans-Serif" font-size="10.00">Defines and Macros</text>
</a>
</g>
</g>
<!-- Node3 -->
<g id="node3" class="node">
<title>Node3</title>
<g id="a_node3"><a xlink:href="a00471.html" target="_top" xlink:title=" ">
<polygon fill="white" stroke="black" points="416,-56 302,-56 302,-37 416,-37 416,-56"/>
<text text-anchor="middle" x="359" y="-44" font-family="Helvetica,sans-Serif" font-size="10.00">Variables &amp; Constants</text>
</a>
</g>
</g>
<!-- Node1&#45;&gt;Node5 -->
<g id="edge4" class="edge">
<title>Node1&#45;&gt;Node5</title>
<path fill="none" stroke="black" d="M265.8,-58.69C284.13,-63.62 304.99,-69.24 322.23,-73.88"/>
<polygon fill="black" stroke="black" points="266.48,-55.25 255.91,-56.03 264.66,-62.01 266.48,-55.25"/>
</g>
<!-- Node1&#45;&gt;Node3 -->
<g id="edge2" class="edge">
<title>Node1&#45;&gt;Node3</title>
<path fill="none" stroke="black" d="M276.38,-46.5C284.79,-46.5 293.47,-46.5 301.89,-46.5"/>
<polygon fill="black" stroke="black" points="276.29,-43 266.29,-46.5 276.29,-50 276.29,-43"/>
</g>
<!-- Node4 -->
<g id="node5" class="node">
<title>Node4</title>
<g id="a_node5"><a xlink:href="a00472.html" target="_top" xlink:title=" ">
<polygon fill="white" stroke="black" points="392,-19 326,-19 326,0 392,0 392,-19"/>
<text text-anchor="middle" x="359" y="-7" font-family="Helvetica,sans-Serif" font-size="10.00">Data Types</text>
</a>
</g>
</g>
<!-- Node1&#45;&gt;Node4 -->
<g id="edge3" class="edge">
<title>Node1&#45;&gt;Node4</title>
<path fill="none" stroke="black" d="M265.82,-34.31C285.33,-29.05 307.72,-23.03 325.54,-18.24"/>
<polygon fill="black" stroke="black" points="264.66,-30.99 255.91,-36.97 266.48,-37.75 264.66,-30.99"/>
</g>
</g>
</svg>
