<?xml version="1.0" encoding="UTF-8" standalone="no"?>
<!DOCTYPE svg PUBLIC "-//W3C//DTD SVG 1.1//EN"
 "http://www.w3.org/Graphics/SVG/1.1/DTD/svg11.dtd">
<!-- Generated by graphviz version 2.40.1 (0)
 -->
<!-- Title: State Machine Settings Pages: 1 -->
<svg width="663pt" height="101pt"
 viewBox="0.00 0.00 663.00 101.00" xmlns="http://www.w3.org/2000/svg" xmlns:xlink="http://www.w3.org/1999/xlink">
<g id="graph0" class="graph" transform="scale(1 1) rotate(0) translate(4 97)">
<title>State Machine Settings</title>
<polygon fill="#ffffff" stroke="transparent" points="-4,4 -4,-97 659,-97 659,4 -4,4"/>
<!-- Node1 -->
<g id="node1" class="node">
<title>Node1</title>
<g id="a_node1"><a xlink:href="a00658.html" target="_top" xlink:title="Hardware Abstraction Layer Declarations.">
<polygon fill="#ffffff" stroke="#000000" points="167,-61.5 0,-61.5 0,-31.5 167,-31.5 167,-61.5"/>
<text text-anchor="start" x="8" y="-49.5" font-family="Helvetica,sans-Serif" font-size="10.00" fill="#000000">Hardware Abstraction</text>
<text text-anchor="middle" x="83.5" y="-38.5" font-family="Helvetica,sans-Serif" font-size="10.00" fill="#000000"> Layer</text>
</a>
</g>
</g>
<!-- Node0 -->
<g id="node3" class="node">
<title>Node0</title>
<g id="a_node3"><a xlink:title="Declaration of global state&#45;machine parameters.">
<polygon fill="#bfbfbf" stroke="#000000" points="385,-56 203,-56 203,-37 385,-37 385,-56"/>
<text text-anchor="middle" x="294" y="-44" font-family="Helvetica,sans-Serif" font-size="10.00" fill="#000000">State Machine Settings</text>
</a>
</g>
</g>
<!-- Node1&#45;&gt;Node0 -->
<g id="edge1" class="edge">
<title>Node1&#45;&gt;Node0</title>
<path fill="none" stroke="#000000" d="M177.519,-46.5C185.9484,-46.5 194.475,-46.5 202.8792,-46.5"/>
<polygon fill="#000000" stroke="#000000" points="177.3,-43.0001 167.3,-46.5 177.3,-50.0001 177.3,-43.0001"/>
</g>
<!-- Node2 -->
<g id="node2" class="node">
<title>Node2</title>
<g id="a_node2"><a xlink:href="a00488.html" target="_top" xlink:title="Parameter definitions using physical quantities.">
<polygon fill="#ffffff" stroke="#000000" points="595,-93 481,-93 481,-74 595,-74 595,-93"/>
<text text-anchor="middle" x="538" y="-81" font-family="Helvetica,sans-Serif" font-size="10.00" fill="#000000">User Settings</text>
</a>
</g>
</g>
<!-- Node0&#45;&gt;Node2 -->
<g id="edge2" class="edge">
<title>Node0&#45;&gt;Node2</title>
<path fill="none" stroke="#000000" d="M366.9148,-57.5567C403.3562,-63.0827 446.8098,-69.672 480.8049,-74.827"/>
<polygon fill="#000000" stroke="#000000" points="367.2478,-54.0673 356.8361,-56.0284 366.1983,-60.9882 367.2478,-54.0673"/>
</g>
<!-- Node3 -->
<g id="node4" class="node">
<title>Node3</title>
<g id="a_node4"><a xlink:href="a00489.html" target="_top" xlink:title="Conversion macros converting physical quantities of parameters into binary (integer) numbers for regi...">
<polygon fill="#ffffff" stroke="#000000" points="610,-56 466,-56 466,-37 610,-37 610,-56"/>
<text text-anchor="middle" x="538" y="-44" font-family="Helvetica,sans-Serif" font-size="10.00" fill="#000000">Conversion Macros</text>
</a>
</g>
</g>
<!-- Node0&#45;&gt;Node3 -->
<g id="edge3" class="edge">
<title>Node0&#45;&gt;Node3</title>
<path fill="none" stroke="#000000" d="M395.2909,-46.5C419.0071,-46.5 443.7988,-46.5 465.9387,-46.5"/>
<polygon fill="#000000" stroke="#000000" points="395.2036,-43.0001 385.2036,-46.5 395.2035,-50.0001 395.2036,-43.0001"/>
</g>
<!-- Node4 -->
<g id="node5" class="node">
<title>Node4</title>
<g id="a_node5"><a xlink:href="a00490.html" target="_top" xlink:title="Assignment of microcontroller device specific chip&#45;resources to circuit functions and signals.">
<polygon fill="#ffffff" stroke="#000000" points="655,-19 421,-19 421,0 655,0 655,-19"/>
<text text-anchor="middle" x="538" y="-7" font-family="Helvetica,sans-Serif" font-size="10.00" fill="#000000">Device Peripheral Assignments</text>
</a>
</g>
</g>
<!-- Node0&#45;&gt;Node4 -->
<g id="edge4" class="edge">
<title>Node0&#45;&gt;Node4</title>
<path fill="none" stroke="#000000" d="M366.8269,-35.4566C401.2274,-30.2401 441.8923,-24.0737 474.9533,-19.0604"/>
<polygon fill="#000000" stroke="#000000" points="366.1983,-32.0118 356.8361,-36.9716 367.2478,-38.9327 366.1983,-32.0118"/>
</g>
</g>
</svg>
