<?xml version="1.0" encoding="UTF-8" standalone="no"?>
<!DOCTYPE svg PUBLIC "-//W3C//DTD SVG 1.1//EN"
 "http://www.w3.org/Graphics/SVG/1.1/DTD/svg11.dtd">
<!-- Generated by graphviz version 2.44.1 (20200629.0846)
 -->
<!-- Title: User Settings Pages: 1 -->
<svg width="352pt" height="38pt"
 viewBox="0.00 0.00 352.00 38.00" xmlns="http://www.w3.org/2000/svg" xmlns:xlink="http://www.w3.org/1999/xlink">
<g id="graph0" class="graph" transform="scale(1 1) rotate(0) translate(4 34)">
<title>User Settings</title>
<polygon fill="white" stroke="transparent" points="-4,4 -4,-34 348,-34 348,4 -4,4"/>
<!-- Node3 -->
<g id="node1" class="node">
<title>Node3</title>
<g id="a_node1"><a xlink:href="a00427.html" target="_top" xlink:title="User&#45;declaration of Adaptive Gain Modulation parameters of the boost converter using physical quantit...">
<polygon fill="white" stroke="black" points="344,-24.5 258,-24.5 258,-5.5 344,-5.5 344,-24.5"/>
<text text-anchor="middle" x="301" y="-12.5" font-family="Helvetica,sans-Serif" font-size="10.00">Boost Converter</text>
</a>
</g>
</g>
<!-- Node2 -->
<g id="node2" class="node">
<title>Node2</title>
<g id="a_node2"><a xlink:href="a00425.html" target="_top" xlink:title="Declaration of macros calculating additional parameters for Adaptive Gain Modulation.">
<polygon fill="white" stroke="black" points="110,-30 0,-30 0,0 110,0 110,-30"/>
<text text-anchor="start" x="8" y="-18" font-family="Helvetica,sans-Serif" font-size="10.00">Adaptive Gain Control</text>
<text text-anchor="middle" x="55" y="-7" font-family="Helvetica,sans-Serif" font-size="10.00"> Feed Forward</text>
</a>
</g>
</g>
<!-- Node1 -->
<g id="node3" class="node">
<title>Node1</title>
<g id="a_node3"><a xlink:title="User&#45;declaration of Adaptive Gain Modulation parameters using physical quantities.">
<polygon fill="#bfbfbf" stroke="black" points="222,-24.5 146,-24.5 146,-5.5 222,-5.5 222,-24.5"/>
<text text-anchor="middle" x="184" y="-12.5" font-family="Helvetica,sans-Serif" font-size="10.00">User Settings</text>
</a>
</g>
</g>
<!-- Node2&#45;&gt;Node1 -->
<g id="edge1" class="edge">
<title>Node2&#45;&gt;Node1</title>
<path fill="none" stroke="black" d="M120.42,-15C129.13,-15 137.81,-15 145.82,-15"/>
<polygon fill="black" stroke="black" points="120.23,-11.5 110.23,-15 120.23,-18.5 120.23,-11.5"/>
</g>
<!-- Node1&#45;&gt;Node3 -->
<g id="edge2" class="edge">
<title>Node1&#45;&gt;Node3</title>
<path fill="none" stroke="black" d="M232.19,-15C240.69,-15 249.51,-15 257.85,-15"/>
<polygon fill="black" stroke="black" points="232.02,-11.5 222.02,-15 232.02,-18.5 232.02,-11.5"/>
</g>
</g>
</svg>
