<?xml version="1.0" encoding="UTF-8" standalone="no"?>
<!DOCTYPE svg PUBLIC "-//W3C//DTD SVG 1.1//EN"
 "http://www.w3.org/Graphics/SVG/1.1/DTD/svg11.dtd">
<!-- Generated by graphviz version 2.40.1 (0)
 -->
<!-- Title: Conversion Macros Pages: 1 -->
<svg width="527pt" height="38pt"
 viewBox="0.00 0.00 527.00 38.00" xmlns="http://www.w3.org/2000/svg" xmlns:xlink="http://www.w3.org/1999/xlink">
<g id="graph0" class="graph" transform="scale(1 1) rotate(0) translate(4 34)">
<title>Conversion Macros</title>
<polygon fill="#ffffff" stroke="transparent" points="-4,4 -4,-34 523,-34 523,4 -4,4"/>
<!-- Node1 -->
<g id="node1" class="node">
<title>Node1</title>
<g id="a_node1"><a xlink:href="a00533.html" target="_top" xlink:title="Declaration of macros calculating additional parameters for Adaptive Gain Modulation.">
<polygon fill="#ffffff" stroke="#000000" points="174,-30 0,-30 0,0 174,0 174,-30"/>
<text text-anchor="start" x="8" y="-18" font-family="Helvetica,sans-Serif" font-size="10.00" fill="#000000">Adaptive Gain Control</text>
<text text-anchor="middle" x="87" y="-7" font-family="Helvetica,sans-Serif" font-size="10.00" fill="#000000"> Feed Forward</text>
</a>
</g>
</g>
<!-- Node0 -->
<g id="node2" class="node">
<title>Node0</title>
<g id="a_node2"><a xlink:title="Conversion macros for user&#45;declarations of Adaptive Gain Modulation parameters.">
<polygon fill="#bfbfbf" stroke="#000000" points="354,-24.5 210,-24.5 210,-5.5 354,-5.5 354,-24.5"/>
<text text-anchor="middle" x="282" y="-12.5" font-family="Helvetica,sans-Serif" font-size="10.00" fill="#000000">Conversion Macros</text>
</a>
</g>
</g>
<!-- Node1&#45;&gt;Node0 -->
<g id="edge1" class="edge">
<title>Node1&#45;&gt;Node0</title>
<path fill="none" stroke="#000000" d="M184.2772,-15C192.8471,-15 201.4194,-15 209.7291,-15"/>
<polygon fill="#000000" stroke="#000000" points="184.2338,-11.5001 174.2337,-15 184.2337,-18.5001 184.2338,-11.5001"/>
</g>
<!-- Node2 -->
<g id="node3" class="node">
<title>Node2</title>
<g id="a_node3"><a xlink:href="a00537.html" target="_top" xlink:title="Conversion macros for user&#45;declarations of Adaptive Gain Modulation parameters of the boost converter...">
<polygon fill="#ffffff" stroke="#000000" points="519,-24.5 390,-24.5 390,-5.5 519,-5.5 519,-24.5"/>
<text text-anchor="middle" x="454.5" y="-12.5" font-family="Helvetica,sans-Serif" font-size="10.00" fill="#000000">Boost Converter</text>
</a>
</g>
</g>
<!-- Node0&#45;&gt;Node2 -->
<g id="edge2" class="edge">
<title>Node0&#45;&gt;Node2</title>
<path fill="none" stroke="#000000" d="M364.1926,-15C372.7807,-15 381.4226,-15 389.7766,-15"/>
<polygon fill="#000000" stroke="#000000" points="364.1561,-11.5001 354.156,-15 364.156,-18.5001 364.1561,-11.5001"/>
</g>
</g>
</svg>
