<?xml version="1.0" encoding="UTF-8" standalone="no"?>
<!DOCTYPE svg PUBLIC "-//W3C//DTD SVG 1.1//EN"
 "http://www.w3.org/Graphics/SVG/1.1/DTD/svg11.dtd">
<!-- Generated by graphviz version 2.40.1 (0)
 -->
<!-- Title: Power Control Application Layer Pages: 1 -->
<!--zoomable 175 -->
<svg id="main" version="1.1" xmlns="http://www.w3.org/2000/svg" xmlns:xlink="http://www.w3.org/1999/xlink" xml:space="preserve" onload="init(evt)">
<style type="text/css"><![CDATA[
.edge:hover path { stroke: red; }
.edge:hover polygon { stroke: red; fill: red; }
]]></style>
<script type="text/javascript"><![CDATA[
var edges = document.getElementsByTagName('g');
if (edges && edges.length) {
  for (var i=0;i<edges.length;i++) {
    if (edges[i].id.substr(0,4)=='edge') {
      edges[i].setAttribute('class','edge');
    }
  }
}
]]></script>
        <defs>
                <circle id="rim" cx="0" cy="0" r="7"/>
                <circle id="rim2" cx="0" cy="0" r="3.5"/>
                <g id="zoomPlus">
                        <use xlink:href="#rim" fill="#404040">
                                <set attributeName="fill" to="#808080" begin="zoomplus.mouseover" end="zoomplus.mouseout"/>
                        </use>
                        <path d="M-4,0h8M0,-4v8" fill="none" stroke="white" stroke-width="1.5" pointer-events="none"/>
                </g>
                <g id="zoomMin">
                        <use xlink:href="#rim" fill="#404040">
                                <set attributeName="fill" to="#808080" begin="zoomminus.mouseover" end="zoomminus.mouseout"/>
                        </use>
                        <path d="M-4,0h8" fill="none" stroke="white" stroke-width="1.5" pointer-events="none"/>
                </g>
                <g id="dirArrow">
                        <path fill="none" stroke="white" stroke-width="1.5" d="M0,-3.0v7 M-2.5,-0.5L0,-3.0L2.5,-0.5"/>
                </g>
               <g id="resetDef">
                       <use xlink:href="#rim2" fill="#404040">
                               <set attributeName="fill" to="#808080" begin="reset.mouseover" end="reset.mouseout"/>
                       </use>
               </g>
        </defs>

<script type="text/javascript">
var viewWidth = 602;
var viewHeight = 175;
var sectionId = 'dynsection-0';
</script>
<script xlink:href="svgpan.js"/>
<svg id="graph" class="graph">
<g id="viewport">
<title>Power Control Application Layer</title>
<polygon fill="#ffffff" stroke="transparent" points="-4,4 -4,-171 598,-171 598,4 -4,4"/>
<!-- Node0 -->
<g id="node1" class="node">
<title>Node0</title>
<g id="a_node1"><a xlink:title=" ">
<polygon fill="#bfbfbf" stroke="#000000" points="384,-98.5 180,-98.5 180,-68.5 384,-68.5 384,-98.5"/>
<text text-anchor="start" x="188" y="-86.5" font-family="Helvetica,sans-Serif" font-size="10.00" fill="#000000">Power Control Application</text>
<text text-anchor="middle" x="282" y="-75.5" font-family="Helvetica,sans-Serif" font-size="10.00" fill="#000000"> Layer</text>
</a>
</g>
</g>
<!-- Node2 -->
<g id="node2" class="node">
<title>Node2</title>
<g id="a_node2"><a xlink:href="a00582.html" target="_top" xlink:title="Public functions of the application layer of the power control task.">
<polygon fill="#ffffff" stroke="#000000" points="575.5,-167 438.5,-167 438.5,-148 575.5,-148 575.5,-167"/>
<text text-anchor="middle" x="507" y="-155" font-family="Helvetica,sans-Serif" font-size="10.00" fill="#000000">Public Functions</text>
</a>
</g>
</g>
<!-- Node0&#45;&gt;Node2 -->
<g id="edge2" class="edge">
<title>Node0&#45;&gt;Node2</title>
<path fill="none" stroke="#000000" d="M323.4553,-102.6272C350.494,-114.5235 386.803,-129.4214 420,-139.5 430.6264,-142.7262 442.1573,-145.5614 453.2433,-147.9705"/>
<polygon fill="#000000" stroke="#000000" points="324.8579,-99.4205 314.2983,-98.5573 322.0148,-105.8171 324.8579,-99.4205"/>
</g>
<!-- Node3 -->
<g id="node3" class="node">
<title>Node3</title>
<g id="a_node3"><a xlink:href="a00583.html" target="_top" xlink:title="Public properties of the application layer of the power control task.">
<polygon fill="#ffffff" stroke="#000000" points="579,-130 435,-130 435,-111 579,-111 579,-130"/>
<text text-anchor="middle" x="507" y="-118" font-family="Helvetica,sans-Serif" font-size="10.00" fill="#000000">Public Properties</text>
</a>
</g>
</g>
<!-- Node0&#45;&gt;Node3 -->
<g id="edge3" class="edge">
<title>Node0&#45;&gt;Node3</title>
<path fill="none" stroke="#000000" d="M383.4594,-100.1844C405.9718,-103.8865 429.0796,-107.6864 449.13,-110.9836"/>
<polygon fill="#000000" stroke="#000000" points="383.9515,-96.7184 373.5161,-98.5493 382.8156,-103.6257 383.9515,-96.7184"/>
</g>
<!-- Node5 -->
<g id="node4" class="node">
<title>Node5</title>
<g id="a_node4"><a xlink:href="a00585.html" target="_top" xlink:title="Private functions of the application layer of the power control task.">
<polygon fill="#ffffff" stroke="#000000" points="579,-93 435,-93 435,-74 579,-74 579,-93"/>
<text text-anchor="middle" x="507" y="-81" font-family="Helvetica,sans-Serif" font-size="10.00" fill="#000000">Private Functions</text>
</a>
</g>
</g>
<!-- Node0&#45;&gt;Node5 -->
<g id="edge5" class="edge">
<title>Node0&#45;&gt;Node5</title>
<path fill="none" stroke="#000000" d="M394.3185,-83.5C408.1009,-83.5 421.887,-83.5 434.8493,-83.5"/>
<polygon fill="#000000" stroke="#000000" points="394.2952,-80.0001 384.2952,-83.5 394.2952,-87.0001 394.2952,-80.0001"/>
</g>
<!-- Node4 -->
<g id="node6" class="node">
<title>Node4</title>
<g id="a_node6"><a xlink:href="a00584.html" target="_top" xlink:title="Public events of the application layer of the power control task.">
<polygon fill="#ffffff" stroke="#000000" points="594,-56 420,-56 420,-37 594,-37 594,-56"/>
<text text-anchor="middle" x="507" y="-44" font-family="Helvetica,sans-Serif" font-size="10.00" fill="#000000">Events and Interrupts</text>
</a>
</g>
</g>
<!-- Node0&#45;&gt;Node4 -->
<g id="edge4" class="edge">
<title>Node0&#45;&gt;Node4</title>
<path fill="none" stroke="#000000" d="M383.4594,-66.8156C405.9718,-63.1135 429.0796,-59.3136 449.13,-56.0164"/>
<polygon fill="#000000" stroke="#000000" points="382.8156,-63.3743 373.5161,-68.4507 383.9515,-70.2816 382.8156,-63.3743"/>
</g>
<!-- Node6 -->
<g id="node7" class="node">
<title>Node6</title>
<g id="a_node7"><a xlink:href="a00586.html" target="_top" xlink:title="Public properties of the application layer of the power control task.">
<polygon fill="#ffffff" stroke="#000000" points="583,-19 431,-19 431,0 583,0 583,-19"/>
<text text-anchor="middle" x="507" y="-7" font-family="Helvetica,sans-Serif" font-size="10.00" fill="#000000">Private Properties</text>
</a>
</g>
</g>
<!-- Node0&#45;&gt;Node6 -->
<g id="edge6" class="edge">
<title>Node0&#45;&gt;Node6</title>
<path fill="none" stroke="#000000" d="M323.4553,-64.3728C350.494,-52.4765 386.803,-37.5786 420,-27.5 430.6264,-24.2738 442.1573,-21.4386 453.2433,-19.0295"/>
<polygon fill="#000000" stroke="#000000" points="322.0148,-61.1829 314.2983,-68.4427 324.8579,-67.5795 322.0148,-61.1829"/>
</g>
<!-- Node1 -->
<g id="node5" class="node">
<title>Node1</title>
<g id="a_node5"><a xlink:href="a00659.html" target="_top" xlink:title="Task Layer.">
<polygon fill="#ffffff" stroke="#000000" points="144,-93 0,-93 0,-74 144,-74 144,-93"/>
<text text-anchor="middle" x="72" y="-81" font-family="Helvetica,sans-Serif" font-size="10.00" fill="#000000">Application Layer</text>
</a>
</g>
</g>
<!-- Node1&#45;&gt;Node0 -->
<g id="edge1" class="edge">
<title>Node1&#45;&gt;Node0</title>
<path fill="none" stroke="#000000" d="M154.3808,-83.5C162.7645,-83.5 171.3502,-83.5 179.91,-83.5"/>
<polygon fill="#000000" stroke="#000000" points="154.2701,-80.0001 144.2701,-83.5 154.2701,-87.0001 154.2701,-80.0001"/>
</g>
</g>
</svg>
        <g id="navigator" transform="translate(0 0)" fill="#404254">
                <rect fill="#f2f5e9" fill-opacity="0.5" stroke="#606060" stroke-width=".5" x="0" y="0" width="60" height="60"/>
                <use id="zoomplus" xlink:href="#zoomPlus" x="17" y="9" onmousedown="handleZoom(evt,'in')"/>
                <use id="zoomminus" xlink:href="#zoomMin" x="42" y="9" onmousedown="handleZoom(evt,'out')"/>
                <use id="reset" xlink:href="#resetDef" x="30" y="36" onmousedown="handleReset()"/>
                <g id="arrowUp" xlink:href="#dirArrow" transform="translate(30 24)" onmousedown="handlePan(0,-1)">
                  <use xlink:href="#rim" fill="#404040">
                        <set attributeName="fill" to="#808080" begin="arrowUp.mouseover" end="arrowUp.mouseout"/>
                  </use>
                  <path fill="none" stroke="white" stroke-width="1.5" d="M0,-3.0v7 M-2.5,-0.5L0,-3.0L2.5,-0.5"/>
                </g>
                <g id="arrowRight" xlink:href="#dirArrow" transform="rotate(90) translate(36 -43)" onmousedown="handlePan(1,0)">
                  <use xlink:href="#rim" fill="#404040">
                        <set attributeName="fill" to="#808080" begin="arrowRight.mouseover" end="arrowRight.mouseout"/>
                  </use>
                  <path fill="none" stroke="white" stroke-width="1.5" d="M0,-3.0v7 M-2.5,-0.5L0,-3.0L2.5,-0.5"/>
                </g>
                <g id="arrowDown" xlink:href="#dirArrow" transform="rotate(180) translate(-30 -48)" onmousedown="handlePan(0,1)">
                  <use xlink:href="#rim" fill="#404040">
                        <set attributeName="fill" to="#808080" begin="arrowDown.mouseover" end="arrowDown.mouseout"/>
                  </use>
                  <path fill="none" stroke="white" stroke-width="1.5" d="M0,-3.0v7 M-2.5,-0.5L0,-3.0L2.5,-0.5"/>
                </g>
                <g id="arrowLeft" xlink:href="#dirArrow" transform="rotate(270) translate(-36 17)" onmousedown="handlePan(-1,0)">
                  <use xlink:href="#rim" fill="#404040">
                        <set attributeName="fill" to="#808080" begin="arrowLeft.mouseover" end="arrowLeft.mouseout"/>
                  </use>
                  <path fill="none" stroke="white" stroke-width="1.5" d="M0,-3.0v7 M-2.5,-0.5L0,-3.0L2.5,-0.5"/>
                </g>
        </g>
        <svg viewBox="0 0 15 15" width="100%" height="30px" preserveAspectRatio="xMaxYMin meet">
         <g id="arrow_out" transform="scale(0.3 0.3)">
          <a xlink:href="a00581_org.svg" target="_base">
           <rect id="button" ry="5" rx="5" y="6" x="6" height="38" width="38"
                fill="#f2f5e9" fill-opacity="0.5" stroke="#606060" stroke-width="1.0"/>
           <path id="arrow"
             d="M 11.500037,31.436501 C 11.940474,20.09759 22.043105,11.32322 32.158766,21.979434 L 37.068811,17.246167 C 37.068811,17.246167 37.088388,32 37.088388,32 L 22.160133,31.978069 C 22.160133,31.978069 26.997745,27.140456 26.997745,27.140456 C 18.528582,18.264221 13.291696,25.230495 11.500037,31.436501 z"
             style="fill:#404040;"/>
          </a>
         </g>
        </svg>
</svg>
