<?xml version="1.0" encoding="UTF-8" standalone="no"?>
<!DOCTYPE svg PUBLIC "-//W3C//DTD SVG 1.1//EN"
 "http://www.w3.org/Graphics/SVG/1.1/DTD/svg11.dtd">
<!-- Generated by graphviz version 2.40.1 (0)
 -->
<!-- Title: Private Properties Pages: 1 -->
<svg width="625pt" height="101pt"
 viewBox="0.00 0.00 625.00 101.00" xmlns="http://www.w3.org/2000/svg" xmlns:xlink="http://www.w3.org/1999/xlink">
<g id="graph0" class="graph" transform="scale(1 1) rotate(0) translate(4 97)">
<title>Private Properties</title>
<polygon fill="#ffffff" stroke="transparent" points="-4,4 -4,-97 621,-97 621,4 -4,4"/>
<!-- Node1 -->
<g id="node1" class="node">
<title>Node1</title>
<g id="a_node1"><a xlink:href="a00588.html" target="_top" xlink:title=" ">
<polygon fill="#ffffff" stroke="#000000" points="219,-56 0,-56 0,-37 219,-37 219,-56"/>
<text text-anchor="middle" x="109.5" y="-44" font-family="Helvetica,sans-Serif" font-size="10.00" fill="#000000">Boost Converter Library API</text>
</a>
</g>
</g>
<!-- Node0 -->
<g id="node4" class="node">
<title>Node0</title>
<g id="a_node4"><a xlink:title="Private properties of the second library layer.">
<polygon fill="#bfbfbf" stroke="#000000" points="407,-56 255,-56 255,-37 407,-37 407,-56"/>
<text text-anchor="middle" x="331" y="-44" font-family="Helvetica,sans-Serif" font-size="10.00" fill="#000000">Private Properties</text>
</a>
</g>
</g>
<!-- Node1&#45;&gt;Node0 -->
<g id="edge1" class="edge">
<title>Node1&#45;&gt;Node0</title>
<path fill="none" stroke="#000000" d="M229.4558,-46.5C238.1084,-46.5 246.6854,-46.5 254.9738,-46.5"/>
<polygon fill="#000000" stroke="#000000" points="229.2767,-43.0001 219.2766,-46.5 229.2766,-50.0001 229.2767,-43.0001"/>
</g>
<!-- Node4 -->
<g id="node2" class="node">
<title>Node4</title>
<g id="a_node2"><a xlink:href="a00597.html" target="_top" xlink:title=" ">
<polygon fill="#ffffff" stroke="#000000" points="606,-93 454,-93 454,-74 606,-74 606,-93"/>
<text text-anchor="middle" x="530" y="-81" font-family="Helvetica,sans-Serif" font-size="10.00" fill="#000000">Defines and Macros</text>
</a>
</g>
</g>
<!-- Node2 -->
<g id="node3" class="node">
<title>Node2</title>
<g id="a_node3"><a xlink:href="a00595.html" target="_top" xlink:title=" ">
<polygon fill="#ffffff" stroke="#000000" points="617,-56 443,-56 443,-37 617,-37 617,-56"/>
<text text-anchor="middle" x="530" y="-44" font-family="Helvetica,sans-Serif" font-size="10.00" fill="#000000">Variables &amp; Constants</text>
</a>
</g>
</g>
<!-- Node0&#45;&gt;Node4 -->
<g id="edge4" class="edge">
<title>Node0&#45;&gt;Node4</title>
<path fill="none" stroke="#000000" d="M392.2088,-57.8805C419.8724,-63.024 452.1957,-69.0339 478.5807,-73.9396"/>
<polygon fill="#000000" stroke="#000000" points="392.7188,-54.4154 382.2474,-56.0284 391.4391,-61.2975 392.7188,-54.4154"/>
</g>
<!-- Node0&#45;&gt;Node2 -->
<g id="edge2" class="edge">
<title>Node0&#45;&gt;Node2</title>
<path fill="none" stroke="#000000" d="M417.3649,-46.5C425.8592,-46.5 434.4835,-46.5 442.9843,-46.5"/>
<polygon fill="#000000" stroke="#000000" points="417.0852,-43.0001 407.0852,-46.5 417.0851,-50.0001 417.0852,-43.0001"/>
</g>
<!-- Node3 -->
<g id="node5" class="node">
<title>Node3</title>
<g id="a_node5"><a xlink:href="a00596.html" target="_top" xlink:title=" ">
<polygon fill="#ffffff" stroke="#000000" points="576,-19 484,-19 484,0 576,0 576,-19"/>
<text text-anchor="middle" x="530" y="-7" font-family="Helvetica,sans-Serif" font-size="10.00" fill="#000000">Data Types</text>
</a>
</g>
</g>
<!-- Node0&#45;&gt;Node3 -->
<g id="edge3" class="edge">
<title>Node0&#45;&gt;Node3</title>
<path fill="none" stroke="#000000" d="M392.4185,-35.0805C421.85,-29.6083 456.5168,-23.1627 483.6886,-18.1107"/>
<polygon fill="#000000" stroke="#000000" points="391.4391,-31.7025 382.2474,-36.9716 392.7188,-38.5846 391.4391,-31.7025"/>
</g>
</g>
</svg>
