<?xml version="1.0" encoding="UTF-8" standalone="no"?>
<!DOCTYPE svg PUBLIC "-//W3C//DTD SVG 1.1//EN"
 "http://www.w3.org/Graphics/SVG/1.1/DTD/svg11.dtd">
<!-- Generated by graphviz version 2.40.1 (0)
 -->
<!-- Title: User Settings Pages: 1 -->
<svg width="497pt" height="38pt"
 viewBox="0.00 0.00 497.00 38.00" xmlns="http://www.w3.org/2000/svg" xmlns:xlink="http://www.w3.org/1999/xlink">
<g id="graph0" class="graph" transform="scale(1 1) rotate(0) translate(4 34)">
<title>User Settings</title>
<polygon fill="#ffffff" stroke="transparent" points="-4,4 -4,-34 493,-34 493,4 -4,4"/>
<!-- Node2 -->
<g id="node1" class="node">
<title>Node2</title>
<g id="a_node1"><a xlink:href="a00535.html" target="_top" xlink:title="User&#45;declaration of Adaptive Gain Modulation parameters of the boost converter using physical quantit...">
<polygon fill="#ffffff" stroke="#000000" points="489,-24.5 360,-24.5 360,-5.5 489,-5.5 489,-24.5"/>
<text text-anchor="middle" x="424.5" y="-12.5" font-family="Helvetica,sans-Serif" font-size="10.00" fill="#000000">Boost Converter</text>
</a>
</g>
</g>
<!-- Node1 -->
<g id="node2" class="node">
<title>Node1</title>
<g id="a_node2"><a xlink:href="a00533.html" target="_top" xlink:title="Declaration of macros calculating additional parameters for Adaptive Gain Modulation.">
<polygon fill="#ffffff" stroke="#000000" points="174,-30 0,-30 0,0 174,0 174,-30"/>
<text text-anchor="start" x="8" y="-18" font-family="Helvetica,sans-Serif" font-size="10.00" fill="#000000">Adaptive Gain Control</text>
<text text-anchor="middle" x="87" y="-7" font-family="Helvetica,sans-Serif" font-size="10.00" fill="#000000"> Feed Forward</text>
</a>
</g>
</g>
<!-- Node0 -->
<g id="node3" class="node">
<title>Node0</title>
<g id="a_node3"><a xlink:title="User&#45;declaration of Adaptive Gain Modulation parameters using physical quantities.">
<polygon fill="#bfbfbf" stroke="#000000" points="324,-24.5 210,-24.5 210,-5.5 324,-5.5 324,-24.5"/>
<text text-anchor="middle" x="267" y="-12.5" font-family="Helvetica,sans-Serif" font-size="10.00" fill="#000000">User Settings</text>
</a>
</g>
</g>
<!-- Node1&#45;&gt;Node0 -->
<g id="edge1" class="edge">
<title>Node1&#45;&gt;Node0</title>
<path fill="none" stroke="#000000" d="M184.3188,-15C193.0045,-15 201.5987,-15 209.7749,-15"/>
<polygon fill="#000000" stroke="#000000" points="184.1001,-11.5001 174.1001,-15 184.1,-18.5001 184.1001,-11.5001"/>
</g>
<!-- Node0&#45;&gt;Node2 -->
<g id="edge2" class="edge">
<title>Node0&#45;&gt;Node2</title>
<path fill="none" stroke="#000000" d="M334.4383,-15C342.8373,-15 351.4117,-15 359.7684,-15"/>
<polygon fill="#000000" stroke="#000000" points="334.3067,-11.5001 324.3067,-15 334.3066,-18.5001 334.3067,-11.5001"/>
</g>
</g>
</svg>
