<?xml version="1.0" encoding="UTF-8" standalone="no"?>
<!DOCTYPE svg PUBLIC "-//W3C//DTD SVG 1.1//EN"
 "http://www.w3.org/Graphics/SVG/1.1/DTD/svg11.dtd">
<!-- Generated by graphviz version 2.40.1 (0)
 -->
<!-- Title: Special Circuit Signals Pages: 1 -->
<svg width="670pt" height="64pt"
 viewBox="0.00 0.00 670.00 64.00" xmlns="http://www.w3.org/2000/svg" xmlns:xlink="http://www.w3.org/1999/xlink">
<g id="graph0" class="graph" transform="scale(1 1) rotate(0) translate(4 60)">
<title>Special Circuit Signals</title>
<polygon fill="#ffffff" stroke="transparent" points="-4,4 -4,-60 666,-60 666,4 -4,4"/>
<!-- Node1 -->
<g id="node1" class="node">
<title>Node1</title>
<g id="a_node1"><a xlink:href="a00658.html" target="_top" xlink:title="Hardware Abstraction Layer Declarations.">
<polygon fill="#ffffff" stroke="#000000" points="167,-42.5 0,-42.5 0,-12.5 167,-12.5 167,-42.5"/>
<text text-anchor="start" x="8" y="-30.5" font-family="Helvetica,sans-Serif" font-size="10.00" fill="#000000">Hardware Abstraction</text>
<text text-anchor="middle" x="83.5" y="-19.5" font-family="Helvetica,sans-Serif" font-size="10.00" fill="#000000"> Layer</text>
</a>
</g>
</g>
<!-- Node0 -->
<g id="node2" class="node">
<title>Node0</title>
<g id="a_node2"><a xlink:title=" ">
<polygon fill="#bfbfbf" stroke="#000000" points="392,-37 203,-37 203,-18 392,-18 392,-37"/>
<text text-anchor="middle" x="297.5" y="-25" font-family="Helvetica,sans-Serif" font-size="10.00" fill="#000000">Special Circuit Signals</text>
</a>
</g>
</g>
<!-- Node1&#45;&gt;Node0 -->
<g id="edge1" class="edge">
<title>Node1&#45;&gt;Node0</title>
<path fill="none" stroke="#000000" d="M177.4073,-27.5C185.8673,-27.5 194.4381,-27.5 202.904,-27.5"/>
<polygon fill="#000000" stroke="#000000" points="177.1575,-24.0001 167.1574,-27.5 177.1574,-31.0001 177.1575,-24.0001"/>
</g>
<!-- Node3 -->
<g id="node3" class="node">
<title>Node3</title>
<g id="a_node3"><a xlink:href="a00543.html" target="_top" xlink:title="Assignment of microcontroller device specific chip&#45;resources to circuit functions and signals.">
<polygon fill="#ffffff" stroke="#000000" points="662,-56 428,-56 428,-37 662,-37 662,-56"/>
<text text-anchor="middle" x="545" y="-44" font-family="Helvetica,sans-Serif" font-size="10.00" fill="#000000">Device Peripheral Assignments</text>
</a>
</g>
</g>
<!-- Node0&#45;&gt;Node3 -->
<g id="edge3" class="edge">
<title>Node0&#45;&gt;Node3</title>
<path fill="none" stroke="#000000" d="M402.1086,-35.5306C410.6677,-36.1876 419.3521,-36.8543 427.9924,-37.5176"/>
<polygon fill="#000000" stroke="#000000" points="402.3671,-32.0402 392.1285,-34.7644 401.8313,-39.0197 402.3671,-32.0402"/>
</g>
<!-- Node2 -->
<g id="node4" class="node">
<title>Node2</title>
<g id="a_node4"><a xlink:href="a00542.html" target="_top" xlink:title="Assignment of microcontroller device pins to circuit functions and signals.">
<polygon fill="#ffffff" stroke="#000000" points="639.5,-19 450.5,-19 450.5,0 639.5,0 639.5,-19"/>
<text text-anchor="middle" x="545" y="-7" font-family="Helvetica,sans-Serif" font-size="10.00" fill="#000000">Device GPIO Assignments</text>
</a>
</g>
</g>
<!-- Node0&#45;&gt;Node2 -->
<g id="edge2" class="edge">
<title>Node0&#45;&gt;Node2</title>
<path fill="none" stroke="#000000" d="M402.5111,-19.8628C418.4207,-18.7058 434.7532,-17.5179 450.4239,-16.3783"/>
<polygon fill="#000000" stroke="#000000" points="401.8483,-16.4017 392.1285,-20.6179 402.3561,-23.3833 401.8483,-16.4017"/>
</g>
</g>
</svg>
