<?xml version="1.0" encoding="UTF-8" standalone="no"?>
<!DOCTYPE svg PUBLIC "-//W3C//DTD SVG 1.1//EN"
 "http://www.w3.org/Graphics/SVG/1.1/DTD/svg11.dtd">
<!-- Generated by graphviz version 2.40.1 (0)
 -->
<!-- Title: User Settings Pages: 1 -->
<svg width="512pt" height="27pt"
 viewBox="0.00 0.00 512.00 27.00" xmlns="http://www.w3.org/2000/svg" xmlns:xlink="http://www.w3.org/1999/xlink">
<g id="graph0" class="graph" transform="scale(1 1) rotate(0) translate(4 23)">
<title>User Settings</title>
<polygon fill="#ffffff" stroke="transparent" points="-4,4 -4,-23 508,-23 508,4 -4,4"/>
<!-- Node2 -->
<g id="node1" class="node">
<title>Node2</title>
<g id="a_node1"><a xlink:href="a00517.html" target="_top" xlink:title="User&#45;declaration of output voltage feedback parameters of the boost converter using physical quantiti...">
<polygon fill="#ffffff" stroke="#000000" points="504,-19 375,-19 375,0 504,0 504,-19"/>
<text text-anchor="middle" x="439.5" y="-7" font-family="Helvetica,sans-Serif" font-size="10.00" fill="#000000">Boost Converter</text>
</a>
</g>
</g>
<!-- Node0 -->
<g id="node2" class="node">
<title>Node0</title>
<g id="a_node2"><a xlink:title="User&#45;declaration of output voltage feedback parameters using physical quantities.">
<polygon fill="#bfbfbf" stroke="#000000" points="339,-19 225,-19 225,0 339,0 339,-19"/>
<text text-anchor="middle" x="282" y="-7" font-family="Helvetica,sans-Serif" font-size="10.00" fill="#000000">User Settings</text>
</a>
</g>
</g>
<!-- Node0&#45;&gt;Node2 -->
<g id="edge2" class="edge">
<title>Node0&#45;&gt;Node2</title>
<path fill="none" stroke="#000000" d="M349.4383,-9.5C357.8373,-9.5 366.4117,-9.5 374.7684,-9.5"/>
<polygon fill="#000000" stroke="#000000" points="349.3067,-6.0001 339.3067,-9.5 349.3066,-13.0001 349.3067,-6.0001"/>
</g>
<!-- Node1 -->
<g id="node3" class="node">
<title>Node1</title>
<g id="a_node3"><a xlink:href="a00515.html" target="_top" xlink:title="Declaration of output voltage feedback parameters.">
<polygon fill="#ffffff" stroke="#000000" points="189,-19 0,-19 0,0 189,0 189,-19"/>
<text text-anchor="middle" x="94.5" y="-7" font-family="Helvetica,sans-Serif" font-size="10.00" fill="#000000">Output Voltage Feedback</text>
</a>
</g>
</g>
<!-- Node1&#45;&gt;Node0 -->
<g id="edge1" class="edge">
<title>Node1&#45;&gt;Node0</title>
<path fill="none" stroke="#000000" d="M199.3414,-9.5C208.0526,-9.5 216.6343,-9.5 224.7798,-9.5"/>
<polygon fill="#000000" stroke="#000000" points="199.074,-6.0001 189.074,-9.5 199.0739,-13.0001 199.074,-6.0001"/>
</g>
</g>
</svg>
