<?xml version="1.0" encoding="UTF-8" standalone="no"?>
<!DOCTYPE svg PUBLIC "-//W3C//DTD SVG 1.1//EN"
 "http://www.w3.org/Graphics/SVG/1.1/DTD/svg11.dtd">
<!-- Generated by graphviz version 2.40.1 (0)
 -->
<!-- Title: Adaptive Gain Control Feed Forward Pages: 1 -->
<svg width="565pt" height="64pt"
 viewBox="0.00 0.00 565.00 64.00" xmlns="http://www.w3.org/2000/svg" xmlns:xlink="http://www.w3.org/1999/xlink">
<g id="graph0" class="graph" transform="scale(1 1) rotate(0) translate(4 60)">
<title>Adaptive Gain Control Feed Forward</title>
<polygon fill="#ffffff" stroke="transparent" points="-4,4 -4,-60 561,-60 561,4 -4,4"/>
<!-- Node1 -->
<g id="node1" class="node">
<title>Node1</title>
<g id="a_node1"><a xlink:href="a00658.html" target="_top" xlink:title="Hardware Abstraction Layer Declarations.">
<polygon fill="#ffffff" stroke="#000000" points="167,-42.5 0,-42.5 0,-12.5 167,-12.5 167,-42.5"/>
<text text-anchor="start" x="8" y="-30.5" font-family="Helvetica,sans-Serif" font-size="10.00" fill="#000000">Hardware Abstraction</text>
<text text-anchor="middle" x="83.5" y="-19.5" font-family="Helvetica,sans-Serif" font-size="10.00" fill="#000000"> Layer</text>
</a>
</g>
</g>
<!-- Node0 -->
<g id="node2" class="node">
<title>Node0</title>
<g id="a_node2"><a xlink:title="Declaration of macros calculating additional parameters for Adaptive Gain Modulation.">
<polygon fill="#bfbfbf" stroke="#000000" points="377,-42.5 203,-42.5 203,-12.5 377,-12.5 377,-42.5"/>
<text text-anchor="start" x="211" y="-30.5" font-family="Helvetica,sans-Serif" font-size="10.00" fill="#000000">Adaptive Gain Control</text>
<text text-anchor="middle" x="290" y="-19.5" font-family="Helvetica,sans-Serif" font-size="10.00" fill="#000000"> Feed Forward</text>
</a>
</g>
</g>
<!-- Node1&#45;&gt;Node0 -->
<g id="edge1" class="edge">
<title>Node1&#45;&gt;Node0</title>
<path fill="none" stroke="#000000" d="M177.446,-27.5C185.8977,-27.5 194.4332,-27.5 202.8235,-27.5"/>
<polygon fill="#000000" stroke="#000000" points="177.1938,-24.0001 167.1938,-27.5 177.1937,-31.0001 177.1938,-24.0001"/>
</g>
<!-- Node3 -->
<g id="node3" class="node">
<title>Node3</title>
<g id="a_node3"><a xlink:href="a00536.html" target="_top" xlink:title="Conversion macros for user&#45;declarations of Adaptive Gain Modulation parameters.">
<polygon fill="#ffffff" stroke="#000000" points="557,-56 413,-56 413,-37 557,-37 557,-56"/>
<text text-anchor="middle" x="485" y="-44" font-family="Helvetica,sans-Serif" font-size="10.00" fill="#000000">Conversion Macros</text>
</a>
</g>
</g>
<!-- Node0&#45;&gt;Node3 -->
<g id="edge3" class="edge">
<title>Node0&#45;&gt;Node3</title>
<path fill="none" stroke="#000000" d="M387.2772,-36.9783C395.8471,-37.8133 404.4194,-38.6486 412.7291,-39.4582"/>
<polygon fill="#000000" stroke="#000000" points="387.5261,-33.4861 377.2337,-35.9997 386.8472,-40.4531 387.5261,-33.4861"/>
</g>
<!-- Node2 -->
<g id="node4" class="node">
<title>Node2</title>
<g id="a_node4"><a xlink:href="a00534.html" target="_top" xlink:title="User&#45;declaration of Adaptive Gain Modulation parameters using physical quantities.">
<polygon fill="#ffffff" stroke="#000000" points="542,-19 428,-19 428,0 542,0 542,-19"/>
<text text-anchor="middle" x="485" y="-7" font-family="Helvetica,sans-Serif" font-size="10.00" fill="#000000">User Settings</text>
</a>
</g>
</g>
<!-- Node0&#45;&gt;Node2 -->
<g id="edge2" class="edge">
<title>Node0&#45;&gt;Node2</title>
<path fill="none" stroke="#000000" d="M387.3082,-18.5177C401.1671,-17.2384 415.0312,-15.9587 427.7804,-14.7818"/>
<polygon fill="#000000" stroke="#000000" points="386.8697,-15.0432 377.2337,-19.4477 387.5132,-22.0136 386.8697,-15.0432"/>
</g>
</g>
</svg>
