<?xml version="1.0" encoding="UTF-8" standalone="no"?>
<!DOCTYPE svg PUBLIC "-//W3C//DTD SVG 1.1//EN"
 "http://www.w3.org/Graphics/SVG/1.1/DTD/svg11.dtd">
<!-- Generated by graphviz version 2.40.1 (0)
 -->
<!-- Title: Phase Current Feedback Pages: 1 -->
<svg width="648pt" height="101pt"
 viewBox="0.00 0.00 648.00 101.00" xmlns="http://www.w3.org/2000/svg" xmlns:xlink="http://www.w3.org/1999/xlink">
<g id="graph0" class="graph" transform="scale(1 1) rotate(0) translate(4 97)">
<title>Phase Current Feedback</title>
<polygon fill="#ffffff" stroke="transparent" points="-4,4 -4,-97 644,-97 644,4 -4,4"/>
<!-- Node1 -->
<g id="node1" class="node">
<title>Node1</title>
<g id="a_node1"><a xlink:href="a00658.html" target="_top" xlink:title="Hardware Abstraction Layer Declarations.">
<polygon fill="#ffffff" stroke="#000000" points="167,-61.5 0,-61.5 0,-31.5 167,-31.5 167,-61.5"/>
<text text-anchor="start" x="8" y="-49.5" font-family="Helvetica,sans-Serif" font-size="10.00" fill="#000000">Hardware Abstraction</text>
<text text-anchor="middle" x="83.5" y="-38.5" font-family="Helvetica,sans-Serif" font-size="10.00" fill="#000000"> Layer</text>
</a>
</g>
</g>
<!-- Node0 -->
<g id="node4" class="node">
<title>Node0</title>
<g id="a_node4"><a xlink:title="Declaration of phase current feedback parameters.">
<polygon fill="#bfbfbf" stroke="#000000" points="385,-56 203,-56 203,-37 385,-37 385,-56"/>
<text text-anchor="middle" x="294" y="-44" font-family="Helvetica,sans-Serif" font-size="10.00" fill="#000000">Phase Current Feedback</text>
</a>
</g>
</g>
<!-- Node1&#45;&gt;Node0 -->
<g id="edge1" class="edge">
<title>Node1&#45;&gt;Node0</title>
<path fill="none" stroke="#000000" d="M177.519,-46.5C185.9484,-46.5 194.475,-46.5 202.8792,-46.5"/>
<polygon fill="#000000" stroke="#000000" points="177.3,-43.0001 167.3,-46.5 177.3,-50.0001 177.3,-43.0001"/>
</g>
<!-- Node3 -->
<g id="node2" class="node">
<title>Node3</title>
<g id="a_node2"><a xlink:href="a00525.html" target="_top" xlink:title="Conversion macros for user&#45;declarations of phase current feedback parameters.">
<polygon fill="#ffffff" stroke="#000000" points="602.5,-93 458.5,-93 458.5,-74 602.5,-74 602.5,-93"/>
<text text-anchor="middle" x="530.5" y="-81" font-family="Helvetica,sans-Serif" font-size="10.00" fill="#000000">Conversion Macros</text>
</a>
</g>
</g>
<!-- Node2 -->
<g id="node3" class="node">
<title>Node2</title>
<g id="a_node3"><a xlink:href="a00523.html" target="_top" xlink:title="User&#45;declaration of phase current feedback parameters using physical quantities.">
<polygon fill="#ffffff" stroke="#000000" points="587.5,-56 473.5,-56 473.5,-37 587.5,-37 587.5,-56"/>
<text text-anchor="middle" x="530.5" y="-44" font-family="Helvetica,sans-Serif" font-size="10.00" fill="#000000">User Settings</text>
</a>
</g>
</g>
<!-- Node0&#45;&gt;Node3 -->
<g id="edge3" class="edge">
<title>Node0&#45;&gt;Node3</title>
<path fill="none" stroke="#000000" d="M365.018,-57.6106C398.2696,-62.8128 437.4839,-68.9478 469.3912,-73.9396"/>
<polygon fill="#000000" stroke="#000000" points="365.3255,-54.1162 354.9046,-56.0284 364.2434,-61.0321 365.3255,-54.1162"/>
</g>
<!-- Node0&#45;&gt;Node2 -->
<g id="edge2" class="edge">
<title>Node0&#45;&gt;Node2</title>
<path fill="none" stroke="#000000" d="M395.2624,-46.5C421.9625,-46.5 449.8426,-46.5 473.3041,-46.5"/>
<polygon fill="#000000" stroke="#000000" points="395.0988,-43.0001 385.0988,-46.5 395.0987,-50.0001 395.0988,-43.0001"/>
</g>
<!-- Node4 -->
<g id="node5" class="node">
<title>Node4</title>
<g id="a_node5"><a xlink:href="a00527.html" target="_top" xlink:title="Device analog input pin, register and interrupt vector assignments of phase current feedback signal(s...">
<polygon fill="#ffffff" stroke="#000000" points="640,-19 421,-19 421,0 640,0 640,-19"/>
<text text-anchor="middle" x="530.5" y="-7" font-family="Helvetica,sans-Serif" font-size="10.00" fill="#000000">Microcontroller Abstraction</text>
</a>
</g>
</g>
<!-- Node0&#45;&gt;Node4 -->
<g id="edge4" class="edge">
<title>Node0&#45;&gt;Node4</title>
<path fill="none" stroke="#000000" d="M365.018,-35.3894C398.2696,-30.1872 437.4839,-24.0522 469.3912,-19.0604"/>
<polygon fill="#000000" stroke="#000000" points="364.2434,-31.9679 354.9046,-36.9716 365.3255,-38.8838 364.2434,-31.9679"/>
</g>
</g>
</svg>
