<?xml version="1.0" encoding="UTF-8" standalone="no"?>
<!DOCTYPE svg PUBLIC "-//W3C//DTD SVG 1.1//EN"
 "http://www.w3.org/Graphics/SVG/1.1/DTD/svg11.dtd">
<!-- Generated by graphviz version 2.40.1 (0)
 -->
<!-- Title: LC&#45;Display Application Layer Pages: 1 -->
<svg width="558pt" height="138pt"
 viewBox="0.00 0.00 558.00 138.00" xmlns="http://www.w3.org/2000/svg" xmlns:xlink="http://www.w3.org/1999/xlink">
<g id="graph0" class="graph" transform="scale(1 1) rotate(0) translate(4 134)">
<title>LC&#45;Display Application Layer</title>
<polygon fill="#ffffff" stroke="transparent" points="-4,4 -4,-134 554,-134 554,4 -4,4"/>
<!-- Node4 -->
<g id="node1" class="node">
<title>Node4</title>
<g id="a_node1"><a xlink:href="a00564.html" target="_top" xlink:title="Private functions of the LC display task.">
<polygon fill="#ffffff" stroke="#000000" points="546,-130 402,-130 402,-111 546,-111 546,-130"/>
<text text-anchor="middle" x="474" y="-118" font-family="Helvetica,sans-Serif" font-size="10.00" fill="#000000">Private Functions</text>
</a>
</g>
</g>
<!-- Node1 -->
<g id="node2" class="node">
<title>Node1</title>
<g id="a_node2"><a xlink:href="a00659.html" target="_top" xlink:title="Task Layer.">
<polygon fill="#ffffff" stroke="#000000" points="144,-74 0,-74 0,-55 144,-55 144,-74"/>
<text text-anchor="middle" x="72" y="-62" font-family="Helvetica,sans-Serif" font-size="10.00" fill="#000000">Application Layer</text>
</a>
</g>
</g>
<!-- Node0 -->
<g id="node3" class="node">
<title>Node0</title>
<g id="a_node3"><a xlink:title=" ">
<polygon fill="#bfbfbf" stroke="#000000" points="362,-79.5 180,-79.5 180,-49.5 362,-49.5 362,-79.5"/>
<text text-anchor="start" x="188" y="-67.5" font-family="Helvetica,sans-Serif" font-size="10.00" fill="#000000">LC&#45;Display Application</text>
<text text-anchor="middle" x="271" y="-56.5" font-family="Helvetica,sans-Serif" font-size="10.00" fill="#000000"> Layer</text>
</a>
</g>
</g>
<!-- Node1&#45;&gt;Node0 -->
<g id="edge1" class="edge">
<title>Node1&#45;&gt;Node0</title>
<path fill="none" stroke="#000000" d="M154.274,-64.5C162.6769,-64.5 171.2489,-64.5 179.7403,-64.5"/>
<polygon fill="#000000" stroke="#000000" points="154.125,-61.0001 144.1249,-64.5 154.1249,-68.0001 154.125,-61.0001"/>
</g>
<!-- Node0&#45;&gt;Node4 -->
<g id="edge4" class="edge">
<title>Node0&#45;&gt;Node4</title>
<path fill="none" stroke="#000000" d="M328.4808,-82.4707C350.1866,-89.0532 375.1549,-96.3824 398,-102.5 408.8713,-105.4112 420.6822,-108.3267 431.6807,-110.9379"/>
<polygon fill="#000000" stroke="#000000" points="329.3428,-79.0746 318.7568,-79.506 327.3013,-85.7703 329.3428,-79.0746"/>
</g>
<!-- Node5 -->
<g id="node4" class="node">
<title>Node5</title>
<g id="a_node4"><a xlink:href="a00565.html" target="_top" xlink:title="Private properties of the LC display task.">
<polygon fill="#ffffff" stroke="#000000" points="550,-93 398,-93 398,-74 550,-74 550,-93"/>
<text text-anchor="middle" x="474" y="-81" font-family="Helvetica,sans-Serif" font-size="10.00" fill="#000000">Private Properties</text>
</a>
</g>
</g>
<!-- Node0&#45;&gt;Node5 -->
<g id="edge5" class="edge">
<title>Node0&#45;&gt;Node5</title>
<path fill="none" stroke="#000000" d="M372.1889,-73.9709C380.7897,-74.7759 389.3934,-75.5812 397.7532,-76.3636"/>
<polygon fill="#000000" stroke="#000000" points="372.3912,-70.4746 362.1085,-73.0274 371.7388,-77.4441 372.3912,-70.4746"/>
</g>
<!-- Node3 -->
<g id="node5" class="node">
<title>Node3</title>
<g id="a_node5"><a xlink:href="a00563.html" target="_top" xlink:title="Public properties of the LC display task.">
<polygon fill="#ffffff" stroke="#000000" points="546,-56 402,-56 402,-37 546,-37 546,-56"/>
<text text-anchor="middle" x="474" y="-44" font-family="Helvetica,sans-Serif" font-size="10.00" fill="#000000">Public Properties</text>
</a>
</g>
</g>
<!-- Node0&#45;&gt;Node3 -->
<g id="edge3" class="edge">
<title>Node0&#45;&gt;Node3</title>
<path fill="none" stroke="#000000" d="M372.0995,-55.5355C382.1067,-54.6482 392.1191,-53.7604 401.7476,-52.9066"/>
<polygon fill="#000000" stroke="#000000" points="371.7603,-52.0518 362.1085,-56.4214 372.3786,-59.0244 371.7603,-52.0518"/>
</g>
<!-- Node2 -->
<g id="node6" class="node">
<title>Node2</title>
<g id="a_node6"><a xlink:href="a00562.html" target="_top" xlink:title="Public functions of the LC display task.">
<polygon fill="#ffffff" stroke="#000000" points="542.5,-19 405.5,-19 405.5,0 542.5,0 542.5,-19"/>
<text text-anchor="middle" x="474" y="-7" font-family="Helvetica,sans-Serif" font-size="10.00" fill="#000000">Public Functions</text>
</a>
</g>
</g>
<!-- Node0&#45;&gt;Node2 -->
<g id="edge2" class="edge">
<title>Node0&#45;&gt;Node2</title>
<path fill="none" stroke="#000000" d="M330.4528,-46.5C351.7,-40.2474 375.8596,-33.343 398,-27.5 409.0129,-24.5936 420.9812,-21.6566 432.0922,-19.0219"/>
<polygon fill="#000000" stroke="#000000" points="329.1936,-43.2225 320.5968,-49.4148 331.1788,-49.9351 329.1936,-43.2225"/>
</g>
</g>
</svg>
