<?xml version="1.0" encoding="UTF-8" standalone="no"?>
<!DOCTYPE svg PUBLIC "-//W3C//DTD SVG 1.1//EN"
 "http://www.w3.org/Graphics/SVG/1.1/DTD/svg11.dtd">
<!-- Generated by graphviz version 2.40.1 (0)
 -->
<!-- Title: Microcontroller Abstraction Pages: 1 -->
<svg width="617pt" height="27pt"
 viewBox="0.00 0.00 617.00 27.00" xmlns="http://www.w3.org/2000/svg" xmlns:xlink="http://www.w3.org/1999/xlink">
<g id="graph0" class="graph" transform="scale(1 1) rotate(0) translate(4 23)">
<title>Microcontroller Abstraction</title>
<polygon fill="#ffffff" stroke="transparent" points="-4,4 -4,-23 613,-23 613,4 -4,4"/>
<!-- Node0 -->
<g id="node1" class="node">
<title>Node0</title>
<g id="a_node1"><a xlink:title="Device analog output pin, register and interrupt vector assignments of output voltage feedback signal...">
<polygon fill="#bfbfbf" stroke="#000000" points="444,-19 225,-19 225,0 444,0 444,-19"/>
<text text-anchor="middle" x="334.5" y="-7" font-family="Helvetica,sans-Serif" font-size="10.00" fill="#000000">Microcontroller Abstraction</text>
</a>
</g>
</g>
<!-- Node2 -->
<g id="node2" class="node">
<title>Node2</title>
<g id="a_node2"><a xlink:href="a00521.html" target="_top" xlink:title="Device analog output pin, register and interrupt vector assignments of output voltage feedback signal...">
<polygon fill="#ffffff" stroke="#000000" points="609,-19 480,-19 480,0 609,0 609,-19"/>
<text text-anchor="middle" x="544.5" y="-7" font-family="Helvetica,sans-Serif" font-size="10.00" fill="#000000">Boost Converter</text>
</a>
</g>
</g>
<!-- Node0&#45;&gt;Node2 -->
<g id="edge2" class="edge">
<title>Node0&#45;&gt;Node2</title>
<path fill="none" stroke="#000000" d="M454.1149,-9.5C462.933,-9.5 471.6109,-9.5 479.8931,-9.5"/>
<polygon fill="#000000" stroke="#000000" points="454.113,-6.0001 444.1129,-9.5 454.1129,-13.0001 454.113,-6.0001"/>
</g>
<!-- Node1 -->
<g id="node3" class="node">
<title>Node1</title>
<g id="a_node3"><a xlink:href="a00515.html" target="_top" xlink:title="Declaration of output voltage feedback parameters.">
<polygon fill="#ffffff" stroke="#000000" points="189,-19 0,-19 0,0 189,0 189,-19"/>
<text text-anchor="middle" x="94.5" y="-7" font-family="Helvetica,sans-Serif" font-size="10.00" fill="#000000">Output Voltage Feedback</text>
</a>
</g>
</g>
<!-- Node1&#45;&gt;Node0 -->
<g id="edge1" class="edge">
<title>Node1&#45;&gt;Node0</title>
<path fill="none" stroke="#000000" d="M199.0419,-9.5C207.6391,-9.5 216.344,-9.5 224.976,-9.5"/>
<polygon fill="#000000" stroke="#000000" points="199.0099,-6.0001 189.0098,-9.5 199.0098,-13.0001 199.0099,-6.0001"/>
</g>
</g>
</svg>
