<?xml version="1.0" encoding="UTF-8" standalone="no"?>
<!DOCTYPE svg PUBLIC "-//W3C//DTD SVG 1.1//EN"
 "http://www.w3.org/Graphics/SVG/1.1/DTD/svg11.dtd">
<!-- Generated by graphviz version 2.40.1 (0)
 -->
<!-- Title: Boost Converter Library Pages: 1 -->
<svg width="662pt" height="76pt"
 viewBox="0.00 0.00 662.00 75.50" xmlns="http://www.w3.org/2000/svg" xmlns:xlink="http://www.w3.org/1999/xlink">
<g id="graph0" class="graph" transform="scale(1 1) rotate(0) translate(4 71.5)">
<title>Boost Converter Library</title>
<polygon fill="#ffffff" stroke="transparent" points="-4,4 -4,-71.5 658,-71.5 658,4 -4,4"/>
<!-- Node2 -->
<g id="node1" class="node">
<title>Node2</title>
<g id="a_node1"><a xlink:href="a00588.html" target="_top" xlink:title=" ">
<polygon fill="#ffffff" stroke="#000000" points="654,-67.5 435,-67.5 435,-48.5 654,-48.5 654,-67.5"/>
<text text-anchor="middle" x="544.5" y="-55.5" font-family="Helvetica,sans-Serif" font-size="10.00" fill="#000000">Boost Converter Library API</text>
</a>
</g>
</g>
<!-- Node3 -->
<g id="node2" class="node">
<title>Node3</title>
<g id="a_node2"><a xlink:href="a00598.html" target="_top" xlink:title=" ">
<polygon fill="#ffffff" stroke="#000000" points="639,-30 450,-30 450,0 639,0 639,-30"/>
<text text-anchor="start" x="458" y="-18" font-family="Helvetica,sans-Serif" font-size="10.00" fill="#000000">Boost Converter Library</text>
<text text-anchor="middle" x="544.5" y="-7" font-family="Helvetica,sans-Serif" font-size="10.00" fill="#000000"> Modules</text>
</a>
</g>
</g>
<!-- Node0 -->
<g id="node3" class="node">
<title>Node0</title>
<g id="a_node3"><a xlink:title=" ">
<polygon fill="#bfbfbf" stroke="#000000" points="399,-45.5 210,-45.5 210,-26.5 399,-26.5 399,-45.5"/>
<text text-anchor="middle" x="304.5" y="-33.5" font-family="Helvetica,sans-Serif" font-size="10.00" fill="#000000">Boost Converter Library</text>
</a>
</g>
</g>
<!-- Node0&#45;&gt;Node2 -->
<g id="edge2" class="edge">
<title>Node0&#45;&gt;Node2</title>
<path fill="none" stroke="#000000" d="M408.9921,-45.5784C419.4661,-46.5386 430.1003,-47.5134 440.5684,-48.4729"/>
<polygon fill="#000000" stroke="#000000" points="409.2876,-42.0909 399.0098,-44.6634 408.6486,-49.0617 409.2876,-42.0909"/>
</g>
<!-- Node0&#45;&gt;Node3 -->
<g id="edge3" class="edge">
<title>Node0&#45;&gt;Node3</title>
<path fill="none" stroke="#000000" d="M409.2351,-26.8357C422.6878,-25.6586 436.4008,-24.4587 449.6827,-23.2965"/>
<polygon fill="#000000" stroke="#000000" points="408.6667,-23.372 399.0098,-27.7304 409.2769,-30.3453 408.6667,-23.372"/>
</g>
<!-- Node1 -->
<g id="node4" class="node">
<title>Node1</title>
<g id="a_node4"><a xlink:href="a00660.html" target="_top" xlink:title="Generic Device Driver Layer.">
<polygon fill="#ffffff" stroke="#000000" points="174,-51 0,-51 0,-21 174,-21 174,-51"/>
<text text-anchor="start" x="8" y="-39" font-family="Helvetica,sans-Serif" font-size="10.00" fill="#000000">Device Driver Library</text>
<text text-anchor="middle" x="87" y="-28" font-family="Helvetica,sans-Serif" font-size="10.00" fill="#000000"> Layer</text>
</a>
</g>
</g>
<!-- Node1&#45;&gt;Node0 -->
<g id="edge1" class="edge">
<title>Node1&#45;&gt;Node0</title>
<path fill="none" stroke="#000000" d="M184.4317,-36C192.8583,-36 201.3765,-36 209.781,-36"/>
<polygon fill="#000000" stroke="#000000" points="184.2124,-32.5001 174.2123,-36 184.2123,-39.5001 184.2124,-32.5001"/>
</g>
</g>
</svg>
