<?xml version="1.0" encoding="UTF-8" standalone="no"?>
<!DOCTYPE svg PUBLIC "-//W3C//DTD SVG 1.1//EN"
 "http://www.w3.org/Graphics/SVG/1.1/DTD/svg11.dtd">
<!-- Generated by graphviz version 2.40.1 (0)
 -->
<!-- Title: Temperature Feedback Pages: 1 -->
<svg width="633pt" height="101pt"
 viewBox="0.00 0.00 633.00 101.00" xmlns="http://www.w3.org/2000/svg" xmlns:xlink="http://www.w3.org/1999/xlink">
<g id="graph0" class="graph" transform="scale(1 1) rotate(0) translate(4 97)">
<title>Temperature Feedback</title>
<polygon fill="#ffffff" stroke="transparent" points="-4,4 -4,-97 629,-97 629,4 -4,4"/>
<!-- Node1 -->
<g id="node1" class="node">
<title>Node1</title>
<g id="a_node1"><a xlink:href="a00658.html" target="_top" xlink:title="Hardware Abstraction Layer Declarations.">
<polygon fill="#ffffff" stroke="#000000" points="167,-61.5 0,-61.5 0,-31.5 167,-31.5 167,-61.5"/>
<text text-anchor="start" x="8" y="-49.5" font-family="Helvetica,sans-Serif" font-size="10.00" fill="#000000">Hardware Abstraction</text>
<text text-anchor="middle" x="83.5" y="-38.5" font-family="Helvetica,sans-Serif" font-size="10.00" fill="#000000"> Layer</text>
</a>
</g>
</g>
<!-- Node0 -->
<g id="node4" class="node">
<title>Node0</title>
<g id="a_node4"><a xlink:title="Declaration of temperature feedback parameters.">
<polygon fill="#bfbfbf" stroke="#000000" points="370,-56 203,-56 203,-37 370,-37 370,-56"/>
<text text-anchor="middle" x="286.5" y="-44" font-family="Helvetica,sans-Serif" font-size="10.00" fill="#000000">Temperature Feedback</text>
</a>
</g>
</g>
<!-- Node1&#45;&gt;Node0 -->
<g id="edge1" class="edge">
<title>Node1&#45;&gt;Node0</title>
<path fill="none" stroke="#000000" d="M177.2558,-46.5C185.8295,-46.5 194.4773,-46.5 202.9526,-46.5"/>
<polygon fill="#000000" stroke="#000000" points="177.2399,-43.0001 167.2399,-46.5 177.2398,-50.0001 177.2399,-43.0001"/>
</g>
<!-- Node3 -->
<g id="node2" class="node">
<title>Node3</title>
<g id="a_node2"><a xlink:href="a00531.html" target="_top" xlink:title="Conversion macros for user&#45;declarations of temperature feedback parameters.">
<polygon fill="#ffffff" stroke="#000000" points="587.5,-93 443.5,-93 443.5,-74 587.5,-74 587.5,-93"/>
<text text-anchor="middle" x="515.5" y="-81" font-family="Helvetica,sans-Serif" font-size="10.00" fill="#000000">Conversion Macros</text>
</a>
</g>
</g>
<!-- Node4 -->
<g id="node3" class="node">
<title>Node4</title>
<g id="a_node3"><a xlink:href="a00532.html" target="_top" xlink:title="Device analog input pin, register and interrupt vector assignments of temperature feedback signal(s)">
<polygon fill="#ffffff" stroke="#000000" points="625,-56 406,-56 406,-37 625,-37 625,-56"/>
<text text-anchor="middle" x="515.5" y="-44" font-family="Helvetica,sans-Serif" font-size="10.00" fill="#000000">Microcontroller Abstraction</text>
</a>
</g>
</g>
<!-- Node0&#45;&gt;Node3 -->
<g id="edge3" class="edge">
<title>Node0&#45;&gt;Node3</title>
<path fill="none" stroke="#000000" d="M355.6825,-57.678C387.7902,-62.8657 425.5669,-68.9693 456.3291,-73.9396"/>
<polygon fill="#000000" stroke="#000000" points="355.9035,-54.1683 345.4732,-56.0284 354.7869,-61.0787 355.9035,-54.1683"/>
</g>
<!-- Node0&#45;&gt;Node4 -->
<g id="edge4" class="edge">
<title>Node0&#45;&gt;Node4</title>
<path fill="none" stroke="#000000" d="M380.3311,-46.5C388.7541,-46.5 397.3314,-46.5 405.8725,-46.5"/>
<polygon fill="#000000" stroke="#000000" points="380.1464,-43.0001 370.1463,-46.5 380.1463,-50.0001 380.1464,-43.0001"/>
</g>
<!-- Node2 -->
<g id="node5" class="node">
<title>Node2</title>
<g id="a_node5"><a xlink:href="a00530.html" target="_top" xlink:title="User&#45;declaration of temperature feedback parameters using physical quantities.">
<polygon fill="#ffffff" stroke="#000000" points="572.5,-19 458.5,-19 458.5,0 572.5,0 572.5,-19"/>
<text text-anchor="middle" x="515.5" y="-7" font-family="Helvetica,sans-Serif" font-size="10.00" fill="#000000">User Settings</text>
</a>
</g>
</g>
<!-- Node0&#45;&gt;Node2 -->
<g id="edge2" class="edge">
<title>Node0&#45;&gt;Node2</title>
<path fill="none" stroke="#000000" d="M355.4603,-35.3579C388.3075,-30.0508 427.1282,-23.7784 458.309,-18.7405"/>
<polygon fill="#000000" stroke="#000000" points="354.7869,-31.9213 345.4732,-36.9716 355.9035,-38.8317 354.7869,-31.9213"/>
</g>
</g>
</svg>
