<?xml version="1.0" encoding="UTF-8" standalone="no"?>
<!DOCTYPE svg PUBLIC "-//W3C//DTD SVG 1.1//EN"
 "http://www.w3.org/Graphics/SVG/1.1/DTD/svg11.dtd">
<!-- Generated by graphviz version 2.40.1 (0)
 -->
<!-- Title: Fault Handler Library Pages: 1 -->
<svg width="580pt" height="138pt"
 viewBox="0.00 0.00 580.00 138.00" xmlns="http://www.w3.org/2000/svg" xmlns:xlink="http://www.w3.org/1999/xlink">
<g id="graph0" class="graph" transform="scale(1 1) rotate(0) translate(4 134)">
<title>Fault Handler Library</title>
<polygon fill="#ffffff" stroke="transparent" points="-4,4 -4,-134 576,-134 576,4 -4,4"/>
<!-- Node2 -->
<g id="node1" class="node">
<title>Node2</title>
<g id="a_node1"><a xlink:href="a00551.html" target="_top" xlink:title="Public functions of the fault handler library layer.">
<polygon fill="#ffffff" stroke="#000000" points="564.5,-130 427.5,-130 427.5,-111 564.5,-111 564.5,-130"/>
<text text-anchor="middle" x="496" y="-118" font-family="Helvetica,sans-Serif" font-size="10.00" fill="#000000">Public Functions</text>
</a>
</g>
</g>
<!-- Node3 -->
<g id="node2" class="node">
<title>Node3</title>
<g id="a_node2"><a xlink:href="a00552.html" target="_top" xlink:title="Public properties of the fault handler library layer.">
<polygon fill="#ffffff" stroke="#000000" points="568,-93 424,-93 424,-74 568,-74 568,-93"/>
<text text-anchor="middle" x="496" y="-81" font-family="Helvetica,sans-Serif" font-size="10.00" fill="#000000">Public Properties</text>
</a>
</g>
</g>
<!-- Node0 -->
<g id="node3" class="node">
<title>Node0</title>
<g id="a_node3"><a xlink:title=" ">
<polygon fill="#bfbfbf" stroke="#000000" points="384,-74 210,-74 210,-55 384,-55 384,-74"/>
<text text-anchor="middle" x="297" y="-62" font-family="Helvetica,sans-Serif" font-size="10.00" fill="#000000">Fault Handler Library</text>
</a>
</g>
</g>
<!-- Node0&#45;&gt;Node2 -->
<g id="edge2" class="edge">
<title>Node0&#45;&gt;Node2</title>
<path fill="none" stroke="#000000" d="M335.996,-77.281C360.0853,-84.9933 391.698,-94.7859 420,-102.5 430.7274,-105.4239 442.3802,-108.3215 453.2649,-110.9096"/>
<polygon fill="#000000" stroke="#000000" points="336.7557,-73.8487 326.1642,-74.1153 334.6102,-80.5119 336.7557,-73.8487"/>
</g>
<!-- Node0&#45;&gt;Node3 -->
<g id="edge3" class="edge">
<title>Node0&#45;&gt;Node3</title>
<path fill="none" stroke="#000000" d="M394.2715,-73.7872C404.2837,-74.7432 414.326,-75.702 423.9927,-76.6249"/>
<polygon fill="#000000" stroke="#000000" points="394.5717,-70.3001 384.2843,-72.8337 393.9063,-77.2684 394.5717,-70.3001"/>
</g>
<!-- Node4 -->
<g id="node4" class="node">
<title>Node4</title>
<g id="a_node4"><a xlink:href="a00553.html" target="_top" xlink:title="Private functions of the fault handler library layer.">
<polygon fill="#ffffff" stroke="#000000" points="568,-56 424,-56 424,-37 568,-37 568,-56"/>
<text text-anchor="middle" x="496" y="-44" font-family="Helvetica,sans-Serif" font-size="10.00" fill="#000000">Private Functions</text>
</a>
</g>
</g>
<!-- Node0&#45;&gt;Node4 -->
<g id="edge4" class="edge">
<title>Node0&#45;&gt;Node4</title>
<path fill="none" stroke="#000000" d="M394.2715,-55.7016C404.2837,-54.7959 414.326,-53.8876 423.9927,-53.0132"/>
<polygon fill="#000000" stroke="#000000" points="393.9283,-52.2182 384.2843,-56.6049 394.559,-59.1898 393.9283,-52.2182"/>
</g>
<!-- Node5 -->
<g id="node6" class="node">
<title>Node5</title>
<g id="a_node6"><a xlink:href="a00554.html" target="_top" xlink:title="Public properties of the fault handler library layer.">
<polygon fill="#ffffff" stroke="#000000" points="572,-19 420,-19 420,0 572,0 572,-19"/>
<text text-anchor="middle" x="496" y="-7" font-family="Helvetica,sans-Serif" font-size="10.00" fill="#000000">Private Properties</text>
</a>
</g>
</g>
<!-- Node0&#45;&gt;Node5 -->
<g id="edge5" class="edge">
<title>Node0&#45;&gt;Node5</title>
<path fill="none" stroke="#000000" d="M336.9893,-51.812C360.9625,-44.3706 392.1106,-34.9903 420,-27.5 430.8692,-24.5809 442.6793,-21.6625 453.6777,-19.0512"/>
<polygon fill="#000000" stroke="#000000" points="335.6883,-48.5515 327.1848,-54.8713 337.7734,-55.2337 335.6883,-48.5515"/>
</g>
<!-- Node1 -->
<g id="node5" class="node">
<title>Node1</title>
<g id="a_node5"><a xlink:href="a00660.html" target="_top" xlink:title="Generic Device Driver Layer.">
<polygon fill="#ffffff" stroke="#000000" points="174,-79.5 0,-79.5 0,-49.5 174,-49.5 174,-79.5"/>
<text text-anchor="start" x="8" y="-67.5" font-family="Helvetica,sans-Serif" font-size="10.00" fill="#000000">Device Driver Library</text>
<text text-anchor="middle" x="87" y="-56.5" font-family="Helvetica,sans-Serif" font-size="10.00" fill="#000000"> Layer</text>
</a>
</g>
</g>
<!-- Node1&#45;&gt;Node0 -->
<g id="edge1" class="edge">
<title>Node1&#45;&gt;Node0</title>
<path fill="none" stroke="#000000" d="M184.4593,-64.5C192.8803,-64.5 201.3662,-64.5 209.699,-64.5"/>
<polygon fill="#000000" stroke="#000000" points="184.2346,-61.0001 174.2345,-64.5 184.2345,-68.0001 184.2346,-61.0001"/>
</g>
</g>
</svg>
