<?xml version="1.0" encoding="UTF-8" standalone="no"?>
<!DOCTYPE svg PUBLIC "-//W3C//DTD SVG 1.1//EN"
 "http://www.w3.org/Graphics/SVG/1.1/DTD/svg11.dtd">
<!-- Generated by graphviz version 2.44.1 (20200629.0846)
 -->
<!-- Title: Device Driver Library Layer Pages: 1 -->
<svg width="266pt" height="197pt"
 viewBox="0.00 0.00 266.00 197.00" xmlns="http://www.w3.org/2000/svg" xmlns:xlink="http://www.w3.org/1999/xlink">
<g id="graph0" class="graph" transform="scale(1 1) rotate(0) translate(4 193)">
<title>Device Driver Library Layer</title>
<polygon fill="white" stroke="transparent" points="-4,4 -4,-193 262,-193 262,4 -4,4"/>
<!-- Node3 -->
<g id="node1" class="node">
<title>Node3</title>
<g id="a_node1"><a xlink:href="a00426.html" target="_top" xlink:title=" ">
<polygon fill="white" stroke="black" points="252.5,-189 145.5,-189 145.5,-170 252.5,-170 252.5,-189"/>
<text text-anchor="middle" x="199" y="-177" font-family="Helvetica,sans-Serif" font-size="10.00">Fault Handler Library</text>
</a>
</g>
</g>
<!-- Node4 -->
<g id="node2" class="node">
<title>Node4</title>
<g id="a_node2"><a xlink:href="a00442.html" target="_top" xlink:title=" ">
<polygon fill="white" stroke="black" points="247,-152 151,-152 151,-133 247,-133 247,-152"/>
<text text-anchor="middle" x="199" y="-140" font-family="Helvetica,sans-Serif" font-size="10.00">LC&#45;Display Library</text>
</a>
</g>
</g>
<!-- Node6 -->
<g id="node3" class="node">
<title>Node6</title>
<g id="a_node3"><a xlink:href="a00512.html" target="_top" xlink:title=" ">
<polygon fill="white" stroke="black" points="250.5,-115 147.5,-115 147.5,-96 250.5,-96 250.5,-115"/>
<text text-anchor="middle" x="199" y="-103" font-family="Helvetica,sans-Serif" font-size="10.00">Push&#45;Button Library</text>
</a>
</g>
</g>
<!-- Node5 -->
<g id="node4" class="node">
<title>Node5</title>
<g id="a_node4"><a xlink:href="a00463.html" target="_top" xlink:title=" ">
<polygon fill="white" stroke="black" points="258,-78 140,-78 140,-59 258,-59 258,-78"/>
<text text-anchor="middle" x="199" y="-66" font-family="Helvetica,sans-Serif" font-size="10.00">Boost Converter Library</text>
</a>
</g>
</g>
<!-- Node2 -->
<g id="node5" class="node">
<title>Node2</title>
<g id="a_node5"><a xlink:href="a00353.html" target="_top" xlink:title=" ">
<polygon fill="white" stroke="black" points="248.5,-41 149.5,-41 149.5,0 248.5,0 248.5,-41"/>
<text text-anchor="start" x="157.5" y="-29" font-family="Helvetica,sans-Serif" font-size="10.00">Peripheral Register</text>
<text text-anchor="start" x="157.5" y="-18" font-family="Helvetica,sans-Serif" font-size="10.00"> Abstraction Layer </text>
<text text-anchor="middle" x="199" y="-7" font-family="Helvetica,sans-Serif" font-size="10.00">(PRAL) Library</text>
</a>
</g>
</g>
<!-- Node1 -->
<g id="node6" class="node">
<title>Node1</title>
<g id="a_node6"><a xlink:title="Generic Device Driver Layer.">
<polygon fill="#bfbfbf" stroke="black" points="104,-120.5 0,-120.5 0,-90.5 104,-90.5 104,-120.5"/>
<text text-anchor="start" x="8" y="-108.5" font-family="Helvetica,sans-Serif" font-size="10.00">Device Driver Library</text>
<text text-anchor="middle" x="52" y="-97.5" font-family="Helvetica,sans-Serif" font-size="10.00"> Layer</text>
</a>
</g>
</g>
<!-- Node1&#45;&gt;Node3 -->
<g id="edge2" class="edge">
<title>Node1&#45;&gt;Node3</title>
<path fill="none" stroke="black" d="M81.76,-126.83C98.19,-138.28 119.53,-151.95 140,-161.5 146.88,-164.71 154.48,-167.54 161.85,-169.94"/>
<polygon fill="black" stroke="black" points="83.36,-123.67 73.18,-120.74 79.31,-129.38 83.36,-123.67"/>
</g>
<!-- Node1&#45;&gt;Node4 -->
<g id="edge3" class="edge">
<title>Node1&#45;&gt;Node4</title>
<path fill="none" stroke="black" d="M113.86,-121.03C129.71,-125.07 146.32,-129.31 160.55,-132.94"/>
<polygon fill="black" stroke="black" points="114.68,-117.63 104.12,-118.54 112.95,-124.41 114.68,-117.63"/>
</g>
<!-- Node1&#45;&gt;Node6 -->
<g id="edge5" class="edge">
<title>Node1&#45;&gt;Node6</title>
<path fill="none" stroke="black" d="M114.14,-105.5C125.2,-105.5 136.62,-105.5 147.34,-105.5"/>
<polygon fill="black" stroke="black" points="114.12,-102 104.12,-105.5 114.12,-109 114.12,-102"/>
</g>
<!-- Node1&#45;&gt;Node5 -->
<g id="edge4" class="edge">
<title>Node1&#45;&gt;Node5</title>
<path fill="none" stroke="black" d="M113.86,-89.97C129.71,-85.93 146.32,-81.69 160.55,-78.06"/>
<polygon fill="black" stroke="black" points="112.95,-86.59 104.12,-92.46 114.68,-93.37 112.95,-86.59"/>
</g>
<!-- Node1&#45;&gt;Node2 -->
<g id="edge1" class="edge">
<title>Node1&#45;&gt;Node2</title>
<path fill="none" stroke="black" d="M84.21,-84.85C100.61,-74.24 121.16,-61.3 140,-50.5 145.51,-47.34 151.38,-44.13 157.2,-41.04"/>
<polygon fill="black" stroke="black" points="82.04,-82.09 75.57,-90.48 85.86,-87.95 82.04,-82.09"/>
</g>
</g>
</svg>
