<?xml version="1.0" encoding="UTF-8" standalone="no"?>
<!DOCTYPE svg PUBLIC "-//W3C//DTD SVG 1.1//EN"
 "http://www.w3.org/Graphics/SVG/1.1/DTD/svg11.dtd">
<!-- Generated by graphviz version 2.40.1 (0)
 -->
<!-- Title: PWM Settings Pages: 1 -->
<svg width="573pt" height="101pt"
 viewBox="0.00 0.00 573.00 101.00" xmlns="http://www.w3.org/2000/svg" xmlns:xlink="http://www.w3.org/1999/xlink">
<g id="graph0" class="graph" transform="scale(1 1) rotate(0) translate(4 97)">
<title>PWM Settings</title>
<polygon fill="#ffffff" stroke="transparent" points="-4,4 -4,-97 569,-97 569,4 -4,4"/>
<!-- Node1 -->
<g id="node1" class="node">
<title>Node1</title>
<g id="a_node1"><a xlink:href="a00658.html" target="_top" xlink:title="Hardware Abstraction Layer Declarations.">
<polygon fill="#ffffff" stroke="#000000" points="167,-61.5 0,-61.5 0,-31.5 167,-31.5 167,-61.5"/>
<text text-anchor="start" x="8" y="-49.5" font-family="Helvetica,sans-Serif" font-size="10.00" fill="#000000">Hardware Abstraction</text>
<text text-anchor="middle" x="83.5" y="-38.5" font-family="Helvetica,sans-Serif" font-size="10.00" fill="#000000"> Layer</text>
</a>
</g>
</g>
<!-- Node0 -->
<g id="node5" class="node">
<title>Node0</title>
<g id="a_node5"><a xlink:title="Declaration of fundamental PWM parameters.">
<polygon fill="#bfbfbf" stroke="#000000" points="310,-56 203,-56 203,-37 310,-37 310,-56"/>
<text text-anchor="middle" x="256.5" y="-44" font-family="Helvetica,sans-Serif" font-size="10.00" fill="#000000">PWM Settings</text>
</a>
</g>
</g>
<!-- Node1&#45;&gt;Node0 -->
<g id="edge1" class="edge">
<title>Node1&#45;&gt;Node0</title>
<path fill="none" stroke="#000000" d="M177.3971,-46.5C186.0515,-46.5 194.6064,-46.5 202.7119,-46.5"/>
<polygon fill="#000000" stroke="#000000" points="177.2129,-43.0001 167.2128,-46.5 177.2128,-50.0001 177.2129,-43.0001"/>
</g>
<!-- Node4 -->
<g id="node2" class="node">
<title>Node4</title>
<g id="a_node2"><a xlink:href="a00506.html" target="_top" xlink:title="PWM peripheral output pins, control signals and register assignments.">
<polygon fill="#ffffff" stroke="#000000" points="565,-93 346,-93 346,-74 565,-74 565,-93"/>
<text text-anchor="middle" x="455.5" y="-81" font-family="Helvetica,sans-Serif" font-size="10.00" fill="#000000">Microcontroller Abstraction</text>
</a>
</g>
</g>
<!-- Node3 -->
<g id="node3" class="node">
<title>Node3</title>
<g id="a_node3"><a xlink:href="a00504.html" target="_top" xlink:title="Conversion macros converting physical quantities of parameters into binary (integer) numbers for regi...">
<polygon fill="#ffffff" stroke="#000000" points="527.5,-56 383.5,-56 383.5,-37 527.5,-37 527.5,-56"/>
<text text-anchor="middle" x="455.5" y="-44" font-family="Helvetica,sans-Serif" font-size="10.00" fill="#000000">Conversion Macros</text>
</a>
</g>
</g>
<!-- Node2 -->
<g id="node4" class="node">
<title>Node2</title>
<g id="a_node4"><a xlink:href="a00502.html" target="_top" xlink:title="Parameter definitions using physical quantities.">
<polygon fill="#ffffff" stroke="#000000" points="512.5,-19 398.5,-19 398.5,0 512.5,0 512.5,-19"/>
<text text-anchor="middle" x="455.5" y="-7" font-family="Helvetica,sans-Serif" font-size="10.00" fill="#000000">User Settings</text>
</a>
</g>
</g>
<!-- Node0&#45;&gt;Node4 -->
<g id="edge4" class="edge">
<title>Node0&#45;&gt;Node4</title>
<path fill="none" stroke="#000000" d="M309.5271,-58.1803C321.5015,-60.6999 334.1703,-63.2733 346,-65.5 361.6198,-68.4402 378.5443,-71.3547 394.3103,-73.9547"/>
<polygon fill="#000000" stroke="#000000" points="310.1746,-54.7398 299.6656,-56.0852 308.7199,-61.587 310.1746,-54.7398"/>
</g>
<!-- Node0&#45;&gt;Node3 -->
<g id="edge3" class="edge">
<title>Node0&#45;&gt;Node3</title>
<path fill="none" stroke="#000000" d="M320.1069,-46.5C340.2924,-46.5 362.7537,-46.5 383.4872,-46.5"/>
<polygon fill="#000000" stroke="#000000" points="320.0902,-43.0001 310.0901,-46.5 320.0901,-50.0001 320.0902,-43.0001"/>
</g>
<!-- Node0&#45;&gt;Node2 -->
<g id="edge2" class="edge">
<title>Node0&#45;&gt;Node2</title>
<path fill="none" stroke="#000000" d="M312.8373,-34.9316C323.8254,-32.7426 335.2655,-30.5104 346,-28.5 363.1631,-25.2857 381.8759,-21.9695 398.8978,-19.0251"/>
<polygon fill="#000000" stroke="#000000" points="312.0236,-31.525 302.9065,-36.9222 313.3993,-38.3885 312.0236,-31.525"/>
</g>
</g>
</svg>
