<?xml version="1.0" encoding="UTF-8" standalone="no"?>
<!DOCTYPE svg PUBLIC "-//W3C//DTD SVG 1.1//EN"
 "http://www.w3.org/Graphics/SVG/1.1/DTD/svg11.dtd">
<!-- Generated by graphviz version 2.40.1 (0)
 -->
<!-- Title: Conversion Macros Pages: 1 -->
<svg width="535pt" height="27pt"
 viewBox="0.00 0.00 535.00 27.00" xmlns="http://www.w3.org/2000/svg" xmlns:xlink="http://www.w3.org/1999/xlink">
<g id="graph0" class="graph" transform="scale(1 1) rotate(0) translate(4 23)">
<title>Conversion Macros</title>
<polygon fill="#ffffff" stroke="transparent" points="-4,4 -4,-23 531,-23 531,4 -4,4"/>
<!-- Node0 -->
<g id="node1" class="node">
<title>Node0</title>
<g id="a_node1"><a xlink:title="Conversion macros for user&#45;declarations of input voltage feedback parameters.">
<polygon fill="#bfbfbf" stroke="#000000" points="362,-19 218,-19 218,0 362,0 362,-19"/>
<text text-anchor="middle" x="290" y="-7" font-family="Helvetica,sans-Serif" font-size="10.00" fill="#000000">Conversion Macros</text>
</a>
</g>
</g>
<!-- Node2 -->
<g id="node3" class="node">
<title>Node2</title>
<g id="a_node3"><a xlink:href="a00512.html" target="_top" xlink:title="Conversion macros for user&#45;declarations of input voltage feedback parameters of the boost converter.">
<polygon fill="#ffffff" stroke="#000000" points="527,-19 398,-19 398,0 527,0 527,-19"/>
<text text-anchor="middle" x="462.5" y="-7" font-family="Helvetica,sans-Serif" font-size="10.00" fill="#000000">Boost Converter</text>
</a>
</g>
</g>
<!-- Node0&#45;&gt;Node2 -->
<g id="edge2" class="edge">
<title>Node0&#45;&gt;Node2</title>
<path fill="none" stroke="#000000" d="M372.1926,-9.5C380.7807,-9.5 389.4226,-9.5 397.7766,-9.5"/>
<polygon fill="#000000" stroke="#000000" points="372.1561,-6.0001 362.156,-9.5 372.156,-13.0001 372.1561,-6.0001"/>
</g>
<!-- Node1 -->
<g id="node2" class="node">
<title>Node1</title>
<g id="a_node2"><a xlink:href="a00508.html" target="_top" xlink:title="Declaration of input voltage feedback parameters.">
<polygon fill="#ffffff" stroke="#000000" points="182,-19 0,-19 0,0 182,0 182,-19"/>
<text text-anchor="middle" x="91" y="-7" font-family="Helvetica,sans-Serif" font-size="10.00" fill="#000000">Input Voltage Feedback</text>
</a>
</g>
</g>
<!-- Node1&#45;&gt;Node0 -->
<g id="edge1" class="edge">
<title>Node1&#45;&gt;Node0</title>
<path fill="none" stroke="#000000" d="M192.1819,-9.5C200.8149,-9.5 209.4309,-9.5 217.7701,-9.5"/>
<polygon fill="#000000" stroke="#000000" points="192.0555,-6.0001 182.0554,-9.5 192.0554,-13.0001 192.0555,-6.0001"/>
</g>
</g>
</svg>
