<?xml version="1.0" encoding="UTF-8" standalone="no"?>
<!DOCTYPE svg PUBLIC "-//W3C//DTD SVG 1.1//EN"
 "http://www.w3.org/Graphics/SVG/1.1/DTD/svg11.dtd">
<!-- Generated by graphviz version 2.40.1 (0)
 -->
<!-- Title: Boost Converter State Machine Pages: 1 -->
<svg width="535pt" height="64pt"
 viewBox="0.00 0.00 535.00 64.00" xmlns="http://www.w3.org/2000/svg" xmlns:xlink="http://www.w3.org/1999/xlink">
<g id="graph0" class="graph" transform="scale(1 1) rotate(0) translate(4 60)">
<title>Boost Converter State Machine</title>
<polygon fill="#ffffff" stroke="transparent" points="-4,4 -4,-60 531,-60 531,4 -4,4"/>
<!-- Node0 -->
<g id="node1" class="node">
<title>Node0</title>
<g id="a_node1"><a xlink:title="Description of the Boost Converter Library State Machine library module.">
<polygon fill="#bfbfbf" stroke="#000000" points="399,-42.5 225,-42.5 225,-12.5 399,-12.5 399,-42.5"/>
<text text-anchor="start" x="233" y="-30.5" font-family="Helvetica,sans-Serif" font-size="10.00" fill="#000000">Boost Converter State</text>
<text text-anchor="middle" x="312" y="-19.5" font-family="Helvetica,sans-Serif" font-size="10.00" fill="#000000"> Machine</text>
</a>
</g>
</g>
<!-- Node3 -->
<g id="node2" class="node">
<title>Node3</title>
<g id="a_node2"><a xlink:href="a00601.html" target="_top" xlink:title="Properties of the second library layer.">
<polygon fill="#ffffff" stroke="#000000" points="527,-56 435,-56 435,-37 527,-37 527,-56"/>
<text text-anchor="middle" x="481" y="-44" font-family="Helvetica,sans-Serif" font-size="10.00" fill="#000000">Properties</text>
</a>
</g>
</g>
<!-- Node0&#45;&gt;Node3 -->
<g id="edge3" class="edge">
<title>Node0&#45;&gt;Node3</title>
<path fill="none" stroke="#000000" d="M409.4729,-38.4585C418.2787,-39.4485 426.8919,-40.4168 434.9177,-41.3192"/>
<polygon fill="#000000" stroke="#000000" points="409.7986,-34.9731 399.4702,-37.3339 409.0165,-41.9293 409.7986,-34.9731"/>
</g>
<!-- Node2 -->
<g id="node3" class="node">
<title>Node2</title>
<g id="a_node3"><a xlink:href="a00600.html" target="_top" xlink:title="Functions of the second library layer.">
<polygon fill="#ffffff" stroke="#000000" points="523,-19 439,-19 439,0 523,0 523,-19"/>
<text text-anchor="middle" x="481" y="-7" font-family="Helvetica,sans-Serif" font-size="10.00" fill="#000000">Functions</text>
</a>
</g>
</g>
<!-- Node0&#45;&gt;Node2 -->
<g id="edge2" class="edge">
<title>Node0&#45;&gt;Node2</title>
<path fill="none" stroke="#000000" d="M409.6971,-17.0944C419.8596,-16.012 429.7609,-14.9574 438.7935,-13.9954"/>
<polygon fill="#000000" stroke="#000000" points="409.0432,-13.6442 399.4702,-18.1837 409.7846,-20.6048 409.0432,-13.6442"/>
</g>
<!-- Node1 -->
<g id="node4" class="node">
<title>Node1</title>
<g id="a_node4"><a xlink:href="a00598.html" target="_top" xlink:title=" ">
<polygon fill="#ffffff" stroke="#000000" points="189,-42.5 0,-42.5 0,-12.5 189,-12.5 189,-42.5"/>
<text text-anchor="start" x="8" y="-30.5" font-family="Helvetica,sans-Serif" font-size="10.00" fill="#000000">Boost Converter Library</text>
<text text-anchor="middle" x="94.5" y="-19.5" font-family="Helvetica,sans-Serif" font-size="10.00" fill="#000000"> Modules</text>
</a>
</g>
</g>
<!-- Node1&#45;&gt;Node0 -->
<g id="edge1" class="edge">
<title>Node1&#45;&gt;Node0</title>
<path fill="none" stroke="#000000" d="M199.5332,-27.5C207.9739,-27.5 216.4444,-27.5 224.7412,-27.5"/>
<polygon fill="#000000" stroke="#000000" points="199.266,-24.0001 189.266,-27.5 199.2659,-31.0001 199.266,-24.0001"/>
</g>
</g>
</svg>
