<?xml version="1.0" encoding="UTF-8" standalone="no"?>
<!DOCTYPE svg PUBLIC "-//W3C//DTD SVG 1.1//EN"
 "http://www.w3.org/Graphics/SVG/1.1/DTD/svg11.dtd">
<!-- Generated by graphviz version 2.40.1 (0)
 -->
<!-- Title: Input Voltage Feedback Pages: 1 -->
<svg width="648pt" height="101pt"
 viewBox="0.00 0.00 648.00 101.00" xmlns="http://www.w3.org/2000/svg" xmlns:xlink="http://www.w3.org/1999/xlink">
<g id="graph0" class="graph" transform="scale(1 1) rotate(0) translate(4 97)">
<title>Input Voltage Feedback</title>
<polygon fill="#ffffff" stroke="transparent" points="-4,4 -4,-97 644,-97 644,4 -4,4"/>
<!-- Node3 -->
<g id="node1" class="node">
<title>Node3</title>
<g id="a_node1"><a xlink:href="a00511.html" target="_top" xlink:title="Conversion macros for user&#45;declarations of input voltage feedback parameters.">
<polygon fill="#ffffff" stroke="#000000" points="602.5,-93 458.5,-93 458.5,-74 602.5,-74 602.5,-93"/>
<text text-anchor="middle" x="530.5" y="-81" font-family="Helvetica,sans-Serif" font-size="10.00" fill="#000000">Conversion Macros</text>
</a>
</g>
</g>
<!-- Node1 -->
<g id="node2" class="node">
<title>Node1</title>
<g id="a_node2"><a xlink:href="a00658.html" target="_top" xlink:title="Hardware Abstraction Layer Declarations.">
<polygon fill="#ffffff" stroke="#000000" points="167,-61.5 0,-61.5 0,-31.5 167,-31.5 167,-61.5"/>
<text text-anchor="start" x="8" y="-49.5" font-family="Helvetica,sans-Serif" font-size="10.00" fill="#000000">Hardware Abstraction</text>
<text text-anchor="middle" x="83.5" y="-38.5" font-family="Helvetica,sans-Serif" font-size="10.00" fill="#000000"> Layer</text>
</a>
</g>
</g>
<!-- Node0 -->
<g id="node3" class="node">
<title>Node0</title>
<g id="a_node3"><a xlink:title="Declaration of input voltage feedback parameters.">
<polygon fill="#bfbfbf" stroke="#000000" points="385,-56 203,-56 203,-37 385,-37 385,-56"/>
<text text-anchor="middle" x="294" y="-44" font-family="Helvetica,sans-Serif" font-size="10.00" fill="#000000">Input Voltage Feedback</text>
</a>
</g>
</g>
<!-- Node1&#45;&gt;Node0 -->
<g id="edge1" class="edge">
<title>Node1&#45;&gt;Node0</title>
<path fill="none" stroke="#000000" d="M177.519,-46.5C185.9484,-46.5 194.475,-46.5 202.8792,-46.5"/>
<polygon fill="#000000" stroke="#000000" points="177.3,-43.0001 167.3,-46.5 177.3,-50.0001 177.3,-43.0001"/>
</g>
<!-- Node0&#45;&gt;Node3 -->
<g id="edge3" class="edge">
<title>Node0&#45;&gt;Node3</title>
<path fill="none" stroke="#000000" d="M365.018,-57.6106C398.2696,-62.8128 437.4839,-68.9478 469.3912,-73.9396"/>
<polygon fill="#000000" stroke="#000000" points="365.3255,-54.1162 354.9046,-56.0284 364.2434,-61.0321 365.3255,-54.1162"/>
</g>
<!-- Node4 -->
<g id="node4" class="node">
<title>Node4</title>
<g id="a_node4"><a xlink:href="a00513.html" target="_top" xlink:title="Device analog input pin, register and interrupt vector assignments of input voltage feedback signal(s...">
<polygon fill="#ffffff" stroke="#000000" points="640,-56 421,-56 421,-37 640,-37 640,-56"/>
<text text-anchor="middle" x="530.5" y="-44" font-family="Helvetica,sans-Serif" font-size="10.00" fill="#000000">Microcontroller Abstraction</text>
</a>
</g>
</g>
<!-- Node0&#45;&gt;Node4 -->
<g id="edge4" class="edge">
<title>Node0&#45;&gt;Node4</title>
<path fill="none" stroke="#000000" d="M395.3367,-46.5C403.7876,-46.5 412.3561,-46.5 420.8649,-46.5"/>
<polygon fill="#000000" stroke="#000000" points="395.0988,-43.0001 385.0988,-46.5 395.0987,-50.0001 395.0988,-43.0001"/>
</g>
<!-- Node2 -->
<g id="node5" class="node">
<title>Node2</title>
<g id="a_node5"><a xlink:href="a00509.html" target="_top" xlink:title="User&#45;declaration of input voltage feedback parameters using physical quantities.">
<polygon fill="#ffffff" stroke="#000000" points="587.5,-19 473.5,-19 473.5,0 587.5,0 587.5,-19"/>
<text text-anchor="middle" x="530.5" y="-7" font-family="Helvetica,sans-Serif" font-size="10.00" fill="#000000">User Settings</text>
</a>
</g>
</g>
<!-- Node0&#45;&gt;Node2 -->
<g id="edge2" class="edge">
<title>Node0&#45;&gt;Node2</title>
<path fill="none" stroke="#000000" d="M364.9728,-35.3964C399.6616,-29.9694 440.8482,-23.5259 473.4596,-18.4239"/>
<polygon fill="#000000" stroke="#000000" points="364.2434,-31.9679 354.9046,-36.9716 365.3255,-38.8838 364.2434,-31.9679"/>
</g>
</g>
</svg>
