<?xml version="1.0" encoding="UTF-8" standalone="no"?>
<!DOCTYPE svg PUBLIC "-//W3C//DTD SVG 1.1//EN"
 "http://www.w3.org/Graphics/SVG/1.1/DTD/svg11.dtd">
<!-- Generated by graphviz version 2.40.1 (0)
 -->
<!-- Title: Control Interrupt Vector Declarations Pages: 1 -->
<svg width="573pt" height="38pt"
 viewBox="0.00 0.00 573.00 38.00" xmlns="http://www.w3.org/2000/svg" xmlns:xlink="http://www.w3.org/1999/xlink">
<g id="graph0" class="graph" transform="scale(1 1) rotate(0) translate(4 34)">
<title>Control Interrupt Vector Declarations</title>
<polygon fill="#ffffff" stroke="transparent" points="-4,4 -4,-34 569,-34 569,4 -4,4"/>
<!-- Node1 -->
<g id="node1" class="node">
<title>Node1</title>
<g id="a_node1"><a xlink:href="a00658.html" target="_top" xlink:title="Hardware Abstraction Layer Declarations.">
<polygon fill="#ffffff" stroke="#000000" points="167,-30 0,-30 0,0 167,0 167,-30"/>
<text text-anchor="start" x="8" y="-18" font-family="Helvetica,sans-Serif" font-size="10.00" fill="#000000">Hardware Abstraction</text>
<text text-anchor="middle" x="83.5" y="-7" font-family="Helvetica,sans-Serif" font-size="10.00" fill="#000000"> Layer</text>
</a>
</g>
</g>
<!-- Node0 -->
<g id="node2" class="node">
<title>Node0</title>
<g id="a_node2"><a xlink:title="Real&#45;time control loop interrupt service routine declarations.">
<polygon fill="#bfbfbf" stroke="#000000" points="400,-30 203,-30 203,0 400,0 400,-30"/>
<text text-anchor="start" x="211" y="-18" font-family="Helvetica,sans-Serif" font-size="10.00" fill="#000000">Control Interrupt Vector</text>
<text text-anchor="middle" x="301.5" y="-7" font-family="Helvetica,sans-Serif" font-size="10.00" fill="#000000"> Declarations</text>
</a>
</g>
</g>
<!-- Node1&#45;&gt;Node0 -->
<g id="edge1" class="edge">
<title>Node1&#45;&gt;Node0</title>
<path fill="none" stroke="#000000" d="M177.3498,-15C185.764,-15 194.3011,-15 202.7551,-15"/>
<polygon fill="#000000" stroke="#000000" points="177.1611,-11.5001 167.161,-15 177.161,-18.5001 177.1611,-11.5001"/>
</g>
<!-- Node2 -->
<g id="node3" class="node">
<title>Node2</title>
<g id="a_node3"><a xlink:href="a00539.html" target="_top" xlink:title="Control loop Interrupt Vector Settings of the boost converter.">
<polygon fill="#ffffff" stroke="#000000" points="565,-24.5 436,-24.5 436,-5.5 565,-5.5 565,-24.5"/>
<text text-anchor="middle" x="500.5" y="-12.5" font-family="Helvetica,sans-Serif" font-size="10.00" fill="#000000">Boost Converter</text>
</a>
</g>
</g>
<!-- Node0&#45;&gt;Node2 -->
<g id="edge2" class="edge">
<title>Node0&#45;&gt;Node2</title>
<path fill="none" stroke="#000000" d="M410.339,-15C419.0157,-15 427.5967,-15 435.8152,-15"/>
<polygon fill="#000000" stroke="#000000" points="410.1255,-11.5001 400.1255,-15 410.1255,-18.5001 410.1255,-11.5001"/>
</g>
</g>
</svg>
