<?xml version="1.0" encoding="UTF-8" standalone="no"?>
<!DOCTYPE svg PUBLIC "-//W3C//DTD SVG 1.1//EN"
 "http://www.w3.org/Graphics/SVG/1.1/DTD/svg11.dtd">
<!-- Generated by graphviz version 2.40.1 (0)
 -->
<!-- Title: Output Voltage Feedback Pages: 1 -->
<svg width="655pt" height="101pt"
 viewBox="0.00 0.00 655.00 101.00" xmlns="http://www.w3.org/2000/svg" xmlns:xlink="http://www.w3.org/1999/xlink">
<g id="graph0" class="graph" transform="scale(1 1) rotate(0) translate(4 97)">
<title>Output Voltage Feedback</title>
<polygon fill="#ffffff" stroke="transparent" points="-4,4 -4,-97 651,-97 651,4 -4,4"/>
<!-- Node1 -->
<g id="node1" class="node">
<title>Node1</title>
<g id="a_node1"><a xlink:href="a00658.html" target="_top" xlink:title="Hardware Abstraction Layer Declarations.">
<polygon fill="#ffffff" stroke="#000000" points="167,-61.5 0,-61.5 0,-31.5 167,-31.5 167,-61.5"/>
<text text-anchor="start" x="8" y="-49.5" font-family="Helvetica,sans-Serif" font-size="10.00" fill="#000000">Hardware Abstraction</text>
<text text-anchor="middle" x="83.5" y="-38.5" font-family="Helvetica,sans-Serif" font-size="10.00" fill="#000000"> Layer</text>
</a>
</g>
</g>
<!-- Node0 -->
<g id="node5" class="node">
<title>Node0</title>
<g id="a_node5"><a xlink:title="Declaration of output voltage feedback parameters.">
<polygon fill="#bfbfbf" stroke="#000000" points="392,-56 203,-56 203,-37 392,-37 392,-56"/>
<text text-anchor="middle" x="297.5" y="-44" font-family="Helvetica,sans-Serif" font-size="10.00" fill="#000000">Output Voltage Feedback</text>
</a>
</g>
</g>
<!-- Node1&#45;&gt;Node0 -->
<g id="edge1" class="edge">
<title>Node1&#45;&gt;Node0</title>
<path fill="none" stroke="#000000" d="M177.4073,-46.5C185.8673,-46.5 194.4381,-46.5 202.904,-46.5"/>
<polygon fill="#000000" stroke="#000000" points="177.1575,-43.0001 167.1574,-46.5 177.1574,-50.0001 177.1575,-43.0001"/>
</g>
<!-- Node4 -->
<g id="node2" class="node">
<title>Node4</title>
<g id="a_node2"><a xlink:href="a00520.html" target="_top" xlink:title="Device analog output pin, register and interrupt vector assignments of output voltage feedback signal...">
<polygon fill="#ffffff" stroke="#000000" points="647,-93 428,-93 428,-74 647,-74 647,-93"/>
<text text-anchor="middle" x="537.5" y="-81" font-family="Helvetica,sans-Serif" font-size="10.00" fill="#000000">Microcontroller Abstraction</text>
</a>
</g>
</g>
<!-- Node3 -->
<g id="node3" class="node">
<title>Node3</title>
<g id="a_node3"><a xlink:href="a00518.html" target="_top" xlink:title="Conversion macros for user&#45;declarations of output voltage feedback parameters.">
<polygon fill="#ffffff" stroke="#000000" points="609.5,-56 465.5,-56 465.5,-37 609.5,-37 609.5,-56"/>
<text text-anchor="middle" x="537.5" y="-44" font-family="Helvetica,sans-Serif" font-size="10.00" fill="#000000">Conversion Macros</text>
</a>
</g>
</g>
<!-- Node2 -->
<g id="node4" class="node">
<title>Node2</title>
<g id="a_node4"><a xlink:href="a00516.html" target="_top" xlink:title="User&#45;declaration of output voltage feedback parameters using physical quantities.">
<polygon fill="#ffffff" stroke="#000000" points="594.5,-19 480.5,-19 480.5,0 594.5,0 594.5,-19"/>
<text text-anchor="middle" x="537.5" y="-7" font-family="Helvetica,sans-Serif" font-size="10.00" fill="#000000">User Settings</text>
</a>
</g>
</g>
<!-- Node0&#45;&gt;Node4 -->
<g id="edge4" class="edge">
<title>Node0&#45;&gt;Node4</title>
<path fill="none" stroke="#000000" d="M369.569,-57.6106C403.3127,-62.8128 443.1074,-68.9478 475.4868,-73.9396"/>
<polygon fill="#000000" stroke="#000000" points="369.7225,-54.093 359.306,-56.0284 368.6559,-61.0113 369.7225,-54.093"/>
</g>
<!-- Node0&#45;&gt;Node3 -->
<g id="edge3" class="edge">
<title>Node0&#45;&gt;Node3</title>
<path fill="none" stroke="#000000" d="M402.0887,-46.5C423.43,-46.5 445.4325,-46.5 465.3358,-46.5"/>
<polygon fill="#000000" stroke="#000000" points="402.0099,-43.0001 392.0098,-46.5 402.0098,-50.0001 402.0099,-43.0001"/>
</g>
<!-- Node0&#45;&gt;Node2 -->
<g id="edge2" class="edge">
<title>Node0&#45;&gt;Node2</title>
<path fill="none" stroke="#000000" d="M369.6012,-35.3844C405.0769,-29.9152 447.2342,-23.416 480.4308,-18.2982"/>
<polygon fill="#000000" stroke="#000000" points="368.6559,-31.9887 359.306,-36.9716 369.7225,-38.907 368.6559,-31.9887"/>
</g>
</g>
</svg>
