<?xml version="1.0" encoding="UTF-8" standalone="no"?>
<!DOCTYPE svg PUBLIC "-//W3C//DTD SVG 1.1//EN"
 "http://www.w3.org/Graphics/SVG/1.1/DTD/svg11.dtd">
<!-- Generated by graphviz version 2.40.1 (0)
 -->
<!-- Title: Public Properties Pages: 1 -->
<svg width="617pt" height="101pt"
 viewBox="0.00 0.00 617.00 101.00" xmlns="http://www.w3.org/2000/svg" xmlns:xlink="http://www.w3.org/1999/xlink">
<g id="graph0" class="graph" transform="scale(1 1) rotate(0) translate(4 97)">
<title>Public Properties</title>
<polygon fill="#ffffff" stroke="transparent" points="-4,4 -4,-97 613,-97 613,4 -4,4"/>
<!-- Node1 -->
<g id="node1" class="node">
<title>Node1</title>
<g id="a_node1"><a xlink:href="a00588.html" target="_top" xlink:title=" ">
<polygon fill="#ffffff" stroke="#000000" points="219,-56 0,-56 0,-37 219,-37 219,-56"/>
<text text-anchor="middle" x="109.5" y="-44" font-family="Helvetica,sans-Serif" font-size="10.00" fill="#000000">Boost Converter Library API</text>
</a>
</g>
</g>
<!-- Node0 -->
<g id="node4" class="node">
<title>Node0</title>
<g id="a_node4"><a xlink:title="Public properties of the second library layer.">
<polygon fill="#bfbfbf" stroke="#000000" points="399,-56 255,-56 255,-37 399,-37 399,-56"/>
<text text-anchor="middle" x="327" y="-44" font-family="Helvetica,sans-Serif" font-size="10.00" fill="#000000">Public Properties</text>
</a>
</g>
</g>
<!-- Node1&#45;&gt;Node0 -->
<g id="edge1" class="edge">
<title>Node1&#45;&gt;Node0</title>
<path fill="none" stroke="#000000" d="M229.4327,-46.5C238.1183,-46.5 246.7077,-46.5 254.9762,-46.5"/>
<polygon fill="#000000" stroke="#000000" points="229.2058,-43.0001 219.2058,-46.5 229.2058,-50.0001 229.2058,-43.0001"/>
</g>
<!-- Node4 -->
<g id="node2" class="node">
<title>Node4</title>
<g id="a_node2"><a xlink:href="a00593.html" target="_top" xlink:title=" ">
<polygon fill="#ffffff" stroke="#000000" points="598,-93 446,-93 446,-74 598,-74 598,-93"/>
<text text-anchor="middle" x="522" y="-81" font-family="Helvetica,sans-Serif" font-size="10.00" fill="#000000">Defines and Macros</text>
</a>
</g>
</g>
<!-- Node3 -->
<g id="node3" class="node">
<title>Node3</title>
<g id="a_node3"><a xlink:href="a00592.html" target="_top" xlink:title=" ">
<polygon fill="#ffffff" stroke="#000000" points="568,-56 476,-56 476,-37 568,-37 568,-56"/>
<text text-anchor="middle" x="522" y="-44" font-family="Helvetica,sans-Serif" font-size="10.00" fill="#000000">Data Types</text>
</a>
</g>
</g>
<!-- Node0&#45;&gt;Node4 -->
<g id="edge4" class="edge">
<title>Node0&#45;&gt;Node4</title>
<path fill="none" stroke="#000000" d="M387.3354,-57.9483C414.3637,-63.0767 445.873,-69.0554 471.6143,-73.9396"/>
<polygon fill="#000000" stroke="#000000" points="387.6945,-54.454 377.2173,-56.0284 386.3896,-61.3313 387.6945,-54.454"/>
</g>
<!-- Node0&#45;&gt;Node3 -->
<g id="edge3" class="edge">
<title>Node0&#45;&gt;Node3</title>
<path fill="none" stroke="#000000" d="M409.1101,-46.5C431.9646,-46.5 455.9765,-46.5 475.9508,-46.5"/>
<polygon fill="#000000" stroke="#000000" points="409.0568,-43.0001 399.0568,-46.5 409.0567,-50.0001 409.0568,-43.0001"/>
</g>
<!-- Node2 -->
<g id="node5" class="node">
<title>Node2</title>
<g id="a_node5"><a xlink:href="a00591.html" target="_top" xlink:title=" ">
<polygon fill="#ffffff" stroke="#000000" points="609,-19 435,-19 435,0 609,0 609,-19"/>
<text text-anchor="middle" x="522" y="-7" font-family="Helvetica,sans-Serif" font-size="10.00" fill="#000000">Variables &amp; Constants</text>
</a>
</g>
</g>
<!-- Node0&#45;&gt;Node2 -->
<g id="edge2" class="edge">
<title>Node0&#45;&gt;Node2</title>
<path fill="none" stroke="#000000" d="M387.3354,-35.0517C414.3637,-29.9233 445.873,-23.9446 471.6143,-19.0604"/>
<polygon fill="#000000" stroke="#000000" points="386.3896,-31.6687 377.2173,-36.9716 387.6945,-38.546 386.3896,-31.6687"/>
</g>
</g>
</svg>
