<?xml version="1.0" encoding="UTF-8" standalone="no"?>
<!DOCTYPE svg PUBLIC "-//W3C//DTD SVG 1.1//EN"
 "http://www.w3.org/Graphics/SVG/1.1/DTD/svg11.dtd">
<!-- Generated by graphviz version 2.40.1 (0)
 -->
<!-- Title: LC&#45;Display Library Pages: 1 -->
<svg width="558pt" height="138pt"
 viewBox="0.00 0.00 558.00 138.00" xmlns="http://www.w3.org/2000/svg" xmlns:xlink="http://www.w3.org/1999/xlink">
<g id="graph0" class="graph" transform="scale(1 1) rotate(0) translate(4 134)">
<title>LC&#45;Display Library</title>
<polygon fill="#ffffff" stroke="transparent" points="-4,4 -4,-134 554,-134 554,4 -4,4"/>
<!-- Node2 -->
<g id="node1" class="node">
<title>Node2</title>
<g id="a_node1"><a xlink:href="a00567.html" target="_top" xlink:title="Public functions of the LC display device driver library.">
<polygon fill="#ffffff" stroke="#000000" points="542.5,-130 405.5,-130 405.5,-111 542.5,-111 542.5,-130"/>
<text text-anchor="middle" x="474" y="-118" font-family="Helvetica,sans-Serif" font-size="10.00" fill="#000000">Public Functions</text>
</a>
</g>
</g>
<!-- Node5 -->
<g id="node2" class="node">
<title>Node5</title>
<g id="a_node2"><a xlink:href="a00570.html" target="_top" xlink:title="Private properties of the LC display device driver library.">
<polygon fill="#ffffff" stroke="#000000" points="550,-93 398,-93 398,-74 550,-74 550,-93"/>
<text text-anchor="middle" x="474" y="-81" font-family="Helvetica,sans-Serif" font-size="10.00" fill="#000000">Private Properties</text>
</a>
</g>
</g>
<!-- Node0 -->
<g id="node3" class="node">
<title>Node0</title>
<g id="a_node3"><a xlink:title=" ">
<polygon fill="#bfbfbf" stroke="#000000" points="362,-74 210,-74 210,-55 362,-55 362,-74"/>
<text text-anchor="middle" x="286" y="-62" font-family="Helvetica,sans-Serif" font-size="10.00" fill="#000000">LC&#45;Display Library</text>
</a>
</g>
</g>
<!-- Node0&#45;&gt;Node2 -->
<g id="edge2" class="edge">
<title>Node0&#45;&gt;Node2</title>
<path fill="none" stroke="#000000" d="M321.5681,-77.5282C343.4499,-85.3027 372.1586,-95.074 398,-102.5 408.4256,-105.496 419.7571,-108.3773 430.4102,-110.923"/>
<polygon fill="#000000" stroke="#000000" points="322.6241,-74.1888 312.0296,-74.1123 320.264,-80.7789 322.6241,-74.1888"/>
</g>
<!-- Node0&#45;&gt;Node5 -->
<g id="edge5" class="edge">
<title>Node0&#45;&gt;Node5</title>
<path fill="none" stroke="#000000" d="M372.1457,-73.2062C380.67,-74.0677 389.281,-74.938 397.6957,-75.7884"/>
<polygon fill="#000000" stroke="#000000" points="372.4971,-69.724 362.1958,-72.2006 371.7931,-76.6885 372.4971,-69.724"/>
</g>
<!-- Node3 -->
<g id="node4" class="node">
<title>Node3</title>
<g id="a_node4"><a xlink:href="a00568.html" target="_top" xlink:title="Public properties of the LC display device driver library.">
<polygon fill="#ffffff" stroke="#000000" points="546,-56 402,-56 402,-37 546,-37 546,-56"/>
<text text-anchor="middle" x="474" y="-44" font-family="Helvetica,sans-Serif" font-size="10.00" fill="#000000">Public Properties</text>
</a>
</g>
</g>
<!-- Node0&#45;&gt;Node3 -->
<g id="edge3" class="edge">
<title>Node0&#45;&gt;Node3</title>
<path fill="none" stroke="#000000" d="M372.4285,-56.2249C382.3045,-55.2794 392.2927,-54.323 401.9532,-53.3981"/>
<polygon fill="#000000" stroke="#000000" points="371.8166,-52.7674 362.1958,-57.2047 372.4839,-59.7356 371.8166,-52.7674"/>
</g>
<!-- Node4 -->
<g id="node5" class="node">
<title>Node4</title>
<g id="a_node5"><a xlink:href="a00569.html" target="_top" xlink:title="Private functions of the LC display device driver library.">
<polygon fill="#ffffff" stroke="#000000" points="546,-19 402,-19 402,0 546,0 546,-19"/>
<text text-anchor="middle" x="474" y="-7" font-family="Helvetica,sans-Serif" font-size="10.00" fill="#000000">Private Functions</text>
</a>
</g>
</g>
<!-- Node0&#45;&gt;Node4 -->
<g id="edge4" class="edge">
<title>Node0&#45;&gt;Node4</title>
<path fill="none" stroke="#000000" d="M322.4701,-51.5651C344.2488,-44.0635 372.5402,-34.7058 398,-27.5 408.568,-24.509 420.0571,-21.6087 430.8263,-19.0411"/>
<polygon fill="#000000" stroke="#000000" points="321.2554,-48.2818 312.9555,-54.8668 323.5503,-54.8949 321.2554,-48.2818"/>
</g>
<!-- Node1 -->
<g id="node6" class="node">
<title>Node1</title>
<g id="a_node6"><a xlink:href="a00660.html" target="_top" xlink:title="Generic Device Driver Layer.">
<polygon fill="#ffffff" stroke="#000000" points="174,-79.5 0,-79.5 0,-49.5 174,-49.5 174,-79.5"/>
<text text-anchor="start" x="8" y="-67.5" font-family="Helvetica,sans-Serif" font-size="10.00" fill="#000000">Device Driver Library</text>
<text text-anchor="middle" x="87" y="-56.5" font-family="Helvetica,sans-Serif" font-size="10.00" fill="#000000"> Layer</text>
</a>
</g>
</g>
<!-- Node1&#45;&gt;Node0 -->
<g id="edge1" class="edge">
<title>Node1&#45;&gt;Node0</title>
<path fill="none" stroke="#000000" d="M184.5597,-64.5C193.0047,-64.5 201.4684,-64.5 209.7072,-64.5"/>
<polygon fill="#000000" stroke="#000000" points="184.2843,-61.0001 174.2843,-64.5 184.2843,-68.0001 184.2843,-61.0001"/>
</g>
</g>
</svg>
