<?xml version="1.0" encoding="UTF-8" standalone="no"?>
<!DOCTYPE svg PUBLIC "-//W3C//DTD SVG 1.1//EN"
 "http://www.w3.org/Graphics/SVG/1.1/DTD/svg11.dtd">
<!-- Generated by graphviz version 2.40.1 (0)
 -->
<!-- Title: Debugging LED Application Layer Pages: 1 -->
<svg width="580pt" height="138pt"
 viewBox="0.00 0.00 580.00 138.00" xmlns="http://www.w3.org/2000/svg" xmlns:xlink="http://www.w3.org/1999/xlink">
<g id="graph0" class="graph" transform="scale(1 1) rotate(0) translate(4 134)">
<title>Debugging LED Application Layer</title>
<polygon fill="#ffffff" stroke="transparent" points="-4,4 -4,-134 576,-134 576,4 -4,4"/>
<!-- Node1 -->
<g id="node1" class="node">
<title>Node1</title>
<g id="a_node1"><a xlink:href="a00659.html" target="_top" xlink:title="Task Layer.">
<polygon fill="#ffffff" stroke="#000000" points="144,-74 0,-74 0,-55 144,-55 144,-74"/>
<text text-anchor="middle" x="72" y="-62" font-family="Helvetica,sans-Serif" font-size="10.00" fill="#000000">Application Layer</text>
</a>
</g>
</g>
<!-- Node0 -->
<g id="node5" class="node">
<title>Node0</title>
<g id="a_node5"><a xlink:title=" ">
<polygon fill="#bfbfbf" stroke="#000000" points="384,-79.5 180,-79.5 180,-49.5 384,-49.5 384,-79.5"/>
<text text-anchor="start" x="188" y="-67.5" font-family="Helvetica,sans-Serif" font-size="10.00" fill="#000000">Debugging LED Application</text>
<text text-anchor="middle" x="282" y="-56.5" font-family="Helvetica,sans-Serif" font-size="10.00" fill="#000000"> Layer</text>
</a>
</g>
</g>
<!-- Node1&#45;&gt;Node0 -->
<g id="edge1" class="edge">
<title>Node1&#45;&gt;Node0</title>
<path fill="none" stroke="#000000" d="M154.3808,-64.5C162.7645,-64.5 171.3502,-64.5 179.91,-64.5"/>
<polygon fill="#000000" stroke="#000000" points="154.2701,-61.0001 144.2701,-64.5 154.2701,-68.0001 154.2701,-61.0001"/>
</g>
<!-- Node4 -->
<g id="node2" class="node">
<title>Node4</title>
<g id="a_node2"><a xlink:href="a00579.html" target="_top" xlink:title="Private functions of the application layer of the debugging LED task.">
<polygon fill="#ffffff" stroke="#000000" points="568,-130 424,-130 424,-111 568,-111 568,-130"/>
<text text-anchor="middle" x="496" y="-118" font-family="Helvetica,sans-Serif" font-size="10.00" fill="#000000">Private Functions</text>
</a>
</g>
</g>
<!-- Node3 -->
<g id="node3" class="node">
<title>Node3</title>
<g id="a_node3"><a xlink:href="a00578.html" target="_top" xlink:title="Public properties of the application layer of the debugging LED task.">
<polygon fill="#ffffff" stroke="#000000" points="568,-93 424,-93 424,-74 568,-74 568,-93"/>
<text text-anchor="middle" x="496" y="-81" font-family="Helvetica,sans-Serif" font-size="10.00" fill="#000000">Public Properties</text>
</a>
</g>
</g>
<!-- Node5 -->
<g id="node4" class="node">
<title>Node5</title>
<g id="a_node4"><a xlink:href="a00580.html" target="_top" xlink:title="Private properties of the application layer of the debugging LED task.">
<polygon fill="#ffffff" stroke="#000000" points="572,-56 420,-56 420,-37 572,-37 572,-56"/>
<text text-anchor="middle" x="496" y="-44" font-family="Helvetica,sans-Serif" font-size="10.00" fill="#000000">Private Properties</text>
</a>
</g>
</g>
<!-- Node0&#45;&gt;Node4 -->
<g id="edge4" class="edge">
<title>Node0&#45;&gt;Node4</title>
<path fill="none" stroke="#000000" d="M344.8177,-82.3128C368.3515,-88.8503 395.3546,-96.1905 420,-102.5 431.1654,-105.3585 443.2949,-108.3032 454.5174,-110.9617"/>
<polygon fill="#000000" stroke="#000000" points="345.5338,-78.8791 334.9612,-79.5655 343.6543,-85.622 345.5338,-78.8791"/>
</g>
<!-- Node0&#45;&gt;Node3 -->
<g id="edge3" class="edge">
<title>Node0&#45;&gt;Node3</title>
<path fill="none" stroke="#000000" d="M394.2984,-74.4704C404.29,-75.3575 414.2198,-76.2391 423.7382,-77.0842"/>
<polygon fill="#000000" stroke="#000000" points="394.5696,-70.9808 384.2992,-73.5826 393.9505,-77.9534 394.5696,-70.9808"/>
</g>
<!-- Node0&#45;&gt;Node5 -->
<g id="edge5" class="edge">
<title>Node0&#45;&gt;Node5</title>
<path fill="none" stroke="#000000" d="M394.3689,-55.0484C402.94,-54.3275 411.4651,-53.6104 419.7234,-52.9158"/>
<polygon fill="#000000" stroke="#000000" points="393.9706,-51.5695 384.2992,-55.8954 394.5574,-58.5448 393.9706,-51.5695"/>
</g>
<!-- Node2 -->
<g id="node6" class="node">
<title>Node2</title>
<g id="a_node6"><a xlink:href="a00577.html" target="_top" xlink:title="Public functions of the application layer of the debugging LED task.">
<polygon fill="#ffffff" stroke="#000000" points="564.5,-19 427.5,-19 427.5,0 564.5,0 564.5,-19"/>
<text text-anchor="middle" x="496" y="-7" font-family="Helvetica,sans-Serif" font-size="10.00" fill="#000000">Public Functions</text>
</a>
</g>
</g>
<!-- Node0&#45;&gt;Node2 -->
<g id="edge2" class="edge">
<title>Node0&#45;&gt;Node2</title>
<path fill="none" stroke="#000000" d="M348.8625,-46.911C371.4433,-41.0099 396.8038,-34.4249 420,-28.5 432.1232,-25.4034 445.3483,-22.0786 457.3176,-19.0896"/>
<polygon fill="#000000" stroke="#000000" points="347.8251,-43.5645 339.0364,-49.4815 349.5967,-50.3366 347.8251,-43.5645"/>
</g>
</g>
</svg>
