<?xml version="1.0" encoding="UTF-8" standalone="no"?>
<!DOCTYPE svg PUBLIC "-//W3C//DTD SVG 1.1//EN"
 "http://www.w3.org/Graphics/SVG/1.1/DTD/svg11.dtd">
<!-- Generated by graphviz version 2.40.1 (0)
 -->
<!-- Title: Microcontroller Abstraction Pages: 1 -->
<svg width="535pt" height="27pt"
 viewBox="0.00 0.00 535.00 27.00" xmlns="http://www.w3.org/2000/svg" xmlns:xlink="http://www.w3.org/1999/xlink">
<g id="graph0" class="graph" transform="scale(1 1) rotate(0) translate(4 23)">
<title>Microcontroller Abstraction</title>
<polygon fill="#ffffff" stroke="transparent" points="-4,4 -4,-23 531,-23 531,4 -4,4"/>
<!-- Node2 -->
<g id="node1" class="node">
<title>Node2</title>
<g id="a_node1"><a xlink:href="a00507.html" target="_top" xlink:title="PWM peripheral output pins, control signals and register assignments used to drive the boost converte...">
<polygon fill="#ffffff" stroke="#000000" points="527,-19 398,-19 398,0 527,0 527,-19"/>
<text text-anchor="middle" x="462.5" y="-7" font-family="Helvetica,sans-Serif" font-size="10.00" fill="#000000">Boost Converter</text>
</a>
</g>
</g>
<!-- Node0 -->
<g id="node2" class="node">
<title>Node0</title>
<g id="a_node2"><a xlink:title="PWM peripheral output pins, control signals and register assignments.">
<polygon fill="#bfbfbf" stroke="#000000" points="362,-19 143,-19 143,0 362,0 362,-19"/>
<text text-anchor="middle" x="252.5" y="-7" font-family="Helvetica,sans-Serif" font-size="10.00" fill="#000000">Microcontroller Abstraction</text>
</a>
</g>
</g>
<!-- Node0&#45;&gt;Node2 -->
<g id="edge2" class="edge">
<title>Node0&#45;&gt;Node2</title>
<path fill="none" stroke="#000000" d="M372.1149,-9.5C380.933,-9.5 389.6109,-9.5 397.8931,-9.5"/>
<polygon fill="#000000" stroke="#000000" points="372.113,-6.0001 362.1129,-9.5 372.1129,-13.0001 372.113,-6.0001"/>
</g>
<!-- Node1 -->
<g id="node3" class="node">
<title>Node1</title>
<g id="a_node3"><a xlink:href="a00501.html" target="_top" xlink:title="Declaration of fundamental PWM parameters.">
<polygon fill="#ffffff" stroke="#000000" points="107,-19 0,-19 0,0 107,0 107,-19"/>
<text text-anchor="middle" x="53.5" y="-7" font-family="Helvetica,sans-Serif" font-size="10.00" fill="#000000">PWM Settings</text>
</a>
</g>
</g>
<!-- Node1&#45;&gt;Node0 -->
<g id="edge1" class="edge">
<title>Node1&#45;&gt;Node0</title>
<path fill="none" stroke="#000000" d="M117.2763,-9.5C125.4922,-9.5 134.0828,-9.5 142.7787,-9.5"/>
<polygon fill="#000000" stroke="#000000" points="117.0902,-6.0001 107.0901,-9.5 117.0901,-13.0001 117.0902,-6.0001"/>
</g>
</g>
</svg>
