<?xml version="1.0" encoding="UTF-8" standalone="no"?>
<!DOCTYPE svg PUBLIC "-//W3C//DTD SVG 1.1//EN"
 "http://www.w3.org/Graphics/SVG/1.1/DTD/svg11.dtd">
<!-- Generated by graphviz version 2.40.1 (0)
 -->
<!-- Title: Boost Converter Library Modules Pages: 1 -->
<svg width="700pt" height="150pt"
 viewBox="0.00 0.00 700.00 149.50" xmlns="http://www.w3.org/2000/svg" xmlns:xlink="http://www.w3.org/1999/xlink">
<g id="graph0" class="graph" transform="scale(1 1) rotate(0) translate(4 145.5)">
<title>Boost Converter Library Modules</title>
<polygon fill="#ffffff" stroke="transparent" points="-4,4 -4,-145.5 696,-145.5 696,4 -4,4"/>
<!-- Node2 -->
<g id="node1" class="node">
<title>Node2</title>
<g id="a_node1"><a xlink:href="a00599.html" target="_top" xlink:title="Description of the Boost Converter Library State Machine library module.">
<polygon fill="#ffffff" stroke="#000000" points="658,-141.5 484,-141.5 484,-111.5 658,-111.5 658,-141.5"/>
<text text-anchor="start" x="492" y="-129.5" font-family="Helvetica,sans-Serif" font-size="10.00" fill="#000000">Boost Converter State</text>
<text text-anchor="middle" x="571" y="-118.5" font-family="Helvetica,sans-Serif" font-size="10.00" fill="#000000"> Machine</text>
</a>
</g>
</g>
<!-- Node0 -->
<g id="node2" class="node">
<title>Node0</title>
<g id="a_node2"><a xlink:title=" ">
<polygon fill="#bfbfbf" stroke="#000000" points="414,-79.5 225,-79.5 225,-49.5 414,-49.5 414,-79.5"/>
<text text-anchor="start" x="233" y="-67.5" font-family="Helvetica,sans-Serif" font-size="10.00" fill="#000000">Boost Converter Library</text>
<text text-anchor="middle" x="319.5" y="-56.5" font-family="Helvetica,sans-Serif" font-size="10.00" fill="#000000"> Modules</text>
</a>
</g>
</g>
<!-- Node0&#45;&gt;Node2 -->
<g id="edge2" class="edge">
<title>Node0&#45;&gt;Node2</title>
<path fill="none" stroke="#000000" d="M377.3285,-82.5197C399.8864,-89.2379 426.0381,-96.6468 450,-102.5 462.8988,-105.6508 476.6469,-108.6831 490.0765,-111.4696"/>
<polygon fill="#000000" stroke="#000000" points="378.153,-79.1129 367.5689,-79.5898 376.1402,-85.8173 378.153,-79.1129"/>
</g>
<!-- Node5 -->
<g id="node3" class="node">
<title>Node5</title>
<g id="a_node3"><a xlink:href="a00617.html" target="_top" xlink:title=" ">
<polygon fill="#ffffff" stroke="#000000" points="677,-93 465,-93 465,-74 677,-74 677,-93"/>
<text text-anchor="middle" x="571" y="-81" font-family="Helvetica,sans-Serif" font-size="10.00" fill="#000000">Boost Peripheral Templates</text>
</a>
</g>
</g>
<!-- Node0&#45;&gt;Node5 -->
<g id="edge5" class="edge">
<title>Node0&#45;&gt;Node5</title>
<path fill="none" stroke="#000000" d="M424.4047,-72.4252C437.816,-73.4384 451.5526,-74.4761 464.9813,-75.4906"/>
<polygon fill="#000000" stroke="#000000" points="424.4583,-68.9194 414.223,-71.656 423.9309,-75.8995 424.4583,-68.9194"/>
</g>
<!-- Node4 -->
<g id="node4" class="node">
<title>Node4</title>
<g id="a_node4"><a xlink:href="a00611.html" target="_top" xlink:title=" ">
<polygon fill="#ffffff" stroke="#000000" points="692,-56 450,-56 450,-37 692,-37 692,-56"/>
<text text-anchor="middle" x="571" y="-44" font-family="Helvetica,sans-Serif" font-size="10.00" fill="#000000">Boost Peripheral Configuration</text>
</a>
</g>
</g>
<!-- Node0&#45;&gt;Node4 -->
<g id="edge4" class="edge">
<title>Node0&#45;&gt;Node4</title>
<path fill="none" stroke="#000000" d="M424.3285,-56.9974C432.673,-56.4001 441.144,-55.7939 449.5888,-55.1895"/>
<polygon fill="#000000" stroke="#000000" points="423.9476,-53.5156 414.223,-57.7206 424.4474,-60.4977 423.9476,-53.5156"/>
</g>
<!-- Node3 -->
<g id="node5" class="node">
<title>Node3</title>
<g id="a_node5"><a xlink:href="a00605.html" target="_top" xlink:title=" ">
<polygon fill="#ffffff" stroke="#000000" points="665.5,-19 476.5,-19 476.5,0 665.5,0 665.5,-19"/>
<text text-anchor="middle" x="571" y="-7" font-family="Helvetica,sans-Serif" font-size="10.00" fill="#000000">Boost Special Functions</text>
</a>
</g>
</g>
<!-- Node0&#45;&gt;Node3 -->
<g id="edge3" class="edge">
<title>Node0&#45;&gt;Node3</title>
<path fill="none" stroke="#000000" d="M376.6571,-46.5735C399.3277,-39.9164 425.7341,-32.7222 450,-27.5 464.9492,-24.2828 481.0607,-21.4515 496.4983,-19.0434"/>
<polygon fill="#000000" stroke="#000000" points="375.4458,-43.2821 366.857,-49.4854 377.4397,-49.9921 375.4458,-43.2821"/>
</g>
<!-- Node1 -->
<g id="node6" class="node">
<title>Node1</title>
<g id="a_node6"><a xlink:href="a00587.html" target="_top" xlink:title=" ">
<polygon fill="#ffffff" stroke="#000000" points="189,-74 0,-74 0,-55 189,-55 189,-74"/>
<text text-anchor="middle" x="94.5" y="-62" font-family="Helvetica,sans-Serif" font-size="10.00" fill="#000000">Boost Converter Library</text>
</a>
</g>
</g>
<!-- Node1&#45;&gt;Node0 -->
<g id="edge1" class="edge">
<title>Node1&#45;&gt;Node0</title>
<path fill="none" stroke="#000000" d="M199.5284,-64.5C207.9735,-64.5 216.475,-64.5 224.8413,-64.5"/>
<polygon fill="#000000" stroke="#000000" points="199.2682,-61.0001 189.2681,-64.5 199.2681,-68.0001 199.2682,-61.0001"/>
</g>
</g>
</svg>
