<?xml version="1.0" encoding="UTF-8" standalone="no"?>
<!DOCTYPE svg PUBLIC "-//W3C//DTD SVG 1.1//EN"
 "http://www.w3.org/Graphics/SVG/1.1/DTD/svg11.dtd">
<!-- Generated by graphviz version 2.44.1 (20200629.0846)
 -->
<!-- Title: boostPWM_Suspend Pages: 1 -->
<svg width="224pt" height="66pt"
 viewBox="0.00 0.00 224.00 66.00" xmlns="http://www.w3.org/2000/svg" xmlns:xlink="http://www.w3.org/1999/xlink">
<g id="graph0" class="graph" transform="scale(1 1) rotate(0) translate(4 62)">
<title>boostPWM_Suspend</title>
<polygon fill="white" stroke="transparent" points="-4,4 -4,-62 220,-62 220,4 -4,4"/>
<!-- Node1 -->
<g id="node1" class="node">
<title>Node1</title>
<g id="a_node1"><a xlink:title="This function disables the PWM generator IOs.">
<polygon fill="#bfbfbf" stroke="black" points="107,-19.5 107,-38.5 216,-38.5 216,-19.5 107,-19.5"/>
<text text-anchor="middle" x="161.5" y="-26.5" font-family="Helvetica,sans-Serif" font-size="10.00">boostPWM_Suspend</text>
</a>
</g>
</g>
<!-- Node2 -->
<g id="node2" class="node">
<title>Node2</title>
<g id="a_node2"><a xlink:href="a00492.html#ga9eb174458c7fd652dd725988f435cfdb" target="_top" xlink:title="If this function is called, the state machine is reset to INITIALIZE (URL=State_Initialize).">
<polygon fill="white" stroke="black" points="2.5,-38.5 2.5,-57.5 68.5,-57.5 68.5,-38.5 2.5,-38.5"/>
<text text-anchor="middle" x="35.5" y="-45.5" font-family="Helvetica,sans-Serif" font-size="10.00">State_Error</text>
</a>
</g>
</g>
<!-- Node1&#45;&gt;Node2 -->
<g id="edge1" class="edge">
<title>Node1&#45;&gt;Node2</title>
<path fill="none" stroke="midnightblue" d="M96.75,-38.77C87.06,-40.25 77.42,-41.73 68.79,-43.05"/>
<polygon fill="midnightblue" stroke="midnightblue" points="97.48,-42.2 106.83,-37.22 96.42,-35.28 97.48,-42.2"/>
</g>
<!-- Node3 -->
<g id="node3" class="node">
<title>Node3</title>
<g id="a_node3"><a xlink:href="a00492.html#ga54a9e1e78d536910ed756a227c2ed30b" target="_top" xlink:title="This function resets the boost control operation by re&#45;initiating the control mode,...">
<polygon fill="white" stroke="black" points="0,-0.5 0,-19.5 71,-19.5 71,-0.5 0,-0.5"/>
<text text-anchor="middle" x="35.5" y="-7.5" font-family="Helvetica,sans-Serif" font-size="10.00">State_Reset</text>
</a>
</g>
</g>
<!-- Node1&#45;&gt;Node3 -->
<g id="edge2" class="edge">
<title>Node1&#45;&gt;Node3</title>
<path fill="none" stroke="midnightblue" d="M96.9,-19.25C88.08,-17.9 79.3,-16.56 71.28,-15.33"/>
<polygon fill="midnightblue" stroke="midnightblue" points="96.42,-22.72 106.83,-20.78 97.48,-15.8 96.42,-22.72"/>
</g>
</g>
</svg>
