<?xml version="1.0" encoding="UTF-8" standalone="no"?>
<!DOCTYPE svg PUBLIC "-//W3C//DTD SVG 1.1//EN"
 "http://www.w3.org/Graphics/SVG/1.1/DTD/svg11.dtd">
<!-- Generated by graphviz version 2.40.1 (0)
 -->
<!-- Title: LC&#45;Display Interface Driver Pages: 1 -->
<svg width="566pt" height="138pt"
 viewBox="0.00 0.00 566.00 138.00" xmlns="http://www.w3.org/2000/svg" xmlns:xlink="http://www.w3.org/1999/xlink">
<g id="graph0" class="graph" transform="scale(1 1) rotate(0) translate(4 134)">
<title>LC&#45;Display Interface Driver</title>
<polygon fill="#ffffff" stroke="transparent" points="-4,4 -4,-134 562,-134 562,4 -4,4"/>
<!-- Node2 -->
<g id="node1" class="node">
<title>Node2</title>
<g id="a_node1"><a xlink:href="a00572.html" target="_top" xlink:title="Public functions of the LC display interface driver.">
<polygon fill="#ffffff" stroke="#000000" points="550.5,-130 413.5,-130 413.5,-111 550.5,-111 550.5,-130"/>
<text text-anchor="middle" x="482" y="-118" font-family="Helvetica,sans-Serif" font-size="10.00" fill="#000000">Public Functions</text>
</a>
</g>
</g>
<!-- Node4 -->
<g id="node2" class="node">
<title>Node4</title>
<g id="a_node2"><a xlink:href="a00574.html" target="_top" xlink:title="Private functions of the LC display interface driver.">
<polygon fill="#ffffff" stroke="#000000" points="554,-93 410,-93 410,-74 554,-74 554,-93"/>
<text text-anchor="middle" x="482" y="-81" font-family="Helvetica,sans-Serif" font-size="10.00" fill="#000000">Private Functions</text>
</a>
</g>
</g>
<!-- Node5 -->
<g id="node3" class="node">
<title>Node5</title>
<g id="a_node3"><a xlink:href="a00575.html" target="_top" xlink:title="Private properties of the LC display interface driver.">
<polygon fill="#ffffff" stroke="#000000" points="558,-56 406,-56 406,-37 558,-37 558,-56"/>
<text text-anchor="middle" x="482" y="-44" font-family="Helvetica,sans-Serif" font-size="10.00" fill="#000000">Private Properties</text>
</a>
</g>
</g>
<!-- Node0 -->
<g id="node4" class="node">
<title>Node0</title>
<g id="a_node4"><a xlink:title=" ">
<polygon fill="#bfbfbf" stroke="#000000" points="370,-79.5 203,-79.5 203,-49.5 370,-49.5 370,-79.5"/>
<text text-anchor="start" x="211" y="-67.5" font-family="Helvetica,sans-Serif" font-size="10.00" fill="#000000">LC&#45;Display Interface</text>
<text text-anchor="middle" x="286.5" y="-56.5" font-family="Helvetica,sans-Serif" font-size="10.00" fill="#000000"> Driver</text>
</a>
</g>
</g>
<!-- Node0&#45;&gt;Node2 -->
<g id="edge2" class="edge">
<title>Node0&#45;&gt;Node2</title>
<path fill="none" stroke="#000000" d="M340.8137,-82.723C361.161,-89.2981 384.5444,-96.557 406,-102.5 416.7153,-105.4681 428.3637,-108.3815 439.2481,-110.9708"/>
<polygon fill="#000000" stroke="#000000" points="341.683,-79.3253 331.0908,-79.5589 339.5168,-85.9817 341.683,-79.3253"/>
</g>
<!-- Node0&#45;&gt;Node4 -->
<g id="edge4" class="edge">
<title>Node0&#45;&gt;Node4</title>
<path fill="none" stroke="#000000" d="M380.4923,-73.6348C390.3447,-74.5923 400.2481,-75.5548 409.8013,-76.4832"/>
<polygon fill="#000000" stroke="#000000" points="380.5521,-70.1242 370.2604,-72.6404 379.8749,-77.0914 380.5521,-70.1242"/>
</g>
<!-- Node0&#45;&gt;Node5 -->
<g id="edge5" class="edge">
<title>Node0&#45;&gt;Node5</title>
<path fill="none" stroke="#000000" d="M380.2792,-55.8656C388.8431,-55.0771 397.4478,-54.2849 405.8296,-53.5131"/>
<polygon fill="#000000" stroke="#000000" points="379.8973,-52.3859 370.2604,-56.788 380.5392,-59.3564 379.8973,-52.3859"/>
</g>
<!-- Node3 -->
<g id="node6" class="node">
<title>Node3</title>
<g id="a_node6"><a xlink:href="a00573.html" target="_top" xlink:title="Public properties of the LC display interface driver.">
<polygon fill="#ffffff" stroke="#000000" points="554,-19 410,-19 410,0 554,0 554,-19"/>
<text text-anchor="middle" x="482" y="-7" font-family="Helvetica,sans-Serif" font-size="10.00" fill="#000000">Public Properties</text>
</a>
</g>
</g>
<!-- Node0&#45;&gt;Node3 -->
<g id="edge3" class="edge">
<title>Node0&#45;&gt;Node3</title>
<path fill="none" stroke="#000000" d="M342.1315,-46.4182C362.1769,-40.1304 385.0234,-33.2244 406,-27.5 416.7265,-24.5728 428.379,-21.674 439.2636,-19.0858"/>
<polygon fill="#000000" stroke="#000000" points="341.0188,-43.0992 332.5364,-49.4474 343.1262,-49.7744 341.0188,-43.0992"/>
</g>
<!-- Node1 -->
<g id="node5" class="node">
<title>Node1</title>
<g id="a_node5"><a xlink:href="a00661.html" target="_top" xlink:title="Generic Library Driver Layer.">
<polygon fill="#ffffff" stroke="#000000" points="167,-74 0,-74 0,-55 167,-55 167,-74"/>
<text text-anchor="middle" x="83.5" y="-62" font-family="Helvetica,sans-Serif" font-size="10.00" fill="#000000">Library Driver Layer</text>
</a>
</g>
</g>
<!-- Node1&#45;&gt;Node0 -->
<g id="edge1" class="edge">
<title>Node1&#45;&gt;Node0</title>
<path fill="none" stroke="#000000" d="M177.2558,-64.5C185.8295,-64.5 194.4773,-64.5 202.9526,-64.5"/>
<polygon fill="#000000" stroke="#000000" points="177.2399,-61.0001 167.2399,-64.5 177.2398,-68.0001 177.2399,-61.0001"/>
</g>
</g>
</svg>
