<?xml version="1.0" encoding="UTF-8" standalone="no"?>
<!DOCTYPE svg PUBLIC "-//W3C//DTD SVG 1.1//EN"
 "http://www.w3.org/Graphics/SVG/1.1/DTD/svg11.dtd">
<!-- Generated by graphviz version 2.40.1 (0)
 -->
<!-- Title: Microcontroller Abstraction Pages: 1 -->
<svg width="610pt" height="27pt"
 viewBox="0.00 0.00 610.00 27.00" xmlns="http://www.w3.org/2000/svg" xmlns:xlink="http://www.w3.org/1999/xlink">
<g id="graph0" class="graph" transform="scale(1 1) rotate(0) translate(4 23)">
<title>Microcontroller Abstraction</title>
<polygon fill="#ffffff" stroke="transparent" points="-4,4 -4,-23 606,-23 606,4 -4,4"/>
<!-- Node1 -->
<g id="node1" class="node">
<title>Node1</title>
<g id="a_node1"><a xlink:href="a00522.html" target="_top" xlink:title="Declaration of phase current feedback parameters.">
<polygon fill="#ffffff" stroke="#000000" points="182,-19 0,-19 0,0 182,0 182,-19"/>
<text text-anchor="middle" x="91" y="-7" font-family="Helvetica,sans-Serif" font-size="10.00" fill="#000000">Phase Current Feedback</text>
</a>
</g>
</g>
<!-- Node0 -->
<g id="node3" class="node">
<title>Node0</title>
<g id="a_node3"><a xlink:title="Device analog input pin, register and interrupt vector assignments of phase current feedback signal(s...">
<polygon fill="#bfbfbf" stroke="#000000" points="437,-19 218,-19 218,0 437,0 437,-19"/>
<text text-anchor="middle" x="327.5" y="-7" font-family="Helvetica,sans-Serif" font-size="10.00" fill="#000000">Microcontroller Abstraction</text>
</a>
</g>
</g>
<!-- Node1&#45;&gt;Node0 -->
<g id="edge1" class="edge">
<title>Node1&#45;&gt;Node0</title>
<path fill="none" stroke="#000000" d="M192.3367,-9.5C200.7876,-9.5 209.3561,-9.5 217.8649,-9.5"/>
<polygon fill="#000000" stroke="#000000" points="192.0988,-6.0001 182.0988,-9.5 192.0987,-13.0001 192.0988,-6.0001"/>
</g>
<!-- Node2 -->
<g id="node2" class="node">
<title>Node2</title>
<g id="a_node2"><a xlink:href="a00528.html" target="_top" xlink:title="Device analog output pin, register and interrupt vector assignments of phase current feedback signal(...">
<polygon fill="#ffffff" stroke="#000000" points="602,-19 473,-19 473,0 602,0 602,-19"/>
<text text-anchor="middle" x="537.5" y="-7" font-family="Helvetica,sans-Serif" font-size="10.00" fill="#000000">Boost Converter</text>
</a>
</g>
</g>
<!-- Node0&#45;&gt;Node2 -->
<g id="edge2" class="edge">
<title>Node0&#45;&gt;Node2</title>
<path fill="none" stroke="#000000" d="M447.1149,-9.5C455.933,-9.5 464.6109,-9.5 472.8931,-9.5"/>
<polygon fill="#000000" stroke="#000000" points="447.113,-6.0001 437.1129,-9.5 447.1129,-13.0001 447.113,-6.0001"/>
</g>
</g>
</svg>
