<?xml version="1.0" encoding="UTF-8" standalone="no"?>
<!DOCTYPE svg PUBLIC "-//W3C//DTD SVG 1.1//EN"
 "http://www.w3.org/Graphics/SVG/1.1/DTD/svg11.dtd">
<!-- Generated by graphviz version 2.40.1 (0)
 -->
<!-- Title: Public Properties Pages: 1 -->
<svg width="550pt" height="101pt"
 viewBox="0.00 0.00 550.00 101.00" xmlns="http://www.w3.org/2000/svg" xmlns:xlink="http://www.w3.org/1999/xlink">
<g id="graph0" class="graph" transform="scale(1 1) rotate(0) translate(4 97)">
<title>Public Properties</title>
<polygon fill="#ffffff" stroke="transparent" points="-4,4 -4,-97 546,-97 546,4 -4,4"/>
<!-- Node0 -->
<g id="node1" class="node">
<title>Node0</title>
<g id="a_node1"><a xlink:title="Public properties of the fault handler library layer.">
<polygon fill="#bfbfbf" stroke="#000000" points="354,-56 210,-56 210,-37 354,-37 354,-56"/>
<text text-anchor="middle" x="282" y="-44" font-family="Helvetica,sans-Serif" font-size="10.00" fill="#000000">Public Properties</text>
</a>
</g>
</g>
<!-- Node3 -->
<g id="node3" class="node">
<title>Node3</title>
<g id="a_node3"><a xlink:href="a00556.html" target="_top" xlink:title=" ">
<polygon fill="#ffffff" stroke="#000000" points="512,-93 420,-93 420,-74 512,-74 512,-93"/>
<text text-anchor="middle" x="466" y="-81" font-family="Helvetica,sans-Serif" font-size="10.00" fill="#000000">Data Types</text>
</a>
</g>
</g>
<!-- Node0&#45;&gt;Node3 -->
<g id="edge3" class="edge">
<title>Node0&#45;&gt;Node3</title>
<path fill="none" stroke="#000000" d="M339.4269,-58.0478C365.2682,-63.2441 395.3681,-69.2968 419.7305,-74.1958"/>
<polygon fill="#000000" stroke="#000000" points="339.8783,-54.5686 329.3846,-56.0284 338.4983,-61.4312 339.8783,-54.5686"/>
</g>
<!-- Node4 -->
<g id="node4" class="node">
<title>Node4</title>
<g id="a_node4"><a xlink:href="a00557.html" target="_top" xlink:title=" ">
<polygon fill="#ffffff" stroke="#000000" points="542,-56 390,-56 390,-37 542,-37 542,-56"/>
<text text-anchor="middle" x="466" y="-44" font-family="Helvetica,sans-Serif" font-size="10.00" fill="#000000">Defines and Macros</text>
</a>
</g>
</g>
<!-- Node0&#45;&gt;Node4 -->
<g id="edge4" class="edge">
<title>Node0&#45;&gt;Node4</title>
<path fill="none" stroke="#000000" d="M364.4141,-46.5C372.8533,-46.5 381.4012,-46.5 389.7696,-46.5"/>
<polygon fill="#000000" stroke="#000000" points="364.1936,-43.0001 354.1936,-46.5 364.1935,-50.0001 364.1936,-43.0001"/>
</g>
<!-- Node2 -->
<g id="node5" class="node">
<title>Node2</title>
<g id="a_node5"><a xlink:href="a00555.html" target="_top" xlink:title=" ">
<polygon fill="#ffffff" stroke="#000000" points="508,-19 424,-19 424,0 508,0 508,-19"/>
<text text-anchor="middle" x="466" y="-7" font-family="Helvetica,sans-Serif" font-size="10.00" fill="#000000">Variables</text>
</a>
</g>
</g>
<!-- Node0&#45;&gt;Node2 -->
<g id="edge2" class="edge">
<title>Node0&#45;&gt;Node2</title>
<path fill="none" stroke="#000000" d="M339.2193,-34.9939C366.5635,-29.4954 398.7147,-23.0302 423.7975,-17.9864"/>
<polygon fill="#000000" stroke="#000000" points="338.4983,-31.5688 329.3846,-36.9716 339.8783,-38.4314 338.4983,-31.5688"/>
</g>
<!-- Node1 -->
<g id="node2" class="node">
<title>Node1</title>
<g id="a_node2"><a xlink:href="a00550.html" target="_top" xlink:title=" ">
<polygon fill="#ffffff" stroke="#000000" points="174,-56 0,-56 0,-37 174,-37 174,-56"/>
<text text-anchor="middle" x="87" y="-44" font-family="Helvetica,sans-Serif" font-size="10.00" fill="#000000">Fault Handler Library</text>
</a>
</g>
</g>
<!-- Node1&#45;&gt;Node0 -->
<g id="edge1" class="edge">
<title>Node1&#45;&gt;Node0</title>
<path fill="none" stroke="#000000" d="M184.2772,-46.5C192.8471,-46.5 201.4194,-46.5 209.7291,-46.5"/>
<polygon fill="#000000" stroke="#000000" points="184.2338,-43.0001 174.2337,-46.5 184.2337,-50.0001 184.2338,-43.0001"/>
</g>
</g>
</svg>
