<?xml version="1.0" encoding="UTF-8" standalone="no"?>
<!DOCTYPE svg PUBLIC "-//W3C//DTD SVG 1.1//EN"
 "http://www.w3.org/Graphics/SVG/1.1/DTD/svg11.dtd">
<!-- Generated by graphviz version 2.44.1 (20200629.0846)
 -->
<!-- Title: boostPWM_ChannelInitialize Pages: 1 -->
<svg width="343pt" height="116pt"
 viewBox="0.00 0.00 343.00 116.00" xmlns="http://www.w3.org/2000/svg" xmlns:xlink="http://www.w3.org/1999/xlink">
<g id="graph0" class="graph" transform="scale(1 1) rotate(0) translate(4 112)">
<title>boostPWM_ChannelInitialize</title>
<polygon fill="white" stroke="transparent" points="-4,4 -4,-112 339,-112 339,4 -4,4"/>
<!-- Node1 -->
<g id="node1" class="node">
<title>Node1</title>
<g id="a_node1"><a xlink:title="This function initializes the output pins for the PWM output and the default boost PWM settings.">
<polygon fill="#bfbfbf" stroke="black" points="0,-44.5 0,-63.5 141,-63.5 141,-44.5 0,-44.5"/>
<text text-anchor="middle" x="70.5" y="-51.5" font-family="Helvetica,sans-Serif" font-size="10.00">boostPWM_ChannelInitialize</text>
</a>
</g>
</g>
<!-- Node2 -->
<g id="node2" class="node">
<title>Node2</title>
<g id="a_node2"><a xlink:href="a00362.html#ga4d67af688d8f7f911d79107974e11e6b" target="_top" xlink:title="Gets pointer to GPIO Instance SFR set.">
<polygon fill="white" stroke="black" points="180.5,-88.5 180.5,-107.5 331.5,-107.5 331.5,-88.5 180.5,-88.5"/>
<text text-anchor="middle" x="256" y="-95.5" font-family="Helvetica,sans-Serif" font-size="10.00">p33c_GpioInstance_GetHandle</text>
</a>
</g>
</g>
<!-- Node1&#45;&gt;Node2 -->
<g id="edge1" class="edge">
<title>Node1&#45;&gt;Node2</title>
<path fill="none" stroke="midnightblue" d="M111.32,-63.55C138.85,-70.15 175.69,-78.98 205.17,-86.05"/>
<polygon fill="midnightblue" stroke="midnightblue" points="204.72,-89.54 215.26,-88.47 206.35,-82.74 204.72,-89.54"/>
</g>
<!-- Node3 -->
<g id="node3" class="node">
<title>Node3</title>
<g id="a_node3"><a xlink:href="a00366.html#gab66f225bac6b132d1418a4c808e3babb" target="_top" xlink:title="Disposes a given PWM generator by resetting all its registers to default.">
<polygon fill="white" stroke="black" points="186,-39 186,-69 326,-69 326,-39 186,-39"/>
<text text-anchor="start" x="194" y="-57" font-family="Helvetica,sans-Serif" font-size="10.00">p33c_PwmGenerator_Config</text>
<text text-anchor="middle" x="256" y="-46" font-family="Helvetica,sans-Serif" font-size="10.00">Write</text>
</a>
</g>
</g>
<!-- Node1&#45;&gt;Node3 -->
<g id="edge2" class="edge">
<title>Node1&#45;&gt;Node3</title>
<path fill="none" stroke="midnightblue" d="M141.14,-54C152.43,-54 164.19,-54 175.7,-54"/>
<polygon fill="midnightblue" stroke="midnightblue" points="175.72,-57.5 185.72,-54 175.72,-50.5 175.72,-57.5"/>
</g>
<!-- Node4 -->
<g id="node4" class="node">
<title>Node4</title>
<g id="a_node4"><a xlink:href="a00366.html#ga55e525c7ac54a365ab6dad558ec17f0b" target="_top" xlink:title="Returns the PWM generator index.">
<polygon fill="white" stroke="black" points="177,-0.5 177,-19.5 335,-19.5 335,-0.5 177,-0.5"/>
<text text-anchor="middle" x="256" y="-7.5" font-family="Helvetica,sans-Serif" font-size="10.00">p33c_PwmGenerator_GetHandle</text>
</a>
</g>
</g>
<!-- Node1&#45;&gt;Node4 -->
<g id="edge3" class="edge">
<title>Node1&#45;&gt;Node4</title>
<path fill="none" stroke="midnightblue" d="M111.32,-44.45C138.85,-37.85 175.69,-29.02 205.17,-21.95"/>
<polygon fill="midnightblue" stroke="midnightblue" points="206.35,-25.26 215.26,-19.53 204.72,-18.46 206.35,-25.26"/>
</g>
</g>
</svg>
