<?xml version="1.0" encoding="UTF-8" standalone="no"?>
<!DOCTYPE svg PUBLIC "-//W3C//DTD SVG 1.1//EN"
 "http://www.w3.org/Graphics/SVG/1.1/DTD/svg11.dtd">
<!-- Generated by graphviz version 2.44.1 (20200629.0846)
 -->
<!-- Title: Hardware Abstraction Layer Pages: 1 -->
<!--zoomable 591 -->
<svg id="main" version="1.1" xmlns="http://www.w3.org/2000/svg" xmlns:xlink="http://www.w3.org/1999/xlink" xml:space="preserve" onload="init(evt)">
<style type="text/css"><![CDATA[
.edge:hover path { stroke: red; }
.edge:hover polygon { stroke: red; fill: red; }
]]></style>
<script type="text/javascript"><![CDATA[
var edges = document.getElementsByTagName('g');
if (edges && edges.length) {
  for (var i=0;i<edges.length;i++) {
    if (edges[i].id.substr(0,4)=='edge') {
      edges[i].setAttribute('class','edge');
    }
  }
}
]]></script>
        <defs>
                <circle id="rim" cx="0" cy="0" r="7"/>
                <circle id="rim2" cx="0" cy="0" r="3.5"/>
                <g id="zoomPlus">
                        <use xlink:href="#rim" fill="#404040">
                                <set attributeName="fill" to="#808080" begin="zoomplus.mouseover" end="zoomplus.mouseout"/>
                        </use>
                        <path d="M-4,0h8M0,-4v8" fill="none" stroke="white" stroke-width="1.5" pointer-events="none"/>
                </g>
                <g id="zoomMin">
                        <use xlink:href="#rim" fill="#404040">
                                <set attributeName="fill" to="#808080" begin="zoomminus.mouseover" end="zoomminus.mouseout"/>
                        </use>
                        <path d="M-4,0h8" fill="none" stroke="white" stroke-width="1.5" pointer-events="none"/>
                </g>
                <g id="dirArrow">
                        <path fill="none" stroke="white" stroke-width="1.5" d="M0,-3.0v7 M-2.5,-0.5L0,-3.0L2.5,-0.5"/>
                </g>
               <g id="resetDef">
                       <use xlink:href="#rim2" fill="#404040">
                               <set attributeName="fill" to="#808080" begin="reset.mouseover" end="reset.mouseout"/>
                       </use>
               </g>
        </defs>

<script type="text/javascript">
var viewWidth = 282;
var viewHeight = 591;
var sectionId = 'dynsection-0';
</script>
<script xlink:href="svgpan.js"/>
<svg id="graph" class="graph">
<g id="viewport">
<title>Hardware Abstraction Layer</title>
<polygon fill="white" stroke="transparent" points="-4,4 -4,-587 278,-587 278,4 -4,4"/>
<!-- Node5 -->
<g id="node1" class="node">
<title>Node5</title>
<g id="a_node1"><a xlink:href="a00374.html" target="_top" xlink:title="Declaration of startup timing periods.">
<polygon fill="white" stroke="black" points="269.5,-583 150.5,-583 150.5,-564 269.5,-564 269.5,-583"/>
<text text-anchor="middle" x="210" y="-571" font-family="Helvetica,sans-Serif" font-size="10.00">Startup Timing Settings</text>
</a>
</g>
</g>
<!-- Node1 -->
<g id="node2" class="node">
<title>Node1</title>
<g id="a_node2"><a xlink:title="Hardware Abstraction Layer Declarations.">
<polygon fill="#bfbfbf" stroke="black" points="110,-329.5 0,-329.5 0,-299.5 110,-299.5 110,-329.5"/>
<text text-anchor="start" x="8" y="-317.5" font-family="Helvetica,sans-Serif" font-size="10.00">Hardware Abstraction</text>
<text text-anchor="middle" x="55" y="-306.5" font-family="Helvetica,sans-Serif" font-size="10.00"> Layer</text>
</a>
</g>
</g>
<!-- Node1&#45;&gt;Node5 -->
<g id="edge4" class="edge">
<title>Node1&#45;&gt;Node5</title>
<path fill="none" stroke="black" d="M58.09,-339.84C63.52,-388.8 82.41,-496.75 146,-555.5 149.68,-558.9 153.95,-561.66 158.51,-563.9"/>
<polygon fill="black" stroke="black" points="61.57,-339.38 57.08,-329.79 54.6,-340.09 61.57,-339.38"/>
</g>
<!-- Node15 -->
<g id="node3" class="node">
<title>Node15</title>
<g id="a_node3"><a xlink:href="a00405.html" target="_top" xlink:title=" ">
<polygon fill="white" stroke="black" points="267.5,-546 152.5,-546 152.5,-527 267.5,-527 267.5,-546"/>
<text text-anchor="middle" x="210" y="-534" font-family="Helvetica,sans-Serif" font-size="10.00">Special Circuit Signals</text>
</a>
</g>
</g>
<!-- Node1&#45;&gt;Node15 -->
<g id="edge14" class="edge">
<title>Node1&#45;&gt;Node15</title>
<path fill="none" stroke="black" d="M59.99,-339.55C68.19,-382.59 90.98,-470.56 146,-518.5 149.94,-521.94 154.51,-524.72 159.34,-526.97"/>
<polygon fill="black" stroke="black" points="63.43,-338.86 58.22,-329.63 56.54,-340.09 63.43,-338.86"/>
</g>
<!-- Node8 -->
<g id="node4" class="node">
<title>Node8</title>
<g id="a_node4"><a xlink:href="a00386.html" target="_top" xlink:title="Declaration of input voltage feedback parameters.">
<polygon fill="white" stroke="black" points="269.5,-509 150.5,-509 150.5,-490 269.5,-490 269.5,-509"/>
<text text-anchor="middle" x="210" y="-497" font-family="Helvetica,sans-Serif" font-size="10.00">Input Voltage Feedback</text>
</a>
</g>
</g>
<!-- Node1&#45;&gt;Node8 -->
<g id="edge7" class="edge">
<title>Node1&#45;&gt;Node8</title>
<path fill="none" stroke="black" d="M62.67,-339.41C73.76,-376.03 99.52,-444.11 146,-481.5 150.25,-484.92 155.13,-487.69 160.24,-489.94"/>
<polygon fill="black" stroke="black" points="65.95,-338.17 59.8,-329.54 59.23,-340.12 65.95,-338.17"/>
</g>
<!-- Node4 -->
<g id="node5" class="node">
<title>Node4</title>
<g id="a_node5"><a xlink:href="a00370.html" target="_top" xlink:title="Declaration of global state&#45;machine parameters.">
<polygon fill="white" stroke="black" points="269.5,-472 150.5,-472 150.5,-453 269.5,-453 269.5,-472"/>
<text text-anchor="middle" x="210" y="-460" font-family="Helvetica,sans-Serif" font-size="10.00">State Machine Settings</text>
</a>
</g>
</g>
<!-- Node1&#45;&gt;Node4 -->
<g id="edge3" class="edge">
<title>Node1&#45;&gt;Node4</title>
<path fill="none" stroke="black" d="M66.63,-339.09C80.6,-368.51 107.91,-417.21 146,-444.5 150.81,-447.95 156.26,-450.73 161.9,-452.99"/>
<polygon fill="black" stroke="black" points="69.77,-337.53 62.41,-329.91 63.41,-340.46 69.77,-337.53"/>
</g>
<!-- Node10 -->
<g id="node6" class="node">
<title>Node10</title>
<g id="a_node6"><a xlink:href="a00394.html" target="_top" xlink:title="Declaration of phase current feedback parameters.">
<polygon fill="white" stroke="black" points="272.5,-435 147.5,-435 147.5,-416 272.5,-416 272.5,-435"/>
<text text-anchor="middle" x="210" y="-423" font-family="Helvetica,sans-Serif" font-size="10.00">Phase Current Feedback</text>
</a>
</g>
</g>
<!-- Node1&#45;&gt;Node10 -->
<g id="edge9" class="edge">
<title>Node1&#45;&gt;Node10</title>
<path fill="none" stroke="black" d="M72.85,-337.91C89.24,-359.06 116.02,-389.53 146,-407.5 151.66,-410.89 157.99,-413.67 164.39,-415.94"/>
<polygon fill="black" stroke="black" points="75.5,-335.62 66.68,-329.76 69.92,-339.85 75.5,-335.62"/>
</g>
<!-- Node11 -->
<g id="node7" class="node">
<title>Node11</title>
<g id="a_node7"><a xlink:href="a00398.html" target="_top" xlink:title="Declaration of temperature feedback parameters.">
<polygon fill="white" stroke="black" points="268,-398 152,-398 152,-379 268,-379 268,-398"/>
<text text-anchor="middle" x="210" y="-386" font-family="Helvetica,sans-Serif" font-size="10.00">Temperature Feedback</text>
</a>
</g>
</g>
<!-- Node1&#45;&gt;Node11 -->
<g id="edge10" class="edge">
<title>Node1&#45;&gt;Node11</title>
<path fill="none" stroke="black" d="M84.96,-335.41C102.06,-347.01 124.51,-360.97 146,-370.5 153.28,-373.73 161.29,-376.54 169.08,-378.91"/>
<polygon fill="black" stroke="black" points="86.75,-332.4 76.53,-329.6 82.78,-338.16 86.75,-332.4"/>
</g>
<!-- Node6 -->
<g id="node8" class="node">
<title>Node6</title>
<g id="a_node8"><a xlink:href="a00377.html" target="_top" xlink:title="Declaration of fault object trip and recovery delays.">
<polygon fill="white" stroke="black" points="272,-361 148,-361 148,-342 272,-342 272,-361"/>
<text text-anchor="middle" x="210" y="-349" font-family="Helvetica,sans-Serif" font-size="10.00">Fault Response Settings</text>
</a>
</g>
</g>
<!-- Node1&#45;&gt;Node6 -->
<g id="edge5" class="edge">
<title>Node1&#45;&gt;Node6</title>
<path fill="none" stroke="black" d="M120.16,-330.02C136.98,-334.08 154.62,-338.35 169.7,-342"/>
<polygon fill="black" stroke="black" points="120.92,-326.6 110.37,-327.65 119.27,-333.4 120.92,-326.6"/>
</g>
<!-- Node16 -->
<g id="node9" class="node">
<title>Node16</title>
<g id="a_node9"><a xlink:href="a00408.html" target="_top" xlink:title=" ">
<polygon fill="white" stroke="black" points="274,-324 146,-324 146,-305 274,-305 274,-324"/>
<text text-anchor="middle" x="210" y="-312" font-family="Helvetica,sans-Serif" font-size="10.00">Special Firmware Options</text>
</a>
</g>
</g>
<!-- Node1&#45;&gt;Node16 -->
<g id="edge15" class="edge">
<title>Node1&#45;&gt;Node16</title>
<path fill="none" stroke="black" d="M120.51,-314.5C128.92,-314.5 137.53,-314.5 145.92,-314.5"/>
<polygon fill="black" stroke="black" points="120.37,-311 110.37,-314.5 120.37,-318 120.37,-311"/>
</g>
<!-- Node3 -->
<g id="node10" class="node">
<title>Node3</title>
<g id="a_node10"><a xlink:href="a00367.html" target="_top" xlink:title="Declarations of fundamental microcontroller device parameters.">
<polygon fill="white" stroke="black" points="266,-286.5 154,-286.5 154,-256.5 266,-256.5 266,-286.5"/>
<text text-anchor="start" x="162" y="-274.5" font-family="Helvetica,sans-Serif" font-size="10.00">Microcontroller Device</text>
<text text-anchor="middle" x="210" y="-263.5" font-family="Helvetica,sans-Serif" font-size="10.00"> Abstraction</text>
</a>
</g>
</g>
<!-- Node1&#45;&gt;Node3 -->
<g id="edge2" class="edge">
<title>Node1&#45;&gt;Node3</title>
<path fill="none" stroke="black" d="M119.45,-296.67C131.44,-293.3 143.87,-289.8 155.52,-286.53"/>
<polygon fill="black" stroke="black" points="118.19,-293.39 109.51,-299.46 120.09,-300.12 118.19,-293.39"/>
</g>
<!-- Node2 -->
<g id="node11" class="node">
<title>Node2</title>
<g id="a_node11"><a xlink:href="a00366.html" target="_top" xlink:title="Global identified to the hardware version used.">
<polygon fill="white" stroke="black" points="262.5,-238 157.5,-238 157.5,-219 262.5,-219 262.5,-238"/>
<text text-anchor="middle" x="210" y="-226" font-family="Helvetica,sans-Serif" font-size="10.00">Hardware Version ID</text>
</a>
</g>
</g>
<!-- Node1&#45;&gt;Node2 -->
<g id="edge1" class="edge">
<title>Node1&#45;&gt;Node2</title>
<path fill="none" stroke="black" d="M80.3,-292.74C97.59,-278.21 121.93,-259.62 146,-247.5 153.35,-243.8 161.54,-240.68 169.53,-238.1"/>
<polygon fill="black" stroke="black" points="77.73,-290.33 72.41,-299.49 82.28,-295.65 77.73,-290.33"/>
</g>
<!-- Node14 -->
<g id="node12" class="node">
<title>Node14</title>
<g id="a_node12"><a xlink:href="a00404.html" target="_top" xlink:title="LC display SPI interface GPIO declarations.">
<polygon fill="white" stroke="black" points="262,-200.5 158,-200.5 158,-170.5 262,-170.5 262,-200.5"/>
<text text-anchor="start" x="166" y="-188.5" font-family="Helvetica,sans-Serif" font-size="10.00">LC Display Interface</text>
<text text-anchor="middle" x="210" y="-177.5" font-family="Helvetica,sans-Serif" font-size="10.00"> Declarations</text>
</a>
</g>
</g>
<!-- Node1&#45;&gt;Node14 -->
<g id="edge13" class="edge">
<title>Node1&#45;&gt;Node14</title>
<path fill="none" stroke="black" d="M71.4,-290.84C87.56,-267.63 114.89,-232.59 146,-210.5 151.28,-206.75 157.19,-203.46 163.23,-200.6"/>
<polygon fill="black" stroke="black" points="68.31,-289.16 65.58,-299.4 74.09,-293.1 68.31,-289.16"/>
</g>
<!-- Node12 -->
<g id="node13" class="node">
<title>Node12</title>
<g id="a_node13"><a xlink:href="a00402.html" target="_top" xlink:title="Declaration of macros calculating additional parameters for Adaptive Gain Modulation.">
<polygon fill="white" stroke="black" points="265,-152.5 155,-152.5 155,-122.5 265,-122.5 265,-152.5"/>
<text text-anchor="start" x="163" y="-140.5" font-family="Helvetica,sans-Serif" font-size="10.00">Adaptive Gain Control</text>
<text text-anchor="middle" x="210" y="-129.5" font-family="Helvetica,sans-Serif" font-size="10.00"> Feed Forward</text>
</a>
</g>
</g>
<!-- Node1&#45;&gt;Node12 -->
<g id="edge11" class="edge">
<title>Node1&#45;&gt;Node12</title>
<path fill="none" stroke="black" d="M64.58,-289.68C77.35,-256.18 104.4,-196.65 146,-161.5 150.02,-158.1 154.58,-155.16 159.35,-152.61"/>
<polygon fill="black" stroke="black" points="61.25,-288.59 61.08,-299.18 67.82,-291.01 61.25,-288.59"/>
</g>
<!-- Node13 -->
<g id="node14" class="node">
<title>Node13</title>
<g id="a_node14"><a xlink:href="a00403.html" target="_top" xlink:title=" ">
<polygon fill="white" stroke="black" points="268.5,-104.5 151.5,-104.5 151.5,-74.5 268.5,-74.5 268.5,-104.5"/>
<text text-anchor="start" x="159.5" y="-92.5" font-family="Helvetica,sans-Serif" font-size="10.00">Control Interrupt Vector</text>
<text text-anchor="middle" x="210" y="-81.5" font-family="Helvetica,sans-Serif" font-size="10.00"> Declarations</text>
</a>
</g>
</g>
<!-- Node1&#45;&gt;Node13 -->
<g id="edge12" class="edge">
<title>Node1&#45;&gt;Node13</title>
<path fill="none" stroke="black" d="M60.73,-289.4C69.91,-247.4 93.97,-162.65 146,-113.5 149.66,-110.04 153.87,-107.07 158.33,-104.52"/>
<polygon fill="black" stroke="black" points="57.27,-288.84 58.67,-299.35 64.13,-290.27 57.27,-288.84"/>
</g>
<!-- Node7 -->
<g id="node15" class="node">
<title>Node7</title>
<g id="a_node15"><a xlink:href="a00380.html" target="_top" xlink:title="Declaration of fundamental PWM parameters.">
<polygon fill="white" stroke="black" points="250,-56 170,-56 170,-37 250,-37 250,-56"/>
<text text-anchor="middle" x="210" y="-44" font-family="Helvetica,sans-Serif" font-size="10.00">PWM Settings</text>
</a>
</g>
</g>
<!-- Node1&#45;&gt;Node7 -->
<g id="edge6" class="edge">
<title>Node1&#45;&gt;Node7</title>
<path fill="none" stroke="black" d="M57.83,-289.15C62.82,-239.09 81.01,-127.08 146,-65.5 152.55,-59.29 161.06,-55.11 169.69,-52.29"/>
<polygon fill="black" stroke="black" points="54.32,-289.12 56.91,-299.39 61.29,-289.75 54.32,-289.12"/>
</g>
<!-- Node9 -->
<g id="node16" class="node">
<title>Node9</title>
<g id="a_node16"><a xlink:href="a00390.html" target="_top" xlink:title="Declaration of output voltage feedback parameters.">
<polygon fill="white" stroke="black" points="274,-19 146,-19 146,0 274,0 274,-19"/>
<text text-anchor="middle" x="210" y="-7" font-family="Helvetica,sans-Serif" font-size="10.00">Output Voltage Feedback</text>
</a>
</g>
</g>
<!-- Node1&#45;&gt;Node9 -->
<g id="edge8" class="edge">
<title>Node1&#45;&gt;Node9</title>
<path fill="none" stroke="black" d="M56.45,-288.94C58.83,-233.48 72.39,-101.24 146,-28.5 149.9,-24.65 154.55,-21.57 159.54,-19.11"/>
<polygon fill="black" stroke="black" points="52.94,-289.15 56.1,-299.27 59.93,-289.39 52.94,-289.15"/>
</g>
</g>
</svg>
        <g id="navigator" transform="translate(0 0)" fill="#404254">
                <rect fill="#f2f5e9" fill-opacity="0.5" stroke="#606060" stroke-width=".5" x="0" y="0" width="60" height="60"/>
                <use id="zoomplus" xlink:href="#zoomPlus" x="17" y="9" onmousedown="handleZoom(evt,'in')"/>
                <use id="zoomminus" xlink:href="#zoomMin" x="42" y="9" onmousedown="handleZoom(evt,'out')"/>
                <use id="reset" xlink:href="#resetDef" x="30" y="36" onmousedown="handleReset()"/>
                <g id="arrowUp" xlink:href="#dirArrow" transform="translate(30 24)" onmousedown="handlePan(0,-1)">
                  <use xlink:href="#rim" fill="#404040">
                        <set attributeName="fill" to="#808080" begin="arrowUp.mouseover" end="arrowUp.mouseout"/>
                  </use>
                  <path fill="none" stroke="white" stroke-width="1.5" d="M0,-3.0v7 M-2.5,-0.5L0,-3.0L2.5,-0.5"/>
                </g>
                <g id="arrowRight" xlink:href="#dirArrow" transform="rotate(90) translate(36 -43)" onmousedown="handlePan(1,0)">
                  <use xlink:href="#rim" fill="#404040">
                        <set attributeName="fill" to="#808080" begin="arrowRight.mouseover" end="arrowRight.mouseout"/>
                  </use>
                  <path fill="none" stroke="white" stroke-width="1.5" d="M0,-3.0v7 M-2.5,-0.5L0,-3.0L2.5,-0.5"/>
                </g>
                <g id="arrowDown" xlink:href="#dirArrow" transform="rotate(180) translate(-30 -48)" onmousedown="handlePan(0,1)">
                  <use xlink:href="#rim" fill="#404040">
                        <set attributeName="fill" to="#808080" begin="arrowDown.mouseover" end="arrowDown.mouseout"/>
                  </use>
                  <path fill="none" stroke="white" stroke-width="1.5" d="M0,-3.0v7 M-2.5,-0.5L0,-3.0L2.5,-0.5"/>
                </g>
                <g id="arrowLeft" xlink:href="#dirArrow" transform="rotate(270) translate(-36 17)" onmousedown="handlePan(-1,0)">
                  <use xlink:href="#rim" fill="#404040">
                        <set attributeName="fill" to="#808080" begin="arrowLeft.mouseover" end="arrowLeft.mouseout"/>
                  </use>
                  <path fill="none" stroke="white" stroke-width="1.5" d="M0,-3.0v7 M-2.5,-0.5L0,-3.0L2.5,-0.5"/>
                </g>
        </g>
        <svg viewBox="0 0 15 15" width="100%" height="30px" preserveAspectRatio="xMaxYMin meet">
         <g id="arrow_out" transform="scale(0.3 0.3)">
          <a xlink:href="a00522_org.svg" target="_base">
           <rect id="button" ry="5" rx="5" y="6" x="6" height="38" width="38"
                fill="#f2f5e9" fill-opacity="0.5" stroke="#606060" stroke-width="1.0"/>
           <path id="arrow"
             d="M 11.500037,31.436501 C 11.940474,20.09759 22.043105,11.32322 32.158766,21.979434 L 37.068811,17.246167 C 37.068811,17.246167 37.088388,32 37.088388,32 L 22.160133,31.978069 C 22.160133,31.978069 26.997745,27.140456 26.997745,27.140456 C 18.528582,18.264221 13.291696,25.230495 11.500037,31.436501 z"
             style="fill:#404040;"/>
          </a>
         </g>
        </svg>
</svg>
