<?xml version="1.0" encoding="UTF-8" standalone="no"?>
<!DOCTYPE svg PUBLIC "-//W3C//DTD SVG 1.1//EN"
 "http://www.w3.org/Graphics/SVG/1.1/DTD/svg11.dtd">
<!-- Generated by graphviz version 2.44.1 (20200629.0846)
 -->
<!-- Title: Device Driver Library Layer Pages: 1 -->
<svg width="266pt" height="138pt"
 viewBox="0.00 0.00 266.00 138.00" xmlns="http://www.w3.org/2000/svg" xmlns:xlink="http://www.w3.org/1999/xlink">
<g id="graph0" class="graph" transform="scale(1 1) rotate(0) translate(4 134)">
<title>Device Driver Library Layer</title>
<polygon fill="white" stroke="transparent" points="-4,4 -4,-134 262,-134 262,4 -4,4"/>
<!-- Node2 -->
<g id="node1" class="node">
<title>Node2</title>
<g id="a_node1"><a xlink:href="a00414.html" target="_top" xlink:title=" ">
<polygon fill="white" stroke="black" points="252.5,-130 145.5,-130 145.5,-111 252.5,-111 252.5,-130"/>
<text text-anchor="middle" x="199" y="-118" font-family="Helvetica,sans-Serif" font-size="10.00">Fault Handler Library</text>
</a>
</g>
</g>
<!-- Node3 -->
<g id="node2" class="node">
<title>Node3</title>
<g id="a_node2"><a xlink:href="a00430.html" target="_top" xlink:title=" ">
<polygon fill="white" stroke="black" points="247,-93 151,-93 151,-74 247,-74 247,-93"/>
<text text-anchor="middle" x="199" y="-81" font-family="Helvetica,sans-Serif" font-size="10.00">LC&#45;Display Library</text>
</a>
</g>
</g>
<!-- Node5 -->
<g id="node3" class="node">
<title>Node5</title>
<g id="a_node3"><a xlink:href="a00500.html" target="_top" xlink:title=" ">
<polygon fill="white" stroke="black" points="250.5,-56 147.5,-56 147.5,-37 250.5,-37 250.5,-56"/>
<text text-anchor="middle" x="199" y="-44" font-family="Helvetica,sans-Serif" font-size="10.00">Push&#45;Button Library</text>
</a>
</g>
</g>
<!-- Node4 -->
<g id="node4" class="node">
<title>Node4</title>
<g id="a_node4"><a xlink:href="a00451.html" target="_top" xlink:title=" ">
<polygon fill="white" stroke="black" points="258,-19 140,-19 140,0 258,0 258,-19"/>
<text text-anchor="middle" x="199" y="-7" font-family="Helvetica,sans-Serif" font-size="10.00">Boost Converter Library</text>
</a>
</g>
</g>
<!-- Node1 -->
<g id="node5" class="node">
<title>Node1</title>
<g id="a_node5"><a xlink:title="Generic Device Driver Layer.">
<polygon fill="#bfbfbf" stroke="black" points="104,-79.5 0,-79.5 0,-49.5 104,-49.5 104,-79.5"/>
<text text-anchor="start" x="8" y="-67.5" font-family="Helvetica,sans-Serif" font-size="10.00">Device Driver Library</text>
<text text-anchor="middle" x="52" y="-56.5" font-family="Helvetica,sans-Serif" font-size="10.00"> Layer</text>
</a>
</g>
</g>
<!-- Node1&#45;&gt;Node2 -->
<g id="edge1" class="edge">
<title>Node1&#45;&gt;Node2</title>
<path fill="none" stroke="black" d="M94.79,-83.87C109,-90.16 125.07,-96.94 140,-102.5 148,-105.48 156.75,-108.38 164.97,-110.94"/>
<polygon fill="black" stroke="black" points="95.84,-80.51 85.29,-79.62 92.99,-86.9 95.84,-80.51"/>
</g>
<!-- Node1&#45;&gt;Node3 -->
<g id="edge2" class="edge">
<title>Node1&#45;&gt;Node3</title>
<path fill="none" stroke="black" d="M114.24,-72.52C126.44,-74.12 139.09,-75.78 150.73,-77.31"/>
<polygon fill="black" stroke="black" points="114.49,-69.03 104.12,-71.2 113.58,-75.97 114.49,-69.03"/>
</g>
<!-- Node1&#45;&gt;Node5 -->
<g id="edge4" class="edge">
<title>Node1&#45;&gt;Node5</title>
<path fill="none" stroke="black" d="M114.14,-56.91C125.2,-55.54 136.62,-54.12 147.34,-52.79"/>
<polygon fill="black" stroke="black" points="113.61,-53.45 104.12,-58.15 114.48,-60.4 113.61,-53.45"/>
</g>
<!-- Node1&#45;&gt;Node4 -->
<g id="edge3" class="edge">
<title>Node1&#45;&gt;Node4</title>
<path fill="none" stroke="black" d="M97.48,-45.33C111.05,-39.69 126.06,-33.66 140,-28.5 148.84,-25.23 158.55,-21.93 167.45,-19.03"/>
<polygon fill="black" stroke="black" points="95.77,-42.26 87.9,-49.35 98.47,-48.71 95.77,-42.26"/>
</g>
</g>
</svg>
