<?xml version="1.0" encoding="UTF-8" standalone="no"?>
<!DOCTYPE svg PUBLIC "-//W3C//DTD SVG 1.1//EN"
 "http://www.w3.org/Graphics/SVG/1.1/DTD/svg11.dtd">
<!-- Generated by graphviz version 2.40.1 (0)
 -->
<!-- Title: Fault Monitor Application Layer Pages: 1 -->
<svg width="580pt" height="138pt"
 viewBox="0.00 0.00 580.00 138.00" xmlns="http://www.w3.org/2000/svg" xmlns:xlink="http://www.w3.org/1999/xlink">
<g id="graph0" class="graph" transform="scale(1 1) rotate(0) translate(4 134)">
<title>Fault Monitor Application Layer</title>
<polygon fill="#ffffff" stroke="transparent" points="-4,4 -4,-134 576,-134 576,4 -4,4"/>
<!-- Node2 -->
<g id="node1" class="node">
<title>Node2</title>
<g id="a_node1"><a xlink:href="a00546.html" target="_top" xlink:title="Public functions of the first application layer task.">
<polygon fill="#ffffff" stroke="#000000" points="564.5,-130 427.5,-130 427.5,-111 564.5,-111 564.5,-130"/>
<text text-anchor="middle" x="496" y="-118" font-family="Helvetica,sans-Serif" font-size="10.00" fill="#000000">Public Functions</text>
</a>
</g>
</g>
<!-- Node5 -->
<g id="node2" class="node">
<title>Node5</title>
<g id="a_node2"><a xlink:href="a00549.html" target="_top" xlink:title="Private properties of the first application layer task.">
<polygon fill="#ffffff" stroke="#000000" points="572,-93 420,-93 420,-74 572,-74 572,-93"/>
<text text-anchor="middle" x="496" y="-81" font-family="Helvetica,sans-Serif" font-size="10.00" fill="#000000">Private Properties</text>
</a>
</g>
</g>
<!-- Node0 -->
<g id="node3" class="node">
<title>Node0</title>
<g id="a_node3"><a xlink:title=" ">
<polygon fill="#bfbfbf" stroke="#000000" points="384,-79.5 180,-79.5 180,-49.5 384,-49.5 384,-79.5"/>
<text text-anchor="start" x="188" y="-67.5" font-family="Helvetica,sans-Serif" font-size="10.00" fill="#000000">Fault Monitor Application</text>
<text text-anchor="middle" x="282" y="-56.5" font-family="Helvetica,sans-Serif" font-size="10.00" fill="#000000"> Layer</text>
</a>
</g>
</g>
<!-- Node0&#45;&gt;Node2 -->
<g id="edge2" class="edge">
<title>Node0&#45;&gt;Node2</title>
<path fill="none" stroke="#000000" d="M344.8177,-82.3128C368.3515,-88.8503 395.3546,-96.1905 420,-102.5 431.1654,-105.3585 443.2949,-108.3032 454.5174,-110.9617"/>
<polygon fill="#000000" stroke="#000000" points="345.5338,-78.8791 334.9612,-79.5655 343.6543,-85.622 345.5338,-78.8791"/>
</g>
<!-- Node0&#45;&gt;Node5 -->
<g id="edge5" class="edge">
<title>Node0&#45;&gt;Node5</title>
<path fill="none" stroke="#000000" d="M394.3689,-74.4767C402.94,-75.2377 411.4651,-75.9946 419.7234,-76.7278"/>
<polygon fill="#000000" stroke="#000000" points="394.5696,-70.9808 384.2992,-73.5826 393.9505,-77.9534 394.5696,-70.9808"/>
</g>
<!-- Node3 -->
<g id="node4" class="node">
<title>Node3</title>
<g id="a_node4"><a xlink:href="a00547.html" target="_top" xlink:title="Public properties of the first application layer task.">
<polygon fill="#ffffff" stroke="#000000" points="568,-56 424,-56 424,-37 568,-37 568,-56"/>
<text text-anchor="middle" x="496" y="-44" font-family="Helvetica,sans-Serif" font-size="10.00" fill="#000000">Public Properties</text>
</a>
</g>
</g>
<!-- Node0&#45;&gt;Node3 -->
<g id="edge3" class="edge">
<title>Node0&#45;&gt;Node3</title>
<path fill="none" stroke="#000000" d="M394.2984,-55.0543C404.29,-54.2139 414.2198,-53.3787 423.7382,-52.5781"/>
<polygon fill="#000000" stroke="#000000" points="393.9706,-51.5695 384.2992,-55.8954 394.5574,-58.5448 393.9706,-51.5695"/>
</g>
<!-- Node4 -->
<g id="node6" class="node">
<title>Node4</title>
<g id="a_node6"><a xlink:href="a00548.html" target="_top" xlink:title="Private functions of the first application layer task.">
<polygon fill="#ffffff" stroke="#000000" points="568,-19 424,-19 424,0 568,0 568,-19"/>
<text text-anchor="middle" x="496" y="-7" font-family="Helvetica,sans-Serif" font-size="10.00" fill="#000000">Private Functions</text>
</a>
</g>
</g>
<!-- Node0&#45;&gt;Node4 -->
<g id="edge4" class="edge">
<title>Node0&#45;&gt;Node4</title>
<path fill="none" stroke="#000000" d="M346.3571,-46.8245C369.533,-40.5707 395.9047,-33.5821 420,-27.5 431.175,-24.6792 443.3077,-21.7472 454.5302,-19.0888"/>
<polygon fill="#000000" stroke="#000000" points="345.3748,-43.4644 336.6362,-49.455 347.2033,-50.2214 345.3748,-43.4644"/>
</g>
<!-- Node1 -->
<g id="node5" class="node">
<title>Node1</title>
<g id="a_node5"><a xlink:href="a00659.html" target="_top" xlink:title="Task Layer.">
<polygon fill="#ffffff" stroke="#000000" points="144,-74 0,-74 0,-55 144,-55 144,-74"/>
<text text-anchor="middle" x="72" y="-62" font-family="Helvetica,sans-Serif" font-size="10.00" fill="#000000">Application Layer</text>
</a>
</g>
</g>
<!-- Node1&#45;&gt;Node0 -->
<g id="edge1" class="edge">
<title>Node1&#45;&gt;Node0</title>
<path fill="none" stroke="#000000" d="M154.3808,-64.5C162.7645,-64.5 171.3502,-64.5 179.91,-64.5"/>
<polygon fill="#000000" stroke="#000000" points="154.2701,-61.0001 144.2701,-64.5 154.2701,-68.0001 154.2701,-61.0001"/>
</g>
</g>
</svg>
