<?xml version="1.0" encoding="UTF-8" standalone="no"?>
<!DOCTYPE svg PUBLIC "-//W3C//DTD SVG 1.1//EN"
 "http://www.w3.org/Graphics/SVG/1.1/DTD/svg11.dtd">
<!-- Generated by graphviz version 2.40.1 (0)
 -->
<!-- Title: User Settings Pages: 1 -->
<svg width="505pt" height="27pt"
 viewBox="0.00 0.00 505.00 27.00" xmlns="http://www.w3.org/2000/svg" xmlns:xlink="http://www.w3.org/1999/xlink">
<g id="graph0" class="graph" transform="scale(1 1) rotate(0) translate(4 23)">
<title>User Settings</title>
<polygon fill="#ffffff" stroke="transparent" points="-4,4 -4,-23 501,-23 501,4 -4,4"/>
<!-- Node0 -->
<g id="node1" class="node">
<title>Node0</title>
<g id="a_node1"><a xlink:title="User&#45;declaration of phase current feedback parameters using physical quantities.">
<polygon fill="#bfbfbf" stroke="#000000" points="332,-19 218,-19 218,0 332,0 332,-19"/>
<text text-anchor="middle" x="275" y="-7" font-family="Helvetica,sans-Serif" font-size="10.00" fill="#000000">User Settings</text>
</a>
</g>
</g>
<!-- Node2 -->
<g id="node2" class="node">
<title>Node2</title>
<g id="a_node2"><a xlink:href="a00524.html" target="_top" xlink:title="User&#45;declaration of phase current feedback parameters of the boost converter using physical quantitie...">
<polygon fill="#ffffff" stroke="#000000" points="497,-19 368,-19 368,0 497,0 497,-19"/>
<text text-anchor="middle" x="432.5" y="-7" font-family="Helvetica,sans-Serif" font-size="10.00" fill="#000000">Boost Converter</text>
</a>
</g>
</g>
<!-- Node0&#45;&gt;Node2 -->
<g id="edge2" class="edge">
<title>Node0&#45;&gt;Node2</title>
<path fill="none" stroke="#000000" d="M342.4383,-9.5C350.8373,-9.5 359.4117,-9.5 367.7684,-9.5"/>
<polygon fill="#000000" stroke="#000000" points="342.3067,-6.0001 332.3067,-9.5 342.3066,-13.0001 342.3067,-6.0001"/>
</g>
<!-- Node1 -->
<g id="node3" class="node">
<title>Node1</title>
<g id="a_node3"><a xlink:href="a00522.html" target="_top" xlink:title="Declaration of phase current feedback parameters.">
<polygon fill="#ffffff" stroke="#000000" points="182,-19 0,-19 0,0 182,0 182,-19"/>
<text text-anchor="middle" x="91" y="-7" font-family="Helvetica,sans-Serif" font-size="10.00" fill="#000000">Phase Current Feedback</text>
</a>
</g>
</g>
<!-- Node1&#45;&gt;Node0 -->
<g id="edge1" class="edge">
<title>Node1&#45;&gt;Node0</title>
<path fill="none" stroke="#000000" d="M192.4702,-9.5C201.1975,-9.5 209.8099,-9.5 217.9888,-9.5"/>
<polygon fill="#000000" stroke="#000000" points="192.1914,-6.0001 182.1914,-9.5 192.1914,-13.0001 192.1914,-6.0001"/>
</g>
</g>
</svg>
