<?xml version="1.0" encoding="UTF-8" standalone="no"?>
<!DOCTYPE svg PUBLIC "-//W3C//DTD SVG 1.1//EN"
 "http://www.w3.org/Graphics/SVG/1.1/DTD/svg11.dtd">
<!-- Generated by graphviz version 2.44.1 (20200629.0846)
 -->
<!-- Title: sysUserTasks_Initialize Pages: 1 -->
<svg width="1385pt" height="693pt"
 viewBox="0.00 0.00 1385.00 692.50" xmlns="http://www.w3.org/2000/svg" xmlns:xlink="http://www.w3.org/1999/xlink">
<g id="graph0" class="graph" transform="scale(1 1) rotate(0) translate(4 688.5)">
<title>sysUserTasks_Initialize</title>
<polygon fill="white" stroke="transparent" points="-4,4 -4,-688.5 1381,-688.5 1381,4 -4,4"/>
<!-- Node1 -->
<g id="node1" class="node">
<title>Node1</title>
<g id="a_node1"><a xlink:title="Initializes the user&#45;defined tasks.">
<polygon fill="#bfbfbf" stroke="black" points="0,-262 0,-281 119,-281 119,-262 0,-262"/>
<text text-anchor="middle" x="59.5" y="-269" font-family="Helvetica,sans-Serif" font-size="10.00">sysUserTasks_Initialize</text>
</a>
</g>
</g>
<!-- Node2 -->
<g id="node2" class="node">
<title>Node2</title>
<g id="a_node2"><a xlink:href="a00438.html#ga830e5c7087a8e5ee8ea39b7e3df94b68" target="_top" xlink:title="Initialization of user&#45;defined fault objects.">
<polygon fill="white" stroke="black" points="156.5,-589 156.5,-608 283.5,-608 283.5,-589 156.5,-589"/>
<text text-anchor="middle" x="220" y="-596" font-family="Helvetica,sans-Serif" font-size="10.00">appFaultMonitor_Initialize</text>
</a>
</g>
</g>
<!-- Node1&#45;&gt;Node2 -->
<g id="edge1" class="edge">
<title>Node1&#45;&gt;Node2</title>
<path fill="none" stroke="midnightblue" d="M64.57,-281.25C77.21,-311.4 117.24,-405.62 155,-481.5 172.61,-516.89 195.2,-557.12 208.29,-579.99"/>
<polygon fill="midnightblue" stroke="midnightblue" points="205.41,-582 213.43,-588.93 211.48,-578.51 205.41,-582"/>
</g>
<!-- Node12 -->
<g id="node10" class="node">
<title>Node12</title>
<g id="a_node10"><a xlink:href="a00454.html#gab93992748ced72fdc2989d0b0f369e54" target="_top" xlink:title="Initializes the LC display.">
<polygon fill="white" stroke="black" points="174,-453 174,-472 266,-472 266,-453 174,-453"/>
<text text-anchor="middle" x="220" y="-460" font-family="Helvetica,sans-Serif" font-size="10.00">appLCD_Initialize</text>
</a>
</g>
</g>
<!-- Node1&#45;&gt;Node12 -->
<g id="edge12" class="edge">
<title>Node1&#45;&gt;Node12</title>
<path fill="none" stroke="midnightblue" d="M68.58,-281.23C93.8,-311.62 171.34,-405.06 204.12,-444.57"/>
<polygon fill="midnightblue" stroke="midnightblue" points="201.67,-447.1 210.75,-452.56 207.06,-442.63 201.67,-447.1"/>
</g>
<!-- Node23 -->
<g id="node21" class="node">
<title>Node23</title>
<g id="a_node21"><a xlink:href="a00469.html#ga900c95201f101cb3c8644bcf7aab8af9" target="_top" xlink:title="Initializes the LED driving GPIO.">
<polygon fill="white" stroke="black" points="174,-281 174,-300 266,-300 266,-281 174,-281"/>
<text text-anchor="middle" x="220" y="-288" font-family="Helvetica,sans-Serif" font-size="10.00">appLED_Initialize</text>
</a>
</g>
</g>
<!-- Node1&#45;&gt;Node23 -->
<g id="edge26" class="edge">
<title>Node1&#45;&gt;Node23</title>
<path fill="none" stroke="midnightblue" d="M119.07,-278.52C133.55,-280.26 149.01,-282.11 163.34,-283.83"/>
<polygon fill="midnightblue" stroke="midnightblue" points="163.2,-287.34 173.55,-285.05 164.04,-280.39 163.2,-287.34"/>
</g>
<!-- Node24 -->
<g id="node22" class="node">
<title>Node24</title>
<g id="a_node22"><a xlink:href="a00474.html#ga7a4cf6371d09457539f96a74b2809ca0" target="_top" xlink:title="Calls the application layer power controller initialization.">
<polygon fill="white" stroke="black" points="155,-243 155,-262 285,-262 285,-243 155,-243"/>
<text text-anchor="middle" x="220" y="-250" font-family="Helvetica,sans-Serif" font-size="10.00">appPowerSupply_Initialize</text>
</a>
</g>
</g>
<!-- Node1&#45;&gt;Node24 -->
<g id="edge27" class="edge">
<title>Node1&#45;&gt;Node24</title>
<path fill="none" stroke="midnightblue" d="M119.07,-264.48C127.44,-263.48 136.13,-262.43 144.75,-261.4"/>
<polygon fill="midnightblue" stroke="midnightblue" points="145.29,-264.86 154.81,-260.2 144.46,-257.91 145.29,-264.86"/>
</g>
<!-- Node47 -->
<g id="node45" class="node">
<title>Node47</title>
<g id="a_node45"><a xlink:href="a00524.html#ga7c903bd2ce5b08d78de218d726830947" target="_top" xlink:title="Initializes the USER push button on DPSK3.">
<polygon fill="white" stroke="black" points="158,-107 158,-126 282,-126 282,-107 158,-107"/>
<text text-anchor="middle" x="220" y="-114" font-family="Helvetica,sans-Serif" font-size="10.00">appPushButton_Initialize</text>
</a>
</g>
</g>
<!-- Node1&#45;&gt;Node47 -->
<g id="edge54" class="edge">
<title>Node1&#45;&gt;Node47</title>
<path fill="none" stroke="midnightblue" d="M70.41,-261.8C96.77,-236.03 168.79,-165.6 201.92,-133.21"/>
<polygon fill="midnightblue" stroke="midnightblue" points="204.39,-135.69 209.09,-126.19 199.49,-130.68 204.39,-135.69"/>
</g>
<!-- Node52 -->
<g id="node50" class="node">
<title>Node52</title>
<g id="a_node50"><a xlink:href="a00548.html#ga8e89a1a4ee5bf8c794bd29163b92bf49" target="_top" xlink:title="Initializes the timer used as time&#45;base for the task scheduler.">
<polygon fill="white" stroke="black" points="165,-69 165,-88 275,-88 275,-69 165,-69"/>
<text text-anchor="middle" x="220" y="-76" font-family="Helvetica,sans-Serif" font-size="10.00">sysOsTimer_Initialize</text>
</a>
</g>
</g>
<!-- Node1&#45;&gt;Node52 -->
<g id="edge59" class="edge">
<title>Node1&#45;&gt;Node52</title>
<path fill="none" stroke="midnightblue" d="M62.9,-261.91C70.73,-232.6 98.38,-143.38 155,-97.5 157.16,-95.75 159.48,-94.16 161.91,-92.71"/>
<polygon fill="midnightblue" stroke="midnightblue" points="163.73,-95.72 171.1,-88.1 160.59,-89.46 163.73,-95.72"/>
</g>
<!-- Node3 -->
<g id="node3" class="node">
<title>Node3</title>
<g id="a_node3"><a xlink:href="a00440.html#ga54f9db91ea0782b08aa16ee77a57c5e5" target="_top" xlink:title="Initializes the user&#45;defined fault objects for overcurrent protection.">
<polygon fill="white" stroke="black" points="356,-589 356,-608 451,-608 451,-589 356,-589"/>
<text text-anchor="middle" x="403.5" y="-596" font-family="Helvetica,sans-Serif" font-size="10.00">ocp_FaultInitialize</text>
</a>
</g>
</g>
<!-- Node2&#45;&gt;Node3 -->
<g id="edge2" class="edge">
<title>Node2&#45;&gt;Node3</title>
<path fill="none" stroke="midnightblue" d="M283.72,-598.5C303.87,-598.5 326.07,-598.5 345.77,-598.5"/>
<polygon fill="midnightblue" stroke="midnightblue" points="345.82,-602 355.82,-598.5 345.82,-595 345.82,-602"/>
</g>
<!-- Node9 -->
<g id="node7" class="node">
<title>Node9</title>
<g id="a_node7"><a xlink:href="a00440.html#gade437244e8f6e5ff7c57a73442063350" target="_top" xlink:title="Initializes the user&#45;defined fault objects for overvoltage lockout.">
<polygon fill="white" stroke="black" points="356,-551 356,-570 451,-570 451,-551 356,-551"/>
<text text-anchor="middle" x="403.5" y="-558" font-family="Helvetica,sans-Serif" font-size="10.00">ovlo_FaultInitialize</text>
</a>
</g>
</g>
<!-- Node2&#45;&gt;Node9 -->
<g id="edge6" class="edge">
<title>Node2&#45;&gt;Node9</title>
<path fill="none" stroke="midnightblue" d="M266.8,-588.91C291.18,-583.81 321.36,-577.49 347.06,-572.11"/>
<polygon fill="midnightblue" stroke="midnightblue" points="347.96,-575.5 357.03,-570.02 346.52,-568.64 347.96,-575.5"/>
</g>
<!-- Node10 -->
<g id="node8" class="node">
<title>Node10</title>
<g id="a_node8"><a xlink:href="a00440.html#ga82dc317e3adac0308e5ac3f5ad321605" target="_top" xlink:title="Initializes the user&#45;defined fault objects for regulation error.">
<polygon fill="white" stroke="black" points="351.5,-665 351.5,-684 455.5,-684 455.5,-665 351.5,-665"/>
<text text-anchor="middle" x="403.5" y="-672" font-family="Helvetica,sans-Serif" font-size="10.00">regerr_FaultInitialize</text>
</a>
</g>
</g>
<!-- Node2&#45;&gt;Node10 -->
<g id="edge8" class="edge">
<title>Node2&#45;&gt;Node10</title>
<path fill="none" stroke="midnightblue" d="M234.92,-608.18C253.67,-620.79 288.44,-642.74 321,-655.5 327.45,-658.03 334.33,-660.28 341.25,-662.26"/>
<polygon fill="midnightblue" stroke="midnightblue" points="340.81,-665.76 351.38,-664.97 342.62,-659 340.81,-665.76"/>
</g>
<!-- Node11 -->
<g id="node9" class="node">
<title>Node11</title>
<g id="a_node9"><a xlink:href="a00440.html#ga9441220f8a7d4a6805467d04b734e6b5" target="_top" xlink:title="Initializes the user&#45;defined fault objects for under&#45;voltage lockout.">
<polygon fill="white" stroke="black" points="356,-627 356,-646 451,-646 451,-627 356,-627"/>
<text text-anchor="middle" x="403.5" y="-634" font-family="Helvetica,sans-Serif" font-size="10.00">uvlo_FaultInitialize</text>
</a>
</g>
</g>
<!-- Node2&#45;&gt;Node11 -->
<g id="edge10" class="edge">
<title>Node2&#45;&gt;Node11</title>
<path fill="none" stroke="midnightblue" d="M266.8,-608.09C291.18,-613.19 321.36,-619.51 347.06,-624.89"/>
<polygon fill="midnightblue" stroke="midnightblue" points="346.52,-628.36 357.03,-626.98 347.96,-621.5 346.52,-628.36"/>
</g>
<!-- Node4 -->
<g id="node4" class="node">
<title>Node4</title>
<g id="a_node4"><a xlink:href="a00474.html#gafa4e90d260e60cf20f06acee067c39cd" target="_top" xlink:title="This function stops the power supply operation.">
<polygon fill="white" stroke="black" points="522,-627 522,-646 655,-646 655,-627 522,-627"/>
<text text-anchor="middle" x="588.5" y="-634" font-family="Helvetica,sans-Serif" font-size="10.00">appPowerSupply_Suspend</text>
</a>
</g>
</g>
<!-- Node3&#45;&gt;Node4 -->
<g id="edge3" class="edge">
<title>Node3&#45;&gt;Node4</title>
<path fill="none" stroke="midnightblue" d="M450.68,-608.09C475.26,-613.19 505.69,-619.51 531.6,-624.89"/>
<polygon fill="midnightblue" stroke="midnightblue" points="531.15,-628.37 541.65,-626.98 532.57,-621.52 531.15,-628.37"/>
</g>
<!-- Node5 -->
<g id="node5" class="node">
<title>Node5</title>
<g id="a_node5"><a xlink:href="a00481.html#ga06815ea10e42fd1e1347e17e90bf49b9" target="_top" xlink:title="This function suspends the operation of the boost converter.">
<polygon fill="white" stroke="black" points="711.5,-624.5 711.5,-654.5 811.5,-654.5 811.5,-624.5 711.5,-624.5"/>
<text text-anchor="start" x="719.5" y="-642.5" font-family="Helvetica,sans-Serif" font-size="10.00">drv_BoostConverter</text>
<text text-anchor="middle" x="761.5" y="-631.5" font-family="Helvetica,sans-Serif" font-size="10.00">_Suspend</text>
</a>
</g>
</g>
<!-- Node4&#45;&gt;Node5 -->
<g id="edge4" class="edge">
<title>Node4&#45;&gt;Node5</title>
<path fill="none" stroke="midnightblue" d="M655.12,-637.65C670.28,-637.92 686.31,-638.2 701.18,-638.46"/>
<polygon fill="midnightblue" stroke="midnightblue" points="701.19,-641.96 711.25,-638.64 701.32,-634.96 701.19,-641.96"/>
</g>
<!-- Node6 -->
<g id="node6" class="node">
<title>Node6</title>
<g id="a_node6"><a xlink:href="a00481.html#gac9132ab11bac82cf39cc4647fa7b5a1a" target="_top" xlink:title="This function is the main boost converter state machine executing the most recent state.">
<polygon fill="white" stroke="red" points="897,-624.5 897,-654.5 997,-654.5 997,-624.5 897,-624.5"/>
<text text-anchor="start" x="905" y="-642.5" font-family="Helvetica,sans-Serif" font-size="10.00">drv_BoostConverter</text>
<text text-anchor="middle" x="947" y="-631.5" font-family="Helvetica,sans-Serif" font-size="10.00">_Execute</text>
</a>
</g>
</g>
<!-- Node5&#45;&gt;Node6 -->
<g id="edge5" class="edge">
<title>Node5&#45;&gt;Node6</title>
<path fill="none" stroke="midnightblue" d="M811.67,-639.5C834.71,-639.5 862.35,-639.5 886.55,-639.5"/>
<polygon fill="midnightblue" stroke="midnightblue" points="886.69,-643 896.69,-639.5 886.69,-636 886.69,-643"/>
</g>
<!-- Node9&#45;&gt;Node4 -->
<g id="edge7" class="edge">
<title>Node9&#45;&gt;Node4</title>
<path fill="none" stroke="midnightblue" d="M451.06,-567.44C462.84,-570.24 475.2,-574.13 486,-579.5 504.64,-588.78 504.17,-598.74 522,-609.5 530.6,-614.69 540.37,-619.31 549.7,-623.21"/>
<polygon fill="midnightblue" stroke="midnightblue" points="548.61,-626.54 559.19,-626.99 551.2,-620.04 548.61,-626.54"/>
</g>
<!-- Node10&#45;&gt;Node4 -->
<g id="edge9" class="edge">
<title>Node10&#45;&gt;Node4</title>
<path fill="none" stroke="midnightblue" d="M450.68,-664.91C475.26,-659.81 505.69,-653.49 531.6,-648.11"/>
<polygon fill="midnightblue" stroke="midnightblue" points="532.57,-651.48 541.65,-646.02 531.15,-644.63 532.57,-651.48"/>
</g>
<!-- Node11&#45;&gt;Node4 -->
<g id="edge11" class="edge">
<title>Node11&#45;&gt;Node4</title>
<path fill="none" stroke="midnightblue" d="M451.15,-636.5C469.63,-636.5 491.34,-636.5 511.94,-636.5"/>
<polygon fill="midnightblue" stroke="midnightblue" points="511.95,-640 521.95,-636.5 511.95,-633 511.95,-640"/>
</g>
<!-- Node13 -->
<g id="node11" class="node">
<title>Node13</title>
<g id="a_node11"><a xlink:href="a00459.html#ga5d8f09855e28846e87400692d186781a" target="_top" xlink:title="Initializes the LCD Device.">
<polygon fill="white" stroke="black" points="357.5,-513 357.5,-532 449.5,-532 449.5,-513 357.5,-513"/>
<text text-anchor="middle" x="403.5" y="-520" font-family="Helvetica,sans-Serif" font-size="10.00">dev_Lcd_Initialize</text>
</a>
</g>
</g>
<!-- Node12&#45;&gt;Node13 -->
<g id="edge13" class="edge">
<title>Node12&#45;&gt;Node13</title>
<path fill="none" stroke="midnightblue" d="M249.76,-472.01C280.6,-482.2 329.74,-498.45 363.92,-509.75"/>
<polygon fill="midnightblue" stroke="midnightblue" points="362.98,-513.12 373.58,-512.94 365.18,-506.48 362.98,-513.12"/>
</g>
<!-- Node18 -->
<g id="node16" class="node">
<title>Node18</title>
<g id="a_node16"><a xlink:href="a00459.html#ga24701a4c3ae760e7e0b9c70d93370ff3" target="_top" xlink:title="Sets the cursor position to the given x&#45; and y&#45;coordinates and writes the given string on the lcd scr...">
<polygon fill="white" stroke="black" points="344.5,-453 344.5,-472 462.5,-472 462.5,-453 344.5,-453"/>
<text text-anchor="middle" x="403.5" y="-460" font-family="Helvetica,sans-Serif" font-size="10.00">dev_Lcd_WriteStringXY</text>
</a>
</g>
</g>
<!-- Node12&#45;&gt;Node18 -->
<g id="edge18" class="edge">
<title>Node12&#45;&gt;Node18</title>
<path fill="none" stroke="midnightblue" d="M266.33,-462.5C286.82,-462.5 311.47,-462.5 334.13,-462.5"/>
<polygon fill="midnightblue" stroke="midnightblue" points="334.38,-466 344.38,-462.5 334.38,-459 334.38,-466"/>
</g>
<!-- Node14 -->
<g id="node12" class="node">
<title>Node14</title>
<g id="a_node12"><a xlink:href="a00464.html#gaeb25fdecced4c325cd0d986a30d57e90" target="_top" xlink:title="Initializes the LCD interface driver.">
<polygon fill="white" stroke="black" points="525,-548 525,-567 652,-567 652,-548 525,-548"/>
<text text-anchor="middle" x="588.5" y="-555" font-family="Helvetica,sans-Serif" font-size="10.00">drv_LcdInterface_Initialize</text>
</a>
</g>
</g>
<!-- Node13&#45;&gt;Node14 -->
<g id="edge14" class="edge">
<title>Node13&#45;&gt;Node14</title>
<path fill="none" stroke="midnightblue" d="M449.74,-531.15C473.28,-535.66 502.38,-541.22 527.75,-546.07"/>
<polygon fill="midnightblue" stroke="midnightblue" points="527.16,-549.52 537.64,-547.96 528.47,-542.65 527.16,-549.52"/>
</g>
<!-- Node15 -->
<g id="node13" class="node">
<title>Node15</title>
<g id="a_node13"><a xlink:href="a00464.html#ga3f10606b6c67ff33338ab2c5c6a2d4c8" target="_top" xlink:title="Resets the LCD controller.">
<polygon fill="white" stroke="black" points="530,-510 530,-529 647,-529 647,-510 530,-510"/>
<text text-anchor="middle" x="588.5" y="-517" font-family="Helvetica,sans-Serif" font-size="10.00">drv_LcdInterface_Reset</text>
</a>
</g>
</g>
<!-- Node13&#45;&gt;Node15 -->
<g id="edge15" class="edge">
<title>Node13&#45;&gt;Node15</title>
<path fill="none" stroke="midnightblue" d="M449.74,-521.76C470.85,-521.41 496.42,-520.99 519.78,-520.61"/>
<polygon fill="midnightblue" stroke="midnightblue" points="520.04,-524.11 529.98,-520.44 519.92,-517.11 520.04,-524.11"/>
</g>
<!-- Node16 -->
<g id="node14" class="node">
<title>Node16</title>
<g id="a_node14"><a xlink:href="a00464.html#ga3e045335a3463f6a53e4fd91b50bb0ca" target="_top" xlink:title="Sends a command to the LCD controller.">
<polygon fill="white" stroke="black" points="1070.5,-491 1070.5,-510 1204.5,-510 1204.5,-491 1070.5,-491"/>
<text text-anchor="middle" x="1137.5" y="-498" font-family="Helvetica,sans-Serif" font-size="10.00">drv_LcdInterface_SendCmd</text>
</a>
</g>
</g>
<!-- Node13&#45;&gt;Node16 -->
<g id="edge16" class="edge">
<title>Node13&#45;&gt;Node16</title>
<path fill="none" stroke="midnightblue" d="M449.66,-528.48C461.94,-531.3 474.91,-535.44 486,-541.5 505.58,-552.2 501.32,-568.11 522,-576.5 732.94,-662.14 1015.42,-554.07 1106.71,-514.18"/>
<polygon fill="midnightblue" stroke="midnightblue" points="1108.19,-517.36 1115.92,-510.11 1105.36,-510.96 1108.19,-517.36"/>
</g>
<!-- Node17 -->
<g id="node15" class="node">
<title>Node17</title>
<g id="a_node15"><a xlink:href="a00466.html#ga50b8734fca19fc75dd778a9902c63082" target="_top" xlink:title="Sends data through the SPI interface to the LCD controller.">
<polygon fill="white" stroke="black" points="1249,-491 1249,-510 1377,-510 1377,-491 1249,-491"/>
<text text-anchor="middle" x="1313" y="-498" font-family="Helvetica,sans-Serif" font-size="10.00">drv_LcdInterface_SpiSend</text>
</a>
</g>
</g>
<!-- Node16&#45;&gt;Node17 -->
<g id="edge17" class="edge">
<title>Node16&#45;&gt;Node17</title>
<path fill="none" stroke="midnightblue" d="M1204.59,-500.5C1215.73,-500.5 1227.36,-500.5 1238.68,-500.5"/>
<polygon fill="midnightblue" stroke="midnightblue" points="1238.96,-504 1248.96,-500.5 1238.96,-497 1238.96,-504"/>
</g>
<!-- Node19 -->
<g id="node17" class="node">
<title>Node19</title>
<g id="a_node17"><a xlink:href="a00459.html#ga5c431635cb94750b2f6e938d7f1f0cf1" target="_top" xlink:title="Sets the cursor position to the given x&#45; and y&#45;coordinates.">
<polygon fill="white" stroke="black" points="902,-453 902,-472 992,-472 992,-453 902,-453"/>
<text text-anchor="middle" x="947" y="-460" font-family="Helvetica,sans-Serif" font-size="10.00">dev_Lcd_GotoXY</text>
</a>
</g>
</g>
<!-- Node18&#45;&gt;Node19 -->
<g id="edge19" class="edge">
<title>Node18&#45;&gt;Node19</title>
<path fill="none" stroke="midnightblue" d="M462.71,-462.5C568.08,-462.5 789.01,-462.5 891.56,-462.5"/>
<polygon fill="midnightblue" stroke="midnightblue" points="891.69,-466 901.69,-462.5 891.69,-459 891.69,-466"/>
</g>
<!-- Node20 -->
<g id="node18" class="node">
<title>Node20</title>
<g id="a_node18"><a xlink:href="a00459.html#gac07de05132918ca2db8cf4492819eca6" target="_top" xlink:title="Writes a complete string on the LCD screen.">
<polygon fill="white" stroke="black" points="535.5,-472 535.5,-491 641.5,-491 641.5,-472 535.5,-472"/>
<text text-anchor="middle" x="588.5" y="-479" font-family="Helvetica,sans-Serif" font-size="10.00">dev_Lcd_WriteString</text>
</a>
</g>
</g>
<!-- Node18&#45;&gt;Node20 -->
<g id="edge21" class="edge">
<title>Node18&#45;&gt;Node20</title>
<path fill="none" stroke="midnightblue" d="M462.65,-468.54C482.62,-470.61 505.04,-472.94 525.31,-475.04"/>
<polygon fill="midnightblue" stroke="midnightblue" points="525.07,-478.54 535.38,-476.09 525.8,-471.57 525.07,-478.54"/>
</g>
<!-- Node19&#45;&gt;Node16 -->
<g id="edge20" class="edge">
<title>Node19&#45;&gt;Node16</title>
<path fill="none" stroke="midnightblue" d="M992.19,-471.41C1018.17,-476.65 1051.29,-483.32 1079.24,-488.96"/>
<polygon fill="midnightblue" stroke="midnightblue" points="1078.79,-492.44 1089.29,-490.98 1080.18,-485.58 1078.79,-492.44"/>
</g>
<!-- Node21 -->
<g id="node19" class="node">
<title>Node21</title>
<g id="a_node19"><a xlink:href="a00459.html#ga3cb1303cba012af043a87af0bcab16d8" target="_top" xlink:title="Writes a character on the LCD screen.">
<polygon fill="white" stroke="black" points="711,-472 711,-491 812,-491 812,-472 711,-472"/>
<text text-anchor="middle" x="761.5" y="-479" font-family="Helvetica,sans-Serif" font-size="10.00">dev_Lcd_WriteChar</text>
</a>
</g>
</g>
<!-- Node20&#45;&gt;Node21 -->
<g id="edge22" class="edge">
<title>Node20&#45;&gt;Node21</title>
<path fill="none" stroke="midnightblue" d="M641.73,-481.5C660.38,-481.5 681.53,-481.5 700.77,-481.5"/>
<polygon fill="midnightblue" stroke="midnightblue" points="700.92,-485 710.92,-481.5 700.92,-478 700.92,-485"/>
</g>
<!-- Node21&#45;&gt;Node19 -->
<g id="edge25" class="edge">
<title>Node21&#45;&gt;Node19</title>
<path fill="none" stroke="midnightblue" d="M812.16,-476.36C836.79,-473.81 866.58,-470.72 891.8,-468.11"/>
<polygon fill="midnightblue" stroke="midnightblue" points="892.35,-471.57 901.94,-467.06 891.63,-464.61 892.35,-471.57"/>
</g>
<!-- Node22 -->
<g id="node20" class="node">
<title>Node22</title>
<g id="a_node20"><a xlink:href="a00459.html#ga0bff8adf9ea1196bdd69b3e47b2b77cd" target="_top" xlink:title="Clears the LC Display Screen.">
<polygon fill="white" stroke="black" points="907,-491 907,-510 987,-510 987,-491 907,-491"/>
<text text-anchor="middle" x="947" y="-498" font-family="Helvetica,sans-Serif" font-size="10.00">dev_Lcd_Clear</text>
</a>
</g>
</g>
<!-- Node21&#45;&gt;Node22 -->
<g id="edge23" class="edge">
<title>Node21&#45;&gt;Node22</title>
<path fill="none" stroke="midnightblue" d="M812.16,-486.64C838.39,-489.36 870.49,-492.68 896.68,-495.39"/>
<polygon fill="midnightblue" stroke="midnightblue" points="896.46,-498.89 906.77,-496.44 897.18,-491.93 896.46,-498.89"/>
</g>
<!-- Node22&#45;&gt;Node16 -->
<g id="edge24" class="edge">
<title>Node22&#45;&gt;Node16</title>
<path fill="none" stroke="midnightblue" d="M987.06,-500.5C1008.19,-500.5 1035.05,-500.5 1060.14,-500.5"/>
<polygon fill="midnightblue" stroke="midnightblue" points="1060.4,-504 1070.4,-500.5 1060.4,-497 1060.4,-504"/>
</g>
<!-- Node25 -->
<g id="node23" class="node">
<title>Node25</title>
<g id="a_node23"><a xlink:href="a00477.html#ga0b4cabdb02c8c9ea94ea1dfa39de3764" target="_top" xlink:title="This function initializes the control system feedback loop objects.">
<polygon fill="white" stroke="black" points="335.5,-213.5 335.5,-243.5 471.5,-243.5 471.5,-213.5 335.5,-213.5"/>
<text text-anchor="start" x="343.5" y="-231.5" font-family="Helvetica,sans-Serif" font-size="10.00">appPowerSupply_Controller</text>
<text text-anchor="middle" x="403.5" y="-220.5" font-family="Helvetica,sans-Serif" font-size="10.00">Initialize</text>
</a>
</g>
</g>
<!-- Node24&#45;&gt;Node25 -->
<g id="edge28" class="edge">
<title>Node24&#45;&gt;Node25</title>
<path fill="none" stroke="midnightblue" d="M285.25,-244C298.17,-242.3 311.87,-240.48 325.18,-238.72"/>
<polygon fill="midnightblue" stroke="midnightblue" points="325.81,-242.17 335.27,-237.39 324.9,-235.23 325.81,-242.17"/>
</g>
<!-- Node30 -->
<g id="node28" class="node">
<title>Node30</title>
<g id="a_node28"><a xlink:href="a00477.html#gad0f6ff4894bf23722884c60bbcdcacd0" target="_top" xlink:title="This function initializes the boost converter device driver instance.">
<polygon fill="white" stroke="black" points="336,-164.5 336,-194.5 471,-194.5 471,-164.5 336,-164.5"/>
<text text-anchor="start" x="344" y="-182.5" font-family="Helvetica,sans-Serif" font-size="10.00">appPowerSupply_Converter</text>
<text text-anchor="middle" x="403.5" y="-171.5" font-family="Helvetica,sans-Serif" font-size="10.00">ObjectInitialize</text>
</a>
</g>
</g>
<!-- Node24&#45;&gt;Node30 -->
<g id="edge34" class="edge">
<title>Node24&#45;&gt;Node30</title>
<path fill="none" stroke="midnightblue" d="M239.07,-242.81C258.82,-232.46 291.58,-216 321,-204.5 326.88,-202.2 333.06,-199.98 339.29,-197.86"/>
<polygon fill="midnightblue" stroke="midnightblue" points="340.66,-201.09 349.06,-194.64 338.46,-194.45 340.66,-201.09"/>
</g>
<!-- Node31 -->
<g id="node29" class="node">
<title>Node31</title>
<g id="a_node29"><a xlink:href="a00477.html#ga0b26acfec74d1804384b4ba1a3cffab4" target="_top" xlink:title="This function is used to load peripheral configuration templates from the power controller device dri...">
<polygon fill="white" stroke="black" points="332,-322.5 332,-352.5 475,-352.5 475,-322.5 332,-322.5"/>
<text text-anchor="start" x="340" y="-340.5" font-family="Helvetica,sans-Serif" font-size="10.00">appPowerSupply_Peripherals</text>
<text text-anchor="middle" x="403.5" y="-329.5" font-family="Helvetica,sans-Serif" font-size="10.00">Initialize</text>
</a>
</g>
</g>
<!-- Node24&#45;&gt;Node31 -->
<g id="edge35" class="edge">
<title>Node24&#45;&gt;Node31</title>
<path fill="none" stroke="midnightblue" d="M262.66,-262.08C270.32,-264.61 278.08,-267.72 285,-271.5 303.53,-281.62 303.09,-291.32 321,-302.5 330.4,-308.37 340.96,-313.71 351.27,-318.34"/>
<polygon fill="midnightblue" stroke="midnightblue" points="350.08,-321.64 360.64,-322.4 352.86,-315.22 350.08,-321.64"/>
</g>
<!-- Node44 -->
<g id="node42" class="node">
<title>Node44</title>
<g id="a_node42"><a xlink:href="a00481.html#gaa47cd700d524e5c52eeadd4ecd2ed5ee" target="_top" xlink:title="This function starts the boost converter.">
<polygon fill="white" stroke="black" points="353.5,-262.5 353.5,-292.5 453.5,-292.5 453.5,-262.5 353.5,-262.5"/>
<text text-anchor="start" x="361.5" y="-280.5" font-family="Helvetica,sans-Serif" font-size="10.00">drv_BoostConverter</text>
<text text-anchor="middle" x="403.5" y="-269.5" font-family="Helvetica,sans-Serif" font-size="10.00">_Start</text>
</a>
</g>
</g>
<!-- Node24&#45;&gt;Node44 -->
<g id="edge50" class="edge">
<title>Node24&#45;&gt;Node44</title>
<path fill="none" stroke="midnightblue" d="M285.25,-261.35C304.17,-263.96 324.79,-266.8 343.38,-269.36"/>
<polygon fill="midnightblue" stroke="midnightblue" points="343.09,-272.85 353.48,-270.75 344.05,-265.92 343.09,-272.85"/>
</g>
<!-- Node26 -->
<g id="node24" class="node">
<title>Node26</title>
<g id="a_node24"><a xlink:href="a00516.html#ga62d45a18f3dd47fa691fbb463f90e051" target="_top" xlink:title="Initializes controller coefficient arrays and normalization factors.">
<polygon fill="white" stroke="black" points="546.5,-143 546.5,-162 630.5,-162 630.5,-143 546.5,-143"/>
<text text-anchor="middle" x="588.5" y="-150" font-family="Helvetica,sans-Serif" font-size="10.00">v_loop_Initialize</text>
</a>
</g>
</g>
<!-- Node25&#45;&gt;Node26 -->
<g id="edge29" class="edge">
<title>Node25&#45;&gt;Node26</title>
<path fill="none" stroke="midnightblue" d="M466.7,-213.45C473.4,-210.88 479.96,-207.91 486,-204.5 504.9,-193.83 503.08,-182.14 522,-171.5 526.71,-168.85 531.82,-166.55 537.04,-164.54"/>
<polygon fill="midnightblue" stroke="midnightblue" points="538.2,-167.84 546.49,-161.25 535.9,-161.23 538.2,-167.84"/>
</g>
<!-- Node27 -->
<g id="node25" class="node">
<title>Node27</title>
<g id="a_node25"><a xlink:href="a00516.html#gabb35e824b8586b680f54d59975ada3c7" target="_top" xlink:title="Prototype of the Assembly routine &#39;_v_loop_Reset&#39; clearing the NPNZ16b controller output and error hi...">
<polygon fill="white" stroke="black" points="724.5,-124 724.5,-143 798.5,-143 798.5,-124 724.5,-124"/>
<text text-anchor="middle" x="761.5" y="-131" font-family="Helvetica,sans-Serif" font-size="10.00">v_loop_Reset</text>
</a>
</g>
</g>
<!-- Node25&#45;&gt;Node27 -->
<g id="edge32" class="edge">
<title>Node25&#45;&gt;Node27</title>
<path fill="none" stroke="midnightblue" d="M471.77,-213.73C476.87,-211.13 481.69,-208.08 486,-204.5 513.2,-181.87 491.85,-152.02 522,-133.5 582.57,-96.3 669.16,-108.99 719.63,-121.39"/>
<polygon fill="midnightblue" stroke="midnightblue" points="718.97,-124.83 729.53,-123.93 720.71,-118.05 718.97,-124.83"/>
</g>
<!-- Node28 -->
<g id="node26" class="node">
<title>Node28</title>
<g id="a_node26"><a xlink:href="a00516.html#ga3cdf7d86ab440015768706f04bd588e9" target="_top" xlink:title="Prototype of the Assembly routine &#39;_v_loop_Precharge&#39; loading user&#45;defined values into the NPNZ16b co...">
<polygon fill="white" stroke="black" points="542,-219 542,-238 635,-238 635,-219 542,-219"/>
<text text-anchor="middle" x="588.5" y="-226" font-family="Helvetica,sans-Serif" font-size="10.00">v_loop_Precharge</text>
</a>
</g>
</g>
<!-- Node25&#45;&gt;Node28 -->
<g id="edge31" class="edge">
<title>Node25&#45;&gt;Node28</title>
<path fill="none" stroke="midnightblue" d="M471.6,-228.5C491.31,-228.5 512.65,-228.5 531.58,-228.5"/>
<polygon fill="midnightblue" stroke="midnightblue" points="531.83,-232 541.83,-228.5 531.83,-225 531.83,-232"/>
</g>
<!-- Node29 -->
<g id="node27" class="node">
<title>Node29</title>
<g id="a_node27"><a xlink:href="a00516.html#gab8180f1cb973d694be5caffaec3ce940" target="_top" xlink:title="Prototype of the Assembly feedback control loop routine helping to call the v_loop controller from C&#45;...">
<polygon fill="white" stroke="black" points="548.5,-181 548.5,-200 628.5,-200 628.5,-181 548.5,-181"/>
<text text-anchor="middle" x="588.5" y="-188" font-family="Helvetica,sans-Serif" font-size="10.00">v_loop_Update</text>
</a>
</g>
</g>
<!-- Node25&#45;&gt;Node29 -->
<g id="edge33" class="edge">
<title>Node25&#45;&gt;Node29</title>
<path fill="none" stroke="midnightblue" d="M471.6,-214.57C493.68,-209.98 517.8,-204.97 538.3,-200.72"/>
<polygon fill="midnightblue" stroke="midnightblue" points="539.27,-204.09 548.35,-198.63 537.84,-197.24 539.27,-204.09"/>
</g>
<!-- Node26&#45;&gt;Node27 -->
<g id="edge30" class="edge">
<title>Node26&#45;&gt;Node27</title>
<path fill="none" stroke="midnightblue" d="M630.89,-147.9C656.11,-145.1 688.38,-141.51 714.41,-138.62"/>
<polygon fill="midnightblue" stroke="midnightblue" points="714.86,-142.09 724.41,-137.51 714.09,-135.14 714.86,-142.09"/>
</g>
<!-- Node32 -->
<g id="node30" class="node">
<title>Node32</title>
<g id="a_node30"><a xlink:href="a00481.html#gafe5ee9f0daeb397241fe4c9d799ac5f3" target="_top" xlink:title="This function initializes all peripheral modules and their instances used by the power controller.">
<polygon fill="white" stroke="black" points="538.5,-333.5 538.5,-363.5 638.5,-363.5 638.5,-333.5 538.5,-333.5"/>
<text text-anchor="start" x="546.5" y="-351.5" font-family="Helvetica,sans-Serif" font-size="10.00">drv_BoostConverter</text>
<text text-anchor="middle" x="588.5" y="-340.5" font-family="Helvetica,sans-Serif" font-size="10.00">_Initialize</text>
</a>
</g>
</g>
<!-- Node31&#45;&gt;Node32 -->
<g id="edge36" class="edge">
<title>Node31&#45;&gt;Node32</title>
<path fill="none" stroke="midnightblue" d="M475.25,-341.75C492.74,-342.8 511.3,-343.92 528.19,-344.93"/>
<polygon fill="midnightblue" stroke="midnightblue" points="528.27,-348.45 538.46,-345.55 528.69,-341.46 528.27,-348.45"/>
</g>
<!-- Node33 -->
<g id="node31" class="node">
<title>Node33</title>
<g id="a_node31"><a xlink:href="a00504.html#ga85ae5f6b841cc22a5cb39e750abb67a3" target="_top" xlink:title="This function initializes the settings for the ADC channel.">
<polygon fill="white" stroke="black" points="693,-358 693,-377 830,-377 830,-358 693,-358"/>
<text text-anchor="middle" x="761.5" y="-365" font-family="Helvetica,sans-Serif" font-size="10.00">boostADC_ChannelInitialize</text>
</a>
</g>
</g>
<!-- Node32&#45;&gt;Node33 -->
<g id="edge37" class="edge">
<title>Node32&#45;&gt;Node33</title>
<path fill="none" stroke="midnightblue" d="M638.5,-353.94C652.21,-355.47 667.47,-357.16 682.42,-358.82"/>
<polygon fill="midnightblue" stroke="midnightblue" points="682.37,-362.34 692.69,-359.97 683.14,-355.38 682.37,-362.34"/>
</g>
<!-- Node34 -->
<g id="node32" class="node">
<title>Node34</title>
<g id="a_node32"><a xlink:href="a00504.html#ga751421523389bc4548a4920ac1c85937" target="_top" xlink:title="This fucntion initializes the boost by resetting all its registers to default.">
<polygon fill="white" stroke="black" points="695,-320 695,-339 828,-339 828,-320 695,-320"/>
<text text-anchor="middle" x="761.5" y="-327" font-family="Helvetica,sans-Serif" font-size="10.00">boostADC_ModuleInitialize</text>
</a>
</g>
</g>
<!-- Node32&#45;&gt;Node34 -->
<g id="edge38" class="edge">
<title>Node32&#45;&gt;Node34</title>
<path fill="none" stroke="midnightblue" d="M638.5,-343.06C652.91,-341.45 669.03,-339.66 684.7,-337.92"/>
<polygon fill="midnightblue" stroke="midnightblue" points="685.36,-341.37 694.91,-336.79 684.59,-334.41 685.36,-341.37"/>
</g>
<!-- Node35 -->
<g id="node33" class="node">
<title>Node35</title>
<g id="a_node33"><a xlink:href="a00504.html#ga204b527b94398e138949cd166bcc24dc" target="_top" xlink:title="This function initializes the boost input pins.">
<polygon fill="white" stroke="black" points="709,-282 709,-301 814,-301 814,-282 709,-282"/>
<text text-anchor="middle" x="761.5" y="-289" font-family="Helvetica,sans-Serif" font-size="10.00">boostGPIO_Initialize</text>
</a>
</g>
</g>
<!-- Node32&#45;&gt;Node35 -->
<g id="edge39" class="edge">
<title>Node32&#45;&gt;Node35</title>
<path fill="none" stroke="midnightblue" d="M627.29,-333.41C646.26,-326.08 669.69,-317.38 691,-310.5 698.2,-308.17 705.88,-305.89 713.41,-303.75"/>
<polygon fill="midnightblue" stroke="midnightblue" points="714.47,-307.09 723.16,-301.03 712.59,-300.34 714.47,-307.09"/>
</g>
<!-- Node38 -->
<g id="node37" class="node">
<title>Node38</title>
<g id="a_node37"><a xlink:href="a00504.html#ga76d61bc918bb955a0d2019a9469b2e25" target="_top" xlink:title="This function initializes the output pins for the PWM output and the default boost PWM settings.">
<polygon fill="white" stroke="black" points="691,-238 691,-257 832,-257 832,-238 691,-238"/>
<text text-anchor="middle" x="761.5" y="-245" font-family="Helvetica,sans-Serif" font-size="10.00">boostPWM_ChannelInitialize</text>
</a>
</g>
</g>
<!-- Node32&#45;&gt;Node38 -->
<g id="edge44" class="edge">
<title>Node32&#45;&gt;Node38</title>
<path fill="none" stroke="midnightblue" d="M630.39,-333.43C638.97,-329.29 647.64,-324.31 655,-318.5 675.38,-302.42 669.96,-287.71 691,-272.5 697.43,-267.85 704.81,-263.99 712.31,-260.81"/>
<polygon fill="midnightblue" stroke="midnightblue" points="713.74,-264 721.81,-257.13 711.22,-257.47 713.74,-264"/>
</g>
<!-- Node41 -->
<g id="node40" class="node">
<title>Node41</title>
<g id="a_node40"><a xlink:href="a00504.html#ga6b5da6f69a70380e159502fbd7199a10" target="_top" xlink:title="Initializes the boost PWM module by resetting its registers to default.">
<polygon fill="white" stroke="red" points="693,-396 693,-415 830,-415 830,-396 693,-396"/>
<text text-anchor="middle" x="761.5" y="-403" font-family="Helvetica,sans-Serif" font-size="10.00">boostPWM_ModuleInitialize</text>
</a>
</g>
</g>
<!-- Node32&#45;&gt;Node41 -->
<g id="edge48" class="edge">
<title>Node32&#45;&gt;Node41</title>
<path fill="none" stroke="midnightblue" d="M627.29,-363.59C646.26,-370.92 669.69,-379.62 691,-386.5 698.2,-388.83 705.88,-391.11 713.41,-393.25"/>
<polygon fill="midnightblue" stroke="midnightblue" points="712.59,-396.66 723.16,-395.97 714.47,-389.91 712.59,-396.66"/>
</g>
<!-- Node36 -->
<g id="node34" class="node">
<title>Node36</title>
<g id="a_node34"><a xlink:href="a00504.html#ga0e291d0cb856167fd188be50090ef5ce" target="_top" xlink:title="This function clears the selected general purpose input/output pin.">
<polygon fill="white" stroke="black" points="901,-304 901,-323 993,-323 993,-304 901,-304"/>
<text text-anchor="middle" x="947" y="-311" font-family="Helvetica,sans-Serif" font-size="10.00">boostGPIO_Clear</text>
</a>
</g>
</g>
<!-- Node35&#45;&gt;Node36 -->
<g id="edge40" class="edge">
<title>Node35&#45;&gt;Node36</title>
<path fill="none" stroke="midnightblue" d="M814.1,-297.69C837.94,-300.54 866.28,-303.94 890.57,-306.85"/>
<polygon fill="midnightblue" stroke="midnightblue" points="890.37,-310.35 900.71,-308.07 891.2,-303.4 890.37,-310.35"/>
</g>
<!-- Node37 -->
<g id="node36" class="node">
<title>Node37</title>
<g id="a_node36"><a xlink:href="a00504.html#ga2968a8235de619bada4a5aa5f3073019" target="_top" xlink:title="This function sets the pin as input or output.">
<polygon fill="white" stroke="black" points="880,-342 880,-361 1014,-361 1014,-342 880,-342"/>
<text text-anchor="middle" x="947" y="-349" font-family="Helvetica,sans-Serif" font-size="10.00">boostGPIO_PrivateInitialize</text>
</a>
</g>
</g>
<!-- Node35&#45;&gt;Node37 -->
<g id="edge42" class="edge">
<title>Node35&#45;&gt;Node37</title>
<path fill="none" stroke="midnightblue" d="M805.05,-301.09C814.11,-303.69 823.5,-306.83 832,-310.5 849.21,-317.93 850.68,-325.31 868,-332.5 873.91,-334.96 880.21,-337.14 886.58,-339.08"/>
<polygon fill="midnightblue" stroke="midnightblue" points="886,-342.55 896.58,-341.91 887.91,-335.82 886,-342.55"/>
</g>
<!-- Node8 -->
<g id="node35" class="node">
<title>Node8</title>
<g id="a_node35"><a xlink:href="a00362.html#ga4d67af688d8f7f911d79107974e11e6b" target="_top" xlink:title="Gets pointer to GPIO Instance SFR set.">
<polygon fill="white" stroke="black" points="1062,-304 1062,-323 1213,-323 1213,-304 1062,-304"/>
<text text-anchor="middle" x="1137.5" y="-311" font-family="Helvetica,sans-Serif" font-size="10.00">p33c_GpioInstance_GetHandle</text>
</a>
</g>
</g>
<!-- Node36&#45;&gt;Node8 -->
<g id="edge41" class="edge">
<title>Node36&#45;&gt;Node8</title>
<path fill="none" stroke="midnightblue" d="M993.15,-313.5C1010.76,-313.5 1031.54,-313.5 1051.74,-313.5"/>
<polygon fill="midnightblue" stroke="midnightblue" points="1051.91,-317 1061.91,-313.5 1051.91,-310 1051.91,-317"/>
</g>
<!-- Node37&#45;&gt;Node8 -->
<g id="edge43" class="edge">
<title>Node37&#45;&gt;Node8</title>
<path fill="none" stroke="midnightblue" d="M995.57,-341.91C1021,-336.78 1052.5,-330.43 1079.27,-325.04"/>
<polygon fill="midnightblue" stroke="midnightblue" points="1080.16,-328.43 1089.28,-323.02 1078.78,-321.57 1080.16,-328.43"/>
</g>
<!-- Node38&#45;&gt;Node8 -->
<g id="edge45" class="edge">
<title>Node38&#45;&gt;Node8</title>
<path fill="none" stroke="midnightblue" d="M819.75,-237.99C873.97,-231.09 957.11,-226 1026,-245.5 1061.62,-255.58 1097.05,-280.75 1117.85,-297.47"/>
<polygon fill="midnightblue" stroke="midnightblue" points="1115.64,-300.18 1125.58,-303.84 1120.09,-294.78 1115.64,-300.18"/>
</g>
<!-- Node39 -->
<g id="node38" class="node">
<title>Node39</title>
<g id="a_node38"><a xlink:href="a00366.html#gab66f225bac6b132d1418a4c808e3babb" target="_top" xlink:title="Disposes a given PWM generator by resetting all its registers to default.">
<polygon fill="white" stroke="black" points="877,-254.5 877,-284.5 1017,-284.5 1017,-254.5 877,-254.5"/>
<text text-anchor="start" x="885" y="-272.5" font-family="Helvetica,sans-Serif" font-size="10.00">p33c_PwmGenerator_Config</text>
<text text-anchor="middle" x="947" y="-261.5" font-family="Helvetica,sans-Serif" font-size="10.00">Write</text>
</a>
</g>
</g>
<!-- Node38&#45;&gt;Node39 -->
<g id="edge46" class="edge">
<title>Node38&#45;&gt;Node39</title>
<path fill="none" stroke="midnightblue" d="M832.14,-255.85C843.43,-257.2 855.19,-258.61 866.7,-259.99"/>
<polygon fill="midnightblue" stroke="midnightblue" points="866.37,-263.48 876.72,-261.19 867.2,-256.53 866.37,-263.48"/>
</g>
<!-- Node40 -->
<g id="node39" class="node">
<title>Node40</title>
<g id="a_node39"><a xlink:href="a00366.html#ga55e525c7ac54a365ab6dad558ec17f0b" target="_top" xlink:title="Returns the PWM generator index.">
<polygon fill="white" stroke="black" points="868,-178 868,-197 1026,-197 1026,-178 868,-178"/>
<text text-anchor="middle" x="947" y="-185" font-family="Helvetica,sans-Serif" font-size="10.00">p33c_PwmGenerator_GetHandle</text>
</a>
</g>
</g>
<!-- Node38&#45;&gt;Node40 -->
<g id="edge47" class="edge">
<title>Node38&#45;&gt;Node40</title>
<path fill="none" stroke="midnightblue" d="M789.75,-237.95C811.01,-230.56 841.31,-220.16 868,-211.5 879.79,-207.67 892.64,-203.66 904.43,-200.03"/>
<polygon fill="midnightblue" stroke="midnightblue" points="905.51,-203.36 914.05,-197.09 903.47,-196.67 905.51,-203.36"/>
</g>
<!-- Node42 -->
<g id="node41" class="node">
<title>Node42</title>
<g id="a_node41"><a xlink:href="a00366.html#ga8075fd40f867be8f42bb806622bd91bd" target="_top" xlink:title="Writes a user&#45;defined configuration to the PWM base module registers.">
<polygon fill="white" stroke="black" points="871,-396 871,-415 1023,-415 1023,-396 871,-396"/>
<text text-anchor="middle" x="947" y="-403" font-family="Helvetica,sans-Serif" font-size="10.00">p33c_PwmModule_ConfigWrite</text>
</a>
</g>
</g>
<!-- Node41&#45;&gt;Node42 -->
<g id="edge49" class="edge">
<title>Node41&#45;&gt;Node42</title>
<path fill="none" stroke="midnightblue" d="M830.05,-405.5C840.01,-405.5 850.38,-405.5 860.65,-405.5"/>
<polygon fill="midnightblue" stroke="midnightblue" points="860.86,-409 870.86,-405.5 860.86,-402 860.86,-409"/>
</g>
<!-- Node45 -->
<g id="node43" class="node">
<title>Node45</title>
<g id="a_node43"><a xlink:href="a00504.html#ga904680160cbf8b8fe4d41f87b1a69e44" target="_top" xlink:title="This function enables the ADC module and starts the ADC cores analog inputs for the required input si...">
<polygon fill="white" stroke="black" points="545,-257 545,-276 632,-276 632,-257 545,-257"/>
<text text-anchor="middle" x="588.5" y="-264" font-family="Helvetica,sans-Serif" font-size="10.00">boostADC_Start</text>
</a>
</g>
</g>
<!-- Node44&#45;&gt;Node45 -->
<g id="edge51" class="edge">
<title>Node44&#45;&gt;Node45</title>
<path fill="none" stroke="midnightblue" d="M453.54,-274.55C478.57,-273.05 509.05,-271.22 534.61,-269.68"/>
<polygon fill="midnightblue" stroke="midnightblue" points="535.09,-273.16 544.86,-269.06 534.67,-266.17 535.09,-273.16"/>
</g>
<!-- Node46 -->
<g id="node44" class="node">
<title>Node46</title>
<g id="a_node44"><a xlink:href="a00504.html#ga538ef6022b1b46d667919a42ce88076b" target="_top" xlink:title="This function enables the boost PWM operation.">
<polygon fill="white" stroke="black" points="715.5,-188 715.5,-207 807.5,-207 807.5,-188 715.5,-188"/>
<text text-anchor="middle" x="761.5" y="-195" font-family="Helvetica,sans-Serif" font-size="10.00">boostPWM_Start</text>
</a>
</g>
</g>
<!-- Node44&#45;&gt;Node46 -->
<g id="edge52" class="edge">
<title>Node44&#45;&gt;Node46</title>
<path fill="none" stroke="midnightblue" d="M451.68,-292.57C504.67,-306.57 591.55,-320.47 655,-285.5 681.24,-271.04 668.35,-248.11 691,-228.5 699.25,-221.36 709.41,-215.6 719.39,-211.07"/>
<polygon fill="midnightblue" stroke="midnightblue" points="720.98,-214.2 728.84,-207.1 718.26,-207.75 720.98,-214.2"/>
</g>
<!-- Node46&#45;&gt;Node40 -->
<g id="edge53" class="edge">
<title>Node46&#45;&gt;Node40</title>
<path fill="none" stroke="midnightblue" d="M807.86,-195.03C823.03,-194.2 840.5,-193.25 857.8,-192.31"/>
<polygon fill="midnightblue" stroke="midnightblue" points="858.15,-195.79 867.94,-191.75 857.77,-188.8 858.15,-195.79"/>
</g>
<!-- Node48 -->
<g id="node46" class="node">
<title>Node48</title>
<g id="a_node46"><a xlink:href="a00526.html#ga3966fddf4ec29e64c6d51a93eee8706f" target="_top" xlink:title="Push button event raised at the &quot;pressed&quot; transition.">
<polygon fill="white" stroke="black" points="321,-50 321,-69 486,-69 486,-50 321,-50"/>
<text text-anchor="middle" x="403.5" y="-57" font-family="Helvetica,sans-Serif" font-size="10.00">appPushButton_EventButtonDown</text>
</a>
</g>
</g>
<!-- Node47&#45;&gt;Node48 -->
<g id="edge55" class="edge">
<title>Node47&#45;&gt;Node48</title>
<path fill="none" stroke="midnightblue" d="M257.65,-106.97C266.71,-104.25 276.31,-101.04 285,-97.5 301.75,-90.67 304.05,-84.83 321,-78.5 327.83,-75.95 335.12,-73.67 342.41,-71.65"/>
<polygon fill="midnightblue" stroke="midnightblue" points="343.54,-74.97 352.33,-69.06 341.77,-68.2 343.54,-74.97"/>
</g>
<!-- Node49 -->
<g id="node47" class="node">
<title>Node49</title>
<g id="a_node47"><a xlink:href="a00526.html#ga6192986e06dbca144461c0315a2a100f" target="_top" xlink:title="Push button event raised at the &quot;is long pressed&quot; detection.">
<polygon fill="white" stroke="black" points="333,-0.5 333,-30.5 474,-30.5 474,-0.5 333,-0.5"/>
<text text-anchor="start" x="341" y="-18.5" font-family="Helvetica,sans-Serif" font-size="10.00">appPushButton_EventButton</text>
<text text-anchor="middle" x="403.5" y="-7.5" font-family="Helvetica,sans-Serif" font-size="10.00">LongPress</text>
</a>
</g>
</g>
<!-- Node47&#45;&gt;Node49 -->
<g id="edge56" class="edge">
<title>Node47&#45;&gt;Node49</title>
<path fill="none" stroke="midnightblue" d="M268.01,-106.87C274.06,-104.42 279.92,-101.35 285,-97.5 308.89,-79.41 297.19,-58.69 321,-40.5 323.45,-38.63 326.04,-36.9 328.73,-35.29"/>
<polygon fill="midnightblue" stroke="midnightblue" points="330.42,-38.36 337.63,-30.6 327.15,-32.17 330.42,-38.36"/>
</g>
<!-- Node50 -->
<g id="node48" class="node">
<title>Node50</title>
<g id="a_node48"><a xlink:href="a00526.html#ga13f736396ad1222ff5cbe35947bd60ac" target="_top" xlink:title="Push button event raised at the &quot;not pressed&quot; transition.">
<polygon fill="white" stroke="black" points="327,-126 327,-145 480,-145 480,-126 327,-126"/>
<text text-anchor="middle" x="403.5" y="-133" font-family="Helvetica,sans-Serif" font-size="10.00">appPushButton_EventButtonUp</text>
</a>
</g>
</g>
<!-- Node47&#45;&gt;Node50 -->
<g id="edge57" class="edge">
<title>Node47&#45;&gt;Node50</title>
<path fill="none" stroke="midnightblue" d="M282.19,-122.91C293.26,-124.06 304.98,-125.29 316.6,-126.51"/>
<polygon fill="midnightblue" stroke="midnightblue" points="316.45,-130.01 326.76,-127.57 317.18,-123.05 316.45,-130.01"/>
</g>
<!-- Node51 -->
<g id="node49" class="node">
<title>Node51</title>
<g id="a_node49"><a xlink:href="a00529.html#gaa3ce9c320a37ebc6e1ae113c82e68747" target="_top" xlink:title="Initializes the push button device driver.">
<polygon fill="white" stroke="black" points="341,-88 341,-107 466,-107 466,-88 341,-88"/>
<text text-anchor="middle" x="403.5" y="-95" font-family="Helvetica,sans-Serif" font-size="10.00">drv_PushButton_Initialize</text>
</a>
</g>
</g>
<!-- Node47&#45;&gt;Node51 -->
<g id="edge58" class="edge">
<title>Node47&#45;&gt;Node51</title>
<path fill="none" stroke="midnightblue" d="M282.19,-110.09C297.73,-108.47 314.56,-106.71 330.57,-105.03"/>
<polygon fill="midnightblue" stroke="midnightblue" points="331.37,-108.47 340.95,-103.94 330.64,-101.5 331.37,-108.47"/>
</g>
</g>
</svg>
