<?xml version="1.0" encoding="UTF-8" standalone="no"?>
<!DOCTYPE svg PUBLIC "-//W3C//DTD SVG 1.1//EN"
 "http://www.w3.org/Graphics/SVG/1.1/DTD/svg11.dtd">
<!-- Generated by graphviz version 2.40.1 (0)
 -->
<!-- Title: Boost Converter Library API Pages: 1 -->
<svg width="640pt" height="101pt"
 viewBox="0.00 0.00 640.00 101.00" xmlns="http://www.w3.org/2000/svg" xmlns:xlink="http://www.w3.org/1999/xlink">
<g id="graph0" class="graph" transform="scale(1 1) rotate(0) translate(4 97)">
<title>Boost Converter Library API</title>
<polygon fill="#ffffff" stroke="transparent" points="-4,4 -4,-97 636,-97 636,4 -4,4"/>
<!-- Node0 -->
<g id="node1" class="node">
<title>Node0</title>
<g id="a_node1"><a xlink:title=" ">
<polygon fill="#bfbfbf" stroke="#000000" points="444,-56 225,-56 225,-37 444,-37 444,-56"/>
<text text-anchor="middle" x="334.5" y="-44" font-family="Helvetica,sans-Serif" font-size="10.00" fill="#000000">Boost Converter Library API</text>
</a>
</g>
</g>
<!-- Node4 -->
<g id="node2" class="node">
<title>Node4</title>
<g id="a_node2"><a xlink:href="a00594.html" target="_top" xlink:title="Private properties of the second library layer.">
<polygon fill="#ffffff" stroke="#000000" points="632,-93 480,-93 480,-74 632,-74 632,-93"/>
<text text-anchor="middle" x="556" y="-81" font-family="Helvetica,sans-Serif" font-size="10.00" fill="#000000">Private Properties</text>
</a>
</g>
</g>
<!-- Node0&#45;&gt;Node4 -->
<g id="edge4" class="edge">
<title>Node0&#45;&gt;Node4</title>
<path fill="none" stroke="#000000" d="M401.4167,-57.678C432.4728,-62.8657 469.0123,-68.9693 498.767,-73.9396"/>
<polygon fill="#000000" stroke="#000000" points="401.9818,-54.2239 391.5418,-56.0284 400.8284,-61.1283 401.9818,-54.2239"/>
</g>
<!-- Node2 -->
<g id="node3" class="node">
<title>Node2</title>
<g id="a_node3"><a xlink:href="a00589.html" target="_top" xlink:title="Public functions of the second library layer.">
<polygon fill="#ffffff" stroke="#000000" points="624.5,-56 487.5,-56 487.5,-37 624.5,-37 624.5,-56"/>
<text text-anchor="middle" x="556" y="-44" font-family="Helvetica,sans-Serif" font-size="10.00" fill="#000000">Public Functions</text>
</a>
</g>
</g>
<!-- Node0&#45;&gt;Node2 -->
<g id="edge2" class="edge">
<title>Node0&#45;&gt;Node2</title>
<path fill="none" stroke="#000000" d="M454.5931,-46.5C465.8017,-46.5 476.8818,-46.5 487.3697,-46.5"/>
<polygon fill="#000000" stroke="#000000" points="454.2767,-43.0001 444.2766,-46.5 454.2766,-50.0001 454.2767,-43.0001"/>
</g>
<!-- Node3 -->
<g id="node5" class="node">
<title>Node3</title>
<g id="a_node5"><a xlink:href="a00590.html" target="_top" xlink:title="Public properties of the second library layer.">
<polygon fill="#ffffff" stroke="#000000" points="628,-19 484,-19 484,0 628,0 628,-19"/>
<text text-anchor="middle" x="556" y="-7" font-family="Helvetica,sans-Serif" font-size="10.00" fill="#000000">Public Properties</text>
</a>
</g>
</g>
<!-- Node0&#45;&gt;Node3 -->
<g id="edge3" class="edge">
<title>Node0&#45;&gt;Node3</title>
<path fill="none" stroke="#000000" d="M401.4167,-35.322C432.4728,-30.1343 469.0123,-24.0307 498.767,-19.0604"/>
<polygon fill="#000000" stroke="#000000" points="400.8284,-31.8717 391.5418,-36.9716 401.9818,-38.7761 400.8284,-31.8717"/>
</g>
<!-- Node1 -->
<g id="node4" class="node">
<title>Node1</title>
<g id="a_node4"><a xlink:href="a00587.html" target="_top" xlink:title=" ">
<polygon fill="#ffffff" stroke="#000000" points="189,-56 0,-56 0,-37 189,-37 189,-56"/>
<text text-anchor="middle" x="94.5" y="-44" font-family="Helvetica,sans-Serif" font-size="10.00" fill="#000000">Boost Converter Library</text>
</a>
</g>
</g>
<!-- Node1&#45;&gt;Node0 -->
<g id="edge1" class="edge">
<title>Node1&#45;&gt;Node0</title>
<path fill="none" stroke="#000000" d="M199.0419,-46.5C207.6391,-46.5 216.344,-46.5 224.976,-46.5"/>
<polygon fill="#000000" stroke="#000000" points="199.0099,-43.0001 189.0098,-46.5 199.0098,-50.0001 199.0099,-43.0001"/>
</g>
</g>
</svg>
