<?xml version="1.0" encoding="UTF-8" standalone="no"?>
<!DOCTYPE svg PUBLIC "-//W3C//DTD SVG 1.1//EN"
 "http://www.w3.org/Graphics/SVG/1.1/DTD/svg11.dtd">
<!-- Generated by graphviz version 2.40.1 (0)
 -->
<!-- Title: Conversion Macros Pages: 1 -->
<svg width="460pt" height="27pt"
 viewBox="0.00 0.00 460.00 27.00" xmlns="http://www.w3.org/2000/svg" xmlns:xlink="http://www.w3.org/1999/xlink">
<g id="graph0" class="graph" transform="scale(1 1) rotate(0) translate(4 23)">
<title>Conversion Macros</title>
<polygon fill="#ffffff" stroke="transparent" points="-4,4 -4,-23 456,-23 456,4 -4,4"/>
<!-- Node0 -->
<g id="node1" class="node">
<title>Node0</title>
<g id="a_node1"><a xlink:title="Conversion macros converting physical quantities of parameters into binary (integer) numbers for regi...">
<polygon fill="#bfbfbf" stroke="#000000" points="287,-19 143,-19 143,0 287,0 287,-19"/>
<text text-anchor="middle" x="215" y="-7" font-family="Helvetica,sans-Serif" font-size="10.00" fill="#000000">Conversion Macros</text>
</a>
</g>
</g>
<!-- Node2 -->
<g id="node2" class="node">
<title>Node2</title>
<g id="a_node2"><a xlink:href="a00505.html" target="_top" xlink:title="Conversion macros converting physical quantities of PWM parameters of the boost converter.">
<polygon fill="#ffffff" stroke="#000000" points="452,-19 323,-19 323,0 452,0 452,-19"/>
<text text-anchor="middle" x="387.5" y="-7" font-family="Helvetica,sans-Serif" font-size="10.00" fill="#000000">Boost Converter</text>
</a>
</g>
</g>
<!-- Node0&#45;&gt;Node2 -->
<g id="edge2" class="edge">
<title>Node0&#45;&gt;Node2</title>
<path fill="none" stroke="#000000" d="M297.1926,-9.5C305.7807,-9.5 314.4226,-9.5 322.7766,-9.5"/>
<polygon fill="#000000" stroke="#000000" points="297.1561,-6.0001 287.156,-9.5 297.156,-13.0001 297.1561,-6.0001"/>
</g>
<!-- Node1 -->
<g id="node3" class="node">
<title>Node1</title>
<g id="a_node3"><a xlink:href="a00501.html" target="_top" xlink:title="Declaration of fundamental PWM parameters.">
<polygon fill="#ffffff" stroke="#000000" points="107,-19 0,-19 0,0 107,0 107,-19"/>
<text text-anchor="middle" x="53.5" y="-7" font-family="Helvetica,sans-Serif" font-size="10.00" fill="#000000">PWM Settings</text>
</a>
</g>
</g>
<!-- Node1&#45;&gt;Node0 -->
<g id="edge1" class="edge">
<title>Node1&#45;&gt;Node0</title>
<path fill="none" stroke="#000000" d="M117.3209,-9.5C125.6789,-9.5 134.2902,-9.5 142.7746,-9.5"/>
<polygon fill="#000000" stroke="#000000" points="117.2772,-6.0001 107.2772,-9.5 117.2771,-13.0001 117.2772,-6.0001"/>
</g>
</g>
</svg>
