<?xml version="1.0" encoding="UTF-8" standalone="no"?>
<!DOCTYPE svg PUBLIC "-//W3C//DTD SVG 1.1//EN"
 "http://www.w3.org/Graphics/SVG/1.1/DTD/svg11.dtd">
<!-- Generated by graphviz version 2.40.1 (0)
 -->
<!-- Title: User Settings Pages: 1 -->
<svg width="430pt" height="27pt"
 viewBox="0.00 0.00 430.00 27.00" xmlns="http://www.w3.org/2000/svg" xmlns:xlink="http://www.w3.org/1999/xlink">
<g id="graph0" class="graph" transform="scale(1 1) rotate(0) translate(4 23)">
<title>User Settings</title>
<polygon fill="#ffffff" stroke="transparent" points="-4,4 -4,-23 426,-23 426,4 -4,4"/>
<!-- Node2 -->
<g id="node1" class="node">
<title>Node2</title>
<g id="a_node1"><a xlink:href="a00503.html" target="_top" xlink:title="PWM parameter definitions of the boost converter using physical quantities.">
<polygon fill="#ffffff" stroke="#000000" points="422,-19 293,-19 293,0 422,0 422,-19"/>
<text text-anchor="middle" x="357.5" y="-7" font-family="Helvetica,sans-Serif" font-size="10.00" fill="#000000">Boost Converter</text>
</a>
</g>
</g>
<!-- Node0 -->
<g id="node2" class="node">
<title>Node0</title>
<g id="a_node2"><a xlink:title="Parameter definitions using physical quantities.">
<polygon fill="#bfbfbf" stroke="#000000" points="257,-19 143,-19 143,0 257,0 257,-19"/>
<text text-anchor="middle" x="200" y="-7" font-family="Helvetica,sans-Serif" font-size="10.00" fill="#000000">User Settings</text>
</a>
</g>
</g>
<!-- Node0&#45;&gt;Node2 -->
<g id="edge2" class="edge">
<title>Node0&#45;&gt;Node2</title>
<path fill="none" stroke="#000000" d="M267.4383,-9.5C275.8373,-9.5 284.4117,-9.5 292.7684,-9.5"/>
<polygon fill="#000000" stroke="#000000" points="267.3067,-6.0001 257.3067,-9.5 267.3066,-13.0001 267.3067,-6.0001"/>
</g>
<!-- Node1 -->
<g id="node3" class="node">
<title>Node1</title>
<g id="a_node3"><a xlink:href="a00501.html" target="_top" xlink:title="Declaration of fundamental PWM parameters.">
<polygon fill="#ffffff" stroke="#000000" points="107,-19 0,-19 0,0 107,0 107,-19"/>
<text text-anchor="middle" x="53.5" y="-7" font-family="Helvetica,sans-Serif" font-size="10.00" fill="#000000">PWM Settings</text>
</a>
</g>
</g>
<!-- Node1&#45;&gt;Node0 -->
<g id="edge1" class="edge">
<title>Node1&#45;&gt;Node0</title>
<path fill="none" stroke="#000000" d="M117.4209,-9.5C125.8783,-9.5 134.5043,-9.5 142.8381,-9.5"/>
<polygon fill="#000000" stroke="#000000" points="117.2194,-6.0001 107.2193,-9.5 117.2193,-13.0001 117.2194,-6.0001"/>
</g>
</g>
</svg>
