<?xml version="1.0" encoding="UTF-8" standalone="no"?>
<!DOCTYPE svg PUBLIC "-//W3C//DTD SVG 1.1//EN"
 "http://www.w3.org/Graphics/SVG/1.1/DTD/svg11.dtd">
<!-- Generated by graphviz version 2.40.1 (0)
 -->
<!-- Title: Private Properties Pages: 1 -->
<svg width="558pt" height="101pt"
 viewBox="0.00 0.00 558.00 101.00" xmlns="http://www.w3.org/2000/svg" xmlns:xlink="http://www.w3.org/1999/xlink">
<g id="graph0" class="graph" transform="scale(1 1) rotate(0) translate(4 97)">
<title>Private Properties</title>
<polygon fill="#ffffff" stroke="transparent" points="-4,4 -4,-97 554,-97 554,4 -4,4"/>
<!-- Node2 -->
<g id="node1" class="node">
<title>Node2</title>
<g id="a_node1"><a xlink:href="a00558.html" target="_top" xlink:title=" ">
<polygon fill="#ffffff" stroke="#000000" points="516,-93 432,-93 432,-74 516,-74 516,-93"/>
<text text-anchor="middle" x="474" y="-81" font-family="Helvetica,sans-Serif" font-size="10.00" fill="#000000">Variables</text>
</a>
</g>
</g>
<!-- Node1 -->
<g id="node2" class="node">
<title>Node1</title>
<g id="a_node2"><a xlink:href="a00550.html" target="_top" xlink:title=" ">
<polygon fill="#ffffff" stroke="#000000" points="174,-56 0,-56 0,-37 174,-37 174,-56"/>
<text text-anchor="middle" x="87" y="-44" font-family="Helvetica,sans-Serif" font-size="10.00" fill="#000000">Fault Handler Library</text>
</a>
</g>
</g>
<!-- Node0 -->
<g id="node5" class="node">
<title>Node0</title>
<g id="a_node5"><a xlink:title="Public properties of the fault handler library layer.">
<polygon fill="#bfbfbf" stroke="#000000" points="362,-56 210,-56 210,-37 362,-37 362,-56"/>
<text text-anchor="middle" x="286" y="-44" font-family="Helvetica,sans-Serif" font-size="10.00" fill="#000000">Private Properties</text>
</a>
</g>
</g>
<!-- Node1&#45;&gt;Node0 -->
<g id="edge1" class="edge">
<title>Node1&#45;&gt;Node0</title>
<path fill="none" stroke="#000000" d="M184.5597,-46.5C193.0047,-46.5 201.4684,-46.5 209.7072,-46.5"/>
<polygon fill="#000000" stroke="#000000" points="184.2843,-43.0001 174.2843,-46.5 184.2843,-50.0001 184.2843,-43.0001"/>
</g>
<!-- Node3 -->
<g id="node3" class="node">
<title>Node3</title>
<g id="a_node3"><a xlink:href="a00559.html" target="_top" xlink:title=" ">
<polygon fill="#ffffff" stroke="#000000" points="520,-56 428,-56 428,-37 520,-37 520,-56"/>
<text text-anchor="middle" x="474" y="-44" font-family="Helvetica,sans-Serif" font-size="10.00" fill="#000000">Data Types</text>
</a>
</g>
</g>
<!-- Node4 -->
<g id="node4" class="node">
<title>Node4</title>
<g id="a_node4"><a xlink:href="a00560.html" target="_top" xlink:title=" ">
<polygon fill="#ffffff" stroke="#000000" points="550,-19 398,-19 398,0 550,0 550,-19"/>
<text text-anchor="middle" x="474" y="-7" font-family="Helvetica,sans-Serif" font-size="10.00" fill="#000000">Defines and Macros</text>
</a>
</g>
</g>
<!-- Node0&#45;&gt;Node2 -->
<g id="edge2" class="edge">
<title>Node0&#45;&gt;Node2</title>
<path fill="none" stroke="#000000" d="M344.5759,-58.0282C372.8338,-63.5896 406.0946,-70.1356 431.8219,-75.199"/>
<polygon fill="#000000" stroke="#000000" points="344.9023,-54.5254 334.4147,-56.0284 343.5506,-61.3937 344.9023,-54.5254"/>
</g>
<!-- Node0&#45;&gt;Node3 -->
<g id="edge3" class="edge">
<title>Node0&#45;&gt;Node3</title>
<path fill="none" stroke="#000000" d="M372.1965,-46.5C391.43,-46.5 411.1023,-46.5 427.9626,-46.5"/>
<polygon fill="#000000" stroke="#000000" points="372.1958,-43.0001 362.1958,-46.5 372.1957,-50.0001 372.1958,-43.0001"/>
</g>
<!-- Node0&#45;&gt;Node4 -->
<g id="edge4" class="edge">
<title>Node0&#45;&gt;Node4</title>
<path fill="none" stroke="#000000" d="M344.5142,-34.9839C370.4951,-29.8706 400.7151,-23.9231 425.423,-19.0604"/>
<polygon fill="#000000" stroke="#000000" points="343.5506,-31.6063 334.4147,-36.9716 344.9023,-38.4746 343.5506,-31.6063"/>
</g>
</g>
</svg>
