<?xml version="1.0" encoding="UTF-8" standalone="no"?>
<!DOCTYPE svg PUBLIC "-//W3C//DTD SVG 1.1//EN"
 "http://www.w3.org/Graphics/SVG/1.1/DTD/svg11.dtd">
<!-- Generated by graphviz version 2.40.1 (0)
 -->
<!-- Title: Digital Signal Processor Configuration Pages: 1 -->
<svg width="423pt" height="38pt"
 viewBox="0.00 0.00 423.00 38.00" xmlns="http://www.w3.org/2000/svg" xmlns:xlink="http://www.w3.org/1999/xlink">
<g id="graph0" class="graph" transform="scale(1 1) rotate(0) translate(4 34)">
<title>Digital Signal Processor Configuration</title>
<polygon fill="#ffffff" stroke="transparent" points="-4,4 -4,-34 419,-34 419,4 -4,4"/>
<!-- Node1 -->
<g id="node1" class="node">
<title>Node1</title>
<g id="a_node1"><a xlink:href="a00646.html" target="_top" xlink:title=" ">
<polygon fill="#ffffff" stroke="#000000" points="182,-30 0,-30 0,0 182,0 182,-30"/>
<text text-anchor="start" x="8" y="-18" font-family="Helvetica,sans-Serif" font-size="10.00" fill="#000000">Initializing Essential</text>
<text text-anchor="middle" x="91" y="-7" font-family="Helvetica,sans-Serif" font-size="10.00" fill="#000000"> Chip Resources</text>
</a>
</g>
</g>
<!-- Node0 -->
<g id="node2" class="node">
<title>Node0</title>
<g id="a_node2"><a xlink:title=" ">
<polygon fill="#bfbfbf" stroke="#000000" points="415,-30 218,-30 218,0 415,0 415,-30"/>
<text text-anchor="start" x="226" y="-18" font-family="Helvetica,sans-Serif" font-size="10.00" fill="#000000">Digital Signal Processor</text>
<text text-anchor="middle" x="316.5" y="-7" font-family="Helvetica,sans-Serif" font-size="10.00" fill="#000000"> Configuration</text>
</a>
</g>
</g>
<!-- Node1&#45;&gt;Node0 -->
<g id="edge1" class="edge">
<title>Node1&#45;&gt;Node0</title>
<path fill="none" stroke="#000000" d="M192.3143,-15C200.7589,-15 209.29,-15 217.7154,-15"/>
<polygon fill="#000000" stroke="#000000" points="192.0695,-11.5001 182.0695,-15 192.0695,-18.5001 192.0695,-11.5001"/>
</g>
</g>
</svg>
