<?xml version="1.0" encoding="UTF-8" standalone="no"?>
<!DOCTYPE svg PUBLIC "-//W3C//DTD SVG 1.1//EN"
 "http://www.w3.org/Graphics/SVG/1.1/DTD/svg11.dtd">
<!-- Generated by graphviz version 2.40.1 (0)
 -->
<!-- Title: Device Driver Library Layer Pages: 1 -->
<svg width="407pt" height="138pt"
 viewBox="0.00 0.00 407.00 138.00" xmlns="http://www.w3.org/2000/svg" xmlns:xlink="http://www.w3.org/1999/xlink">
<g id="graph0" class="graph" transform="scale(1 1) rotate(0) translate(4 134)">
<title>Device Driver Library Layer</title>
<polygon fill="#ffffff" stroke="transparent" points="-4,4 -4,-134 403,-134 403,4 -4,4"/>
<!-- Node1 -->
<g id="node1" class="node">
<title>Node1</title>
<g id="a_node1"><a xlink:href="a00550.html" target="_top" xlink:title=" ">
<polygon fill="#ffffff" stroke="#000000" points="391.5,-130 217.5,-130 217.5,-111 391.5,-111 391.5,-130"/>
<text text-anchor="middle" x="304.5" y="-118" font-family="Helvetica,sans-Serif" font-size="10.00" fill="#000000">Fault Handler Library</text>
</a>
</g>
</g>
<!-- Node2 -->
<g id="node2" class="node">
<title>Node2</title>
<g id="a_node2"><a xlink:href="a00566.html" target="_top" xlink:title=" ">
<polygon fill="#ffffff" stroke="#000000" points="380.5,-93 228.5,-93 228.5,-74 380.5,-74 380.5,-93"/>
<text text-anchor="middle" x="304.5" y="-81" font-family="Helvetica,sans-Serif" font-size="10.00" fill="#000000">LC&#45;Display Library</text>
</a>
</g>
</g>
<!-- Node4 -->
<g id="node3" class="node">
<title>Node4</title>
<g id="a_node3"><a xlink:href="a00636.html" target="_top" xlink:title=" ">
<polygon fill="#ffffff" stroke="#000000" points="384,-56 225,-56 225,-37 384,-37 384,-56"/>
<text text-anchor="middle" x="304.5" y="-44" font-family="Helvetica,sans-Serif" font-size="10.00" fill="#000000">Push&#45;Button Library</text>
</a>
</g>
</g>
<!-- Node3 -->
<g id="node4" class="node">
<title>Node3</title>
<g id="a_node4"><a xlink:href="a00587.html" target="_top" xlink:title=" ">
<polygon fill="#ffffff" stroke="#000000" points="399,-19 210,-19 210,0 399,0 399,-19"/>
<text text-anchor="middle" x="304.5" y="-7" font-family="Helvetica,sans-Serif" font-size="10.00" fill="#000000">Boost Converter Library</text>
</a>
</g>
</g>
<!-- Node0 -->
<g id="node5" class="node">
<title>Node0</title>
<g id="a_node5"><a xlink:title="Generic Device Driver Layer.">
<polygon fill="#bfbfbf" stroke="#000000" points="174,-79.5 0,-79.5 0,-49.5 174,-49.5 174,-79.5"/>
<text text-anchor="start" x="8" y="-67.5" font-family="Helvetica,sans-Serif" font-size="10.00" fill="#000000">Device Driver Library</text>
<text text-anchor="middle" x="87" y="-56.5" font-family="Helvetica,sans-Serif" font-size="10.00" fill="#000000"> Layer</text>
</a>
</g>
</g>
<!-- Node0&#45;&gt;Node1 -->
<g id="edge1" class="edge">
<title>Node0&#45;&gt;Node1</title>
<path fill="none" stroke="#000000" d="M140.9076,-82.5799C162.2716,-89.3697 187.1484,-96.8125 210,-102.5 222.4792,-105.6059 236.0008,-108.4719 248.8086,-110.9613"/>
<polygon fill="#000000" stroke="#000000" points="141.95,-79.2387 131.3588,-79.5149 139.8106,-85.9037 141.95,-79.2387"/>
</g>
<!-- Node0&#45;&gt;Node2 -->
<g id="edge2" class="edge">
<title>Node0&#45;&gt;Node2</title>
<path fill="none" stroke="#000000" d="M184.3896,-73.0076C199.1751,-74.2992 214.2438,-75.6155 228.4863,-76.8597"/>
<polygon fill="#000000" stroke="#000000" points="184.479,-69.5022 174.2123,-72.1185 183.8698,-76.4756 184.479,-69.5022"/>
</g>
<!-- Node0&#45;&gt;Node4 -->
<g id="edge4" class="edge">
<title>Node0&#45;&gt;Node4</title>
<path fill="none" stroke="#000000" d="M184.4401,-56.436C197.8924,-55.3227 211.5781,-54.1901 224.6617,-53.1073"/>
<polygon fill="#000000" stroke="#000000" points="183.8896,-52.9695 174.2123,-57.2824 184.467,-59.9456 183.8896,-52.9695"/>
</g>
<!-- Node0&#45;&gt;Node3 -->
<g id="edge3" class="edge">
<title>Node0&#45;&gt;Node3</title>
<path fill="none" stroke="#000000" d="M144.7501,-46.4809C165.2505,-40.3816 188.5564,-33.7833 210,-28.5 223.8114,-25.0971 238.8692,-21.8593 252.8232,-19.0521"/>
<polygon fill="#000000" stroke="#000000" points="143.5042,-43.2006 134.9321,-49.4271 145.5161,-49.9052 143.5042,-43.2006"/>
</g>
</g>
</svg>
