<?xml version="1.0" encoding="UTF-8" standalone="no"?>
<!DOCTYPE svg PUBLIC "-//W3C//DTD SVG 1.1//EN"
 "http://www.w3.org/Graphics/SVG/1.1/DTD/svg11.dtd">
<!-- Generated by graphviz version 2.40.1 (0)
 -->
<!-- Title: Properties Pages: 1 -->
<svg width="535pt" height="101pt"
 viewBox="0.00 0.00 535.00 101.00" xmlns="http://www.w3.org/2000/svg" xmlns:xlink="http://www.w3.org/1999/xlink">
<g id="graph0" class="graph" transform="scale(1 1) rotate(0) translate(4 97)">
<title>Properties</title>
<polygon fill="#ffffff" stroke="transparent" points="-4,4 -4,-97 531,-97 531,4 -4,4"/>
<!-- Node3 -->
<g id="node1" class="node">
<title>Node3</title>
<g id="a_node1"><a xlink:href="a00609.html" target="_top" xlink:title="List of data types of the Special Function state machine extensions.">
<polygon fill="#ffffff" stroke="#000000" points="486,-93 394,-93 394,-74 486,-74 486,-93"/>
<text text-anchor="middle" x="440" y="-81" font-family="Helvetica,sans-Serif" font-size="10.00" fill="#000000">Data Types</text>
</a>
</g>
</g>
<!-- Node2 -->
<g id="node2" class="node">
<title>Node2</title>
<g id="a_node2"><a xlink:href="a00608.html" target="_top" xlink:title="List of variables of the Special Function state machine extensions.">
<polygon fill="#ffffff" stroke="#000000" points="527,-56 353,-56 353,-37 527,-37 527,-56"/>
<text text-anchor="middle" x="440" y="-44" font-family="Helvetica,sans-Serif" font-size="10.00" fill="#000000">Variables &amp; Constants</text>
</a>
</g>
</g>
<!-- Node0 -->
<g id="node3" class="node">
<title>Node0</title>
<g id="a_node3"><a xlink:title="Public properties of the second library layer.">
<polygon fill="#bfbfbf" stroke="#000000" points="317,-56 225,-56 225,-37 317,-37 317,-56"/>
<text text-anchor="middle" x="271" y="-44" font-family="Helvetica,sans-Serif" font-size="10.00" fill="#000000">Properties</text>
</a>
</g>
</g>
<!-- Node0&#45;&gt;Node3 -->
<g id="edge3" class="edge">
<title>Node0&#45;&gt;Node3</title>
<path fill="none" stroke="#000000" d="M321.265,-58.3449C331.7423,-60.7582 342.7237,-63.2467 353,-65.5 366.2582,-68.4071 380.6816,-71.4425 393.9026,-74.1746"/>
<polygon fill="#000000" stroke="#000000" points="321.9455,-54.9099 311.4138,-56.0643 320.3667,-61.7296 321.9455,-54.9099"/>
</g>
<!-- Node0&#45;&gt;Node2 -->
<g id="edge2" class="edge">
<title>Node0&#45;&gt;Node2</title>
<path fill="none" stroke="#000000" d="M327.3732,-46.5C335.6123,-46.5 344.254,-46.5 352.9319,-46.5"/>
<polygon fill="#000000" stroke="#000000" points="327.18,-43.0001 317.18,-46.5 327.18,-50.0001 327.18,-43.0001"/>
</g>
<!-- Node4 -->
<g id="node5" class="node">
<title>Node4</title>
<g id="a_node5"><a xlink:href="a00610.html" target="_top" xlink:title="List of defines and macros of the Special Function state machine extensions.">
<polygon fill="#ffffff" stroke="#000000" points="516,-19 364,-19 364,0 516,0 516,-19"/>
<text text-anchor="middle" x="440" y="-7" font-family="Helvetica,sans-Serif" font-size="10.00" fill="#000000">Defines and Macros</text>
</a>
</g>
</g>
<!-- Node0&#45;&gt;Node4 -->
<g id="edge4" class="edge">
<title>Node0&#45;&gt;Node4</title>
<path fill="none" stroke="#000000" d="M321.265,-34.6551C331.7423,-32.2418 342.7237,-29.7533 353,-27.5 365.9569,-24.659 380.0266,-21.6954 392.9993,-19.0122"/>
<polygon fill="#000000" stroke="#000000" points="320.3667,-31.2704 311.4138,-36.9357 321.9455,-38.0901 320.3667,-31.2704"/>
</g>
<!-- Node1 -->
<g id="node4" class="node">
<title>Node1</title>
<g id="a_node4"><a xlink:href="a00605.html" target="_top" xlink:title=" ">
<polygon fill="#ffffff" stroke="#000000" points="189,-56 0,-56 0,-37 189,-37 189,-56"/>
<text text-anchor="middle" x="94.5" y="-44" font-family="Helvetica,sans-Serif" font-size="10.00" fill="#000000">Boost Special Functions</text>
</a>
</g>
</g>
<!-- Node1&#45;&gt;Node0 -->
<g id="edge1" class="edge">
<title>Node1&#45;&gt;Node0</title>
<path fill="none" stroke="#000000" d="M199.3463,-46.5C208.2555,-46.5 216.9305,-46.5 224.9904,-46.5"/>
<polygon fill="#000000" stroke="#000000" points="199.2085,-43.0001 189.2085,-46.5 199.2085,-50.0001 199.2085,-43.0001"/>
</g>
</g>
</svg>
