<?xml version="1.0" encoding="UTF-8" standalone="no"?>
<!DOCTYPE svg PUBLIC "-//W3C//DTD SVG 1.1//EN"
 "http://www.w3.org/Graphics/SVG/1.1/DTD/svg11.dtd">
<!-- Generated by graphviz version 2.40.1 (0)
 -->
<!-- Title: Power Converter Control Driver Pages: 1 -->
<svg width="528pt" height="101pt"
 viewBox="0.00 0.00 528.00 101.00" xmlns="http://www.w3.org/2000/svg" xmlns:xlink="http://www.w3.org/1999/xlink">
<g id="graph0" class="graph" transform="scale(1 1) rotate(0) translate(4 97)">
<title>Power Converter Control Driver</title>
<polygon fill="#ffffff" stroke="transparent" points="-4,4 -4,-97 524,-97 524,4 -4,4"/>
<!-- Node2 -->
<g id="node1" class="node">
<title>Node2</title>
<g id="a_node1"><a xlink:href="a00624.html" target="_top" xlink:title="Public functions of the Power Converter Control driver.">
<polygon fill="#ffffff" stroke="#000000" points="516,-93 432,-93 432,-74 516,-74 516,-93"/>
<text text-anchor="middle" x="474" y="-81" font-family="Helvetica,sans-Serif" font-size="10.00" fill="#000000">Functions</text>
</a>
</g>
</g>
<!-- Node0 -->
<g id="node2" class="node">
<title>Node0</title>
<g id="a_node2"><a xlink:title=" ">
<polygon fill="#bfbfbf" stroke="#000000" points="392,-61.5 203,-61.5 203,-31.5 392,-31.5 392,-61.5"/>
<text text-anchor="start" x="211" y="-49.5" font-family="Helvetica,sans-Serif" font-size="10.00" fill="#000000">Power Converter Control</text>
<text text-anchor="middle" x="297.5" y="-38.5" font-family="Helvetica,sans-Serif" font-size="10.00" fill="#000000"> Driver</text>
</a>
</g>
</g>
<!-- Node0&#45;&gt;Node2 -->
<g id="edge2" class="edge">
<title>Node0&#45;&gt;Node2</title>
<path fill="none" stroke="#000000" d="M379.0901,-63.6039C397.3707,-67.4361 416.0345,-71.3486 431.9201,-74.6787"/>
<polygon fill="#000000" stroke="#000000" points="379.7947,-60.1756 369.2893,-61.5493 378.3584,-67.0267 379.7947,-60.1756"/>
</g>
<!-- Node3 -->
<g id="node3" class="node">
<title>Node3</title>
<g id="a_node3"><a xlink:href="a00625.html" target="_top" xlink:title="Public Objects of the Power Converter Control driver.">
<polygon fill="#ffffff" stroke="#000000" points="508.5,-56 439.5,-56 439.5,-37 508.5,-37 508.5,-56"/>
<text text-anchor="middle" x="474" y="-44" font-family="Helvetica,sans-Serif" font-size="10.00" fill="#000000">Objects</text>
</a>
</g>
</g>
<!-- Node0&#45;&gt;Node3 -->
<g id="edge3" class="edge">
<title>Node0&#45;&gt;Node3</title>
<path fill="none" stroke="#000000" d="M402.4144,-46.5C415.6553,-46.5 428.3769,-46.5 439.3275,-46.5"/>
<polygon fill="#000000" stroke="#000000" points="402.2085,-43.0001 392.2085,-46.5 402.2085,-50.0001 402.2085,-43.0001"/>
</g>
<!-- Node4 -->
<g id="node5" class="node">
<title>Node4</title>
<g id="a_node5"><a xlink:href="a00626.html" target="_top" xlink:title="Public properties of the Power Converter Control driver.">
<polygon fill="#ffffff" stroke="#000000" points="520,-19 428,-19 428,0 520,0 520,-19"/>
<text text-anchor="middle" x="474" y="-7" font-family="Helvetica,sans-Serif" font-size="10.00" fill="#000000">Properties</text>
</a>
</g>
</g>
<!-- Node0&#45;&gt;Node4 -->
<g id="edge4" class="edge">
<title>Node0&#45;&gt;Node4</title>
<path fill="none" stroke="#000000" d="M379.2296,-29.3669C396.2082,-25.8076 413.5105,-22.1805 428.6042,-19.0164"/>
<polygon fill="#000000" stroke="#000000" points="378.3584,-25.9733 369.2893,-31.4507 379.7947,-32.8244 378.3584,-25.9733"/>
</g>
<!-- Node1 -->
<g id="node4" class="node">
<title>Node1</title>
<g id="a_node4"><a xlink:href="a00661.html" target="_top" xlink:title="Generic Library Driver Layer.">
<polygon fill="#ffffff" stroke="#000000" points="167,-56 0,-56 0,-37 167,-37 167,-56"/>
<text text-anchor="middle" x="83.5" y="-44" font-family="Helvetica,sans-Serif" font-size="10.00" fill="#000000">Library Driver Layer</text>
</a>
</g>
</g>
<!-- Node1&#45;&gt;Node0 -->
<g id="edge1" class="edge">
<title>Node1&#45;&gt;Node0</title>
<path fill="none" stroke="#000000" d="M177.4073,-46.5C185.8673,-46.5 194.4381,-46.5 202.904,-46.5"/>
<polygon fill="#000000" stroke="#000000" points="177.1575,-43.0001 167.1574,-46.5 177.1574,-50.0001 177.1575,-43.0001"/>
</g>
</g>
</svg>
