<?xml version="1.0" encoding="UTF-8" standalone="no"?>
<!DOCTYPE svg PUBLIC "-//W3C//DTD SVG 1.1//EN"
 "http://www.w3.org/Graphics/SVG/1.1/DTD/svg11.dtd">
<!-- Generated by graphviz version 2.40.1 (0)
 -->
<!-- Title: Boost Peripheral Configuration Pages: 1 -->
<svg width="603pt" height="64pt"
 viewBox="0.00 0.00 603.00 64.00" xmlns="http://www.w3.org/2000/svg" xmlns:xlink="http://www.w3.org/1999/xlink">
<g id="graph0" class="graph" transform="scale(1 1) rotate(0) translate(4 60)">
<title>Boost Peripheral Configuration</title>
<polygon fill="#ffffff" stroke="transparent" points="-4,4 -4,-60 599,-60 599,4 -4,4"/>
<!-- Node2 -->
<g id="node1" class="node">
<title>Node2</title>
<g id="a_node1"><a xlink:href="a00612.html" target="_top" xlink:title="Functions of the second library layer.">
<polygon fill="#ffffff" stroke="#000000" points="591,-56 507,-56 507,-37 591,-37 591,-56"/>
<text text-anchor="middle" x="549" y="-44" font-family="Helvetica,sans-Serif" font-size="10.00" fill="#000000">Functions</text>
</a>
</g>
</g>
<!-- Node1 -->
<g id="node2" class="node">
<title>Node1</title>
<g id="a_node2"><a xlink:href="a00598.html" target="_top" xlink:title=" ">
<polygon fill="#ffffff" stroke="#000000" points="189,-42.5 0,-42.5 0,-12.5 189,-12.5 189,-42.5"/>
<text text-anchor="start" x="8" y="-30.5" font-family="Helvetica,sans-Serif" font-size="10.00" fill="#000000">Boost Converter Library</text>
<text text-anchor="middle" x="94.5" y="-19.5" font-family="Helvetica,sans-Serif" font-size="10.00" fill="#000000"> Modules</text>
</a>
</g>
</g>
<!-- Node0 -->
<g id="node4" class="node">
<title>Node0</title>
<g id="a_node4"><a xlink:title=" ">
<polygon fill="#bfbfbf" stroke="#000000" points="467,-37 225,-37 225,-18 467,-18 467,-37"/>
<text text-anchor="middle" x="346" y="-25" font-family="Helvetica,sans-Serif" font-size="10.00" fill="#000000">Boost Peripheral Configuration</text>
</a>
</g>
</g>
<!-- Node1&#45;&gt;Node0 -->
<g id="edge1" class="edge">
<title>Node1&#45;&gt;Node0</title>
<path fill="none" stroke="#000000" d="M199.3285,-27.5C207.673,-27.5 216.144,-27.5 224.5888,-27.5"/>
<polygon fill="#000000" stroke="#000000" points="199.223,-24.0001 189.223,-27.5 199.223,-31.0001 199.223,-24.0001"/>
</g>
<!-- Node3 -->
<g id="node3" class="node">
<title>Node3</title>
<g id="a_node3"><a xlink:href="a00613.html" target="_top" xlink:title="Properties of the second library layer.">
<polygon fill="#ffffff" stroke="#000000" points="595,-19 503,-19 503,0 595,0 595,-19"/>
<text text-anchor="middle" x="549" y="-7" font-family="Helvetica,sans-Serif" font-size="10.00" fill="#000000">Properties</text>
</a>
</g>
</g>
<!-- Node0&#45;&gt;Node2 -->
<g id="edge2" class="edge">
<title>Node0&#45;&gt;Node2</title>
<path fill="none" stroke="#000000" d="M458.0057,-37.9833C475.2892,-39.601 492.1619,-41.1802 506.5904,-42.5306"/>
<polygon fill="#000000" stroke="#000000" points="458.08,-34.475 447.7974,-37.0278 457.4277,-41.4446 458.08,-34.475"/>
</g>
<!-- Node0&#45;&gt;Node3 -->
<g id="edge3" class="edge">
<title>Node0&#45;&gt;Node3</title>
<path fill="none" stroke="#000000" d="M463.3816,-17.0918C477.3582,-15.8525 490.9228,-14.6497 502.9798,-13.5806"/>
<polygon fill="#000000" stroke="#000000" points="462.7991,-13.6296 453.1473,-17.9993 463.4174,-20.6023 462.7991,-13.6296"/>
</g>
</g>
</svg>
