<?xml version="1.0" encoding="UTF-8" standalone="no"?>
<!DOCTYPE svg PUBLIC "-//W3C//DTD SVG 1.1//EN"
 "http://www.w3.org/Graphics/SVG/1.1/DTD/svg11.dtd">
<!-- Generated by graphviz version 2.40.1 (0)
 -->
<!-- Title: Application Layer Pages: 1 -->
<svg width="392pt" height="230pt"
 viewBox="0.00 0.00 392.00 230.00" xmlns="http://www.w3.org/2000/svg" xmlns:xlink="http://www.w3.org/1999/xlink">
<g id="graph0" class="graph" transform="scale(1 1) rotate(0) translate(4 226)">
<title>Application Layer</title>
<polygon fill="#ffffff" stroke="transparent" points="-4,4 -4,-226 388,-226 388,4 -4,4"/>
<!-- Node4 -->
<g id="node1" class="node">
<title>Node4</title>
<g id="a_node1"><a xlink:href="a00581.html" target="_top" xlink:title=" ">
<polygon fill="#ffffff" stroke="#000000" points="384,-222 180,-222 180,-192 384,-192 384,-222"/>
<text text-anchor="start" x="188" y="-210" font-family="Helvetica,sans-Serif" font-size="10.00" fill="#000000">Power Control Application</text>
<text text-anchor="middle" x="282" y="-199" font-family="Helvetica,sans-Serif" font-size="10.00" fill="#000000"> Layer</text>
</a>
</g>
</g>
<!-- Node1 -->
<g id="node2" class="node">
<title>Node1</title>
<g id="a_node2"><a xlink:href="a00545.html" target="_top" xlink:title=" ">
<polygon fill="#ffffff" stroke="#000000" points="384,-174 180,-174 180,-144 384,-144 384,-174"/>
<text text-anchor="start" x="188" y="-162" font-family="Helvetica,sans-Serif" font-size="10.00" fill="#000000">Fault Monitor Application</text>
<text text-anchor="middle" x="282" y="-151" font-family="Helvetica,sans-Serif" font-size="10.00" fill="#000000"> Layer</text>
</a>
</g>
</g>
<!-- Node0 -->
<g id="node3" class="node">
<title>Node0</title>
<g id="a_node3"><a xlink:title="Task Layer.">
<polygon fill="#bfbfbf" stroke="#000000" points="144,-120.5 0,-120.5 0,-101.5 144,-101.5 144,-120.5"/>
<text text-anchor="middle" x="72" y="-108.5" font-family="Helvetica,sans-Serif" font-size="10.00" fill="#000000">Application Layer</text>
</a>
</g>
</g>
<!-- Node0&#45;&gt;Node4 -->
<g id="edge4" class="edge">
<title>Node0&#45;&gt;Node4</title>
<path fill="none" stroke="#000000" d="M91.4935,-127.1518C112.2121,-143.5307 146.5386,-168.4747 180,-183 187.8431,-186.4046 196.2444,-189.3681 204.7346,-191.9376"/>
<polygon fill="#000000" stroke="#000000" points="93.4748,-124.2537 83.4894,-120.712 89.0867,-129.7076 93.4748,-124.2537"/>
</g>
<!-- Node0&#45;&gt;Node1 -->
<g id="edge1" class="edge">
<title>Node0&#45;&gt;Node1</title>
<path fill="none" stroke="#000000" d="M123.7104,-122.8195C151.6742,-129.2113 186.4996,-137.1713 216.3595,-143.9965"/>
<polygon fill="#000000" stroke="#000000" points="124.2688,-119.357 113.7403,-120.5406 122.709,-126.181 124.2688,-119.357"/>
</g>
<!-- Node2 -->
<g id="node4" class="node">
<title>Node2</title>
<g id="a_node4"><a xlink:href="a00561.html" target="_top" xlink:title=" ">
<polygon fill="#ffffff" stroke="#000000" points="373,-126 191,-126 191,-96 373,-96 373,-126"/>
<text text-anchor="start" x="199" y="-114" font-family="Helvetica,sans-Serif" font-size="10.00" fill="#000000">LC&#45;Display Application</text>
<text text-anchor="middle" x="282" y="-103" font-family="Helvetica,sans-Serif" font-size="10.00" fill="#000000"> Layer</text>
</a>
</g>
</g>
<!-- Node0&#45;&gt;Node2 -->
<g id="edge2" class="edge">
<title>Node0&#45;&gt;Node2</title>
<path fill="none" stroke="#000000" d="M154.5661,-111C166.4178,-111 178.6695,-111 190.6783,-111"/>
<polygon fill="#000000" stroke="#000000" points="154.2701,-107.5001 144.2701,-111 154.2701,-114.5001 154.2701,-107.5001"/>
</g>
<!-- Node5 -->
<g id="node5" class="node">
<title>Node5</title>
<g id="a_node5"><a xlink:href="a00631.html" target="_top" xlink:title=" ">
<polygon fill="#ffffff" stroke="#000000" points="376.5,-78 187.5,-78 187.5,-48 376.5,-48 376.5,-78"/>
<text text-anchor="start" x="195.5" y="-66" font-family="Helvetica,sans-Serif" font-size="10.00" fill="#000000">Push&#45;Button Application</text>
<text text-anchor="middle" x="282" y="-55" font-family="Helvetica,sans-Serif" font-size="10.00" fill="#000000"> Layer</text>
</a>
</g>
</g>
<!-- Node0&#45;&gt;Node5 -->
<g id="edge5" class="edge">
<title>Node0&#45;&gt;Node5</title>
<path fill="none" stroke="#000000" d="M123.7104,-99.1805C151.6742,-92.7887 186.4996,-84.8287 216.3595,-78.0035"/>
<polygon fill="#000000" stroke="#000000" points="122.709,-95.819 113.7403,-101.4594 124.2688,-102.643 122.709,-95.819"/>
</g>
<!-- Node3 -->
<g id="node6" class="node">
<title>Node3</title>
<g id="a_node6"><a xlink:href="a00576.html" target="_top" xlink:title=" ">
<polygon fill="#ffffff" stroke="#000000" points="384,-30 180,-30 180,0 384,0 384,-30"/>
<text text-anchor="start" x="188" y="-18" font-family="Helvetica,sans-Serif" font-size="10.00" fill="#000000">Debugging LED Application</text>
<text text-anchor="middle" x="282" y="-7" font-family="Helvetica,sans-Serif" font-size="10.00" fill="#000000"> Layer</text>
</a>
</g>
</g>
<!-- Node0&#45;&gt;Node3 -->
<g id="edge3" class="edge">
<title>Node0&#45;&gt;Node3</title>
<path fill="none" stroke="#000000" d="M91.4935,-94.8482C112.2121,-78.4693 146.5386,-53.5253 180,-39 187.8431,-35.5954 196.2444,-32.6319 204.7346,-30.0624"/>
<polygon fill="#000000" stroke="#000000" points="89.0867,-92.2924 83.4894,-101.288 93.4748,-97.7463 89.0867,-92.2924"/>
</g>
</g>
</svg>
