<?xml version="1.0" encoding="UTF-8" standalone="no"?>
<!DOCTYPE svg PUBLIC "-//W3C//DTD SVG 1.1//EN"
 "http://www.w3.org/Graphics/SVG/1.1/DTD/svg11.dtd">
<!-- Generated by graphviz version 2.40.1 (0)
 -->
<!-- Title: Library Driver Layer Pages: 1 -->
<svg width="400pt" height="146pt"
 viewBox="0.00 0.00 400.00 145.50" xmlns="http://www.w3.org/2000/svg" xmlns:xlink="http://www.w3.org/1999/xlink">
<g id="graph0" class="graph" transform="scale(1 1) rotate(0) translate(4 141.5)">
<title>Library Driver Layer</title>
<polygon fill="#ffffff" stroke="transparent" points="-4,4 -4,-141.5 396,-141.5 396,4 -4,4"/>
<!-- Node3 -->
<g id="node1" class="node">
<title>Node3</title>
<g id="a_node1"><a xlink:href="a00623.html" target="_top" xlink:title=" ">
<polygon fill="#ffffff" stroke="#000000" points="392,-137.5 203,-137.5 203,-107.5 392,-107.5 392,-137.5"/>
<text text-anchor="start" x="211" y="-125.5" font-family="Helvetica,sans-Serif" font-size="10.00" fill="#000000">Power Converter Control</text>
<text text-anchor="middle" x="297.5" y="-114.5" font-family="Helvetica,sans-Serif" font-size="10.00" fill="#000000"> Driver</text>
</a>
</g>
</g>
<!-- Node2 -->
<g id="node2" class="node">
<title>Node2</title>
<g id="a_node2"><a xlink:href="a00571.html" target="_top" xlink:title=" ">
<polygon fill="#ffffff" stroke="#000000" points="381,-89.5 214,-89.5 214,-59.5 381,-59.5 381,-89.5"/>
<text text-anchor="start" x="222" y="-77.5" font-family="Helvetica,sans-Serif" font-size="10.00" fill="#000000">LC&#45;Display Interface</text>
<text text-anchor="middle" x="297.5" y="-66.5" font-family="Helvetica,sans-Serif" font-size="10.00" fill="#000000"> Driver</text>
</a>
</g>
</g>
<!-- Node0 -->
<g id="node3" class="node">
<title>Node0</title>
<g id="a_node3"><a xlink:title="Generic Library Driver Layer.">
<polygon fill="#bfbfbf" stroke="#000000" points="167,-84 0,-84 0,-65 167,-65 167,-84"/>
<text text-anchor="middle" x="83.5" y="-72" font-family="Helvetica,sans-Serif" font-size="10.00" fill="#000000">Library Driver Layer</text>
</a>
</g>
</g>
<!-- Node0&#45;&gt;Node3 -->
<g id="edge3" class="edge">
<title>Node0&#45;&gt;Node3</title>
<path fill="none" stroke="#000000" d="M135.8208,-86.2355C164.3804,-92.6414 200.0471,-100.6414 230.6092,-107.4965"/>
<polygon fill="#000000" stroke="#000000" points="136.559,-82.8142 126.0354,-84.0406 135.0269,-89.6445 136.559,-82.8142"/>
</g>
<!-- Node0&#45;&gt;Node2 -->
<g id="edge2" class="edge">
<title>Node0&#45;&gt;Node2</title>
<path fill="none" stroke="#000000" d="M177.318,-74.5C189.4956,-74.5 201.9045,-74.5 213.9007,-74.5"/>
<polygon fill="#000000" stroke="#000000" points="177.1575,-71.0001 167.1574,-74.5 177.1574,-78.0001 177.1575,-71.0001"/>
</g>
<!-- Node1 -->
<g id="node4" class="node">
<title>Node1</title>
<g id="a_node4"><a xlink:href="a00458.html" target="_top" xlink:title=" ">
<polygon fill="#ffffff" stroke="#000000" points="377,-41 218,-41 218,0 377,0 377,-41"/>
<text text-anchor="start" x="226" y="-29" font-family="Helvetica,sans-Serif" font-size="10.00" fill="#000000">Peripheral Register</text>
<text text-anchor="start" x="226" y="-18" font-family="Helvetica,sans-Serif" font-size="10.00" fill="#000000"> Abstraction Layer </text>
<text text-anchor="middle" x="297.5" y="-7" font-family="Helvetica,sans-Serif" font-size="10.00" fill="#000000">(PRAL) Library</text>
</a>
</g>
</g>
<!-- Node0&#45;&gt;Node1 -->
<g id="edge1" class="edge">
<title>Node0&#45;&gt;Node1</title>
<path fill="none" stroke="#000000" d="M131.0224,-62.5084C156.4483,-56.0925 188.4412,-48.0195 217.5694,-40.6694"/>
<polygon fill="#000000" stroke="#000000" points="130.106,-59.1298 121.2663,-64.9702 131.8187,-65.9171 130.106,-59.1298"/>
</g>
</g>
</svg>
