<?xml version="1.0" encoding="UTF-8" standalone="no"?>
<!DOCTYPE svg PUBLIC "-//W3C//DTD SVG 1.1//EN"
 "http://www.w3.org/Graphics/SVG/1.1/DTD/svg11.dtd">
<!-- Generated by graphviz version 2.40.1 (0)
 -->
<!-- Title: Boost Peripheral Templates Pages: 1 -->
<svg width="573pt" height="64pt"
 viewBox="0.00 0.00 573.00 64.00" xmlns="http://www.w3.org/2000/svg" xmlns:xlink="http://www.w3.org/1999/xlink">
<g id="graph0" class="graph" transform="scale(1 1) rotate(0) translate(4 60)">
<title>Boost Peripheral Templates</title>
<polygon fill="#ffffff" stroke="transparent" points="-4,4 -4,-60 569,-60 569,4 -4,4"/>
<!-- Node2 -->
<g id="node1" class="node">
<title>Node2</title>
<g id="a_node1"><a xlink:href="a00618.html" target="_top" xlink:title="Functions of the second library layer.">
<polygon fill="#ffffff" stroke="#000000" points="561,-56 477,-56 477,-37 561,-37 561,-56"/>
<text text-anchor="middle" x="519" y="-44" font-family="Helvetica,sans-Serif" font-size="10.00" fill="#000000">Functions</text>
</a>
</g>
</g>
<!-- Node1 -->
<g id="node2" class="node">
<title>Node1</title>
<g id="a_node2"><a xlink:href="a00598.html" target="_top" xlink:title=" ">
<polygon fill="#ffffff" stroke="#000000" points="189,-42.5 0,-42.5 0,-12.5 189,-12.5 189,-42.5"/>
<text text-anchor="start" x="8" y="-30.5" font-family="Helvetica,sans-Serif" font-size="10.00" fill="#000000">Boost Converter Library</text>
<text text-anchor="middle" x="94.5" y="-19.5" font-family="Helvetica,sans-Serif" font-size="10.00" fill="#000000"> Modules</text>
</a>
</g>
</g>
<!-- Node0 -->
<g id="node3" class="node">
<title>Node0</title>
<g id="a_node3"><a xlink:title=" ">
<polygon fill="#bfbfbf" stroke="#000000" points="437,-37 225,-37 225,-18 437,-18 437,-37"/>
<text text-anchor="middle" x="331" y="-25" font-family="Helvetica,sans-Serif" font-size="10.00" fill="#000000">Boost Peripheral Templates</text>
</a>
</g>
</g>
<!-- Node1&#45;&gt;Node0 -->
<g id="edge1" class="edge">
<title>Node1&#45;&gt;Node0</title>
<path fill="none" stroke="#000000" d="M199.5401,-27.5C207.9562,-27.5 216.4626,-27.5 224.886,-27.5"/>
<polygon fill="#000000" stroke="#000000" points="199.3309,-24.0001 189.3309,-27.5 199.3309,-31.0001 199.3309,-24.0001"/>
</g>
<!-- Node0&#45;&gt;Node2 -->
<g id="edge2" class="edge">
<title>Node0&#45;&gt;Node2</title>
<path fill="none" stroke="#000000" d="M435.46,-38.0571C450.1176,-39.5385 464.4316,-40.9851 476.9527,-42.2505"/>
<polygon fill="#000000" stroke="#000000" points="435.5767,-34.5512 425.2754,-37.0278 434.8727,-41.5157 435.5767,-34.5512"/>
</g>
<!-- Node3 -->
<g id="node4" class="node">
<title>Node3</title>
<g id="a_node4"><a xlink:href="a00619.html" target="_top" xlink:title="Properties of the second library layer.">
<polygon fill="#ffffff" stroke="#000000" points="565,-19 473,-19 473,0 565,0 565,-19"/>
<text text-anchor="middle" x="519" y="-7" font-family="Helvetica,sans-Serif" font-size="10.00" fill="#000000">Properties</text>
</a>
</g>
</g>
<!-- Node0&#45;&gt;Node3 -->
<g id="edge3" class="edge">
<title>Node0&#45;&gt;Node3</title>
<path fill="none" stroke="#000000" d="M440.2651,-17.0384C451.6147,-15.9518 462.6592,-14.8943 472.7128,-13.9318"/>
<polygon fill="#000000" stroke="#000000" points="439.8509,-13.562 430.23,-17.9993 440.5181,-20.5301 439.8509,-13.562"/>
</g>
</g>
</svg>
