<?xml version="1.0" encoding="UTF-8" standalone="no"?>
<!DOCTYPE svg PUBLIC "-//W3C//DTD SVG 1.1//EN"
 "http://www.w3.org/Graphics/SVG/1.1/DTD/svg11.dtd">
<!-- Generated by graphviz version 2.40.1 (0)
 -->
<!-- Title: Device Start Up Pages: 1 -->
<svg width="580pt" height="134pt"
 viewBox="0.00 0.00 580.00 134.00" xmlns="http://www.w3.org/2000/svg" xmlns:xlink="http://www.w3.org/1999/xlink">
<g id="graph0" class="graph" transform="scale(1 1) rotate(0) translate(4 130)">
<title>Device Start Up</title>
<polygon fill="#ffffff" stroke="transparent" points="-4,4 -4,-130 576,-130 576,4 -4,4"/>
<!-- Node2 -->
<g id="node1" class="node">
<title>Node2</title>
<g id="a_node1"><a xlink:href="a00646.html" target="_top" xlink:title=" ">
<polygon fill="#ffffff" stroke="#000000" points="564.5,-126 382.5,-126 382.5,-96 564.5,-96 564.5,-126"/>
<text text-anchor="start" x="390.5" y="-114" font-family="Helvetica,sans-Serif" font-size="10.00" fill="#000000">Initializing Essential</text>
<text text-anchor="middle" x="473.5" y="-103" font-family="Helvetica,sans-Serif" font-size="10.00" fill="#000000"> Chip Resources</text>
</a>
</g>
</g>
<!-- Node4 -->
<g id="node2" class="node">
<title>Node4</title>
<g id="a_node2"><a xlink:href="a00655.html" target="_top" xlink:title=" ">
<polygon fill="#ffffff" stroke="#000000" points="560.5,-78 386.5,-78 386.5,-48 560.5,-48 560.5,-78"/>
<text text-anchor="start" x="394.5" y="-66" font-family="Helvetica,sans-Serif" font-size="10.00" fill="#000000">Initializing Firmware</text>
<text text-anchor="middle" x="473.5" y="-55" font-family="Helvetica,sans-Serif" font-size="10.00" fill="#000000"> Tasks</text>
</a>
</g>
</g>
<!-- Node3 -->
<g id="node3" class="node">
<title>Node3</title>
<g id="a_node3"><a xlink:href="a00651.html" target="_top" xlink:title=" ">
<polygon fill="#ffffff" stroke="#000000" points="572,-30 375,-30 375,0 572,0 572,-30"/>
<text text-anchor="start" x="383" y="-18" font-family="Helvetica,sans-Serif" font-size="10.00" fill="#000000">Initializing Hardware</text>
<text text-anchor="middle" x="473.5" y="-7" font-family="Helvetica,sans-Serif" font-size="10.00" fill="#000000">&#45;Specific Chip Resources</text>
</a>
</g>
</g>
<!-- Node1 -->
<g id="node4" class="node">
<title>Node1</title>
<g id="a_node4"><a xlink:href="a00641.html" target="_top" xlink:title="Firmware Flowchart.">
<polygon fill="#ffffff" stroke="#000000" points="174,-72.5 0,-72.5 0,-53.5 174,-53.5 174,-72.5"/>
<text text-anchor="middle" x="87" y="-60.5" font-family="Helvetica,sans-Serif" font-size="10.00" fill="#000000">Firmware Architecture</text>
</a>
</g>
</g>
<!-- Node0 -->
<g id="node5" class="node">
<title>Node0</title>
<g id="a_node5"><a xlink:title="Device Start Up.">
<polygon fill="#bfbfbf" stroke="#000000" points="339,-72.5 210,-72.5 210,-53.5 339,-53.5 339,-72.5"/>
<text text-anchor="middle" x="274.5" y="-60.5" font-family="Helvetica,sans-Serif" font-size="10.00" fill="#000000">Device Start Up</text>
</a>
</g>
</g>
<!-- Node1&#45;&gt;Node0 -->
<g id="edge1" class="edge">
<title>Node1&#45;&gt;Node0</title>
<path fill="none" stroke="#000000" d="M184.3469,-63C193.0211,-63 201.6542,-63 209.9485,-63"/>
<polygon fill="#000000" stroke="#000000" points="184.1631,-59.5001 174.163,-63 184.163,-66.5001 184.1631,-59.5001"/>
</g>
<!-- Node0&#45;&gt;Node2 -->
<g id="edge2" class="edge">
<title>Node0&#45;&gt;Node2</title>
<path fill="none" stroke="#000000" d="M324.0515,-74.9521C350.3791,-81.3025 383.006,-89.1723 411.0513,-95.937"/>
<polygon fill="#000000" stroke="#000000" points="324.8343,-71.5406 314.2923,-72.5982 323.1928,-78.3455 324.8343,-71.5406"/>
</g>
<!-- Node0&#45;&gt;Node4 -->
<g id="edge4" class="edge">
<title>Node0&#45;&gt;Node4</title>
<path fill="none" stroke="#000000" d="M349.1739,-63C361.3235,-63 374.0007,-63 386.4159,-63"/>
<polygon fill="#000000" stroke="#000000" points="349.1096,-59.5001 339.1096,-63 349.1096,-66.5001 349.1096,-59.5001"/>
</g>
<!-- Node0&#45;&gt;Node3 -->
<g id="edge3" class="edge">
<title>Node0&#45;&gt;Node3</title>
<path fill="none" stroke="#000000" d="M324.0515,-51.0479C350.3791,-44.6975 383.006,-36.8277 411.0513,-30.063"/>
<polygon fill="#000000" stroke="#000000" points="323.1928,-47.6545 314.2923,-53.4018 324.8343,-54.4594 323.1928,-47.6545"/>
</g>
</g>
</svg>
