<?xml version="1.0" encoding="UTF-8" standalone="no"?>
<!DOCTYPE svg PUBLIC "-//W3C//DTD SVG 1.1//EN"
 "http://www.w3.org/Graphics/SVG/1.1/DTD/svg11.dtd">
<!-- Generated by graphviz version 2.40.1 (0)
 -->
<!-- Title: Initializing Hardware&#45;Specific Chip Resources Pages: 1 -->
<svg width="648pt" height="113pt"
 viewBox="0.00 0.00 648.00 112.50" xmlns="http://www.w3.org/2000/svg" xmlns:xlink="http://www.w3.org/1999/xlink">
<g id="graph0" class="graph" transform="scale(1 1) rotate(0) translate(4 108.5)">
<title>Initializing Hardware&#45;Specific Chip Resources</title>
<polygon fill="#ffffff" stroke="transparent" points="-4,4 -4,-108.5 644,-108.5 644,4 -4,4"/>
<!-- Node2 -->
<g id="node1" class="node">
<title>Node2</title>
<g id="a_node1"><a xlink:href="a00652.html" target="_top" xlink:title=" ">
<polygon fill="#ffffff" stroke="#000000" points="640,-104.5 398,-104.5 398,-85.5 640,-85.5 640,-104.5"/>
<text text-anchor="middle" x="519" y="-92.5" font-family="Helvetica,sans-Serif" font-size="10.00" fill="#000000">User Peripheral Initialization</text>
</a>
</g>
</g>
<!-- Node3 -->
<g id="node2" class="node">
<title>Node3</title>
<g id="a_node2"><a xlink:href="a00653.html" target="_top" xlink:title=" ">
<polygon fill="#ffffff" stroke="#000000" points="628.5,-67.5 409.5,-67.5 409.5,-48.5 628.5,-48.5 628.5,-67.5"/>
<text text-anchor="middle" x="519" y="-55.5" font-family="Helvetica,sans-Serif" font-size="10.00" fill="#000000">Digital&#45;to&#45;Analog Converter</text>
</a>
</g>
</g>
<!-- Node0 -->
<g id="node3" class="node">
<title>Node0</title>
<g id="a_node3"><a xlink:title=" ">
<polygon fill="#bfbfbf" stroke="#000000" points="362,-73 165,-73 165,-43 362,-43 362,-73"/>
<text text-anchor="start" x="173" y="-61" font-family="Helvetica,sans-Serif" font-size="10.00" fill="#000000">Initializing Hardware</text>
<text text-anchor="middle" x="263.5" y="-50" font-family="Helvetica,sans-Serif" font-size="10.00" fill="#000000">&#45;Specific Chip Resources</text>
</a>
</g>
</g>
<!-- Node0&#45;&gt;Node2 -->
<g id="edge2" class="edge">
<title>Node0&#45;&gt;Node2</title>
<path fill="none" stroke="#000000" d="M372.3552,-73.7638C399.8675,-77.7479 428.5754,-81.9052 453.2219,-85.4744"/>
<polygon fill="#000000" stroke="#000000" points="372.6814,-70.2746 362.283,-72.3052 371.6781,-77.2023 372.6814,-70.2746"/>
</g>
<!-- Node0&#45;&gt;Node3 -->
<g id="edge3" class="edge">
<title>Node0&#45;&gt;Node3</title>
<path fill="none" stroke="#000000" d="M372.4954,-58C384.7308,-58 397.2008,-58 409.4433,-58"/>
<polygon fill="#000000" stroke="#000000" points="372.283,-54.5001 362.283,-58 372.2829,-61.5001 372.283,-54.5001"/>
</g>
<!-- Node4 -->
<g id="node4" class="node">
<title>Node4</title>
<g id="a_node4"><a xlink:href="a00654.html" target="_top" xlink:title=" ">
<polygon fill="#ffffff" stroke="#000000" points="606,-30 432,-30 432,0 606,0 606,-30"/>
<text text-anchor="start" x="440" y="-18" font-family="Helvetica,sans-Serif" font-size="10.00" fill="#000000">Operational Amplifier</text>
<text text-anchor="middle" x="519" y="-7" font-family="Helvetica,sans-Serif" font-size="10.00" fill="#000000"> Configuration</text>
</a>
</g>
</g>
<!-- Node0&#45;&gt;Node4 -->
<g id="edge4" class="edge">
<title>Node0&#45;&gt;Node4</title>
<path fill="none" stroke="#000000" d="M362.8704,-41.2762C385.6255,-37.4466 409.6458,-33.404 431.8418,-29.6685"/>
<polygon fill="#000000" stroke="#000000" points="362.1419,-37.8495 352.8615,-42.9607 363.3037,-44.7524 362.1419,-37.8495"/>
</g>
<!-- Node1 -->
<g id="node5" class="node">
<title>Node1</title>
<g id="a_node5"><a xlink:href="a00642.html" target="_top" xlink:title="Device Start Up.">
<polygon fill="#ffffff" stroke="#000000" points="129,-67.5 0,-67.5 0,-48.5 129,-48.5 129,-67.5"/>
<text text-anchor="middle" x="64.5" y="-55.5" font-family="Helvetica,sans-Serif" font-size="10.00" fill="#000000">Device Start Up</text>
</a>
</g>
</g>
<!-- Node1&#45;&gt;Node0 -->
<g id="edge1" class="edge">
<title>Node1&#45;&gt;Node0</title>
<path fill="none" stroke="#000000" d="M139.2095,-58C147.6062,-58 156.2545,-58 164.8939,-58"/>
<polygon fill="#000000" stroke="#000000" points="139.1096,-54.5001 129.1096,-58 139.1096,-61.5001 139.1096,-54.5001"/>
</g>
</g>
</svg>
