<?xml version="1.0" encoding="UTF-8" standalone="no"?>
<!DOCTYPE svg PUBLIC "-//W3C//DTD SVG 1.1//EN"
 "http://www.w3.org/Graphics/SVG/1.1/DTD/svg11.dtd">
<!-- Generated by graphviz version 2.40.1 (0)
 -->
<!-- Title: Firmware Architecture Pages: 1 -->
<svg width="347pt" height="64pt"
 viewBox="0.00 0.00 347.00 64.00" xmlns="http://www.w3.org/2000/svg" xmlns:xlink="http://www.w3.org/1999/xlink">
<g id="graph0" class="graph" transform="scale(1 1) rotate(0) translate(4 60)">
<title>Firmware Architecture</title>
<polygon fill="#ffffff" stroke="transparent" points="-4,4 -4,-60 343,-60 343,4 -4,4"/>
<!-- Node2 -->
<g id="node1" class="node">
<title>Node2</title>
<g id="a_node1"><a xlink:href="a00643.html" target="_top" xlink:title="Main Loop.">
<polygon fill="#ffffff" stroke="#000000" points="316.5,-56 232.5,-56 232.5,-37 316.5,-37 316.5,-56"/>
<text text-anchor="middle" x="274.5" y="-44" font-family="Helvetica,sans-Serif" font-size="10.00" fill="#000000">Main Loop</text>
</a>
</g>
</g>
<!-- Node0 -->
<g id="node2" class="node">
<title>Node0</title>
<g id="a_node2"><a xlink:title="Firmware Flowchart.">
<polygon fill="#bfbfbf" stroke="#000000" points="174,-37 0,-37 0,-18 174,-18 174,-37"/>
<text text-anchor="middle" x="87" y="-25" font-family="Helvetica,sans-Serif" font-size="10.00" fill="#000000">Firmware Architecture</text>
</a>
</g>
</g>
<!-- Node0&#45;&gt;Node2 -->
<g id="edge2" class="edge">
<title>Node0&#45;&gt;Node2</title>
<path fill="none" stroke="#000000" d="M184.1583,-37.3454C201.1337,-39.0655 217.9599,-40.7706 232.4067,-42.2345"/>
<polygon fill="#000000" stroke="#000000" points="184.465,-33.8586 174.163,-36.3325 183.7592,-40.8229 184.465,-33.8586"/>
</g>
<!-- Node1 -->
<g id="node3" class="node">
<title>Node1</title>
<g id="a_node3"><a xlink:href="a00642.html" target="_top" xlink:title="Device Start Up.">
<polygon fill="#ffffff" stroke="#000000" points="339,-19 210,-19 210,0 339,0 339,-19"/>
<text text-anchor="middle" x="274.5" y="-7" font-family="Helvetica,sans-Serif" font-size="10.00" fill="#000000">Device Start Up</text>
</a>
</g>
</g>
<!-- Node0&#45;&gt;Node1 -->
<g id="edge1" class="edge">
<title>Node0&#45;&gt;Node1</title>
<path fill="none" stroke="#000000" d="M184.3469,-18.1547C193.0211,-17.322 201.6542,-16.4932 209.9485,-15.6969"/>
<polygon fill="#000000" stroke="#000000" points="183.7828,-14.6927 174.163,-19.1323 184.4518,-21.6606 183.7828,-14.6927"/>
</g>
</g>
</svg>
