<?xml version="1.0" encoding="UTF-8" standalone="no"?>
<!DOCTYPE svg PUBLIC "-//W3C//DTD SVG 1.1//EN"
 "http://www.w3.org/Graphics/SVG/1.1/DTD/svg11.dtd">
<!-- Generated by graphviz version 2.40.1 (0)
 -->
<!-- Title: Properties Pages: 1 -->
<svg width="520pt" height="138pt"
 viewBox="0.00 0.00 520.00 138.00" xmlns="http://www.w3.org/2000/svg" xmlns:xlink="http://www.w3.org/1999/xlink">
<g id="graph0" class="graph" transform="scale(1 1) rotate(0) translate(4 134)">
<title>Properties</title>
<polygon fill="#ffffff" stroke="transparent" points="-4,4 -4,-134 516,-134 516,4 -4,4"/>
<!-- Node1 -->
<g id="node1" class="node">
<title>Node1</title>
<g id="a_node1"><a xlink:href="a00623.html" target="_top" xlink:title=" ">
<polygon fill="#ffffff" stroke="#000000" points="189,-79.5 0,-79.5 0,-49.5 189,-49.5 189,-79.5"/>
<text text-anchor="start" x="8" y="-67.5" font-family="Helvetica,sans-Serif" font-size="10.00" fill="#000000">Power Converter Control</text>
<text text-anchor="middle" x="94.5" y="-56.5" font-family="Helvetica,sans-Serif" font-size="10.00" fill="#000000"> Driver</text>
</a>
</g>
</g>
<!-- Node0 -->
<g id="node4" class="node">
<title>Node0</title>
<g id="a_node4"><a xlink:title="Public properties of the Power Converter Control driver.">
<polygon fill="#bfbfbf" stroke="#000000" points="317,-74 225,-74 225,-55 317,-55 317,-74"/>
<text text-anchor="middle" x="271" y="-62" font-family="Helvetica,sans-Serif" font-size="10.00" fill="#000000">Properties</text>
</a>
</g>
</g>
<!-- Node1&#45;&gt;Node0 -->
<g id="edge1" class="edge">
<title>Node1&#45;&gt;Node0</title>
<path fill="none" stroke="#000000" d="M199.3463,-64.5C208.2555,-64.5 216.9305,-64.5 224.9904,-64.5"/>
<polygon fill="#000000" stroke="#000000" points="199.2085,-61.0001 189.2085,-64.5 199.2085,-68.0001 199.2085,-61.0001"/>
</g>
<!-- Node2 -->
<g id="node2" class="node">
<title>Node2</title>
<g id="a_node2"><a xlink:href="a00627.html" target="_top" xlink:title="Public properties of the Power Converter Control driver.">
<polygon fill="#ffffff" stroke="#000000" points="486,-130 379,-130 379,-111 486,-111 486,-130"/>
<text text-anchor="middle" x="432.5" y="-118" font-family="Helvetica,sans-Serif" font-size="10.00" fill="#000000">Data Objects</text>
</a>
</g>
</g>
<!-- Node5 -->
<g id="node3" class="node">
<title>Node5</title>
<g id="a_node3"><a xlink:href="a00630.html" target="_top" xlink:title="Public variables of the Power Converter Control driver.">
<polygon fill="#ffffff" stroke="#000000" points="474.5,-93 390.5,-93 390.5,-74 474.5,-74 474.5,-93"/>
<text text-anchor="middle" x="432.5" y="-81" font-family="Helvetica,sans-Serif" font-size="10.00" fill="#000000">Variables</text>
</a>
</g>
</g>
<!-- Node0&#45;&gt;Node2 -->
<g id="edge2" class="edge">
<title>Node0&#45;&gt;Node2</title>
<path fill="none" stroke="#000000" d="M297.9149,-78.7298C313.639,-86.5937 334.0585,-96.0479 353,-102.5 362.5109,-105.7397 372.8613,-108.567 382.854,-110.9613"/>
<polygon fill="#000000" stroke="#000000" points="299.2856,-75.5001 288.7863,-74.0799 296.1083,-81.7375 299.2856,-75.5001"/>
</g>
<!-- Node0&#45;&gt;Node5 -->
<g id="edge5" class="edge">
<title>Node0&#45;&gt;Node5</title>
<path fill="none" stroke="#000000" d="M327.2379,-71.1162C347.9687,-73.5551 371.0808,-76.2742 390.3553,-78.5418"/>
<polygon fill="#000000" stroke="#000000" points="327.6199,-67.6371 317.2794,-69.9446 326.8019,-74.5892 327.6199,-67.6371"/>
</g>
<!-- Node3 -->
<g id="node5" class="node">
<title>Node3</title>
<g id="a_node5"><a xlink:href="a00628.html" target="_top" xlink:title="Public properties of the Power Converter Control driver.">
<polygon fill="#ffffff" stroke="#000000" points="512,-56 353,-56 353,-37 512,-37 512,-56"/>
<text text-anchor="middle" x="432.5" y="-44" font-family="Helvetica,sans-Serif" font-size="10.00" fill="#000000">Data Object Members</text>
</a>
</g>
</g>
<!-- Node0&#45;&gt;Node3 -->
<g id="edge3" class="edge">
<title>Node0&#45;&gt;Node3</title>
<path fill="none" stroke="#000000" d="M327.2241,-58.2335C335.5557,-57.3049 344.2722,-56.3334 352.9698,-55.364"/>
<polygon fill="#000000" stroke="#000000" points="326.8302,-54.7557 317.2794,-59.3419 327.6056,-61.7126 326.8302,-54.7557"/>
</g>
<!-- Node4 -->
<g id="node6" class="node">
<title>Node4</title>
<g id="a_node6"><a xlink:href="a00629.html" target="_top" xlink:title="Public properties of the Power Converter Control driver.">
<polygon fill="#ffffff" stroke="#000000" points="501,-19 364,-19 364,0 501,0 501,-19"/>
<text text-anchor="middle" x="432.5" y="-7" font-family="Helvetica,sans-Serif" font-size="10.00" fill="#000000">Defines &amp; Macros</text>
</a>
</g>
</g>
<!-- Node0&#45;&gt;Node4 -->
<g id="edge4" class="edge">
<title>Node0&#45;&gt;Node4</title>
<path fill="none" stroke="#000000" d="M299.2625,-50.5926C314.8451,-43.3089 334.6926,-34.6511 353,-28.5 363.6269,-24.9294 375.2658,-21.7532 386.2801,-19.068"/>
<polygon fill="#000000" stroke="#000000" points="297.6938,-47.4628 290.1632,-54.9154 300.6976,-53.7856 297.6938,-47.4628"/>
</g>
</g>
</svg>
