<?xml version="1.0" encoding="UTF-8" standalone="no"?>
<!DOCTYPE svg PUBLIC "-//W3C//DTD SVG 1.1//EN"
 "http://www.w3.org/Graphics/SVG/1.1/DTD/svg11.dtd">
<!-- Generated by graphviz version 2.40.1 (0)
 -->
<!-- Title: Boost Special Functions Pages: 1 -->
<svg width="550pt" height="64pt"
 viewBox="0.00 0.00 550.00 64.00" xmlns="http://www.w3.org/2000/svg" xmlns:xlink="http://www.w3.org/1999/xlink">
<g id="graph0" class="graph" transform="scale(1 1) rotate(0) translate(4 60)">
<title>Boost Special Functions</title>
<polygon fill="#ffffff" stroke="transparent" points="-4,4 -4,-60 546,-60 546,4 -4,4"/>
<!-- Node1 -->
<g id="node1" class="node">
<title>Node1</title>
<g id="a_node1"><a xlink:href="a00598.html" target="_top" xlink:title=" ">
<polygon fill="#ffffff" stroke="#000000" points="189,-42.5 0,-42.5 0,-12.5 189,-12.5 189,-42.5"/>
<text text-anchor="start" x="8" y="-30.5" font-family="Helvetica,sans-Serif" font-size="10.00" fill="#000000">Boost Converter Library</text>
<text text-anchor="middle" x="94.5" y="-19.5" font-family="Helvetica,sans-Serif" font-size="10.00" fill="#000000"> Modules</text>
</a>
</g>
</g>
<!-- Node0 -->
<g id="node3" class="node">
<title>Node0</title>
<g id="a_node3"><a xlink:title=" ">
<polygon fill="#bfbfbf" stroke="#000000" points="414,-37 225,-37 225,-18 414,-18 414,-37"/>
<text text-anchor="middle" x="319.5" y="-25" font-family="Helvetica,sans-Serif" font-size="10.00" fill="#000000">Boost Special Functions</text>
</a>
</g>
</g>
<!-- Node1&#45;&gt;Node0 -->
<g id="edge1" class="edge">
<title>Node1&#45;&gt;Node0</title>
<path fill="none" stroke="#000000" d="M199.5284,-27.5C207.9735,-27.5 216.475,-27.5 224.8413,-27.5"/>
<polygon fill="#000000" stroke="#000000" points="199.2682,-24.0001 189.2681,-27.5 199.2681,-31.0001 199.2682,-24.0001"/>
</g>
<!-- Node3 -->
<g id="node2" class="node">
<title>Node3</title>
<g id="a_node2"><a xlink:href="a00607.html" target="_top" xlink:title="Public properties of the second library layer.">
<polygon fill="#ffffff" stroke="#000000" points="542,-56 450,-56 450,-37 542,-37 542,-56"/>
<text text-anchor="middle" x="496" y="-44" font-family="Helvetica,sans-Serif" font-size="10.00" fill="#000000">Properties</text>
</a>
</g>
</g>
<!-- Node0&#45;&gt;Node3 -->
<g id="edge3" class="edge">
<title>Node0&#45;&gt;Node3</title>
<path fill="none" stroke="#000000" d="M418.1474,-38.1193C429.1423,-39.3029 439.9189,-40.4629 449.7816,-41.5247"/>
<polygon fill="#000000" stroke="#000000" points="418.3257,-34.6183 408.0085,-37.0278 417.5765,-41.5781 418.3257,-34.6183"/>
</g>
<!-- Node2 -->
<g id="node4" class="node">
<title>Node2</title>
<g id="a_node4"><a xlink:href="a00606.html" target="_top" xlink:title="Public functions of the second library layer.">
<polygon fill="#ffffff" stroke="#000000" points="538,-19 454,-19 454,0 538,0 538,-19"/>
<text text-anchor="middle" x="496" y="-7" font-family="Helvetica,sans-Serif" font-size="10.00" fill="#000000">Functions</text>
</a>
</g>
</g>
<!-- Node0&#45;&gt;Node2 -->
<g id="edge2" class="edge">
<title>Node0&#45;&gt;Node2</title>
<path fill="none" stroke="#000000" d="M422.7498,-16.9703C433.6616,-15.8575 444.2582,-14.7768 453.8457,-13.799"/>
<polygon fill="#000000" stroke="#000000" points="422.2534,-13.5027 412.6601,-17.9993 422.9636,-20.4665 422.2534,-13.5027"/>
</g>
</g>
</svg>
