<?xml version="1.0" encoding="UTF-8" standalone="no"?>
<!DOCTYPE svg PUBLIC "-//W3C//DTD SVG 1.1//EN"
 "http://www.w3.org/Graphics/SVG/1.1/DTD/svg11.dtd">
<!-- Generated by graphviz version 2.40.1 (0)
 -->
<!-- Title: Operational Amplifier Configuration Pages: 1 -->
<svg width="415pt" height="38pt"
 viewBox="0.00 0.00 415.00 38.00" xmlns="http://www.w3.org/2000/svg" xmlns:xlink="http://www.w3.org/1999/xlink">
<g id="graph0" class="graph" transform="scale(1 1) rotate(0) translate(4 34)">
<title>Operational Amplifier Configuration</title>
<polygon fill="#ffffff" stroke="transparent" points="-4,4 -4,-34 411,-34 411,4 -4,4"/>
<!-- Node1 -->
<g id="node1" class="node">
<title>Node1</title>
<g id="a_node1"><a xlink:href="a00651.html" target="_top" xlink:title=" ">
<polygon fill="#ffffff" stroke="#000000" points="197,-30 0,-30 0,0 197,0 197,-30"/>
<text text-anchor="start" x="8" y="-18" font-family="Helvetica,sans-Serif" font-size="10.00" fill="#000000">Initializing Hardware</text>
<text text-anchor="middle" x="98.5" y="-7" font-family="Helvetica,sans-Serif" font-size="10.00" fill="#000000">&#45;Specific Chip Resources</text>
</a>
</g>
</g>
<!-- Node0 -->
<g id="node2" class="node">
<title>Node0</title>
<g id="a_node2"><a xlink:title=" ">
<polygon fill="#bfbfbf" stroke="#000000" points="407,-30 233,-30 233,0 407,0 407,-30"/>
<text text-anchor="start" x="241" y="-18" font-family="Helvetica,sans-Serif" font-size="10.00" fill="#000000">Operational Amplifier</text>
<text text-anchor="middle" x="320" y="-7" font-family="Helvetica,sans-Serif" font-size="10.00" fill="#000000"> Configuration</text>
</a>
</g>
</g>
<!-- Node1&#45;&gt;Node0 -->
<g id="edge1" class="edge">
<title>Node1&#45;&gt;Node0</title>
<path fill="none" stroke="#000000" d="M207.3235,-15C215.9077,-15 224.5074,-15 232.9162,-15"/>
<polygon fill="#000000" stroke="#000000" points="207.2658,-11.5001 197.2658,-15 207.2657,-18.5001 207.2658,-11.5001"/>
</g>
</g>
</svg>
