<?xml version="1.0" encoding="UTF-8" standalone="no"?>
<!DOCTYPE svg PUBLIC "-//W3C//DTD SVG 1.1//EN"
 "http://www.w3.org/Graphics/SVG/1.1/DTD/svg11.dtd">
<!-- Generated by graphviz version 2.40.1 (0)
 -->
<!-- Title: Initializing Firmware Tasks Pages: 1 -->
<svg width="595pt" height="64pt"
 viewBox="0.00 0.00 595.00 64.00" xmlns="http://www.w3.org/2000/svg" xmlns:xlink="http://www.w3.org/1999/xlink">
<g id="graph0" class="graph" transform="scale(1 1) rotate(0) translate(4 60)">
<title>Initializing Firmware Tasks</title>
<polygon fill="#ffffff" stroke="transparent" points="-4,4 -4,-60 591,-60 591,4 -4,4"/>
<!-- Node3 -->
<g id="node1" class="node">
<title>Node3</title>
<g id="a_node1"><a xlink:href="a00657.html" target="_top" xlink:title=" ">
<polygon fill="#ffffff" stroke="#000000" points="579.5,-56 382.5,-56 382.5,-37 579.5,-37 579.5,-56"/>
<text text-anchor="middle" x="481" y="-44" font-family="Helvetica,sans-Serif" font-size="10.00" fill="#000000">User Task Initialization</text>
</a>
</g>
</g>
<!-- Node0 -->
<g id="node2" class="node">
<title>Node0</title>
<g id="a_node2"><a xlink:title=" ">
<polygon fill="#bfbfbf" stroke="#000000" points="339,-42.5 165,-42.5 165,-12.5 339,-12.5 339,-42.5"/>
<text text-anchor="start" x="173" y="-30.5" font-family="Helvetica,sans-Serif" font-size="10.00" fill="#000000">Initializing Firmware</text>
<text text-anchor="middle" x="252" y="-19.5" font-family="Helvetica,sans-Serif" font-size="10.00" fill="#000000"> Tasks</text>
</a>
</g>
</g>
<!-- Node0&#45;&gt;Node3 -->
<g id="edge3" class="edge">
<title>Node0&#45;&gt;Node3</title>
<path fill="none" stroke="#000000" d="M349.5112,-35.5904C360.3158,-36.4869 371.3268,-37.4005 382.1478,-38.2983"/>
<polygon fill="#000000" stroke="#000000" points="349.4835,-32.0762 339.2283,-34.7373 348.9047,-39.0522 349.4835,-32.0762"/>
</g>
<!-- Node2 -->
<g id="node3" class="node">
<title>Node2</title>
<g id="a_node3"><a xlink:href="a00656.html" target="_top" xlink:title=" ">
<polygon fill="#ffffff" stroke="#000000" points="587,-19 375,-19 375,0 587,0 587,-19"/>
<text text-anchor="middle" x="481" y="-7" font-family="Helvetica,sans-Serif" font-size="10.00" fill="#000000">Operating System Time Base</text>
</a>
</g>
</g>
<!-- Node0&#45;&gt;Node2 -->
<g id="edge2" class="edge">
<title>Node0&#45;&gt;Node2</title>
<path fill="none" stroke="#000000" d="M349.3998,-19.8441C357.7999,-19.1838 366.3257,-18.5137 374.7907,-17.8483"/>
<polygon fill="#000000" stroke="#000000" points="348.9233,-16.3707 339.2283,-20.6436 349.4719,-23.3492 348.9233,-16.3707"/>
</g>
<!-- Node1 -->
<g id="node4" class="node">
<title>Node1</title>
<g id="a_node4"><a xlink:href="a00642.html" target="_top" xlink:title="Device Start Up.">
<polygon fill="#ffffff" stroke="#000000" points="129,-37 0,-37 0,-18 129,-18 129,-37"/>
<text text-anchor="middle" x="64.5" y="-25" font-family="Helvetica,sans-Serif" font-size="10.00" fill="#000000">Device Start Up</text>
</a>
</g>
</g>
<!-- Node1&#45;&gt;Node0 -->
<g id="edge1" class="edge">
<title>Node1&#45;&gt;Node0</title>
<path fill="none" stroke="#000000" d="M139.1852,-27.5C147.6165,-27.5 156.2625,-27.5 164.8348,-27.5"/>
<polygon fill="#000000" stroke="#000000" points="139.0269,-24.0001 129.0269,-27.5 139.0268,-31.0001 139.0269,-24.0001"/>
</g>
</g>
</svg>
