<?xml version="1.0" encoding="UTF-8" standalone="no"?>
<!DOCTYPE svg PUBLIC "-//W3C//DTD SVG 1.1//EN"
 "http://www.w3.org/Graphics/SVG/1.1/DTD/svg11.dtd">
<!-- Generated by graphviz version 2.40.1 (0)
 -->
<!-- Title: Properties Pages: 1 -->
<svg width="520pt" height="101pt"
 viewBox="0.00 0.00 520.00 101.00" xmlns="http://www.w3.org/2000/svg" xmlns:xlink="http://www.w3.org/1999/xlink">
<g id="graph0" class="graph" transform="scale(1 1) rotate(0) translate(4 97)">
<title>Properties</title>
<polygon fill="#ffffff" stroke="transparent" points="-4,4 -4,-97 516,-97 516,4 -4,4"/>
<!-- Node2 -->
<g id="node1" class="node">
<title>Node2</title>
<g id="a_node1"><a xlink:href="a00602.html" target="_top" xlink:title="Variables of the boost converter state machine.">
<polygon fill="#ffffff" stroke="#000000" points="512,-93 338,-93 338,-74 512,-74 512,-93"/>
<text text-anchor="middle" x="425" y="-81" font-family="Helvetica,sans-Serif" font-size="10.00" fill="#000000">Variables &amp; Constants</text>
</a>
</g>
</g>
<!-- Node1 -->
<g id="node2" class="node">
<title>Node1</title>
<g id="a_node2"><a xlink:href="a00599.html" target="_top" xlink:title="Description of the Boost Converter Library State Machine library module.">
<polygon fill="#ffffff" stroke="#000000" points="174,-61.5 0,-61.5 0,-31.5 174,-31.5 174,-61.5"/>
<text text-anchor="start" x="8" y="-49.5" font-family="Helvetica,sans-Serif" font-size="10.00" fill="#000000">Boost Converter State</text>
<text text-anchor="middle" x="87" y="-38.5" font-family="Helvetica,sans-Serif" font-size="10.00" fill="#000000"> Machine</text>
</a>
</g>
</g>
<!-- Node0 -->
<g id="node3" class="node">
<title>Node0</title>
<g id="a_node3"><a xlink:title="Properties of the second library layer.">
<polygon fill="#bfbfbf" stroke="#000000" points="302,-56 210,-56 210,-37 302,-37 302,-56"/>
<text text-anchor="middle" x="256" y="-44" font-family="Helvetica,sans-Serif" font-size="10.00" fill="#000000">Properties</text>
</a>
</g>
</g>
<!-- Node1&#45;&gt;Node0 -->
<g id="edge1" class="edge">
<title>Node1&#45;&gt;Node0</title>
<path fill="none" stroke="#000000" d="M184.4729,-46.5C193.2787,-46.5 201.8919,-46.5 209.9177,-46.5"/>
<polygon fill="#000000" stroke="#000000" points="184.4702,-43.0001 174.4702,-46.5 184.4701,-50.0001 184.4702,-43.0001"/>
</g>
<!-- Node0&#45;&gt;Node2 -->
<g id="edge2" class="edge">
<title>Node0&#45;&gt;Node2</title>
<path fill="none" stroke="#000000" d="M306.265,-58.3449C316.7423,-60.7582 327.7237,-63.2467 338,-65.5 350.9569,-68.341 365.0266,-71.3046 377.9993,-73.9878"/>
<polygon fill="#000000" stroke="#000000" points="306.9455,-54.9099 296.4138,-56.0643 305.3667,-61.7296 306.9455,-54.9099"/>
</g>
<!-- Node4 -->
<g id="node4" class="node">
<title>Node4</title>
<g id="a_node4"><a xlink:href="a00604.html" target="_top" xlink:title="Defines and macros of the boost converter state machine.">
<polygon fill="#ffffff" stroke="#000000" points="501,-56 349,-56 349,-37 501,-37 501,-56"/>
<text text-anchor="middle" x="425" y="-44" font-family="Helvetica,sans-Serif" font-size="10.00" fill="#000000">Defines and Macros</text>
</a>
</g>
</g>
<!-- Node0&#45;&gt;Node4 -->
<g id="edge4" class="edge">
<title>Node0&#45;&gt;Node4</title>
<path fill="none" stroke="#000000" d="M312.2768,-46.5C324.0383,-46.5 336.624,-46.5 348.9662,-46.5"/>
<polygon fill="#000000" stroke="#000000" points="312.18,-43.0001 302.18,-46.5 312.18,-50.0001 312.18,-43.0001"/>
</g>
<!-- Node3 -->
<g id="node5" class="node">
<title>Node3</title>
<g id="a_node5"><a xlink:href="a00603.html" target="_top" xlink:title="Data types of the boost converter state machine.">
<polygon fill="#ffffff" stroke="#000000" points="471,-19 379,-19 379,0 471,0 471,-19"/>
<text text-anchor="middle" x="425" y="-7" font-family="Helvetica,sans-Serif" font-size="10.00" fill="#000000">Data Types</text>
</a>
</g>
</g>
<!-- Node0&#45;&gt;Node3 -->
<g id="edge3" class="edge">
<title>Node0&#45;&gt;Node3</title>
<path fill="none" stroke="#000000" d="M306.265,-34.6551C316.7423,-32.2418 327.7237,-29.7533 338,-27.5 351.2582,-24.5929 365.6816,-21.5575 378.9026,-18.8254"/>
<polygon fill="#000000" stroke="#000000" points="305.3667,-31.2704 296.4138,-36.9357 306.9455,-38.0901 305.3667,-31.2704"/>
</g>
</g>
</svg>
