<?xml version="1.0" encoding="UTF-8" standalone="no"?>
<!DOCTYPE svg PUBLIC "-//W3C//DTD SVG 1.1//EN"
 "http://www.w3.org/Graphics/SVG/1.1/DTD/svg11.dtd">
<!-- Generated by graphviz version 2.40.1 (0)
 -->
<!-- Title: Push&#45;Button Application Layer Pages: 1 -->
<svg width="565pt" height="138pt"
 viewBox="0.00 0.00 565.00 138.00" xmlns="http://www.w3.org/2000/svg" xmlns:xlink="http://www.w3.org/1999/xlink">
<g id="graph0" class="graph" transform="scale(1 1) rotate(0) translate(4 134)">
<title>Push&#45;Button Application Layer</title>
<polygon fill="#ffffff" stroke="transparent" points="-4,4 -4,-134 561,-134 561,4 -4,4"/>
<!-- Node5 -->
<g id="node1" class="node">
<title>Node5</title>
<g id="a_node1"><a xlink:href="a00635.html" target="_top" xlink:title="Public properties of the application layer of the push button task.">
<polygon fill="#ffffff" stroke="#000000" points="557,-130 405,-130 405,-111 557,-111 557,-130"/>
<text text-anchor="middle" x="481" y="-118" font-family="Helvetica,sans-Serif" font-size="10.00" fill="#000000">Private Properties</text>
</a>
</g>
</g>
<!-- Node1 -->
<g id="node2" class="node">
<title>Node1</title>
<g id="a_node2"><a xlink:href="a00659.html" target="_top" xlink:title="Task Layer.">
<polygon fill="#ffffff" stroke="#000000" points="144,-74 0,-74 0,-55 144,-55 144,-74"/>
<text text-anchor="middle" x="72" y="-62" font-family="Helvetica,sans-Serif" font-size="10.00" fill="#000000">Application Layer</text>
</a>
</g>
</g>
<!-- Node0 -->
<g id="node3" class="node">
<title>Node0</title>
<g id="a_node3"><a xlink:title=" ">
<polygon fill="#bfbfbf" stroke="#000000" points="369,-79.5 180,-79.5 180,-49.5 369,-49.5 369,-79.5"/>
<text text-anchor="start" x="188" y="-67.5" font-family="Helvetica,sans-Serif" font-size="10.00" fill="#000000">Push&#45;Button Application</text>
<text text-anchor="middle" x="274.5" y="-56.5" font-family="Helvetica,sans-Serif" font-size="10.00" fill="#000000"> Layer</text>
</a>
</g>
</g>
<!-- Node1&#45;&gt;Node0 -->
<g id="edge1" class="edge">
<title>Node1&#45;&gt;Node0</title>
<path fill="none" stroke="#000000" d="M154.4187,-64.5C162.8423,-64.5 171.4461,-64.5 179.9858,-64.5"/>
<polygon fill="#000000" stroke="#000000" points="154.2496,-61.0001 144.2495,-64.5 154.2495,-68.0001 154.2496,-61.0001"/>
</g>
<!-- Node0&#45;&gt;Node5 -->
<g id="edge5" class="edge">
<title>Node0&#45;&gt;Node5</title>
<path fill="none" stroke="#000000" d="M333.5773,-82.392C355.8889,-88.9674 381.5472,-96.3124 405,-102.5 416.0131,-105.4056 427.9815,-108.3424 439.0925,-110.9771"/>
<polygon fill="#000000" stroke="#000000" points="334.4922,-79.0127 323.91,-79.5296 332.5049,-85.7247 334.4922,-79.0127"/>
</g>
<!-- Node2 -->
<g id="node4" class="node">
<title>Node2</title>
<g id="a_node4"><a xlink:href="a00632.html" target="_top" xlink:title="Public functions of the application layer of the power control task.">
<polygon fill="#ffffff" stroke="#000000" points="549.5,-93 412.5,-93 412.5,-74 549.5,-74 549.5,-93"/>
<text text-anchor="middle" x="481" y="-81" font-family="Helvetica,sans-Serif" font-size="10.00" fill="#000000">Public Functions</text>
</a>
</g>
</g>
<!-- Node0&#45;&gt;Node2 -->
<g id="edge2" class="edge">
<title>Node0&#45;&gt;Node2</title>
<path fill="none" stroke="#000000" d="M379.5241,-74.1632C390.6772,-75.1894 401.8026,-76.2131 412.3797,-77.1863"/>
<polygon fill="#000000" stroke="#000000" points="379.5674,-70.6525 369.2887,-73.2215 378.9259,-77.6231 379.5674,-70.6525"/>
</g>
<!-- Node4 -->
<g id="node5" class="node">
<title>Node4</title>
<g id="a_node5"><a xlink:href="a00634.html" target="_top" xlink:title="Private functions of the application layer of the push button task.">
<polygon fill="#ffffff" stroke="#000000" points="553,-56 409,-56 409,-37 553,-37 553,-56"/>
<text text-anchor="middle" x="481" y="-44" font-family="Helvetica,sans-Serif" font-size="10.00" fill="#000000">Private Functions</text>
</a>
</g>
</g>
<!-- Node0&#45;&gt;Node4 -->
<g id="edge4" class="edge">
<title>Node0&#45;&gt;Node4</title>
<path fill="none" stroke="#000000" d="M379.5615,-55.3421C389.4261,-54.4822 399.2686,-53.6243 408.7287,-52.7997"/>
<polygon fill="#000000" stroke="#000000" points="378.947,-51.8823 369.2887,-56.2375 379.5549,-58.8559 378.947,-51.8823"/>
</g>
<!-- Node3 -->
<g id="node6" class="node">
<title>Node3</title>
<g id="a_node6"><a xlink:href="a00633.html" target="_top" xlink:title="Public properties of the application layer of the push button task.">
<polygon fill="#ffffff" stroke="#000000" points="553,-19 409,-19 409,0 553,0 553,-19"/>
<text text-anchor="middle" x="481" y="-7" font-family="Helvetica,sans-Serif" font-size="10.00" fill="#000000">Public Properties</text>
</a>
</g>
</g>
<!-- Node0&#45;&gt;Node3 -->
<g id="edge3" class="edge">
<title>Node0&#45;&gt;Node3</title>
<path fill="none" stroke="#000000" d="M335.3238,-46.6592C357.2307,-40.3914 382.1723,-33.4364 405,-27.5 416.0233,-24.6334 427.9952,-21.71 439.1063,-19.0757"/>
<polygon fill="#000000" stroke="#000000" points="334.1351,-43.3591 325.4905,-49.4845 336.0682,-50.0869 334.1351,-43.3591"/>
</g>
</g>
</svg>
