<?xml version="1.0" encoding="UTF-8" standalone="no"?>
<!DOCTYPE svg PUBLIC "-//W3C//DTD SVG 1.1//EN"
 "http://www.w3.org/Graphics/SVG/1.1/DTD/svg11.dtd">
<!-- Generated by graphviz version 2.40.1 (0)
 -->
<!-- Title: Hardware Abstraction Layer Pages: 1 -->
<svg width="408pt" height="593pt"
 viewBox="0.00 0.00 408.00 593.00" xmlns="http://www.w3.org/2000/svg" xmlns:xlink="http://www.w3.org/1999/xlink">
<g id="graph0" class="graph" transform="scale(1 1) rotate(0) translate(4 589)">
<title>Hardware Abstraction Layer</title>
<polygon fill="#ffffff" stroke="transparent" points="-4,4 -4,-589 404,-589 404,4 -4,4"/>
<!-- Node4 -->
<g id="node1" class="node">
<title>Node4</title>
<g id="a_node1"><a xlink:href="a00491.html" target="_top" xlink:title="Declaration of startup timing periods.">
<polygon fill="#ffffff" stroke="#000000" points="396,-585 207,-585 207,-566 396,-566 396,-585"/>
<text text-anchor="middle" x="301.5" y="-573" font-family="Helvetica,sans-Serif" font-size="10.00" fill="#000000">Startup Timing Settings</text>
</a>
</g>
</g>
<!-- Node0 -->
<g id="node2" class="node">
<title>Node0</title>
<g id="a_node2"><a xlink:title="Hardware Abstraction Layer Declarations.">
<polygon fill="#bfbfbf" stroke="#000000" points="167,-313.5 0,-313.5 0,-283.5 167,-283.5 167,-313.5"/>
<text text-anchor="start" x="8" y="-301.5" font-family="Helvetica,sans-Serif" font-size="10.00" fill="#000000">Hardware Abstraction</text>
<text text-anchor="middle" x="83.5" y="-290.5" font-family="Helvetica,sans-Serif" font-size="10.00" fill="#000000"> Layer</text>
</a>
</g>
</g>
<!-- Node0&#45;&gt;Node4 -->
<g id="edge4" class="edge">
<title>Node0&#45;&gt;Node4</title>
<path fill="none" stroke="#000000" d="M87.3338,-323.9128C96.7043,-376.5833 125.9142,-497.7191 203,-557.5 207.2585,-560.8025 211.93,-563.5691 216.8521,-565.8812"/>
<polygon fill="#000000" stroke="#000000" points="90.7362,-323.0399 85.6253,-313.7594 83.8333,-324.2015 90.7362,-323.0399"/>
</g>
<!-- Node14 -->
<g id="node3" class="node">
<title>Node14</title>
<g id="a_node3"><a xlink:href="a00541.html" target="_top" xlink:title=" ">
<polygon fill="#ffffff" stroke="#000000" points="396,-548 207,-548 207,-529 396,-529 396,-548"/>
<text text-anchor="middle" x="301.5" y="-536" font-family="Helvetica,sans-Serif" font-size="10.00" fill="#000000">Special Circuit Signals</text>
</a>
</g>
</g>
<!-- Node0&#45;&gt;Node14 -->
<g id="edge14" class="edge">
<title>Node0&#45;&gt;Node14</title>
<path fill="none" stroke="#000000" d="M89.3317,-323.5489C101.6254,-370.3805 134.8588,-470.9353 203,-520.5 207.4986,-523.7722 212.4117,-526.5077 217.5652,-528.7893"/>
<polygon fill="#000000" stroke="#000000" points="92.6705,-322.4744 86.8335,-313.6325 85.8826,-324.1846 92.6705,-322.4744"/>
</g>
<!-- Node7 -->
<g id="node4" class="node">
<title>Node7</title>
<g id="a_node4"><a xlink:href="a00508.html" target="_top" xlink:title="Declaration of input voltage feedback parameters.">
<polygon fill="#ffffff" stroke="#000000" points="392.5,-511 210.5,-511 210.5,-492 392.5,-492 392.5,-511"/>
<text text-anchor="middle" x="301.5" y="-499" font-family="Helvetica,sans-Serif" font-size="10.00" fill="#000000">Input Voltage Feedback</text>
</a>
</g>
</g>
<!-- Node0&#45;&gt;Node7 -->
<g id="edge7" class="edge">
<title>Node0&#45;&gt;Node7</title>
<path fill="none" stroke="#000000" d="M91.9857,-323.1255C107.3126,-363.6497 143.6493,-443.8463 203,-483.5 208.0591,-486.8801 213.576,-489.6724 219.331,-491.9745"/>
<polygon fill="#000000" stroke="#000000" points="95.2683,-321.9109 88.5405,-313.7264 88.6959,-324.3201 95.2683,-321.9109"/>
</g>
<!-- Node3 -->
<g id="node5" class="node">
<title>Node3</title>
<g id="a_node5"><a xlink:href="a00487.html" target="_top" xlink:title="Declaration of global state&#45;machine parameters.">
<polygon fill="#ffffff" stroke="#000000" points="392.5,-474 210.5,-474 210.5,-455 392.5,-455 392.5,-474"/>
<text text-anchor="middle" x="301.5" y="-462" font-family="Helvetica,sans-Serif" font-size="10.00" fill="#000000">State Machine Settings</text>
</a>
</g>
</g>
<!-- Node0&#45;&gt;Node3 -->
<g id="edge3" class="edge">
<title>Node0&#45;&gt;Node3</title>
<path fill="none" stroke="#000000" d="M95.8252,-322.7618C114.2646,-356.3869 152.3536,-416.4059 203,-446.5 208.679,-449.8744 214.8423,-452.6437 221.2211,-454.9131"/>
<polygon fill="#000000" stroke="#000000" points="98.7455,-320.8003 90.9458,-313.6299 92.5716,-324.0992 98.7455,-320.8003"/>
</g>
<!-- Node9 -->
<g id="node6" class="node">
<title>Node9</title>
<g id="a_node6"><a xlink:href="a00522.html" target="_top" xlink:title="Declaration of phase current feedback parameters.">
<polygon fill="#ffffff" stroke="#000000" points="392.5,-437 210.5,-437 210.5,-418 392.5,-418 392.5,-437"/>
<text text-anchor="middle" x="301.5" y="-425" font-family="Helvetica,sans-Serif" font-size="10.00" fill="#000000">Phase Current Feedback</text>
</a>
</g>
</g>
<!-- Node0&#45;&gt;Node9 -->
<g id="edge9" class="edge">
<title>Node0&#45;&gt;Node9</title>
<path fill="none" stroke="#000000" d="M101.8472,-321.8118C123.2737,-347.3206 161.1566,-387.3874 203,-408.5 210.6967,-412.3834 219.0996,-415.4754 227.6479,-417.9369"/>
<polygon fill="#000000" stroke="#000000" points="104.2857,-319.2667 95.2298,-313.7675 98.8798,-323.7138 104.2857,-319.2667"/>
</g>
<!-- Node11 -->
<g id="node7" class="node">
<title>Node11</title>
<g id="a_node7"><a xlink:href="a00533.html" target="_top" xlink:title="Declaration of macros calculating additional parameters for Adaptive Gain Modulation.">
<polygon fill="#ffffff" stroke="#000000" points="388.5,-399.5 214.5,-399.5 214.5,-369.5 388.5,-369.5 388.5,-399.5"/>
<text text-anchor="start" x="222.5" y="-387.5" font-family="Helvetica,sans-Serif" font-size="10.00" fill="#000000">Adaptive Gain Control</text>
<text text-anchor="middle" x="301.5" y="-376.5" font-family="Helvetica,sans-Serif" font-size="10.00" fill="#000000"> Feed Forward</text>
</a>
</g>
</g>
<!-- Node0&#45;&gt;Node11 -->
<g id="edge11" class="edge">
<title>Node0&#45;&gt;Node11</title>
<path fill="none" stroke="#000000" d="M117.1562,-318.7374C140.5657,-332.1122 172.8613,-349.1971 203,-360.5 211.8993,-363.8375 221.4269,-366.8349 230.9218,-369.4871"/>
<polygon fill="#000000" stroke="#000000" points="118.7378,-315.6088 108.3295,-313.6295 115.2317,-321.6675 118.7378,-315.6088"/>
</g>
<!-- Node10 -->
<g id="node8" class="node">
<title>Node10</title>
<g id="a_node8"><a xlink:href="a00529.html" target="_top" xlink:title="Declaration of temperature feedback parameters.">
<polygon fill="#ffffff" stroke="#000000" points="385,-351 218,-351 218,-332 385,-332 385,-351"/>
<text text-anchor="middle" x="301.5" y="-339" font-family="Helvetica,sans-Serif" font-size="10.00" fill="#000000">Temperature Feedback</text>
</a>
</g>
</g>
<!-- Node0&#45;&gt;Node10 -->
<g id="edge10" class="edge">
<title>Node0&#45;&gt;Node10</title>
<path fill="none" stroke="#000000" d="M167.6531,-315.485C179.5181,-317.8553 191.5645,-320.2488 203,-322.5 218.8064,-325.6117 236.0501,-328.9553 251.6289,-331.957"/>
<polygon fill="#000000" stroke="#000000" points="168.2388,-312.0329 157.7465,-313.5031 166.8655,-318.8969 168.2388,-312.0329"/>
</g>
<!-- Node12 -->
<g id="node9" class="node">
<title>Node12</title>
<g id="a_node9"><a xlink:href="a00538.html" target="_top" xlink:title="Real&#45;time control loop interrupt service routine declarations.">
<polygon fill="#ffffff" stroke="#000000" points="400,-313.5 203,-313.5 203,-283.5 400,-283.5 400,-313.5"/>
<text text-anchor="start" x="211" y="-301.5" font-family="Helvetica,sans-Serif" font-size="10.00" fill="#000000">Control Interrupt Vector</text>
<text text-anchor="middle" x="301.5" y="-290.5" font-family="Helvetica,sans-Serif" font-size="10.00" fill="#000000"> Declarations</text>
</a>
</g>
</g>
<!-- Node0&#45;&gt;Node12 -->
<g id="edge12" class="edge">
<title>Node0&#45;&gt;Node12</title>
<path fill="none" stroke="#000000" d="M177.3498,-298.5C185.764,-298.5 194.3011,-298.5 202.7551,-298.5"/>
<polygon fill="#000000" stroke="#000000" points="177.1611,-295.0001 167.161,-298.5 177.161,-302.0001 177.1611,-295.0001"/>
</g>
<!-- Node5 -->
<g id="node10" class="node">
<title>Node5</title>
<g id="a_node10"><a xlink:href="a00496.html" target="_top" xlink:title="Declaration of fault object trip and recovery delays.">
<polygon fill="#ffffff" stroke="#000000" points="396,-265 207,-265 207,-246 396,-246 396,-265"/>
<text text-anchor="middle" x="301.5" y="-253" font-family="Helvetica,sans-Serif" font-size="10.00" fill="#000000">Fault Response Settings</text>
</a>
</g>
</g>
<!-- Node0&#45;&gt;Node5 -->
<g id="edge5" class="edge">
<title>Node0&#45;&gt;Node5</title>
<path fill="none" stroke="#000000" d="M167.6531,-281.515C179.5181,-279.1447 191.5645,-276.7512 203,-274.5 218.8064,-271.3883 236.0501,-268.0447 251.6289,-265.043"/>
<polygon fill="#000000" stroke="#000000" points="166.8655,-278.1031 157.7465,-283.4969 168.2388,-284.9671 166.8655,-278.1031"/>
</g>
<!-- Node15 -->
<g id="node11" class="node">
<title>Node15</title>
<g id="a_node11"><a xlink:href="a00544.html" target="_top" xlink:title=" ">
<polygon fill="#ffffff" stroke="#000000" points="400,-228 203,-228 203,-209 400,-209 400,-228"/>
<text text-anchor="middle" x="301.5" y="-216" font-family="Helvetica,sans-Serif" font-size="10.00" fill="#000000">Special Firmware Options</text>
</a>
</g>
</g>
<!-- Node0&#45;&gt;Node15 -->
<g id="edge15" class="edge">
<title>Node0&#45;&gt;Node15</title>
<path fill="none" stroke="#000000" d="M117.0306,-278.1489C140.3844,-264.795 172.665,-247.9334 203,-237.5 214.1166,-233.6765 226.2189,-230.5484 238.0143,-228.0148"/>
<polygon fill="#000000" stroke="#000000" points="115.1195,-275.2113 108.2277,-283.2582 118.6334,-281.2654 115.1195,-275.2113"/>
</g>
<!-- Node2 -->
<g id="node12" class="node">
<title>Node2</title>
<g id="a_node12"><a xlink:href="a00484.html" target="_top" xlink:title="Declarations of fundamental microcontroller device parameters.">
<polygon fill="#ffffff" stroke="#000000" points="392.5,-190.5 210.5,-190.5 210.5,-160.5 392.5,-160.5 392.5,-190.5"/>
<text text-anchor="start" x="218.5" y="-178.5" font-family="Helvetica,sans-Serif" font-size="10.00" fill="#000000">Microcontroller Device</text>
<text text-anchor="middle" x="301.5" y="-167.5" font-family="Helvetica,sans-Serif" font-size="10.00" fill="#000000"> Abstraction</text>
</a>
</g>
</g>
<!-- Node0&#45;&gt;Node2 -->
<g id="edge2" class="edge">
<title>Node0&#45;&gt;Node2</title>
<path fill="none" stroke="#000000" d="M104.7194,-276.0818C127.1103,-253.7222 164.438,-219.9773 203,-200.5 210.6378,-196.6422 218.917,-193.3488 227.3205,-190.5445"/>
<polygon fill="#000000" stroke="#000000" points="101.9644,-273.8913 97.4448,-283.4738 106.9537,-278.8013 101.9644,-273.8913"/>
</g>
<!-- Node1 -->
<g id="node13" class="node">
<title>Node1</title>
<g id="a_node13"><a xlink:href="a00483.html" target="_top" xlink:title="Global identified to the hardware version used.">
<polygon fill="#ffffff" stroke="#000000" points="381,-142 222,-142 222,-123 381,-123 381,-142"/>
<text text-anchor="middle" x="301.5" y="-130" font-family="Helvetica,sans-Serif" font-size="10.00" fill="#000000">Hardware Version ID</text>
</a>
</g>
</g>
<!-- Node0&#45;&gt;Node1 -->
<g id="edge1" class="edge">
<title>Node0&#45;&gt;Node1</title>
<path fill="none" stroke="#000000" d="M96.1944,-273.9574C114.8394,-240.5456 152.9148,-181.4809 203,-151.5 209.4256,-147.6536 216.4716,-144.5634 223.7484,-142.0837"/>
<polygon fill="#000000" stroke="#000000" points="92.9526,-272.5925 91.2481,-283.0493 99.1015,-275.9378 92.9526,-272.5925"/>
</g>
<!-- Node13 -->
<g id="node14" class="node">
<title>Node13</title>
<g id="a_node14"><a xlink:href="a00540.html" target="_top" xlink:title="LC display SPI interface GPIO declarations.">
<polygon fill="#ffffff" stroke="#000000" points="385,-104.5 218,-104.5 218,-74.5 385,-74.5 385,-104.5"/>
<text text-anchor="start" x="226" y="-92.5" font-family="Helvetica,sans-Serif" font-size="10.00" fill="#000000">LC Display Interface</text>
<text text-anchor="middle" x="301.5" y="-81.5" font-family="Helvetica,sans-Serif" font-size="10.00" fill="#000000"> Declarations</text>
</a>
</g>
</g>
<!-- Node0&#45;&gt;Node13 -->
<g id="edge13" class="edge">
<title>Node0&#45;&gt;Node13</title>
<path fill="none" stroke="#000000" d="M92.5452,-273.8938C108.4909,-234.0492 145.4622,-155.723 203,-114.5 208.4499,-110.5954 214.4522,-107.2991 220.7228,-104.5166"/>
<polygon fill="#000000" stroke="#000000" points="89.2208,-272.7858 88.8592,-283.3745 95.745,-275.3224 89.2208,-272.7858"/>
</g>
<!-- Node6 -->
<g id="node15" class="node">
<title>Node6</title>
<g id="a_node15"><a xlink:href="a00501.html" target="_top" xlink:title="Declaration of fundamental PWM parameters.">
<polygon fill="#ffffff" stroke="#000000" points="355,-56 248,-56 248,-37 355,-37 355,-56"/>
<text text-anchor="middle" x="301.5" y="-44" font-family="Helvetica,sans-Serif" font-size="10.00" fill="#000000">PWM Settings</text>
</a>
</g>
</g>
<!-- Node0&#45;&gt;Node6 -->
<g id="edge6" class="edge">
<title>Node0&#45;&gt;Node6</title>
<path fill="none" stroke="#000000" d="M88.7479,-273.3142C100.2571,-224.7708 132.5142,-118.3893 203,-65.5 215.8159,-55.8835 232.1417,-50.725 247.7995,-48.0623"/>
<polygon fill="#000000" stroke="#000000" points="85.2845,-272.761 86.485,-283.2875 92.111,-274.3099 85.2845,-272.761"/>
</g>
<!-- Node8 -->
<g id="node16" class="node">
<title>Node8</title>
<g id="a_node16"><a xlink:href="a00515.html" target="_top" xlink:title="Declaration of output voltage feedback parameters.">
<polygon fill="#ffffff" stroke="#000000" points="396,-19 207,-19 207,0 396,0 396,-19"/>
<text text-anchor="middle" x="301.5" y="-7" font-family="Helvetica,sans-Serif" font-size="10.00" fill="#000000">Output Voltage Feedback</text>
</a>
</g>
</g>
<!-- Node0&#45;&gt;Node8 -->
<g id="edge8" class="edge">
<title>Node0&#45;&gt;Node8</title>
<path fill="none" stroke="#000000" d="M86.8506,-273.2122C95.4377,-219.0902 123.4575,-91.8209 203,-28.5 207.769,-24.7036 213.0751,-21.5901 218.6824,-19.0438"/>
<polygon fill="#000000" stroke="#000000" points="83.3578,-272.9045 85.342,-283.3119 90.281,-273.9387 83.3578,-272.9045"/>
</g>
</g>
</svg>
