<?xml version="1.0" encoding="UTF-8" standalone="no"?>
<!DOCTYPE svg PUBLIC "-//W3C//DTD SVG 1.1//EN"
 "http://www.w3.org/Graphics/SVG/1.1/DTD/svg11.dtd">
<!-- Generated by graphviz version 2.40.1 (0)
 -->
<!-- Title: Main Loop Pages: 1 -->
<svg width="557pt" height="76pt"
 viewBox="0.00 0.00 557.00 75.50" xmlns="http://www.w3.org/2000/svg" xmlns:xlink="http://www.w3.org/1999/xlink">
<g id="graph0" class="graph" transform="scale(1 1) rotate(0) translate(4 71.5)">
<title>Main Loop</title>
<polygon fill="#ffffff" stroke="transparent" points="-4,4 -4,-71.5 553,-71.5 553,4 -4,4"/>
<!-- Node2 -->
<g id="node1" class="node">
<title>Node2</title>
<g id="a_node1"><a xlink:href="a00644.html" target="_top" xlink:title="Low priority task execution The execution of the sequence of low priority tasks is called from the ma...">
<polygon fill="#ffffff" stroke="#000000" points="549,-67.5 330,-67.5 330,-48.5 549,-48.5 549,-67.5"/>
<text text-anchor="middle" x="439.5" y="-55.5" font-family="Helvetica,sans-Serif" font-size="10.00" fill="#000000">Low&#45;Priority Task Execution</text>
</a>
</g>
</g>
<!-- Node0 -->
<g id="node2" class="node">
<title>Node0</title>
<g id="a_node2"><a xlink:title="Main Loop.">
<polygon fill="#bfbfbf" stroke="#000000" points="294,-45.5 210,-45.5 210,-26.5 294,-26.5 294,-45.5"/>
<text text-anchor="middle" x="252" y="-33.5" font-family="Helvetica,sans-Serif" font-size="10.00" fill="#000000">Main Loop</text>
</a>
</g>
</g>
<!-- Node0&#45;&gt;Node2 -->
<g id="edge2" class="edge">
<title>Node0&#45;&gt;Node2</title>
<path fill="none" stroke="#000000" d="M304.2163,-42.1267C321.0015,-44.0962 340.013,-46.3269 358.3673,-48.4804"/>
<polygon fill="#000000" stroke="#000000" points="304.4184,-38.6265 294.0787,-40.9372 303.6026,-45.5788 304.4184,-38.6265"/>
</g>
<!-- Node3 -->
<g id="node4" class="node">
<title>Node3</title>
<g id="a_node4"><a xlink:href="a00645.html" target="_top" xlink:title="High priority task execution.">
<polygon fill="#ffffff" stroke="#000000" points="515.5,-30 363.5,-30 363.5,0 515.5,0 515.5,-30"/>
<text text-anchor="start" x="371.5" y="-18" font-family="Helvetica,sans-Serif" font-size="10.00" fill="#000000">High&#45;Priority Task</text>
<text text-anchor="middle" x="439.5" y="-7" font-family="Helvetica,sans-Serif" font-size="10.00" fill="#000000"> Execution</text>
</a>
</g>
</g>
<!-- Node0&#45;&gt;Node3 -->
<g id="edge3" class="edge">
<title>Node0&#45;&gt;Node3</title>
<path fill="none" stroke="#000000" d="M304.2231,-30.151C322.5037,-28.1036 343.4245,-25.7605 363.2609,-23.5388"/>
<polygon fill="#000000" stroke="#000000" points="303.6269,-26.6958 294.0787,-31.2872 304.4061,-33.6523 303.6269,-26.6958"/>
</g>
<!-- Node1 -->
<g id="node3" class="node">
<title>Node1</title>
<g id="a_node3"><a xlink:href="a00641.html" target="_top" xlink:title="Firmware Flowchart.">
<polygon fill="#ffffff" stroke="#000000" points="174,-45.5 0,-45.5 0,-26.5 174,-26.5 174,-45.5"/>
<text text-anchor="middle" x="87" y="-33.5" font-family="Helvetica,sans-Serif" font-size="10.00" fill="#000000">Firmware Architecture</text>
</a>
</g>
</g>
<!-- Node1&#45;&gt;Node0 -->
<g id="edge1" class="edge">
<title>Node1&#45;&gt;Node0</title>
<path fill="none" stroke="#000000" d="M184.4219,-36C193.2897,-36 201.9196,-36 209.8832,-36"/>
<polygon fill="#000000" stroke="#000000" points="184.3316,-32.5001 174.3315,-36 184.3315,-39.5001 184.3316,-32.5001"/>
</g>
</g>
</svg>
