<?xml version="1.0" encoding="UTF-8" standalone="no"?>
<!DOCTYPE svg PUBLIC "-//W3C//DTD SVG 1.1//EN"
 "http://www.w3.org/Graphics/SVG/1.1/DTD/svg11.dtd">
<!-- Generated by graphviz version 2.40.1 (0)
 -->
<!-- Title: Properties Pages: 1 -->
<svg width="558pt" height="101pt"
 viewBox="0.00 0.00 558.00 101.00" xmlns="http://www.w3.org/2000/svg" xmlns:xlink="http://www.w3.org/1999/xlink">
<g id="graph0" class="graph" transform="scale(1 1) rotate(0) translate(4 97)">
<title>Properties</title>
<polygon fill="#ffffff" stroke="transparent" points="-4,4 -4,-97 554,-97 554,4 -4,4"/>
<!-- Node3 -->
<g id="node1" class="node">
<title>Node3</title>
<g id="a_node1"><a xlink:href="a00621.html" target="_top" xlink:title=" ">
<polygon fill="#ffffff" stroke="#000000" points="509,-93 417,-93 417,-74 509,-74 509,-93"/>
<text text-anchor="middle" x="463" y="-81" font-family="Helvetica,sans-Serif" font-size="10.00" fill="#000000">Data Types</text>
</a>
</g>
</g>
<!-- Node2 -->
<g id="node2" class="node">
<title>Node2</title>
<g id="a_node2"><a xlink:href="a00620.html" target="_top" xlink:title=" ">
<polygon fill="#ffffff" stroke="#000000" points="550,-56 376,-56 376,-37 550,-37 550,-56"/>
<text text-anchor="middle" x="463" y="-44" font-family="Helvetica,sans-Serif" font-size="10.00" fill="#000000">Variables &amp; Constants</text>
</a>
</g>
</g>
<!-- Node4 -->
<g id="node3" class="node">
<title>Node4</title>
<g id="a_node3"><a xlink:href="a00622.html" target="_top" xlink:title=" ">
<polygon fill="#ffffff" stroke="#000000" points="539,-19 387,-19 387,0 539,0 539,-19"/>
<text text-anchor="middle" x="463" y="-7" font-family="Helvetica,sans-Serif" font-size="10.00" fill="#000000">Defines and Macros</text>
</a>
</g>
</g>
<!-- Node1 -->
<g id="node4" class="node">
<title>Node1</title>
<g id="a_node4"><a xlink:href="a00617.html" target="_top" xlink:title=" ">
<polygon fill="#ffffff" stroke="#000000" points="212,-56 0,-56 0,-37 212,-37 212,-56"/>
<text text-anchor="middle" x="106" y="-44" font-family="Helvetica,sans-Serif" font-size="10.00" fill="#000000">Boost Peripheral Templates</text>
</a>
</g>
</g>
<!-- Node0 -->
<g id="node5" class="node">
<title>Node0</title>
<g id="a_node5"><a xlink:title="Properties of the second library layer.">
<polygon fill="#bfbfbf" stroke="#000000" points="340,-56 248,-56 248,-37 340,-37 340,-56"/>
<text text-anchor="middle" x="294" y="-44" font-family="Helvetica,sans-Serif" font-size="10.00" fill="#000000">Properties</text>
</a>
</g>
</g>
<!-- Node1&#45;&gt;Node0 -->
<g id="edge1" class="edge">
<title>Node1&#45;&gt;Node0</title>
<path fill="none" stroke="#000000" d="M222.2523,-46.5C231.1653,-46.5 239.7951,-46.5 247.7956,-46.5"/>
<polygon fill="#000000" stroke="#000000" points="222.0874,-43.0001 212.0874,-46.5 222.0873,-50.0001 222.0874,-43.0001"/>
</g>
<!-- Node0&#45;&gt;Node3 -->
<g id="edge3" class="edge">
<title>Node0&#45;&gt;Node3</title>
<path fill="none" stroke="#000000" d="M344.265,-58.3449C354.7423,-60.7582 365.7237,-63.2467 376,-65.5 389.2582,-68.4071 403.6816,-71.4425 416.9026,-74.1746"/>
<polygon fill="#000000" stroke="#000000" points="344.9455,-54.9099 334.4138,-56.0643 343.3667,-61.7296 344.9455,-54.9099"/>
</g>
<!-- Node0&#45;&gt;Node2 -->
<g id="edge2" class="edge">
<title>Node0&#45;&gt;Node2</title>
<path fill="none" stroke="#000000" d="M350.3732,-46.5C358.6123,-46.5 367.254,-46.5 375.9319,-46.5"/>
<polygon fill="#000000" stroke="#000000" points="350.18,-43.0001 340.18,-46.5 350.18,-50.0001 350.18,-43.0001"/>
</g>
<!-- Node0&#45;&gt;Node4 -->
<g id="edge4" class="edge">
<title>Node0&#45;&gt;Node4</title>
<path fill="none" stroke="#000000" d="M344.265,-34.6551C354.7423,-32.2418 365.7237,-29.7533 376,-27.5 388.9569,-24.659 403.0266,-21.6954 415.9993,-19.0122"/>
<polygon fill="#000000" stroke="#000000" points="343.3667,-31.2704 334.4138,-36.9357 344.9455,-38.0901 343.3667,-31.2704"/>
</g>
</g>
</svg>
