<?xml version="1.0" encoding="UTF-8" standalone="no"?>
<!DOCTYPE svg PUBLIC "-//W3C//DTD SVG 1.1//EN"
 "http://www.w3.org/Graphics/SVG/1.1/DTD/svg11.dtd">
<!-- Generated by graphviz version 2.40.1 (0)
 -->
<!-- Title: Properties Pages: 1 -->
<svg width="588pt" height="101pt"
 viewBox="0.00 0.00 588.00 101.00" xmlns="http://www.w3.org/2000/svg" xmlns:xlink="http://www.w3.org/1999/xlink">
<g id="graph0" class="graph" transform="scale(1 1) rotate(0) translate(4 97)">
<title>Properties</title>
<polygon fill="#ffffff" stroke="transparent" points="-4,4 -4,-97 584,-97 584,4 -4,4"/>
<!-- Node2 -->
<g id="node1" class="node">
<title>Node2</title>
<g id="a_node1"><a xlink:href="a00614.html" target="_top" xlink:title=" ">
<polygon fill="#ffffff" stroke="#000000" points="580,-93 406,-93 406,-74 580,-74 580,-93"/>
<text text-anchor="middle" x="493" y="-81" font-family="Helvetica,sans-Serif" font-size="10.00" fill="#000000">Variables &amp; Constants</text>
</a>
</g>
</g>
<!-- Node0 -->
<g id="node2" class="node">
<title>Node0</title>
<g id="a_node2"><a xlink:title="Properties of the second library layer.">
<polygon fill="#bfbfbf" stroke="#000000" points="370,-56 278,-56 278,-37 370,-37 370,-56"/>
<text text-anchor="middle" x="324" y="-44" font-family="Helvetica,sans-Serif" font-size="10.00" fill="#000000">Properties</text>
</a>
</g>
</g>
<!-- Node0&#45;&gt;Node2 -->
<g id="edge2" class="edge">
<title>Node0&#45;&gt;Node2</title>
<path fill="none" stroke="#000000" d="M374.265,-58.3449C384.7423,-60.7582 395.7237,-63.2467 406,-65.5 418.9569,-68.341 433.0266,-71.3046 445.9993,-73.9878"/>
<polygon fill="#000000" stroke="#000000" points="374.9455,-54.9099 364.4138,-56.0643 373.3667,-61.7296 374.9455,-54.9099"/>
</g>
<!-- Node3 -->
<g id="node4" class="node">
<title>Node3</title>
<g id="a_node4"><a xlink:href="a00615.html" target="_top" xlink:title=" ">
<polygon fill="#ffffff" stroke="#000000" points="539,-56 447,-56 447,-37 539,-37 539,-56"/>
<text text-anchor="middle" x="493" y="-44" font-family="Helvetica,sans-Serif" font-size="10.00" fill="#000000">Data Types</text>
</a>
</g>
</g>
<!-- Node0&#45;&gt;Node3 -->
<g id="edge3" class="edge">
<title>Node0&#45;&gt;Node3</title>
<path fill="none" stroke="#000000" d="M380.2239,-46.5C401.8623,-46.5 426.2969,-46.5 446.8758,-46.5"/>
<polygon fill="#000000" stroke="#000000" points="380.18,-43.0001 370.18,-46.5 380.18,-50.0001 380.18,-43.0001"/>
</g>
<!-- Node4 -->
<g id="node5" class="node">
<title>Node4</title>
<g id="a_node5"><a xlink:href="a00616.html" target="_top" xlink:title=" ">
<polygon fill="#ffffff" stroke="#000000" points="569,-19 417,-19 417,0 569,0 569,-19"/>
<text text-anchor="middle" x="493" y="-7" font-family="Helvetica,sans-Serif" font-size="10.00" fill="#000000">Defines and Macros</text>
</a>
</g>
</g>
<!-- Node0&#45;&gt;Node4 -->
<g id="edge4" class="edge">
<title>Node0&#45;&gt;Node4</title>
<path fill="none" stroke="#000000" d="M374.265,-34.6551C384.7423,-32.2418 395.7237,-29.7533 406,-27.5 418.9569,-24.659 433.0266,-21.6954 445.9993,-19.0122"/>
<polygon fill="#000000" stroke="#000000" points="373.3667,-31.2704 364.4138,-36.9357 374.9455,-38.0901 373.3667,-31.2704"/>
</g>
<!-- Node1 -->
<g id="node3" class="node">
<title>Node1</title>
<g id="a_node3"><a xlink:href="a00611.html" target="_top" xlink:title=" ">
<polygon fill="#ffffff" stroke="#000000" points="242,-56 0,-56 0,-37 242,-37 242,-56"/>
<text text-anchor="middle" x="121" y="-44" font-family="Helvetica,sans-Serif" font-size="10.00" fill="#000000">Boost Peripheral Configuration</text>
</a>
</g>
</g>
<!-- Node1&#45;&gt;Node0 -->
<g id="edge1" class="edge">
<title>Node1&#45;&gt;Node0</title>
<path fill="none" stroke="#000000" d="M252.2162,-46.5C261.1377,-46.5 269.7233,-46.5 277.6623,-46.5"/>
<polygon fill="#000000" stroke="#000000" points="252.0173,-43.0001 242.0173,-46.5 252.0172,-50.0001 252.0173,-43.0001"/>
</g>
</g>
</svg>
