<?xml version="1.0" encoding="UTF-8" standalone="no"?>
<!DOCTYPE svg PUBLIC "-//W3C//DTD SVG 1.1//EN"
 "http://www.w3.org/Graphics/SVG/1.1/DTD/svg11.dtd">
<!-- Generated by graphviz version 2.40.1 (0)
 -->
<!-- Title: Push&#45;Button Library Pages: 1 -->
<svg width="565pt" height="138pt"
 viewBox="0.00 0.00 565.00 138.00" xmlns="http://www.w3.org/2000/svg" xmlns:xlink="http://www.w3.org/1999/xlink">
<g id="graph0" class="graph" transform="scale(1 1) rotate(0) translate(4 134)">
<title>Push&#45;Button Library</title>
<polygon fill="#ffffff" stroke="transparent" points="-4,4 -4,-134 561,-134 561,4 -4,4"/>
<!-- Node3 -->
<g id="node1" class="node">
<title>Node3</title>
<g id="a_node1"><a xlink:href="a00638.html" target="_top" xlink:title="Public properties of the push button device driver library.">
<polygon fill="#ffffff" stroke="#000000" points="553,-130 409,-130 409,-111 553,-111 553,-130"/>
<text text-anchor="middle" x="481" y="-118" font-family="Helvetica,sans-Serif" font-size="10.00" fill="#000000">Public Properties</text>
</a>
</g>
</g>
<!-- Node5 -->
<g id="node2" class="node">
<title>Node5</title>
<g id="a_node2"><a xlink:href="a00640.html" target="_top" xlink:title="Private properties of the push button device driver library.">
<polygon fill="#ffffff" stroke="#000000" points="557,-93 405,-93 405,-74 557,-74 557,-93"/>
<text text-anchor="middle" x="481" y="-81" font-family="Helvetica,sans-Serif" font-size="10.00" fill="#000000">Private Properties</text>
</a>
</g>
</g>
<!-- Node2 -->
<g id="node3" class="node">
<title>Node2</title>
<g id="a_node3"><a xlink:href="a00637.html" target="_top" xlink:title="Public functions of the push button device driver library.">
<polygon fill="#ffffff" stroke="#000000" points="549.5,-56 412.5,-56 412.5,-37 549.5,-37 549.5,-56"/>
<text text-anchor="middle" x="481" y="-44" font-family="Helvetica,sans-Serif" font-size="10.00" fill="#000000">Public Functions</text>
</a>
</g>
</g>
<!-- Node0 -->
<g id="node4" class="node">
<title>Node0</title>
<g id="a_node4"><a xlink:title=" ">
<polygon fill="#bfbfbf" stroke="#000000" points="369,-74 210,-74 210,-55 369,-55 369,-74"/>
<text text-anchor="middle" x="289.5" y="-62" font-family="Helvetica,sans-Serif" font-size="10.00" fill="#000000">Push&#45;Button Library</text>
</a>
</g>
</g>
<!-- Node0&#45;&gt;Node3 -->
<g id="edge3" class="edge">
<title>Node0&#45;&gt;Node3</title>
<path fill="none" stroke="#000000" d="M325.9087,-77.3624C348.5245,-85.1311 378.2785,-94.9547 405,-102.5 415.5699,-105.4846 427.0596,-108.3825 437.8288,-110.9499"/>
<polygon fill="#000000" stroke="#000000" points="326.9653,-74.0244 316.3705,-74.0625 324.6766,-80.6397 326.9653,-74.0244"/>
</g>
<!-- Node0&#45;&gt;Node5 -->
<g id="edge5" class="edge">
<title>Node0&#45;&gt;Node5</title>
<path fill="none" stroke="#000000" d="M379.0846,-73.3883C387.6731,-74.2404 396.328,-75.0991 404.7714,-75.9369"/>
<polygon fill="#000000" stroke="#000000" points="379.3463,-69.8972 369.0496,-72.3926 378.6551,-76.863 379.3463,-69.8972"/>
</g>
<!-- Node0&#45;&gt;Node2 -->
<g id="edge2" class="edge">
<title>Node0&#45;&gt;Node2</title>
<path fill="none" stroke="#000000" d="M379.2307,-56.0658C390.3691,-55.0188 401.6166,-53.9616 412.367,-52.9511"/>
<polygon fill="#000000" stroke="#000000" points="378.6781,-52.6022 369.0496,-57.0228 379.3333,-59.5715 378.6781,-52.6022"/>
</g>
<!-- Node4 -->
<g id="node6" class="node">
<title>Node4</title>
<g id="a_node6"><a xlink:href="a00639.html" target="_top" xlink:title="Private functions of the push button device driver library.">
<polygon fill="#ffffff" stroke="#000000" points="553,-19 409,-19 409,0 553,0 553,-19"/>
<text text-anchor="middle" x="481" y="-7" font-family="Helvetica,sans-Serif" font-size="10.00" fill="#000000">Private Functions</text>
</a>
</g>
</g>
<!-- Node0&#45;&gt;Node4 -->
<g id="edge4" class="edge">
<title>Node0&#45;&gt;Node4</title>
<path fill="none" stroke="#000000" d="M326.8389,-51.7284C349.3497,-44.2318 378.6705,-34.8234 405,-27.5 415.7121,-24.5205 427.3594,-21.6029 438.2437,-19.0133"/>
<polygon fill="#000000" stroke="#000000" points="325.6934,-48.4209 317.3244,-54.918 327.9184,-55.0579 325.6934,-48.4209"/>
</g>
<!-- Node1 -->
<g id="node5" class="node">
<title>Node1</title>
<g id="a_node5"><a xlink:href="a00660.html" target="_top" xlink:title="Generic Device Driver Layer.">
<polygon fill="#ffffff" stroke="#000000" points="174,-79.5 0,-79.5 0,-49.5 174,-49.5 174,-79.5"/>
<text text-anchor="start" x="8" y="-67.5" font-family="Helvetica,sans-Serif" font-size="10.00" fill="#000000">Device Driver Library</text>
<text text-anchor="middle" x="87" y="-56.5" font-family="Helvetica,sans-Serif" font-size="10.00" fill="#000000"> Layer</text>
</a>
</g>
</g>
<!-- Node1&#45;&gt;Node0 -->
<g id="edge1" class="edge">
<title>Node1&#45;&gt;Node0</title>
<path fill="none" stroke="#000000" d="M184.1413,-64.5C192.7631,-64.5 201.4246,-64.5 209.8754,-64.5"/>
<polygon fill="#000000" stroke="#000000" points="184.0535,-61.0001 174.0534,-64.5 184.0534,-68.0001 184.0535,-61.0001"/>
</g>
</g>
</svg>
