<?xml version="1.0" encoding="UTF-8" standalone="no"?>
<!DOCTYPE svg PUBLIC "-//W3C//DTD SVG 1.1//EN"
 "http://www.w3.org/Graphics/SVG/1.1/DTD/svg11.dtd">
<!-- Generated by graphviz version 2.40.1 (0)
 -->
<!-- Title: Initializing Essential Chip Resources Pages: 1 -->
<svg width="633pt" height="150pt"
 viewBox="0.00 0.00 633.00 149.50" xmlns="http://www.w3.org/2000/svg" xmlns:xlink="http://www.w3.org/1999/xlink">
<g id="graph0" class="graph" transform="scale(1 1) rotate(0) translate(4 145.5)">
<title>Initializing Essential Chip Resources</title>
<polygon fill="#ffffff" stroke="transparent" points="-4,4 -4,-145.5 629,-145.5 629,4 -4,4"/>
<!-- Node2 -->
<g id="node1" class="node">
<title>Node2</title>
<g id="a_node1"><a xlink:href="a00647.html" target="_top" xlink:title=" ">
<polygon fill="#ffffff" stroke="#000000" points="602.5,-141.5 405.5,-141.5 405.5,-122.5 602.5,-122.5 602.5,-141.5"/>
<text text-anchor="middle" x="504" y="-129.5" font-family="Helvetica,sans-Serif" font-size="10.00" fill="#000000">Basic MCU Initialization</text>
</a>
</g>
</g>
<!-- Node0 -->
<g id="node2" class="node">
<title>Node0</title>
<g id="a_node2"><a xlink:title=" ">
<polygon fill="#bfbfbf" stroke="#000000" points="347,-91 165,-91 165,-61 347,-61 347,-91"/>
<text text-anchor="start" x="173" y="-79" font-family="Helvetica,sans-Serif" font-size="10.00" fill="#000000">Initializing Essential</text>
<text text-anchor="middle" x="256" y="-68" font-family="Helvetica,sans-Serif" font-size="10.00" fill="#000000"> Chip Resources</text>
</a>
</g>
</g>
<!-- Node0&#45;&gt;Node2 -->
<g id="edge2" class="edge">
<title>Node0&#45;&gt;Node2</title>
<path fill="none" stroke="#000000" d="M310.1973,-94.079C332.5504,-101.0465 358.8335,-108.6161 383,-114 397.6146,-117.2559 413.3564,-120.0837 428.4961,-122.4721"/>
<polygon fill="#000000" stroke="#000000" points="311.1413,-90.7068 300.5515,-91.0344 309.0342,-97.3821 311.1413,-90.7068"/>
</g>
<!-- Node3 -->
<g id="node3" class="node">
<title>Node3</title>
<g id="a_node3"><a xlink:href="a00648.html" target="_top" xlink:title=" ">
<polygon fill="#ffffff" stroke="#000000" points="625,-104.5 383,-104.5 383,-85.5 625,-85.5 625,-104.5"/>
<text text-anchor="middle" x="504" y="-92.5" font-family="Helvetica,sans-Serif" font-size="10.00" fill="#000000">Main Oscillator Initialization</text>
</a>
</g>
</g>
<!-- Node0&#45;&gt;Node3 -->
<g id="edge3" class="edge">
<title>Node0&#45;&gt;Node3</title>
<path fill="none" stroke="#000000" d="M357.4424,-83.7718C365.8327,-84.4146 374.3657,-85.0683 382.8805,-85.7207"/>
<polygon fill="#000000" stroke="#000000" points="357.5277,-80.2682 347.2895,-82.994 356.9929,-87.2477 357.5277,-80.2682"/>
</g>
<!-- Node4 -->
<g id="node4" class="node">
<title>Node4</title>
<g id="a_node4"><a xlink:href="a00649.html" target="_top" xlink:title=" ">
<polygon fill="#ffffff" stroke="#000000" points="602.5,-67.5 405.5,-67.5 405.5,-48.5 602.5,-48.5 602.5,-67.5"/>
<text text-anchor="middle" x="504" y="-55.5" font-family="Helvetica,sans-Serif" font-size="10.00" fill="#000000">Device Pin Configuration</text>
</a>
</g>
</g>
<!-- Node0&#45;&gt;Node4 -->
<g id="edge4" class="edge">
<title>Node0&#45;&gt;Node4</title>
<path fill="none" stroke="#000000" d="M357.584,-68.627C373.3765,-67.4807 389.6708,-66.2981 405.3959,-65.1568"/>
<polygon fill="#000000" stroke="#000000" points="357.0099,-65.1593 347.2895,-69.3741 357.5167,-72.141 357.0099,-65.1593"/>
</g>
<!-- Node5 -->
<g id="node5" class="node">
<title>Node5</title>
<g id="a_node5"><a xlink:href="a00650.html" target="_top" xlink:title=" ">
<polygon fill="#ffffff" stroke="#000000" points="602.5,-30 405.5,-30 405.5,0 602.5,0 602.5,-30"/>
<text text-anchor="start" x="413.5" y="-18" font-family="Helvetica,sans-Serif" font-size="10.00" fill="#000000">Digital Signal Processor</text>
<text text-anchor="middle" x="504" y="-7" font-family="Helvetica,sans-Serif" font-size="10.00" fill="#000000"> Configuration</text>
</a>
</g>
</g>
<!-- Node0&#45;&gt;Node5 -->
<g id="edge5" class="edge">
<title>Node0&#45;&gt;Node5</title>
<path fill="none" stroke="#000000" d="M313.6696,-58.0389C335.3017,-51.6084 360.1717,-44.578 383,-39 395.8986,-35.8483 409.6466,-32.8155 423.0761,-30.0289"/>
<polygon fill="#000000" stroke="#000000" points="312.5515,-54.7201 303.9774,-60.9439 314.5613,-61.4254 312.5515,-54.7201"/>
</g>
<!-- Node1 -->
<g id="node6" class="node">
<title>Node1</title>
<g id="a_node6"><a xlink:href="a00642.html" target="_top" xlink:title="Device Start Up.">
<polygon fill="#ffffff" stroke="#000000" points="129,-85.5 0,-85.5 0,-66.5 129,-66.5 129,-85.5"/>
<text text-anchor="middle" x="64.5" y="-73.5" font-family="Helvetica,sans-Serif" font-size="10.00" fill="#000000">Device Start Up</text>
</a>
</g>
</g>
<!-- Node1&#45;&gt;Node0 -->
<g id="edge1" class="edge">
<title>Node1&#45;&gt;Node0</title>
<path fill="none" stroke="#000000" d="M139.1978,-76C147.6121,-76 156.2545,-76 164.8474,-76"/>
<polygon fill="#000000" stroke="#000000" points="139.0662,-72.5001 129.0662,-76 139.0662,-79.5001 139.0662,-72.5001"/>
</g>
</g>
</svg>
