<?xml version="1.0" encoding="UTF-8" standalone="no"?>
<!DOCTYPE svg PUBLIC "-//W3C//DTD SVG 1.1//EN"
 "http://www.w3.org/Graphics/SVG/1.1/DTD/svg11.dtd">
<!-- Generated by graphviz version 2.40.1 (0)
 -->
<!-- Title: P33C_GPIO_INSTANCE_s Pages: 1 -->
<svg width="1442pt" height="413pt"
 viewBox="0.00 0.00 1442.00 413.00" xmlns="http://www.w3.org/2000/svg" xmlns:xlink="http://www.w3.org/1999/xlink">
<g id="graph0" class="graph" transform="scale(1 1) rotate(0) translate(4 409)">
<title>P33C_GPIO_INSTANCE_s</title>
<polygon fill="#ffffff" stroke="transparent" points="-4,4 -4,-409 1438,-409 1438,4 -4,4"/>
<!-- Node1 -->
<g id="node1" class="node">
<title>Node1</title>
<g id="a_node1"><a xlink:title=" ">
<polygon fill="#bfbfbf" stroke="#000000" points="633.5,-.5 633.5,-189.5 800.5,-189.5 800.5,-.5 633.5,-.5"/>
<text text-anchor="middle" x="717" y="-177.5" font-family="Helvetica,sans-Serif" font-size="10.00" fill="#000000">P33C_GPIO_INSTANCE_s</text>
<polyline fill="none" stroke="#000000" points="633.5,-170.5 800.5,-170.5 "/>
<text text-anchor="start" x="641.5" y="-158.5" font-family="Helvetica,sans-Serif" font-size="10.00" fill="#000000">+ value</text>
<text text-anchor="start" x="641.5" y="-147.5" font-family="Helvetica,sans-Serif" font-size="10.00" fill="#000000">+ ANSELx</text>
<text text-anchor="start" x="641.5" y="-136.5" font-family="Helvetica,sans-Serif" font-size="10.00" fill="#000000">+ TRISx</text>
<text text-anchor="start" x="641.5" y="-125.5" font-family="Helvetica,sans-Serif" font-size="10.00" fill="#000000">+ PORTx</text>
<text text-anchor="start" x="641.5" y="-114.5" font-family="Helvetica,sans-Serif" font-size="10.00" fill="#000000">+ LATx</text>
<text text-anchor="start" x="641.5" y="-103.5" font-family="Helvetica,sans-Serif" font-size="10.00" fill="#000000">+ ODCx</text>
<text text-anchor="start" x="641.5" y="-92.5" font-family="Helvetica,sans-Serif" font-size="10.00" fill="#000000">+ CNPUx</text>
<text text-anchor="start" x="641.5" y="-81.5" font-family="Helvetica,sans-Serif" font-size="10.00" fill="#000000">+ CNPDx</text>
<text text-anchor="start" x="641.5" y="-70.5" font-family="Helvetica,sans-Serif" font-size="10.00" fill="#000000">+ CNCONx</text>
<text text-anchor="start" x="641.5" y="-59.5" font-family="Helvetica,sans-Serif" font-size="10.00" fill="#000000">+ CNEN0x</text>
<text text-anchor="start" x="641.5" y="-48.5" font-family="Helvetica,sans-Serif" font-size="10.00" fill="#000000">+ CNSTATx</text>
<text text-anchor="start" x="641.5" y="-37.5" font-family="Helvetica,sans-Serif" font-size="10.00" fill="#000000">+ CNEN1x</text>
<text text-anchor="start" x="641.5" y="-26.5" font-family="Helvetica,sans-Serif" font-size="10.00" fill="#000000">+ CNFx</text>
<polyline fill="none" stroke="#000000" points="633.5,-19.5 800.5,-19.5 "/>
<text text-anchor="middle" x="717" y="-7.5" font-family="Helvetica,sans-Serif" font-size="10.00" fill="#000000"> </text>
</a>
</g>
</g>
<!-- Node2 -->
<g id="node2" class="node">
<title>Node2</title>
<g id="a_node2"><a xlink:href="a01221.html" target="_top" xlink:title=" ">
<polygon fill="#ffffff" stroke="#000000" points="0,-237.5 0,-404.5 114,-404.5 114,-237.5 0,-237.5"/>
<text text-anchor="middle" x="57" y="-392.5" font-family="Helvetica,sans-Serif" font-size="10.00" fill="#000000">CNEN1x_s</text>
<polyline fill="none" stroke="#000000" points="0,-385.5 114,-385.5 "/>
<text text-anchor="start" x="8" y="-373.5" font-family="Helvetica,sans-Serif" font-size="10.00" fill="#000000">+ CNEN1x0</text>
<text text-anchor="start" x="8" y="-362.5" font-family="Helvetica,sans-Serif" font-size="10.00" fill="#000000">+ CNEN1x1</text>
<text text-anchor="start" x="8" y="-351.5" font-family="Helvetica,sans-Serif" font-size="10.00" fill="#000000">+ CNEN1x2</text>
<text text-anchor="start" x="8" y="-340.5" font-family="Helvetica,sans-Serif" font-size="10.00" fill="#000000">+ CNEN1x3</text>
<text text-anchor="start" x="8" y="-329.5" font-family="Helvetica,sans-Serif" font-size="10.00" fill="#000000">+ CNEN1x4</text>
<text text-anchor="start" x="8" y="-318.5" font-family="Helvetica,sans-Serif" font-size="10.00" fill="#000000">+ CNEN1x5</text>
<text text-anchor="start" x="8" y="-307.5" font-family="Helvetica,sans-Serif" font-size="10.00" fill="#000000">+ CNEN1x6</text>
<text text-anchor="start" x="8" y="-296.5" font-family="Helvetica,sans-Serif" font-size="10.00" fill="#000000">+ CNEN1x7</text>
<text text-anchor="start" x="8" y="-285.5" font-family="Helvetica,sans-Serif" font-size="10.00" fill="#000000">+ CNEN1x8</text>
<text text-anchor="start" x="8" y="-274.5" font-family="Helvetica,sans-Serif" font-size="10.00" fill="#000000">+ CNEN1x9</text>
<text text-anchor="start" x="8" y="-263.5" font-family="Helvetica,sans-Serif" font-size="10.00" fill="#000000">and 6 more...</text>
<polyline fill="none" stroke="#000000" points="0,-256.5 114,-256.5 "/>
<text text-anchor="middle" x="57" y="-244.5" font-family="Helvetica,sans-Serif" font-size="10.00" fill="#000000"> </text>
</a>
</g>
</g>
<!-- Node2&#45;&gt;Node1 -->
<g id="edge1" class="edge">
<title>Node2&#45;&gt;Node1</title>
<path fill="none" stroke="#404040" d="M114.3644,-243.2539C117.1644,-241.016 120.0446,-238.9191 123,-237 204.6839,-183.9577 475.0283,-133.917 621.1951,-109.8854"/>
<polygon fill="none" stroke="#404040" points="621.3781,-109.8556 626.6547,-104.9406 633.2211,-107.9209 627.9445,-112.8359 621.3781,-109.8556"/>
<text text-anchor="middle" x="202" y="-211" font-family="Helvetica,sans-Serif" font-size="10.00" fill="#000000"> +bits</text>
</g>
<!-- Node3 -->
<g id="node3" class="node">
<title>Node3</title>
<g id="a_node3"><a xlink:href="a01213.html" target="_top" xlink:title=" ">
<polygon fill="#ffffff" stroke="#000000" points="132,-237.5 132,-404.5 246,-404.5 246,-237.5 132,-237.5"/>
<text text-anchor="middle" x="189" y="-392.5" font-family="Helvetica,sans-Serif" font-size="10.00" fill="#000000">CNEN0x_s</text>
<polyline fill="none" stroke="#000000" points="132,-385.5 246,-385.5 "/>
<text text-anchor="start" x="140" y="-373.5" font-family="Helvetica,sans-Serif" font-size="10.00" fill="#000000">+ CNEN0x0</text>
<text text-anchor="start" x="140" y="-362.5" font-family="Helvetica,sans-Serif" font-size="10.00" fill="#000000">+ CNEN0x1</text>
<text text-anchor="start" x="140" y="-351.5" font-family="Helvetica,sans-Serif" font-size="10.00" fill="#000000">+ CNEN0x2</text>
<text text-anchor="start" x="140" y="-340.5" font-family="Helvetica,sans-Serif" font-size="10.00" fill="#000000">+ CNEN0x3</text>
<text text-anchor="start" x="140" y="-329.5" font-family="Helvetica,sans-Serif" font-size="10.00" fill="#000000">+ CNEN0x4</text>
<text text-anchor="start" x="140" y="-318.5" font-family="Helvetica,sans-Serif" font-size="10.00" fill="#000000">+ CNEN0x5</text>
<text text-anchor="start" x="140" y="-307.5" font-family="Helvetica,sans-Serif" font-size="10.00" fill="#000000">+ CNEN0x6</text>
<text text-anchor="start" x="140" y="-296.5" font-family="Helvetica,sans-Serif" font-size="10.00" fill="#000000">+ CNEN0x7</text>
<text text-anchor="start" x="140" y="-285.5" font-family="Helvetica,sans-Serif" font-size="10.00" fill="#000000">+ CNEN0x8</text>
<text text-anchor="start" x="140" y="-274.5" font-family="Helvetica,sans-Serif" font-size="10.00" fill="#000000">+ CNEN0x9</text>
<text text-anchor="start" x="140" y="-263.5" font-family="Helvetica,sans-Serif" font-size="10.00" fill="#000000">and 6 more...</text>
<polyline fill="none" stroke="#000000" points="132,-256.5 246,-256.5 "/>
<text text-anchor="middle" x="189" y="-244.5" font-family="Helvetica,sans-Serif" font-size="10.00" fill="#000000"> </text>
</a>
</g>
</g>
<!-- Node3&#45;&gt;Node1 -->
<g id="edge2" class="edge">
<title>Node3&#45;&gt;Node1</title>
<path fill="none" stroke="#404040" d="M246.0573,-243.8096C248.9586,-241.3828 251.9418,-239.099 255,-237 367.0727,-160.0781 522.3027,-123.647 621.1953,-107.2636"/>
<polygon fill="none" stroke="#404040" points="621.4213,-107.2273 626.7079,-102.323 633.2682,-105.3168 627.9816,-110.221 621.4213,-107.2273"/>
<text text-anchor="middle" x="323" y="-211" font-family="Helvetica,sans-Serif" font-size="10.00" fill="#000000"> +bits</text>
</g>
<!-- Node4 -->
<g id="node4" class="node">
<title>Node4</title>
<g id="a_node4"><a xlink:href="a01189.html" target="_top" xlink:title=" ">
<polygon fill="#ffffff" stroke="#000000" points="264,-237.5 264,-404.5 378,-404.5 378,-237.5 264,-237.5"/>
<text text-anchor="middle" x="321" y="-392.5" font-family="Helvetica,sans-Serif" font-size="10.00" fill="#000000">TRISx_s</text>
<polyline fill="none" stroke="#000000" points="264,-385.5 378,-385.5 "/>
<text text-anchor="start" x="272" y="-373.5" font-family="Helvetica,sans-Serif" font-size="10.00" fill="#000000">+ TRISx0</text>
<text text-anchor="start" x="272" y="-362.5" font-family="Helvetica,sans-Serif" font-size="10.00" fill="#000000">+ TRISx1</text>
<text text-anchor="start" x="272" y="-351.5" font-family="Helvetica,sans-Serif" font-size="10.00" fill="#000000">+ TRISx2</text>
<text text-anchor="start" x="272" y="-340.5" font-family="Helvetica,sans-Serif" font-size="10.00" fill="#000000">+ TRISx3</text>
<text text-anchor="start" x="272" y="-329.5" font-family="Helvetica,sans-Serif" font-size="10.00" fill="#000000">+ TRISx4</text>
<text text-anchor="start" x="272" y="-318.5" font-family="Helvetica,sans-Serif" font-size="10.00" fill="#000000">+ TRISx5</text>
<text text-anchor="start" x="272" y="-307.5" font-family="Helvetica,sans-Serif" font-size="10.00" fill="#000000">+ TRISx6</text>
<text text-anchor="start" x="272" y="-296.5" font-family="Helvetica,sans-Serif" font-size="10.00" fill="#000000">+ TRISx7</text>
<text text-anchor="start" x="272" y="-285.5" font-family="Helvetica,sans-Serif" font-size="10.00" fill="#000000">+ TRISx8</text>
<text text-anchor="start" x="272" y="-274.5" font-family="Helvetica,sans-Serif" font-size="10.00" fill="#000000">+ TRISx9</text>
<text text-anchor="start" x="272" y="-263.5" font-family="Helvetica,sans-Serif" font-size="10.00" fill="#000000">and 6 more...</text>
<polyline fill="none" stroke="#000000" points="264,-256.5 378,-256.5 "/>
<text text-anchor="middle" x="321" y="-244.5" font-family="Helvetica,sans-Serif" font-size="10.00" fill="#000000"> </text>
</a>
</g>
</g>
<!-- Node4&#45;&gt;Node1 -->
<g id="edge3" class="edge">
<title>Node4&#45;&gt;Node1</title>
<path fill="none" stroke="#404040" d="M378.358,-244.2232C381.176,-241.6819 384.0597,-239.2613 387,-237 457.4555,-182.8152 551.7295,-144.9537 621.4719,-122.0327"/>
<polygon fill="none" stroke="#404040" points="621.9015,-121.894 626.381,-116.243 633.3203,-118.2045 628.8407,-123.8555 621.9015,-121.894"/>
<text text-anchor="middle" x="450" y="-211" font-family="Helvetica,sans-Serif" font-size="10.00" fill="#000000"> +bits</text>
</g>
<!-- Node5 -->
<g id="node5" class="node">
<title>Node5</title>
<g id="a_node5"><a xlink:href="a01201.html" target="_top" xlink:title=" ">
<polygon fill="#ffffff" stroke="#000000" points="396,-237.5 396,-404.5 510,-404.5 510,-237.5 396,-237.5"/>
<text text-anchor="middle" x="453" y="-392.5" font-family="Helvetica,sans-Serif" font-size="10.00" fill="#000000">ODCx_s</text>
<polyline fill="none" stroke="#000000" points="396,-385.5 510,-385.5 "/>
<text text-anchor="start" x="404" y="-373.5" font-family="Helvetica,sans-Serif" font-size="10.00" fill="#000000">+ ODCx0</text>
<text text-anchor="start" x="404" y="-362.5" font-family="Helvetica,sans-Serif" font-size="10.00" fill="#000000">+ ODCx1</text>
<text text-anchor="start" x="404" y="-351.5" font-family="Helvetica,sans-Serif" font-size="10.00" fill="#000000">+ ODCx2</text>
<text text-anchor="start" x="404" y="-340.5" font-family="Helvetica,sans-Serif" font-size="10.00" fill="#000000">+ ODCx3</text>
<text text-anchor="start" x="404" y="-329.5" font-family="Helvetica,sans-Serif" font-size="10.00" fill="#000000">+ ODCx4</text>
<text text-anchor="start" x="404" y="-318.5" font-family="Helvetica,sans-Serif" font-size="10.00" fill="#000000">+ ODCx5</text>
<text text-anchor="start" x="404" y="-307.5" font-family="Helvetica,sans-Serif" font-size="10.00" fill="#000000">+ ODCx6</text>
<text text-anchor="start" x="404" y="-296.5" font-family="Helvetica,sans-Serif" font-size="10.00" fill="#000000">+ ODCx7</text>
<text text-anchor="start" x="404" y="-285.5" font-family="Helvetica,sans-Serif" font-size="10.00" fill="#000000">+ ODCx8</text>
<text text-anchor="start" x="404" y="-274.5" font-family="Helvetica,sans-Serif" font-size="10.00" fill="#000000">+ ODCx9</text>
<text text-anchor="start" x="404" y="-263.5" font-family="Helvetica,sans-Serif" font-size="10.00" fill="#000000">and 6 more...</text>
<polyline fill="none" stroke="#000000" points="396,-256.5 510,-256.5 "/>
<text text-anchor="middle" x="453" y="-244.5" font-family="Helvetica,sans-Serif" font-size="10.00" fill="#000000"> </text>
</a>
</g>
</g>
<!-- Node5&#45;&gt;Node1 -->
<g id="edge4" class="edge">
<title>Node5&#45;&gt;Node1</title>
<path fill="none" stroke="#404040" d="M510.2332,-245.826C513.1239,-242.778 516.0524,-239.8212 519,-237 550.5688,-206.7848 588.901,-177.8325 623.3976,-154.0439"/>
<polygon fill="none" stroke="#404040" points="623.58,-153.9194 626.2804,-147.233 633.4911,-147.1539 630.7907,-153.8404 623.58,-153.9194"/>
<text text-anchor="middle" x="572" y="-211" font-family="Helvetica,sans-Serif" font-size="10.00" fill="#000000"> +bits</text>
</g>
<!-- Node6 -->
<g id="node6" class="node">
<title>Node6</title>
<g id="a_node6"><a xlink:href="a01197.html" target="_top" xlink:title=" ">
<polygon fill="#ffffff" stroke="#000000" points="528,-237.5 528,-404.5 642,-404.5 642,-237.5 528,-237.5"/>
<text text-anchor="middle" x="585" y="-392.5" font-family="Helvetica,sans-Serif" font-size="10.00" fill="#000000">LATx_s</text>
<polyline fill="none" stroke="#000000" points="528,-385.5 642,-385.5 "/>
<text text-anchor="start" x="536" y="-373.5" font-family="Helvetica,sans-Serif" font-size="10.00" fill="#000000">+ LATx0</text>
<text text-anchor="start" x="536" y="-362.5" font-family="Helvetica,sans-Serif" font-size="10.00" fill="#000000">+ LATx1</text>
<text text-anchor="start" x="536" y="-351.5" font-family="Helvetica,sans-Serif" font-size="10.00" fill="#000000">+ LATx2</text>
<text text-anchor="start" x="536" y="-340.5" font-family="Helvetica,sans-Serif" font-size="10.00" fill="#000000">+ LATx3</text>
<text text-anchor="start" x="536" y="-329.5" font-family="Helvetica,sans-Serif" font-size="10.00" fill="#000000">+ LATx4</text>
<text text-anchor="start" x="536" y="-318.5" font-family="Helvetica,sans-Serif" font-size="10.00" fill="#000000">+ LATx5</text>
<text text-anchor="start" x="536" y="-307.5" font-family="Helvetica,sans-Serif" font-size="10.00" fill="#000000">+ LATx6</text>
<text text-anchor="start" x="536" y="-296.5" font-family="Helvetica,sans-Serif" font-size="10.00" fill="#000000">+ LATx7</text>
<text text-anchor="start" x="536" y="-285.5" font-family="Helvetica,sans-Serif" font-size="10.00" fill="#000000">+ LATx8</text>
<text text-anchor="start" x="536" y="-274.5" font-family="Helvetica,sans-Serif" font-size="10.00" fill="#000000">+ LATx9</text>
<text text-anchor="start" x="536" y="-263.5" font-family="Helvetica,sans-Serif" font-size="10.00" fill="#000000">and 6 more...</text>
<polyline fill="none" stroke="#000000" points="528,-256.5 642,-256.5 "/>
<text text-anchor="middle" x="585" y="-244.5" font-family="Helvetica,sans-Serif" font-size="10.00" fill="#000000"> </text>
</a>
</g>
</g>
<!-- Node6&#45;&gt;Node1 -->
<g id="edge5" class="edge">
<title>Node6&#45;&gt;Node1</title>
<path fill="none" stroke="#404040" d="M633.7769,-237.488C640.8915,-225.307 648.2932,-212.6343 655.6187,-200.0923"/>
<polygon fill="none" stroke="#404040" points="655.6939,-199.9633 655.266,-192.7649 661.7461,-189.6013 662.174,-196.7997 655.6939,-199.9633"/>
<text text-anchor="middle" x="674" y="-211" font-family="Helvetica,sans-Serif" font-size="10.00" fill="#000000"> +bits</text>
</g>
<!-- Node7 -->
<g id="node7" class="node">
<title>Node7</title>
<g id="a_node7"><a xlink:href="a01193.html" target="_top" xlink:title=" ">
<polygon fill="#ffffff" stroke="#000000" points="660,-237.5 660,-404.5 774,-404.5 774,-237.5 660,-237.5"/>
<text text-anchor="middle" x="717" y="-392.5" font-family="Helvetica,sans-Serif" font-size="10.00" fill="#000000">PORTx_s</text>
<polyline fill="none" stroke="#000000" points="660,-385.5 774,-385.5 "/>
<text text-anchor="start" x="668" y="-373.5" font-family="Helvetica,sans-Serif" font-size="10.00" fill="#000000">+ PORTx0</text>
<text text-anchor="start" x="668" y="-362.5" font-family="Helvetica,sans-Serif" font-size="10.00" fill="#000000">+ PORTx1</text>
<text text-anchor="start" x="668" y="-351.5" font-family="Helvetica,sans-Serif" font-size="10.00" fill="#000000">+ PORTx2</text>
<text text-anchor="start" x="668" y="-340.5" font-family="Helvetica,sans-Serif" font-size="10.00" fill="#000000">+ PORTx3</text>
<text text-anchor="start" x="668" y="-329.5" font-family="Helvetica,sans-Serif" font-size="10.00" fill="#000000">+ PORTx4</text>
<text text-anchor="start" x="668" y="-318.5" font-family="Helvetica,sans-Serif" font-size="10.00" fill="#000000">+ PORTx5</text>
<text text-anchor="start" x="668" y="-307.5" font-family="Helvetica,sans-Serif" font-size="10.00" fill="#000000">+ PORTx6</text>
<text text-anchor="start" x="668" y="-296.5" font-family="Helvetica,sans-Serif" font-size="10.00" fill="#000000">+ PORTx7</text>
<text text-anchor="start" x="668" y="-285.5" font-family="Helvetica,sans-Serif" font-size="10.00" fill="#000000">+ PORTx8</text>
<text text-anchor="start" x="668" y="-274.5" font-family="Helvetica,sans-Serif" font-size="10.00" fill="#000000">+ PORTx9</text>
<text text-anchor="start" x="668" y="-263.5" font-family="Helvetica,sans-Serif" font-size="10.00" fill="#000000">and 6 more...</text>
<polyline fill="none" stroke="#000000" points="660,-256.5 774,-256.5 "/>
<text text-anchor="middle" x="717" y="-244.5" font-family="Helvetica,sans-Serif" font-size="10.00" fill="#000000"> </text>
</a>
</g>
</g>
<!-- Node7&#45;&gt;Node1 -->
<g id="edge6" class="edge">
<title>Node7&#45;&gt;Node1</title>
<path fill="none" stroke="#404040" d="M717,-237.488C717,-225.916 717,-213.9004 717,-201.9745"/>
<polygon fill="none" stroke="#404040" points="717.0001,-201.6013 713,-195.6013 717,-189.6013 721,-195.6013 717.0001,-201.6013"/>
<text text-anchor="middle" x="740" y="-211" font-family="Helvetica,sans-Serif" font-size="10.00" fill="#000000"> +bits</text>
</g>
<!-- Node8 -->
<g id="node8" class="node">
<title>Node8</title>
<g id="a_node8"><a xlink:href="a01217.html" target="_top" xlink:title=" ">
<polygon fill="#ffffff" stroke="#000000" points="792,-237.5 792,-404.5 906,-404.5 906,-237.5 792,-237.5"/>
<text text-anchor="middle" x="849" y="-392.5" font-family="Helvetica,sans-Serif" font-size="10.00" fill="#000000">CNSTATx_s</text>
<polyline fill="none" stroke="#000000" points="792,-385.5 906,-385.5 "/>
<text text-anchor="start" x="800" y="-373.5" font-family="Helvetica,sans-Serif" font-size="10.00" fill="#000000">+ CNSTATx0</text>
<text text-anchor="start" x="800" y="-362.5" font-family="Helvetica,sans-Serif" font-size="10.00" fill="#000000">+ CNSTATx1</text>
<text text-anchor="start" x="800" y="-351.5" font-family="Helvetica,sans-Serif" font-size="10.00" fill="#000000">+ CNSTATx2</text>
<text text-anchor="start" x="800" y="-340.5" font-family="Helvetica,sans-Serif" font-size="10.00" fill="#000000">+ CNSTATx3</text>
<text text-anchor="start" x="800" y="-329.5" font-family="Helvetica,sans-Serif" font-size="10.00" fill="#000000">+ CNSTATx4</text>
<text text-anchor="start" x="800" y="-318.5" font-family="Helvetica,sans-Serif" font-size="10.00" fill="#000000">+ CNSTATx5</text>
<text text-anchor="start" x="800" y="-307.5" font-family="Helvetica,sans-Serif" font-size="10.00" fill="#000000">+ CNSTATx6</text>
<text text-anchor="start" x="800" y="-296.5" font-family="Helvetica,sans-Serif" font-size="10.00" fill="#000000">+ CNSTATx7</text>
<text text-anchor="start" x="800" y="-285.5" font-family="Helvetica,sans-Serif" font-size="10.00" fill="#000000">+ CNSTATx8</text>
<text text-anchor="start" x="800" y="-274.5" font-family="Helvetica,sans-Serif" font-size="10.00" fill="#000000">+ CNSTATx9</text>
<text text-anchor="start" x="800" y="-263.5" font-family="Helvetica,sans-Serif" font-size="10.00" fill="#000000">and 6 more...</text>
<polyline fill="none" stroke="#000000" points="792,-256.5 906,-256.5 "/>
<text text-anchor="middle" x="849" y="-244.5" font-family="Helvetica,sans-Serif" font-size="10.00" fill="#000000"> </text>
</a>
</g>
</g>
<!-- Node8&#45;&gt;Node1 -->
<g id="edge7" class="edge">
<title>Node8&#45;&gt;Node1</title>
<path fill="none" stroke="#404040" d="M800.2231,-237.488C793.1085,-225.307 785.7068,-212.6343 778.3813,-200.0923"/>
<polygon fill="none" stroke="#404040" points="778.3061,-199.9633 771.826,-196.7997 772.2539,-189.6013 778.734,-192.7649 778.3061,-199.9633"/>
<text text-anchor="middle" x="809" y="-211" font-family="Helvetica,sans-Serif" font-size="10.00" fill="#000000"> +bits</text>
</g>
<!-- Node9 -->
<g id="node9" class="node">
<title>Node9</title>
<g id="a_node9"><a xlink:href="a01225.html" target="_top" xlink:title=" ">
<polygon fill="#ffffff" stroke="#000000" points="924,-237.5 924,-404.5 1038,-404.5 1038,-237.5 924,-237.5"/>
<text text-anchor="middle" x="981" y="-392.5" font-family="Helvetica,sans-Serif" font-size="10.00" fill="#000000">CNFx_s</text>
<polyline fill="none" stroke="#000000" points="924,-385.5 1038,-385.5 "/>
<text text-anchor="start" x="932" y="-373.5" font-family="Helvetica,sans-Serif" font-size="10.00" fill="#000000">+ CNFx0</text>
<text text-anchor="start" x="932" y="-362.5" font-family="Helvetica,sans-Serif" font-size="10.00" fill="#000000">+ CNFx1</text>
<text text-anchor="start" x="932" y="-351.5" font-family="Helvetica,sans-Serif" font-size="10.00" fill="#000000">+ CNFx2</text>
<text text-anchor="start" x="932" y="-340.5" font-family="Helvetica,sans-Serif" font-size="10.00" fill="#000000">+ CNFx3</text>
<text text-anchor="start" x="932" y="-329.5" font-family="Helvetica,sans-Serif" font-size="10.00" fill="#000000">+ CNFx4</text>
<text text-anchor="start" x="932" y="-318.5" font-family="Helvetica,sans-Serif" font-size="10.00" fill="#000000">+ CNFx5</text>
<text text-anchor="start" x="932" y="-307.5" font-family="Helvetica,sans-Serif" font-size="10.00" fill="#000000">+ CNFx6</text>
<text text-anchor="start" x="932" y="-296.5" font-family="Helvetica,sans-Serif" font-size="10.00" fill="#000000">+ CNFx7</text>
<text text-anchor="start" x="932" y="-285.5" font-family="Helvetica,sans-Serif" font-size="10.00" fill="#000000">+ CNFx8</text>
<text text-anchor="start" x="932" y="-274.5" font-family="Helvetica,sans-Serif" font-size="10.00" fill="#000000">+ CNFx9</text>
<text text-anchor="start" x="932" y="-263.5" font-family="Helvetica,sans-Serif" font-size="10.00" fill="#000000">and 6 more...</text>
<polyline fill="none" stroke="#000000" points="924,-256.5 1038,-256.5 "/>
<text text-anchor="middle" x="981" y="-244.5" font-family="Helvetica,sans-Serif" font-size="10.00" fill="#000000"> </text>
</a>
</g>
</g>
<!-- Node9&#45;&gt;Node1 -->
<g id="edge8" class="edge">
<title>Node9&#45;&gt;Node1</title>
<path fill="none" stroke="#404040" d="M923.7668,-245.826C920.8761,-242.778 917.9476,-239.8212 915,-237 883.4312,-206.7848 845.099,-177.8325 810.6024,-154.0439"/>
<polygon fill="none" stroke="#404040" points="810.42,-153.9194 803.2093,-153.8404 800.5089,-147.1539 807.7196,-147.233 810.42,-153.9194"/>
<text text-anchor="middle" x="913" y="-211" font-family="Helvetica,sans-Serif" font-size="10.00" fill="#000000"> +bits</text>
</g>
<!-- Node10 -->
<g id="node10" class="node">
<title>Node10</title>
<g id="a_node10"><a xlink:href="a01209.html" target="_top" xlink:title=" ">
<polygon fill="#ffffff" stroke="#000000" points="1056,-237.5 1056,-404.5 1170,-404.5 1170,-237.5 1056,-237.5"/>
<text text-anchor="middle" x="1113" y="-392.5" font-family="Helvetica,sans-Serif" font-size="10.00" fill="#000000">CNPDx_s</text>
<polyline fill="none" stroke="#000000" points="1056,-385.5 1170,-385.5 "/>
<text text-anchor="start" x="1064" y="-373.5" font-family="Helvetica,sans-Serif" font-size="10.00" fill="#000000">+ CNPDx0</text>
<text text-anchor="start" x="1064" y="-362.5" font-family="Helvetica,sans-Serif" font-size="10.00" fill="#000000">+ CNPDx1</text>
<text text-anchor="start" x="1064" y="-351.5" font-family="Helvetica,sans-Serif" font-size="10.00" fill="#000000">+ CNPDx2</text>
<text text-anchor="start" x="1064" y="-340.5" font-family="Helvetica,sans-Serif" font-size="10.00" fill="#000000">+ CNPDx3</text>
<text text-anchor="start" x="1064" y="-329.5" font-family="Helvetica,sans-Serif" font-size="10.00" fill="#000000">+ CNPDx4</text>
<text text-anchor="start" x="1064" y="-318.5" font-family="Helvetica,sans-Serif" font-size="10.00" fill="#000000">+ CNPDx5</text>
<text text-anchor="start" x="1064" y="-307.5" font-family="Helvetica,sans-Serif" font-size="10.00" fill="#000000">+ CNPDx6</text>
<text text-anchor="start" x="1064" y="-296.5" font-family="Helvetica,sans-Serif" font-size="10.00" fill="#000000">+ CNPDx7</text>
<text text-anchor="start" x="1064" y="-285.5" font-family="Helvetica,sans-Serif" font-size="10.00" fill="#000000">+ CNPDx8</text>
<text text-anchor="start" x="1064" y="-274.5" font-family="Helvetica,sans-Serif" font-size="10.00" fill="#000000">+ CNPDx9</text>
<text text-anchor="start" x="1064" y="-263.5" font-family="Helvetica,sans-Serif" font-size="10.00" fill="#000000">and 6 more...</text>
<polyline fill="none" stroke="#000000" points="1056,-256.5 1170,-256.5 "/>
<text text-anchor="middle" x="1113" y="-244.5" font-family="Helvetica,sans-Serif" font-size="10.00" fill="#000000"> </text>
</a>
</g>
</g>
<!-- Node10&#45;&gt;Node1 -->
<g id="edge9" class="edge">
<title>Node10&#45;&gt;Node1</title>
<path fill="none" stroke="#404040" d="M1055.642,-244.2232C1052.824,-241.6819 1049.9403,-239.2613 1047,-237 976.5445,-182.8152 882.2705,-144.9537 812.5281,-122.0327"/>
<polygon fill="none" stroke="#404040" points="812.0985,-121.894 805.1593,-123.8555 800.6797,-118.2045 807.619,-116.243 812.0985,-121.894"/>
<text text-anchor="middle" x="1038" y="-211" font-family="Helvetica,sans-Serif" font-size="10.00" fill="#000000"> +bits</text>
</g>
<!-- Node11 -->
<g id="node11" class="node">
<title>Node11</title>
<g id="a_node11"><a xlink:href="a01205.html" target="_top" xlink:title=" ">
<polygon fill="#ffffff" stroke="#000000" points="1188,-237.5 1188,-404.5 1302,-404.5 1302,-237.5 1188,-237.5"/>
<text text-anchor="middle" x="1245" y="-392.5" font-family="Helvetica,sans-Serif" font-size="10.00" fill="#000000">CNPUx_s</text>
<polyline fill="none" stroke="#000000" points="1188,-385.5 1302,-385.5 "/>
<text text-anchor="start" x="1196" y="-373.5" font-family="Helvetica,sans-Serif" font-size="10.00" fill="#000000">+ CNPUx0</text>
<text text-anchor="start" x="1196" y="-362.5" font-family="Helvetica,sans-Serif" font-size="10.00" fill="#000000">+ CNPUx1</text>
<text text-anchor="start" x="1196" y="-351.5" font-family="Helvetica,sans-Serif" font-size="10.00" fill="#000000">+ CNPUx2</text>
<text text-anchor="start" x="1196" y="-340.5" font-family="Helvetica,sans-Serif" font-size="10.00" fill="#000000">+ CNPUx3</text>
<text text-anchor="start" x="1196" y="-329.5" font-family="Helvetica,sans-Serif" font-size="10.00" fill="#000000">+ CNPUx4</text>
<text text-anchor="start" x="1196" y="-318.5" font-family="Helvetica,sans-Serif" font-size="10.00" fill="#000000">+ CNPUx5</text>
<text text-anchor="start" x="1196" y="-307.5" font-family="Helvetica,sans-Serif" font-size="10.00" fill="#000000">+ CNPUx6</text>
<text text-anchor="start" x="1196" y="-296.5" font-family="Helvetica,sans-Serif" font-size="10.00" fill="#000000">+ CNPUx7</text>
<text text-anchor="start" x="1196" y="-285.5" font-family="Helvetica,sans-Serif" font-size="10.00" fill="#000000">+ CNPUx8</text>
<text text-anchor="start" x="1196" y="-274.5" font-family="Helvetica,sans-Serif" font-size="10.00" fill="#000000">+ CNPUx9</text>
<text text-anchor="start" x="1196" y="-263.5" font-family="Helvetica,sans-Serif" font-size="10.00" fill="#000000">and 6 more...</text>
<polyline fill="none" stroke="#000000" points="1188,-256.5 1302,-256.5 "/>
<text text-anchor="middle" x="1245" y="-244.5" font-family="Helvetica,sans-Serif" font-size="10.00" fill="#000000"> </text>
</a>
</g>
</g>
<!-- Node11&#45;&gt;Node1 -->
<g id="edge10" class="edge">
<title>Node11&#45;&gt;Node1</title>
<path fill="none" stroke="#404040" d="M1187.9427,-243.8096C1185.0414,-241.3828 1182.0582,-239.099 1179,-237 1066.9273,-160.0781 911.6973,-123.647 812.8047,-107.2636"/>
<polygon fill="none" stroke="#404040" points="812.5787,-107.2273 806.0184,-110.221 800.7318,-105.3168 807.2921,-102.323 812.5787,-107.2273"/>
<text text-anchor="middle" x="1169" y="-211" font-family="Helvetica,sans-Serif" font-size="10.00" fill="#000000"> +bits</text>
</g>
<!-- Node12 -->
<g id="node12" class="node">
<title>Node12</title>
<g id="a_node12"><a xlink:href="a01185.html" target="_top" xlink:title=" ">
<polygon fill="#ffffff" stroke="#000000" points="1320,-237.5 1320,-404.5 1434,-404.5 1434,-237.5 1320,-237.5"/>
<text text-anchor="middle" x="1377" y="-392.5" font-family="Helvetica,sans-Serif" font-size="10.00" fill="#000000">ANSELx_s</text>
<polyline fill="none" stroke="#000000" points="1320,-385.5 1434,-385.5 "/>
<text text-anchor="start" x="1328" y="-373.5" font-family="Helvetica,sans-Serif" font-size="10.00" fill="#000000">+ ANSELx0</text>
<text text-anchor="start" x="1328" y="-362.5" font-family="Helvetica,sans-Serif" font-size="10.00" fill="#000000">+ ANSELx1</text>
<text text-anchor="start" x="1328" y="-351.5" font-family="Helvetica,sans-Serif" font-size="10.00" fill="#000000">+ ANSELx2</text>
<text text-anchor="start" x="1328" y="-340.5" font-family="Helvetica,sans-Serif" font-size="10.00" fill="#000000">+ ANSELx3</text>
<text text-anchor="start" x="1328" y="-329.5" font-family="Helvetica,sans-Serif" font-size="10.00" fill="#000000">+ ANSELx4</text>
<text text-anchor="start" x="1328" y="-318.5" font-family="Helvetica,sans-Serif" font-size="10.00" fill="#000000">+ ANSELx5</text>
<text text-anchor="start" x="1328" y="-307.5" font-family="Helvetica,sans-Serif" font-size="10.00" fill="#000000">+ ANSELx6</text>
<text text-anchor="start" x="1328" y="-296.5" font-family="Helvetica,sans-Serif" font-size="10.00" fill="#000000">+ ANSELx7</text>
<text text-anchor="start" x="1328" y="-285.5" font-family="Helvetica,sans-Serif" font-size="10.00" fill="#000000">+ ANSELx8</text>
<text text-anchor="start" x="1328" y="-274.5" font-family="Helvetica,sans-Serif" font-size="10.00" fill="#000000">+ ANSELx9</text>
<text text-anchor="start" x="1328" y="-263.5" font-family="Helvetica,sans-Serif" font-size="10.00" fill="#000000">and 6 more...</text>
<polyline fill="none" stroke="#000000" points="1320,-256.5 1434,-256.5 "/>
<text text-anchor="middle" x="1377" y="-244.5" font-family="Helvetica,sans-Serif" font-size="10.00" fill="#000000"> </text>
</a>
</g>
</g>
<!-- Node12&#45;&gt;Node1 -->
<g id="edge11" class="edge">
<title>Node12&#45;&gt;Node1</title>
<path fill="none" stroke="#404040" d="M1319.6356,-243.2539C1316.8356,-241.016 1313.9554,-238.9191 1311,-237 1229.3161,-183.9577 958.9717,-133.917 812.8049,-109.8854"/>
<polygon fill="none" stroke="#404040" points="812.6219,-109.8556 806.0555,-112.8359 800.7789,-107.9209 807.3453,-104.9406 812.6219,-109.8556"/>
<text text-anchor="middle" x="1289" y="-211" font-family="Helvetica,sans-Serif" font-size="10.00" fill="#000000"> +bits</text>
</g>
</g>
</svg>
