<?xml version="1.0" encoding="UTF-8" standalone="no"?>
<!DOCTYPE svg PUBLIC "-//W3C//DTD SVG 1.1//EN"
 "http://www.w3.org/Graphics/SVG/1.1/DTD/svg11.dtd">
<!-- Generated by graphviz version 2.44.1 (20200629.0846)
 -->
<!-- Title: BOOST_CONVERTER_s Pages: 1 -->
<svg width="1597pt" height="744pt"
 viewBox="0.00 0.00 1597.00 744.00" xmlns="http://www.w3.org/2000/svg" xmlns:xlink="http://www.w3.org/1999/xlink">
<g id="graph0" class="graph" transform="scale(1 1) rotate(0) translate(4 740)">
<title>BOOST_CONVERTER_s</title>
<polygon fill="white" stroke="transparent" points="-4,4 -4,-740 1593,-740 1593,4 -4,4"/>
<!-- Node1 -->
<g id="node1" class="node">
<title>Node1</title>
<g id="a_node1"><a xlink:title="BOOST control &amp; monitoring data structure.">
<polygon fill="#bfbfbf" stroke="black" points="777.5,-579.5 777.5,-735.5 903.5,-735.5 903.5,-579.5 777.5,-579.5"/>
<text text-anchor="middle" x="840.5" y="-723.5" font-family="Helvetica,sans-Serif" font-size="10.00">BOOST_CONVERTER_s</text>
<polyline fill="none" stroke="black" points="777.5,-716.5 903.5,-716.5 "/>
<text text-anchor="start" x="785.5" y="-704.5" font-family="Helvetica,sans-Serif" font-size="10.00">+ status</text>
<text text-anchor="start" x="785.5" y="-693.5" font-family="Helvetica,sans-Serif" font-size="10.00">+ state_id</text>
<text text-anchor="start" x="785.5" y="-682.5" font-family="Helvetica,sans-Serif" font-size="10.00">+ startup</text>
<text text-anchor="start" x="785.5" y="-671.5" font-family="Helvetica,sans-Serif" font-size="10.00">+ set_values</text>
<text text-anchor="start" x="785.5" y="-660.5" font-family="Helvetica,sans-Serif" font-size="10.00">+ data</text>
<text text-anchor="start" x="785.5" y="-649.5" font-family="Helvetica,sans-Serif" font-size="10.00">+ feedback</text>
<text text-anchor="start" x="785.5" y="-638.5" font-family="Helvetica,sans-Serif" font-size="10.00">+ sw_node</text>
<text text-anchor="start" x="785.5" y="-627.5" font-family="Helvetica,sans-Serif" font-size="10.00">+ gpio</text>
<text text-anchor="start" x="785.5" y="-616.5" font-family="Helvetica,sans-Serif" font-size="10.00">+ v_loop</text>
<text text-anchor="start" x="785.5" y="-605.5" font-family="Helvetica,sans-Serif" font-size="10.00">+ i_loop</text>
<polyline fill="none" stroke="black" points="777.5,-598.5 903.5,-598.5 "/>
<text text-anchor="middle" x="840.5" y="-586.5" font-family="Helvetica,sans-Serif" font-size="10.00"> </text>
</a>
</g>
</g>
<!-- Node2 -->
<g id="node2" class="node">
<title>Node2</title>
<g id="a_node2"><a xlink:href="a01513.html" target="_top" xlink:title="Publicly accessible data buffer of most recent runtime data values.">
<polygon fill="white" stroke="black" points="0,-370 0,-504 157,-504 157,-370 0,-370"/>
<text text-anchor="middle" x="78.5" y="-492" font-family="Helvetica,sans-Serif" font-size="10.00">BOOST_CONVERTER_DATA_s</text>
<polyline fill="none" stroke="black" points="0,-485 157,-485 "/>
<text text-anchor="start" x="8" y="-473" font-family="Helvetica,sans-Serif" font-size="10.00">+ i_sns</text>
<text text-anchor="start" x="8" y="-462" font-family="Helvetica,sans-Serif" font-size="10.00">+ i_out</text>
<text text-anchor="start" x="8" y="-451" font-family="Helvetica,sans-Serif" font-size="10.00">+ v_in</text>
<text text-anchor="start" x="8" y="-440" font-family="Helvetica,sans-Serif" font-size="10.00">+ v_out</text>
<text text-anchor="start" x="8" y="-429" font-family="Helvetica,sans-Serif" font-size="10.00">+ temp</text>
<text text-anchor="start" x="8" y="-418" font-family="Helvetica,sans-Serif" font-size="10.00">+ control_input</text>
<text text-anchor="start" x="8" y="-407" font-family="Helvetica,sans-Serif" font-size="10.00">+ control_error</text>
<text text-anchor="start" x="8" y="-396" font-family="Helvetica,sans-Serif" font-size="10.00">+ control_output</text>
<polyline fill="none" stroke="black" points="0,-389 157,-389 "/>
<text text-anchor="middle" x="78.5" y="-377" font-family="Helvetica,sans-Serif" font-size="10.00"> </text>
</a>
</g>
</g>
<!-- Node1&#45;&gt;Node2 -->
<g id="edge1" class="edge">
<title>Node1&#45;&gt;Node2</title>
<path fill="none" stroke="midnightblue" d="M767.27,-650.65C614.45,-637.4 267.28,-601.65 165.5,-543 148.68,-533.31 133.71,-519.05 121.13,-504.15"/>
<polygon fill="none" stroke="midnightblue" points="767.23,-654.16 777.5,-651.52 767.83,-647.18 767.23,-654.16"/>
</g>
<!-- Node3 -->
<g id="node3" class="node">
<title>Node3</title>
<g id="a_node3"><a xlink:href="a01517.html" target="_top" xlink:title="Generic power controller control settings.">
<polygon fill="white" stroke="black" points="175,-386.5 175,-487.5 354,-487.5 354,-386.5 175,-386.5"/>
<text text-anchor="middle" x="264.5" y="-475.5" font-family="Helvetica,sans-Serif" font-size="10.00">BOOST_CONVERTER_SETTINGS_s</text>
<polyline fill="none" stroke="black" points="175,-468.5 354,-468.5 "/>
<text text-anchor="start" x="183" y="-456.5" font-family="Helvetica,sans-Serif" font-size="10.00">+ control_mode</text>
<text text-anchor="start" x="183" y="-445.5" font-family="Helvetica,sans-Serif" font-size="10.00">+ no_of_phases</text>
<text text-anchor="start" x="183" y="-434.5" font-family="Helvetica,sans-Serif" font-size="10.00">+ v_ref</text>
<text text-anchor="start" x="183" y="-423.5" font-family="Helvetica,sans-Serif" font-size="10.00">+ i_ref</text>
<text text-anchor="start" x="183" y="-412.5" font-family="Helvetica,sans-Serif" font-size="10.00">+ i_ref_startup</text>
<polyline fill="none" stroke="black" points="175,-405.5 354,-405.5 "/>
<text text-anchor="middle" x="264.5" y="-393.5" font-family="Helvetica,sans-Serif" font-size="10.00"> </text>
</a>
</g>
</g>
<!-- Node1&#45;&gt;Node3 -->
<g id="edge2" class="edge">
<title>Node1&#45;&gt;Node3</title>
<path fill="none" stroke="midnightblue" d="M767.09,-652.08C669.09,-643.38 492.86,-617.79 363.5,-543 339.42,-529.08 317.61,-507.49 300.63,-487.5"/>
<polygon fill="none" stroke="midnightblue" points="766.94,-655.58 777.2,-652.94 767.53,-648.6 766.94,-655.58"/>
</g>
<!-- Node4 -->
<g id="node4" class="node">
<title>Node4</title>
<g id="a_node4"><a xlink:href="a01509.html" target="_top" xlink:title="Power Converter Startup Timing Settings.">
<polygon fill="white" stroke="black" points="372.5,-386.5 372.5,-487.5 548.5,-487.5 548.5,-386.5 372.5,-386.5"/>
<text text-anchor="middle" x="460.5" y="-475.5" font-family="Helvetica,sans-Serif" font-size="10.00">BOOST_CONVERTER_STARTUP_s</text>
<polyline fill="none" stroke="black" points="372.5,-468.5 548.5,-468.5 "/>
<text text-anchor="start" x="380.5" y="-456.5" font-family="Helvetica,sans-Serif" font-size="10.00">+ power_on_delay</text>
<text text-anchor="start" x="380.5" y="-445.5" font-family="Helvetica,sans-Serif" font-size="10.00">+ power_good_delay</text>
<text text-anchor="start" x="380.5" y="-434.5" font-family="Helvetica,sans-Serif" font-size="10.00">+ i_ramp</text>
<text text-anchor="start" x="380.5" y="-423.5" font-family="Helvetica,sans-Serif" font-size="10.00">+ v_ramp</text>
<text text-anchor="start" x="380.5" y="-412.5" font-family="Helvetica,sans-Serif" font-size="10.00">+ vcap_monitor</text>
<polyline fill="none" stroke="black" points="372.5,-405.5 548.5,-405.5 "/>
<text text-anchor="middle" x="460.5" y="-393.5" font-family="Helvetica,sans-Serif" font-size="10.00"> </text>
</a>
</g>
</g>
<!-- Node1&#45;&gt;Node4 -->
<g id="edge3" class="edge">
<title>Node1&#45;&gt;Node4</title>
<path fill="none" stroke="midnightblue" d="M767.5,-637.03C707.62,-618.83 622.44,-587.73 557.5,-543 535.53,-527.87 514.91,-506.93 498.37,-487.73"/>
<polygon fill="none" stroke="midnightblue" points="766.68,-640.43 777.26,-639.94 768.68,-633.72 766.68,-640.43"/>
</g>
<!-- Node7 -->
<g id="node7" class="node">
<title>Node7</title>
<g id="a_node7"><a xlink:href="a01477.html" target="_top" xlink:title="Generic power controller status word.">
<polygon fill="white" stroke="black" points="567,-331.5 567,-542.5 736,-542.5 736,-331.5 567,-331.5"/>
<text text-anchor="middle" x="651.5" y="-530.5" font-family="Helvetica,sans-Serif" font-size="10.00">BOOST_CONVERTER_STATUS_s</text>
<polyline fill="none" stroke="black" points="567,-523.5 736,-523.5 "/>
<text text-anchor="start" x="575" y="-511.5" font-family="Helvetica,sans-Serif" font-size="10.00">+ ready</text>
<text text-anchor="start" x="575" y="-500.5" font-family="Helvetica,sans-Serif" font-size="10.00">+ adc_active</text>
<text text-anchor="start" x="575" y="-489.5" font-family="Helvetica,sans-Serif" font-size="10.00">+ pwm_active</text>
<text text-anchor="start" x="575" y="-478.5" font-family="Helvetica,sans-Serif" font-size="10.00">+ unsigned</text>
<text text-anchor="start" x="575" y="-467.5" font-family="Helvetica,sans-Serif" font-size="10.00">+ cs_calib_complete</text>
<text text-anchor="start" x="575" y="-456.5" font-family="Helvetica,sans-Serif" font-size="10.00">+ fault_active</text>
<text text-anchor="start" x="575" y="-445.5" font-family="Helvetica,sans-Serif" font-size="10.00">+ suspend</text>
<text text-anchor="start" x="575" y="-434.5" font-family="Helvetica,sans-Serif" font-size="10.00">+ busy</text>
<text text-anchor="start" x="575" y="-423.5" font-family="Helvetica,sans-Serif" font-size="10.00">+ cs_calib_enable</text>
<text text-anchor="start" x="575" y="-412.5" font-family="Helvetica,sans-Serif" font-size="10.00">+ async_mode</text>
<text text-anchor="start" x="575" y="-401.5" font-family="Helvetica,sans-Serif" font-size="10.00">+ GO</text>
<text text-anchor="start" x="575" y="-390.5" font-family="Helvetica,sans-Serif" font-size="10.00">+ autorun</text>
<text text-anchor="start" x="575" y="-379.5" font-family="Helvetica,sans-Serif" font-size="10.00">+ enabled</text>
<text text-anchor="start" x="575" y="-368.5" font-family="Helvetica,sans-Serif" font-size="10.00">+ value</text>
<text text-anchor="start" x="575" y="-357.5" font-family="Helvetica,sans-Serif" font-size="10.00">+ @1</text>
<polyline fill="none" stroke="black" points="567,-350.5 736,-350.5 "/>
<text text-anchor="middle" x="651.5" y="-338.5" font-family="Helvetica,sans-Serif" font-size="10.00"> </text>
</a>
</g>
</g>
<!-- Node1&#45;&gt;Node7 -->
<g id="edge6" class="edge">
<title>Node1&#45;&gt;Node7</title>
<path fill="none" stroke="midnightblue" d="M770.74,-575.85C759.48,-562.83 747.72,-549.23 736.15,-535.87"/>
<polygon fill="none" stroke="midnightblue" points="768.11,-578.17 777.3,-583.44 773.41,-573.59 768.11,-578.17"/>
</g>
<!-- Node8 -->
<g id="node8" class="node">
<title>Node8</title>
<g id="a_node8"><a xlink:href="a01537.html" target="_top" xlink:title="Boost converter feedback declarations.">
<polygon fill="white" stroke="black" points="754.5,-392 754.5,-482 926.5,-482 926.5,-392 754.5,-392"/>
<text text-anchor="middle" x="840.5" y="-470" font-family="Helvetica,sans-Serif" font-size="10.00">BOOST_FEEDBACK_SETTINGS_s</text>
<polyline fill="none" stroke="black" points="754.5,-463 926.5,-463 "/>
<text text-anchor="start" x="762.5" y="-451" font-family="Helvetica,sans-Serif" font-size="10.00">+ ad_vin</text>
<text text-anchor="start" x="762.5" y="-440" font-family="Helvetica,sans-Serif" font-size="10.00">+ ad_vout</text>
<text text-anchor="start" x="762.5" y="-429" font-family="Helvetica,sans-Serif" font-size="10.00">+ ad_isns</text>
<text text-anchor="start" x="762.5" y="-418" font-family="Helvetica,sans-Serif" font-size="10.00">+ ad_temp</text>
<polyline fill="none" stroke="black" points="754.5,-411 926.5,-411 "/>
<text text-anchor="middle" x="840.5" y="-399" font-family="Helvetica,sans-Serif" font-size="10.00"> </text>
</a>
</g>
</g>
<!-- Node1&#45;&gt;Node8 -->
<g id="edge7" class="edge">
<title>Node1&#45;&gt;Node8</title>
<path fill="none" stroke="midnightblue" d="M840.5,-569.43C840.5,-539.53 840.5,-507.32 840.5,-482.27"/>
<polygon fill="none" stroke="midnightblue" points="837,-569.47 840.5,-579.47 844,-569.47 837,-569.47"/>
</g>
<!-- Node11 -->
<g id="node11" class="node">
<title>Node11</title>
<g id="a_node11"><a xlink:href="a01545.html" target="_top" xlink:title="GPIO instance of the converter control GPIO.">
<polygon fill="white" stroke="black" points="945,-403 945,-471 1088,-471 1088,-403 945,-403"/>
<text text-anchor="middle" x="1016.5" y="-459" font-family="Helvetica,sans-Serif" font-size="10.00">BOOST_GPIO_SETTINGS_s</text>
<polyline fill="none" stroke="black" points="945,-452 1088,-452 "/>
<text text-anchor="start" x="953" y="-440" font-family="Helvetica,sans-Serif" font-size="10.00">+ EnableInput</text>
<text text-anchor="start" x="953" y="-429" font-family="Helvetica,sans-Serif" font-size="10.00">+ PowerGood</text>
<polyline fill="none" stroke="black" points="945,-422 1088,-422 "/>
<text text-anchor="middle" x="1016.5" y="-410" font-family="Helvetica,sans-Serif" font-size="10.00"> </text>
</a>
</g>
</g>
<!-- Node1&#45;&gt;Node11 -->
<g id="edge10" class="edge">
<title>Node1&#45;&gt;Node11</title>
<path fill="none" stroke="midnightblue" d="M910.1,-574.12C918.72,-563.7 927.35,-553.14 935.5,-543 954.54,-519.31 975.48,-492.14 991.3,-471.37"/>
<polygon fill="none" stroke="midnightblue" points="907.21,-572.13 903.53,-582.06 912.6,-576.59 907.21,-572.13"/>
</g>
<!-- Node13 -->
<g id="node13" class="node">
<title>Node13</title>
<g id="a_node13"><a xlink:href="a01521.html" target="_top" xlink:title="User defined settings for control loops;.">
<polygon fill="white" stroke="black" points="1106.5,-359 1106.5,-515 1252.5,-515 1252.5,-359 1106.5,-359"/>
<text text-anchor="middle" x="1179.5" y="-503" font-family="Helvetica,sans-Serif" font-size="10.00">BOOST_LOOP_SETTINGS_s</text>
<polyline fill="none" stroke="black" points="1106.5,-496 1252.5,-496 "/>
<text text-anchor="start" x="1114.5" y="-484" font-family="Helvetica,sans-Serif" font-size="10.00">+ reference</text>
<text text-anchor="start" x="1114.5" y="-473" font-family="Helvetica,sans-Serif" font-size="10.00">+ feedback_offset</text>
<text text-anchor="start" x="1114.5" y="-462" font-family="Helvetica,sans-Serif" font-size="10.00">+ trigger_offset</text>
<text text-anchor="start" x="1114.5" y="-451" font-family="Helvetica,sans-Serif" font-size="10.00">+ minimum</text>
<text text-anchor="start" x="1114.5" y="-440" font-family="Helvetica,sans-Serif" font-size="10.00">+ maximum</text>
<text text-anchor="start" x="1114.5" y="-429" font-family="Helvetica,sans-Serif" font-size="10.00">+ controller</text>
<text text-anchor="start" x="1114.5" y="-418" font-family="Helvetica,sans-Serif" font-size="10.00">+ ctrl_Initialize</text>
<text text-anchor="start" x="1114.5" y="-407" font-family="Helvetica,sans-Serif" font-size="10.00">+ ctrl_Reset</text>
<text text-anchor="start" x="1114.5" y="-396" font-family="Helvetica,sans-Serif" font-size="10.00">+ ctrl_Update</text>
<text text-anchor="start" x="1114.5" y="-385" font-family="Helvetica,sans-Serif" font-size="10.00">+ ctrl_Precharge</text>
<polyline fill="none" stroke="black" points="1106.5,-378 1252.5,-378 "/>
<text text-anchor="middle" x="1179.5" y="-366" font-family="Helvetica,sans-Serif" font-size="10.00"> </text>
</a>
</g>
</g>
<!-- Node1&#45;&gt;Node13 -->
<g id="edge12" class="edge">
<title>Node1&#45;&gt;Node13</title>
<path fill="none" stroke="midnightblue" d="M913.1,-635.16C967.6,-616.72 1042.05,-586.19 1097.5,-543 1107.9,-534.9 1117.73,-525.2 1126.74,-515.01"/>
<polygon fill="none" stroke="midnightblue" points="911.9,-631.87 903.51,-638.35 914.11,-638.51 911.9,-631.87"/>
</g>
<!-- Node14 -->
<g id="node14" class="node">
<title>Node14</title>
<g id="a_node14"><a xlink:href="a01489.html" target="_top" xlink:title="data structure for the boost statement ID for sub&#45;operating and operating states">
<polygon fill="white" stroke="black" points="1271,-392 1271,-482 1382,-482 1382,-392 1271,-392"/>
<text text-anchor="middle" x="1326.5" y="-470" font-family="Helvetica,sans-Serif" font-size="10.00">BOOST_STATE_ID_s</text>
<polyline fill="none" stroke="black" points="1271,-463 1382,-463 "/>
<text text-anchor="start" x="1279" y="-451" font-family="Helvetica,sans-Serif" font-size="10.00">+ opstate_id</text>
<text text-anchor="start" x="1279" y="-440" font-family="Helvetica,sans-Serif" font-size="10.00">+ substate_id</text>
<text text-anchor="start" x="1279" y="-429" font-family="Helvetica,sans-Serif" font-size="10.00">+ bits</text>
<text text-anchor="start" x="1279" y="-418" font-family="Helvetica,sans-Serif" font-size="10.00">+ value</text>
<polyline fill="none" stroke="black" points="1271,-411 1382,-411 "/>
<text text-anchor="middle" x="1326.5" y="-399" font-family="Helvetica,sans-Serif" font-size="10.00"> </text>
</a>
</g>
</g>
<!-- Node1&#45;&gt;Node14 -->
<g id="edge13" class="edge">
<title>Node1&#45;&gt;Node14</title>
<path fill="none" stroke="midnightblue" d="M913.95,-652.89C1004,-645.08 1157.42,-620.47 1261.5,-543 1282.22,-527.57 1297.84,-503.41 1308.56,-482.14"/>
<polygon fill="none" stroke="midnightblue" points="913.51,-649.41 903.83,-653.72 914.08,-656.39 913.51,-649.41"/>
</g>
<!-- Node15 -->
<g id="node15" class="node">
<title>Node15</title>
<g id="a_node15"><a xlink:href="a01525.html" target="_top" xlink:title="Switching signal timing settings.">
<polygon fill="white" stroke="black" points="1400,-353.5 1400,-520.5 1589,-520.5 1589,-353.5 1400,-353.5"/>
<text text-anchor="middle" x="1494.5" y="-508.5" font-family="Helvetica,sans-Serif" font-size="10.00">BOOST_SWITCH_NODE_SETTINGS_s</text>
<polyline fill="none" stroke="black" points="1400,-501.5 1589,-501.5 "/>
<text text-anchor="start" x="1408" y="-489.5" font-family="Helvetica,sans-Serif" font-size="10.00">+ pwm_instance</text>
<text text-anchor="start" x="1408" y="-478.5" font-family="Helvetica,sans-Serif" font-size="10.00">+ gpio_instance</text>
<text text-anchor="start" x="1408" y="-467.5" font-family="Helvetica,sans-Serif" font-size="10.00">+ gpio_high</text>
<text text-anchor="start" x="1408" y="-456.5" font-family="Helvetica,sans-Serif" font-size="10.00">+ gpio_low</text>
<text text-anchor="start" x="1408" y="-445.5" font-family="Helvetica,sans-Serif" font-size="10.00">+ swap_outputs</text>
<text text-anchor="start" x="1408" y="-434.5" font-family="Helvetica,sans-Serif" font-size="10.00">+ master_period_enable</text>
<text text-anchor="start" x="1408" y="-423.5" font-family="Helvetica,sans-Serif" font-size="10.00">+ high_resolution_enable</text>
<text text-anchor="start" x="1408" y="-412.5" font-family="Helvetica,sans-Serif" font-size="10.00">+ sync_drive</text>
<text text-anchor="start" x="1408" y="-401.5" font-family="Helvetica,sans-Serif" font-size="10.00">+ period</text>
<text text-anchor="start" x="1408" y="-390.5" font-family="Helvetica,sans-Serif" font-size="10.00">+ phase</text>
<text text-anchor="start" x="1408" y="-379.5" font-family="Helvetica,sans-Serif" font-size="10.00">and 8 more...</text>
<polyline fill="none" stroke="black" points="1400,-372.5 1589,-372.5 "/>
<text text-anchor="middle" x="1494.5" y="-360.5" font-family="Helvetica,sans-Serif" font-size="10.00"> </text>
</a>
</g>
</g>
<!-- Node1&#45;&gt;Node15 -->
<g id="edge14" class="edge">
<title>Node1&#45;&gt;Node15</title>
<path fill="none" stroke="midnightblue" d="M913.64,-654.82C1023.75,-649.45 1235.79,-627.88 1391.5,-543 1402.71,-536.89 1413.47,-529.16 1423.53,-520.68"/>
<polygon fill="none" stroke="midnightblue" points="913.46,-651.33 903.63,-655.28 913.78,-658.32 913.46,-651.33"/>
</g>
<!-- Node5 -->
<g id="node5" class="node">
<title>Node5</title>
<g id="a_node5"><a xlink:href="a01501.html" target="_top" xlink:title="Generic power controller startup period settings.">
<polygon fill="white" stroke="black" points="311.5,-155 311.5,-256 453.5,-256 453.5,-155 311.5,-155"/>
<text text-anchor="start" x="319.5" y="-244" font-family="Helvetica,sans-Serif" font-size="10.00">BOOST_STARTUP_PERIOD</text>
<text text-anchor="middle" x="382.5" y="-233" font-family="Helvetica,sans-Serif" font-size="10.00">_HANDLER_s</text>
<polyline fill="none" stroke="black" points="311.5,-226 453.5,-226 "/>
<text text-anchor="start" x="319.5" y="-214" font-family="Helvetica,sans-Serif" font-size="10.00">+ counter</text>
<text text-anchor="start" x="319.5" y="-203" font-family="Helvetica,sans-Serif" font-size="10.00">+ period</text>
<text text-anchor="start" x="319.5" y="-192" font-family="Helvetica,sans-Serif" font-size="10.00">+ reference</text>
<text text-anchor="start" x="319.5" y="-181" font-family="Helvetica,sans-Serif" font-size="10.00">+ ref_inc_step</text>
<polyline fill="none" stroke="black" points="311.5,-174 453.5,-174 "/>
<text text-anchor="middle" x="382.5" y="-162" font-family="Helvetica,sans-Serif" font-size="10.00"> </text>
</a>
</g>
</g>
<!-- Node4&#45;&gt;Node5 -->
<g id="edge4" class="edge">
<title>Node4&#45;&gt;Node5</title>
<path fill="none" stroke="midnightblue" d="M440.36,-376.74C427.66,-339.39 411.46,-291.71 399.43,-256.32"/>
<polygon fill="none" stroke="midnightblue" points="437.14,-378.14 443.67,-386.48 443.77,-375.89 437.14,-378.14"/>
</g>
<!-- Node6 -->
<g id="node6" class="node">
<title>Node6</title>
<g id="a_node6"><a xlink:href="a01505.html" target="_top" xlink:title="Boost converter output capacitor voltage charge&#45;up monitor settings.">
<polygon fill="white" stroke="black" points="471.5,-149.5 471.5,-261.5 603.5,-261.5 603.5,-149.5 471.5,-149.5"/>
<text text-anchor="start" x="479.5" y="-249.5" font-family="Helvetica,sans-Serif" font-size="10.00">BOOST_STARTUP_VCAP</text>
<text text-anchor="middle" x="537.5" y="-238.5" font-family="Helvetica,sans-Serif" font-size="10.00">_PRECHARGE_s</text>
<polyline fill="none" stroke="black" points="471.5,-231.5 603.5,-231.5 "/>
<text text-anchor="start" x="479.5" y="-219.5" font-family="Helvetica,sans-Serif" font-size="10.00">+ counter</text>
<text text-anchor="start" x="479.5" y="-208.5" font-family="Helvetica,sans-Serif" font-size="10.00">+ period</text>
<text text-anchor="start" x="479.5" y="-197.5" font-family="Helvetica,sans-Serif" font-size="10.00">+ timeout_counter</text>
<text text-anchor="start" x="479.5" y="-186.5" font-family="Helvetica,sans-Serif" font-size="10.00">+ timeout</text>
<text text-anchor="start" x="479.5" y="-175.5" font-family="Helvetica,sans-Serif" font-size="10.00">+ v_drop</text>
<polyline fill="none" stroke="black" points="471.5,-168.5 603.5,-168.5 "/>
<text text-anchor="middle" x="537.5" y="-156.5" font-family="Helvetica,sans-Serif" font-size="10.00"> </text>
</a>
</g>
</g>
<!-- Node4&#45;&gt;Node6 -->
<g id="edge5" class="edge">
<title>Node4&#45;&gt;Node6</title>
<path fill="none" stroke="midnightblue" d="M480.39,-376.73C492.31,-341.19 507.37,-296.31 519.03,-261.56"/>
<polygon fill="none" stroke="midnightblue" points="476.98,-375.89 477.11,-386.48 483.61,-378.12 476.98,-375.89"/>
</g>
<!-- Node9 -->
<g id="node9" class="node">
<title>Node9</title>
<g id="a_node9"><a xlink:href="a01533.html" target="_top" xlink:title="ADC input channel configuration.">
<polygon fill="white" stroke="black" points="754.5,-116.5 754.5,-294.5 926.5,-294.5 926.5,-116.5 754.5,-116.5"/>
<text text-anchor="middle" x="840.5" y="-282.5" font-family="Helvetica,sans-Serif" font-size="10.00">BOOST_ADC_INPUT_SETTINGS_s</text>
<polyline fill="none" stroke="black" points="754.5,-275.5 926.5,-275.5 "/>
<text text-anchor="start" x="762.5" y="-263.5" font-family="Helvetica,sans-Serif" font-size="10.00">+ enabled</text>
<text text-anchor="start" x="762.5" y="-252.5" font-family="Helvetica,sans-Serif" font-size="10.00">+ adc_buffer</text>
<text text-anchor="start" x="762.5" y="-241.5" font-family="Helvetica,sans-Serif" font-size="10.00">+ gpio_instance</text>
<text text-anchor="start" x="762.5" y="-230.5" font-family="Helvetica,sans-Serif" font-size="10.00">+ adc_input</text>
<text text-anchor="start" x="762.5" y="-219.5" font-family="Helvetica,sans-Serif" font-size="10.00">+ adc_core</text>
<text text-anchor="start" x="762.5" y="-208.5" font-family="Helvetica,sans-Serif" font-size="10.00">+ trigger_source</text>
<text text-anchor="start" x="762.5" y="-197.5" font-family="Helvetica,sans-Serif" font-size="10.00">+ interrupt_enable</text>
<text text-anchor="start" x="762.5" y="-186.5" font-family="Helvetica,sans-Serif" font-size="10.00">+ early_interrupt_enable</text>
<text text-anchor="start" x="762.5" y="-175.5" font-family="Helvetica,sans-Serif" font-size="10.00">+ differential_input</text>
<text text-anchor="start" x="762.5" y="-164.5" font-family="Helvetica,sans-Serif" font-size="10.00">+ signed_result</text>
<text text-anchor="start" x="762.5" y="-153.5" font-family="Helvetica,sans-Serif" font-size="10.00">+ level_trigger</text>
<text text-anchor="start" x="762.5" y="-142.5" font-family="Helvetica,sans-Serif" font-size="10.00">+ scaling</text>
<polyline fill="none" stroke="black" points="754.5,-135.5 926.5,-135.5 "/>
<text text-anchor="middle" x="840.5" y="-123.5" font-family="Helvetica,sans-Serif" font-size="10.00"> </text>
</a>
</g>
</g>
<!-- Node8&#45;&gt;Node9 -->
<g id="edge8" class="edge">
<title>Node8&#45;&gt;Node9</title>
<path fill="none" stroke="midnightblue" d="M840.5,-381.74C840.5,-355.8 840.5,-324.09 840.5,-294.8"/>
<polygon fill="none" stroke="midnightblue" points="837,-381.75 840.5,-391.75 844,-381.75 837,-381.75"/>
</g>
<!-- Node10 -->
<g id="node10" class="node">
<title>Node10</title>
<g id="a_node10"><a xlink:href="a01529.html" target="_top" xlink:title="ADC input signal scaling = (ADCBUF &#45; &lt;offset&gt;) * &lt;factor&gt; &gt;&gt; 2^&lt;scaler&gt;">
<polygon fill="white" stroke="black" points="757,-0.5 757,-79.5 924,-79.5 924,-0.5 757,-0.5"/>
<text text-anchor="middle" x="840.5" y="-67.5" font-family="Helvetica,sans-Serif" font-size="10.00">BOOST_ADC_INPUT_SCALING_s</text>
<polyline fill="none" stroke="black" points="757,-60.5 924,-60.5 "/>
<text text-anchor="start" x="765" y="-48.5" font-family="Helvetica,sans-Serif" font-size="10.00">+ factor</text>
<text text-anchor="start" x="765" y="-37.5" font-family="Helvetica,sans-Serif" font-size="10.00">+ scaler</text>
<text text-anchor="start" x="765" y="-26.5" font-family="Helvetica,sans-Serif" font-size="10.00">+ offset</text>
<polyline fill="none" stroke="black" points="757,-19.5 924,-19.5 "/>
<text text-anchor="middle" x="840.5" y="-7.5" font-family="Helvetica,sans-Serif" font-size="10.00"> </text>
</a>
</g>
</g>
<!-- Node9&#45;&gt;Node10 -->
<g id="edge9" class="edge">
<title>Node9&#45;&gt;Node10</title>
<path fill="none" stroke="midnightblue" d="M840.5,-105.93C840.5,-96.69 840.5,-87.74 840.5,-79.6"/>
<polygon fill="none" stroke="midnightblue" points="837,-106.05 840.5,-116.05 844,-106.05 837,-106.05"/>
</g>
<!-- Node12 -->
<g id="node12" class="node">
<title>Node12</title>
<g id="a_node12"><a xlink:href="a01541.html" target="_top" xlink:title="GPIO instance of the converter control GPIO.">
<polygon fill="white" stroke="black" points="945,-155 945,-256 1088,-256 1088,-155 945,-155"/>
<text text-anchor="middle" x="1016.5" y="-244" font-family="Helvetica,sans-Serif" font-size="10.00">BOOST_GPIO_INSTANCE_s</text>
<polyline fill="none" stroke="black" points="945,-237 1088,-237 "/>
<text text-anchor="start" x="953" y="-225" font-family="Helvetica,sans-Serif" font-size="10.00">+ enabled</text>
<text text-anchor="start" x="953" y="-214" font-family="Helvetica,sans-Serif" font-size="10.00">+ port</text>
<text text-anchor="start" x="953" y="-203" font-family="Helvetica,sans-Serif" font-size="10.00">+ pin</text>
<text text-anchor="start" x="953" y="-192" font-family="Helvetica,sans-Serif" font-size="10.00">+ polarity</text>
<text text-anchor="start" x="953" y="-181" font-family="Helvetica,sans-Serif" font-size="10.00">+ io_type</text>
<polyline fill="none" stroke="black" points="945,-174 1088,-174 "/>
<text text-anchor="middle" x="1016.5" y="-162" font-family="Helvetica,sans-Serif" font-size="10.00"> </text>
</a>
</g>
</g>
<!-- Node11&#45;&gt;Node12 -->
<g id="edge11" class="edge">
<title>Node11&#45;&gt;Node12</title>
<path fill="none" stroke="midnightblue" d="M1016.5,-392.16C1016.5,-353.27 1016.5,-296.51 1016.5,-256"/>
<polygon fill="none" stroke="midnightblue" points="1013,-392.63 1016.5,-402.63 1020,-392.63 1013,-392.63"/>
</g>
</g>
</svg>
