<?xml version="1.0" encoding="UTF-8" standalone="no"?>
<!DOCTYPE svg PUBLIC "-//W3C//DTD SVG 1.1//EN"
 "http://www.w3.org/Graphics/SVG/1.1/DTD/svg11.dtd">
<!-- Generated by graphviz version 2.44.1 (20200629.0846)
 -->
<!-- Title: BOOST_GPIO_INSTANCE_s Pages: 1 -->
<svg width="151pt" height="408pt"
 viewBox="0.00 0.00 151.00 408.00" xmlns="http://www.w3.org/2000/svg" xmlns:xlink="http://www.w3.org/1999/xlink">
<g id="graph0" class="graph" transform="scale(1 1) rotate(0) translate(4 404)">
<title>BOOST_GPIO_INSTANCE_s</title>
<polygon fill="white" stroke="transparent" points="-4,4 -4,-404 147,-404 147,4 -4,4"/>
<!-- Node1 -->
<g id="node1" class="node">
<title>Node1</title>
<g id="a_node1"><a xlink:title="GPIO instance of the converter control GPIO.">
<polygon fill="#bfbfbf" stroke="black" points="0,-0.5 0,-101.5 143,-101.5 143,-0.5 0,-0.5"/>
<text text-anchor="middle" x="71.5" y="-89.5" font-family="Helvetica,sans-Serif" font-size="10.00">BOOST_GPIO_INSTANCE_s</text>
<polyline fill="none" stroke="black" points="0,-82.5 143,-82.5 "/>
<text text-anchor="start" x="8" y="-70.5" font-family="Helvetica,sans-Serif" font-size="10.00">+ enabled</text>
<text text-anchor="start" x="8" y="-59.5" font-family="Helvetica,sans-Serif" font-size="10.00">+ port</text>
<text text-anchor="start" x="8" y="-48.5" font-family="Helvetica,sans-Serif" font-size="10.00">+ pin</text>
<text text-anchor="start" x="8" y="-37.5" font-family="Helvetica,sans-Serif" font-size="10.00">+ polarity</text>
<text text-anchor="start" x="8" y="-26.5" font-family="Helvetica,sans-Serif" font-size="10.00">+ io_type</text>
<polyline fill="none" stroke="black" points="0,-19.5 143,-19.5 "/>
<text text-anchor="middle" x="71.5" y="-7.5" font-family="Helvetica,sans-Serif" font-size="10.00"> </text>
</a>
</g>
</g>
<!-- Node2 -->
<g id="node2" class="node">
<title>Node2</title>
<g id="a_node2"><a xlink:href="a01545.html" target="_top" xlink:title="GPIO instance of the converter control GPIO.">
<polygon fill="white" stroke="black" points="0,-138.5 0,-206.5 143,-206.5 143,-138.5 0,-138.5"/>
<text text-anchor="middle" x="71.5" y="-194.5" font-family="Helvetica,sans-Serif" font-size="10.00">BOOST_GPIO_SETTINGS_s</text>
<polyline fill="none" stroke="black" points="0,-187.5 143,-187.5 "/>
<text text-anchor="start" x="8" y="-175.5" font-family="Helvetica,sans-Serif" font-size="10.00">+ EnableInput</text>
<text text-anchor="start" x="8" y="-164.5" font-family="Helvetica,sans-Serif" font-size="10.00">+ PowerGood</text>
<polyline fill="none" stroke="black" points="0,-157.5 143,-157.5 "/>
<text text-anchor="middle" x="71.5" y="-145.5" font-family="Helvetica,sans-Serif" font-size="10.00"> </text>
</a>
</g>
</g>
<!-- Node2&#45;&gt;Node1 -->
<g id="edge1" class="edge">
<title>Node2&#45;&gt;Node1</title>
<path fill="none" stroke="midnightblue" d="M71.5,-128.05C71.5,-119.47 71.5,-110.41 71.5,-101.65"/>
<polygon fill="none" stroke="midnightblue" points="68,-128.21 71.5,-138.21 75,-128.21 68,-128.21"/>
</g>
<!-- Node3 -->
<g id="node3" class="node">
<title>Node3</title>
<g id="a_node3"><a xlink:href="a01549.html" target="_top" xlink:title="BOOST control &amp; monitoring data structure.">
<polygon fill="white" stroke="black" points="8.5,-243.5 8.5,-399.5 134.5,-399.5 134.5,-243.5 8.5,-243.5"/>
<text text-anchor="middle" x="71.5" y="-387.5" font-family="Helvetica,sans-Serif" font-size="10.00">BOOST_CONVERTER_s</text>
<polyline fill="none" stroke="black" points="8.5,-380.5 134.5,-380.5 "/>
<text text-anchor="start" x="16.5" y="-368.5" font-family="Helvetica,sans-Serif" font-size="10.00">+ status</text>
<text text-anchor="start" x="16.5" y="-357.5" font-family="Helvetica,sans-Serif" font-size="10.00">+ state_id</text>
<text text-anchor="start" x="16.5" y="-346.5" font-family="Helvetica,sans-Serif" font-size="10.00">+ startup</text>
<text text-anchor="start" x="16.5" y="-335.5" font-family="Helvetica,sans-Serif" font-size="10.00">+ set_values</text>
<text text-anchor="start" x="16.5" y="-324.5" font-family="Helvetica,sans-Serif" font-size="10.00">+ data</text>
<text text-anchor="start" x="16.5" y="-313.5" font-family="Helvetica,sans-Serif" font-size="10.00">+ feedback</text>
<text text-anchor="start" x="16.5" y="-302.5" font-family="Helvetica,sans-Serif" font-size="10.00">+ sw_node</text>
<text text-anchor="start" x="16.5" y="-291.5" font-family="Helvetica,sans-Serif" font-size="10.00">+ gpio</text>
<text text-anchor="start" x="16.5" y="-280.5" font-family="Helvetica,sans-Serif" font-size="10.00">+ v_loop</text>
<text text-anchor="start" x="16.5" y="-269.5" font-family="Helvetica,sans-Serif" font-size="10.00">+ i_loop</text>
<polyline fill="none" stroke="black" points="8.5,-262.5 134.5,-262.5 "/>
<text text-anchor="middle" x="71.5" y="-250.5" font-family="Helvetica,sans-Serif" font-size="10.00"> </text>
</a>
</g>
</g>
<!-- Node3&#45;&gt;Node2 -->
<g id="edge2" class="edge">
<title>Node3&#45;&gt;Node2</title>
<path fill="none" stroke="midnightblue" d="M71.5,-232.94C71.5,-223.63 71.5,-214.64 71.5,-206.59"/>
<polygon fill="none" stroke="midnightblue" points="68,-233.13 71.5,-243.13 75,-233.13 68,-233.13"/>
</g>
</g>
</svg>
