<?xml version="1.0" encoding="UTF-8" standalone="no"?>
<!DOCTYPE svg PUBLIC "-//W3C//DTD SVG 1.1//EN"
 "http://www.w3.org/Graphics/SVG/1.1/DTD/svg11.dtd">
<!-- Generated by graphviz version 2.44.1 (20200629.0846)
 -->
<!-- Title: BOOST_STARTUP_VCAP_PRECHARGE_s Pages: 1 -->
<svg width="184pt" height="452pt"
 viewBox="0.00 0.00 184.00 452.00" xmlns="http://www.w3.org/2000/svg" xmlns:xlink="http://www.w3.org/1999/xlink">
<g id="graph0" class="graph" transform="scale(1 1) rotate(0) translate(4 448)">
<title>BOOST_STARTUP_VCAP_PRECHARGE_s</title>
<polygon fill="white" stroke="transparent" points="-4,4 -4,-448 180,-448 180,4 -4,4"/>
<!-- Node1 -->
<g id="node1" class="node">
<title>Node1</title>
<g id="a_node1"><a xlink:title="Boost converter output capacitor voltage charge&#45;up monitor settings.">
<polygon fill="#bfbfbf" stroke="black" points="22,-0.5 22,-112.5 154,-112.5 154,-0.5 22,-0.5"/>
<text text-anchor="start" x="30" y="-100.5" font-family="Helvetica,sans-Serif" font-size="10.00">BOOST_STARTUP_VCAP</text>
<text text-anchor="middle" x="88" y="-89.5" font-family="Helvetica,sans-Serif" font-size="10.00">_PRECHARGE_s</text>
<polyline fill="none" stroke="black" points="22,-82.5 154,-82.5 "/>
<text text-anchor="start" x="30" y="-70.5" font-family="Helvetica,sans-Serif" font-size="10.00">+ counter</text>
<text text-anchor="start" x="30" y="-59.5" font-family="Helvetica,sans-Serif" font-size="10.00">+ period</text>
<text text-anchor="start" x="30" y="-48.5" font-family="Helvetica,sans-Serif" font-size="10.00">+ timeout_counter</text>
<text text-anchor="start" x="30" y="-37.5" font-family="Helvetica,sans-Serif" font-size="10.00">+ timeout</text>
<text text-anchor="start" x="30" y="-26.5" font-family="Helvetica,sans-Serif" font-size="10.00">+ v_drop</text>
<polyline fill="none" stroke="black" points="22,-19.5 154,-19.5 "/>
<text text-anchor="middle" x="88" y="-7.5" font-family="Helvetica,sans-Serif" font-size="10.00"> </text>
</a>
</g>
</g>
<!-- Node2 -->
<g id="node2" class="node">
<title>Node2</title>
<g id="a_node2"><a xlink:href="a01537.html" target="_top" xlink:title="Power Converter Startup Timing Settings.">
<polygon fill="white" stroke="black" points="0,-149.5 0,-250.5 176,-250.5 176,-149.5 0,-149.5"/>
<text text-anchor="middle" x="88" y="-238.5" font-family="Helvetica,sans-Serif" font-size="10.00">BOOST_CONVERTER_STARTUP_s</text>
<polyline fill="none" stroke="black" points="0,-231.5 176,-231.5 "/>
<text text-anchor="start" x="8" y="-219.5" font-family="Helvetica,sans-Serif" font-size="10.00">+ power_on_delay</text>
<text text-anchor="start" x="8" y="-208.5" font-family="Helvetica,sans-Serif" font-size="10.00">+ power_good_delay</text>
<text text-anchor="start" x="8" y="-197.5" font-family="Helvetica,sans-Serif" font-size="10.00">+ i_ramp</text>
<text text-anchor="start" x="8" y="-186.5" font-family="Helvetica,sans-Serif" font-size="10.00">+ v_ramp</text>
<text text-anchor="start" x="8" y="-175.5" font-family="Helvetica,sans-Serif" font-size="10.00">+ vcap_monitor</text>
<polyline fill="none" stroke="black" points="0,-168.5 176,-168.5 "/>
<text text-anchor="middle" x="88" y="-156.5" font-family="Helvetica,sans-Serif" font-size="10.00"> </text>
</a>
</g>
</g>
<!-- Node2&#45;&gt;Node1 -->
<g id="edge1" class="edge">
<title>Node2&#45;&gt;Node1</title>
<path fill="none" stroke="midnightblue" d="M88,-139.01C88,-130.29 88,-121.34 88,-112.72"/>
<polygon fill="none" stroke="midnightblue" points="84.5,-139.11 88,-149.11 91.5,-139.11 84.5,-139.11"/>
</g>
<!-- Node3 -->
<g id="node3" class="node">
<title>Node3</title>
<g id="a_node3"><a xlink:href="a01577.html" target="_top" xlink:title="BOOST control &amp; monitoring data structure.">
<polygon fill="white" stroke="black" points="25,-287.5 25,-443.5 151,-443.5 151,-287.5 25,-287.5"/>
<text text-anchor="middle" x="88" y="-431.5" font-family="Helvetica,sans-Serif" font-size="10.00">BOOST_CONVERTER_s</text>
<polyline fill="none" stroke="black" points="25,-424.5 151,-424.5 "/>
<text text-anchor="start" x="33" y="-412.5" font-family="Helvetica,sans-Serif" font-size="10.00">+ status</text>
<text text-anchor="start" x="33" y="-401.5" font-family="Helvetica,sans-Serif" font-size="10.00">+ state_id</text>
<text text-anchor="start" x="33" y="-390.5" font-family="Helvetica,sans-Serif" font-size="10.00">+ startup</text>
<text text-anchor="start" x="33" y="-379.5" font-family="Helvetica,sans-Serif" font-size="10.00">+ set_values</text>
<text text-anchor="start" x="33" y="-368.5" font-family="Helvetica,sans-Serif" font-size="10.00">+ data</text>
<text text-anchor="start" x="33" y="-357.5" font-family="Helvetica,sans-Serif" font-size="10.00">+ feedback</text>
<text text-anchor="start" x="33" y="-346.5" font-family="Helvetica,sans-Serif" font-size="10.00">+ sw_node</text>
<text text-anchor="start" x="33" y="-335.5" font-family="Helvetica,sans-Serif" font-size="10.00">+ gpio</text>
<text text-anchor="start" x="33" y="-324.5" font-family="Helvetica,sans-Serif" font-size="10.00">+ v_loop</text>
<text text-anchor="start" x="33" y="-313.5" font-family="Helvetica,sans-Serif" font-size="10.00">+ i_loop</text>
<polyline fill="none" stroke="black" points="25,-306.5 151,-306.5 "/>
<text text-anchor="middle" x="88" y="-294.5" font-family="Helvetica,sans-Serif" font-size="10.00"> </text>
</a>
</g>
</g>
<!-- Node3&#45;&gt;Node2 -->
<g id="edge2" class="edge">
<title>Node3&#45;&gt;Node2</title>
<path fill="none" stroke="midnightblue" d="M88,-276.9C88,-267.91 88,-259.02 88,-250.66"/>
<polygon fill="none" stroke="midnightblue" points="84.5,-277.06 88,-287.06 91.5,-277.06 84.5,-277.06"/>
</g>
</g>
</svg>
