<?xml version="1.0" encoding="UTF-8" standalone="no"?>
<!DOCTYPE svg PUBLIC "-//W3C//DTD SVG 1.1//EN"
 "http://www.w3.org/Graphics/SVG/1.1/DTD/svg11.dtd">
<!-- Generated by graphviz version 2.44.1 (20200629.0846)
 -->
<!-- Title: BOOST_CONVERTER_STARTUP_s Pages: 1 -->
<svg width="300pt" height="452pt"
 viewBox="0.00 0.00 300.00 452.00" xmlns="http://www.w3.org/2000/svg" xmlns:xlink="http://www.w3.org/1999/xlink">
<g id="graph0" class="graph" transform="scale(1 1) rotate(0) translate(4 448)">
<title>BOOST_CONVERTER_STARTUP_s</title>
<polygon fill="white" stroke="transparent" points="-4,4 -4,-448 296,-448 296,4 -4,4"/>
<!-- Node1 -->
<g id="node1" class="node">
<title>Node1</title>
<g id="a_node1"><a xlink:title="Power Converter Startup Timing Settings.">
<polygon fill="#bfbfbf" stroke="black" points="60,-149.5 60,-250.5 236,-250.5 236,-149.5 60,-149.5"/>
<text text-anchor="middle" x="148" y="-238.5" font-family="Helvetica,sans-Serif" font-size="10.00">BOOST_CONVERTER_STARTUP_s</text>
<polyline fill="none" stroke="black" points="60,-231.5 236,-231.5 "/>
<text text-anchor="start" x="68" y="-219.5" font-family="Helvetica,sans-Serif" font-size="10.00">+ power_on_delay</text>
<text text-anchor="start" x="68" y="-208.5" font-family="Helvetica,sans-Serif" font-size="10.00">+ power_good_delay</text>
<text text-anchor="start" x="68" y="-197.5" font-family="Helvetica,sans-Serif" font-size="10.00">+ i_ramp</text>
<text text-anchor="start" x="68" y="-186.5" font-family="Helvetica,sans-Serif" font-size="10.00">+ v_ramp</text>
<text text-anchor="start" x="68" y="-175.5" font-family="Helvetica,sans-Serif" font-size="10.00">+ vcap_monitor</text>
<polyline fill="none" stroke="black" points="60,-168.5 236,-168.5 "/>
<text text-anchor="middle" x="148" y="-156.5" font-family="Helvetica,sans-Serif" font-size="10.00"> </text>
</a>
</g>
</g>
<!-- Node3 -->
<g id="node3" class="node">
<title>Node3</title>
<g id="a_node3"><a xlink:href="a01501.html" target="_top" xlink:title="Generic power controller startup period settings.">
<polygon fill="white" stroke="black" points="0,-6 0,-107 142,-107 142,-6 0,-6"/>
<text text-anchor="start" x="8" y="-95" font-family="Helvetica,sans-Serif" font-size="10.00">BOOST_STARTUP_PERIOD</text>
<text text-anchor="middle" x="71" y="-84" font-family="Helvetica,sans-Serif" font-size="10.00">_HANDLER_s</text>
<polyline fill="none" stroke="black" points="0,-77 142,-77 "/>
<text text-anchor="start" x="8" y="-65" font-family="Helvetica,sans-Serif" font-size="10.00">+ counter</text>
<text text-anchor="start" x="8" y="-54" font-family="Helvetica,sans-Serif" font-size="10.00">+ period</text>
<text text-anchor="start" x="8" y="-43" font-family="Helvetica,sans-Serif" font-size="10.00">+ reference</text>
<text text-anchor="start" x="8" y="-32" font-family="Helvetica,sans-Serif" font-size="10.00">+ ref_inc_step</text>
<polyline fill="none" stroke="black" points="0,-25 142,-25 "/>
<text text-anchor="middle" x="71" y="-13" font-family="Helvetica,sans-Serif" font-size="10.00"> </text>
</a>
</g>
</g>
<!-- Node1&#45;&gt;Node3 -->
<g id="edge2" class="edge">
<title>Node1&#45;&gt;Node3</title>
<path fill="none" stroke="midnightblue" d="M115.95,-140.1C110.03,-129.23 103.91,-117.98 98.16,-107.41"/>
<polygon fill="none" stroke="midnightblue" points="113,-142 120.85,-149.11 119.15,-138.66 113,-142"/>
</g>
<!-- Node4 -->
<g id="node4" class="node">
<title>Node4</title>
<g id="a_node4"><a xlink:href="a01505.html" target="_top" xlink:title="Boost converter output capacitor voltage charge&#45;up monitor settings.">
<polygon fill="white" stroke="black" points="160,-0.5 160,-112.5 292,-112.5 292,-0.5 160,-0.5"/>
<text text-anchor="start" x="168" y="-100.5" font-family="Helvetica,sans-Serif" font-size="10.00">BOOST_STARTUP_VCAP</text>
<text text-anchor="middle" x="226" y="-89.5" font-family="Helvetica,sans-Serif" font-size="10.00">_PRECHARGE_s</text>
<polyline fill="none" stroke="black" points="160,-82.5 292,-82.5 "/>
<text text-anchor="start" x="168" y="-70.5" font-family="Helvetica,sans-Serif" font-size="10.00">+ counter</text>
<text text-anchor="start" x="168" y="-59.5" font-family="Helvetica,sans-Serif" font-size="10.00">+ period</text>
<text text-anchor="start" x="168" y="-48.5" font-family="Helvetica,sans-Serif" font-size="10.00">+ timeout_counter</text>
<text text-anchor="start" x="168" y="-37.5" font-family="Helvetica,sans-Serif" font-size="10.00">+ timeout</text>
<text text-anchor="start" x="168" y="-26.5" font-family="Helvetica,sans-Serif" font-size="10.00">+ v_drop</text>
<polyline fill="none" stroke="black" points="160,-19.5 292,-19.5 "/>
<text text-anchor="middle" x="226" y="-7.5" font-family="Helvetica,sans-Serif" font-size="10.00"> </text>
</a>
</g>
</g>
<!-- Node1&#45;&gt;Node4 -->
<g id="edge3" class="edge">
<title>Node1&#45;&gt;Node4</title>
<path fill="none" stroke="midnightblue" d="M180.44,-140.14C185.45,-131.06 190.6,-121.71 195.56,-112.72"/>
<polygon fill="none" stroke="midnightblue" points="177.26,-138.67 175.5,-149.11 183.39,-142.04 177.26,-138.67"/>
</g>
<!-- Node2 -->
<g id="node2" class="node">
<title>Node2</title>
<g id="a_node2"><a xlink:href="a01549.html" target="_top" xlink:title="BOOST control &amp; monitoring data structure.">
<polygon fill="white" stroke="black" points="85,-287.5 85,-443.5 211,-443.5 211,-287.5 85,-287.5"/>
<text text-anchor="middle" x="148" y="-431.5" font-family="Helvetica,sans-Serif" font-size="10.00">BOOST_CONVERTER_s</text>
<polyline fill="none" stroke="black" points="85,-424.5 211,-424.5 "/>
<text text-anchor="start" x="93" y="-412.5" font-family="Helvetica,sans-Serif" font-size="10.00">+ status</text>
<text text-anchor="start" x="93" y="-401.5" font-family="Helvetica,sans-Serif" font-size="10.00">+ state_id</text>
<text text-anchor="start" x="93" y="-390.5" font-family="Helvetica,sans-Serif" font-size="10.00">+ startup</text>
<text text-anchor="start" x="93" y="-379.5" font-family="Helvetica,sans-Serif" font-size="10.00">+ set_values</text>
<text text-anchor="start" x="93" y="-368.5" font-family="Helvetica,sans-Serif" font-size="10.00">+ data</text>
<text text-anchor="start" x="93" y="-357.5" font-family="Helvetica,sans-Serif" font-size="10.00">+ feedback</text>
<text text-anchor="start" x="93" y="-346.5" font-family="Helvetica,sans-Serif" font-size="10.00">+ sw_node</text>
<text text-anchor="start" x="93" y="-335.5" font-family="Helvetica,sans-Serif" font-size="10.00">+ gpio</text>
<text text-anchor="start" x="93" y="-324.5" font-family="Helvetica,sans-Serif" font-size="10.00">+ v_loop</text>
<text text-anchor="start" x="93" y="-313.5" font-family="Helvetica,sans-Serif" font-size="10.00">+ i_loop</text>
<polyline fill="none" stroke="black" points="85,-306.5 211,-306.5 "/>
<text text-anchor="middle" x="148" y="-294.5" font-family="Helvetica,sans-Serif" font-size="10.00"> </text>
</a>
</g>
</g>
<!-- Node2&#45;&gt;Node1 -->
<g id="edge1" class="edge">
<title>Node2&#45;&gt;Node1</title>
<path fill="none" stroke="midnightblue" d="M148,-276.9C148,-267.91 148,-259.02 148,-250.66"/>
<polygon fill="none" stroke="midnightblue" points="144.5,-277.06 148,-287.06 151.5,-277.06 144.5,-277.06"/>
</g>
</g>
</svg>
