<?xml version="1.0" encoding="UTF-8" standalone="no"?>
<!DOCTYPE svg PUBLIC "-//W3C//DTD SVG 1.1//EN"
 "http://www.w3.org/Graphics/SVG/1.1/DTD/svg11.dtd">
<!-- Generated by graphviz version 2.40.1 (0)
 -->
<!-- Title: UART_DATA_BUFFER_PROPERTY_s Pages: 1 -->
<svg width="227pt" height="397pt"
 viewBox="0.00 0.00 227.00 397.00" xmlns="http://www.w3.org/2000/svg" xmlns:xlink="http://www.w3.org/1999/xlink">
<g id="graph0" class="graph" transform="scale(1 1) rotate(0) translate(4 393)">
<title>UART_DATA_BUFFER_PROPERTY_s</title>
<polygon fill="#ffffff" stroke="transparent" points="-4,4 -4,-393 223,-393 223,4 -4,4"/>
<!-- Node1 -->
<g id="node1" class="node">
<title>Node1</title>
<g id="a_node1"><a xlink:title=" ">
<polygon fill="#bfbfbf" stroke="#000000" points="0,-.5 0,-57.5 219,-57.5 219,-.5 0,-.5"/>
<text text-anchor="middle" x="109.5" y="-45.5" font-family="Helvetica,sans-Serif" font-size="10.00" fill="#000000">UART_DATA_BUFFER_PROPERTY_s</text>
<polyline fill="none" stroke="#000000" points="0,-38.5 219,-38.5 "/>
<text text-anchor="middle" x="109.5" y="-26.5" font-family="Helvetica,sans-Serif" font-size="10.00" fill="#000000"> </text>
<polyline fill="none" stroke="#000000" points="0,-19.5 219,-19.5 "/>
<text text-anchor="middle" x="109.5" y="-7.5" font-family="Helvetica,sans-Serif" font-size="10.00" fill="#000000"> </text>
</a>
</g>
</g>
<!-- Node2 -->
<g id="node2" class="node">
<title>Node2</title>
<g id="a_node2"><a xlink:href="a02189.html" target="_top" xlink:title=" ">
<polygon fill="#ffffff" stroke="#000000" points="33.5,-116.5 33.5,-217.5 185.5,-217.5 185.5,-116.5 33.5,-116.5"/>
<text text-anchor="middle" x="109.5" y="-205.5" font-family="Helvetica,sans-Serif" font-size="10.00" fill="#000000">UART_DATA_BUFFER_s</text>
<polyline fill="none" stroke="#000000" points="33.5,-198.5 185.5,-198.5 "/>
<text text-anchor="start" x="41.5" y="-186.5" font-family="Helvetica,sans-Serif" font-size="10.00" fill="#000000">+ buffer</text>
<text text-anchor="start" x="41.5" y="-175.5" font-family="Helvetica,sans-Serif" font-size="10.00" fill="#000000">+ size</text>
<text text-anchor="start" x="41.5" y="-164.5" font-family="Helvetica,sans-Serif" font-size="10.00" fill="#000000">+ data_size</text>
<text text-anchor="start" x="41.5" y="-153.5" font-family="Helvetica,sans-Serif" font-size="10.00" fill="#000000">+ pointer</text>
<text text-anchor="start" x="41.5" y="-142.5" font-family="Helvetica,sans-Serif" font-size="10.00" fill="#000000">+ package_size</text>
<polyline fill="none" stroke="#000000" points="33.5,-135.5 185.5,-135.5 "/>
<text text-anchor="middle" x="109.5" y="-123.5" font-family="Helvetica,sans-Serif" font-size="10.00" fill="#000000"> </text>
</a>
</g>
</g>
<!-- Node2&#45;&gt;Node1 -->
<g id="edge1" class="edge">
<title>Node2&#45;&gt;Node1</title>
<path fill="none" stroke="#404040" d="M109.5,-116.3975C109.5,-101.0475 109.5,-84.3871 109.5,-69.7693"/>
<polygon fill="none" stroke="#404040" points="109.5001,-69.5335 105.5,-63.5336 109.5,-57.5335 113.5,-63.5335 109.5001,-69.5335"/>
<text text-anchor="middle" x="151" y="-90" font-family="Helvetica,sans-Serif" font-size="10.00" fill="#000000"> +rx_buffer</text>
<text text-anchor="middle" x="151" y="-79" font-family="Helvetica,sans-Serif" font-size="10.00" fill="#000000">+tx_buffer</text>
</g>
<!-- Node3 -->
<g id="node3" class="node">
<title>Node3</title>
<g id="a_node3"><a xlink:href="a02177.html" target="_top" xlink:title=" ">
<polygon fill="#ffffff" stroke="#000000" points="26,-265.5 26,-388.5 193,-388.5 193,-265.5 26,-265.5"/>
<text text-anchor="middle" x="109.5" y="-376.5" font-family="Helvetica,sans-Serif" font-size="10.00" fill="#000000">UART_DATBUF_STATUS_s</text>
<polyline fill="none" stroke="#000000" points="26,-369.5 193,-369.5 "/>
<text text-anchor="start" x="34" y="-357.5" font-family="Helvetica,sans-Serif" font-size="10.00" fill="#000000">+ buffer_empty</text>
<text text-anchor="start" x="34" y="-346.5" font-family="Helvetica,sans-Serif" font-size="10.00" fill="#000000">+ buffer_full</text>
<text text-anchor="start" x="34" y="-335.5" font-family="Helvetica,sans-Serif" font-size="10.00" fill="#000000">+ unsigned</text>
<text text-anchor="start" x="34" y="-324.5" font-family="Helvetica,sans-Serif" font-size="10.00" fill="#000000">+ buffer_overun</text>
<text text-anchor="start" x="34" y="-313.5" font-family="Helvetica,sans-Serif" font-size="10.00" fill="#000000">+ msg_complete</text>
<text text-anchor="start" x="34" y="-302.5" font-family="Helvetica,sans-Serif" font-size="10.00" fill="#000000">+ value</text>
<text text-anchor="start" x="34" y="-291.5" font-family="Helvetica,sans-Serif" font-size="10.00" fill="#000000">+ @347</text>
<polyline fill="none" stroke="#000000" points="26,-284.5 193,-284.5 "/>
<text text-anchor="middle" x="109.5" y="-272.5" font-family="Helvetica,sans-Serif" font-size="10.00" fill="#000000"> </text>
</a>
</g>
</g>
<!-- Node3&#45;&gt;Node2 -->
<g id="edge2" class="edge">
<title>Node3&#45;&gt;Node2</title>
<path fill="none" stroke="#404040" d="M109.5,-265.1398C109.5,-253.5802 109.5,-241.4871 109.5,-229.8965"/>
<polygon fill="none" stroke="#404040" points="109.5001,-229.5658 105.5,-223.5658 109.5,-217.5658 113.5,-223.5658 109.5001,-229.5658"/>
<text text-anchor="middle" x="140" y="-239" font-family="Helvetica,sans-Serif" font-size="10.00" fill="#000000"> +status</text>
</g>
</g>
</svg>
