<?xml version="1.0" encoding="UTF-8" standalone="no"?>
<!DOCTYPE svg PUBLIC "-//W3C//DTD SVG 1.1//EN"
 "http://www.w3.org/Graphics/SVG/1.1/DTD/svg11.dtd">
<!-- Generated by graphviz version 2.40.1 (0)
 -->
<!-- Title: UART_INTERFACE_CHANNEL_s Pages: 1 -->
<svg width="205pt" height="193pt"
 viewBox="0.00 0.00 205.00 193.00" xmlns="http://www.w3.org/2000/svg" xmlns:xlink="http://www.w3.org/1999/xlink">
<g id="graph0" class="graph" transform="scale(1 1) rotate(0) translate(4 189)">
<title>UART_INTERFACE_CHANNEL_s</title>
<polygon fill="#ffffff" stroke="transparent" points="-4,4 -4,-189 201,-189 201,4 -4,4"/>
<!-- Node1 -->
<g id="node1" class="node">
<title>Node1</title>
<g id="a_node1"><a xlink:title=" ">
<polygon fill="#bfbfbf" stroke="#000000" points="0,-.5 0,-57.5 197,-57.5 197,-.5 0,-.5"/>
<text text-anchor="middle" x="98.5" y="-45.5" font-family="Helvetica,sans-Serif" font-size="10.00" fill="#000000">UART_INTERFACE_CHANNEL_s</text>
<polyline fill="none" stroke="#000000" points="0,-38.5 197,-38.5 "/>
<text text-anchor="start" x="8" y="-26.5" font-family="Helvetica,sans-Serif" font-size="10.00" fill="#000000">+ dma</text>
<polyline fill="none" stroke="#000000" points="0,-19.5 197,-19.5 "/>
<text text-anchor="middle" x="98.5" y="-7.5" font-family="Helvetica,sans-Serif" font-size="10.00" fill="#000000"> </text>
</a>
</g>
</g>
<!-- Node2 -->
<g id="node2" class="node">
<title>Node2</title>
<g id="a_node2"><a xlink:href="a01329.html" target="_top" xlink:title=" ">
<polygon fill="#ffffff" stroke="#000000" points="34,-105.5 34,-184.5 163,-184.5 163,-105.5 34,-105.5"/>
<text text-anchor="middle" x="98.5" y="-172.5" font-family="Helvetica,sans-Serif" font-size="10.00" fill="#000000">GPIO_PORT_PIN_s</text>
<polyline fill="none" stroke="#000000" points="34,-165.5 163,-165.5 "/>
<text text-anchor="start" x="42" y="-153.5" font-family="Helvetica,sans-Serif" font-size="10.00" fill="#000000">+ port</text>
<text text-anchor="start" x="42" y="-142.5" font-family="Helvetica,sans-Serif" font-size="10.00" fill="#000000">+ pin</text>
<text text-anchor="start" x="42" y="-131.5" font-family="Helvetica,sans-Serif" font-size="10.00" fill="#000000">+ rpid</text>
<polyline fill="none" stroke="#000000" points="34,-124.5 163,-124.5 "/>
<text text-anchor="middle" x="98.5" y="-112.5" font-family="Helvetica,sans-Serif" font-size="10.00" fill="#000000"> </text>
</a>
</g>
</g>
<!-- Node2&#45;&gt;Node1 -->
<g id="edge1" class="edge">
<title>Node2&#45;&gt;Node1</title>
<path fill="none" stroke="#404040" d="M98.5,-105.4038C98.5,-93.9323 98.5,-81.3893 98.5,-69.8431"/>
<polygon fill="none" stroke="#404040" points="98.5001,-69.8034 94.5,-63.8034 98.5,-57.8034 102.5,-63.8034 98.5001,-69.8034"/>
<text text-anchor="middle" x="114" y="-79" font-family="Helvetica,sans-Serif" font-size="10.00" fill="#000000"> +io</text>
</g>
</g>
</svg>
