<?xml version="1.0" encoding="UTF-8" standalone="no"?>
<!DOCTYPE svg PUBLIC "-//W3C//DTD SVG 1.1//EN"
 "http://www.w3.org/Graphics/SVG/1.1/DTD/svg11.dtd">
<!-- Generated by graphviz version 2.40.1 (0)
 -->
<!-- Title: UART_DATA_BUFFER_s Pages: 1 -->
<svg width="175pt" height="281pt"
 viewBox="0.00 0.00 175.00 281.00" xmlns="http://www.w3.org/2000/svg" xmlns:xlink="http://www.w3.org/1999/xlink">
<g id="graph0" class="graph" transform="scale(1 1) rotate(0) translate(4 277)">
<title>UART_DATA_BUFFER_s</title>
<polygon fill="#ffffff" stroke="transparent" points="-4,4 -4,-277 171,-277 171,4 -4,4"/>
<!-- Node1 -->
<g id="node1" class="node">
<title>Node1</title>
<g id="a_node1"><a xlink:title=" ">
<polygon fill="#bfbfbf" stroke="#000000" points="7.5,-.5 7.5,-101.5 159.5,-101.5 159.5,-.5 7.5,-.5"/>
<text text-anchor="middle" x="83.5" y="-89.5" font-family="Helvetica,sans-Serif" font-size="10.00" fill="#000000">UART_DATA_BUFFER_s</text>
<polyline fill="none" stroke="#000000" points="7.5,-82.5 159.5,-82.5 "/>
<text text-anchor="start" x="15.5" y="-70.5" font-family="Helvetica,sans-Serif" font-size="10.00" fill="#000000">+ buffer</text>
<text text-anchor="start" x="15.5" y="-59.5" font-family="Helvetica,sans-Serif" font-size="10.00" fill="#000000">+ size</text>
<text text-anchor="start" x="15.5" y="-48.5" font-family="Helvetica,sans-Serif" font-size="10.00" fill="#000000">+ data_size</text>
<text text-anchor="start" x="15.5" y="-37.5" font-family="Helvetica,sans-Serif" font-size="10.00" fill="#000000">+ pointer</text>
<text text-anchor="start" x="15.5" y="-26.5" font-family="Helvetica,sans-Serif" font-size="10.00" fill="#000000">+ package_size</text>
<polyline fill="none" stroke="#000000" points="7.5,-19.5 159.5,-19.5 "/>
<text text-anchor="middle" x="83.5" y="-7.5" font-family="Helvetica,sans-Serif" font-size="10.00" fill="#000000"> </text>
</a>
</g>
</g>
<!-- Node2 -->
<g id="node2" class="node">
<title>Node2</title>
<g id="a_node2"><a xlink:href="a02177.html" target="_top" xlink:title=" ">
<polygon fill="#ffffff" stroke="#000000" points="0,-149.5 0,-272.5 167,-272.5 167,-149.5 0,-149.5"/>
<text text-anchor="middle" x="83.5" y="-260.5" font-family="Helvetica,sans-Serif" font-size="10.00" fill="#000000">UART_DATBUF_STATUS_s</text>
<polyline fill="none" stroke="#000000" points="0,-253.5 167,-253.5 "/>
<text text-anchor="start" x="8" y="-241.5" font-family="Helvetica,sans-Serif" font-size="10.00" fill="#000000">+ buffer_empty</text>
<text text-anchor="start" x="8" y="-230.5" font-family="Helvetica,sans-Serif" font-size="10.00" fill="#000000">+ buffer_full</text>
<text text-anchor="start" x="8" y="-219.5" font-family="Helvetica,sans-Serif" font-size="10.00" fill="#000000">+ unsigned</text>
<text text-anchor="start" x="8" y="-208.5" font-family="Helvetica,sans-Serif" font-size="10.00" fill="#000000">+ buffer_overun</text>
<text text-anchor="start" x="8" y="-197.5" font-family="Helvetica,sans-Serif" font-size="10.00" fill="#000000">+ msg_complete</text>
<text text-anchor="start" x="8" y="-186.5" font-family="Helvetica,sans-Serif" font-size="10.00" fill="#000000">+ value</text>
<text text-anchor="start" x="8" y="-175.5" font-family="Helvetica,sans-Serif" font-size="10.00" fill="#000000">+ @347</text>
<polyline fill="none" stroke="#000000" points="0,-168.5 167,-168.5 "/>
<text text-anchor="middle" x="83.5" y="-156.5" font-family="Helvetica,sans-Serif" font-size="10.00" fill="#000000"> </text>
</a>
</g>
</g>
<!-- Node2&#45;&gt;Node1 -->
<g id="edge1" class="edge">
<title>Node2&#45;&gt;Node1</title>
<path fill="none" stroke="#404040" d="M83.5,-149.1398C83.5,-137.5802 83.5,-125.4871 83.5,-113.8965"/>
<polygon fill="none" stroke="#404040" points="83.5001,-113.5658 79.5,-107.5658 83.5,-101.5658 87.5,-107.5658 83.5001,-113.5658"/>
<text text-anchor="middle" x="114" y="-123" font-family="Helvetica,sans-Serif" font-size="10.00" fill="#000000"> +status</text>
</g>
</g>
</svg>
