<?xml version="1.0" encoding="UTF-8" standalone="no"?>
<!DOCTYPE svg PUBLIC "-//W3C//DTD SVG 1.1//EN"
 "http://www.w3.org/Graphics/SVG/1.1/DTD/svg11.dtd">
<!-- Generated by graphviz version 2.40.1 (0)
 -->
<!-- Title: UART_INTERFACE_s Pages: 1 -->
<svg width="406pt" height="419pt"
 viewBox="0.00 0.00 405.50 419.00" xmlns="http://www.w3.org/2000/svg" xmlns:xlink="http://www.w3.org/1999/xlink">
<g id="graph0" class="graph" transform="scale(1 1) rotate(0) translate(4 415)">
<title>UART_INTERFACE_s</title>
<polygon fill="#ffffff" stroke="transparent" points="-4,4 -4,-415 401.5,-415 401.5,4 -4,4"/>
<!-- Node1 -->
<g id="node1" class="node">
<title>Node1</title>
<g id="a_node1"><a xlink:title=" ">
<polygon fill="#bfbfbf" stroke="#000000" points="134,-.5 134,-57.5 271,-57.5 271,-.5 134,-.5"/>
<text text-anchor="middle" x="202.5" y="-45.5" font-family="Helvetica,sans-Serif" font-size="10.00" fill="#000000">UART_INTERFACE_s</text>
<polyline fill="none" stroke="#000000" points="134,-38.5 271,-38.5 "/>
<text text-anchor="start" x="142" y="-26.5" font-family="Helvetica,sans-Serif" font-size="10.00" fill="#000000">+ uart</text>
<polyline fill="none" stroke="#000000" points="134,-19.5 271,-19.5 "/>
<text text-anchor="middle" x="202.5" y="-7.5" font-family="Helvetica,sans-Serif" font-size="10.00" fill="#000000"> </text>
</a>
</g>
</g>
<!-- Node2 -->
<g id="node2" class="node">
<title>Node2</title>
<g id="a_node2"><a xlink:href="a02169.html" target="_top" xlink:title=" ">
<polygon fill="#ffffff" stroke="#000000" points="0,-171.5 0,-228.5 197,-228.5 197,-171.5 0,-171.5"/>
<text text-anchor="middle" x="98.5" y="-216.5" font-family="Helvetica,sans-Serif" font-size="10.00" fill="#000000">UART_INTERFACE_CHANNEL_s</text>
<polyline fill="none" stroke="#000000" points="0,-209.5 197,-209.5 "/>
<text text-anchor="start" x="8" y="-197.5" font-family="Helvetica,sans-Serif" font-size="10.00" fill="#000000">+ dma</text>
<polyline fill="none" stroke="#000000" points="0,-190.5 197,-190.5 "/>
<text text-anchor="middle" x="98.5" y="-178.5" font-family="Helvetica,sans-Serif" font-size="10.00" fill="#000000"> </text>
</a>
</g>
</g>
<!-- Node2&#45;&gt;Node1 -->
<g id="edge1" class="edge">
<title>Node2&#45;&gt;Node1</title>
<path fill="none" stroke="#404040" d="M115.9073,-171.3784C133.0803,-143.142 159.4656,-99.7586 178.598,-68.3004"/>
<polygon fill="none" stroke="#404040" points="178.8003,-67.9676 178.5006,-60.7628 185.0359,-57.7149 185.3357,-64.9198 178.8003,-67.9676"/>
<text text-anchor="middle" x="191.5" y="-90" font-family="Helvetica,sans-Serif" font-size="10.00" fill="#000000"> +RxD</text>
<text text-anchor="middle" x="191.5" y="-79" font-family="Helvetica,sans-Serif" font-size="10.00" fill="#000000">+TxD</text>
</g>
<!-- Node3 -->
<g id="node3" class="node">
<title>Node3</title>
<g id="a_node3"><a xlink:href="a01329.html" target="_top" xlink:title=" ">
<polygon fill="#ffffff" stroke="#000000" points="34,-331.5 34,-410.5 163,-410.5 163,-331.5 34,-331.5"/>
<text text-anchor="middle" x="98.5" y="-398.5" font-family="Helvetica,sans-Serif" font-size="10.00" fill="#000000">GPIO_PORT_PIN_s</text>
<polyline fill="none" stroke="#000000" points="34,-391.5 163,-391.5 "/>
<text text-anchor="start" x="42" y="-379.5" font-family="Helvetica,sans-Serif" font-size="10.00" fill="#000000">+ port</text>
<text text-anchor="start" x="42" y="-368.5" font-family="Helvetica,sans-Serif" font-size="10.00" fill="#000000">+ pin</text>
<text text-anchor="start" x="42" y="-357.5" font-family="Helvetica,sans-Serif" font-size="10.00" fill="#000000">+ rpid</text>
<polyline fill="none" stroke="#000000" points="34,-350.5 163,-350.5 "/>
<text text-anchor="middle" x="98.5" y="-338.5" font-family="Helvetica,sans-Serif" font-size="10.00" fill="#000000"> </text>
</a>
</g>
</g>
<!-- Node3&#45;&gt;Node2 -->
<g id="edge2" class="edge">
<title>Node3&#45;&gt;Node2</title>
<path fill="none" stroke="#404040" d="M98.5,-331.3394C98.5,-304.169 98.5,-268.2304 98.5,-240.816"/>
<polygon fill="none" stroke="#404040" points="98.5001,-240.5012 94.5,-234.5013 98.5,-228.5012 102.5,-234.5012 98.5001,-240.5012"/>
<text text-anchor="middle" x="114" y="-305" font-family="Helvetica,sans-Serif" font-size="10.00" fill="#000000"> +io</text>
</g>
<!-- Node4 -->
<g id="node4" class="node">
<title>Node4</title>
<g id="a_node4"><a xlink:href="a02165.html" target="_top" xlink:title=" ">
<polygon fill="#ffffff" stroke="#000000" points="215.5,-116.5 215.5,-283.5 397.5,-283.5 397.5,-116.5 215.5,-116.5"/>
<text text-anchor="middle" x="306.5" y="-271.5" font-family="Helvetica,sans-Serif" font-size="10.00" fill="#000000">UART_INSTANCE_STATUS_s</text>
<polyline fill="none" stroke="#000000" points="215.5,-264.5 397.5,-264.5 "/>
<text text-anchor="start" x="223.5" y="-252.5" font-family="Helvetica,sans-Serif" font-size="10.00" fill="#000000">+ ready</text>
<text text-anchor="start" x="223.5" y="-241.5" font-family="Helvetica,sans-Serif" font-size="10.00" fill="#000000">+ busy</text>
<text text-anchor="start" x="223.5" y="-230.5" font-family="Helvetica,sans-Serif" font-size="10.00" fill="#000000">+ port_open</text>
<text text-anchor="start" x="223.5" y="-219.5" font-family="Helvetica,sans-Serif" font-size="10.00" fill="#000000">+ __pad0__</text>
<text text-anchor="start" x="223.5" y="-208.5" font-family="Helvetica,sans-Serif" font-size="10.00" fill="#000000">+ __pad1__</text>
<text text-anchor="start" x="223.5" y="-197.5" font-family="Helvetica,sans-Serif" font-size="10.00" fill="#000000">+ __pad2__</text>
<text text-anchor="start" x="223.5" y="-186.5" font-family="Helvetica,sans-Serif" font-size="10.00" fill="#000000">+ __pad3__</text>
<text text-anchor="start" x="223.5" y="-175.5" font-family="Helvetica,sans-Serif" font-size="10.00" fill="#000000">+ __pad4__</text>
<text text-anchor="start" x="223.5" y="-164.5" font-family="Helvetica,sans-Serif" font-size="10.00" fill="#000000">+ __pad5__</text>
<text text-anchor="start" x="223.5" y="-153.5" font-family="Helvetica,sans-Serif" font-size="10.00" fill="#000000">+ __pad6__</text>
<text text-anchor="start" x="223.5" y="-142.5" font-family="Helvetica,sans-Serif" font-size="10.00" fill="#000000">and 6 more...</text>
<polyline fill="none" stroke="#000000" points="215.5,-135.5 397.5,-135.5 "/>
<text text-anchor="middle" x="306.5" y="-123.5" font-family="Helvetica,sans-Serif" font-size="10.00" fill="#000000"> </text>
</a>
</g>
</g>
<!-- Node4&#45;&gt;Node1 -->
<g id="edge3" class="edge">
<title>Node4&#45;&gt;Node1</title>
<path fill="none" stroke="#404040" d="M255.5663,-116.2533C245.3134,-99.3951 235.0051,-82.4459 226.2368,-68.0288"/>
<polygon fill="none" stroke="#404040" points="226.0939,-67.7938 219.5585,-64.746 219.8583,-57.5411 226.3937,-60.5889 226.0939,-67.7938"/>
<text text-anchor="middle" x="273" y="-84.5" font-family="Helvetica,sans-Serif" font-size="10.00" fill="#000000"> +status</text>
</g>
</g>
</svg>
