<?xml version="1.0" encoding="UTF-8" standalone="no"?>
<!DOCTYPE svg PUBLIC "-//W3C//DTD SVG 1.1//EN"
 "http://www.w3.org/Graphics/SVG/1.1/DTD/svg11.dtd">
<!-- Generated by graphviz version 2.40.1 (0)
 -->
<!-- Title: FAULT_OBJECT_s Pages: 1 -->
<svg width="551pt" height="248pt"
 viewBox="0.00 0.00 550.50 248.00" xmlns="http://www.w3.org/2000/svg" xmlns:xlink="http://www.w3.org/1999/xlink">
<g id="graph0" class="graph" transform="scale(1 1) rotate(0) translate(4 244)">
<title>FAULT_OBJECT_s</title>
<polygon fill="#ffffff" stroke="transparent" points="-4,4 -4,-244 546.5,-244 546.5,4 -4,4"/>
<!-- Node1 -->
<g id="node1" class="node">
<title>Node1</title>
<g id="a_node1"><a xlink:title="Generic fault object.">
<polygon fill="#bfbfbf" stroke="#000000" points="203.5,-.5 203.5,-57.5 325.5,-57.5 325.5,-.5 203.5,-.5"/>
<text text-anchor="middle" x="264.5" y="-45.5" font-family="Helvetica,sans-Serif" font-size="10.00" fill="#000000">FAULT_OBJECT_s</text>
<polyline fill="none" stroke="#000000" points="203.5,-38.5 325.5,-38.5 "/>
<text text-anchor="start" x="211.5" y="-26.5" font-family="Helvetica,sans-Serif" font-size="10.00" fill="#000000">+ Counter</text>
<polyline fill="none" stroke="#000000" points="203.5,-19.5 325.5,-19.5 "/>
<text text-anchor="middle" x="264.5" y="-7.5" font-family="Helvetica,sans-Serif" font-size="10.00" fill="#000000"> </text>
</a>
</g>
</g>
<!-- Node2 -->
<g id="node2" class="node">
<title>Node2</title>
<g id="a_node2"><a xlink:href="a02197.html" target="_top" xlink:title=" ">
<polygon fill="#ffffff" stroke="#000000" points="0,-116.5 0,-239.5 159,-239.5 159,-116.5 0,-116.5"/>
<text text-anchor="middle" x="79.5" y="-227.5" font-family="Helvetica,sans-Serif" font-size="10.00" fill="#000000">FLT_OBJECT_STATUS_s</text>
<polyline fill="none" stroke="#000000" points="0,-220.5 159,-220.5 "/>
<text text-anchor="start" x="8" y="-208.5" font-family="Helvetica,sans-Serif" font-size="10.00" fill="#000000">+ FaultStatus</text>
<text text-anchor="start" x="8" y="-197.5" font-family="Helvetica,sans-Serif" font-size="10.00" fill="#000000">+ FaultActive</text>
<text text-anchor="start" x="8" y="-186.5" font-family="Helvetica,sans-Serif" font-size="10.00" fill="#000000">+ unsigned</text>
<text text-anchor="start" x="8" y="-175.5" font-family="Helvetica,sans-Serif" font-size="10.00" fill="#000000">+ CompareType</text>
<text text-anchor="start" x="8" y="-164.5" font-family="Helvetica,sans-Serif" font-size="10.00" fill="#000000">+ Enabled</text>
<text text-anchor="start" x="8" y="-153.5" font-family="Helvetica,sans-Serif" font-size="10.00" fill="#000000">+ value</text>
<text text-anchor="start" x="8" y="-142.5" font-family="Helvetica,sans-Serif" font-size="10.00" fill="#000000">+ @350</text>
<polyline fill="none" stroke="#000000" points="0,-135.5 159,-135.5 "/>
<text text-anchor="middle" x="79.5" y="-123.5" font-family="Helvetica,sans-Serif" font-size="10.00" fill="#000000"> </text>
</a>
</g>
</g>
<!-- Node2&#45;&gt;Node1 -->
<g id="edge1" class="edge">
<title>Node2&#45;&gt;Node1</title>
<path fill="none" stroke="#404040" d="M150.1216,-116.3871C166.1597,-102.8411 183.2587,-88.7427 199.5,-76 204.1187,-72.3763 208.9788,-68.6715 213.8757,-65.0106"/>
<polygon fill="none" stroke="#404040" points="214.26,-64.7268 216.7103,-57.9447 223.913,-57.5979 221.4628,-64.38 214.26,-64.7268"/>
<text text-anchor="middle" x="230" y="-84.5" font-family="Helvetica,sans-Serif" font-size="10.00" fill="#000000"> +Status</text>
</g>
<!-- Node3 -->
<g id="node3" class="node">
<title>Node3</title>
<g id="a_node3"><a xlink:href="a02213.html" target="_top" xlink:title=" ">
<polygon fill="#ffffff" stroke="#000000" points="177.5,-138.5 177.5,-217.5 351.5,-217.5 351.5,-138.5 177.5,-138.5"/>
<text text-anchor="middle" x="264.5" y="-205.5" font-family="Helvetica,sans-Serif" font-size="10.00" fill="#000000">FLT_EVENT_RESPONSE_s</text>
<polyline fill="none" stroke="#000000" points="177.5,-198.5 351.5,-198.5 "/>
<text text-anchor="start" x="185.5" y="-186.5" font-family="Helvetica,sans-Serif" font-size="10.00" fill="#000000">+ compareThreshold</text>
<text text-anchor="start" x="185.5" y="-175.5" font-family="Helvetica,sans-Serif" font-size="10.00" fill="#000000">+ eventThreshold</text>
<text text-anchor="start" x="185.5" y="-164.5" font-family="Helvetica,sans-Serif" font-size="10.00" fill="#000000">+ ptrResponseFunction</text>
<polyline fill="none" stroke="#000000" points="177.5,-157.5 351.5,-157.5 "/>
<text text-anchor="middle" x="264.5" y="-145.5" font-family="Helvetica,sans-Serif" font-size="10.00" fill="#000000"> </text>
</a>
</g>
</g>
<!-- Node3&#45;&gt;Node1 -->
<g id="edge2" class="edge">
<title>Node3&#45;&gt;Node1</title>
<path fill="none" stroke="#404040" d="M264.5,-138.4619C264.5,-117.3723 264.5,-91.4485 264.5,-70.1238"/>
<polygon fill="none" stroke="#404040" points="264.5001,-69.8487 260.5,-63.8488 264.5,-57.8487 268.5,-63.8487 264.5001,-69.8487"/>
<text text-anchor="middle" x="332.5" y="-90" font-family="Helvetica,sans-Serif" font-size="10.00" fill="#000000"> +RecoveryResponse</text>
<text text-anchor="middle" x="332.5" y="-79" font-family="Helvetica,sans-Serif" font-size="10.00" fill="#000000">+TripResponse</text>
</g>
<!-- Node4 -->
<g id="node4" class="node">
<title>Node4</title>
<g id="a_node4"><a xlink:href="a02209.html" target="_top" xlink:title=" ">
<polygon fill="#ffffff" stroke="#000000" points="370,-144 370,-212 537,-212 537,-144 370,-144"/>
<text text-anchor="middle" x="453.5" y="-200" font-family="Helvetica,sans-Serif" font-size="10.00" fill="#000000">FLT_COMPARE_OBJECT_s</text>
<polyline fill="none" stroke="#000000" points="370,-193 537,-193 "/>
<text text-anchor="start" x="378" y="-181" font-family="Helvetica,sans-Serif" font-size="10.00" fill="#000000">+ ptrObject</text>
<text text-anchor="start" x="378" y="-170" font-family="Helvetica,sans-Serif" font-size="10.00" fill="#000000">+ bitMask</text>
<polyline fill="none" stroke="#000000" points="370,-163 537,-163 "/>
<text text-anchor="middle" x="453.5" y="-151" font-family="Helvetica,sans-Serif" font-size="10.00" fill="#000000"> </text>
</a>
</g>
</g>
<!-- Node4&#45;&gt;Node1 -->
<g id="edge3" class="edge">
<title>Node4&#45;&gt;Node1</title>
<path fill="none" stroke="#404040" d="M444.6571,-143.9192C437.2884,-121.7756 424.6736,-93.8163 404.5,-76 385.7586,-59.4487 360.9791,-48.687 337.4816,-41.7059"/>
<polygon fill="none" stroke="#404040" points="337.2902,-41.6535 330.4463,-43.9252 325.717,-38.4815 332.5609,-36.2098 337.2902,-41.6535"/>
<text text-anchor="middle" x="482" y="-90" font-family="Helvetica,sans-Serif" font-size="10.00" fill="#000000"> +SourceObject</text>
<text text-anchor="middle" x="482" y="-79" font-family="Helvetica,sans-Serif" font-size="10.00" fill="#000000">+ReferenceObject</text>
</g>
</g>
</svg>
