<?xml version="1.0" encoding="UTF-8" standalone="no"?>
<!DOCTYPE svg PUBLIC "-//W3C//DTD SVG 1.1//EN"
 "http://www.w3.org/Graphics/SVG/1.1/DTD/svg11.dtd">
<!-- Generated by graphviz version 2.40.1 (0)
 -->
<!-- Title: FAULT_MONITOR_s Pages: 1 -->
<svg width="190pt" height="237pt"
 viewBox="0.00 0.00 190.00 237.00" xmlns="http://www.w3.org/2000/svg" xmlns:xlink="http://www.w3.org/1999/xlink">
<g id="graph0" class="graph" transform="scale(1 1) rotate(0) translate(4 233)">
<title>FAULT_MONITOR_s</title>
<polygon fill="#ffffff" stroke="transparent" points="-4,4 -4,-233 186,-233 186,4 -4,4"/>
<!-- Node1 -->
<g id="node1" class="node">
<title>Node1</title>
<g id="a_node1"><a xlink:title=" ">
<polygon fill="#bfbfbf" stroke="#000000" points="0,-.5 0,-90.5 182,-90.5 182,-.5 0,-.5"/>
<text text-anchor="middle" x="91" y="-78.5" font-family="Helvetica,sans-Serif" font-size="10.00" fill="#000000">FAULT_MONITOR_s</text>
<polyline fill="none" stroke="#000000" points="0,-71.5 182,-71.5 "/>
<text text-anchor="start" x="8" y="-59.5" font-family="Helvetica,sans-Serif" font-size="10.00" fill="#000000">+ FaultStatusList</text>
<text text-anchor="start" x="8" y="-48.5" font-family="Helvetica,sans-Serif" font-size="10.00" fill="#000000">+ FaultRecoveryCounter</text>
<text text-anchor="start" x="8" y="-37.5" font-family="Helvetica,sans-Serif" font-size="10.00" fill="#000000">+ FaultLatchCount</text>
<text text-anchor="start" x="8" y="-26.5" font-family="Helvetica,sans-Serif" font-size="10.00" fill="#000000">+ FaultRecovery</text>
<polyline fill="none" stroke="#000000" points="0,-19.5 182,-19.5 "/>
<text text-anchor="middle" x="91" y="-7.5" font-family="Helvetica,sans-Serif" font-size="10.00" fill="#000000"> </text>
</a>
</g>
</g>
<!-- Node2 -->
<g id="node2" class="node">
<title>Node2</title>
<g id="a_node2"><a xlink:href="a02221.html" target="_top" xlink:title=" ">
<polygon fill="#ffffff" stroke="#000000" points="0,-138.5 0,-228.5 182,-228.5 182,-138.5 0,-138.5"/>
<text text-anchor="middle" x="91" y="-216.5" font-family="Helvetica,sans-Serif" font-size="10.00" fill="#000000">FAULT_MONITOR_STATUS_s</text>
<polyline fill="none" stroke="#000000" points="0,-209.5 182,-209.5 "/>
<text text-anchor="start" x="8" y="-197.5" font-family="Helvetica,sans-Serif" font-size="10.00" fill="#000000">+ FaultStatus</text>
<text text-anchor="start" x="8" y="-186.5" font-family="Helvetica,sans-Serif" font-size="10.00" fill="#000000">+ FaultLatch</text>
<text text-anchor="start" x="8" y="-175.5" font-family="Helvetica,sans-Serif" font-size="10.00" fill="#000000">+ unsigned</text>
<text text-anchor="start" x="8" y="-164.5" font-family="Helvetica,sans-Serif" font-size="10.00" fill="#000000">+ value</text>
<polyline fill="none" stroke="#000000" points="0,-157.5 182,-157.5 "/>
<text text-anchor="middle" x="91" y="-145.5" font-family="Helvetica,sans-Serif" font-size="10.00" fill="#000000"> </text>
</a>
</g>
</g>
<!-- Node2&#45;&gt;Node1 -->
<g id="edge1" class="edge">
<title>Node2&#45;&gt;Node1</title>
<path fill="none" stroke="#404040" d="M91,-138.3136C91,-126.9955 91,-114.703 91,-102.8793"/>
<polygon fill="none" stroke="#404040" points="91.0001,-102.7879 87,-96.7879 91,-90.7879 95,-96.7878 91.0001,-102.7879"/>
<text text-anchor="middle" x="121.5" y="-112" font-family="Helvetica,sans-Serif" font-size="10.00" fill="#000000"> +Status</text>
</g>
</g>
</svg>
