<?xml version="1.0" encoding="UTF-8" standalone="no"?>
<!DOCTYPE svg PUBLIC "-//W3C//DTD SVG 1.1//EN"
 "http://www.w3.org/Graphics/SVG/1.1/DTD/svg11.dtd">
<!-- Generated by graphviz version 2.40.1 (0)
 -->
<!-- Title: FAULT_OBJECT_s Pages: 1 -->
<!--zoomable 248 -->
<svg id="main" version="1.1" xmlns="http://www.w3.org/2000/svg" xmlns:xlink="http://www.w3.org/1999/xlink" xml:space="preserve" onload="init(evt)">
<style type="text/css"><![CDATA[
.edge:hover path { stroke: red; }
.edge:hover polygon { stroke: red; fill: red; }
]]></style>
<script type="text/javascript"><![CDATA[
var edges = document.getElementsByTagName('g');
if (edges && edges.length) {
  for (var i=0;i<edges.length;i++) {
    if (edges[i].id.substr(0,4)=='edge') {
      edges[i].setAttribute('class','edge');
    }
  }
}
]]></script>
        <defs>
                <circle id="rim" cx="0" cy="0" r="7"/>
                <circle id="rim2" cx="0" cy="0" r="3.5"/>
                <g id="zoomPlus">
                        <use xlink:href="#rim" fill="#404040">
                                <set attributeName="fill" to="#808080" begin="zoomplus.mouseover" end="zoomplus.mouseout"/>
                        </use>
                        <path d="M-4,0h8M0,-4v8" fill="none" stroke="white" stroke-width="1.5" pointer-events="none"/>
                </g>
                <g id="zoomMin">
                        <use xlink:href="#rim" fill="#404040">
                                <set attributeName="fill" to="#808080" begin="zoomminus.mouseover" end="zoomminus.mouseout"/>
                        </use>
                        <path d="M-4,0h8" fill="none" stroke="white" stroke-width="1.5" pointer-events="none"/>
                </g>
                <g id="dirArrow">
                        <path fill="none" stroke="white" stroke-width="1.5" d="M0,-3.0v7 M-2.5,-0.5L0,-3.0L2.5,-0.5"/>
                </g>
               <g id="resetDef">
                       <use xlink:href="#rim2" fill="#404040">
                               <set attributeName="fill" to="#808080" begin="reset.mouseover" end="reset.mouseout"/>
                       </use>
               </g>
        </defs>

<script type="text/javascript">
var viewWidth = 551;
var viewHeight = 248;
var sectionId = 'dynsection-0';
</script>
<script xlink:href="svgpan.js"/>
<svg id="graph" class="graph">
<g id="viewport">
<title>FAULT_OBJECT_s</title>
<polygon fill="#ffffff" stroke="transparent" points="-4,4 -4,-244 546.5,-244 546.5,4 -4,4"/>
<!-- Node1 -->
<g id="node1" class="node">
<title>Node1</title>
<g id="a_node1"><a xlink:title="Generic fault object.">
<polygon fill="#bfbfbf" stroke="#000000" points="203.5,-.5 203.5,-57.5 325.5,-57.5 325.5,-.5 203.5,-.5"/>
<text text-anchor="middle" x="264.5" y="-45.5" font-family="Helvetica,sans-Serif" font-size="10.00" fill="#000000">FAULT_OBJECT_s</text>
<polyline fill="none" stroke="#000000" points="203.5,-38.5 325.5,-38.5 "/>
<text text-anchor="start" x="211.5" y="-26.5" font-family="Helvetica,sans-Serif" font-size="10.00" fill="#000000">+ Counter</text>
<polyline fill="none" stroke="#000000" points="203.5,-19.5 325.5,-19.5 "/>
<text text-anchor="middle" x="264.5" y="-7.5" font-family="Helvetica,sans-Serif" font-size="10.00" fill="#000000"> </text>
</a>
</g>
</g>
<!-- Node2 -->
<g id="node2" class="node">
<title>Node2</title>
<g id="a_node2"><a xlink:href="a02197.html" target="_top" xlink:title=" ">
<polygon fill="#ffffff" stroke="#000000" points="0,-116.5 0,-239.5 159,-239.5 159,-116.5 0,-116.5"/>
<text text-anchor="middle" x="79.5" y="-227.5" font-family="Helvetica,sans-Serif" font-size="10.00" fill="#000000">FLT_OBJECT_STATUS_s</text>
<polyline fill="none" stroke="#000000" points="0,-220.5 159,-220.5 "/>
<text text-anchor="start" x="8" y="-208.5" font-family="Helvetica,sans-Serif" font-size="10.00" fill="#000000">+ FaultStatus</text>
<text text-anchor="start" x="8" y="-197.5" font-family="Helvetica,sans-Serif" font-size="10.00" fill="#000000">+ FaultActive</text>
<text text-anchor="start" x="8" y="-186.5" font-family="Helvetica,sans-Serif" font-size="10.00" fill="#000000">+ unsigned</text>
<text text-anchor="start" x="8" y="-175.5" font-family="Helvetica,sans-Serif" font-size="10.00" fill="#000000">+ CompareType</text>
<text text-anchor="start" x="8" y="-164.5" font-family="Helvetica,sans-Serif" font-size="10.00" fill="#000000">+ Enabled</text>
<text text-anchor="start" x="8" y="-153.5" font-family="Helvetica,sans-Serif" font-size="10.00" fill="#000000">+ value</text>
<text text-anchor="start" x="8" y="-142.5" font-family="Helvetica,sans-Serif" font-size="10.00" fill="#000000">+ @350</text>
<polyline fill="none" stroke="#000000" points="0,-135.5 159,-135.5 "/>
<text text-anchor="middle" x="79.5" y="-123.5" font-family="Helvetica,sans-Serif" font-size="10.00" fill="#000000"> </text>
</a>
</g>
</g>
<!-- Node2&#45;&gt;Node1 -->
<g id="edge1" class="edge">
<title>Node2&#45;&gt;Node1</title>
<path fill="none" stroke="#404040" d="M150.1216,-116.3871C166.1597,-102.8411 183.2587,-88.7427 199.5,-76 204.1187,-72.3763 208.9788,-68.6715 213.8757,-65.0106"/>
<polygon fill="none" stroke="#404040" points="214.26,-64.7268 216.7103,-57.9447 223.913,-57.5979 221.4628,-64.38 214.26,-64.7268"/>
<text text-anchor="middle" x="230" y="-84.5" font-family="Helvetica,sans-Serif" font-size="10.00" fill="#000000"> +Status</text>
</g>
<!-- Node3 -->
<g id="node3" class="node">
<title>Node3</title>
<g id="a_node3"><a xlink:href="a02213.html" target="_top" xlink:title=" ">
<polygon fill="#ffffff" stroke="#000000" points="177.5,-138.5 177.5,-217.5 351.5,-217.5 351.5,-138.5 177.5,-138.5"/>
<text text-anchor="middle" x="264.5" y="-205.5" font-family="Helvetica,sans-Serif" font-size="10.00" fill="#000000">FLT_EVENT_RESPONSE_s</text>
<polyline fill="none" stroke="#000000" points="177.5,-198.5 351.5,-198.5 "/>
<text text-anchor="start" x="185.5" y="-186.5" font-family="Helvetica,sans-Serif" font-size="10.00" fill="#000000">+ compareThreshold</text>
<text text-anchor="start" x="185.5" y="-175.5" font-family="Helvetica,sans-Serif" font-size="10.00" fill="#000000">+ eventThreshold</text>
<text text-anchor="start" x="185.5" y="-164.5" font-family="Helvetica,sans-Serif" font-size="10.00" fill="#000000">+ ptrResponseFunction</text>
<polyline fill="none" stroke="#000000" points="177.5,-157.5 351.5,-157.5 "/>
<text text-anchor="middle" x="264.5" y="-145.5" font-family="Helvetica,sans-Serif" font-size="10.00" fill="#000000"> </text>
</a>
</g>
</g>
<!-- Node3&#45;&gt;Node1 -->
<g id="edge2" class="edge">
<title>Node3&#45;&gt;Node1</title>
<path fill="none" stroke="#404040" d="M264.5,-138.4619C264.5,-117.3723 264.5,-91.4485 264.5,-70.1238"/>
<polygon fill="none" stroke="#404040" points="264.5001,-69.8487 260.5,-63.8488 264.5,-57.8487 268.5,-63.8487 264.5001,-69.8487"/>
<text text-anchor="middle" x="332.5" y="-90" font-family="Helvetica,sans-Serif" font-size="10.00" fill="#000000"> +RecoveryResponse</text>
<text text-anchor="middle" x="332.5" y="-79" font-family="Helvetica,sans-Serif" font-size="10.00" fill="#000000">+TripResponse</text>
</g>
<!-- Node4 -->
<g id="node4" class="node">
<title>Node4</title>
<g id="a_node4"><a xlink:href="a02209.html" target="_top" xlink:title=" ">
<polygon fill="#ffffff" stroke="#000000" points="370,-144 370,-212 537,-212 537,-144 370,-144"/>
<text text-anchor="middle" x="453.5" y="-200" font-family="Helvetica,sans-Serif" font-size="10.00" fill="#000000">FLT_COMPARE_OBJECT_s</text>
<polyline fill="none" stroke="#000000" points="370,-193 537,-193 "/>
<text text-anchor="start" x="378" y="-181" font-family="Helvetica,sans-Serif" font-size="10.00" fill="#000000">+ ptrObject</text>
<text text-anchor="start" x="378" y="-170" font-family="Helvetica,sans-Serif" font-size="10.00" fill="#000000">+ bitMask</text>
<polyline fill="none" stroke="#000000" points="370,-163 537,-163 "/>
<text text-anchor="middle" x="453.5" y="-151" font-family="Helvetica,sans-Serif" font-size="10.00" fill="#000000"> </text>
</a>
</g>
</g>
<!-- Node4&#45;&gt;Node1 -->
<g id="edge3" class="edge">
<title>Node4&#45;&gt;Node1</title>
<path fill="none" stroke="#404040" d="M444.6571,-143.9192C437.2884,-121.7756 424.6736,-93.8163 404.5,-76 385.7586,-59.4487 360.9791,-48.687 337.4816,-41.7059"/>
<polygon fill="none" stroke="#404040" points="337.2902,-41.6535 330.4463,-43.9252 325.717,-38.4815 332.5609,-36.2098 337.2902,-41.6535"/>
<text text-anchor="middle" x="482" y="-90" font-family="Helvetica,sans-Serif" font-size="10.00" fill="#000000"> +SourceObject</text>
<text text-anchor="middle" x="482" y="-79" font-family="Helvetica,sans-Serif" font-size="10.00" fill="#000000">+ReferenceObject</text>
</g>
</g>
</svg>
        <g id="navigator" transform="translate(0 0)" fill="#404254">
                <rect fill="#f2f5e9" fill-opacity="0.5" stroke="#606060" stroke-width=".5" x="0" y="0" width="60" height="60"/>
                <use id="zoomplus" xlink:href="#zoomPlus" x="17" y="9" onmousedown="handleZoom(evt,'in')"/>
                <use id="zoomminus" xlink:href="#zoomMin" x="42" y="9" onmousedown="handleZoom(evt,'out')"/>
                <use id="reset" xlink:href="#resetDef" x="30" y="36" onmousedown="handleReset()"/>
                <g id="arrowUp" xlink:href="#dirArrow" transform="translate(30 24)" onmousedown="handlePan(0,-1)">
                  <use xlink:href="#rim" fill="#404040">
                        <set attributeName="fill" to="#808080" begin="arrowUp.mouseover" end="arrowUp.mouseout"/>
                  </use>
                  <path fill="none" stroke="white" stroke-width="1.5" d="M0,-3.0v7 M-2.5,-0.5L0,-3.0L2.5,-0.5"/>
                </g>
                <g id="arrowRight" xlink:href="#dirArrow" transform="rotate(90) translate(36 -43)" onmousedown="handlePan(1,0)">
                  <use xlink:href="#rim" fill="#404040">
                        <set attributeName="fill" to="#808080" begin="arrowRight.mouseover" end="arrowRight.mouseout"/>
                  </use>
                  <path fill="none" stroke="white" stroke-width="1.5" d="M0,-3.0v7 M-2.5,-0.5L0,-3.0L2.5,-0.5"/>
                </g>
                <g id="arrowDown" xlink:href="#dirArrow" transform="rotate(180) translate(-30 -48)" onmousedown="handlePan(0,1)">
                  <use xlink:href="#rim" fill="#404040">
                        <set attributeName="fill" to="#808080" begin="arrowDown.mouseover" end="arrowDown.mouseout"/>
                  </use>
                  <path fill="none" stroke="white" stroke-width="1.5" d="M0,-3.0v7 M-2.5,-0.5L0,-3.0L2.5,-0.5"/>
                </g>
                <g id="arrowLeft" xlink:href="#dirArrow" transform="rotate(270) translate(-36 17)" onmousedown="handlePan(-1,0)">
                  <use xlink:href="#rim" fill="#404040">
                        <set attributeName="fill" to="#808080" begin="arrowLeft.mouseover" end="arrowLeft.mouseout"/>
                  </use>
                  <path fill="none" stroke="white" stroke-width="1.5" d="M0,-3.0v7 M-2.5,-0.5L0,-3.0L2.5,-0.5"/>
                </g>
        </g>
        <svg viewBox="0 0 15 15" width="100%" height="30px" preserveAspectRatio="xMaxYMin meet">
         <g id="arrow_out" transform="scale(0.3 0.3)">
          <a xlink:href="a02215_org.svg" target="_base">
           <rect id="button" ry="5" rx="5" y="6" x="6" height="38" width="38"
                fill="#f2f5e9" fill-opacity="0.5" stroke="#606060" stroke-width="1.0"/>
           <path id="arrow"
             d="M 11.500037,31.436501 C 11.940474,20.09759 22.043105,11.32322 32.158766,21.979434 L 37.068811,17.246167 C 37.068811,17.246167 37.088388,32 37.088388,32 L 22.160133,31.978069 C 22.160133,31.978069 26.997745,27.140456 26.997745,27.140456 C 18.528582,18.264221 13.291696,25.230495 11.500037,31.436501 z"
             style="fill:#404040;"/>
          </a>
         </g>
        </svg>
</svg>
