<?xml version="1.0" encoding="UTF-8" standalone="no"?>
<!DOCTYPE svg PUBLIC "-//W3C//DTD SVG 1.1//EN"
 "http://www.w3.org/Graphics/SVG/1.1/DTD/svg11.dtd">
<!-- Generated by graphviz version 2.40.1 (0)
 -->
<!-- Title: TRAP_LOGGER_s Pages: 1 -->
<svg width="667pt" height="347pt"
 viewBox="0.00 0.00 667.00 347.00" xmlns="http://www.w3.org/2000/svg" xmlns:xlink="http://www.w3.org/1999/xlink">
<g id="graph0" class="graph" transform="scale(1 1) rotate(0) translate(4 343)">
<title>TRAP_LOGGER_s</title>
<polygon fill="#ffffff" stroke="transparent" points="-4,4 -4,-343 663,-343 663,4 -4,4"/>
<!-- Node1 -->
<g id="node1" class="node">
<title>Node1</title>
<g id="a_node1"><a xlink:title=" ">
<polygon fill="#bfbfbf" stroke="#000000" points="246.5,-.5 246.5,-79.5 360.5,-79.5 360.5,-.5 246.5,-.5"/>
<text text-anchor="middle" x="303.5" y="-67.5" font-family="Helvetica,sans-Serif" font-size="10.00" fill="#000000">TRAP_LOGGER_s</text>
<polyline fill="none" stroke="#000000" points="246.5,-60.5 360.5,-60.5 "/>
<text text-anchor="start" x="254.5" y="-48.5" font-family="Helvetica,sans-Serif" font-size="10.00" fill="#000000">+ reset_count</text>
<text text-anchor="start" x="254.5" y="-37.5" font-family="Helvetica,sans-Serif" font-size="10.00" fill="#000000">+ trap_id</text>
<text text-anchor="start" x="254.5" y="-26.5" font-family="Helvetica,sans-Serif" font-size="10.00" fill="#000000">+ trap_count</text>
<polyline fill="none" stroke="#000000" points="246.5,-19.5 360.5,-19.5 "/>
<text text-anchor="middle" x="303.5" y="-7.5" font-family="Helvetica,sans-Serif" font-size="10.00" fill="#000000"> </text>
</a>
</g>
</g>
<!-- Node2 -->
<g id="node2" class="node">
<title>Node2</title>
<g id="a_node2"><a xlink:href="a02285.html" target="_top" xlink:title=" ">
<polygon fill="#ffffff" stroke="#000000" points="0,-193.5 0,-272.5 99,-272.5 99,-193.5 0,-193.5"/>
<text text-anchor="middle" x="49.5" y="-260.5" font-family="Helvetica,sans-Serif" font-size="10.00" fill="#000000">TASK_INFO_s</text>
<polyline fill="none" stroke="#000000" points="0,-253.5 99,-253.5 "/>
<text text-anchor="start" x="8" y="-241.5" font-family="Helvetica,sans-Serif" font-size="10.00" fill="#000000">+ task_id</text>
<text text-anchor="start" x="8" y="-230.5" font-family="Helvetica,sans-Serif" font-size="10.00" fill="#000000">+ fault_id</text>
<text text-anchor="start" x="8" y="-219.5" font-family="Helvetica,sans-Serif" font-size="10.00" fill="#000000">+ op_mode</text>
<polyline fill="none" stroke="#000000" points="0,-212.5 99,-212.5 "/>
<text text-anchor="middle" x="49.5" y="-200.5" font-family="Helvetica,sans-Serif" font-size="10.00" fill="#000000"> </text>
</a>
</g>
</g>
<!-- Node2&#45;&gt;Node1 -->
<g id="edge1" class="edge">
<title>Node2&#45;&gt;Node1</title>
<path fill="none" stroke="#404040" d="M52.1499,-193.4252C56.2578,-163.2907 66.6019,-122.8798 92.5,-98 112.94,-78.3637 181.2369,-61.9135 234.6578,-51.6063"/>
<polygon fill="none" stroke="#404040" points="234.7039,-51.5977 239.8589,-46.5553 246.4961,-49.3744 241.3411,-54.4168 234.7039,-51.5977"/>
<text text-anchor="middle" x="145.5" y="-101" font-family="Helvetica,sans-Serif" font-size="10.00" fill="#000000"> +task_capture</text>
</g>
<!-- Node3 -->
<g id="node3" class="node">
<title>Node3</title>
<g id="a_node3"><a xlink:href="a02237.html" target="_top" xlink:title=" ">
<polygon fill="#ffffff" stroke="#000000" points="117.5,-149.5 117.5,-316.5 239.5,-316.5 239.5,-149.5 117.5,-149.5"/>
<text text-anchor="middle" x="178.5" y="-304.5" font-family="Helvetica,sans-Serif" font-size="10.00" fill="#000000">TRAP_FLAGS_s</text>
<polyline fill="none" stroke="#000000" points="117.5,-297.5 239.5,-297.5 "/>
<text text-anchor="start" x="125.5" y="-285.5" font-family="Helvetica,sans-Serif" font-size="10.00" fill="#000000">+ OVAERR</text>
<text text-anchor="start" x="125.5" y="-274.5" font-family="Helvetica,sans-Serif" font-size="10.00" fill="#000000">+ OVBERR</text>
<text text-anchor="start" x="125.5" y="-263.5" font-family="Helvetica,sans-Serif" font-size="10.00" fill="#000000">+ COVAERR</text>
<text text-anchor="start" x="125.5" y="-252.5" font-family="Helvetica,sans-Serif" font-size="10.00" fill="#000000">+ COVBERR</text>
<text text-anchor="start" x="125.5" y="-241.5" font-family="Helvetica,sans-Serif" font-size="10.00" fill="#000000">+ SFTACERR</text>
<text text-anchor="start" x="125.5" y="-230.5" font-family="Helvetica,sans-Serif" font-size="10.00" fill="#000000">+ DIV0ERR</text>
<text text-anchor="start" x="125.5" y="-219.5" font-family="Helvetica,sans-Serif" font-size="10.00" fill="#000000">+ MATHERR</text>
<text text-anchor="start" x="125.5" y="-208.5" font-family="Helvetica,sans-Serif" font-size="10.00" fill="#000000">+ ADDRERR</text>
<text text-anchor="start" x="125.5" y="-197.5" font-family="Helvetica,sans-Serif" font-size="10.00" fill="#000000">+ STKERR</text>
<text text-anchor="start" x="125.5" y="-186.5" font-family="Helvetica,sans-Serif" font-size="10.00" fill="#000000">+ OSCFAIL</text>
<text text-anchor="start" x="125.5" y="-175.5" font-family="Helvetica,sans-Serif" font-size="10.00" fill="#000000">and 12 more...</text>
<polyline fill="none" stroke="#000000" points="117.5,-168.5 239.5,-168.5 "/>
<text text-anchor="middle" x="178.5" y="-156.5" font-family="Helvetica,sans-Serif" font-size="10.00" fill="#000000"> </text>
</a>
</g>
</g>
<!-- Node3&#45;&gt;Node1 -->
<g id="edge2" class="edge">
<title>Node3&#45;&gt;Node1</title>
<path fill="none" stroke="#404040" d="M186.2206,-149.3511C190.7503,-131.2445 197.7482,-113.039 208.5,-98 215.8243,-87.7551 225.5763,-78.9675 236.0453,-71.5591"/>
<polygon fill="none" stroke="#404040" points="236.2085,-71.4522 239.0355,-64.8183 246.2464,-64.8764 243.4194,-71.5103 236.2085,-71.4522"/>
<text text-anchor="middle" x="254" y="-101" font-family="Helvetica,sans-Serif" font-size="10.00" fill="#000000"> +trap_flags</text>
</g>
<!-- Node4 -->
<g id="node4" class="node">
<title>Node4</title>
<g id="a_node4"><a xlink:href="a02261.html" target="_top" xlink:title=" ">
<polygon fill="#ffffff" stroke="#000000" points="257.5,-127.5 257.5,-338.5 349.5,-338.5 349.5,-127.5 257.5,-127.5"/>
<text text-anchor="middle" x="303.5" y="-326.5" font-family="Helvetica,sans-Serif" font-size="10.00" fill="#000000">CPU_RCON_s</text>
<polyline fill="none" stroke="#000000" points="257.5,-319.5 349.5,-319.5 "/>
<text text-anchor="start" x="265.5" y="-307.5" font-family="Helvetica,sans-Serif" font-size="10.00" fill="#000000">+ por</text>
<text text-anchor="start" x="265.5" y="-296.5" font-family="Helvetica,sans-Serif" font-size="10.00" fill="#000000">+ bor</text>
<text text-anchor="start" x="265.5" y="-285.5" font-family="Helvetica,sans-Serif" font-size="10.00" fill="#000000">+ idle</text>
<text text-anchor="start" x="265.5" y="-274.5" font-family="Helvetica,sans-Serif" font-size="10.00" fill="#000000">+ sleep</text>
<text text-anchor="start" x="265.5" y="-263.5" font-family="Helvetica,sans-Serif" font-size="10.00" fill="#000000">+ wdto</text>
<text text-anchor="start" x="265.5" y="-252.5" font-family="Helvetica,sans-Serif" font-size="10.00" fill="#000000">+ swdten</text>
<text text-anchor="start" x="265.5" y="-241.5" font-family="Helvetica,sans-Serif" font-size="10.00" fill="#000000">+ swr</text>
<text text-anchor="start" x="265.5" y="-230.5" font-family="Helvetica,sans-Serif" font-size="10.00" fill="#000000">+ extr</text>
<text text-anchor="start" x="265.5" y="-219.5" font-family="Helvetica,sans-Serif" font-size="10.00" fill="#000000">+ vregs</text>
<text text-anchor="start" x="265.5" y="-208.5" font-family="Helvetica,sans-Serif" font-size="10.00" fill="#000000">+ cm</text>
<text text-anchor="start" x="265.5" y="-197.5" font-family="Helvetica,sans-Serif" font-size="10.00" fill="#000000">+ unsigned</text>
<text text-anchor="start" x="265.5" y="-186.5" font-family="Helvetica,sans-Serif" font-size="10.00" fill="#000000">+ vregsf</text>
<text text-anchor="start" x="265.5" y="-175.5" font-family="Helvetica,sans-Serif" font-size="10.00" fill="#000000">+ iopuwr</text>
<text text-anchor="start" x="265.5" y="-164.5" font-family="Helvetica,sans-Serif" font-size="10.00" fill="#000000">+ trapr</text>
<text text-anchor="start" x="265.5" y="-153.5" font-family="Helvetica,sans-Serif" font-size="10.00" fill="#000000">+ value</text>
<polyline fill="none" stroke="#000000" points="257.5,-146.5 349.5,-146.5 "/>
<text text-anchor="middle" x="303.5" y="-134.5" font-family="Helvetica,sans-Serif" font-size="10.00" fill="#000000"> </text>
</a>
</g>
</g>
<!-- Node4&#45;&gt;Node1 -->
<g id="edge3" class="edge">
<title>Node4&#45;&gt;Node1</title>
<path fill="none" stroke="#404040" d="M303.5,-127.4649C303.5,-115.0606 303.5,-102.8571 303.5,-91.684"/>
<polygon fill="none" stroke="#404040" points="303.5001,-91.5513 299.5,-85.5514 303.5,-79.5513 307.5,-85.5513 303.5001,-91.5513"/>
<text text-anchor="middle" x="341.5" y="-101" font-family="Helvetica,sans-Serif" font-size="10.00" fill="#000000"> +rcon_reg</text>
</g>
<!-- Node5 -->
<g id="node5" class="node">
<title>Node5</title>
<g id="a_node5"><a xlink:href="a02249.html" target="_top" xlink:title=" ">
<polygon fill="#ffffff" stroke="#000000" points="367.5,-182.5 367.5,-283.5 481.5,-283.5 481.5,-182.5 367.5,-182.5"/>
<text text-anchor="middle" x="424.5" y="-271.5" font-family="Helvetica,sans-Serif" font-size="10.00" fill="#000000">CPU_INTTREG_s</text>
<polyline fill="none" stroke="#000000" points="367.5,-264.5 481.5,-264.5 "/>
<text text-anchor="start" x="375.5" y="-252.5" font-family="Helvetica,sans-Serif" font-size="10.00" fill="#000000">+ VECNUM</text>
<text text-anchor="start" x="375.5" y="-241.5" font-family="Helvetica,sans-Serif" font-size="10.00" fill="#000000">+ ILR</text>
<text text-anchor="start" x="375.5" y="-230.5" font-family="Helvetica,sans-Serif" font-size="10.00" fill="#000000">+ unsigned</text>
<text text-anchor="start" x="375.5" y="-219.5" font-family="Helvetica,sans-Serif" font-size="10.00" fill="#000000">+ VHOLD</text>
<text text-anchor="start" x="375.5" y="-208.5" font-family="Helvetica,sans-Serif" font-size="10.00" fill="#000000">+ value</text>
<polyline fill="none" stroke="#000000" points="367.5,-201.5 481.5,-201.5 "/>
<text text-anchor="middle" x="424.5" y="-189.5" font-family="Helvetica,sans-Serif" font-size="10.00" fill="#000000"> </text>
</a>
</g>
</g>
<!-- Node5&#45;&gt;Node1 -->
<g id="edge4" class="edge">
<title>Node5&#45;&gt;Node1</title>
<path fill="none" stroke="#404040" d="M417.1691,-182.3905C411.3795,-155.4431 401.1985,-122.8345 383.5,-98 379.5798,-92.4992 374.9729,-87.3184 369.9834,-82.4893"/>
<polygon fill="none" stroke="#404040" points="369.6172,-82.1632 362.476,-81.161 360.6546,-74.1837 367.7958,-75.1859 369.6172,-82.1632"/>
<text text-anchor="middle" x="423.5" y="-101" font-family="Helvetica,sans-Serif" font-size="10.00" fill="#000000"> +inttreg</text>
</g>
<!-- Node6 -->
<g id="node6" class="node">
<title>Node6</title>
<g id="a_node6"><a xlink:href="a02273.html" target="_top" xlink:title=" ">
<polygon fill="#ffffff" stroke="#000000" points="500,-188 500,-278 659,-278 659,-188 500,-188"/>
<text text-anchor="middle" x="579.5" y="-266" font-family="Helvetica,sans-Serif" font-size="10.00" fill="#000000">TRAPLOG_STATUS_s</text>
<polyline fill="none" stroke="#000000" points="500,-259 659,-259 "/>
<text text-anchor="start" x="508" y="-247" font-family="Helvetica,sans-Serif" font-size="10.00" fill="#000000">+ cpu_reset_trigger</text>
<text text-anchor="start" x="508" y="-236" font-family="Helvetica,sans-Serif" font-size="10.00" fill="#000000">+ unsigned</text>
<text text-anchor="start" x="508" y="-225" font-family="Helvetica,sans-Serif" font-size="10.00" fill="#000000">+ sw_reset</text>
<text text-anchor="start" x="508" y="-214" font-family="Helvetica,sans-Serif" font-size="10.00" fill="#000000">+ value</text>
<polyline fill="none" stroke="#000000" points="500,-207 659,-207 "/>
<text text-anchor="middle" x="579.5" y="-195" font-family="Helvetica,sans-Serif" font-size="10.00" fill="#000000"> </text>
</a>
</g>
</g>
<!-- Node6&#45;&gt;Node1 -->
<g id="edge5" class="edge">
<title>Node6&#45;&gt;Node1</title>
<path fill="none" stroke="#404040" d="M550.2404,-187.8156C528.9317,-158.2823 497.5672,-121.0471 461.5,-98 434.3406,-80.645 401.253,-67.4779 372.3879,-58.1117"/>
<polygon fill="none" stroke="#404040" points="372.1747,-58.0449 365.253,-60.0672 360.724,-54.4558 367.6457,-52.4334 372.1747,-58.0449"/>
<text text-anchor="middle" x="503" y="-101" font-family="Helvetica,sans-Serif" font-size="10.00" fill="#000000"> +status</text>
</g>
</g>
</svg>
