<?xml version="1.0" encoding="UTF-8" standalone="no"?>
<!DOCTYPE svg PUBLIC "-//W3C//DTD SVG 1.1//EN"
 "http://www.w3.org/Graphics/SVG/1.1/DTD/svg11.dtd">
<!-- Generated by graphviz version 2.40.1 (0)
 -->
<!-- Title: APPLICATION_TASK_s Pages: 1 -->
<svg width="678pt" height="204pt"
 viewBox="0.00 0.00 677.50 204.00" xmlns="http://www.w3.org/2000/svg" xmlns:xlink="http://www.w3.org/1999/xlink">
<g id="graph0" class="graph" transform="scale(1 1) rotate(0) translate(4 200)">
<title>APPLICATION_TASK_s</title>
<polygon fill="#ffffff" stroke="transparent" points="-4,4 -4,-200 673.5,-200 673.5,4 -4,4"/>
<!-- Node1 -->
<g id="node1" class="node">
<title>Node1</title>
<g id="a_node1"><a xlink:title="DESCRIPTION.">
<polygon fill="#bfbfbf" stroke="#000000" points="269.5,-.5 269.5,-57.5 421.5,-57.5 421.5,-.5 269.5,-.5"/>
<text text-anchor="middle" x="345.5" y="-45.5" font-family="Helvetica,sans-Serif" font-size="10.00" fill="#000000">APPLICATION_TASK_s</text>
<polyline fill="none" stroke="#000000" points="269.5,-38.5 421.5,-38.5 "/>
<text text-anchor="start" x="277.5" y="-26.5" font-family="Helvetica,sans-Serif" font-size="10.00" fill="#000000">+ TaskID</text>
<polyline fill="none" stroke="#000000" points="269.5,-19.5 421.5,-19.5 "/>
<text text-anchor="middle" x="345.5" y="-7.5" font-family="Helvetica,sans-Serif" font-size="10.00" fill="#000000"> </text>
</a>
</g>
</g>
<!-- Node2 -->
<g id="node2" class="node">
<title>Node2</title>
<g id="a_node2"><a xlink:href="a02317.html" target="_top" xlink:title="DESCRIPTION.">
<polygon fill="#ffffff" stroke="#000000" points="0,-105.5 0,-195.5 159,-195.5 159,-105.5 0,-105.5"/>
<text text-anchor="middle" x="79.5" y="-183.5" font-family="Helvetica,sans-Serif" font-size="10.00" fill="#000000">APPTASK_EXECUTION_s</text>
<polyline fill="none" stroke="#000000" points="0,-176.5 159,-176.5 "/>
<text text-anchor="start" x="8" y="-164.5" font-family="Helvetica,sans-Serif" font-size="10.00" fill="#000000">+ execClass</text>
<text text-anchor="start" x="8" y="-153.5" font-family="Helvetica,sans-Serif" font-size="10.00" fill="#000000">+ Counter</text>
<text text-anchor="start" x="8" y="-142.5" font-family="Helvetica,sans-Serif" font-size="10.00" fill="#000000">+ Period</text>
<text text-anchor="start" x="8" y="-131.5" font-family="Helvetica,sans-Serif" font-size="10.00" fill="#000000">+ Offset</text>
<polyline fill="none" stroke="#000000" points="0,-124.5 159,-124.5 "/>
<text text-anchor="middle" x="79.5" y="-112.5" font-family="Helvetica,sans-Serif" font-size="10.00" fill="#000000"> </text>
</a>
</g>
</g>
<!-- Node2&#45;&gt;Node1 -->
<g id="edge1" class="edge">
<title>Node2&#45;&gt;Node1</title>
<path fill="none" stroke="#404040" d="M159.0725,-109.81C162.2562,-108.185 165.4082,-106.5768 168.5,-105 193.8207,-92.0863 199.5696,-87.6412 225.5,-76 235.953,-71.3072 247.026,-66.6112 258.0526,-62.1009"/>
<polygon fill="none" stroke="#404040" points="258.3726,-61.9716 262.4371,-56.0151 269.4987,-57.476 265.4342,-63.4325 258.3726,-61.9716"/>
<text text-anchor="middle" x="263.5" y="-79" font-family="Helvetica,sans-Serif" font-size="10.00" fill="#000000"> +Settings</text>
</g>
<!-- Node3 -->
<g id="node3" class="node">
<title>Node3</title>
<g id="a_node3"><a xlink:href="a02325.html" target="_top" xlink:title="DESCRIPTION.">
<polygon fill="#ffffff" stroke="#000000" points="177,-111 177,-190 344,-190 344,-111 177,-111"/>
<text text-anchor="middle" x="260.5" y="-178" font-family="Helvetica,sans-Serif" font-size="10.00" fill="#000000">APPTASK_STATISTICS_s</text>
<polyline fill="none" stroke="#000000" points="177,-171 344,-171 "/>
<text text-anchor="start" x="185" y="-159" font-family="Helvetica,sans-Serif" font-size="10.00" fill="#000000">+ exec_time</text>
<text text-anchor="start" x="185" y="-148" font-family="Helvetica,sans-Serif" font-size="10.00" fill="#000000">+ avg_time</text>
<text text-anchor="start" x="185" y="-137" font-family="Helvetica,sans-Serif" font-size="10.00" fill="#000000">+ max_time</text>
<polyline fill="none" stroke="#000000" points="177,-130 344,-130 "/>
<text text-anchor="middle" x="260.5" y="-118" font-family="Helvetica,sans-Serif" font-size="10.00" fill="#000000"> </text>
</a>
</g>
</g>
<!-- Node3&#45;&gt;Node1 -->
<g id="edge2" class="edge">
<title>Node3&#45;&gt;Node1</title>
<path fill="none" stroke="#404040" d="M288.3322,-110.7164C297.9778,-96.9288 308.7723,-81.499 318.3613,-67.7924"/>
<polygon fill="none" stroke="#404040" points="318.5412,-67.5351 318.7031,-60.3258 325.4201,-57.7024 325.2582,-64.9117 318.5412,-67.5351"/>
<text text-anchor="middle" x="356" y="-79" font-family="Helvetica,sans-Serif" font-size="10.00" fill="#000000"> +Statistics</text>
</g>
<!-- Node4 -->
<g id="node4" class="node">
<title>Node4</title>
<g id="a_node4"><a xlink:href="a02313.html" target="_top" xlink:title="DESCRIPTION.">
<polygon fill="#ffffff" stroke="#000000" points="362,-105.5 362,-195.5 499,-195.5 499,-105.5 362,-105.5"/>
<text text-anchor="middle" x="430.5" y="-183.5" font-family="Helvetica,sans-Serif" font-size="10.00" fill="#000000">APPTASK_STATUS_s</text>
<polyline fill="none" stroke="#000000" points="362,-176.5 499,-176.5 "/>
<text text-anchor="start" x="370" y="-164.5" font-family="Helvetica,sans-Serif" font-size="10.00" fill="#000000">+ retval</text>
<text text-anchor="start" x="370" y="-153.5" font-family="Helvetica,sans-Serif" font-size="10.00" fill="#000000">+ unsigned</text>
<text text-anchor="start" x="370" y="-142.5" font-family="Helvetica,sans-Serif" font-size="10.00" fill="#000000">+ busy</text>
<text text-anchor="start" x="370" y="-131.5" font-family="Helvetica,sans-Serif" font-size="10.00" fill="#000000">+ enabled</text>
<polyline fill="none" stroke="#000000" points="362,-124.5 499,-124.5 "/>
<text text-anchor="middle" x="430.5" y="-112.5" font-family="Helvetica,sans-Serif" font-size="10.00" fill="#000000"> </text>
</a>
</g>
</g>
<!-- Node4&#45;&gt;Node1 -->
<g id="edge3" class="edge">
<title>Node4&#45;&gt;Node1</title>
<path fill="none" stroke="#404040" d="M419.9535,-105.1398C416.3592,-95.0027 411.6399,-84.6914 405.5,-76 403.0593,-72.545 400.2925,-69.22 397.3191,-66.0464"/>
<polygon fill="none" stroke="#404040" points="397.1234,-65.8574 390.0288,-64.5664 388.4917,-57.521 395.5863,-58.8119 397.1234,-65.8574"/>
<text text-anchor="middle" x="442" y="-79" font-family="Helvetica,sans-Serif" font-size="10.00" fill="#000000"> +Status</text>
</g>
<!-- Node5 -->
<g id="node5" class="node">
<title>Node5</title>
<g id="a_node5"><a xlink:href="a02321.html" target="_top" xlink:title="DESCRIPTION.">
<polygon fill="#ffffff" stroke="#000000" points="517.5,-105.5 517.5,-195.5 669.5,-195.5 669.5,-105.5 517.5,-105.5"/>
<text text-anchor="middle" x="593.5" y="-183.5" font-family="Helvetica,sans-Serif" font-size="10.00" fill="#000000">APPTASK_TASKLINK_s</text>
<polyline fill="none" stroke="#000000" points="517.5,-176.5 669.5,-176.5 "/>
<text text-anchor="start" x="525.5" y="-164.5" font-family="Helvetica,sans-Serif" font-size="10.00" fill="#000000">+ Initialize</text>
<text text-anchor="start" x="525.5" y="-153.5" font-family="Helvetica,sans-Serif" font-size="10.00" fill="#000000">+ Start</text>
<text text-anchor="start" x="525.5" y="-142.5" font-family="Helvetica,sans-Serif" font-size="10.00" fill="#000000">+ Execute</text>
<text text-anchor="start" x="525.5" y="-131.5" font-family="Helvetica,sans-Serif" font-size="10.00" fill="#000000">+ Dispose</text>
<polyline fill="none" stroke="#000000" points="517.5,-124.5 669.5,-124.5 "/>
<text text-anchor="middle" x="593.5" y="-112.5" font-family="Helvetica,sans-Serif" font-size="10.00" fill="#000000"> </text>
</a>
</g>
</g>
<!-- Node5&#45;&gt;Node1 -->
<g id="edge4" class="edge">
<title>Node5&#45;&gt;Node1</title>
<path fill="none" stroke="#404040" d="M528.4732,-105.4963C511.9351,-95.0646 493.9065,-84.5319 476.5,-76 462.6685,-69.2205 447.6021,-62.9029 432.7736,-57.2375"/>
<polygon fill="none" stroke="#404040" points="432.7486,-57.2283 425.7291,-58.8798 421.5049,-53.0355 428.5243,-51.384 432.7486,-57.2283"/>
<text text-anchor="middle" x="538" y="-79" font-family="Helvetica,sans-Serif" font-size="10.00" fill="#000000"> +Functions</text>
</g>
</g>
</svg>
