<?xml version="1.0" encoding="UTF-8" standalone="no"?>
<!DOCTYPE svg PUBLIC "-//W3C//DTD SVG 1.1//EN"
 "http://www.w3.org/Graphics/SVG/1.1/DTD/svg11.dtd">
<!-- Generated by graphviz version 2.40.1 (0)
 -->
<!-- Title: OS_TASK_MANAGER_s Pages: 1 -->
<svg width="552pt" height="281pt"
 viewBox="0.00 0.00 551.50 281.00" xmlns="http://www.w3.org/2000/svg" xmlns:xlink="http://www.w3.org/1999/xlink">
<g id="graph0" class="graph" transform="scale(1 1) rotate(0) translate(4 277)">
<title>OS_TASK_MANAGER_s</title>
<polygon fill="#ffffff" stroke="transparent" points="-4,4 -4,-277 547.5,-277 547.5,4 -4,4"/>
<!-- Node1 -->
<g id="node1" class="node">
<title>Node1</title>
<g id="a_node1"><a xlink:title=" ">
<polygon fill="#bfbfbf" stroke="#000000" points="207,-.5 207,-57.5 351,-57.5 351,-.5 207,-.5"/>
<text text-anchor="middle" x="279" y="-45.5" font-family="Helvetica,sans-Serif" font-size="10.00" fill="#000000">OS_TASK_MANAGER_s</text>
<polyline fill="none" stroke="#000000" points="207,-38.5 351,-38.5 "/>
<text text-anchor="middle" x="279" y="-26.5" font-family="Helvetica,sans-Serif" font-size="10.00" fill="#000000"> </text>
<polyline fill="none" stroke="#000000" points="207,-19.5 351,-19.5 "/>
<text text-anchor="middle" x="279" y="-7.5" font-family="Helvetica,sans-Serif" font-size="10.00" fill="#000000"> </text>
</a>
</g>
</g>
<!-- Node2 -->
<g id="node2" class="node">
<title>Node2</title>
<g id="a_node2"><a xlink:href="a02357.html" target="_top" xlink:title="DESCRIPTION.">
<polygon fill="#ffffff" stroke="#000000" points="0,-160.5 0,-217.5 174,-217.5 174,-160.5 0,-160.5"/>
<text text-anchor="middle" x="87" y="-205.5" font-family="Helvetica,sans-Serif" font-size="10.00" fill="#000000">OS_TASKMGR_CPU_LOAD_s</text>
<polyline fill="none" stroke="#000000" points="0,-198.5 174,-198.5 "/>
<text text-anchor="start" x="8" y="-186.5" font-family="Helvetica,sans-Serif" font-size="10.00" fill="#000000">+ cpu_load</text>
<polyline fill="none" stroke="#000000" points="0,-179.5 174,-179.5 "/>
<text text-anchor="middle" x="87" y="-167.5" font-family="Helvetica,sans-Serif" font-size="10.00" fill="#000000"> </text>
</a>
</g>
</g>
<!-- Node2&#45;&gt;Node1 -->
<g id="edge1" class="edge">
<title>Node2&#45;&gt;Node1</title>
<path fill="none" stroke="#404040" d="M114.8075,-160.1011C138.3413,-136.3255 173.4957,-102.3723 207,-76 211.8605,-72.1741 217.0339,-68.3554 222.2916,-64.6418"/>
<polygon fill="none" stroke="#404040" points="222.5601,-64.4571 225.2359,-57.7609 232.4463,-57.6554 229.7704,-64.3517 222.5601,-64.4571"/>
<text text-anchor="middle" x="241" y="-79" font-family="Helvetica,sans-Serif" font-size="10.00" fill="#000000"> +CpuLoad</text>
</g>
<!-- Node3 -->
<g id="node3" class="node">
<title>Node3</title>
<g id="a_node3"><a xlink:href="a02353.html" target="_top" xlink:title="DESCRIPTION.">
<polygon fill="#ffffff" stroke="#000000" points="192,-155 192,-223 366,-223 366,-155 192,-155"/>
<text text-anchor="middle" x="279" y="-211" font-family="Helvetica,sans-Serif" font-size="10.00" fill="#000000">OS_TASKMGR_TIMEBASE_s</text>
<polyline fill="none" stroke="#000000" points="192,-204 366,-204 "/>
<text text-anchor="start" x="200" y="-192" font-family="Helvetica,sans-Serif" font-size="10.00" fill="#000000">+ Counter</text>
<text text-anchor="start" x="200" y="-181" font-family="Helvetica,sans-Serif" font-size="10.00" fill="#000000">+ period</text>
<polyline fill="none" stroke="#000000" points="192,-174 366,-174 "/>
<text text-anchor="middle" x="279" y="-162" font-family="Helvetica,sans-Serif" font-size="10.00" fill="#000000"> </text>
</a>
</g>
</g>
<!-- Node3&#45;&gt;Node1 -->
<g id="edge2" class="edge">
<title>Node3&#45;&gt;Node1</title>
<path fill="none" stroke="#404040" d="M279,-154.676C279,-129.8193 279,-96.1152 279,-69.8678"/>
<polygon fill="none" stroke="#404040" points="279.0001,-69.6531 275,-63.6531 279,-57.6531 283,-63.6531 279.0001,-69.6531"/>
<text text-anchor="middle" x="317" y="-79" font-family="Helvetica,sans-Serif" font-size="10.00" fill="#000000"> +Timebase</text>
</g>
<!-- Node4 -->
<g id="node4" class="node">
<title>Node4</title>
<g id="a_node4"><a xlink:href="a02341.html" target="_top" xlink:title="Task manager data status.">
<polygon fill="#ffffff" stroke="#000000" points="384.5,-105.5 384.5,-272.5 543.5,-272.5 543.5,-105.5 384.5,-105.5"/>
<text text-anchor="middle" x="464" y="-260.5" font-family="Helvetica,sans-Serif" font-size="10.00" fill="#000000">OS_TASKMGR_STATUS_s</text>
<polyline fill="none" stroke="#000000" points="384.5,-253.5 543.5,-253.5 "/>
<text text-anchor="start" x="392.5" y="-241.5" font-family="Helvetica,sans-Serif" font-size="10.00" fill="#000000">+ lp_active</text>
<text text-anchor="start" x="392.5" y="-230.5" font-family="Helvetica,sans-Serif" font-size="10.00" fill="#000000">+ hp_active</text>
<text text-anchor="start" x="392.5" y="-219.5" font-family="Helvetica,sans-Serif" font-size="10.00" fill="#000000">+ lp_timeout</text>
<text text-anchor="start" x="392.5" y="-208.5" font-family="Helvetica,sans-Serif" font-size="10.00" fill="#000000">+ isr_timeout</text>
<text text-anchor="start" x="392.5" y="-197.5" font-family="Helvetica,sans-Serif" font-size="10.00" fill="#000000">+ __pad0__</text>
<text text-anchor="start" x="392.5" y="-186.5" font-family="Helvetica,sans-Serif" font-size="10.00" fill="#000000">+ __pad1__</text>
<text text-anchor="start" x="392.5" y="-175.5" font-family="Helvetica,sans-Serif" font-size="10.00" fill="#000000">+ __pad2__</text>
<text text-anchor="start" x="392.5" y="-164.5" font-family="Helvetica,sans-Serif" font-size="10.00" fill="#000000">+ __pad3__</text>
<text text-anchor="start" x="392.5" y="-153.5" font-family="Helvetica,sans-Serif" font-size="10.00" fill="#000000">+ __pad4__</text>
<text text-anchor="start" x="392.5" y="-142.5" font-family="Helvetica,sans-Serif" font-size="10.00" fill="#000000">+ __pad5__</text>
<text text-anchor="start" x="392.5" y="-131.5" font-family="Helvetica,sans-Serif" font-size="10.00" fill="#000000">and 8 more...</text>
<polyline fill="none" stroke="#000000" points="384.5,-124.5 543.5,-124.5 "/>
<text text-anchor="middle" x="464" y="-112.5" font-family="Helvetica,sans-Serif" font-size="10.00" fill="#000000"> </text>
</a>
</g>
</g>
<!-- Node4&#45;&gt;Node1 -->
<g id="edge3" class="edge">
<title>Node4&#45;&gt;Node1</title>
<path fill="none" stroke="#404040" d="M391.5137,-105.29C381.0512,-94.9384 370.0664,-84.8875 359,-76 353.9762,-71.9654 348.5692,-68.0441 343.0214,-64.2993"/>
<polygon fill="none" stroke="#404040" points="343.0057,-64.2892 335.7952,-64.3826 332.9357,-57.7627 340.1462,-57.6692 343.0057,-64.2892"/>
<text text-anchor="middle" x="401.5" y="-79" font-family="Helvetica,sans-Serif" font-size="10.00" fill="#000000"> +Status</text>
</g>
</g>
</svg>
