<?xml version="1.0" encoding="UTF-8" standalone="no"?>
<!DOCTYPE svg PUBLIC "-//W3C//DTD SVG 1.1//EN"
 "http://www.w3.org/Graphics/SVG/1.1/DTD/svg11.dtd">
<!-- Generated by graphviz version 2.40.1 (0)
 -->
<!-- Title: APPLICATION_TASK_s Pages: 1 -->
<!--zoomable 204 -->
<svg id="main" version="1.1" xmlns="http://www.w3.org/2000/svg" xmlns:xlink="http://www.w3.org/1999/xlink" xml:space="preserve" onload="init(evt)">
<style type="text/css"><![CDATA[
.edge:hover path { stroke: red; }
.edge:hover polygon { stroke: red; fill: red; }
]]></style>
<script type="text/javascript"><![CDATA[
var edges = document.getElementsByTagName('g');
if (edges && edges.length) {
  for (var i=0;i<edges.length;i++) {
    if (edges[i].id.substr(0,4)=='edge') {
      edges[i].setAttribute('class','edge');
    }
  }
}
]]></script>
        <defs>
                <circle id="rim" cx="0" cy="0" r="7"/>
                <circle id="rim2" cx="0" cy="0" r="3.5"/>
                <g id="zoomPlus">
                        <use xlink:href="#rim" fill="#404040">
                                <set attributeName="fill" to="#808080" begin="zoomplus.mouseover" end="zoomplus.mouseout"/>
                        </use>
                        <path d="M-4,0h8M0,-4v8" fill="none" stroke="white" stroke-width="1.5" pointer-events="none"/>
                </g>
                <g id="zoomMin">
                        <use xlink:href="#rim" fill="#404040">
                                <set attributeName="fill" to="#808080" begin="zoomminus.mouseover" end="zoomminus.mouseout"/>
                        </use>
                        <path d="M-4,0h8" fill="none" stroke="white" stroke-width="1.5" pointer-events="none"/>
                </g>
                <g id="dirArrow">
                        <path fill="none" stroke="white" stroke-width="1.5" d="M0,-3.0v7 M-2.5,-0.5L0,-3.0L2.5,-0.5"/>
                </g>
               <g id="resetDef">
                       <use xlink:href="#rim2" fill="#404040">
                               <set attributeName="fill" to="#808080" begin="reset.mouseover" end="reset.mouseout"/>
                       </use>
               </g>
        </defs>

<script type="text/javascript">
var viewWidth = 678;
var viewHeight = 204;
var sectionId = 'dynsection-0';
</script>
<script xlink:href="svgpan.js"/>
<svg id="graph" class="graph">
<g id="viewport">
<title>APPLICATION_TASK_s</title>
<polygon fill="#ffffff" stroke="transparent" points="-4,4 -4,-200 673.5,-200 673.5,4 -4,4"/>
<!-- Node1 -->
<g id="node1" class="node">
<title>Node1</title>
<g id="a_node1"><a xlink:title="DESCRIPTION.">
<polygon fill="#bfbfbf" stroke="#000000" points="269.5,-.5 269.5,-57.5 421.5,-57.5 421.5,-.5 269.5,-.5"/>
<text text-anchor="middle" x="345.5" y="-45.5" font-family="Helvetica,sans-Serif" font-size="10.00" fill="#000000">APPLICATION_TASK_s</text>
<polyline fill="none" stroke="#000000" points="269.5,-38.5 421.5,-38.5 "/>
<text text-anchor="start" x="277.5" y="-26.5" font-family="Helvetica,sans-Serif" font-size="10.00" fill="#000000">+ TaskID</text>
<polyline fill="none" stroke="#000000" points="269.5,-19.5 421.5,-19.5 "/>
<text text-anchor="middle" x="345.5" y="-7.5" font-family="Helvetica,sans-Serif" font-size="10.00" fill="#000000"> </text>
</a>
</g>
</g>
<!-- Node2 -->
<g id="node2" class="node">
<title>Node2</title>
<g id="a_node2"><a xlink:href="a02317.html" target="_top" xlink:title="DESCRIPTION.">
<polygon fill="#ffffff" stroke="#000000" points="0,-105.5 0,-195.5 159,-195.5 159,-105.5 0,-105.5"/>
<text text-anchor="middle" x="79.5" y="-183.5" font-family="Helvetica,sans-Serif" font-size="10.00" fill="#000000">APPTASK_EXECUTION_s</text>
<polyline fill="none" stroke="#000000" points="0,-176.5 159,-176.5 "/>
<text text-anchor="start" x="8" y="-164.5" font-family="Helvetica,sans-Serif" font-size="10.00" fill="#000000">+ execClass</text>
<text text-anchor="start" x="8" y="-153.5" font-family="Helvetica,sans-Serif" font-size="10.00" fill="#000000">+ Counter</text>
<text text-anchor="start" x="8" y="-142.5" font-family="Helvetica,sans-Serif" font-size="10.00" fill="#000000">+ Period</text>
<text text-anchor="start" x="8" y="-131.5" font-family="Helvetica,sans-Serif" font-size="10.00" fill="#000000">+ Offset</text>
<polyline fill="none" stroke="#000000" points="0,-124.5 159,-124.5 "/>
<text text-anchor="middle" x="79.5" y="-112.5" font-family="Helvetica,sans-Serif" font-size="10.00" fill="#000000"> </text>
</a>
</g>
</g>
<!-- Node2&#45;&gt;Node1 -->
<g id="edge1" class="edge">
<title>Node2&#45;&gt;Node1</title>
<path fill="none" stroke="#404040" d="M159.0725,-109.81C162.2562,-108.185 165.4082,-106.5768 168.5,-105 193.8207,-92.0863 199.5696,-87.6412 225.5,-76 235.953,-71.3072 247.026,-66.6112 258.0526,-62.1009"/>
<polygon fill="none" stroke="#404040" points="258.3726,-61.9716 262.4371,-56.0151 269.4987,-57.476 265.4342,-63.4325 258.3726,-61.9716"/>
<text text-anchor="middle" x="263.5" y="-79" font-family="Helvetica,sans-Serif" font-size="10.00" fill="#000000"> +Settings</text>
</g>
<!-- Node3 -->
<g id="node3" class="node">
<title>Node3</title>
<g id="a_node3"><a xlink:href="a02325.html" target="_top" xlink:title="DESCRIPTION.">
<polygon fill="#ffffff" stroke="#000000" points="177,-111 177,-190 344,-190 344,-111 177,-111"/>
<text text-anchor="middle" x="260.5" y="-178" font-family="Helvetica,sans-Serif" font-size="10.00" fill="#000000">APPTASK_STATISTICS_s</text>
<polyline fill="none" stroke="#000000" points="177,-171 344,-171 "/>
<text text-anchor="start" x="185" y="-159" font-family="Helvetica,sans-Serif" font-size="10.00" fill="#000000">+ exec_time</text>
<text text-anchor="start" x="185" y="-148" font-family="Helvetica,sans-Serif" font-size="10.00" fill="#000000">+ avg_time</text>
<text text-anchor="start" x="185" y="-137" font-family="Helvetica,sans-Serif" font-size="10.00" fill="#000000">+ max_time</text>
<polyline fill="none" stroke="#000000" points="177,-130 344,-130 "/>
<text text-anchor="middle" x="260.5" y="-118" font-family="Helvetica,sans-Serif" font-size="10.00" fill="#000000"> </text>
</a>
</g>
</g>
<!-- Node3&#45;&gt;Node1 -->
<g id="edge2" class="edge">
<title>Node3&#45;&gt;Node1</title>
<path fill="none" stroke="#404040" d="M288.3322,-110.7164C297.9778,-96.9288 308.7723,-81.499 318.3613,-67.7924"/>
<polygon fill="none" stroke="#404040" points="318.5412,-67.5351 318.7031,-60.3258 325.4201,-57.7024 325.2582,-64.9117 318.5412,-67.5351"/>
<text text-anchor="middle" x="356" y="-79" font-family="Helvetica,sans-Serif" font-size="10.00" fill="#000000"> +Statistics</text>
</g>
<!-- Node4 -->
<g id="node4" class="node">
<title>Node4</title>
<g id="a_node4"><a xlink:href="a02313.html" target="_top" xlink:title="DESCRIPTION.">
<polygon fill="#ffffff" stroke="#000000" points="362,-105.5 362,-195.5 499,-195.5 499,-105.5 362,-105.5"/>
<text text-anchor="middle" x="430.5" y="-183.5" font-family="Helvetica,sans-Serif" font-size="10.00" fill="#000000">APPTASK_STATUS_s</text>
<polyline fill="none" stroke="#000000" points="362,-176.5 499,-176.5 "/>
<text text-anchor="start" x="370" y="-164.5" font-family="Helvetica,sans-Serif" font-size="10.00" fill="#000000">+ retval</text>
<text text-anchor="start" x="370" y="-153.5" font-family="Helvetica,sans-Serif" font-size="10.00" fill="#000000">+ unsigned</text>
<text text-anchor="start" x="370" y="-142.5" font-family="Helvetica,sans-Serif" font-size="10.00" fill="#000000">+ busy</text>
<text text-anchor="start" x="370" y="-131.5" font-family="Helvetica,sans-Serif" font-size="10.00" fill="#000000">+ enabled</text>
<polyline fill="none" stroke="#000000" points="362,-124.5 499,-124.5 "/>
<text text-anchor="middle" x="430.5" y="-112.5" font-family="Helvetica,sans-Serif" font-size="10.00" fill="#000000"> </text>
</a>
</g>
</g>
<!-- Node4&#45;&gt;Node1 -->
<g id="edge3" class="edge">
<title>Node4&#45;&gt;Node1</title>
<path fill="none" stroke="#404040" d="M419.9535,-105.1398C416.3592,-95.0027 411.6399,-84.6914 405.5,-76 403.0593,-72.545 400.2925,-69.22 397.3191,-66.0464"/>
<polygon fill="none" stroke="#404040" points="397.1234,-65.8574 390.0288,-64.5664 388.4917,-57.521 395.5863,-58.8119 397.1234,-65.8574"/>
<text text-anchor="middle" x="442" y="-79" font-family="Helvetica,sans-Serif" font-size="10.00" fill="#000000"> +Status</text>
</g>
<!-- Node5 -->
<g id="node5" class="node">
<title>Node5</title>
<g id="a_node5"><a xlink:href="a02321.html" target="_top" xlink:title="DESCRIPTION.">
<polygon fill="#ffffff" stroke="#000000" points="517.5,-105.5 517.5,-195.5 669.5,-195.5 669.5,-105.5 517.5,-105.5"/>
<text text-anchor="middle" x="593.5" y="-183.5" font-family="Helvetica,sans-Serif" font-size="10.00" fill="#000000">APPTASK_TASKLINK_s</text>
<polyline fill="none" stroke="#000000" points="517.5,-176.5 669.5,-176.5 "/>
<text text-anchor="start" x="525.5" y="-164.5" font-family="Helvetica,sans-Serif" font-size="10.00" fill="#000000">+ Initialize</text>
<text text-anchor="start" x="525.5" y="-153.5" font-family="Helvetica,sans-Serif" font-size="10.00" fill="#000000">+ Start</text>
<text text-anchor="start" x="525.5" y="-142.5" font-family="Helvetica,sans-Serif" font-size="10.00" fill="#000000">+ Execute</text>
<text text-anchor="start" x="525.5" y="-131.5" font-family="Helvetica,sans-Serif" font-size="10.00" fill="#000000">+ Dispose</text>
<polyline fill="none" stroke="#000000" points="517.5,-124.5 669.5,-124.5 "/>
<text text-anchor="middle" x="593.5" y="-112.5" font-family="Helvetica,sans-Serif" font-size="10.00" fill="#000000"> </text>
</a>
</g>
</g>
<!-- Node5&#45;&gt;Node1 -->
<g id="edge4" class="edge">
<title>Node5&#45;&gt;Node1</title>
<path fill="none" stroke="#404040" d="M528.4732,-105.4963C511.9351,-95.0646 493.9065,-84.5319 476.5,-76 462.6685,-69.2205 447.6021,-62.9029 432.7736,-57.2375"/>
<polygon fill="none" stroke="#404040" points="432.7486,-57.2283 425.7291,-58.8798 421.5049,-53.0355 428.5243,-51.384 432.7486,-57.2283"/>
<text text-anchor="middle" x="538" y="-79" font-family="Helvetica,sans-Serif" font-size="10.00" fill="#000000"> +Functions</text>
</g>
</g>
</svg>
        <g id="navigator" transform="translate(0 0)" fill="#404254">
                <rect fill="#f2f5e9" fill-opacity="0.5" stroke="#606060" stroke-width=".5" x="0" y="0" width="60" height="60"/>
                <use id="zoomplus" xlink:href="#zoomPlus" x="17" y="9" onmousedown="handleZoom(evt,'in')"/>
                <use id="zoomminus" xlink:href="#zoomMin" x="42" y="9" onmousedown="handleZoom(evt,'out')"/>
                <use id="reset" xlink:href="#resetDef" x="30" y="36" onmousedown="handleReset()"/>
                <g id="arrowUp" xlink:href="#dirArrow" transform="translate(30 24)" onmousedown="handlePan(0,-1)">
                  <use xlink:href="#rim" fill="#404040">
                        <set attributeName="fill" to="#808080" begin="arrowUp.mouseover" end="arrowUp.mouseout"/>
                  </use>
                  <path fill="none" stroke="white" stroke-width="1.5" d="M0,-3.0v7 M-2.5,-0.5L0,-3.0L2.5,-0.5"/>
                </g>
                <g id="arrowRight" xlink:href="#dirArrow" transform="rotate(90) translate(36 -43)" onmousedown="handlePan(1,0)">
                  <use xlink:href="#rim" fill="#404040">
                        <set attributeName="fill" to="#808080" begin="arrowRight.mouseover" end="arrowRight.mouseout"/>
                  </use>
                  <path fill="none" stroke="white" stroke-width="1.5" d="M0,-3.0v7 M-2.5,-0.5L0,-3.0L2.5,-0.5"/>
                </g>
                <g id="arrowDown" xlink:href="#dirArrow" transform="rotate(180) translate(-30 -48)" onmousedown="handlePan(0,1)">
                  <use xlink:href="#rim" fill="#404040">
                        <set attributeName="fill" to="#808080" begin="arrowDown.mouseover" end="arrowDown.mouseout"/>
                  </use>
                  <path fill="none" stroke="white" stroke-width="1.5" d="M0,-3.0v7 M-2.5,-0.5L0,-3.0L2.5,-0.5"/>
                </g>
                <g id="arrowLeft" xlink:href="#dirArrow" transform="rotate(270) translate(-36 17)" onmousedown="handlePan(-1,0)">
                  <use xlink:href="#rim" fill="#404040">
                        <set attributeName="fill" to="#808080" begin="arrowLeft.mouseover" end="arrowLeft.mouseout"/>
                  </use>
                  <path fill="none" stroke="white" stroke-width="1.5" d="M0,-3.0v7 M-2.5,-0.5L0,-3.0L2.5,-0.5"/>
                </g>
        </g>
        <svg viewBox="0 0 15 15" width="100%" height="30px" preserveAspectRatio="xMaxYMin meet">
         <g id="arrow_out" transform="scale(0.3 0.3)">
          <a xlink:href="a02327_org.svg" target="_base">
           <rect id="button" ry="5" rx="5" y="6" x="6" height="38" width="38"
                fill="#f2f5e9" fill-opacity="0.5" stroke="#606060" stroke-width="1.0"/>
           <path id="arrow"
             d="M 11.500037,31.436501 C 11.940474,20.09759 22.043105,11.32322 32.158766,21.979434 L 37.068811,17.246167 C 37.068811,17.246167 37.088388,32 37.088388,32 L 22.160133,31.978069 C 22.160133,31.978069 26.997745,27.140456 26.997745,27.140456 C 18.528582,18.264221 13.291696,25.230495 11.500037,31.436501 z"
             style="fill:#404040;"/>
          </a>
         </g>
        </svg>
</svg>
