<?xml version="1.0" encoding="UTF-8" standalone="no"?>
<!DOCTYPE svg PUBLIC "-//W3C//DTD SVG 1.1//EN"
 "http://www.w3.org/Graphics/SVG/1.1/DTD/svg11.dtd">
<!-- Generated by graphviz version 2.40.1 (0)
 -->
<!-- Title: DEBUGGING_LED_s Pages: 1 -->
<svg width="190pt" height="281pt"
 viewBox="0.00 0.00 190.00 281.00" xmlns="http://www.w3.org/2000/svg" xmlns:xlink="http://www.w3.org/1999/xlink">
<g id="graph0" class="graph" transform="scale(1 1) rotate(0) translate(4 277)">
<title>DEBUGGING_LED_s</title>
<polygon fill="#ffffff" stroke="transparent" points="-4,4 -4,-277 186,-277 186,4 -4,4"/>
<!-- Node1 -->
<g id="node1" class="node">
<title>Node1</title>
<g id="a_node1"><a xlink:title=" ">
<polygon fill="#bfbfbf" stroke="#000000" points="26.5,-.5 26.5,-57.5 155.5,-57.5 155.5,-.5 26.5,-.5"/>
<text text-anchor="middle" x="91" y="-45.5" font-family="Helvetica,sans-Serif" font-size="10.00" fill="#000000">DEBUGGING_LED_s</text>
<polyline fill="none" stroke="#000000" points="26.5,-38.5 155.5,-38.5 "/>
<text text-anchor="start" x="34.5" y="-26.5" font-family="Helvetica,sans-Serif" font-size="10.00" fill="#000000">+ period</text>
<polyline fill="none" stroke="#000000" points="26.5,-19.5 155.5,-19.5 "/>
<text text-anchor="middle" x="91" y="-7.5" font-family="Helvetica,sans-Serif" font-size="10.00" fill="#000000"> </text>
</a>
</g>
</g>
<!-- Node2 -->
<g id="node2" class="node">
<title>Node2</title>
<g id="a_node2"><a xlink:href="a02297.html" target="_top" xlink:title=" ">
<polygon fill="#ffffff" stroke="#000000" points="0,-105.5 0,-272.5 182,-272.5 182,-105.5 0,-105.5"/>
<text text-anchor="middle" x="91" y="-260.5" font-family="Helvetica,sans-Serif" font-size="10.00" fill="#000000">DEBUGGING_LED_STATUS_s</text>
<polyline fill="none" stroke="#000000" points="0,-253.5 182,-253.5 "/>
<text text-anchor="start" x="8" y="-241.5" font-family="Helvetica,sans-Serif" font-size="10.00" fill="#000000">+ on</text>
<text text-anchor="start" x="8" y="-230.5" font-family="Helvetica,sans-Serif" font-size="10.00" fill="#000000">+ __pad0__</text>
<text text-anchor="start" x="8" y="-219.5" font-family="Helvetica,sans-Serif" font-size="10.00" fill="#000000">+ __pad1__</text>
<text text-anchor="start" x="8" y="-208.5" font-family="Helvetica,sans-Serif" font-size="10.00" fill="#000000">+ __pad2__</text>
<text text-anchor="start" x="8" y="-197.5" font-family="Helvetica,sans-Serif" font-size="10.00" fill="#000000">+ __pad3__</text>
<text text-anchor="start" x="8" y="-186.5" font-family="Helvetica,sans-Serif" font-size="10.00" fill="#000000">+ __pad4__</text>
<text text-anchor="start" x="8" y="-175.5" font-family="Helvetica,sans-Serif" font-size="10.00" fill="#000000">+ __pad5__</text>
<text text-anchor="start" x="8" y="-164.5" font-family="Helvetica,sans-Serif" font-size="10.00" fill="#000000">+ __pad6__</text>
<text text-anchor="start" x="8" y="-153.5" font-family="Helvetica,sans-Serif" font-size="10.00" fill="#000000">+ __pad7__</text>
<text text-anchor="start" x="8" y="-142.5" font-family="Helvetica,sans-Serif" font-size="10.00" fill="#000000">+ __pad8__</text>
<text text-anchor="start" x="8" y="-131.5" font-family="Helvetica,sans-Serif" font-size="10.00" fill="#000000">and 8 more...</text>
<polyline fill="none" stroke="#000000" points="0,-124.5 182,-124.5 "/>
<text text-anchor="middle" x="91" y="-112.5" font-family="Helvetica,sans-Serif" font-size="10.00" fill="#000000"> </text>
</a>
</g>
</g>
<!-- Node2&#45;&gt;Node1 -->
<g id="edge1" class="edge">
<title>Node2&#45;&gt;Node1</title>
<path fill="none" stroke="#404040" d="M91,-105.2512C91,-92.9694 91,-80.8056 91,-69.9212"/>
<polygon fill="none" stroke="#404040" points="91.0001,-69.8011 87,-63.8012 91,-57.8011 95,-63.8011 91.0001,-69.8011"/>
<text text-anchor="middle" x="121.5" y="-79" font-family="Helvetica,sans-Serif" font-size="10.00" fill="#000000"> +status</text>
</g>
</g>
</svg>
