<?xml version="1.0" encoding="UTF-8" standalone="no"?>
<!DOCTYPE svg PUBLIC "-//W3C//DTD SVG 1.1//EN"
 "http://www.w3.org/Graphics/SVG/1.1/DTD/svg11.dtd">
<!-- Generated by graphviz version 2.40.1 (0)
 -->
<!-- Title: BOOST_LOOP_SETTINGS_s Pages: 1 -->
<!--zoomable 700 -->
<svg id="main" version="1.1" xmlns="http://www.w3.org/2000/svg" xmlns:xlink="http://www.w3.org/1999/xlink" xml:space="preserve" onload="init(evt)">
<style type="text/css"><![CDATA[
.edge:hover path { stroke: red; }
.edge:hover polygon { stroke: red; fill: red; }
]]></style>
<script type="text/javascript"><![CDATA[
var edges = document.getElementsByTagName('g');
if (edges && edges.length) {
  for (var i=0;i<edges.length;i++) {
    if (edges[i].id.substr(0,4)=='edge') {
      edges[i].setAttribute('class','edge');
    }
  }
}
]]></script>
        <defs>
                <circle id="rim" cx="0" cy="0" r="7"/>
                <circle id="rim2" cx="0" cy="0" r="3.5"/>
                <g id="zoomPlus">
                        <use xlink:href="#rim" fill="#404040">
                                <set attributeName="fill" to="#808080" begin="zoomplus.mouseover" end="zoomplus.mouseout"/>
                        </use>
                        <path d="M-4,0h8M0,-4v8" fill="none" stroke="white" stroke-width="1.5" pointer-events="none"/>
                </g>
                <g id="zoomMin">
                        <use xlink:href="#rim" fill="#404040">
                                <set attributeName="fill" to="#808080" begin="zoomminus.mouseover" end="zoomminus.mouseout"/>
                        </use>
                        <path d="M-4,0h8" fill="none" stroke="white" stroke-width="1.5" pointer-events="none"/>
                </g>
                <g id="dirArrow">
                        <path fill="none" stroke="white" stroke-width="1.5" d="M0,-3.0v7 M-2.5,-0.5L0,-3.0L2.5,-0.5"/>
                </g>
               <g id="resetDef">
                       <use xlink:href="#rim2" fill="#404040">
                               <set attributeName="fill" to="#808080" begin="reset.mouseover" end="reset.mouseout"/>
                       </use>
               </g>
        </defs>

<script type="text/javascript">
var viewWidth = 1962;
var viewHeight = 700;
var sectionId = 'dynsection-0';
</script>
<script xlink:href="svgpan.js"/>
<svg id="graph" class="graph">
<g id="viewport">
<title>BOOST_LOOP_SETTINGS_s</title>
<polygon fill="#ffffff" stroke="transparent" points="-4,4 -4,-696 1958,-696 1958,4 -4,4"/>
<!-- Node1 -->
<g id="node1" class="node">
<title>Node1</title>
<g id="a_node1"><a xlink:title="Boost converter main settingsUser defined settings for control loops;">
<polygon fill="#bfbfbf" stroke="#000000" points="778.5,-.5 778.5,-145.5 952.5,-145.5 952.5,-.5 778.5,-.5"/>
<text text-anchor="middle" x="865.5" y="-133.5" font-family="Helvetica,sans-Serif" font-size="10.00" fill="#000000">BOOST_LOOP_SETTINGS_s</text>
<polyline fill="none" stroke="#000000" points="778.5,-126.5 952.5,-126.5 "/>
<text text-anchor="start" x="786.5" y="-114.5" font-family="Helvetica,sans-Serif" font-size="10.00" fill="#000000">+ reference</text>
<text text-anchor="start" x="786.5" y="-103.5" font-family="Helvetica,sans-Serif" font-size="10.00" fill="#000000">+ feedback_offset</text>
<text text-anchor="start" x="786.5" y="-92.5" font-family="Helvetica,sans-Serif" font-size="10.00" fill="#000000">+ trigger_offset</text>
<text text-anchor="start" x="786.5" y="-81.5" font-family="Helvetica,sans-Serif" font-size="10.00" fill="#000000">+ minimum</text>
<text text-anchor="start" x="786.5" y="-70.5" font-family="Helvetica,sans-Serif" font-size="10.00" fill="#000000">+ maximum</text>
<text text-anchor="start" x="786.5" y="-59.5" font-family="Helvetica,sans-Serif" font-size="10.00" fill="#000000">+ ctrl_Initialize</text>
<text text-anchor="start" x="786.5" y="-48.5" font-family="Helvetica,sans-Serif" font-size="10.00" fill="#000000">+ ctrl_Reset</text>
<text text-anchor="start" x="786.5" y="-37.5" font-family="Helvetica,sans-Serif" font-size="10.00" fill="#000000">+ ctrl_Update</text>
<text text-anchor="start" x="786.5" y="-26.5" font-family="Helvetica,sans-Serif" font-size="10.00" fill="#000000">+ ctrl_Precharge</text>
<polyline fill="none" stroke="#000000" points="778.5,-19.5 952.5,-19.5 "/>
<text text-anchor="middle" x="865.5" y="-7.5" font-family="Helvetica,sans-Serif" font-size="10.00" fill="#000000"> </text>
</a>
</g>
</g>
<!-- Node2 -->
<g id="node2" class="node">
<title>Node2</title>
<g id="a_node2"><a xlink:href="a02509.html" target="_top" xlink:title=" ">
<polygon fill="#ffffff" stroke="#000000" points="823.5,-193.5 823.5,-250.5 907.5,-250.5 907.5,-193.5 823.5,-193.5"/>
<text text-anchor="middle" x="865.5" y="-238.5" font-family="Helvetica,sans-Serif" font-size="10.00" fill="#000000">NPNZ16b_s</text>
<polyline fill="none" stroke="#000000" points="823.5,-231.5 907.5,-231.5 "/>
<text text-anchor="middle" x="865.5" y="-219.5" font-family="Helvetica,sans-Serif" font-size="10.00" fill="#000000"> </text>
<polyline fill="none" stroke="#000000" points="823.5,-212.5 907.5,-212.5 "/>
<text text-anchor="middle" x="865.5" y="-200.5" font-family="Helvetica,sans-Serif" font-size="10.00" fill="#000000"> </text>
</a>
</g>
</g>
<!-- Node2&#45;&gt;Node1 -->
<g id="edge1" class="edge">
<title>Node2&#45;&gt;Node1</title>
<path fill="none" stroke="#404040" d="M865.5,-193.2713C865.5,-182.8895 865.5,-170.5716 865.5,-157.843"/>
<polygon fill="none" stroke="#404040" points="865.5001,-157.5631 861.5,-151.5632 865.5,-145.5631 869.5,-151.5631 865.5001,-157.5631"/>
<text text-anchor="middle" x="911" y="-167" font-family="Helvetica,sans-Serif" font-size="10.00" fill="#000000"> +controller</text>
</g>
<!-- Node3 -->
<g id="node3" class="node">
<title>Node3</title>
<g id="a_node3"><a xlink:href="a02489.html" target="_top" xlink:title=" ">
<polygon fill="#ffffff" stroke="#000000" points="0,-364.5 0,-454.5 197,-454.5 197,-364.5 0,-364.5"/>
<text text-anchor="middle" x="98.5" y="-442.5" font-family="Helvetica,sans-Serif" font-size="10.00" fill="#000000">NPNZ_ADC_TRGCTRL_s</text>
<polyline fill="none" stroke="#000000" points="0,-435.5 197,-435.5 "/>
<text text-anchor="start" x="8" y="-423.5" font-family="Helvetica,sans-Serif" font-size="10.00" fill="#000000">+ ptrADCTriggerARegister</text>
<text text-anchor="start" x="8" y="-412.5" font-family="Helvetica,sans-Serif" font-size="10.00" fill="#000000">+ ADCTriggerAOffset</text>
<text text-anchor="start" x="8" y="-401.5" font-family="Helvetica,sans-Serif" font-size="10.00" fill="#000000">+ ptrADCTriggerBRegister</text>
<text text-anchor="start" x="8" y="-390.5" font-family="Helvetica,sans-Serif" font-size="10.00" fill="#000000">+ ADCTriggerBOffset</text>
<polyline fill="none" stroke="#000000" points="0,-383.5 197,-383.5 "/>
<text text-anchor="middle" x="98.5" y="-371.5" font-family="Helvetica,sans-Serif" font-size="10.00" fill="#000000"> </text>
</a>
</g>
</g>
<!-- Node3&#45;&gt;Node2 -->
<g id="edge2" class="edge">
<title>Node3&#45;&gt;Node2</title>
<path fill="none" stroke="#404040" d="M131.9497,-364.4501C151.1395,-341.517 177.0422,-314.9708 205.5,-298 307.4478,-237.2034 672.0996,-225.0401 811.1255,-222.6077"/>
<polygon fill="none" stroke="#404040" points="811.4731,-222.6021 817.4073,-218.5052 823.4715,-222.4071 817.5373,-226.5041 811.4731,-222.6021"/>
<text text-anchor="middle" x="352" y="-272" font-family="Helvetica,sans-Serif" font-size="10.00" fill="#000000"> +ADCTriggerControl</text>
</g>
<!-- Node4 -->
<g id="node4" class="node">
<title>Node4</title>
<g id="a_node4"><a xlink:href="a02501.html" target="_top" xlink:title=" ">
<polygon fill="#ffffff" stroke="#000000" points="215,-364.5 215,-454.5 412,-454.5 412,-364.5 215,-364.5"/>
<text text-anchor="middle" x="313.5" y="-442.5" font-family="Helvetica,sans-Serif" font-size="10.00" fill="#000000">NPNZ_GAIN_CONTROL_s</text>
<polyline fill="none" stroke="#000000" points="215,-435.5 412,-435.5 "/>
<text text-anchor="start" x="223" y="-423.5" font-family="Helvetica,sans-Serif" font-size="10.00" fill="#000000">+ AgcScaler</text>
<text text-anchor="start" x="223" y="-412.5" font-family="Helvetica,sans-Serif" font-size="10.00" fill="#000000">+ AgcFactor</text>
<text text-anchor="start" x="223" y="-401.5" font-family="Helvetica,sans-Serif" font-size="10.00" fill="#000000">+ AgcMedian</text>
<text text-anchor="start" x="223" y="-390.5" font-family="Helvetica,sans-Serif" font-size="10.00" fill="#000000">+ ptrAgcObserverFunction</text>
<polyline fill="none" stroke="#000000" points="215,-383.5 412,-383.5 "/>
<text text-anchor="middle" x="313.5" y="-371.5" font-family="Helvetica,sans-Serif" font-size="10.00" fill="#000000"> </text>
</a>
</g>
</g>
<!-- Node4&#45;&gt;Node2 -->
<g id="edge3" class="edge">
<title>Node4&#45;&gt;Node2</title>
<path fill="none" stroke="#404040" d="M348.9088,-364.3363C368.3674,-341.9326 394.0869,-315.9074 421.5,-298 452.464,-277.773 463.5911,-277.8574 499.5,-269 608.1976,-242.1881 739.0492,-230.08 811.1545,-225.0952"/>
<polygon fill="none" stroke="#404040" points="811.5161,-225.0712 817.2367,-220.6809 823.4896,-224.2728 817.769,-228.6631 811.5161,-225.0712"/>
<text text-anchor="middle" x="548.5" y="-272" font-family="Helvetica,sans-Serif" font-size="10.00" fill="#000000"> +GainControl</text>
</g>
<!-- Node5 -->
<g id="node5" class="node">
<title>Node5</title>
<g id="a_node5"><a xlink:href="a02485.html" target="_top" xlink:title=" ">
<polygon fill="#ffffff" stroke="#000000" points="430.5,-364.5 430.5,-454.5 552.5,-454.5 552.5,-364.5 430.5,-364.5"/>
<text text-anchor="middle" x="491.5" y="-442.5" font-family="Helvetica,sans-Serif" font-size="10.00" fill="#000000">NPNZ_LIMITS_s</text>
<polyline fill="none" stroke="#000000" points="430.5,-435.5 552.5,-435.5 "/>
<text text-anchor="start" x="438.5" y="-423.5" font-family="Helvetica,sans-Serif" font-size="10.00" fill="#000000">+ MinOutput</text>
<text text-anchor="start" x="438.5" y="-412.5" font-family="Helvetica,sans-Serif" font-size="10.00" fill="#000000">+ MaxOutput</text>
<text text-anchor="start" x="438.5" y="-401.5" font-family="Helvetica,sans-Serif" font-size="10.00" fill="#000000">+ AltMinOutput</text>
<text text-anchor="start" x="438.5" y="-390.5" font-family="Helvetica,sans-Serif" font-size="10.00" fill="#000000">+ AltMaxOutput</text>
<polyline fill="none" stroke="#000000" points="430.5,-383.5 552.5,-383.5 "/>
<text text-anchor="middle" x="491.5" y="-371.5" font-family="Helvetica,sans-Serif" font-size="10.00" fill="#000000"> </text>
</a>
</g>
</g>
<!-- Node5&#45;&gt;Node2 -->
<g id="edge4" class="edge">
<title>Node5&#45;&gt;Node2</title>
<path fill="none" stroke="#404040" d="M509.842,-364.4113C521.4185,-341.3221 538.5588,-314.642 561.5,-298 601.0758,-269.2911 734.9426,-243.4303 811.1825,-230.571"/>
<polygon fill="none" stroke="#404040" points="811.5161,-230.5156 816.7782,-225.585 823.3534,-228.546 818.0912,-233.4765 811.5161,-230.5156"/>
<text text-anchor="middle" x="660" y="-272" font-family="Helvetica,sans-Serif" font-size="10.00" fill="#000000"> +Limits</text>
</g>
<!-- Node6 -->
<g id="node6" class="node">
<title>Node6</title>
<g id="a_node6"><a xlink:href="a02505.html" target="_top" xlink:title=" ">
<polygon fill="#ffffff" stroke="#000000" points="571,-342.5 571,-476.5 760,-476.5 760,-342.5 571,-342.5"/>
<text text-anchor="middle" x="665.5" y="-464.5" font-family="Helvetica,sans-Serif" font-size="10.00" fill="#000000">NPNZ_USER_DATA_BUFFER_s</text>
<polyline fill="none" stroke="#000000" points="571,-457.5 760,-457.5 "/>
<text text-anchor="start" x="579" y="-445.5" font-family="Helvetica,sans-Serif" font-size="10.00" fill="#000000">+ usrParam0</text>
<text text-anchor="start" x="579" y="-434.5" font-family="Helvetica,sans-Serif" font-size="10.00" fill="#000000">+ usrParam1</text>
<text text-anchor="start" x="579" y="-423.5" font-family="Helvetica,sans-Serif" font-size="10.00" fill="#000000">+ usrParam2</text>
<text text-anchor="start" x="579" y="-412.5" font-family="Helvetica,sans-Serif" font-size="10.00" fill="#000000">+ usrParam3</text>
<text text-anchor="start" x="579" y="-401.5" font-family="Helvetica,sans-Serif" font-size="10.00" fill="#000000">+ usrParam4</text>
<text text-anchor="start" x="579" y="-390.5" font-family="Helvetica,sans-Serif" font-size="10.00" fill="#000000">+ usrParam5</text>
<text text-anchor="start" x="579" y="-379.5" font-family="Helvetica,sans-Serif" font-size="10.00" fill="#000000">+ usrParam6</text>
<text text-anchor="start" x="579" y="-368.5" font-family="Helvetica,sans-Serif" font-size="10.00" fill="#000000">+ usrParam7</text>
<polyline fill="none" stroke="#000000" points="571,-361.5 760,-361.5 "/>
<text text-anchor="middle" x="665.5" y="-349.5" font-family="Helvetica,sans-Serif" font-size="10.00" fill="#000000"> </text>
</a>
</g>
</g>
<!-- Node6&#45;&gt;Node2 -->
<g id="edge5" class="edge">
<title>Node6&#45;&gt;Node2</title>
<path fill="none" stroke="#404040" d="M715.1354,-342.388C735.3325,-317.6356 759.9313,-290.4295 785.5,-269 793.9318,-261.9332 803.5585,-255.2918 813.1426,-249.3519"/>
<polygon fill="none" stroke="#404040" points="813.1605,-249.3412 816.2649,-242.8325 823.4669,-243.1948 820.3625,-249.7035 813.1605,-249.3412"/>
<text text-anchor="middle" x="823.5" y="-272" font-family="Helvetica,sans-Serif" font-size="10.00" fill="#000000"> +Advanced</text>
</g>
<!-- Node7 -->
<g id="node7" class="node">
<title>Node7</title>
<g id="a_node7"><a xlink:href="a02477.html" target="_top" xlink:title=" ">
<polygon fill="#ffffff" stroke="#000000" points="778.5,-381 778.5,-438 952.5,-438 952.5,-381 778.5,-381"/>
<text text-anchor="middle" x="865.5" y="-426" font-family="Helvetica,sans-Serif" font-size="10.00" fill="#000000">NPNZ_PORTS_s</text>
<polyline fill="none" stroke="#000000" points="778.5,-419 952.5,-419 "/>
<text text-anchor="start" x="786.5" y="-407" font-family="Helvetica,sans-Serif" font-size="10.00" fill="#000000">+ ptrControlReference</text>
<polyline fill="none" stroke="#000000" points="778.5,-400 952.5,-400 "/>
<text text-anchor="middle" x="865.5" y="-388" font-family="Helvetica,sans-Serif" font-size="10.00" fill="#000000"> </text>
</a>
</g>
</g>
<!-- Node7&#45;&gt;Node2 -->
<g id="edge6" class="edge">
<title>Node7&#45;&gt;Node2</title>
<path fill="none" stroke="#404040" d="M865.5,-380.614C865.5,-349.1416 865.5,-298.5399 865.5,-262.9717"/>
<polygon fill="none" stroke="#404040" points="865.5001,-262.6111 861.5,-256.6111 865.5,-250.6111 869.5,-256.6111 865.5001,-262.6111"/>
<text text-anchor="middle" x="892" y="-272" font-family="Helvetica,sans-Serif" font-size="10.00" fill="#000000"> +Ports</text>
</g>
<!-- Node8 -->
<g id="node8" class="node">
<title>Node8</title>
<g id="a_node8"><a xlink:href="a02473.html" target="_top" xlink:title=" ">
<polygon fill="#ffffff" stroke="#000000" points="812,-601.5 812,-691.5 919,-691.5 919,-601.5 812,-601.5"/>
<text text-anchor="middle" x="865.5" y="-679.5" font-family="Helvetica,sans-Serif" font-size="10.00" fill="#000000">NPNZ_PORT_s</text>
<polyline fill="none" stroke="#000000" points="812,-672.5 919,-672.5 "/>
<text text-anchor="start" x="820" y="-660.5" font-family="Helvetica,sans-Serif" font-size="10.00" fill="#000000">+ ptrAddress</text>
<text text-anchor="start" x="820" y="-649.5" font-family="Helvetica,sans-Serif" font-size="10.00" fill="#000000">+ NormScaler</text>
<text text-anchor="start" x="820" y="-638.5" font-family="Helvetica,sans-Serif" font-size="10.00" fill="#000000">+ NormFactor</text>
<text text-anchor="start" x="820" y="-627.5" font-family="Helvetica,sans-Serif" font-size="10.00" fill="#000000">+ Offset</text>
<polyline fill="none" stroke="#000000" points="812,-620.5 919,-620.5 "/>
<text text-anchor="middle" x="865.5" y="-608.5" font-family="Helvetica,sans-Serif" font-size="10.00" fill="#000000"> </text>
</a>
</g>
</g>
<!-- Node8&#45;&gt;Node7 -->
<g id="edge7" class="edge">
<title>Node8&#45;&gt;Node7</title>
<path fill="none" stroke="#404040" d="M865.5,-601.3643C865.5,-557.7912 865.5,-492.3997 865.5,-450.3372"/>
<polygon fill="none" stroke="#404040" points="865.5001,-450.0822 861.5,-444.0822 865.5,-438.0822 869.5,-444.0822 865.5001,-450.0822"/>
<text text-anchor="middle" x="903.5" y="-575" font-family="Helvetica,sans-Serif" font-size="10.00" fill="#000000"> +Source</text>
<text text-anchor="middle" x="903.5" y="-564" font-family="Helvetica,sans-Serif" font-size="10.00" fill="#000000">+Target</text>
<text text-anchor="middle" x="903.5" y="-553" font-family="Helvetica,sans-Serif" font-size="10.00" fill="#000000">+AltSource</text>
<text text-anchor="middle" x="903.5" y="-542" font-family="Helvetica,sans-Serif" font-size="10.00" fill="#000000">+AltTarget</text>
</g>
<!-- Node9 -->
<g id="node9" class="node">
<title>Node9</title>
<g id="a_node9"><a xlink:href="a02481.html" target="_top" xlink:title=" ">
<polygon fill="#ffffff" stroke="#000000" points="970.5,-309.5 970.5,-509.5 1174.5,-509.5 1174.5,-309.5 970.5,-309.5"/>
<text text-anchor="middle" x="1072.5" y="-497.5" font-family="Helvetica,sans-Serif" font-size="10.00" fill="#000000">NPNZ_FILTER_PARAMS_s</text>
<polyline fill="none" stroke="#000000" points="970.5,-490.5 1174.5,-490.5 "/>
<text text-anchor="start" x="978.5" y="-478.5" font-family="Helvetica,sans-Serif" font-size="10.00" fill="#000000">+ ptrACoefficients</text>
<text text-anchor="start" x="978.5" y="-467.5" font-family="Helvetica,sans-Serif" font-size="10.00" fill="#000000">+ ptrBCoefficients</text>
<text text-anchor="start" x="978.5" y="-456.5" font-family="Helvetica,sans-Serif" font-size="10.00" fill="#000000">+ ptrControlHistory</text>
<text text-anchor="start" x="978.5" y="-445.5" font-family="Helvetica,sans-Serif" font-size="10.00" fill="#000000">+ ptrErrorHistory</text>
<text text-anchor="start" x="978.5" y="-434.5" font-family="Helvetica,sans-Serif" font-size="10.00" fill="#000000">+ ACoefficientsArraySize</text>
<text text-anchor="start" x="978.5" y="-423.5" font-family="Helvetica,sans-Serif" font-size="10.00" fill="#000000">+ BCoefficientsArraySize</text>
<text text-anchor="start" x="978.5" y="-412.5" font-family="Helvetica,sans-Serif" font-size="10.00" fill="#000000">+ ControlHistoryArraySize</text>
<text text-anchor="start" x="978.5" y="-401.5" font-family="Helvetica,sans-Serif" font-size="10.00" fill="#000000">+ ErrorHistoryArraySize</text>
<text text-anchor="start" x="978.5" y="-390.5" font-family="Helvetica,sans-Serif" font-size="10.00" fill="#000000">+ normPreShift</text>
<text text-anchor="start" x="978.5" y="-379.5" font-family="Helvetica,sans-Serif" font-size="10.00" fill="#000000">+ normPostShiftA</text>
<text text-anchor="start" x="978.5" y="-368.5" font-family="Helvetica,sans-Serif" font-size="10.00" fill="#000000">+ normPostShiftB</text>
<text text-anchor="start" x="978.5" y="-357.5" font-family="Helvetica,sans-Serif" font-size="10.00" fill="#000000">+ normPostScaler</text>
<text text-anchor="start" x="978.5" y="-346.5" font-family="Helvetica,sans-Serif" font-size="10.00" fill="#000000">+ PTermScaler</text>
<text text-anchor="start" x="978.5" y="-335.5" font-family="Helvetica,sans-Serif" font-size="10.00" fill="#000000">+ PTermFactor</text>
<polyline fill="none" stroke="#000000" points="970.5,-328.5 1174.5,-328.5 "/>
<text text-anchor="middle" x="1072.5" y="-316.5" font-family="Helvetica,sans-Serif" font-size="10.00" fill="#000000"> </text>
</a>
</g>
</g>
<!-- Node9&#45;&gt;Node2 -->
<g id="edge8" class="edge">
<title>Node9&#45;&gt;Node2</title>
<path fill="none" stroke="#404040" d="M974.1275,-309.4962C969.898,-305.5748 965.6777,-301.7285 961.5,-298 946.2649,-284.403 928.9459,-270.309 913.2523,-258.0055"/>
<polygon fill="none" stroke="#404040" points="913.1973,-257.9627 906.0053,-257.4375 903.724,-250.5967 910.916,-251.122 913.1973,-257.9627"/>
<text text-anchor="middle" x="970" y="-272" font-family="Helvetica,sans-Serif" font-size="10.00" fill="#000000"> +Filter</text>
</g>
<!-- Node10 -->
<g id="node10" class="node">
<title>Node10</title>
<g id="a_node10"><a xlink:href="a02493.html" target="_top" xlink:title=" ">
<polygon fill="#ffffff" stroke="#000000" points="1192.5,-364.5 1192.5,-454.5 1456.5,-454.5 1456.5,-364.5 1192.5,-364.5"/>
<text text-anchor="middle" x="1324.5" y="-442.5" font-family="Helvetica,sans-Serif" font-size="10.00" fill="#000000">NPNZ_DATA_PROVIDERS_s</text>
<polyline fill="none" stroke="#000000" points="1192.5,-435.5 1456.5,-435.5 "/>
<text text-anchor="start" x="1200.5" y="-423.5" font-family="Helvetica,sans-Serif" font-size="10.00" fill="#000000">+ ptrDProvControlInput</text>
<text text-anchor="start" x="1200.5" y="-412.5" font-family="Helvetica,sans-Serif" font-size="10.00" fill="#000000">+ ptrDProvControlInputCompensated</text>
<text text-anchor="start" x="1200.5" y="-401.5" font-family="Helvetica,sans-Serif" font-size="10.00" fill="#000000">+ ptrDProvControlError</text>
<text text-anchor="start" x="1200.5" y="-390.5" font-family="Helvetica,sans-Serif" font-size="10.00" fill="#000000">+ ptrDProvControlOutput</text>
<polyline fill="none" stroke="#000000" points="1192.5,-383.5 1456.5,-383.5 "/>
<text text-anchor="middle" x="1324.5" y="-371.5" font-family="Helvetica,sans-Serif" font-size="10.00" fill="#000000"> </text>
</a>
</g>
</g>
<!-- Node10&#45;&gt;Node2 -->
<g id="edge9" class="edge">
<title>Node10&#45;&gt;Node2</title>
<path fill="none" stroke="#404040" d="M1278.15,-364.3356C1252.2082,-341.3695 1218.1741,-314.8284 1183.5,-298 1096.6658,-255.8567 984.8871,-236.1679 919.6119,-227.6973"/>
<polygon fill="none" stroke="#404040" points="919.4972,-227.6831 913.0479,-230.9089 907.5897,-226.1963 914.039,-222.9705 919.4972,-227.6831"/>
<text text-anchor="middle" x="1190" y="-272" font-family="Helvetica,sans-Serif" font-size="10.00" fill="#000000"> +DataProviders</text>
</g>
<!-- Node11 -->
<g id="node11" class="node">
<title>Node11</title>
<g id="a_node11"><a xlink:href="a02497.html" target="_top" xlink:title=" ">
<polygon fill="#ffffff" stroke="#000000" points="1474.5,-298.5 1474.5,-520.5 1738.5,-520.5 1738.5,-298.5 1474.5,-298.5"/>
<text text-anchor="middle" x="1606.5" y="-508.5" font-family="Helvetica,sans-Serif" font-size="10.00" fill="#000000">NPNZ_EXTENSION_HOOKS_s</text>
<polyline fill="none" stroke="#000000" points="1474.5,-501.5 1738.5,-501.5 "/>
<text text-anchor="start" x="1482.5" y="-489.5" font-family="Helvetica,sans-Serif" font-size="10.00" fill="#000000">+ ptrExtHookStartFunction</text>
<text text-anchor="start" x="1482.5" y="-478.5" font-family="Helvetica,sans-Serif" font-size="10.00" fill="#000000">+ ExtHookStartFunctionParam</text>
<text text-anchor="start" x="1482.5" y="-467.5" font-family="Helvetica,sans-Serif" font-size="10.00" fill="#000000">+ ptrExtHookSourceFunction</text>
<text text-anchor="start" x="1482.5" y="-456.5" font-family="Helvetica,sans-Serif" font-size="10.00" fill="#000000">+ ExtHookSourceFunctionParam</text>
<text text-anchor="start" x="1482.5" y="-445.5" font-family="Helvetica,sans-Serif" font-size="10.00" fill="#000000">+ ptrExtHookPreAntiWindupFunction</text>
<text text-anchor="start" x="1482.5" y="-434.5" font-family="Helvetica,sans-Serif" font-size="10.00" fill="#000000">+ ExtHookPreAntiWindupFunction</text>
<text text-anchor="start" x="1482.5" y="-423.5" font-family="Helvetica,sans-Serif" font-size="10.00" fill="#000000">Param</text>
<text text-anchor="start" x="1482.5" y="-412.5" font-family="Helvetica,sans-Serif" font-size="10.00" fill="#000000">+ ptrExtHookPreTargetWrite</text>
<text text-anchor="start" x="1482.5" y="-401.5" font-family="Helvetica,sans-Serif" font-size="10.00" fill="#000000">Function</text>
<text text-anchor="start" x="1482.5" y="-390.5" font-family="Helvetica,sans-Serif" font-size="10.00" fill="#000000">+ ExtHookPreTargetWriteFunction</text>
<text text-anchor="start" x="1482.5" y="-379.5" font-family="Helvetica,sans-Serif" font-size="10.00" fill="#000000">Param</text>
<text text-anchor="start" x="1482.5" y="-368.5" font-family="Helvetica,sans-Serif" font-size="10.00" fill="#000000">+ ptrExtHookEndOfLoopFunction</text>
<text text-anchor="start" x="1482.5" y="-357.5" font-family="Helvetica,sans-Serif" font-size="10.00" fill="#000000">+ ExtHookEndOfLoopFunction</text>
<text text-anchor="start" x="1482.5" y="-346.5" font-family="Helvetica,sans-Serif" font-size="10.00" fill="#000000">Param</text>
<text text-anchor="start" x="1482.5" y="-335.5" font-family="Helvetica,sans-Serif" font-size="10.00" fill="#000000">+ ptrExtHookExitFunction</text>
<text text-anchor="start" x="1482.5" y="-324.5" font-family="Helvetica,sans-Serif" font-size="10.00" fill="#000000">+ ExtHookExitFunctionParam</text>
<polyline fill="none" stroke="#000000" points="1474.5,-317.5 1738.5,-317.5 "/>
<text text-anchor="middle" x="1606.5" y="-305.5" font-family="Helvetica,sans-Serif" font-size="10.00" fill="#000000"> </text>
</a>
</g>
</g>
<!-- Node11&#45;&gt;Node2 -->
<g id="edge10" class="edge">
<title>Node11&#45;&gt;Node2</title>
<path fill="none" stroke="#404040" d="M1474.0861,-301.8764C1471.2358,-300.5145 1468.3725,-299.2199 1465.5,-298 1367.5263,-256.3943 1048.3947,-233.0205 919.8667,-225.0966"/>
<polygon fill="none" stroke="#404040" points="919.654,-225.0838 913.4226,-228.7127 907.6761,-224.3563 913.9076,-220.7274 919.654,-225.0838"/>
<text text-anchor="middle" x="1455" y="-272" font-family="Helvetica,sans-Serif" font-size="10.00" fill="#000000"> +ExtensionHooks</text>
</g>
<!-- Node12 -->
<g id="node12" class="node">
<title>Node12</title>
<g id="a_node12"><a xlink:href="a02453.html" target="_top" xlink:title=" ">
<polygon fill="#ffffff" stroke="#000000" points="1757,-337 1757,-482 1954,-482 1954,-337 1757,-337"/>
<text text-anchor="middle" x="1855.5" y="-470" font-family="Helvetica,sans-Serif" font-size="10.00" fill="#000000">NPNZ_STATUS_s</text>
<polyline fill="none" stroke="#000000" points="1757,-463 1954,-463 "/>
<text text-anchor="start" x="1765" y="-451" font-family="Helvetica,sans-Serif" font-size="10.00" fill="#000000">+ lower_saturation_event</text>
<text text-anchor="start" x="1765" y="-440" font-family="Helvetica,sans-Serif" font-size="10.00" fill="#000000">+ upper_saturation_event</text>
<text text-anchor="start" x="1765" y="-429" font-family="Helvetica,sans-Serif" font-size="10.00" fill="#000000">+ unsigned</text>
<text text-anchor="start" x="1765" y="-418" font-family="Helvetica,sans-Serif" font-size="10.00" fill="#000000">+ agc_enabled</text>
<text text-anchor="start" x="1765" y="-407" font-family="Helvetica,sans-Serif" font-size="10.00" fill="#000000">+ swap_target</text>
<text text-anchor="start" x="1765" y="-396" font-family="Helvetica,sans-Serif" font-size="10.00" fill="#000000">+ swap_source</text>
<text text-anchor="start" x="1765" y="-385" font-family="Helvetica,sans-Serif" font-size="10.00" fill="#000000">+ invert_input</text>
<text text-anchor="start" x="1765" y="-374" font-family="Helvetica,sans-Serif" font-size="10.00" fill="#000000">+ enabled</text>
<text text-anchor="start" x="1765" y="-363" font-family="Helvetica,sans-Serif" font-size="10.00" fill="#000000">+ value</text>
<polyline fill="none" stroke="#000000" points="1757,-356 1954,-356 "/>
<text text-anchor="middle" x="1855.5" y="-344" font-family="Helvetica,sans-Serif" font-size="10.00" fill="#000000"> </text>
</a>
</g>
</g>
<!-- Node12&#45;&gt;Node2 -->
<g id="edge11" class="edge">
<title>Node12&#45;&gt;Node2</title>
<path fill="none" stroke="#404040" d="M1799.3124,-336.9634C1784.1134,-321.7917 1766.5398,-307.5266 1747.5,-298 1673.5129,-260.9805 1100.0377,-232.4699 919.6378,-224.3432"/>
<polygon fill="none" stroke="#404040" points="919.5761,-224.3406 913.4034,-228.0685 907.5881,-223.8045 913.7608,-220.0765 919.5761,-224.3406"/>
<text text-anchor="middle" x="1687" y="-272" font-family="Helvetica,sans-Serif" font-size="10.00" fill="#000000"> +status</text>
</g>
</g>
</svg>
        <g id="navigator" transform="translate(0 0)" fill="#404254">
                <rect fill="#f2f5e9" fill-opacity="0.5" stroke="#606060" stroke-width=".5" x="0" y="0" width="60" height="60"/>
                <use id="zoomplus" xlink:href="#zoomPlus" x="17" y="9" onmousedown="handleZoom(evt,'in')"/>
                <use id="zoomminus" xlink:href="#zoomMin" x="42" y="9" onmousedown="handleZoom(evt,'out')"/>
                <use id="reset" xlink:href="#resetDef" x="30" y="36" onmousedown="handleReset()"/>
                <g id="arrowUp" xlink:href="#dirArrow" transform="translate(30 24)" onmousedown="handlePan(0,-1)">
                  <use xlink:href="#rim" fill="#404040">
                        <set attributeName="fill" to="#808080" begin="arrowUp.mouseover" end="arrowUp.mouseout"/>
                  </use>
                  <path fill="none" stroke="white" stroke-width="1.5" d="M0,-3.0v7 M-2.5,-0.5L0,-3.0L2.5,-0.5"/>
                </g>
                <g id="arrowRight" xlink:href="#dirArrow" transform="rotate(90) translate(36 -43)" onmousedown="handlePan(1,0)">
                  <use xlink:href="#rim" fill="#404040">
                        <set attributeName="fill" to="#808080" begin="arrowRight.mouseover" end="arrowRight.mouseout"/>
                  </use>
                  <path fill="none" stroke="white" stroke-width="1.5" d="M0,-3.0v7 M-2.5,-0.5L0,-3.0L2.5,-0.5"/>
                </g>
                <g id="arrowDown" xlink:href="#dirArrow" transform="rotate(180) translate(-30 -48)" onmousedown="handlePan(0,1)">
                  <use xlink:href="#rim" fill="#404040">
                        <set attributeName="fill" to="#808080" begin="arrowDown.mouseover" end="arrowDown.mouseout"/>
                  </use>
                  <path fill="none" stroke="white" stroke-width="1.5" d="M0,-3.0v7 M-2.5,-0.5L0,-3.0L2.5,-0.5"/>
                </g>
                <g id="arrowLeft" xlink:href="#dirArrow" transform="rotate(270) translate(-36 17)" onmousedown="handlePan(-1,0)">
                  <use xlink:href="#rim" fill="#404040">
                        <set attributeName="fill" to="#808080" begin="arrowLeft.mouseover" end="arrowLeft.mouseout"/>
                  </use>
                  <path fill="none" stroke="white" stroke-width="1.5" d="M0,-3.0v7 M-2.5,-0.5L0,-3.0L2.5,-0.5"/>
                </g>
        </g>
        <svg viewBox="0 0 15 15" width="100%" height="30px" preserveAspectRatio="xMaxYMin meet">
         <g id="arrow_out" transform="scale(0.3 0.3)">
          <a xlink:href="a02415_org.svg" target="_base">
           <rect id="button" ry="5" rx="5" y="6" x="6" height="38" width="38"
                fill="#f2f5e9" fill-opacity="0.5" stroke="#606060" stroke-width="1.0"/>
           <path id="arrow"
             d="M 11.500037,31.436501 C 11.940474,20.09759 22.043105,11.32322 32.158766,21.979434 L 37.068811,17.246167 C 37.068811,17.246167 37.088388,32 37.088388,32 L 22.160133,31.978069 C 22.160133,31.978069 26.997745,27.140456 26.997745,27.140456 C 18.528582,18.264221 13.291696,25.230495 11.500037,31.436501 z"
             style="fill:#404040;"/>
          </a>
         </g>
        </svg>
</svg>
