<?xml version="1.0" encoding="UTF-8" standalone="no"?>
<!DOCTYPE svg PUBLIC "-//W3C//DTD SVG 1.1//EN"
 "http://www.w3.org/Graphics/SVG/1.1/DTD/svg11.dtd">
<!-- Generated by graphviz version 2.40.1 (0)
 -->
<!-- Title: BOOST_ADC_INPUT_SETTINGS_s Pages: 1 -->
<svg width="220pt" height="303pt"
 viewBox="0.00 0.00 220.00 303.00" xmlns="http://www.w3.org/2000/svg" xmlns:xlink="http://www.w3.org/1999/xlink">
<g id="graph0" class="graph" transform="scale(1 1) rotate(0) translate(4 299)">
<title>BOOST_ADC_INPUT_SETTINGS_s</title>
<polygon fill="#ffffff" stroke="transparent" points="-4,4 -4,-299 216,-299 216,4 -4,4"/>
<!-- Node1 -->
<g id="node1" class="node">
<title>Node1</title>
<g id="a_node1"><a xlink:title="ADC input channel configuration.">
<polygon fill="#bfbfbf" stroke="#000000" points="0,-.5 0,-167.5 212,-167.5 212,-.5 0,-.5"/>
<text text-anchor="middle" x="106" y="-155.5" font-family="Helvetica,sans-Serif" font-size="10.00" fill="#000000">BOOST_ADC_INPUT_SETTINGS_s</text>
<polyline fill="none" stroke="#000000" points="0,-148.5 212,-148.5 "/>
<text text-anchor="start" x="8" y="-136.5" font-family="Helvetica,sans-Serif" font-size="10.00" fill="#000000">+ enabled</text>
<text text-anchor="start" x="8" y="-125.5" font-family="Helvetica,sans-Serif" font-size="10.00" fill="#000000">+ adc_buffer</text>
<text text-anchor="start" x="8" y="-114.5" font-family="Helvetica,sans-Serif" font-size="10.00" fill="#000000">+ gpio_instance</text>
<text text-anchor="start" x="8" y="-103.5" font-family="Helvetica,sans-Serif" font-size="10.00" fill="#000000">+ adc_input</text>
<text text-anchor="start" x="8" y="-92.5" font-family="Helvetica,sans-Serif" font-size="10.00" fill="#000000">+ adc_core</text>
<text text-anchor="start" x="8" y="-81.5" font-family="Helvetica,sans-Serif" font-size="10.00" fill="#000000">+ trigger_source</text>
<text text-anchor="start" x="8" y="-70.5" font-family="Helvetica,sans-Serif" font-size="10.00" fill="#000000">+ interrupt_enable</text>
<text text-anchor="start" x="8" y="-59.5" font-family="Helvetica,sans-Serif" font-size="10.00" fill="#000000">+ early_interrupt_enable</text>
<text text-anchor="start" x="8" y="-48.5" font-family="Helvetica,sans-Serif" font-size="10.00" fill="#000000">+ differential_input</text>
<text text-anchor="start" x="8" y="-37.5" font-family="Helvetica,sans-Serif" font-size="10.00" fill="#000000">+ signed_result</text>
<text text-anchor="start" x="8" y="-26.5" font-family="Helvetica,sans-Serif" font-size="10.00" fill="#000000">+ level_trigger</text>
<polyline fill="none" stroke="#000000" points="0,-19.5 212,-19.5 "/>
<text text-anchor="middle" x="106" y="-7.5" font-family="Helvetica,sans-Serif" font-size="10.00" fill="#000000"> </text>
</a>
</g>
</g>
<!-- Node2 -->
<g id="node2" class="node">
<title>Node2</title>
<g id="a_node2"><a xlink:href="a02425.html" target="_top" xlink:title="ADC input signal scaling = (ADCBUF &#45; &lt;offset&gt;) * &lt;factor&gt; &gt;&gt; 2^&lt;scaler&gt;">
<polygon fill="#ffffff" stroke="#000000" points="4,-215.5 4,-294.5 208,-294.5 208,-215.5 4,-215.5"/>
<text text-anchor="middle" x="106" y="-282.5" font-family="Helvetica,sans-Serif" font-size="10.00" fill="#000000">BOOST_ADC_INPUT_SCALING_s</text>
<polyline fill="none" stroke="#000000" points="4,-275.5 208,-275.5 "/>
<text text-anchor="start" x="12" y="-263.5" font-family="Helvetica,sans-Serif" font-size="10.00" fill="#000000">+ factor</text>
<text text-anchor="start" x="12" y="-252.5" font-family="Helvetica,sans-Serif" font-size="10.00" fill="#000000">+ scaler</text>
<text text-anchor="start" x="12" y="-241.5" font-family="Helvetica,sans-Serif" font-size="10.00" fill="#000000">+ offset</text>
<polyline fill="none" stroke="#000000" points="4,-234.5 208,-234.5 "/>
<text text-anchor="middle" x="106" y="-222.5" font-family="Helvetica,sans-Serif" font-size="10.00" fill="#000000"> </text>
</a>
</g>
</g>
<!-- Node2&#45;&gt;Node1 -->
<g id="edge1" class="edge">
<title>Node2&#45;&gt;Node1</title>
<path fill="none" stroke="#404040" d="M106,-215.3394C106,-204.4981 106,-192.2607 106,-179.7259"/>
<polygon fill="none" stroke="#404040" points="106.0001,-179.6528 102,-173.6528 106,-167.6528 110,-173.6527 106.0001,-179.6528"/>
<text text-anchor="middle" x="140" y="-189" font-family="Helvetica,sans-Serif" font-size="10.00" fill="#000000"> +scaling</text>
</g>
</g>
</svg>
