<?xml version="1.0" encoding="UTF-8" standalone="no"?>
<!DOCTYPE svg PUBLIC "-//W3C//DTD SVG 1.1//EN"
 "http://www.w3.org/Graphics/SVG/1.1/DTD/svg11.dtd">
<!-- Generated by graphviz version 2.40.1 (0)
 -->
<!-- Title: BOOST_GPIO_SETTINGS_s Pages: 1 -->
<svg width="186pt" height="226pt"
 viewBox="0.00 0.00 186.00 226.00" xmlns="http://www.w3.org/2000/svg" xmlns:xlink="http://www.w3.org/1999/xlink">
<g id="graph0" class="graph" transform="scale(1 1) rotate(0) translate(4 222)">
<title>BOOST_GPIO_SETTINGS_s</title>
<polygon fill="#ffffff" stroke="transparent" points="-4,4 -4,-222 182,-222 182,4 -4,4"/>
<!-- Node1 -->
<g id="node1" class="node">
<title>Node1</title>
<g id="a_node1"><a xlink:title="GPIO instance of the converter control GPIO.">
<polygon fill="#bfbfbf" stroke="#000000" points="0,-.5 0,-57.5 174,-57.5 174,-.5 0,-.5"/>
<text text-anchor="middle" x="87" y="-45.5" font-family="Helvetica,sans-Serif" font-size="10.00" fill="#000000">BOOST_GPIO_SETTINGS_s</text>
<polyline fill="none" stroke="#000000" points="0,-38.5 174,-38.5 "/>
<text text-anchor="middle" x="87" y="-26.5" font-family="Helvetica,sans-Serif" font-size="10.00" fill="#000000"> </text>
<polyline fill="none" stroke="#000000" points="0,-19.5 174,-19.5 "/>
<text text-anchor="middle" x="87" y="-7.5" font-family="Helvetica,sans-Serif" font-size="10.00" fill="#000000"> </text>
</a>
</g>
</g>
<!-- Node2 -->
<g id="node2" class="node">
<title>Node2</title>
<g id="a_node2"><a xlink:href="a02437.html" target="_top" xlink:title="GPIO instance of the converter control GPIO.">
<polygon fill="#ffffff" stroke="#000000" points="0,-116.5 0,-217.5 174,-217.5 174,-116.5 0,-116.5"/>
<text text-anchor="middle" x="87" y="-205.5" font-family="Helvetica,sans-Serif" font-size="10.00" fill="#000000">BOOST_GPIO_INSTANCE_s</text>
<polyline fill="none" stroke="#000000" points="0,-198.5 174,-198.5 "/>
<text text-anchor="start" x="8" y="-186.5" font-family="Helvetica,sans-Serif" font-size="10.00" fill="#000000">+ enabled</text>
<text text-anchor="start" x="8" y="-175.5" font-family="Helvetica,sans-Serif" font-size="10.00" fill="#000000">+ port</text>
<text text-anchor="start" x="8" y="-164.5" font-family="Helvetica,sans-Serif" font-size="10.00" fill="#000000">+ pin</text>
<text text-anchor="start" x="8" y="-153.5" font-family="Helvetica,sans-Serif" font-size="10.00" fill="#000000">+ polarity</text>
<text text-anchor="start" x="8" y="-142.5" font-family="Helvetica,sans-Serif" font-size="10.00" fill="#000000">+ io_type</text>
<polyline fill="none" stroke="#000000" points="0,-135.5 174,-135.5 "/>
<text text-anchor="middle" x="87" y="-123.5" font-family="Helvetica,sans-Serif" font-size="10.00" fill="#000000"> </text>
</a>
</g>
</g>
<!-- Node2&#45;&gt;Node1 -->
<g id="edge1" class="edge">
<title>Node2&#45;&gt;Node1</title>
<path fill="none" stroke="#404040" d="M87,-116.3975C87,-101.0475 87,-84.3871 87,-69.7693"/>
<polygon fill="none" stroke="#404040" points="87.0001,-69.5335 83,-63.5336 87,-57.5335 91,-63.5335 87.0001,-69.5335"/>
<text text-anchor="middle" x="132.5" y="-90" font-family="Helvetica,sans-Serif" font-size="10.00" fill="#000000"> +PowerGood</text>
<text text-anchor="middle" x="132.5" y="-79" font-family="Helvetica,sans-Serif" font-size="10.00" fill="#000000">+EnableInput</text>
</g>
</g>
</svg>
