<?xml version="1.0" encoding="UTF-8" standalone="no"?>
<!DOCTYPE svg PUBLIC "-//W3C//DTD SVG 1.1//EN"
 "http://www.w3.org/Graphics/SVG/1.1/DTD/svg11.dtd">
<!-- Generated by graphviz version 2.40.1 (0)
 -->
<!-- Title: BOOST_CONVERTER_STARTUP_s Pages: 1 -->
<svg width="384pt" height="259pt"
 viewBox="0.00 0.00 384.00 259.00" xmlns="http://www.w3.org/2000/svg" xmlns:xlink="http://www.w3.org/1999/xlink">
<g id="graph0" class="graph" transform="scale(1 1) rotate(0) translate(4 255)">
<title>BOOST_CONVERTER_STARTUP_s</title>
<polygon fill="#ffffff" stroke="transparent" points="-4,4 -4,-255 380,-255 380,4 -4,4"/>
<!-- Node1 -->
<g id="node1" class="node">
<title>Node1</title>
<g id="a_node1"><a xlink:title=" ">
<polygon fill="#bfbfbf" stroke="#000000" points="63,-.5 63,-57.5 267,-57.5 267,-.5 63,-.5"/>
<text text-anchor="middle" x="165" y="-45.5" font-family="Helvetica,sans-Serif" font-size="10.00" fill="#000000">BOOST_CONVERTER_STARTUP_s</text>
<polyline fill="none" stroke="#000000" points="63,-38.5 267,-38.5 "/>
<text text-anchor="middle" x="165" y="-26.5" font-family="Helvetica,sans-Serif" font-size="10.00" fill="#000000"> </text>
<polyline fill="none" stroke="#000000" points="63,-19.5 267,-19.5 "/>
<text text-anchor="middle" x="165" y="-7.5" font-family="Helvetica,sans-Serif" font-size="10.00" fill="#000000"> </text>
</a>
</g>
</g>
<!-- Node2 -->
<g id="node2" class="node">
<title>Node2</title>
<g id="a_node2"><a xlink:href="a02401.html" target="_top" xlink:title=" ">
<polygon fill="#ffffff" stroke="#000000" points="0,-138.5 0,-250.5 152,-250.5 152,-138.5 0,-138.5"/>
<text text-anchor="start" x="8" y="-238.5" font-family="Helvetica,sans-Serif" font-size="10.00" fill="#000000">BOOST_STARTUP_VCAP</text>
<text text-anchor="middle" x="76" y="-227.5" font-family="Helvetica,sans-Serif" font-size="10.00" fill="#000000">_PRECHARGE_s</text>
<polyline fill="none" stroke="#000000" points="0,-220.5 152,-220.5 "/>
<text text-anchor="start" x="8" y="-208.5" font-family="Helvetica,sans-Serif" font-size="10.00" fill="#000000">+ counter</text>
<text text-anchor="start" x="8" y="-197.5" font-family="Helvetica,sans-Serif" font-size="10.00" fill="#000000">+ period</text>
<text text-anchor="start" x="8" y="-186.5" font-family="Helvetica,sans-Serif" font-size="10.00" fill="#000000">+ timeout_counter</text>
<text text-anchor="start" x="8" y="-175.5" font-family="Helvetica,sans-Serif" font-size="10.00" fill="#000000">+ timeout</text>
<text text-anchor="start" x="8" y="-164.5" font-family="Helvetica,sans-Serif" font-size="10.00" fill="#000000">+ v_drop</text>
<polyline fill="none" stroke="#000000" points="0,-157.5 152,-157.5 "/>
<text text-anchor="middle" x="76" y="-145.5" font-family="Helvetica,sans-Serif" font-size="10.00" fill="#000000"> </text>
</a>
</g>
</g>
<!-- Node2&#45;&gt;Node1 -->
<g id="edge1" class="edge">
<title>Node2&#45;&gt;Node1</title>
<path fill="none" stroke="#404040" d="M95.7938,-138.2779C103.9355,-118.0078 114.2319,-95.3695 126,-76 127.7807,-73.0691 129.734,-70.1286 131.7878,-67.2276"/>
<polygon fill="none" stroke="#404040" points="131.8303,-67.1712 132.2476,-59.9722 139.0534,-57.5885 138.6361,-64.7875 131.8303,-67.1712"/>
<text text-anchor="middle" x="179" y="-95.5" font-family="Helvetica,sans-Serif" font-size="10.00" fill="#000000"> +vcap_monitor</text>
</g>
<!-- Node3 -->
<g id="node3" class="node">
<title>Node3</title>
<g id="a_node3"><a xlink:href="a02397.html" target="_top" xlink:title=" ">
<polygon fill="#ffffff" stroke="#000000" points="170.5,-144 170.5,-245 337.5,-245 337.5,-144 170.5,-144"/>
<text text-anchor="start" x="178.5" y="-233" font-family="Helvetica,sans-Serif" font-size="10.00" fill="#000000">BOOST_STARTUP_PERIOD</text>
<text text-anchor="middle" x="254" y="-222" font-family="Helvetica,sans-Serif" font-size="10.00" fill="#000000">_HANDLER_s</text>
<polyline fill="none" stroke="#000000" points="170.5,-215 337.5,-215 "/>
<text text-anchor="start" x="178.5" y="-203" font-family="Helvetica,sans-Serif" font-size="10.00" fill="#000000">+ counter</text>
<text text-anchor="start" x="178.5" y="-192" font-family="Helvetica,sans-Serif" font-size="10.00" fill="#000000">+ period</text>
<text text-anchor="start" x="178.5" y="-181" font-family="Helvetica,sans-Serif" font-size="10.00" fill="#000000">+ reference</text>
<text text-anchor="start" x="178.5" y="-170" font-family="Helvetica,sans-Serif" font-size="10.00" fill="#000000">+ ref_inc_step</text>
<polyline fill="none" stroke="#000000" points="170.5,-163 337.5,-163 "/>
<text text-anchor="middle" x="254" y="-151" font-family="Helvetica,sans-Serif" font-size="10.00" fill="#000000"> </text>
</a>
</g>
</g>
<!-- Node3&#45;&gt;Node1 -->
<g id="edge2" class="edge">
<title>Node3&#45;&gt;Node1</title>
<path fill="none" stroke="#404040" d="M253.0763,-143.7953C250.6214,-121.534 244.8422,-95.9776 232,-76 229.7419,-72.4872 227.1191,-69.1615 224.2453,-66.0262"/>
<polygon fill="none" stroke="#404040" points="224.2293,-66.0109 217.1312,-64.7387 215.5755,-57.6974 222.6735,-58.9696 224.2293,-66.0109"/>
<text text-anchor="middle" x="312" y="-112" font-family="Helvetica,sans-Serif" font-size="10.00" fill="#000000"> +i_ramp</text>
<text text-anchor="middle" x="312" y="-101" font-family="Helvetica,sans-Serif" font-size="10.00" fill="#000000">+v_ramp</text>
<text text-anchor="middle" x="312" y="-90" font-family="Helvetica,sans-Serif" font-size="10.00" fill="#000000">+power_on_delay</text>
<text text-anchor="middle" x="312" y="-79" font-family="Helvetica,sans-Serif" font-size="10.00" fill="#000000">+power_good_delay</text>
</g>
</g>
</svg>
