<?xml version="1.0" encoding="UTF-8" standalone="no"?>
<!DOCTYPE svg PUBLIC "-//W3C//DTD SVG 1.1//EN"
 "http://www.w3.org/Graphics/SVG/1.1/DTD/svg11.dtd">
<!-- Generated by graphviz version 2.40.1 (0)
 -->
<!-- Title: NPNZ_PORTS_s Pages: 1 -->
<svg width="182pt" height="237pt"
 viewBox="0.00 0.00 182.00 237.00" xmlns="http://www.w3.org/2000/svg" xmlns:xlink="http://www.w3.org/1999/xlink">
<g id="graph0" class="graph" transform="scale(1 1) rotate(0) translate(4 233)">
<title>NPNZ_PORTS_s</title>
<polygon fill="#ffffff" stroke="transparent" points="-4,4 -4,-233 178,-233 178,4 -4,4"/>
<!-- Node1 -->
<g id="node1" class="node">
<title>Node1</title>
<g id="a_node1"><a xlink:title=" ">
<polygon fill="#bfbfbf" stroke="#000000" points="0,-.5 0,-57.5 174,-57.5 174,-.5 0,-.5"/>
<text text-anchor="middle" x="87" y="-45.5" font-family="Helvetica,sans-Serif" font-size="10.00" fill="#000000">NPNZ_PORTS_s</text>
<polyline fill="none" stroke="#000000" points="0,-38.5 174,-38.5 "/>
<text text-anchor="start" x="8" y="-26.5" font-family="Helvetica,sans-Serif" font-size="10.00" fill="#000000">+ ptrControlReference</text>
<polyline fill="none" stroke="#000000" points="0,-19.5 174,-19.5 "/>
<text text-anchor="middle" x="87" y="-7.5" font-family="Helvetica,sans-Serif" font-size="10.00" fill="#000000"> </text>
</a>
</g>
</g>
<!-- Node2 -->
<g id="node2" class="node">
<title>Node2</title>
<g id="a_node2"><a xlink:href="a02473.html" target="_top" xlink:title=" ">
<polygon fill="#ffffff" stroke="#000000" points="33.5,-138.5 33.5,-228.5 140.5,-228.5 140.5,-138.5 33.5,-138.5"/>
<text text-anchor="middle" x="87" y="-216.5" font-family="Helvetica,sans-Serif" font-size="10.00" fill="#000000">NPNZ_PORT_s</text>
<polyline fill="none" stroke="#000000" points="33.5,-209.5 140.5,-209.5 "/>
<text text-anchor="start" x="41.5" y="-197.5" font-family="Helvetica,sans-Serif" font-size="10.00" fill="#000000">+ ptrAddress</text>
<text text-anchor="start" x="41.5" y="-186.5" font-family="Helvetica,sans-Serif" font-size="10.00" fill="#000000">+ NormScaler</text>
<text text-anchor="start" x="41.5" y="-175.5" font-family="Helvetica,sans-Serif" font-size="10.00" fill="#000000">+ NormFactor</text>
<text text-anchor="start" x="41.5" y="-164.5" font-family="Helvetica,sans-Serif" font-size="10.00" fill="#000000">+ Offset</text>
<polyline fill="none" stroke="#000000" points="33.5,-157.5 140.5,-157.5 "/>
<text text-anchor="middle" x="87" y="-145.5" font-family="Helvetica,sans-Serif" font-size="10.00" fill="#000000"> </text>
</a>
</g>
</g>
<!-- Node2&#45;&gt;Node1 -->
<g id="edge1" class="edge">
<title>Node2&#45;&gt;Node1</title>
<path fill="none" stroke="#404040" d="M87,-138.3969C87,-116.7575 87,-91.0221 87,-69.9504"/>
<polygon fill="none" stroke="#404040" points="87.0001,-69.831 83,-63.831 87,-57.831 91,-63.8309 87.0001,-69.831"/>
<text text-anchor="middle" x="125" y="-112" font-family="Helvetica,sans-Serif" font-size="10.00" fill="#000000"> +Source</text>
<text text-anchor="middle" x="125" y="-101" font-family="Helvetica,sans-Serif" font-size="10.00" fill="#000000">+Target</text>
<text text-anchor="middle" x="125" y="-90" font-family="Helvetica,sans-Serif" font-size="10.00" fill="#000000">+AltSource</text>
<text text-anchor="middle" x="125" y="-79" font-family="Helvetica,sans-Serif" font-size="10.00" fill="#000000">+AltTarget</text>
</g>
</g>
</svg>
