<?xml version="1.0" encoding="UTF-8" standalone="no"?>
<!DOCTYPE svg PUBLIC "-//W3C//DTD SVG 1.1//EN"
 "http://www.w3.org/Graphics/SVG/1.1/DTD/svg11.dtd">
<!-- Generated by graphviz version 2.40.1 (0)
 -->
<!-- Title: BOOST_FEEDBACK_SETTINGS_s Pages: 1 -->
<svg width="220pt" height="441pt"
 viewBox="0.00 0.00 220.00 441.00" xmlns="http://www.w3.org/2000/svg" xmlns:xlink="http://www.w3.org/1999/xlink">
<g id="graph0" class="graph" transform="scale(1 1) rotate(0) translate(4 437)">
<title>BOOST_FEEDBACK_SETTINGS_s</title>
<polygon fill="#ffffff" stroke="transparent" points="-4,4 -4,-437 216,-437 216,4 -4,4"/>
<!-- Node1 -->
<g id="node1" class="node">
<title>Node1</title>
<g id="a_node1"><a xlink:title="Boost converter feedback declarations.">
<polygon fill="#bfbfbf" stroke="#000000" points="4,-.5 4,-57.5 208,-57.5 208,-.5 4,-.5"/>
<text text-anchor="middle" x="106" y="-45.5" font-family="Helvetica,sans-Serif" font-size="10.00" fill="#000000">BOOST_FEEDBACK_SETTINGS_s</text>
<polyline fill="none" stroke="#000000" points="4,-38.5 208,-38.5 "/>
<text text-anchor="middle" x="106" y="-26.5" font-family="Helvetica,sans-Serif" font-size="10.00" fill="#000000"> </text>
<polyline fill="none" stroke="#000000" points="4,-19.5 208,-19.5 "/>
<text text-anchor="middle" x="106" y="-7.5" font-family="Helvetica,sans-Serif" font-size="10.00" fill="#000000"> </text>
</a>
</g>
</g>
<!-- Node2 -->
<g id="node2" class="node">
<title>Node2</title>
<g id="a_node2"><a xlink:href="a02429.html" target="_top" xlink:title="ADC input channel configuration.">
<polygon fill="#ffffff" stroke="#000000" points="0,-138.5 0,-305.5 212,-305.5 212,-138.5 0,-138.5"/>
<text text-anchor="middle" x="106" y="-293.5" font-family="Helvetica,sans-Serif" font-size="10.00" fill="#000000">BOOST_ADC_INPUT_SETTINGS_s</text>
<polyline fill="none" stroke="#000000" points="0,-286.5 212,-286.5 "/>
<text text-anchor="start" x="8" y="-274.5" font-family="Helvetica,sans-Serif" font-size="10.00" fill="#000000">+ enabled</text>
<text text-anchor="start" x="8" y="-263.5" font-family="Helvetica,sans-Serif" font-size="10.00" fill="#000000">+ adc_buffer</text>
<text text-anchor="start" x="8" y="-252.5" font-family="Helvetica,sans-Serif" font-size="10.00" fill="#000000">+ gpio_instance</text>
<text text-anchor="start" x="8" y="-241.5" font-family="Helvetica,sans-Serif" font-size="10.00" fill="#000000">+ adc_input</text>
<text text-anchor="start" x="8" y="-230.5" font-family="Helvetica,sans-Serif" font-size="10.00" fill="#000000">+ adc_core</text>
<text text-anchor="start" x="8" y="-219.5" font-family="Helvetica,sans-Serif" font-size="10.00" fill="#000000">+ trigger_source</text>
<text text-anchor="start" x="8" y="-208.5" font-family="Helvetica,sans-Serif" font-size="10.00" fill="#000000">+ interrupt_enable</text>
<text text-anchor="start" x="8" y="-197.5" font-family="Helvetica,sans-Serif" font-size="10.00" fill="#000000">+ early_interrupt_enable</text>
<text text-anchor="start" x="8" y="-186.5" font-family="Helvetica,sans-Serif" font-size="10.00" fill="#000000">+ differential_input</text>
<text text-anchor="start" x="8" y="-175.5" font-family="Helvetica,sans-Serif" font-size="10.00" fill="#000000">+ signed_result</text>
<text text-anchor="start" x="8" y="-164.5" font-family="Helvetica,sans-Serif" font-size="10.00" fill="#000000">+ level_trigger</text>
<polyline fill="none" stroke="#000000" points="0,-157.5 212,-157.5 "/>
<text text-anchor="middle" x="106" y="-145.5" font-family="Helvetica,sans-Serif" font-size="10.00" fill="#000000"> </text>
</a>
</g>
</g>
<!-- Node2&#45;&gt;Node1 -->
<g id="edge1" class="edge">
<title>Node2&#45;&gt;Node1</title>
<path fill="none" stroke="#404040" d="M106,-138.4699C106,-114.623 106,-89.6998 106,-69.6689"/>
<polygon fill="none" stroke="#404040" points="106.0001,-69.5784 102,-63.5784 106,-57.5784 110,-63.5784 106.0001,-69.5784"/>
<text text-anchor="middle" x="140" y="-112" font-family="Helvetica,sans-Serif" font-size="10.00" fill="#000000"> +ad_vout</text>
<text text-anchor="middle" x="140" y="-101" font-family="Helvetica,sans-Serif" font-size="10.00" fill="#000000">+ad_vin</text>
<text text-anchor="middle" x="140" y="-90" font-family="Helvetica,sans-Serif" font-size="10.00" fill="#000000">+ad_isns</text>
<text text-anchor="middle" x="140" y="-79" font-family="Helvetica,sans-Serif" font-size="10.00" fill="#000000">+ad_temp</text>
</g>
<!-- Node3 -->
<g id="node3" class="node">
<title>Node3</title>
<g id="a_node3"><a xlink:href="a02425.html" target="_top" xlink:title="ADC input signal scaling = (ADCBUF &#45; &lt;offset&gt;) * &lt;factor&gt; &gt;&gt; 2^&lt;scaler&gt;">
<polygon fill="#ffffff" stroke="#000000" points="4,-353.5 4,-432.5 208,-432.5 208,-353.5 4,-353.5"/>
<text text-anchor="middle" x="106" y="-420.5" font-family="Helvetica,sans-Serif" font-size="10.00" fill="#000000">BOOST_ADC_INPUT_SCALING_s</text>
<polyline fill="none" stroke="#000000" points="4,-413.5 208,-413.5 "/>
<text text-anchor="start" x="12" y="-401.5" font-family="Helvetica,sans-Serif" font-size="10.00" fill="#000000">+ factor</text>
<text text-anchor="start" x="12" y="-390.5" font-family="Helvetica,sans-Serif" font-size="10.00" fill="#000000">+ scaler</text>
<text text-anchor="start" x="12" y="-379.5" font-family="Helvetica,sans-Serif" font-size="10.00" fill="#000000">+ offset</text>
<polyline fill="none" stroke="#000000" points="4,-372.5 208,-372.5 "/>
<text text-anchor="middle" x="106" y="-360.5" font-family="Helvetica,sans-Serif" font-size="10.00" fill="#000000"> </text>
</a>
</g>
</g>
<!-- Node3&#45;&gt;Node2 -->
<g id="edge2" class="edge">
<title>Node3&#45;&gt;Node2</title>
<path fill="none" stroke="#404040" d="M106,-353.3394C106,-342.4981 106,-330.2607 106,-317.7259"/>
<polygon fill="none" stroke="#404040" points="106.0001,-317.6528 102,-311.6528 106,-305.6528 110,-311.6527 106.0001,-317.6528"/>
<text text-anchor="middle" x="140" y="-327" font-family="Helvetica,sans-Serif" font-size="10.00" fill="#000000"> +scaling</text>
</g>
</g>
</svg>
