<?xml version="1.0" encoding="UTF-8" standalone="no"?>
<!DOCTYPE svg PUBLIC "-//W3C//DTD SVG 1.1//EN"
 "http://www.w3.org/Graphics/SVG/1.1/DTD/svg11.dtd">
<!-- Generated by graphviz version 2.40.1 (0)
 -->
<!-- Title: PUSH_BUTTON_OBJECT_s Pages: 1 -->
<svg width="175pt" height="292pt"
 viewBox="0.00 0.00 175.00 292.00" xmlns="http://www.w3.org/2000/svg" xmlns:xlink="http://www.w3.org/1999/xlink">
<g id="graph0" class="graph" transform="scale(1 1) rotate(0) translate(4 288)">
<title>PUSH_BUTTON_OBJECT_s</title>
<polygon fill="#ffffff" stroke="transparent" points="-4,4 -4,-288 171,-288 171,4 -4,4"/>
<!-- Node1 -->
<g id="node1" class="node">
<title>Node1</title>
<g id="a_node1"><a xlink:title=" ">
<polygon fill="#bfbfbf" stroke="#000000" points="0,-.5 0,-112.5 167,-112.5 167,-.5 0,-.5"/>
<text text-anchor="middle" x="83.5" y="-100.5" font-family="Helvetica,sans-Serif" font-size="10.00" fill="#000000">PUSH_BUTTON_OBJECT_s</text>
<polyline fill="none" stroke="#000000" points="0,-93.5 167,-93.5 "/>
<text text-anchor="start" x="8" y="-81.5" font-family="Helvetica,sans-Serif" font-size="10.00" fill="#000000">+ debounce_delay</text>
<text text-anchor="start" x="8" y="-70.5" font-family="Helvetica,sans-Serif" font-size="10.00" fill="#000000">+ long_press_delay</text>
<text text-anchor="start" x="8" y="-59.5" font-family="Helvetica,sans-Serif" font-size="10.00" fill="#000000">+ event_btn_down</text>
<text text-anchor="start" x="8" y="-48.5" font-family="Helvetica,sans-Serif" font-size="10.00" fill="#000000">+ event_long_press</text>
<text text-anchor="start" x="8" y="-37.5" font-family="Helvetica,sans-Serif" font-size="10.00" fill="#000000">+ event_pressed</text>
<text text-anchor="start" x="8" y="-26.5" font-family="Helvetica,sans-Serif" font-size="10.00" fill="#000000">+ event_btn_up</text>
<polyline fill="none" stroke="#000000" points="0,-19.5 167,-19.5 "/>
<text text-anchor="middle" x="83.5" y="-7.5" font-family="Helvetica,sans-Serif" font-size="10.00" fill="#000000"> </text>
</a>
</g>
</g>
<!-- Node2 -->
<g id="node2" class="node">
<title>Node2</title>
<g id="a_node2"><a xlink:href="a02521.html" target="_top" xlink:title=" ">
<polygon fill="#ffffff" stroke="#000000" points="0,-160.5 0,-283.5 167,-283.5 167,-160.5 0,-160.5"/>
<text text-anchor="middle" x="83.5" y="-271.5" font-family="Helvetica,sans-Serif" font-size="10.00" fill="#000000">PUSH_BUTTON_STATUS_s</text>
<polyline fill="none" stroke="#000000" points="0,-264.5 167,-264.5 "/>
<text text-anchor="start" x="8" y="-252.5" font-family="Helvetica,sans-Serif" font-size="10.00" fill="#000000">+ sw_event</text>
<text text-anchor="start" x="8" y="-241.5" font-family="Helvetica,sans-Serif" font-size="10.00" fill="#000000">+ unsigned</text>
<text text-anchor="start" x="8" y="-230.5" font-family="Helvetica,sans-Serif" font-size="10.00" fill="#000000">+ long_press</text>
<text text-anchor="start" x="8" y="-219.5" font-family="Helvetica,sans-Serif" font-size="10.00" fill="#000000">+ pressed</text>
<text text-anchor="start" x="8" y="-208.5" font-family="Helvetica,sans-Serif" font-size="10.00" fill="#000000">+ enabled</text>
<text text-anchor="start" x="8" y="-197.5" font-family="Helvetica,sans-Serif" font-size="10.00" fill="#000000">+ value</text>
<text text-anchor="start" x="8" y="-186.5" font-family="Helvetica,sans-Serif" font-size="10.00" fill="#000000">+ @379</text>
<polyline fill="none" stroke="#000000" points="0,-179.5 167,-179.5 "/>
<text text-anchor="middle" x="83.5" y="-167.5" font-family="Helvetica,sans-Serif" font-size="10.00" fill="#000000"> </text>
</a>
</g>
</g>
<!-- Node2&#45;&gt;Node1 -->
<g id="edge1" class="edge">
<title>Node2&#45;&gt;Node1</title>
<path fill="none" stroke="#404040" d="M83.5,-160.3739C83.5,-148.7784 83.5,-136.5899 83.5,-124.8047"/>
<polygon fill="none" stroke="#404040" points="83.5001,-124.7111 79.5,-118.7112 83.5,-112.7111 87.5,-118.7111 83.5001,-124.7111"/>
<text text-anchor="middle" x="114" y="-134" font-family="Helvetica,sans-Serif" font-size="10.00" fill="#000000"> +status</text>
</g>
</g>
</svg>
