<?xml version="1.0" encoding="UTF-8" standalone="no"?>
<!DOCTYPE svg PUBLIC "-//W3C//DTD SVG 1.1//EN"
 "http://www.w3.org/Graphics/SVG/1.1/DTD/svg11.dtd">
<!-- Generated by graphviz version 2.40.1 (0)
 -->
<!-- Title: NPNZ16b_s Pages: 1 -->
<svg width="1962pt" height="507pt"
 viewBox="0.00 0.00 1962.00 507.00" xmlns="http://www.w3.org/2000/svg" xmlns:xlink="http://www.w3.org/1999/xlink">
<g id="graph0" class="graph" transform="scale(1 1) rotate(0) translate(4 503)">
<title>NPNZ16b_s</title>
<polygon fill="#ffffff" stroke="transparent" points="-4,4 -4,-503 1958,-503 1958,4 -4,4"/>
<!-- Node1 -->
<g id="node1" class="node">
<title>Node1</title>
<g id="a_node1"><a xlink:title=" ">
<polygon fill="#bfbfbf" stroke="#000000" points="823.5,-.5 823.5,-57.5 907.5,-57.5 907.5,-.5 823.5,-.5"/>
<text text-anchor="middle" x="865.5" y="-45.5" font-family="Helvetica,sans-Serif" font-size="10.00" fill="#000000">NPNZ16b_s</text>
<polyline fill="none" stroke="#000000" points="823.5,-38.5 907.5,-38.5 "/>
<text text-anchor="middle" x="865.5" y="-26.5" font-family="Helvetica,sans-Serif" font-size="10.00" fill="#000000"> </text>
<polyline fill="none" stroke="#000000" points="823.5,-19.5 907.5,-19.5 "/>
<text text-anchor="middle" x="865.5" y="-7.5" font-family="Helvetica,sans-Serif" font-size="10.00" fill="#000000"> </text>
</a>
</g>
</g>
<!-- Node2 -->
<g id="node2" class="node">
<title>Node2</title>
<g id="a_node2"><a xlink:href="a02489.html" target="_top" xlink:title=" ">
<polygon fill="#ffffff" stroke="#000000" points="0,-171.5 0,-261.5 197,-261.5 197,-171.5 0,-171.5"/>
<text text-anchor="middle" x="98.5" y="-249.5" font-family="Helvetica,sans-Serif" font-size="10.00" fill="#000000">NPNZ_ADC_TRGCTRL_s</text>
<polyline fill="none" stroke="#000000" points="0,-242.5 197,-242.5 "/>
<text text-anchor="start" x="8" y="-230.5" font-family="Helvetica,sans-Serif" font-size="10.00" fill="#000000">+ ptrADCTriggerARegister</text>
<text text-anchor="start" x="8" y="-219.5" font-family="Helvetica,sans-Serif" font-size="10.00" fill="#000000">+ ADCTriggerAOffset</text>
<text text-anchor="start" x="8" y="-208.5" font-family="Helvetica,sans-Serif" font-size="10.00" fill="#000000">+ ptrADCTriggerBRegister</text>
<text text-anchor="start" x="8" y="-197.5" font-family="Helvetica,sans-Serif" font-size="10.00" fill="#000000">+ ADCTriggerBOffset</text>
<polyline fill="none" stroke="#000000" points="0,-190.5 197,-190.5 "/>
<text text-anchor="middle" x="98.5" y="-178.5" font-family="Helvetica,sans-Serif" font-size="10.00" fill="#000000"> </text>
</a>
</g>
</g>
<!-- Node2&#45;&gt;Node1 -->
<g id="edge1" class="edge">
<title>Node2&#45;&gt;Node1</title>
<path fill="none" stroke="#404040" d="M131.9497,-171.4501C151.1395,-148.517 177.0422,-121.9708 205.5,-105 307.4478,-44.2034 672.0996,-32.0401 811.1255,-29.6077"/>
<polygon fill="none" stroke="#404040" points="811.4731,-29.6021 817.4073,-25.5052 823.4715,-29.4071 817.5373,-33.5041 811.4731,-29.6021"/>
<text text-anchor="middle" x="352" y="-79" font-family="Helvetica,sans-Serif" font-size="10.00" fill="#000000"> +ADCTriggerControl</text>
</g>
<!-- Node3 -->
<g id="node3" class="node">
<title>Node3</title>
<g id="a_node3"><a xlink:href="a02501.html" target="_top" xlink:title=" ">
<polygon fill="#ffffff" stroke="#000000" points="215,-171.5 215,-261.5 412,-261.5 412,-171.5 215,-171.5"/>
<text text-anchor="middle" x="313.5" y="-249.5" font-family="Helvetica,sans-Serif" font-size="10.00" fill="#000000">NPNZ_GAIN_CONTROL_s</text>
<polyline fill="none" stroke="#000000" points="215,-242.5 412,-242.5 "/>
<text text-anchor="start" x="223" y="-230.5" font-family="Helvetica,sans-Serif" font-size="10.00" fill="#000000">+ AgcScaler</text>
<text text-anchor="start" x="223" y="-219.5" font-family="Helvetica,sans-Serif" font-size="10.00" fill="#000000">+ AgcFactor</text>
<text text-anchor="start" x="223" y="-208.5" font-family="Helvetica,sans-Serif" font-size="10.00" fill="#000000">+ AgcMedian</text>
<text text-anchor="start" x="223" y="-197.5" font-family="Helvetica,sans-Serif" font-size="10.00" fill="#000000">+ ptrAgcObserverFunction</text>
<polyline fill="none" stroke="#000000" points="215,-190.5 412,-190.5 "/>
<text text-anchor="middle" x="313.5" y="-178.5" font-family="Helvetica,sans-Serif" font-size="10.00" fill="#000000"> </text>
</a>
</g>
</g>
<!-- Node3&#45;&gt;Node1 -->
<g id="edge2" class="edge">
<title>Node3&#45;&gt;Node1</title>
<path fill="none" stroke="#404040" d="M348.9088,-171.3363C368.3674,-148.9326 394.0869,-122.9074 421.5,-105 452.464,-84.773 463.5911,-84.8574 499.5,-76 608.1976,-49.1881 739.0492,-37.08 811.1545,-32.0952"/>
<polygon fill="none" stroke="#404040" points="811.5161,-32.0712 817.2367,-27.6809 823.4896,-31.2728 817.769,-35.6631 811.5161,-32.0712"/>
<text text-anchor="middle" x="548.5" y="-79" font-family="Helvetica,sans-Serif" font-size="10.00" fill="#000000"> +GainControl</text>
</g>
<!-- Node4 -->
<g id="node4" class="node">
<title>Node4</title>
<g id="a_node4"><a xlink:href="a02485.html" target="_top" xlink:title=" ">
<polygon fill="#ffffff" stroke="#000000" points="430.5,-171.5 430.5,-261.5 552.5,-261.5 552.5,-171.5 430.5,-171.5"/>
<text text-anchor="middle" x="491.5" y="-249.5" font-family="Helvetica,sans-Serif" font-size="10.00" fill="#000000">NPNZ_LIMITS_s</text>
<polyline fill="none" stroke="#000000" points="430.5,-242.5 552.5,-242.5 "/>
<text text-anchor="start" x="438.5" y="-230.5" font-family="Helvetica,sans-Serif" font-size="10.00" fill="#000000">+ MinOutput</text>
<text text-anchor="start" x="438.5" y="-219.5" font-family="Helvetica,sans-Serif" font-size="10.00" fill="#000000">+ MaxOutput</text>
<text text-anchor="start" x="438.5" y="-208.5" font-family="Helvetica,sans-Serif" font-size="10.00" fill="#000000">+ AltMinOutput</text>
<text text-anchor="start" x="438.5" y="-197.5" font-family="Helvetica,sans-Serif" font-size="10.00" fill="#000000">+ AltMaxOutput</text>
<polyline fill="none" stroke="#000000" points="430.5,-190.5 552.5,-190.5 "/>
<text text-anchor="middle" x="491.5" y="-178.5" font-family="Helvetica,sans-Serif" font-size="10.00" fill="#000000"> </text>
</a>
</g>
</g>
<!-- Node4&#45;&gt;Node1 -->
<g id="edge3" class="edge">
<title>Node4&#45;&gt;Node1</title>
<path fill="none" stroke="#404040" d="M509.842,-171.4113C521.4185,-148.3221 538.5588,-121.642 561.5,-105 601.0758,-76.2911 734.9426,-50.4303 811.1825,-37.571"/>
<polygon fill="none" stroke="#404040" points="811.5161,-37.5156 816.7782,-32.585 823.3534,-35.546 818.0912,-40.4765 811.5161,-37.5156"/>
<text text-anchor="middle" x="660" y="-79" font-family="Helvetica,sans-Serif" font-size="10.00" fill="#000000"> +Limits</text>
</g>
<!-- Node5 -->
<g id="node5" class="node">
<title>Node5</title>
<g id="a_node5"><a xlink:href="a02505.html" target="_top" xlink:title=" ">
<polygon fill="#ffffff" stroke="#000000" points="571,-149.5 571,-283.5 760,-283.5 760,-149.5 571,-149.5"/>
<text text-anchor="middle" x="665.5" y="-271.5" font-family="Helvetica,sans-Serif" font-size="10.00" fill="#000000">NPNZ_USER_DATA_BUFFER_s</text>
<polyline fill="none" stroke="#000000" points="571,-264.5 760,-264.5 "/>
<text text-anchor="start" x="579" y="-252.5" font-family="Helvetica,sans-Serif" font-size="10.00" fill="#000000">+ usrParam0</text>
<text text-anchor="start" x="579" y="-241.5" font-family="Helvetica,sans-Serif" font-size="10.00" fill="#000000">+ usrParam1</text>
<text text-anchor="start" x="579" y="-230.5" font-family="Helvetica,sans-Serif" font-size="10.00" fill="#000000">+ usrParam2</text>
<text text-anchor="start" x="579" y="-219.5" font-family="Helvetica,sans-Serif" font-size="10.00" fill="#000000">+ usrParam3</text>
<text text-anchor="start" x="579" y="-208.5" font-family="Helvetica,sans-Serif" font-size="10.00" fill="#000000">+ usrParam4</text>
<text text-anchor="start" x="579" y="-197.5" font-family="Helvetica,sans-Serif" font-size="10.00" fill="#000000">+ usrParam5</text>
<text text-anchor="start" x="579" y="-186.5" font-family="Helvetica,sans-Serif" font-size="10.00" fill="#000000">+ usrParam6</text>
<text text-anchor="start" x="579" y="-175.5" font-family="Helvetica,sans-Serif" font-size="10.00" fill="#000000">+ usrParam7</text>
<polyline fill="none" stroke="#000000" points="571,-168.5 760,-168.5 "/>
<text text-anchor="middle" x="665.5" y="-156.5" font-family="Helvetica,sans-Serif" font-size="10.00" fill="#000000"> </text>
</a>
</g>
</g>
<!-- Node5&#45;&gt;Node1 -->
<g id="edge4" class="edge">
<title>Node5&#45;&gt;Node1</title>
<path fill="none" stroke="#404040" d="M715.1354,-149.388C735.3325,-124.6356 759.9313,-97.4295 785.5,-76 793.9318,-68.9332 803.5585,-62.2918 813.1426,-56.3519"/>
<polygon fill="none" stroke="#404040" points="813.1605,-56.3412 816.2649,-49.8325 823.4669,-50.1948 820.3625,-56.7035 813.1605,-56.3412"/>
<text text-anchor="middle" x="823.5" y="-79" font-family="Helvetica,sans-Serif" font-size="10.00" fill="#000000"> +Advanced</text>
</g>
<!-- Node6 -->
<g id="node6" class="node">
<title>Node6</title>
<g id="a_node6"><a xlink:href="a02477.html" target="_top" xlink:title=" ">
<polygon fill="#ffffff" stroke="#000000" points="778.5,-188 778.5,-245 952.5,-245 952.5,-188 778.5,-188"/>
<text text-anchor="middle" x="865.5" y="-233" font-family="Helvetica,sans-Serif" font-size="10.00" fill="#000000">NPNZ_PORTS_s</text>
<polyline fill="none" stroke="#000000" points="778.5,-226 952.5,-226 "/>
<text text-anchor="start" x="786.5" y="-214" font-family="Helvetica,sans-Serif" font-size="10.00" fill="#000000">+ ptrControlReference</text>
<polyline fill="none" stroke="#000000" points="778.5,-207 952.5,-207 "/>
<text text-anchor="middle" x="865.5" y="-195" font-family="Helvetica,sans-Serif" font-size="10.00" fill="#000000"> </text>
</a>
</g>
</g>
<!-- Node6&#45;&gt;Node1 -->
<g id="edge5" class="edge">
<title>Node6&#45;&gt;Node1</title>
<path fill="none" stroke="#404040" d="M865.5,-187.614C865.5,-156.1416 865.5,-105.5399 865.5,-69.9717"/>
<polygon fill="none" stroke="#404040" points="865.5001,-69.6111 861.5,-63.6111 865.5,-57.6111 869.5,-63.6111 865.5001,-69.6111"/>
<text text-anchor="middle" x="892" y="-79" font-family="Helvetica,sans-Serif" font-size="10.00" fill="#000000"> +Ports</text>
</g>
<!-- Node7 -->
<g id="node7" class="node">
<title>Node7</title>
<g id="a_node7"><a xlink:href="a02473.html" target="_top" xlink:title=" ">
<polygon fill="#ffffff" stroke="#000000" points="812,-408.5 812,-498.5 919,-498.5 919,-408.5 812,-408.5"/>
<text text-anchor="middle" x="865.5" y="-486.5" font-family="Helvetica,sans-Serif" font-size="10.00" fill="#000000">NPNZ_PORT_s</text>
<polyline fill="none" stroke="#000000" points="812,-479.5 919,-479.5 "/>
<text text-anchor="start" x="820" y="-467.5" font-family="Helvetica,sans-Serif" font-size="10.00" fill="#000000">+ ptrAddress</text>
<text text-anchor="start" x="820" y="-456.5" font-family="Helvetica,sans-Serif" font-size="10.00" fill="#000000">+ NormScaler</text>
<text text-anchor="start" x="820" y="-445.5" font-family="Helvetica,sans-Serif" font-size="10.00" fill="#000000">+ NormFactor</text>
<text text-anchor="start" x="820" y="-434.5" font-family="Helvetica,sans-Serif" font-size="10.00" fill="#000000">+ Offset</text>
<polyline fill="none" stroke="#000000" points="812,-427.5 919,-427.5 "/>
<text text-anchor="middle" x="865.5" y="-415.5" font-family="Helvetica,sans-Serif" font-size="10.00" fill="#000000"> </text>
</a>
</g>
</g>
<!-- Node7&#45;&gt;Node6 -->
<g id="edge6" class="edge">
<title>Node7&#45;&gt;Node6</title>
<path fill="none" stroke="#404040" d="M865.5,-408.3643C865.5,-364.7912 865.5,-299.3997 865.5,-257.3372"/>
<polygon fill="none" stroke="#404040" points="865.5001,-257.0822 861.5,-251.0822 865.5,-245.0822 869.5,-251.0822 865.5001,-257.0822"/>
<text text-anchor="middle" x="903.5" y="-382" font-family="Helvetica,sans-Serif" font-size="10.00" fill="#000000"> +Source</text>
<text text-anchor="middle" x="903.5" y="-371" font-family="Helvetica,sans-Serif" font-size="10.00" fill="#000000">+Target</text>
<text text-anchor="middle" x="903.5" y="-360" font-family="Helvetica,sans-Serif" font-size="10.00" fill="#000000">+AltSource</text>
<text text-anchor="middle" x="903.5" y="-349" font-family="Helvetica,sans-Serif" font-size="10.00" fill="#000000">+AltTarget</text>
</g>
<!-- Node8 -->
<g id="node8" class="node">
<title>Node8</title>
<g id="a_node8"><a xlink:href="a02481.html" target="_top" xlink:title=" ">
<polygon fill="#ffffff" stroke="#000000" points="970.5,-116.5 970.5,-316.5 1174.5,-316.5 1174.5,-116.5 970.5,-116.5"/>
<text text-anchor="middle" x="1072.5" y="-304.5" font-family="Helvetica,sans-Serif" font-size="10.00" fill="#000000">NPNZ_FILTER_PARAMS_s</text>
<polyline fill="none" stroke="#000000" points="970.5,-297.5 1174.5,-297.5 "/>
<text text-anchor="start" x="978.5" y="-285.5" font-family="Helvetica,sans-Serif" font-size="10.00" fill="#000000">+ ptrACoefficients</text>
<text text-anchor="start" x="978.5" y="-274.5" font-family="Helvetica,sans-Serif" font-size="10.00" fill="#000000">+ ptrBCoefficients</text>
<text text-anchor="start" x="978.5" y="-263.5" font-family="Helvetica,sans-Serif" font-size="10.00" fill="#000000">+ ptrControlHistory</text>
<text text-anchor="start" x="978.5" y="-252.5" font-family="Helvetica,sans-Serif" font-size="10.00" fill="#000000">+ ptrErrorHistory</text>
<text text-anchor="start" x="978.5" y="-241.5" font-family="Helvetica,sans-Serif" font-size="10.00" fill="#000000">+ ACoefficientsArraySize</text>
<text text-anchor="start" x="978.5" y="-230.5" font-family="Helvetica,sans-Serif" font-size="10.00" fill="#000000">+ BCoefficientsArraySize</text>
<text text-anchor="start" x="978.5" y="-219.5" font-family="Helvetica,sans-Serif" font-size="10.00" fill="#000000">+ ControlHistoryArraySize</text>
<text text-anchor="start" x="978.5" y="-208.5" font-family="Helvetica,sans-Serif" font-size="10.00" fill="#000000">+ ErrorHistoryArraySize</text>
<text text-anchor="start" x="978.5" y="-197.5" font-family="Helvetica,sans-Serif" font-size="10.00" fill="#000000">+ normPreShift</text>
<text text-anchor="start" x="978.5" y="-186.5" font-family="Helvetica,sans-Serif" font-size="10.00" fill="#000000">+ normPostShiftA</text>
<text text-anchor="start" x="978.5" y="-175.5" font-family="Helvetica,sans-Serif" font-size="10.00" fill="#000000">+ normPostShiftB</text>
<text text-anchor="start" x="978.5" y="-164.5" font-family="Helvetica,sans-Serif" font-size="10.00" fill="#000000">+ normPostScaler</text>
<text text-anchor="start" x="978.5" y="-153.5" font-family="Helvetica,sans-Serif" font-size="10.00" fill="#000000">+ PTermScaler</text>
<text text-anchor="start" x="978.5" y="-142.5" font-family="Helvetica,sans-Serif" font-size="10.00" fill="#000000">+ PTermFactor</text>
<polyline fill="none" stroke="#000000" points="970.5,-135.5 1174.5,-135.5 "/>
<text text-anchor="middle" x="1072.5" y="-123.5" font-family="Helvetica,sans-Serif" font-size="10.00" fill="#000000"> </text>
</a>
</g>
</g>
<!-- Node8&#45;&gt;Node1 -->
<g id="edge7" class="edge">
<title>Node8&#45;&gt;Node1</title>
<path fill="none" stroke="#404040" d="M974.1275,-116.4962C969.898,-112.5748 965.6777,-108.7285 961.5,-105 946.2649,-91.403 928.9459,-77.309 913.2523,-65.0055"/>
<polygon fill="none" stroke="#404040" points="913.1973,-64.9627 906.0053,-64.4375 903.724,-57.5967 910.916,-58.122 913.1973,-64.9627"/>
<text text-anchor="middle" x="970" y="-79" font-family="Helvetica,sans-Serif" font-size="10.00" fill="#000000"> +Filter</text>
</g>
<!-- Node9 -->
<g id="node9" class="node">
<title>Node9</title>
<g id="a_node9"><a xlink:href="a02493.html" target="_top" xlink:title=" ">
<polygon fill="#ffffff" stroke="#000000" points="1192.5,-171.5 1192.5,-261.5 1456.5,-261.5 1456.5,-171.5 1192.5,-171.5"/>
<text text-anchor="middle" x="1324.5" y="-249.5" font-family="Helvetica,sans-Serif" font-size="10.00" fill="#000000">NPNZ_DATA_PROVIDERS_s</text>
<polyline fill="none" stroke="#000000" points="1192.5,-242.5 1456.5,-242.5 "/>
<text text-anchor="start" x="1200.5" y="-230.5" font-family="Helvetica,sans-Serif" font-size="10.00" fill="#000000">+ ptrDProvControlInput</text>
<text text-anchor="start" x="1200.5" y="-219.5" font-family="Helvetica,sans-Serif" font-size="10.00" fill="#000000">+ ptrDProvControlInputCompensated</text>
<text text-anchor="start" x="1200.5" y="-208.5" font-family="Helvetica,sans-Serif" font-size="10.00" fill="#000000">+ ptrDProvControlError</text>
<text text-anchor="start" x="1200.5" y="-197.5" font-family="Helvetica,sans-Serif" font-size="10.00" fill="#000000">+ ptrDProvControlOutput</text>
<polyline fill="none" stroke="#000000" points="1192.5,-190.5 1456.5,-190.5 "/>
<text text-anchor="middle" x="1324.5" y="-178.5" font-family="Helvetica,sans-Serif" font-size="10.00" fill="#000000"> </text>
</a>
</g>
</g>
<!-- Node9&#45;&gt;Node1 -->
<g id="edge8" class="edge">
<title>Node9&#45;&gt;Node1</title>
<path fill="none" stroke="#404040" d="M1278.15,-171.3356C1252.2082,-148.3695 1218.1741,-121.8284 1183.5,-105 1096.6658,-62.8567 984.8871,-43.1679 919.6119,-34.6973"/>
<polygon fill="none" stroke="#404040" points="919.4972,-34.6831 913.0479,-37.9089 907.5897,-33.1963 914.039,-29.9705 919.4972,-34.6831"/>
<text text-anchor="middle" x="1190" y="-79" font-family="Helvetica,sans-Serif" font-size="10.00" fill="#000000"> +DataProviders</text>
</g>
<!-- Node10 -->
<g id="node10" class="node">
<title>Node10</title>
<g id="a_node10"><a xlink:href="a02497.html" target="_top" xlink:title=" ">
<polygon fill="#ffffff" stroke="#000000" points="1474.5,-105.5 1474.5,-327.5 1738.5,-327.5 1738.5,-105.5 1474.5,-105.5"/>
<text text-anchor="middle" x="1606.5" y="-315.5" font-family="Helvetica,sans-Serif" font-size="10.00" fill="#000000">NPNZ_EXTENSION_HOOKS_s</text>
<polyline fill="none" stroke="#000000" points="1474.5,-308.5 1738.5,-308.5 "/>
<text text-anchor="start" x="1482.5" y="-296.5" font-family="Helvetica,sans-Serif" font-size="10.00" fill="#000000">+ ptrExtHookStartFunction</text>
<text text-anchor="start" x="1482.5" y="-285.5" font-family="Helvetica,sans-Serif" font-size="10.00" fill="#000000">+ ExtHookStartFunctionParam</text>
<text text-anchor="start" x="1482.5" y="-274.5" font-family="Helvetica,sans-Serif" font-size="10.00" fill="#000000">+ ptrExtHookSourceFunction</text>
<text text-anchor="start" x="1482.5" y="-263.5" font-family="Helvetica,sans-Serif" font-size="10.00" fill="#000000">+ ExtHookSourceFunctionParam</text>
<text text-anchor="start" x="1482.5" y="-252.5" font-family="Helvetica,sans-Serif" font-size="10.00" fill="#000000">+ ptrExtHookPreAntiWindupFunction</text>
<text text-anchor="start" x="1482.5" y="-241.5" font-family="Helvetica,sans-Serif" font-size="10.00" fill="#000000">+ ExtHookPreAntiWindupFunction</text>
<text text-anchor="start" x="1482.5" y="-230.5" font-family="Helvetica,sans-Serif" font-size="10.00" fill="#000000">Param</text>
<text text-anchor="start" x="1482.5" y="-219.5" font-family="Helvetica,sans-Serif" font-size="10.00" fill="#000000">+ ptrExtHookPreTargetWrite</text>
<text text-anchor="start" x="1482.5" y="-208.5" font-family="Helvetica,sans-Serif" font-size="10.00" fill="#000000">Function</text>
<text text-anchor="start" x="1482.5" y="-197.5" font-family="Helvetica,sans-Serif" font-size="10.00" fill="#000000">+ ExtHookPreTargetWriteFunction</text>
<text text-anchor="start" x="1482.5" y="-186.5" font-family="Helvetica,sans-Serif" font-size="10.00" fill="#000000">Param</text>
<text text-anchor="start" x="1482.5" y="-175.5" font-family="Helvetica,sans-Serif" font-size="10.00" fill="#000000">+ ptrExtHookEndOfLoopFunction</text>
<text text-anchor="start" x="1482.5" y="-164.5" font-family="Helvetica,sans-Serif" font-size="10.00" fill="#000000">+ ExtHookEndOfLoopFunction</text>
<text text-anchor="start" x="1482.5" y="-153.5" font-family="Helvetica,sans-Serif" font-size="10.00" fill="#000000">Param</text>
<text text-anchor="start" x="1482.5" y="-142.5" font-family="Helvetica,sans-Serif" font-size="10.00" fill="#000000">+ ptrExtHookExitFunction</text>
<text text-anchor="start" x="1482.5" y="-131.5" font-family="Helvetica,sans-Serif" font-size="10.00" fill="#000000">+ ExtHookExitFunctionParam</text>
<polyline fill="none" stroke="#000000" points="1474.5,-124.5 1738.5,-124.5 "/>
<text text-anchor="middle" x="1606.5" y="-112.5" font-family="Helvetica,sans-Serif" font-size="10.00" fill="#000000"> </text>
</a>
</g>
</g>
<!-- Node10&#45;&gt;Node1 -->
<g id="edge9" class="edge">
<title>Node10&#45;&gt;Node1</title>
<path fill="none" stroke="#404040" d="M1474.0861,-108.8764C1471.2358,-107.5145 1468.3725,-106.2199 1465.5,-105 1367.5263,-63.3943 1048.3947,-40.0205 919.8667,-32.0966"/>
<polygon fill="none" stroke="#404040" points="919.654,-32.0838 913.4226,-35.7127 907.6761,-31.3563 913.9076,-27.7274 919.654,-32.0838"/>
<text text-anchor="middle" x="1455" y="-79" font-family="Helvetica,sans-Serif" font-size="10.00" fill="#000000"> +ExtensionHooks</text>
</g>
<!-- Node11 -->
<g id="node11" class="node">
<title>Node11</title>
<g id="a_node11"><a xlink:href="a02453.html" target="_top" xlink:title=" ">
<polygon fill="#ffffff" stroke="#000000" points="1757,-144 1757,-289 1954,-289 1954,-144 1757,-144"/>
<text text-anchor="middle" x="1855.5" y="-277" font-family="Helvetica,sans-Serif" font-size="10.00" fill="#000000">NPNZ_STATUS_s</text>
<polyline fill="none" stroke="#000000" points="1757,-270 1954,-270 "/>
<text text-anchor="start" x="1765" y="-258" font-family="Helvetica,sans-Serif" font-size="10.00" fill="#000000">+ lower_saturation_event</text>
<text text-anchor="start" x="1765" y="-247" font-family="Helvetica,sans-Serif" font-size="10.00" fill="#000000">+ upper_saturation_event</text>
<text text-anchor="start" x="1765" y="-236" font-family="Helvetica,sans-Serif" font-size="10.00" fill="#000000">+ unsigned</text>
<text text-anchor="start" x="1765" y="-225" font-family="Helvetica,sans-Serif" font-size="10.00" fill="#000000">+ agc_enabled</text>
<text text-anchor="start" x="1765" y="-214" font-family="Helvetica,sans-Serif" font-size="10.00" fill="#000000">+ swap_target</text>
<text text-anchor="start" x="1765" y="-203" font-family="Helvetica,sans-Serif" font-size="10.00" fill="#000000">+ swap_source</text>
<text text-anchor="start" x="1765" y="-192" font-family="Helvetica,sans-Serif" font-size="10.00" fill="#000000">+ invert_input</text>
<text text-anchor="start" x="1765" y="-181" font-family="Helvetica,sans-Serif" font-size="10.00" fill="#000000">+ enabled</text>
<text text-anchor="start" x="1765" y="-170" font-family="Helvetica,sans-Serif" font-size="10.00" fill="#000000">+ value</text>
<polyline fill="none" stroke="#000000" points="1757,-163 1954,-163 "/>
<text text-anchor="middle" x="1855.5" y="-151" font-family="Helvetica,sans-Serif" font-size="10.00" fill="#000000"> </text>
</a>
</g>
</g>
<!-- Node11&#45;&gt;Node1 -->
<g id="edge10" class="edge">
<title>Node11&#45;&gt;Node1</title>
<path fill="none" stroke="#404040" d="M1799.3124,-143.9634C1784.1134,-128.7917 1766.5398,-114.5266 1747.5,-105 1673.5129,-67.9805 1100.0377,-39.4699 919.6378,-31.3432"/>
<polygon fill="none" stroke="#404040" points="919.5761,-31.3406 913.4034,-35.0685 907.5881,-30.8045 913.7608,-27.0765 919.5761,-31.3406"/>
<text text-anchor="middle" x="1687" y="-79" font-family="Helvetica,sans-Serif" font-size="10.00" fill="#000000"> +status</text>
</g>
</g>
</svg>
