<?xml version="1.0" encoding="UTF-8" standalone="no"?>
<!DOCTYPE svg PUBLIC "-//W3C//DTD SVG 1.1//EN"
 "http://www.w3.org/Graphics/SVG/1.1/DTD/svg11.dtd">
<!-- Generated by graphviz version 2.40.1 (0)
 -->
<!-- Title: sfw_main Pages: 1 -->
<svg width="1277pt" height="802pt"
 viewBox="0.00 0.00 1276.77 801.78" xmlns="http://www.w3.org/2000/svg" xmlns:xlink="http://www.w3.org/1999/xlink">
<g id="graph0" class="graph" transform="scale(1 1) rotate(0) translate(14.4 787.3802)">
<title>sfw_main</title>
<g id="clust1" class="cluster">
<title>cluster_0</title>
<polygon fill="transparent" stroke="#d3d3d3" points="497.4948,-151 497.4948,-704.9802 736.4948,-704.9802 736.4948,-151 497.4948,-151"/>
<text text-anchor="middle" x="682.9948" y="-692.1802" font-family="Handlee, Consolas, 'Courier New', Courier, Sans-Serif" font-size="11.00" fill="#000000">Main Program</text>
</g>
<g id="clust2" class="cluster">
<title>cluster_01</title>
<polygon fill="#fffff0" stroke="#c0c0c0" points="505.4948,-159 505.4948,-623.7254 728.4948,-623.7254 728.4948,-159 505.4948,-159"/>
<text text-anchor="middle" x="686.4948" y="-610.9254" font-family="Handlee, Consolas, 'Courier New', Courier, Sans-Serif" font-size="11.00" fill="#000000">Main Loop</text>
</g>
<g id="clust3" class="cluster">
<title>cluster_1</title>
<polygon fill="#fffff0" stroke="#ffa500" points="213.4948,-97 213.4948,-465.6127 391.4948,-465.6127 391.4948,-97 213.4948,-97"/>
<text text-anchor="middle" x="302.4948" y="-128.2" font-family="Handlee, Consolas, 'Courier New', Courier, Sans-Serif" font-size="11.00" fill="#000000">OS Timer ISR</text>
<text text-anchor="middle" x="302.4948" y="-116.2" font-family="Handlee, Consolas, 'Courier New', Courier, Sans-Serif" font-size="11.00" fill="#000000">High Priority (HP)</text>
<text text-anchor="middle" x="302.4948" y="-104.2" font-family="Handlee, Consolas, 'Courier New', Courier, Sans-Serif" font-size="11.00" fill="#000000">Tasks</text>
</g>
<g id="clust4" class="cluster">
<title>cluster_2</title>
<polygon fill="transparent" stroke="transparent" points="744.4948,-253.5 744.4948,-764.9802 1175.4948,-764.9802 1175.4948,-253.5 744.4948,-253.5"/>
<text text-anchor="middle" x="959.9948" y="-264.3" font-family="Handlee, Consolas, 'Courier New', Courier, Sans-Serif" font-size="24.00" fill="#000000"> &#160;&#160;&#160;&#160;</text>
</g>
<g id="clust5" class="cluster">
<title>cluster_21</title>
<polygon fill="transparent" stroke="transparent" points="752.4948,-538.6127 752.4948,-756.9802 1167.4948,-756.9802 1167.4948,-538.6127 752.4948,-538.6127"/>
</g>
<g id="clust6" class="cluster">
<title>cluster_20</title>
<polygon fill="#fffff0" stroke="#ffa500" points="862.4948,-295.5 862.4948,-525.5 1060.4948,-525.5 1060.4948,-295.5 862.4948,-295.5"/>
<text text-anchor="middle" x="961.4948" y="-314.7" font-family="Handlee, Consolas, 'Courier New', Courier, Sans-Serif" font-size="11.00" fill="#000000">High Speed</text>
<text text-anchor="middle" x="961.4948" y="-302.7" font-family="Handlee, Consolas, 'Courier New', Courier, Sans-Serif" font-size="11.00" fill="#000000">Control Loop ISR</text>
</g>
<!-- a0 -->
<g id="node1" class="node">
<title>a0</title>
<ellipse fill="#c1ffc1" stroke="#000000" cx="603.4948" cy="-654.3528" rx="86.0347" ry="22.7556"/>
<text text-anchor="middle" x="603.4948" y="-657.5528" font-family="Handlee, Consolas, 'Courier New', Courier, Sans-Serif" font-size="11.00" fill="#000000">Device</text>
<text text-anchor="middle" x="603.4948" y="-645.5528" font-family="Handlee, Consolas, 'Courier New', Courier, Sans-Serif" font-size="11.00" fill="#000000">Initialization</text>
</g>
<!-- b0 -->
<g id="node2" class="node">
<title>b0</title>
<ellipse fill="#ffe4e1" stroke="#000000" cx="615.4948" cy="-564.6127" rx="101.6471" ry="31.2258"/>
<text text-anchor="middle" x="615.4948" y="-573.8127" font-family="Handlee, Consolas, 'Courier New', Courier, Sans-Serif" font-size="11.00" fill="#000000">Wait for</text>
<text text-anchor="middle" x="615.4948" y="-561.8127" font-family="Handlee, Consolas, 'Courier New', Courier, Sans-Serif" font-size="11.00" fill="#000000">Low Priority Task</text>
<text text-anchor="middle" x="615.4948" y="-549.8127" font-family="Handlee, Consolas, 'Courier New', Courier, Sans-Serif" font-size="11.00" fill="#000000">Trigger</text>
</g>
<!-- a0&#45;&gt;b0 -->
<g id="edge11" class="edge">
<title>a0:s&#45;&gt;b0:n</title>
<path fill="none" stroke="#000000" d="M603.4948,-631.7254C603.4948,-618.9085 610.3861,-614.4912 613.7241,-605.7429"/>
<polygon fill="#000000" stroke="#000000" points="617.2207,-606.066 615.4948,-595.6127 610.3252,-604.8607 617.2207,-606.066"/>
</g>
<!-- timer -->
<g id="node15" class="node">
<title>timer</title>
<polygon fill="#1e90ff" stroke="#000000" points="340.4948,-582.6127 249.5049,-564.6127 340.4948,-546.6127 431.4847,-564.6127 340.4948,-582.6127"/>
<text text-anchor="middle" x="340.4948" y="-561.8127" font-family="Handlee, Consolas, 'Courier New', Courier, Sans-Serif" font-size="11.00" fill="#ffffff">OS Timer IRQ</text>
</g>
<!-- a0&#45;&gt;timer -->
<g id="edge10" class="edge">
<title>a0:w&#45;&gt;timer:ne</title>
<path fill="none" stroke="#000000" d="M516.4948,-654.3528C441.1487,-654.3528 413.7497,-637.0612 362.8416,-586.9091"/>
<polygon fill="#000000" stroke="#000000" points="365.0565,-584.176 355.4948,-579.6127 360.1238,-589.1428 365.0565,-584.176"/>
</g>
<!-- b1 -->
<g id="node3" class="node">
<title>b1</title>
<ellipse fill="#ffec8b" stroke="#000000" cx="639.4948" cy="-426.5" rx="80.7205" ry="31.2258"/>
<text text-anchor="middle" x="639.4948" y="-435.7" font-family="Handlee, Consolas, 'Courier New', Courier, Sans-Serif" font-size="11.00" fill="#000000">Low</text>
<text text-anchor="middle" x="639.4948" y="-423.7" font-family="Handlee, Consolas, 'Courier New', Courier, Sans-Serif" font-size="11.00" fill="#000000">Priority Task</text>
<text text-anchor="middle" x="639.4948" y="-411.7" font-family="Handlee, Consolas, 'Courier New', Courier, Sans-Serif" font-size="11.00" fill="#000000">Execution</text>
</g>
<!-- b0&#45;&gt;b1 -->
<g id="edge1" class="edge">
<title>b0&#45;&gt;b1</title>
<path fill="none" stroke="#000000" d="M620.9408,-533.2728C624.3162,-513.8484 628.6896,-488.6808 632.3425,-467.6592"/>
<polygon fill="#000000" stroke="#000000" points="635.8066,-468.1675 634.0704,-457.7159 628.9099,-466.969 635.8066,-468.1675"/>
</g>
<!-- b2 -->
<g id="node4" class="node">
<title>b2</title>
<ellipse fill="#ffffff" stroke="#000000" cx="607.4948" cy="-185" rx="68.6051" ry="18"/>
<text text-anchor="middle" x="607.4948" y="-182.2" font-family="Handlee, Consolas, 'Courier New', Courier, Sans-Serif" font-size="11.00" fill="#000000">Exit Program?</text>
</g>
<!-- b1&#45;&gt;b2 -->
<g id="edge2" class="edge">
<title>b1&#45;&gt;b2</title>
<path fill="none" stroke="#000000" d="M635.3769,-395.4225C629.1103,-348.1293 617.2726,-258.7922 611.2374,-213.2447"/>
<polygon fill="#000000" stroke="#000000" points="614.6869,-212.6324 609.9036,-203.1788 607.7476,-213.5519 614.6869,-212.6324"/>
</g>
<!-- lp_task -->
<g id="node14" class="node">
<title>lp_task</title>
<polygon fill="#fffff0" stroke="#000000" points="744.4948,-125 744.4948,-245 896.4948,-245 896.4948,-125 744.4948,-125"/>
<text text-anchor="middle" x="820.4948" y="-232.2" font-family="Handlee, Consolas, 'Courier New', Courier, Sans-Serif" font-size="11.00" fill="#000000">Low Priority Tasks</text>
<polyline fill="none" stroke="#000000" points="744.4948,-225 896.4948,-225 "/>
<text text-anchor="middle" x="820.4948" y="-212.2" font-family="Handlee, Consolas, 'Courier New', Courier, Sans-Serif" font-size="11.00" fill="#000000">user taks #1</text>
<polyline fill="none" stroke="#000000" points="744.4948,-205 896.4948,-205 "/>
<text text-anchor="middle" x="820.4948" y="-192.2" font-family="Handlee, Consolas, 'Courier New', Courier, Sans-Serif" font-size="11.00" fill="#000000">user taks #2</text>
<polyline fill="none" stroke="#000000" points="744.4948,-185 896.4948,-185 "/>
<text text-anchor="middle" x="820.4948" y="-172.2" font-family="Handlee, Consolas, 'Courier New', Courier, Sans-Serif" font-size="11.00" fill="#000000">user taks #3</text>
<polyline fill="none" stroke="#000000" points="744.4948,-165 896.4948,-165 "/>
<text text-anchor="middle" x="820.4948" y="-152.2" font-family="Handlee, Consolas, 'Courier New', Courier, Sans-Serif" font-size="11.00" fill="#000000">...</text>
<polyline fill="none" stroke="#000000" points="744.4948,-145 896.4948,-145 "/>
<text text-anchor="middle" x="820.4948" y="-132.2" font-family="Handlee, Consolas, 'Courier New', Courier, Sans-Serif" font-size="11.00" fill="#000000">user taks #4</text>
</g>
<!-- b1&#45;&gt;lp_task -->
<g id="edge12" class="edge">
<title>b1:e&#45;&gt;lp_task:n</title>
<path fill="none" stroke="#000000" d="M720.4948,-426.5C809.1771,-426.5 819.7925,-343.6121 820.4583,-255.2377"/>
<polygon fill="#000000" stroke="#000000" points="823.959,-255.0125 820.4948,-245 816.959,-254.9874 823.959,-255.0125"/>
</g>
<!-- b2&#45;&gt;b0 -->
<g id="edge17" class="edge">
<title>b2&#45;&gt;b0</title>
<path fill="none" stroke="#000000" d="M582.0343,-201.724C565.9382,-213.919 546.5257,-232.027 537.4948,-253.5 490.6285,-364.9346 473.9991,-422.6291 537.4948,-525.5 539.1359,-528.1588 541.0188,-530.643 543.094,-532.9635"/>
<polygon fill="#000000" stroke="#000000" points="541.1389,-535.9301 550.8181,-540.2386 545.9383,-530.8344 541.1389,-535.9301"/>
</g>
<!-- end -->
<g id="node16" class="node">
<title>end</title>
<polygon fill="none" stroke="#000000" points="626.9948,-89 587.9948,-89 587.9948,-50 626.9948,-50 626.9948,-89"/>
<polyline fill="none" stroke="#000000" points="599.9948,-89 587.9948,-77 "/>
<polyline fill="none" stroke="#000000" points="587.9948,-62 599.9948,-50 "/>
<polyline fill="none" stroke="#000000" points="614.9948,-50 626.9948,-62 "/>
<polyline fill="none" stroke="#000000" points="626.9948,-77 614.9948,-89 "/>
<text text-anchor="middle" x="607.4948" y="-66.7" font-family="Handlee, Consolas, 'Courier New', Courier, Sans-Serif" font-size="11.00" fill="#000000">end</text>
</g>
<!-- b2&#45;&gt;end -->
<g id="edge18" class="edge">
<title>b2&#45;&gt;end</title>
<path fill="none" stroke="#000000" d="M607.4948,-166.9531C607.4948,-148.9335 607.4948,-120.918 607.4948,-99.5412"/>
<polygon fill="#000000" stroke="#000000" points="610.9949,-99.3551 607.4948,-89.3552 603.9949,-99.3552 610.9949,-99.3551"/>
</g>
<!-- c0 -->
<g id="node5" class="node">
<title>c0</title>
<ellipse fill="#ffec8b" stroke="#000000" cx="302.4948" cy="-426.5" rx="80.7205" ry="31.2258"/>
<text text-anchor="middle" x="302.4948" y="-435.7" font-family="Handlee, Consolas, 'Courier New', Courier, Sans-Serif" font-size="11.00" fill="#000000">High</text>
<text text-anchor="middle" x="302.4948" y="-423.7" font-family="Handlee, Consolas, 'Courier New', Courier, Sans-Serif" font-size="11.00" fill="#000000">Priority Task</text>
<text text-anchor="middle" x="302.4948" y="-411.7" font-family="Handlee, Consolas, 'Courier New', Courier, Sans-Serif" font-size="11.00" fill="#000000">Execution</text>
</g>
<!-- c1 -->
<g id="node6" class="node">
<title>c1</title>
<polygon fill="#ffe4e1" stroke="#000000" points="371.4948,-215 225.4948,-215 225.4948,-155 371.4948,-155 383.4948,-185 371.4948,-215"/>
<text text-anchor="middle" x="304.4948" y="-194.2" font-family="Handlee, Consolas, 'Courier New', Courier, Sans-Serif" font-size="11.00" fill="#000000">Set</text>
<text text-anchor="middle" x="304.4948" y="-182.2" font-family="Handlee, Consolas, 'Courier New', Courier, Sans-Serif" font-size="11.00" fill="#000000">Low Priority Task</text>
<text text-anchor="middle" x="304.4948" y="-170.2" font-family="Handlee, Consolas, 'Courier New', Courier, Sans-Serif" font-size="11.00" fill="#000000">Trigger</text>
</g>
<!-- c0&#45;&gt;c1 -->
<g id="edge3" class="edge">
<title>c0&#45;&gt;c1</title>
<path fill="none" stroke="#000000" d="M302.7563,-394.9281C303.1015,-353.2381 303.7121,-279.5039 304.1101,-231.4504"/>
<polygon fill="#000000" stroke="#000000" points="307.6111,-231.3388 304.1941,-221.3102 300.6113,-231.2808 307.6111,-231.3388"/>
</g>
<!-- hp_task -->
<g id="node13" class="node">
<title>hp_task</title>
<polygon fill="#fffff0" stroke="#000000" points="23.9948,-125 23.9948,-245 182.9948,-245 182.9948,-125 23.9948,-125"/>
<text text-anchor="middle" x="103.4948" y="-232.2" font-family="Handlee, Consolas, 'Courier New', Courier, Sans-Serif" font-size="11.00" fill="#000000">High Priority Tasks</text>
<polyline fill="none" stroke="#000000" points="23.9948,-225 182.9948,-225 "/>
<text text-anchor="middle" x="103.4948" y="-212.2" font-family="Handlee, Consolas, 'Courier New', Courier, Sans-Serif" font-size="11.00" fill="#000000">user taks #1</text>
<polyline fill="none" stroke="#000000" points="23.9948,-205 182.9948,-205 "/>
<text text-anchor="middle" x="103.4948" y="-192.2" font-family="Handlee, Consolas, 'Courier New', Courier, Sans-Serif" font-size="11.00" fill="#000000">user taks #2</text>
<polyline fill="none" stroke="#000000" points="23.9948,-185 182.9948,-185 "/>
<text text-anchor="middle" x="103.4948" y="-172.2" font-family="Handlee, Consolas, 'Courier New', Courier, Sans-Serif" font-size="11.00" fill="#000000">user taks #3</text>
<polyline fill="none" stroke="#000000" points="23.9948,-165 182.9948,-165 "/>
<text text-anchor="middle" x="103.4948" y="-152.2" font-family="Handlee, Consolas, 'Courier New', Courier, Sans-Serif" font-size="11.00" fill="#000000">...</text>
<polyline fill="none" stroke="#000000" points="23.9948,-145 182.9948,-145 "/>
<text text-anchor="middle" x="103.4948" y="-132.2" font-family="Handlee, Consolas, 'Courier New', Courier, Sans-Serif" font-size="11.00" fill="#000000">user taks #4</text>
</g>
<!-- c0&#45;&gt;hp_task -->
<g id="edge14" class="edge">
<title>c0&#45;&gt;hp_task:n</title>
<path fill="none" stroke="#000000" d="M246.5326,-404.0073C190.3174,-377.4626 111.0066,-327.598 103.9945,-255.3439"/>
<polygon fill="#000000" stroke="#000000" points="107.4733,-254.8194 103.4948,-245 100.4815,-255.1573 107.4733,-254.8194"/>
</g>
<!-- c1&#45;&gt;b0 -->
<g id="edge16" class="edge">
<title>c1:e&#45;&gt;b0</title>
<path fill="none" stroke="#000000" d="M383.4948,-185C541.4723,-185 373.9455,-413.6356 485.4948,-525.5 491.9189,-531.9423 506.2915,-538.0561 523.2341,-543.4536"/>
<polygon fill="#000000" stroke="#000000" points="522.2917,-546.8252 532.877,-546.3761 524.322,-540.1261 522.2917,-546.8252"/>
</g>
<!-- pwm -->
<g id="node7" class="node">
<title>pwm</title>
<polygon fill="#ffffff" stroke="transparent" points="1159.4948,-675.8528 985.4948,-675.8528 985.4948,-632.8528 1159.4948,-632.8528 1159.4948,-675.8528"/>
<text text-anchor="middle" x="1072.4948" y="-651.5528" font-family="Handlee, Consolas, 'Courier New', Courier, Sans-Serif" font-size="11.00" fill="#ff0000">PWM Signal Generation</text>
</g>
<!-- irq -->
<g id="node10" class="node">
<title>irq</title>
<polygon fill="#1e90ff" stroke="#000000" points="961.4948,-582.6127 877.1112,-564.6127 961.4948,-546.6127 1045.8784,-564.6127 961.4948,-582.6127"/>
<text text-anchor="middle" x="961.4948" y="-561.8127" font-family="Handlee, Consolas, 'Courier New', Courier, Sans-Serif" font-size="11.00" fill="#ffffff">PWM/ADC IRQ</text>
</g>
<!-- pwm&#45;&gt;irq -->
<g id="edge6" class="edge">
<title>pwm:s&#45;&gt;irq:e</title>
<path fill="none" stroke="#000000" d="M1072.4948,-632.3528C1072.4948,-604.0097 1077.3214,-573.1608 1056.5959,-566.1052"/>
<polygon fill="#000000" stroke="#000000" points="1056.899,-562.6121 1046.4948,-564.6127 1055.8757,-569.5369 1056.899,-562.6121"/>
</g>
<!-- adc -->
<g id="node8" class="node">
<title>adc</title>
<polygon fill="#ffffff" stroke="transparent" points="942.4948,-675.8528 760.4948,-675.8528 760.4948,-632.8528 942.4948,-632.8528 942.4948,-675.8528"/>
<text text-anchor="middle" x="851.4948" y="-651.5528" font-family="Handlee, Consolas, 'Courier New', Courier, Sans-Serif" font-size="11.00" fill="#ff0000">ADC Trigger Generation</text>
</g>
<!-- adc&#45;&gt;irq -->
<g id="edge7" class="edge">
<title>adc:s&#45;&gt;irq:w</title>
<path fill="none" stroke="#000000" d="M851.4948,-632.3528C851.4948,-604.1473 846.0167,-573.1942 866.4781,-566.1113"/>
<polygon fill="#000000" stroke="#000000" points="867.1228,-569.5539 876.4948,-564.6127 866.087,-562.6309 867.1228,-569.5539"/>
</g>
<!-- aclk -->
<g id="node9" class="node">
<title>aclk</title>
<polygon fill="#ffffff" stroke="transparent" points="1025.9948,-748.9802 896.9948,-748.9802 896.9948,-712.9802 1025.9948,-712.9802 1025.9948,-748.9802"/>
<text text-anchor="middle" x="961.4948" y="-728.1802" font-family="Handlee, Consolas, 'Courier New', Courier, Sans-Serif" font-size="11.00" fill="#ff0000">Auxiliary Clock</text>
</g>
<!-- aclk&#45;&gt;pwm -->
<g id="edge4" class="edge">
<title>aclk:s&#45;&gt;pwm:n</title>
<path fill="none" stroke="#000000" d="M961.4948,-712.9802C961.4948,-690.5566 1044.218,-698.9099 1066.8377,-684.9019"/>
<polygon fill="#000000" stroke="#000000" points="1069.8951,-686.6238 1072.4948,-676.3528 1064.0575,-682.7608 1069.8951,-686.6238"/>
</g>
<!-- aclk&#45;&gt;adc -->
<g id="edge5" class="edge">
<title>aclk:s&#45;&gt;adc:n</title>
<path fill="none" stroke="#000000" d="M961.4948,-712.9802C961.4948,-665.4779 868.0109,-718.2212 853.404,-686.3823"/>
<polygon fill="#000000" stroke="#000000" points="856.8032,-685.5219 851.4948,-676.3528 849.9267,-686.831 856.8032,-685.5219"/>
</g>
<!-- ctrl -->
<g id="node11" class="node">
<title>ctrl</title>
<polygon fill="#ffec8b" stroke="#000000" points="1052.4948,-517.5 870.4948,-517.5 870.4948,-335.5 1052.4948,-335.5 1052.4948,-517.5"/>
<polyline fill="none" stroke="#000000" points="882.4948,-517.5 870.4948,-505.5 "/>
<polyline fill="none" stroke="#000000" points="870.4948,-347.5 882.4948,-335.5 "/>
<polyline fill="none" stroke="#000000" points="1040.4948,-335.5 1052.4948,-347.5 "/>
<polyline fill="none" stroke="#000000" points="1052.4948,-505.5 1040.4948,-517.5 "/>
<text text-anchor="middle" x="961.4948" y="-435.7" font-family="Handlee, Consolas, 'Courier New', Courier, Sans-Serif" font-size="11.00" fill="#000000">High Speed Control ISR</text>
<text text-anchor="middle" x="961.4948" y="-423.7" font-family="Handlee, Consolas, 'Courier New', Courier, Sans-Serif" font-size="11.00" fill="#000000">Voltage and/or </text>
<text text-anchor="middle" x="961.4948" y="-411.7" font-family="Handlee, Consolas, 'Courier New', Courier, Sans-Serif" font-size="11.00" fill="#000000">Current Regulation</text>
</g>
<!-- irq&#45;&gt;ctrl -->
<g id="edge21" class="edge">
<title>irq:s&#45;&gt;ctrl:n</title>
<path fill="none" stroke="#000000" d="M961.4948,-546.6127C961.4948,-537.9193 961.4948,-533.6066 961.4948,-527.788"/>
<polygon fill="#000000" stroke="#000000" points="964.9949,-527.5 961.4948,-517.5 957.9949,-527.5 964.9949,-527.5"/>
</g>
<!-- start -->
<g id="node12" class="node">
<title>start</title>
<polygon fill="none" stroke="#000000" points="603.4948,-748.9802 557.6493,-730.9802 603.4948,-712.9802 649.3403,-730.9802 603.4948,-748.9802"/>
<polyline fill="none" stroke="#000000" points="568.8192,-735.3658 568.8192,-726.5947 "/>
<polyline fill="none" stroke="#000000" points="592.3249,-717.3658 614.6647,-717.3658 "/>
<polyline fill="none" stroke="#000000" points="638.1704,-726.5947 638.1704,-735.3658 "/>
<polyline fill="none" stroke="#000000" points="614.6647,-744.5947 592.3249,-744.5947 "/>
<text text-anchor="middle" x="603.4948" y="-728.1802" font-family="Handlee, Consolas, 'Courier New', Courier, Sans-Serif" font-size="11.00" fill="#000000">start</text>
</g>
<!-- start&#45;&gt;a0 -->
<g id="edge8" class="edge">
<title>start:s&#45;&gt;a0:n</title>
<path fill="none" stroke="#000000" d="M603.4948,-712.9802C603.4948,-701.1044 603.4948,-695.9088 603.4948,-687.373"/>
<polygon fill="#000000" stroke="#000000" points="606.9949,-687.3528 603.4948,-677.3528 599.9949,-687.3528 606.9949,-687.3528"/>
</g>
<!-- hp_task&#45;&gt;c0 -->
<g id="edge15" class="edge">
<title>hp_task:nw&#45;&gt;c0:w</title>
<path fill="none" stroke="#000000" d="M23.4948,-245C-58.5276,-327.0224 93.0808,-421.0111 211.2539,-426.2689"/>
<polygon fill="#000000" stroke="#000000" points="211.4183,-429.7734 221.4948,-426.5 211.5763,-422.7752 211.4183,-429.7734"/>
</g>
<!-- lp_task&#45;&gt;b1 -->
<g id="edge13" class="edge">
<title>lp_task:nw&#45;&gt;b1</title>
<path fill="none" stroke="#000000" d="M744.4948,-245C703.3548,-286.14 672.6581,-346.6531 655.3997,-386.3153"/>
<polygon fill="#000000" stroke="#000000" points="652.1102,-385.1067 651.4065,-395.6782 658.549,-387.8529 652.1102,-385.1067"/>
</g>
<!-- timer&#45;&gt;c0 -->
<g id="edge20" class="edge">
<title>timer&#45;&gt;c0</title>
<path fill="none" stroke="#000000" d="M335.7589,-547.3999C330.2899,-527.5227 321.1053,-494.1406 313.771,-467.484"/>
<polygon fill="#000000" stroke="#000000" points="317.0898,-466.3523 311.0623,-457.6391 310.3406,-468.2093 317.0898,-466.3523"/>
</g>
<!-- reset -->
<g id="node17" class="node">
<title>reset</title>
<text text-anchor="middle" x="607.4948" y="-15.2" font-family="Handlee, Consolas, 'Courier New', Courier, Sans-Serif" font-size="11.00" fill="#ff0000">Reset CPU</text>
</g>
<!-- end&#45;&gt;reset -->
<g id="edge19" class="edge">
<title>end&#45;&gt;reset</title>
<path fill="none" stroke="#000000" d="M607.4948,-49.736C607.4948,-48.6298 607.4948,-47.5079 607.4948,-46.3792"/>
<polygon fill="#000000" stroke="#000000" points="610.9949,-46.2747 607.4948,-36.2748 603.9949,-46.2748 610.9949,-46.2747"/>
</g>
<!-- clock -->
<g id="node18" class="node">
<title>clock</title>
<text text-anchor="middle" x="340.4948" y="-651.5528" font-family="Handlee, Consolas, 'Courier New', Courier, Sans-Serif" font-size="11.00" fill="#ff0000">System Clock</text>
</g>
<!-- clock&#45;&gt;timer -->
<g id="edge9" class="edge">
<title>clock:s&#45;&gt;timer:n</title>
<path fill="none" stroke="#000000" d="M340.4948,-636.3528C340.4948,-616.2003 340.4948,-608.8005 340.4948,-592.6332"/>
<polygon fill="#000000" stroke="#000000" points="343.9949,-592.6127 340.4948,-582.6127 336.9949,-592.6127 343.9949,-592.6127"/>
</g>
<!-- blank -->
</g>
</svg>
