<?xml version="1.0" encoding="UTF-8" standalone="no"?>
<!DOCTYPE svg PUBLIC "-//W3C//DTD SVG 1.1//EN"
 "http://www.w3.org/Graphics/SVG/1.1/DTD/svg11.dtd">
<!-- Generated by graphviz version 2.44.1 (20200629.0846)
 -->
<!-- Title: Graphical Class Hierarchy Pages: 1 -->
<svg width="770pt" height="332pt"
 viewBox="0.00 0.00 770.00 332.00" xmlns="http://www.w3.org/2000/svg" xmlns:xlink="http://www.w3.org/1999/xlink">
<g id="graph0" class="graph" transform="scale(1 1) rotate(0) translate(4 328)">
<title>Graphical Class Hierarchy</title>
<polygon fill="white" stroke="transparent" points="-4,4 -4,-328 766,-328 766,4 -4,4"/>
<!-- Node0 -->
<g id="node1" class="node">
<title>Node0</title>
<g id="a_node1"><a xlink:href="a01577.html" target="_top" xlink:title="BOOST control &amp; monitoring data structure.">
<polygon fill="white" stroke="black" points="0,-152.5 0,-171.5 126,-171.5 126,-152.5 0,-152.5"/>
<text text-anchor="middle" x="63" y="-159.5" font-family="Helvetica,sans-Serif" font-size="10.00">BOOST_CONVERTER_s</text>
</a>
</g>
</g>
<!-- Node1 -->
<g id="node2" class="node">
<title>Node1</title>
<g id="a_node2"><a xlink:href="a01541.html" target="_top" xlink:title="Publicly accessible data buffer of most recent runtime data values.">
<polygon fill="white" stroke="black" points="178,-304.5 178,-323.5 335,-323.5 335,-304.5 178,-304.5"/>
<text text-anchor="middle" x="256.5" y="-311.5" font-family="Helvetica,sans-Serif" font-size="10.00">BOOST_CONVERTER_DATA_s</text>
</a>
</g>
</g>
<!-- Node0&#45;&gt;Node1 -->
<g id="edge1" class="edge">
<title>Node0&#45;&gt;Node1</title>
<path fill="none" stroke="midnightblue" d="M72.28,-180.77C86.26,-210.15 117.45,-266.56 162,-295 168,-298.83 174.63,-301.91 181.5,-304.39"/>
<polygon fill="midnightblue" stroke="midnightblue" points="75.42,-179.22 68.06,-171.6 69.06,-182.15 75.42,-179.22"/>
</g>
<!-- Node2 -->
<g id="node3" class="node">
<title>Node2</title>
<g id="a_node3"><a xlink:href="a01545.html" target="_top" xlink:title="Generic power controller control settings.">
<polygon fill="white" stroke="black" points="167,-266.5 167,-285.5 346,-285.5 346,-266.5 167,-266.5"/>
<text text-anchor="middle" x="256.5" y="-273.5" font-family="Helvetica,sans-Serif" font-size="10.00">BOOST_CONVERTER_SETTINGS_s</text>
</a>
</g>
</g>
<!-- Node0&#45;&gt;Node2 -->
<g id="edge2" class="edge">
<title>Node0&#45;&gt;Node2</title>
<path fill="none" stroke="midnightblue" d="M77.01,-179.73C94,-201.53 125.89,-237.96 162,-257 169.33,-260.86 177.36,-263.94 185.54,-266.39"/>
<polygon fill="midnightblue" stroke="midnightblue" points="79.69,-177.48 70.86,-171.64 74.12,-181.72 79.69,-177.48"/>
</g>
<!-- Node3 -->
<g id="node4" class="node">
<title>Node3</title>
<g id="a_node4"><a xlink:href="a01537.html" target="_top" xlink:title="Power Converter Startup Timing Settings.">
<polygon fill="white" stroke="black" points="168.5,-228.5 168.5,-247.5 344.5,-247.5 344.5,-228.5 168.5,-228.5"/>
<text text-anchor="middle" x="256.5" y="-235.5" font-family="Helvetica,sans-Serif" font-size="10.00">BOOST_CONVERTER_STARTUP_s</text>
</a>
</g>
</g>
<!-- Node0&#45;&gt;Node3 -->
<g id="edge3" class="edge">
<title>Node0&#45;&gt;Node3</title>
<path fill="none" stroke="midnightblue" d="M85.56,-177.33C104.76,-190.27 134.05,-208.36 162,-219 172.06,-222.83 183.04,-225.94 193.83,-228.45"/>
<polygon fill="midnightblue" stroke="midnightblue" points="87.47,-174.39 77.24,-171.61 83.5,-180.16 87.47,-174.39"/>
</g>
<!-- Node6 -->
<g id="node7" class="node">
<title>Node6</title>
<g id="a_node7"><a xlink:href="a01505.html" target="_top" xlink:title="Generic power controller status word.">
<polygon fill="white" stroke="black" points="172,-190.5 172,-209.5 341,-209.5 341,-190.5 172,-190.5"/>
<text text-anchor="middle" x="256.5" y="-197.5" font-family="Helvetica,sans-Serif" font-size="10.00">BOOST_CONVERTER_STATUS_s</text>
</a>
</g>
</g>
<!-- Node0&#45;&gt;Node6 -->
<g id="edge6" class="edge">
<title>Node0&#45;&gt;Node6</title>
<path fill="none" stroke="midnightblue" d="M122.15,-173.54C149.46,-178.96 181.63,-185.34 207.52,-190.48"/>
<polygon fill="midnightblue" stroke="midnightblue" points="122.81,-170.1 112.32,-171.59 121.45,-176.97 122.81,-170.1"/>
</g>
<!-- Node7 -->
<g id="node8" class="node">
<title>Node7</title>
<g id="a_node8"><a xlink:href="a01565.html" target="_top" xlink:title="Boost converter feedback declarations.">
<polygon fill="white" stroke="black" points="170.5,-152.5 170.5,-171.5 342.5,-171.5 342.5,-152.5 170.5,-152.5"/>
<text text-anchor="middle" x="256.5" y="-159.5" font-family="Helvetica,sans-Serif" font-size="10.00">BOOST_FEEDBACK_SETTINGS_s</text>
</a>
</g>
</g>
<!-- Node0&#45;&gt;Node7 -->
<g id="edge7" class="edge">
<title>Node0&#45;&gt;Node7</title>
<path fill="none" stroke="midnightblue" d="M136.24,-162C147.37,-162 158.94,-162 170.32,-162"/>
<polygon fill="midnightblue" stroke="midnightblue" points="136.17,-158.5 126.17,-162 136.17,-165.5 136.17,-158.5"/>
</g>
<!-- Node10 -->
<g id="node11" class="node">
<title>Node10</title>
<g id="a_node11"><a xlink:href="a01573.html" target="_top" xlink:title="GPIO instance of the converter control GPIO.">
<polygon fill="white" stroke="black" points="185,-114.5 185,-133.5 328,-133.5 328,-114.5 185,-114.5"/>
<text text-anchor="middle" x="256.5" y="-121.5" font-family="Helvetica,sans-Serif" font-size="10.00">BOOST_GPIO_SETTINGS_s</text>
</a>
</g>
</g>
<!-- Node0&#45;&gt;Node10 -->
<g id="edge10" class="edge">
<title>Node0&#45;&gt;Node10</title>
<path fill="none" stroke="midnightblue" d="M122.15,-150.46C149.46,-145.04 181.63,-138.66 207.52,-133.52"/>
<polygon fill="midnightblue" stroke="midnightblue" points="121.45,-147.03 112.32,-152.41 122.81,-153.9 121.45,-147.03"/>
</g>
<!-- Node12 -->
<g id="node13" class="node">
<title>Node12</title>
<g id="a_node13"><a xlink:href="a01549.html" target="_top" xlink:title="User defined settings for control loops;.">
<polygon fill="white" stroke="black" points="183.5,-76.5 183.5,-95.5 329.5,-95.5 329.5,-76.5 183.5,-76.5"/>
<text text-anchor="middle" x="256.5" y="-83.5" font-family="Helvetica,sans-Serif" font-size="10.00">BOOST_LOOP_SETTINGS_s</text>
</a>
</g>
</g>
<!-- Node0&#45;&gt;Node12 -->
<g id="edge12" class="edge">
<title>Node0&#45;&gt;Node12</title>
<path fill="none" stroke="midnightblue" d="M85.56,-146.67C104.76,-133.73 134.05,-115.64 162,-105 172.06,-101.17 183.04,-98.06 193.83,-95.55"/>
<polygon fill="midnightblue" stroke="midnightblue" points="83.5,-143.84 77.24,-152.39 87.47,-149.61 83.5,-143.84"/>
</g>
<!-- Node13 -->
<g id="node14" class="node">
<title>Node13</title>
<g id="a_node14"><a xlink:href="a01517.html" target="_top" xlink:title="data structure for the boost statement ID for sub&#45;operating and operating states">
<polygon fill="white" stroke="black" points="201,-38.5 201,-57.5 312,-57.5 312,-38.5 201,-38.5"/>
<text text-anchor="middle" x="256.5" y="-45.5" font-family="Helvetica,sans-Serif" font-size="10.00">BOOST_STATE_ID_s</text>
</a>
</g>
</g>
<!-- Node0&#45;&gt;Node13 -->
<g id="edge13" class="edge">
<title>Node0&#45;&gt;Node13</title>
<path fill="none" stroke="midnightblue" d="M77.01,-144.27C94,-122.47 125.89,-86.04 162,-67 173.87,-60.74 187.59,-56.54 200.8,-53.73"/>
<polygon fill="midnightblue" stroke="midnightblue" points="74.12,-142.28 70.86,-152.36 79.69,-146.52 74.12,-142.28"/>
</g>
<!-- Node14 -->
<g id="node15" class="node">
<title>Node14</title>
<g id="a_node15"><a xlink:href="a01553.html" target="_top" xlink:title="Switching signal timing settings.">
<polygon fill="white" stroke="black" points="162,-0.5 162,-19.5 351,-19.5 351,-0.5 162,-0.5"/>
<text text-anchor="middle" x="256.5" y="-7.5" font-family="Helvetica,sans-Serif" font-size="10.00">BOOST_SWITCH_NODE_SETTINGS_s</text>
</a>
</g>
</g>
<!-- Node0&#45;&gt;Node14 -->
<g id="edge14" class="edge">
<title>Node0&#45;&gt;Node14</title>
<path fill="none" stroke="midnightblue" d="M72.28,-143.23C86.26,-113.85 117.45,-57.44 162,-29 168,-25.17 174.63,-22.09 181.5,-19.61"/>
<polygon fill="midnightblue" stroke="midnightblue" points="69.06,-141.85 68.06,-152.4 75.42,-144.78 69.06,-141.85"/>
</g>
<!-- Node4 -->
<g id="node5" class="node">
<title>Node4</title>
<g id="a_node5"><a xlink:href="a01529.html" target="_top" xlink:title="Generic power controller startup period settings.">
<polygon fill="white" stroke="black" points="402,-256 402,-286 544,-286 544,-256 402,-256"/>
<text text-anchor="start" x="410" y="-274" font-family="Helvetica,sans-Serif" font-size="10.00">BOOST_STARTUP_PERIOD</text>
<text text-anchor="middle" x="473" y="-263" font-family="Helvetica,sans-Serif" font-size="10.00">_HANDLER_s</text>
</a>
</g>
</g>
<!-- Node3&#45;&gt;Node4 -->
<g id="edge4" class="edge">
<title>Node3&#45;&gt;Node4</title>
<path fill="none" stroke="midnightblue" d="M329.41,-249.06C352.68,-252.64 378.46,-256.61 401.63,-260.17"/>
<polygon fill="midnightblue" stroke="midnightblue" points="329.67,-245.56 319.25,-247.5 328.61,-252.48 329.67,-245.56"/>
</g>
<!-- Node5 -->
<g id="node6" class="node">
<title>Node5</title>
<g id="a_node6"><a xlink:href="a01533.html" target="_top" xlink:title="Boost converter output capacitor voltage charge&#45;up monitor settings.">
<polygon fill="white" stroke="black" points="407,-207 407,-237 539,-237 539,-207 407,-207"/>
<text text-anchor="start" x="415" y="-225" font-family="Helvetica,sans-Serif" font-size="10.00">BOOST_STARTUP_VCAP</text>
<text text-anchor="middle" x="473" y="-214" font-family="Helvetica,sans-Serif" font-size="10.00">_PRECHARGE_s</text>
</a>
</g>
</g>
<!-- Node3&#45;&gt;Node5 -->
<g id="edge5" class="edge">
<title>Node3&#45;&gt;Node5</title>
<path fill="none" stroke="midnightblue" d="M355.03,-230.72C372.6,-229.41 390.52,-228.08 406.88,-226.86"/>
<polygon fill="midnightblue" stroke="midnightblue" points="354.46,-227.26 344.75,-231.49 354.98,-234.24 354.46,-227.26"/>
</g>
<!-- Node8 -->
<g id="node9" class="node">
<title>Node8</title>
<g id="a_node9"><a xlink:href="a01561.html" target="_top" xlink:title="ADC input channel configuration.">
<polygon fill="white" stroke="black" points="387,-152.5 387,-171.5 559,-171.5 559,-152.5 387,-152.5"/>
<text text-anchor="middle" x="473" y="-159.5" font-family="Helvetica,sans-Serif" font-size="10.00">BOOST_ADC_INPUT_SETTINGS_s</text>
</a>
</g>
</g>
<!-- Node7&#45;&gt;Node8 -->
<g id="edge8" class="edge">
<title>Node7&#45;&gt;Node8</title>
<path fill="none" stroke="midnightblue" d="M352.86,-162C364.12,-162 375.56,-162 386.67,-162"/>
<polygon fill="midnightblue" stroke="midnightblue" points="352.58,-158.5 342.58,-162 352.58,-165.5 352.58,-158.5"/>
</g>
<!-- Node9 -->
<g id="node10" class="node">
<title>Node9</title>
<g id="a_node10"><a xlink:href="a01557.html" target="_top" xlink:title="ADC input signal scaling = (ADCBUF &#45; &lt;offset&gt;) * &lt;factor&gt; &gt;&gt; 2^&lt;scaler&gt;">
<polygon fill="white" stroke="black" points="595,-152.5 595,-171.5 762,-171.5 762,-152.5 595,-152.5"/>
<text text-anchor="middle" x="678.5" y="-159.5" font-family="Helvetica,sans-Serif" font-size="10.00">BOOST_ADC_INPUT_SCALING_s</text>
</a>
</g>
</g>
<!-- Node8&#45;&gt;Node9 -->
<g id="edge9" class="edge">
<title>Node8&#45;&gt;Node9</title>
<path fill="none" stroke="midnightblue" d="M569.2,-162C577.82,-162 586.5,-162 595,-162"/>
<polygon fill="midnightblue" stroke="midnightblue" points="569.12,-158.5 559.12,-162 569.12,-165.5 569.12,-158.5"/>
</g>
<!-- Node11 -->
<g id="node12" class="node">
<title>Node11</title>
<g id="a_node12"><a xlink:href="a01569.html" target="_top" xlink:title="GPIO instance of the converter control GPIO.">
<polygon fill="white" stroke="black" points="401.5,-114.5 401.5,-133.5 544.5,-133.5 544.5,-114.5 401.5,-114.5"/>
<text text-anchor="middle" x="473" y="-121.5" font-family="Helvetica,sans-Serif" font-size="10.00">BOOST_GPIO_INSTANCE_s</text>
</a>
</g>
</g>
<!-- Node10&#45;&gt;Node11 -->
<g id="edge11" class="edge">
<title>Node10&#45;&gt;Node11</title>
<path fill="none" stroke="midnightblue" d="M338.12,-124C358.93,-124 381.17,-124 401.43,-124"/>
<polygon fill="midnightblue" stroke="midnightblue" points="338.03,-120.5 328.03,-124 338.03,-127.5 338.03,-120.5"/>
</g>
</g>
</svg>
